  0
SECTION
  2
HEADER
  9
$ACADVER
  1
AC1009
  9
$EXTMIN
 10
0.0
 20
0.0
 30
0.0
  9
$EXTMAX
 10
1000.0
 20
1000.0
 30
0.0
  9
$FILLMODE
 70
 0
  9
$SPLFRAME
 70
 1
  0
ENDSEC
  0
SECTION
  2
TABLES
  0
TABLE
  2
LAYER
 70
1
  0
LAYER
  2
0
 70
     0
 62
     7
  6
CONTINUOUS
  0
ENDTAB
  0
ENDSEC
  0
SECTION
  2
ENTITIES
  0
LINE
  8
0
 62
     0
 10
0.0950846
 20
19.3077
 30
0.0
 11
171.545
 21
19.3077
 31
0.0
  0
LINE
  8
0
 62
     0
 10
171.545
 20
19.3077
 30
0.0
 11
171.545
 21
0.257693
 31
0.0
  0
LINE
  8
0
 62
     0
 10
171.545
 20
0.257693
 30
0.0
 11
0.0950846
 21
0.257693
 31
0.0
  0
LINE
  8
0
 62
     0
 10
0.0950846
 20
0.257693
 30
0.0
 11
0.0950846
 21
19.3077
 31
0.0
  0
LINE
  8
0
 62
     0
 10
2.61965
 20
16.7831
 30
0.0
 11
2.61965
 21
2.78364
 31
0.0
  0
LINE
  8
0
 62
     0
 10
2.61965
 20
2.78364
 30
0.0
 11
16.6192
 21
2.78364
 31
0.0
  0
LINE
  8
0
 62
     0
 10
16.6192
 20
2.78364
 30
0.0
 11
16.6192
 21
3.01377
 31
0.0
  0
LINE
  8
0
 62
     0
 10
16.6192
 20
3.01377
 30
0.0
 11
17.4942
 21
3.01377
 31
0.0
  0
LINE
  8
0
 62
     0
 10
17.4942
 20
3.01377
 30
0.0
 11
17.4942
 21
2.03261
 31
0.0
  0
LINE
  8
0
 62
     0
 10
17.4942
 20
2.03261
 30
0.0
 11
20.7946
 21
2.03261
 31
0.0
  0
LINE
  8
0
 62
     0
 10
20.7946
 20
2.03261
 30
0.0
 11
20.7946
 21
3.01377
 31
0.0
  0
LINE
  8
0
 62
     0
 10
20.7946
 20
3.01377
 30
0.0
 11
22.5199
 21
3.01377
 31
0.0
  0
LINE
  8
0
 62
     0
 10
22.5199
 20
3.01377
 30
0.0
 11
22.5199
 21
7.48273
 31
0.0
  0
LINE
  8
0
 62
     0
 10
22.5199
 20
7.48273
 30
0.0
 11
25.2939
 21
7.48273
 31
0.0
  0
LINE
  8
0
 62
     0
 10
25.2939
 20
7.48273
 30
0.0
 11
25.2939
 21
3.01377
 31
0.0
  0
LINE
  8
0
 62
     0
 10
25.2939
 20
3.01377
 30
0.0
 11
27.0192
 21
3.01377
 31
0.0
  0
LINE
  8
0
 62
     0
 10
27.0192
 20
3.01377
 30
0.0
 11
27.0192
 21
2.03261
 31
0.0
  0
LINE
  8
0
 62
     0
 10
27.0192
 20
2.03261
 30
0.0
 11
30.3196
 21
2.03261
 31
0.0
  0
LINE
  8
0
 62
     0
 10
30.3196
 20
2.03261
 30
0.0
 11
30.3196
 21
3.01377
 31
0.0
  0
LINE
  8
0
 62
     0
 10
30.3196
 20
3.01377
 30
0.0
 11
32.0449
 21
3.01377
 31
0.0
  0
LINE
  8
0
 62
     0
 10
32.0449
 20
3.01377
 30
0.0
 11
32.0449
 21
7.48273
 31
0.0
  0
LINE
  8
0
 62
     0
 10
32.0449
 20
7.48273
 30
0.0
 11
78.8197
 21
7.48273
 31
0.0
  0
LINE
  8
0
 62
     0
 10
78.8197
 20
7.48273
 30
0.0
 11
78.8197
 21
2.78364
 31
0.0
  0
LINE
  8
0
 62
     0
 10
78.8197
 20
2.78364
 30
0.0
 11
92.819
 21
2.78364
 31
0.0
  0
LINE
  8
0
 62
     0
 10
92.819
 20
2.78364
 30
0.0
 11
92.819
 21
7.48273
 31
0.0
  0
LINE
  8
0
 62
     0
 10
92.819
 20
7.48273
 30
0.0
 11
139.594
 21
7.48273
 31
0.0
  0
LINE
  8
0
 62
     0
 10
139.594
 20
7.48273
 30
0.0
 11
139.594
 21
3.01377
 31
0.0
  0
LINE
  8
0
 62
     0
 10
139.594
 20
3.01377
 30
0.0
 11
141.319
 21
3.01377
 31
0.0
  0
LINE
  8
0
 62
     0
 10
141.319
 20
3.01377
 30
0.0
 11
141.319
 21
2.03261
 31
0.0
  0
LINE
  8
0
 62
     0
 10
141.319
 20
2.03261
 30
0.0
 11
144.619
 21
2.03261
 31
0.0
  0
LINE
  8
0
 62
     0
 10
144.619
 20
2.03261
 30
0.0
 11
144.619
 21
3.01377
 31
0.0
  0
LINE
  8
0
 62
     0
 10
144.619
 20
3.01377
 30
0.0
 11
146.345
 21
3.01377
 31
0.0
  0
LINE
  8
0
 62
     0
 10
146.345
 20
3.01377
 30
0.0
 11
146.345
 21
7.48273
 31
0.0
  0
LINE
  8
0
 62
     0
 10
146.345
 20
7.48273
 30
0.0
 11
149.119
 21
7.48273
 31
0.0
  0
LINE
  8
0
 62
     0
 10
149.119
 20
7.48273
 30
0.0
 11
149.119
 21
3.01377
 31
0.0
  0
LINE
  8
0
 62
     0
 10
149.119
 20
3.01377
 30
0.0
 11
150.844
 21
3.01377
 31
0.0
  0
LINE
  8
0
 62
     0
 10
150.844
 20
3.01377
 30
0.0
 11
150.844
 21
2.03261
 31
0.0
  0
LINE
  8
0
 62
     0
 10
150.844
 20
2.03261
 30
0.0
 11
154.144
 21
2.03261
 31
0.0
  0
LINE
  8
0
 62
     0
 10
154.144
 20
2.03261
 30
0.0
 11
154.144
 21
3.01377
 31
0.0
  0
LINE
  8
0
 62
     0
 10
154.144
 20
3.01377
 30
0.0
 11
155.02
 21
3.01377
 31
0.0
  0
LINE
  8
0
 62
     0
 10
155.02
 20
3.01377
 30
0.0
 11
155.02
 21
2.78364
 31
0.0
  0
LINE
  8
0
 62
     0
 10
155.02
 20
2.78364
 30
0.0
 11
169.019
 21
2.78364
 31
0.0
  0
LINE
  8
0
 62
     0
 10
169.019
 20
2.78364
 30
0.0
 11
169.019
 21
16.7831
 31
0.0
  0
LINE
  8
0
 62
     0
 10
169.019
 20
16.7831
 30
0.0
 11
155.02
 21
16.7831
 31
0.0
  0
LINE
  8
0
 62
     0
 10
155.02
 20
16.7831
 30
0.0
 11
155.02
 21
15.3128
 31
0.0
  0
LINE
  8
0
 62
     0
 10
155.02
 20
15.3128
 30
0.0
 11
154.144
 21
15.3128
 31
0.0
  0
LINE
  8
0
 62
     0
 10
154.144
 20
15.3128
 30
0.0
 11
154.144
 21
16.2347
 31
0.0
  0
LINE
  8
0
 62
     0
 10
154.144
 20
16.2347
 30
0.0
 11
150.844
 21
16.2347
 31
0.0
  0
LINE
  8
0
 62
     0
 10
150.844
 20
16.2347
 30
0.0
 11
150.844
 21
15.3128
 31
0.0
  0
LINE
  8
0
 62
     0
 10
150.844
 20
15.3128
 30
0.0
 11
149.119
 21
15.3128
 31
0.0
  0
LINE
  8
0
 62
     0
 10
149.119
 20
15.3128
 30
0.0
 11
149.119
 21
12.0826
 31
0.0
  0
LINE
  8
0
 62
     0
 10
149.119
 20
12.0826
 30
0.0
 11
146.345
 21
12.0826
 31
0.0
  0
LINE
  8
0
 62
     0
 10
146.345
 20
12.0826
 30
0.0
 11
146.345
 21
15.3128
 31
0.0
  0
LINE
  8
0
 62
     0
 10
146.345
 20
15.3128
 30
0.0
 11
144.619
 21
15.3128
 31
0.0
  0
LINE
  8
0
 62
     0
 10
144.619
 20
15.3128
 30
0.0
 11
144.619
 21
16.2347
 31
0.0
  0
LINE
  8
0
 62
     0
 10
144.619
 20
16.2347
 30
0.0
 11
141.319
 21
16.2347
 31
0.0
  0
LINE
  8
0
 62
     0
 10
141.319
 20
16.2347
 30
0.0
 11
141.319
 21
15.3128
 31
0.0
  0
LINE
  8
0
 62
     0
 10
141.319
 20
15.3128
 30
0.0
 11
139.594
 21
15.3128
 31
0.0
  0
LINE
  8
0
 62
     0
 10
139.594
 20
15.3128
 30
0.0
 11
139.594
 21
12.0826
 31
0.0
  0
LINE
  8
0
 62
     0
 10
139.594
 20
12.0826
 30
0.0
 11
92.819
 21
12.0826
 31
0.0
  0
LINE
  8
0
 62
     0
 10
92.819
 20
12.0826
 30
0.0
 11
92.819
 21
16.7831
 31
0.0
  0
LINE
  8
0
 62
     0
 10
92.819
 20
16.7831
 30
0.0
 11
78.8197
 21
16.7831
 31
0.0
  0
LINE
  8
0
 62
     0
 10
78.8197
 20
16.7831
 30
0.0
 11
78.8197
 21
12.0826
 31
0.0
  0
LINE
  8
0
 62
     0
 10
78.8197
 20
12.0826
 30
0.0
 11
32.0449
 21
12.0826
 31
0.0
  0
LINE
  8
0
 62
     0
 10
32.0449
 20
12.0826
 30
0.0
 11
32.0449
 21
15.3128
 31
0.0
  0
LINE
  8
0
 62
     0
 10
32.0449
 20
15.3128
 30
0.0
 11
30.3196
 21
15.3128
 31
0.0
  0
LINE
  8
0
 62
     0
 10
30.3196
 20
15.3128
 30
0.0
 11
30.3196
 21
16.2347
 31
0.0
  0
LINE
  8
0
 62
     0
 10
30.3196
 20
16.2347
 30
0.0
 11
27.0192
 21
16.2347
 31
0.0
  0
LINE
  8
0
 62
     0
 10
27.0192
 20
16.2347
 30
0.0
 11
27.0192
 21
15.3128
 31
0.0
  0
LINE
  8
0
 62
     0
 10
27.0192
 20
15.3128
 30
0.0
 11
25.2939
 21
15.3128
 31
0.0
  0
LINE
  8
0
 62
     0
 10
25.2939
 20
15.3128
 30
0.0
 11
25.2939
 21
12.0826
 31
0.0
  0
LINE
  8
0
 62
     0
 10
25.2939
 20
12.0826
 30
0.0
 11
22.5199
 21
12.0826
 31
0.0
  0
LINE
  8
0
 62
     0
 10
22.5199
 20
12.0826
 30
0.0
 11
22.5199
 21
15.3128
 31
0.0
  0
LINE
  8
0
 62
     0
 10
22.5199
 20
15.3128
 30
0.0
 11
20.7946
 21
15.3128
 31
0.0
  0
LINE
  8
0
 62
     0
 10
20.7946
 20
15.3128
 30
0.0
 11
20.7946
 21
16.2347
 31
0.0
  0
LINE
  8
0
 62
     0
 10
20.7946
 20
16.2347
 30
0.0
 11
17.4942
 21
16.2347
 31
0.0
  0
LINE
  8
0
 62
     0
 10
17.4942
 20
16.2347
 30
0.0
 11
17.4942
 21
15.3128
 31
0.0
  0
LINE
  8
0
 62
     0
 10
17.4942
 20
15.3128
 30
0.0
 11
16.6192
 21
15.3128
 31
0.0
  0
LINE
  8
0
 62
     0
 10
16.6192
 20
15.3128
 30
0.0
 11
16.6192
 21
16.7831
 31
0.0
  0
LINE
  8
0
 62
     0
 10
16.6192
 20
16.7831
 30
0.0
 11
2.61965
 21
16.7831
 31
0.0
  0
ENDSEC
  0
EOF
