  0
SECTION
  2
HEADER
  9
$ACADVER
  1
AC1014
  9
$HANDSEED
  5
FFFF
  9
$MEASUREMENT
 70
     1
  0
ENDSEC
  0
SECTION
  2
TABLES
  0
TABLE
  2
VPORT
  5
8
330
0
100
AcDbSymbolTable
 70
     4
  0
VPORT
  5
2E
330
8
100
AcDbSymbolTableRecord
100
AcDbViewportTableRecord
  2
*ACTIVE
 70
     0
 10
0.0
 20
0.0
 11
1.0
 21
1.0
 12
210.0
 22
148.5
 13
0.0
 23
0.0
 14
10.0
 24
10.0
 15
10.0
 25
10.0
 16
0.0
 26
0.0
 36
1.0
 17
0.0
 27
0.0
 37
0.0
 40
341.0
 41
1.24
 42
50.0
 43
0.0
 44
0.0
 50
0.0
 51
0.0
 71
     0
 72
   100
 73
     1
 74
     3
 75
     0
 76
     0
 77
     0
 78
     0
  0
ENDTAB
  0
TABLE
  2
LTYPE
  5
5
330
0
100
AcDbSymbolTable
 70
     1
  0
LTYPE
  5
14
330
5
100
AcDbSymbolTableRecord
100
AcDbLinetypeTableRecord
  2
BYBLOCK
 70
     0
  3

 72
    65
 73
     0
 40
0.0
  0
LTYPE
  5
15
330
5
100
AcDbSymbolTableRecord
100
AcDbLinetypeTableRecord
  2
BYLAYER
 70
     0
  3

 72
    65
 73
     0
 40
0.0
  0
LTYPE
  5
16
330
5
100
AcDbSymbolTableRecord
100
AcDbLinetypeTableRecord
  2
CONTINUOUS
 70
     0
  3
Solid line
 72
    65
 73
     0
 40
0.0
  0
ENDTAB
  0
TABLE
  2
LAYER
  5
2
100
AcDbSymbolTable
 70
2
  0
LAYER
  5
50
100
AcDbSymbolTableRecord
100
AcDbLayerTableRecord
  2
0
 70
0
  6
CONTINUOUS
  0
LAYER
  5
51
100
AcDbSymbolTableRecord
100
AcDbLayerTableRecord
  2
Layer_1
 70
0
  6
CONTINUOUS
  0
ENDTAB
  0
TABLE
  2
STYLE
  5
3
330
0
100
AcDbSymbolTable
 70
     1
  0
STYLE
  5
11
330
3
100
AcDbSymbolTableRecord
100
AcDbTextStyleTableRecord
  2
STANDARD
 70
     0
 40
0.0
 41
1.0
 50
0.0
 71
     0
 42
2.5
  3
txt
  4

  0
ENDTAB
  0
TABLE
  2
VIEW
  5
6
330
0
100
AcDbSymbolTable
 70
     0
  0
ENDTAB
  0
TABLE
  2
UCS
  5
7
330
0
100
AcDbSymbolTable
 70
     0
  0
ENDTAB
  0
TABLE
  2
APPID
  5
9
330
0
100
AcDbSymbolTable
 70
     2
  0
APPID
  5
12
330
9
100
AcDbSymbolTableRecord
100
AcDbRegAppTableRecord
  2
ACAD
 70
     0
  0
ENDTAB
  0
TABLE
  2
DIMSTYLE
  5
A
330
0
100
AcDbSymbolTable
 70
     1
  0
DIMSTYLE
105
27
330
A
100
AcDbSymbolTableRecord
100
AcDbDimStyleTableRecord
  2
ISO-25
 70
     0
  3

  4

  5

  6

  7

 40
1.0
 41
2.5
 42
0.625
 43
3.75
 44
1.25
 45
0.0
 46
0.0
 47
0.0
 48
0.0
140
2.5
141
2.5
142
0.0
143
0.03937007874016
144
1.0
145
0.0
146
1.0
147
0.625
 71
     0
 72
     0
 73
     0
 74
     0
 75
     0
 76
     0
 77
     1
 78
     8
170
     0
171
     3
172
     1
173
     0
174
     0
175
     0
176
     0
177
     0
178
     0
270
     2
271
     2
272
     2
273
     2
274
     3
340
11
275
     0
280
     0
281
     0
282
     0
283
     0
284
     8
285
     0
286
     0
287
     3
288
     0
  0
ENDTAB
  0
TABLE
  2
BLOCK_RECORD
  5
1
330
0
100
AcDbSymbolTable
 70
     1
  0
BLOCK_RECORD
  5
1F
330
1
100
AcDbSymbolTableRecord
100
AcDbBlockTableRecord
  2
*MODEL_SPACE
  0
BLOCK_RECORD
  5
1B
330
1
100
AcDbSymbolTableRecord
100
AcDbBlockTableRecord
  2
*PAPER_SPACE
  0
ENDTAB
  0
ENDSEC
  0
SECTION
  2
BLOCKS
  0
BLOCK
  5
20
330
1F
100
AcDbEntity
  8
0
100
AcDbBlockBegin
  2
*MODEL_SPACE
 70
     0
 10
0.0
 20
0.0
 30
0.0
  3
*MODEL_SPACE
  1

  0
ENDBLK
  5
21
330
1F
100
AcDbEntity
  8
0
100
AcDbBlockEnd
  0
BLOCK
  5
1C
330
1B
100
AcDbEntity
 67
     1
  8
0
100
AcDbBlockBegin
  2
*PAPER_SPACE
  1

  0
ENDBLK
  5
1D
330
1B
100
AcDbEntity
 67
     1
  8
0
100
AcDbBlockEnd
  0
ENDSEC
  0
SECTION
  2
ENTITIES
  0
LWPOLYLINE
  5
100
100
AcDbEntity
  8
Layer_1
 62
3
100
AcDbPolyline
 90
2
 70
0
 10
137.571139
 20
444.158129
 30
0.0
 10
137.571139
 20
422.556129
 30
0.0
  0
LWPOLYLINE
  5
101
100
AcDbEntity
  8
Layer_1
 62
3
100
AcDbPolyline
 90
5
 70
0
 10
486.771131
 20
408.158130
 30
0.0
 10
493.970131
 20
408.158130
 30
0.0
 10
493.970131
 20
375.755130
 30
0.0
 10
486.771131
 20
375.755130
 30
0.0
 10
486.771131
 20
336.158131
 30
0.0
  0
LWPOLYLINE
  5
102
100
AcDbEntity
  8
Layer_1
 62
3
100
AcDbPolyline
 90
5
 70
0
 10
137.571139
 20
577.357126
 30
0.0
 10
137.571139
 20
462.158128
 30
0.0
 10
144.771139
 20
462.158128
 30
0.0
 10
144.771139
 20
444.158129
 30
0.0
 10
137.571139
 20
444.158129
 30
0.0
  0
LWPOLYLINE
  5
103
100
AcDbEntity
  8
Layer_1
 62
3
100
AcDbPolyline
 90
2
 70
0
 10
303.173135
 20
559.357126
 30
0.0
 10
321.173135
 20
559.357126
 30
0.0
  0
LWPOLYLINE
  5
104
100
AcDbEntity
  8
Layer_1
 62
3
100
AcDbPolyline
 90
7
 70
0
 10
137.571139
 20
422.556129
 30
0.0
 10
144.771139
 20
422.556129
 30
0.0
 10
144.771139
 20
408.158130
 30
0.0
 10
137.571139
 20
408.158130
 30
0.0
 10
137.571139
 20
375.755130
 30
0.0
 10
144.771139
 20
375.755130
 30
0.0
 10
144.771139
 20
336.158131
 30
0.0
  0
LWPOLYLINE
  5
105
100
AcDbEntity
  8
Layer_1
 62
3
100
AcDbPolyline
 90
2
 70
0
 10
137.571139
 20
577.357126
 30
0.0
 10
303.173135
 20
577.357126
 30
0.0
  0
LWPOLYLINE
  5
106
100
AcDbEntity
  8
Layer_1
 62
3
100
AcDbPolyline
 90
2
 70
0
 10
486.771131
 20
336.158131
 30
0.0
 10
144.771139
 20
336.158131
 30
0.0
  0
LWPOLYLINE
  5
107
100
AcDbEntity
  8
Layer_1
 62
3
100
AcDbPolyline
 90
3
 70
0
 10
493.970131
 20
422.556129
 30
0.0
 10
486.771131
 20
422.556129
 30
0.0
 10
486.771131
 20
408.158130
 30
0.0
  0
LWPOLYLINE
  5
108
100
AcDbEntity
  8
Layer_1
 62
3
100
AcDbPolyline
 90
2
 70
0
 10
303.173135
 20
577.357126
 30
0.0
 10
303.173135
 20
559.357126
 30
0.0
  0
LWPOLYLINE
  5
109
100
AcDbEntity
  8
Layer_1
 62
3
100
AcDbPolyline
 90
8
 70
0
 10
321.173135
 20
559.357126
 30
0.0
 10
321.173135
 20
570.158126
 30
0.0
 10
339.173135
 20
570.158126
 30
0.0
 10
339.173135
 20
559.357126
 30
0.0
 10
357.173134
 20
559.357126
 30
0.0
 10
357.173134
 20
570.158126
 30
0.0
 10
393.173133
 20
570.158126
 30
0.0
 10
393.173133
 20
559.357126
 30
0.0
  0
LWPOLYLINE
  5
10a
100
AcDbEntity
  8
Layer_1
 62
3
100
AcDbPolyline
 90
8
 70
0
 10
407.571133
 20
559.357126
 30
0.0
 10
407.571133
 20
577.357126
 30
0.0
 10
493.970131
 20
577.357126
 30
0.0
 10
493.970131
 20
462.158128
 30
0.0
 10
486.771131
 20
462.158128
 30
0.0
 10
486.771131
 20
444.158129
 30
0.0
 10
493.970131
 20
444.158129
 30
0.0
 10
493.970131
 20
422.556129
 30
0.0
  0
LWPOLYLINE
  5
10b
100
AcDbEntity
  8
Layer_1
 62
3
100
AcDbPolyline
 90
2
 70
0
 10
393.173133
 20
559.357126
 30
0.0
 10
407.571133
 20
559.357126
 30
0.0
  0
LWPOLYLINE
  5
10c
100
AcDbEntity
  8
Layer_1
 62
5
100
AcDbPolyline
 90
20
 70
1
 10
484.853131
 20
470.318128
 30
0.0
 10
485.091131
 20
470.318128
 30
0.0
 10
485.571131
 20
470.076128
 30
0.0
 10
485.571131
 20
470.076128
 30
0.0
 10
485.810131
 20
469.595128
 30
0.0
 10
486.052131
 20
468.877128
 30
0.0
 10
486.052131
 20
468.158128
 30
0.0
 10
485.810131
 20
467.435128
 30
0.0
 10
485.571131
 20
467.197128
 30
0.0
 10
485.571131
 20
466.959128
 30
0.0
 10
485.091131
 20
466.716128
 30
0.0
 10
484.853131
 20
466.716128
 30
0.0
 10
484.372131
 20
466.959128
 30
0.0
 10
484.372131
 20
467.197128
 30
0.0
 10
484.130131
 20
467.435128
 30
0.0
 10
483.892131
 20
468.158128
 30
0.0
 10
483.892131
 20
468.877128
 30
0.0
 10
484.130131
 20
469.595128
 30
0.0
 10
484.372131
 20
470.076128
 30
0.0
 10
484.372131
 20
470.076128
 30
0.0
  0
LWPOLYLINE
  5
10d
100
AcDbEntity
  8
Layer_1
 62
5
100
AcDbPolyline
 90
6
 70
0
 10
487.489131
 20
467.197128
 30
0.0
 10
487.731131
 20
466.959128
 30
0.0
 10
487.489131
 20
466.716128
 30
0.0
 10
487.489131
 20
466.959128
 30
0.0
 10
487.489131
 20
467.197128
 30
0.0
 10
487.489131
 20
466.716128
 30
0.0
  0
LWPOLYLINE
  5
10e
100
AcDbEntity
  8
Layer_1
 62
5
100
AcDbPolyline
 90
22
 70
0
 10
490.853131
 20
470.318128
 30
0.0
 10
490.130131
 20
470.318128
 30
0.0
 10
489.892131
 20
470.076128
 30
0.0
 10
489.649131
 20
470.076128
 30
0.0
 10
489.173131
 20
469.357128
 30
0.0
 10
489.173131
 20
468.638128
 30
0.0
 10
489.173131
 20
467.435128
 30
0.0
 10
489.173131
 20
467.197128
 30
0.0
 10
489.411131
 20
466.959128
 30
0.0
 10
489.892131
 20
466.716128
 30
0.0
 10
490.610131
 20
466.716128
 30
0.0
 10
490.853131
 20
466.959128
 30
0.0
 10
491.091131
 20
467.197128
 30
0.0
 10
491.091131
 20
467.435128
 30
0.0
 10
491.091131
 20
468.158128
 30
0.0
 10
491.091131
 20
468.638128
 30
0.0
 10
490.853131
 20
468.638128
 30
0.0
 10
490.610131
 20
468.877128
 30
0.0
 10
489.892131
 20
468.877128
 30
0.0
 10
489.411131
 20
468.638128
 30
0.0
 10
489.173131
 20
468.638128
 30
0.0
 10
489.173131
 20
468.158128
 30
0.0
  0
LWPOLYLINE
  5
10f
100
AcDbEntity
  8
Layer_1
 62
5
100
AcDbPolyline
 90
20
 70
1
 10
484.853131
 20
441.517129
 30
0.0
 10
485.091131
 20
441.517129
 30
0.0
 10
485.571131
 20
441.279129
 30
0.0
 10
485.571131
 20
441.279129
 30
0.0
 10
485.810131
 20
440.798129
 30
0.0
 10
486.052131
 20
440.076129
 30
0.0
 10
486.052131
 20
439.357129
 30
0.0
 10
485.810131
 20
438.638129
 30
0.0
 10
485.571131
 20
438.396129
 30
0.0
 10
485.571131
 20
438.158129
 30
0.0
 10
485.091131
 20
437.916129
 30
0.0
 10
484.853131
 20
437.916129
 30
0.0
 10
484.372131
 20
438.158129
 30
0.0
 10
484.372131
 20
438.396129
 30
0.0
 10
484.130131
 20
438.638129
 30
0.0
 10
483.892131
 20
439.357129
 30
0.0
 10
483.892131
 20
440.076129
 30
0.0
 10
484.130131
 20
440.798129
 30
0.0
 10
484.372131
 20
441.279129
 30
0.0
 10
484.372131
 20
441.279129
 30
0.0
  0
LWPOLYLINE
  5
110
100
AcDbEntity
  8
Layer_1
 62
5
100
AcDbPolyline
 90
6
 70
0
 10
487.489131
 20
438.396129
 30
0.0
 10
487.731131
 20
438.158129
 30
0.0
 10
487.489131
 20
437.916129
 30
0.0
 10
487.489131
 20
438.158129
 30
0.0
 10
487.489131
 20
438.396129
 30
0.0
 10
487.489131
 20
437.916129
 30
0.0
  0
LWPOLYLINE
  5
111
100
AcDbEntity
  8
Layer_1
 62
5
100
AcDbPolyline
 90
22
 70
0
 10
490.853131
 20
441.517129
 30
0.0
 10
490.130131
 20
441.517129
 30
0.0
 10
489.892131
 20
441.279129
 30
0.0
 10
489.649131
 20
441.279129
 30
0.0
 10
489.173131
 20
440.556129
 30
0.0
 10
489.173131
 20
439.837129
 30
0.0
 10
489.173131
 20
438.638129
 30
0.0
 10
489.173131
 20
438.396129
 30
0.0
 10
489.411131
 20
438.158129
 30
0.0
 10
489.892131
 20
437.916129
 30
0.0
 10
490.610131
 20
437.916129
 30
0.0
 10
490.853131
 20
438.158129
 30
0.0
 10
491.091131
 20
438.396129
 30
0.0
 10
491.091131
 20
438.638129
 30
0.0
 10
491.091131
 20
439.357129
 30
0.0
 10
491.091131
 20
439.837129
 30
0.0
 10
490.853131
 20
439.837129
 30
0.0
 10
490.610131
 20
440.076129
 30
0.0
 10
489.892131
 20
440.076129
 30
0.0
 10
489.411131
 20
439.837129
 30
0.0
 10
489.173131
 20
439.837129
 30
0.0
 10
489.173131
 20
439.357129
 30
0.0
  0
LWPOLYLINE
  5
112
100
AcDbEntity
  8
Layer_1
 62
5
100
AcDbPolyline
 90
20
 70
1
 10
484.853131
 20
405.517130
 30
0.0
 10
485.091131
 20
405.517130
 30
0.0
 10
485.571131
 20
405.279130
 30
0.0
 10
485.571131
 20
405.279130
 30
0.0
 10
485.810131
 20
404.798130
 30
0.0
 10
486.052131
 20
404.076130
 30
0.0
 10
486.052131
 20
403.357130
 30
0.0
 10
485.810131
 20
402.638130
 30
0.0
 10
485.571131
 20
402.396130
 30
0.0
 10
485.571131
 20
402.158130
 30
0.0
 10
485.091131
 20
401.916130
 30
0.0
 10
484.853131
 20
401.916130
 30
0.0
 10
484.372131
 20
402.158130
 30
0.0
 10
484.372131
 20
402.396130
 30
0.0
 10
484.130131
 20
402.638130
 30
0.0
 10
483.892131
 20
403.357130
 30
0.0
 10
483.892131
 20
404.076130
 30
0.0
 10
484.130131
 20
404.798130
 30
0.0
 10
484.372131
 20
405.279130
 30
0.0
 10
484.372131
 20
405.279130
 30
0.0
  0
LWPOLYLINE
  5
113
100
AcDbEntity
  8
Layer_1
 62
5
100
AcDbPolyline
 90
6
 70
0
 10
487.489131
 20
402.396130
 30
0.0
 10
487.731131
 20
402.158130
 30
0.0
 10
487.489131
 20
401.916130
 30
0.0
 10
487.489131
 20
402.158130
 30
0.0
 10
487.489131
 20
402.396130
 30
0.0
 10
487.489131
 20
401.916130
 30
0.0
  0
LWPOLYLINE
  5
114
100
AcDbEntity
  8
Layer_1
 62
5
100
AcDbPolyline
 90
22
 70
0
 10
490.853131
 20
405.517130
 30
0.0
 10
490.130131
 20
405.517130
 30
0.0
 10
489.892131
 20
405.279130
 30
0.0
 10
489.649131
 20
405.279130
 30
0.0
 10
489.173131
 20
404.556130
 30
0.0
 10
489.173131
 20
403.837130
 30
0.0
 10
489.173131
 20
402.638130
 30
0.0
 10
489.173131
 20
402.396130
 30
0.0
 10
489.411131
 20
402.158130
 30
0.0
 10
489.892131
 20
401.916130
 30
0.0
 10
490.610131
 20
401.916130
 30
0.0
 10
490.853131
 20
402.158130
 30
0.0
 10
491.091131
 20
402.396130
 30
0.0
 10
491.091131
 20
402.638130
 30
0.0
 10
491.091131
 20
403.357130
 30
0.0
 10
491.091131
 20
403.837130
 30
0.0
 10
490.853131
 20
403.837130
 30
0.0
 10
490.610131
 20
404.076130
 30
0.0
 10
489.892131
 20
404.076130
 30
0.0
 10
489.411131
 20
403.837130
 30
0.0
 10
489.173131
 20
403.837130
 30
0.0
 10
489.173131
 20
403.357130
 30
0.0
  0
LWPOLYLINE
  5
115
100
AcDbEntity
  8
Layer_1
 62
5
100
AcDbPolyline
 90
2
 70
0
 10
482.212131
 20
454.478129
 30
0.0
 10
482.212131
 20
452.318129
 30
0.0
  0
LWPOLYLINE
  5
116
100
AcDbEntity
  8
Layer_1
 62
5
100
AcDbPolyline
 90
5
 70
0
 10
482.212131
 20
453.279129
 30
0.0
 10
478.610132
 20
453.279129
 30
0.0
 10
479.091131
 20
453.037129
 30
0.0
 10
479.329131
 20
452.798129
 30
0.0
 10
479.571131
 20
452.318129
 30
0.0
  0
LWPOLYLINE
  5
117
100
AcDbEntity
  8
Layer_1
 62
5
100
AcDbPolyline
 90
6
 70
0
 10
481.731131
 20
455.916129
 30
0.0
 10
481.970131
 20
456.158129
 30
0.0
 10
482.212131
 20
455.916129
 30
0.0
 10
481.970131
 20
455.677129
 30
0.0
 10
481.731131
 20
455.916129
 30
0.0
 10
482.212131
 20
455.916129
 30
0.0
  0
LWPOLYLINE
  5
118
100
AcDbEntity
  8
Layer_1
 62
5
100
AcDbPolyline
 90
2
 70
0
 10
482.212131
 20
459.517128
 30
0.0
 10
482.212131
 20
457.357129
 30
0.0
  0
LWPOLYLINE
  5
119
100
AcDbEntity
  8
Layer_1
 62
5
100
AcDbPolyline
 90
5
 70
0
 10
482.212131
 20
458.556128
 30
0.0
 10
478.610132
 20
458.556128
 30
0.0
 10
479.091131
 20
458.076128
 30
0.0
 10
479.329131
 20
457.837128
 30
0.0
 10
479.571131
 20
457.357129
 30
0.0
  0
LWPOLYLINE
  5
11a
100
AcDbEntity
  8
Layer_1
 62
5
100
AcDbPolyline
 90
11
 70
0
 10
496.853131
 20
430.716129
 30
0.0
 10
496.853131
 20
430.959129
 30
0.0
 10
496.610131
 20
431.197129
 30
0.0
 10
496.610131
 20
432.158129
 30
0.0
 10
496.853131
 20
432.396129
 30
0.0
 10
496.853131
 20
432.638129
 30
0.0
 10
497.329131
 20
432.877129
 30
0.0
 10
497.571131
 20
432.877129
 30
0.0
 10
498.052131
 20
432.638129
 30
0.0
 10
500.212131
 20
430.478129
 30
0.0
 10
500.212131
 20
432.877129
 30
0.0
  0
LWPOLYLINE
  5
11b
100
AcDbEntity
  8
Layer_1
 62
5
100
AcDbPolyline
 90
6
 70
0
 10
499.731131
 20
434.318129
 30
0.0
 10
499.970131
 20
434.556129
 30
0.0
 10
500.212131
 20
434.318129
 30
0.0
 10
499.970131
 20
434.076129
 30
0.0
 10
499.731131
 20
434.318129
 30
0.0
 10
500.212131
 20
434.318129
 30
0.0
  0
LWPOLYLINE
  5
11c
100
AcDbEntity
  8
Layer_1
 62
5
100
AcDbPolyline
 90
11
 70
0
 10
496.853131
 20
435.755129
 30
0.0
 10
496.853131
 20
435.998129
 30
0.0
 10
496.610131
 20
436.478129
 30
0.0
 10
496.610131
 20
437.197129
 30
0.0
 10
496.853131
 20
437.677129
 30
0.0
 10
496.853131
 20
437.677129
 30
0.0
 10
497.329131
 20
437.916129
 30
0.0
 10
497.571131
 20
437.916129
 30
0.0
 10
498.052131
 20
437.677129
 30
0.0
 10
500.212131
 20
435.755129
 30
0.0
 10
500.212131
 20
437.916129
 30
0.0
  0
LWPOLYLINE
  5
11d
100
AcDbEntity
  8
Layer_1
 62
5
100
AcDbPolyline
 90
11
 70
0
 10
496.853131
 20
439.357129
 30
0.0
 10
496.853131
 20
439.357129
 30
0.0
 10
496.610131
 20
439.837129
 30
0.0
 10
496.610131
 20
440.556129
 30
0.0
 10
496.853131
 20
441.037129
 30
0.0
 10
496.853131
 20
441.279129
 30
0.0
 10
497.329131
 20
441.279129
 30
0.0
 10
497.571131
 20
441.279129
 30
0.0
 10
498.052131
 20
441.279129
 30
0.0
 10
500.212131
 20
439.119129
 30
0.0
 10
500.212131
 20
441.279129
 30
0.0
  0
LWPOLYLINE
  5
11e
100
AcDbEntity
  8
Layer_1
 62
5
100
AcDbPolyline
 90
11
 70
0
 10
325.489135
 20
574.236126
 30
0.0
 10
325.731135
 20
574.478126
 30
0.0
 10
325.970135
 20
574.716126
 30
0.0
 10
326.931135
 20
574.716126
 30
0.0
 10
327.411135
 20
574.478126
 30
0.0
 10
327.411135
 20
574.236126
 30
0.0
 10
327.649135
 20
573.998126
 30
0.0
 10
327.649135
 20
573.755126
 30
0.0
 10
327.411135
 20
573.037126
 30
0.0
 10
325.489135
 20
571.119126
 30
0.0
 10
327.649135
 20
571.119126
 30
0.0
  0
LWPOLYLINE
  5
11f
100
AcDbEntity
  8
Layer_1
 62
5
100
AcDbPolyline
 90
6
 70
0
 10
329.091135
 20
571.357126
 30
0.0
 10
329.329135
 20
571.357126
 30
0.0
 10
329.091135
 20
571.119126
 30
0.0
 10
329.091135
 20
571.357126
 30
0.0
 10
329.091135
 20
571.357126
 30
0.0
 10
329.091135
 20
571.119126
 30
0.0
  0
LWPOLYLINE
  5
120
100
AcDbEntity
  8
Layer_1
 62
5
100
AcDbPolyline
 90
16
 70
0
 10
332.692135
 20
574.716126
 30
0.0
 10
331.013135
 20
574.716126
 30
0.0
 10
330.771135
 20
573.037126
 30
0.0
 10
331.013135
 20
573.037126
 30
0.0
 10
331.251135
 20
573.279126
 30
0.0
 10
332.212135
 20
573.279126
 30
0.0
 10
332.450135
 20
573.037126
 30
0.0
 10
332.692135
 20
573.037126
 30
0.0
 10
332.692135
 20
572.556126
 30
0.0
 10
332.692135
 20
571.837126
 30
0.0
 10
332.692135
 20
571.357126
 30
0.0
 10
332.450135
 20
571.357126
 30
0.0
 10
332.212135
 20
571.119126
 30
0.0
 10
331.251135
 20
571.119126
 30
0.0
 10
331.013135
 20
571.357126
 30
0.0
 10
330.771135
 20
571.357126
 30
0.0
  0
LWPOLYLINE
  5
121
100
AcDbEntity
  8
Layer_1
 62
5
100
AcDbPolyline
 90
2
 70
0
 10
335.810135
 20
573.517126
 30
0.0
 10
335.810135
 20
571.119126
 30
0.0
  0
LWPOLYLINE
  5
122
100
AcDbEntity
  8
Layer_1
 62
5
100
AcDbPolyline
 90
3
 70
0
 10
335.091135
 20
574.959126
 30
0.0
 10
334.130135
 20
572.318126
 30
0.0
 10
336.290135
 20
572.318126
 30
0.0
  0
LWPOLYLINE
  5
123
100
AcDbEntity
  8
Layer_1
 62
5
100
AcDbPolyline
 90
2
 70
0
 10
482.212131
 20
414.877129
 30
0.0
 10
482.212131
 20
412.716129
 30
0.0
  0
LWPOLYLINE
  5
124
100
AcDbEntity
  8
Layer_1
 62
5
100
AcDbPolyline
 90
5
 70
0
 10
482.212131
 20
413.677129
 30
0.0
 10
478.610132
 20
413.677129
 30
0.0
 10
479.091131
 20
413.435129
 30
0.0
 10
479.329131
 20
413.197129
 30
0.0
 10
479.571131
 20
412.716129
 30
0.0
  0
LWPOLYLINE
  5
125
100
AcDbEntity
  8
Layer_1
 62
5
100
AcDbPolyline
 90
6
 70
0
 10
481.731131
 20
416.318129
 30
0.0
 10
481.970131
 20
416.556129
 30
0.0
 10
482.212131
 20
416.318129
 30
0.0
 10
481.970131
 20
416.076129
 30
0.0
 10
481.731131
 20
416.318129
 30
0.0
 10
482.212131
 20
416.318129
 30
0.0
  0
LWPOLYLINE
  5
126
100
AcDbEntity
  8
Layer_1
 62
5
100
AcDbPolyline
 90
2
 70
0
 10
482.212131
 20
419.916129
 30
0.0
 10
482.212131
 20
417.755129
 30
0.0
  0
LWPOLYLINE
  5
127
100
AcDbEntity
  8
Layer_1
 62
5
100
AcDbPolyline
 90
5
 70
0
 10
482.212131
 20
418.959129
 30
0.0
 10
478.610132
 20
418.959129
 30
0.0
 10
479.091131
 20
418.478129
 30
0.0
 10
479.329131
 20
418.236129
 30
0.0
 10
479.571131
 20
417.755129
 30
0.0
  0
LWPOLYLINE
  5
128
100
AcDbEntity
  8
Layer_1
 62
5
100
AcDbPolyline
 90
14
 70
0
 10
496.610131
 20
387.517130
 30
0.0
 10
496.610131
 20
389.677130
 30
0.0
 10
497.810131
 20
388.478130
 30
0.0
 10
497.810131
 20
388.959130
 30
0.0
 10
498.052131
 20
389.197130
 30
0.0
 10
498.290131
 20
389.435130
 30
0.0
 10
498.532131
 20
389.677130
 30
0.0
 10
499.489131
 20
389.677130
 30
0.0
 10
499.731131
 20
389.435130
 30
0.0
 10
499.970131
 20
389.197130
 30
0.0
 10
500.212131
 20
388.959130
 30
0.0
 10
500.212131
 20
387.998130
 30
0.0
 10
499.970131
 20
387.517130
 30
0.0
 10
499.731131
 20
387.517130
 30
0.0
  0
LWPOLYLINE
  5
129
100
AcDbEntity
  8
Layer_1
 62
5
100
AcDbPolyline
 90
6
 70
0
 10
499.731131
 20
391.119130
 30
0.0
 10
499.970131
 20
391.357130
 30
0.0
 10
500.212131
 20
391.119130
 30
0.0
 10
499.970131
 20
390.877130
 30
0.0
 10
499.731131
 20
391.119130
 30
0.0
 10
500.212131
 20
391.119130
 30
0.0
  0
LWPOLYLINE
  5
12a
100
AcDbEntity
  8
Layer_1
 62
5
100
AcDbPolyline
 90
2
 70
0
 10
500.212131
 20
394.716130
 30
0.0
 10
500.212131
 20
392.556130
 30
0.0
  0
LWPOLYLINE
  5
12b
100
AcDbEntity
  8
Layer_1
 62
5
100
AcDbPolyline
 90
5
 70
0
 10
500.212131
 20
393.755130
 30
0.0
 10
496.610131
 20
393.755130
 30
0.0
 10
497.091131
 20
393.279130
 30
0.0
 10
497.329131
 20
393.037130
 30
0.0
 10
497.571131
 20
392.556130
 30
0.0
  0
LWPOLYLINE
  5
12c
100
AcDbEntity
  8
Layer_1
 62
5
100
AcDbPolyline
 90
11
 70
0
 10
496.853131
 20
396.158130
 30
0.0
 10
496.853131
 20
396.158130
 30
0.0
 10
496.610131
 20
396.638130
 30
0.0
 10
496.610131
 20
397.357130
 30
0.0
 10
496.853131
 20
397.837130
 30
0.0
 10
496.853131
 20
398.076130
 30
0.0
 10
497.329131
 20
398.076130
 30
0.0
 10
497.571131
 20
398.076130
 30
0.0
 10
498.052131
 20
398.076130
 30
0.0
 10
500.212131
 20
395.916130
 30
0.0
 10
500.212131
 20
398.076130
 30
0.0
  0
LWPOLYLINE
  5
12d
100
AcDbEntity
  8
Layer_1
 62
5
100
AcDbPolyline
 90
11
 70
0
 10
489.649131
 20
351.517131
 30
0.0
 10
489.649131
 20
351.755131
 30
0.0
 10
489.411131
 20
351.998131
 30
0.0
 10
489.411131
 20
352.959131
 30
0.0
 10
489.649131
 20
353.197131
 30
0.0
 10
489.649131
 20
353.435131
 30
0.0
 10
490.130131
 20
353.677131
 30
0.0
 10
490.372131
 20
353.677131
 30
0.0
 10
490.853131
 20
353.435131
 30
0.0
 10
493.013131
 20
351.517131
 30
0.0
 10
493.013131
 20
353.677131
 30
0.0
  0
LWPOLYLINE
  5
12e
100
AcDbEntity
  8
Layer_1
 62
5
100
AcDbPolyline
 90
6
 70
0
 10
492.532131
 20
355.119131
 30
0.0
 10
492.771131
 20
355.357131
 30
0.0
 10
493.013131
 20
355.119131
 30
0.0
 10
492.771131
 20
355.119131
 30
0.0
 10
492.532131
 20
355.119131
 30
0.0
 10
493.013131
 20
355.119131
 30
0.0
  0
LWPOLYLINE
  5
12f
100
AcDbEntity
  8
Layer_1
 62
5
100
AcDbPolyline
 90
16
 70
0
 10
489.411131
 20
358.716131
 30
0.0
 10
489.411131
 20
356.798131
 30
0.0
 10
491.091131
 20
356.556131
 30
0.0
 10
490.853131
 20
356.798131
 30
0.0
 10
490.610131
 20
357.279131
 30
0.0
 10
490.610131
 20
357.998131
 30
0.0
 10
490.853131
 20
358.478131
 30
0.0
 10
491.091131
 20
358.716131
 30
0.0
 10
491.329131
 20
358.716131
 30
0.0
 10
492.290131
 20
358.716131
 30
0.0
 10
492.532131
 20
358.716131
 30
0.0
 10
492.771131
 20
358.478131
 30
0.0
 10
493.013131
 20
357.998131
 30
0.0
 10
493.013131
 20
357.279131
 30
0.0
 10
492.771131
 20
356.798131
 30
0.0
 10
492.532131
 20
356.556131
 30
0.0
  0
LWPOLYLINE
  5
130
100
AcDbEntity
  8
Layer_1
 62
5
100
AcDbPolyline
 90
2
 70
0
 10
490.610131
 20
361.837131
 30
0.0
 10
493.013131
 20
361.837131
 30
0.0
  0
LWPOLYLINE
  5
131
100
AcDbEntity
  8
Layer_1
 62
5
100
AcDbPolyline
 90
3
 70
0
 10
489.173131
 20
360.877131
 30
0.0
 10
491.810131
 20
360.158131
 30
0.0
 10
491.810131
 20
362.318131
 30
0.0
  0
LWPOLYLINE
  5
132
100
AcDbEntity
  8
Layer_1
 62
5
100
AcDbPolyline
 90
14
 70
0
 10
303.892135
 20
333.517131
 30
0.0
 10
306.052135
 20
333.517131
 30
0.0
 10
304.853135
 20
332.076131
 30
0.0
 10
305.329135
 20
332.076131
 30
0.0
 10
305.810135
 20
332.076131
 30
0.0
 10
305.810135
 20
331.837131
 30
0.0
 10
306.052135
 20
331.357131
 30
0.0
 10
306.052135
 20
330.638131
 30
0.0
 10
305.810135
 20
330.396131
 30
0.0
 10
305.810135
 20
330.158131
 30
0.0
 10
305.329135
 20
329.916131
 30
0.0
 10
304.372135
 20
329.916131
 30
0.0
 10
303.892135
 20
330.158131
 30
0.0
 10
303.892135
 20
330.396131
 30
0.0
  0
LWPOLYLINE
  5
133
100
AcDbEntity
  8
Layer_1
 62
5
100
AcDbPolyline
 90
2
 70
0
 10
309.411135
 20
329.916131
 30
0.0
 10
307.489135
 20
329.916131
 30
0.0
  0
LWPOLYLINE
  5
134
100
AcDbEntity
  8
Layer_1
 62
5
100
AcDbPolyline
 90
5
 70
0
 10
308.450135
 20
329.916131
 30
0.0
 10
308.450135
 20
333.517131
 30
0.0
 10
307.970135
 20
333.037131
 30
0.0
 10
307.731135
 20
332.798131
 30
0.0
 10
307.489135
 20
332.556131
 30
0.0
  0
LWPOLYLINE
  5
135
100
AcDbEntity
  8
Layer_1
 62
5
100
AcDbPolyline
 90
6
 70
0
 10
311.091135
 20
330.396131
 30
0.0
 10
311.091135
 20
330.158131
 30
0.0
 10
311.091135
 20
329.916131
 30
0.0
 10
310.853135
 20
330.158131
 30
0.0
 10
311.091135
 20
330.396131
 30
0.0
 10
311.091135
 20
329.916131
 30
0.0
  0
LWPOLYLINE
  5
136
100
AcDbEntity
  8
Layer_1
 62
5
100
AcDbPolyline
 90
11
 70
0
 10
312.532135
 20
333.279131
 30
0.0
 10
312.771135
 20
333.279131
 30
0.0
 10
313.013135
 20
333.517131
 30
0.0
 10
313.970135
 20
333.517131
 30
0.0
 10
314.212135
 20
333.279131
 30
0.0
 10
314.450135
 20
333.279131
 30
0.0
 10
314.692135
 20
332.798131
 30
0.0
 10
314.692135
 20
332.556131
 30
0.0
 10
314.450135
 20
332.076131
 30
0.0
 10
312.290135
 20
329.916131
 30
0.0
 10
314.692135
 20
329.916131
 30
0.0
  0
LWPOLYLINE
  5
137
100
AcDbEntity
  8
Layer_1
 62
5
100
AcDbPolyline
 90
22
 70
0
 10
444.771132
 20
581.916126
 30
0.0
 10
445.251132
 20
581.916126
 30
0.0
 10
445.731132
 20
582.158126
 30
0.0
 10
445.970132
 20
582.158126
 30
0.0
 10
446.212132
 20
582.877126
 30
0.0
 10
446.450132
 20
583.357126
 30
0.0
 10
446.450132
 20
584.798126
 30
0.0
 10
446.212132
 20
585.037126
 30
0.0
 10
445.970132
 20
585.279126
 30
0.0
 10
445.731132
 20
585.517126
 30
0.0
 10
445.013132
 20
585.517126
 30
0.0
 10
444.771132
 20
585.279126
 30
0.0
 10
444.532132
 20
585.037126
 30
0.0
 10
444.290132
 20
584.798126
 30
0.0
 10
444.290132
 20
583.837126
 30
0.0
 10
444.532132
 20
583.595126
 30
0.0
 10
444.771132
 20
583.357126
 30
0.0
 10
445.013132
 20
583.357126
 30
0.0
 10
445.731132
 20
583.357126
 30
0.0
 10
445.970132
 20
583.357126
 30
0.0
 10
446.212132
 20
583.595126
 30
0.0
 10
446.450132
 20
583.837126
 30
0.0
  0
LWPOLYLINE
  5
138
100
AcDbEntity
  8
Layer_1
 62
5
100
AcDbPolyline
 90
6
 70
0
 10
447.892132
 20
582.158126
 30
0.0
 10
448.130132
 20
582.158126
 30
0.0
 10
447.892132
 20
581.916126
 30
0.0
 10
447.892132
 20
582.158126
 30
0.0
 10
447.892132
 20
582.158126
 30
0.0
 10
447.892132
 20
581.916126
 30
0.0
  0
LWPOLYLINE
  5
139
100
AcDbEntity
  8
Layer_1
 62
5
100
AcDbPolyline
 90
14
 70
0
 10
449.329132
 20
585.517126
 30
0.0
 10
451.489132
 20
585.517126
 30
0.0
 10
450.290132
 20
584.076126
 30
0.0
 10
451.013132
 20
584.076126
 30
0.0
 10
451.251132
 20
583.837126
 30
0.0
 10
451.489132
 20
583.837126
 30
0.0
 10
451.489132
 20
583.357126
 30
0.0
 10
451.489132
 20
582.638126
 30
0.0
 10
451.489132
 20
582.158126
 30
0.0
 10
451.251132
 20
582.158126
 30
0.0
 10
451.013132
 20
581.916126
 30
0.0
 10
449.810132
 20
581.916126
 30
0.0
 10
449.571132
 20
582.158126
 30
0.0
 10
449.329132
 20
582.158126
 30
0.0
  0
LWPOLYLINE
  5
13a
100
AcDbEntity
  8
Layer_1
 62
5
100
AcDbPolyline
 90
11
 70
0
 10
452.931132
 20
585.037126
 30
0.0
 10
453.173132
 20
585.279126
 30
0.0
 10
453.411132
 20
585.517126
 30
0.0
 10
454.372132
 20
585.517126
 30
0.0
 10
454.610132
 20
585.279126
 30
0.0
 10
454.853132
 20
585.037126
 30
0.0
 10
455.091132
 20
584.798126
 30
0.0
 10
455.091132
 20
584.556126
 30
0.0
 10
454.853132
 20
583.837126
 30
0.0
 10
452.692132
 20
581.916126
 30
0.0
 10
455.091132
 20
581.916126
 30
0.0
  0
LWPOLYLINE
  5
13b
100
AcDbEntity
  8
Layer_1
 62
5
100
AcDbPolyline
 90
2
 70
0
 10
216.052137
 20
581.916126
 30
0.0
 10
213.892137
 20
581.916126
 30
0.0
  0
LWPOLYLINE
  5
13c
100
AcDbEntity
  8
Layer_1
 62
5
100
AcDbPolyline
 90
5
 70
0
 10
215.091137
 20
581.916126
 30
0.0
 10
215.091137
 20
585.517126
 30
0.0
 10
214.610137
 20
585.037126
 30
0.0
 10
214.372137
 20
584.556126
 30
0.0
 10
213.892137
 20
584.556126
 30
0.0
  0
LWPOLYLINE
  5
13d
100
AcDbEntity
  8
Layer_1
 62
5
100
AcDbPolyline
 90
2
 70
0
 10
219.411137
 20
581.916126
 30
0.0
 10
217.489137
 20
581.916126
 30
0.0
  0
LWPOLYLINE
  5
13e
100
AcDbEntity
  8
Layer_1
 62
5
100
AcDbPolyline
 90
5
 70
0
 10
218.450137
 20
581.916126
 30
0.0
 10
218.450137
 20
585.517126
 30
0.0
 10
218.212137
 20
585.037126
 30
0.0
 10
217.731137
 20
584.556126
 30
0.0
 10
217.489137
 20
584.556126
 30
0.0
  0
LWPOLYLINE
  5
13f
100
AcDbEntity
  8
Layer_1
 62
5
100
AcDbPolyline
 90
6
 70
0
 10
221.091137
 20
582.158126
 30
0.0
 10
221.091137
 20
582.158126
 30
0.0
 10
221.091137
 20
581.916126
 30
0.0
 10
220.853137
 20
582.158126
 30
0.0
 10
221.091137
 20
582.158126
 30
0.0
 10
221.091137
 20
581.916126
 30
0.0
  0
LWPOLYLINE
  5
140
100
AcDbEntity
  8
Layer_1
 62
5
100
AcDbPolyline
 90
2
 70
0
 10
224.212137
 20
584.318126
 30
0.0
 10
224.212137
 20
581.916126
 30
0.0
  0
LWPOLYLINE
  5
141
100
AcDbEntity
  8
Layer_1
 62
5
100
AcDbPolyline
 90
3
 70
0
 10
223.489137
 20
585.755126
 30
0.0
 10
222.532137
 20
583.119126
 30
0.0
 10
224.692137
 20
583.119126
 30
0.0
  0
LWPOLYLINE
  5
142
100
AcDbEntity
  8
Layer_1
 62
5
100
AcDbPolyline
 90
14
 70
0
 10
225.892137
 20
585.517126
 30
0.0
 10
228.052137
 20
585.517126
 30
0.0
 10
226.853137
 20
584.076126
 30
0.0
 10
227.329137
 20
584.076126
 30
0.0
 10
227.810137
 20
583.837126
 30
0.0
 10
227.810137
 20
583.837126
 30
0.0
 10
228.052137
 20
583.357126
 30
0.0
 10
228.052137
 20
582.638126
 30
0.0
 10
227.810137
 20
582.158126
 30
0.0
 10
227.810137
 20
582.158126
 30
0.0
 10
227.329137
 20
581.916126
 30
0.0
 10
226.372137
 20
581.916126
 30
0.0
 10
226.130137
 20
582.158126
 30
0.0
 10
225.892137
 20
582.158126
 30
0.0
  0
LWPOLYLINE
  5
143
100
AcDbEntity
  8
Layer_1
 62
5
100
AcDbPolyline
 90
11
 70
0
 10
295.251136
 20
563.916126
 30
0.0
 10
295.251136
 20
564.158126
 30
0.0
 10
295.013136
 20
564.396126
 30
0.0
 10
295.013136
 20
565.357126
 30
0.0
 10
295.251136
 20
565.595126
 30
0.0
 10
295.251136
 20
565.837126
 30
0.0
 10
295.731136
 20
566.076126
 30
0.0
 10
295.970136
 20
566.076126
 30
0.0
 10
296.450136
 20
565.837126
 30
0.0
 10
298.610135
 20
563.677126
 30
0.0
 10
298.610135
 20
566.076126
 30
0.0
  0
LWPOLYLINE
  5
144
100
AcDbEntity
  8
Layer_1
 62
5
100
AcDbPolyline
 90
6
 70
0
 10
298.130135
 20
567.517126
 30
0.0
 10
298.372135
 20
567.755126
 30
0.0
 10
298.610135
 20
567.517126
 30
0.0
 10
298.372135
 20
567.279126
 30
0.0
 10
298.130135
 20
567.517126
 30
0.0
 10
298.610135
 20
567.517126
 30
0.0
  0
LWPOLYLINE
  5
145
100
AcDbEntity
  8
Layer_1
 62
5
100
AcDbPolyline
 90
16
 70
0
 10
295.013136
 20
570.877126
 30
0.0
 10
295.013136
 20
569.197126
 30
0.0
 10
296.692136
 20
568.959126
 30
0.0
 10
296.450136
 20
569.197126
 30
0.0
 10
296.450136
 20
569.677126
 30
0.0
 10
296.450136
 20
570.396126
 30
0.0
 10
296.450136
 20
570.638126
 30
0.0
 10
296.692136
 20
570.877126
 30
0.0
 10
297.173135
 20
571.119126
 30
0.0
 10
297.892135
 20
571.119126
 30
0.0
 10
298.130135
 20
570.877126
 30
0.0
 10
298.372135
 20
570.638126
 30
0.0
 10
298.610135
 20
570.396126
 30
0.0
 10
298.610135
 20
569.677126
 30
0.0
 10
298.372135
 20
569.197126
 30
0.0
 10
298.130135
 20
568.959126
 30
0.0
  0
LWPOLYLINE
  5
146
100
AcDbEntity
  8
Layer_1
 62
5
100
AcDbPolyline
 90
2
 70
0
 10
296.212136
 20
574.236126
 30
0.0
 10
298.610135
 20
574.236126
 30
0.0
  0
LWPOLYLINE
  5
147
100
AcDbEntity
  8
Layer_1
 62
5
100
AcDbPolyline
 90
3
 70
0
 10
294.771136
 20
573.279126
 30
0.0
 10
297.411135
 20
572.556126
 30
0.0
 10
297.411135
 20
574.716126
 30
0.0
  0
LWPOLYLINE
  5
148
100
AcDbEntity
  8
Layer_1
 62
5
100
AcDbPolyline
 90
2
 70
0
 10
309.649135
 20
553.119126
 30
0.0
 10
307.489135
 20
553.119126
 30
0.0
  0
LWPOLYLINE
  5
149
100
AcDbEntity
  8
Layer_1
 62
5
100
AcDbPolyline
 90
5
 70
0
 10
308.692135
 20
553.119126
 30
0.0
 10
308.692135
 20
556.716126
 30
0.0
 10
308.212135
 20
556.236126
 30
0.0
 10
307.970135
 20
555.755126
 30
0.0
 10
307.489135
 20
555.755126
 30
0.0
  0
LWPOLYLINE
  5
14a
100
AcDbEntity
  8
Layer_1
 62
5
100
AcDbPolyline
 90
6
 70
0
 10
311.091135
 20
553.357126
 30
0.0
 10
311.329135
 20
553.357126
 30
0.0
 10
311.091135
 20
553.119126
 30
0.0
 10
311.091135
 20
553.357126
 30
0.0
 10
311.091135
 20
553.357126
 30
0.0
 10
311.091135
 20
553.119126
 30
0.0
  0
LWPOLYLINE
  5
14b
100
AcDbEntity
  8
Layer_1
 62
5
100
AcDbPolyline
 90
14
 70
0
 10
312.532135
 20
556.716126
 30
0.0
 10
314.692135
 20
556.716126
 30
0.0
 10
313.489135
 20
555.279126
 30
0.0
 10
314.212135
 20
555.279126
 30
0.0
 10
314.450135
 20
555.037126
 30
0.0
 10
314.692135
 20
555.037126
 30
0.0
 10
314.692135
 20
554.556126
 30
0.0
 10
314.692135
 20
553.837126
 30
0.0
 10
314.692135
 20
553.357126
 30
0.0
 10
314.450135
 20
553.357126
 30
0.0
 10
314.212135
 20
553.119126
 30
0.0
 10
313.013135
 20
553.119126
 30
0.0
 10
312.771135
 20
553.357126
 30
0.0
 10
312.532135
 20
553.357126
 30
0.0
  0
LWPOLYLINE
  5
14c
100
AcDbEntity
  8
Layer_1
 62
5
100
AcDbPolyline
 90
32
 70
0
 10
316.853135
 20
555.037126
 30
0.0
 10
316.610135
 20
555.279126
 30
0.0
 10
316.372135
 20
555.517126
 30
0.0
 10
316.130135
 20
555.755126
 30
0.0
 10
316.130135
 20
555.998126
 30
0.0
 10
316.372135
 20
556.236126
 30
0.0
 10
316.610135
 20
556.478126
 30
0.0
 10
316.853135
 20
556.716126
 30
0.0
 10
317.571135
 20
556.716126
 30
0.0
 10
317.810135
 20
556.478126
 30
0.0
 10
318.052135
 20
556.236126
 30
0.0
 10
318.290135
 20
555.998126
 30
0.0
 10
318.290135
 20
555.755126
 30
0.0
 10
318.052135
 20
555.517126
 30
0.0
 10
317.810135
 20
555.279126
 30
0.0
 10
317.571135
 20
555.037126
 30
0.0
 10
316.853135
 20
555.037126
 30
0.0
 10
316.610135
 20
555.037126
 30
0.0
 10
316.372135
 20
554.798126
 30
0.0
 10
316.130135
 20
554.556126
 30
0.0
 10
316.130135
 20
553.837126
 30
0.0
 10
316.372135
 20
553.357126
 30
0.0
 10
316.610135
 20
553.357126
 30
0.0
 10
316.853135
 20
553.119126
 30
0.0
 10
317.571135
 20
553.119126
 30
0.0
 10
317.810135
 20
553.357126
 30
0.0
 10
318.052135
 20
553.357126
 30
0.0
 10
318.290135
 20
553.837126
 30
0.0
 10
318.290135
 20
554.556126
 30
0.0
 10
318.052135
 20
554.798126
 30
0.0
 10
317.810135
 20
555.037126
 30
0.0
 10
317.571135
 20
555.037126
 30
0.0
  0
LWPOLYLINE
  5
14d
100
AcDbEntity
  8
Layer_1
 62
5
100
AcDbPolyline
 90
2
 70
0
 10
327.411135
 20
562.478126
 30
0.0
 10
327.411135
 20
560.318126
 30
0.0
  0
LWPOLYLINE
  5
14e
100
AcDbEntity
  8
Layer_1
 62
5
100
AcDbPolyline
 90
5
 70
0
 10
327.411135
 20
561.279126
 30
0.0
 10
323.810135
 20
561.279126
 30
0.0
 10
324.290135
 20
561.037126
 30
0.0
 10
324.532135
 20
560.556126
 30
0.0
 10
324.771135
 20
560.318126
 30
0.0
  0
LWPOLYLINE
  5
14f
100
AcDbEntity
  8
Layer_1
 62
5
100
AcDbPolyline
 90
6
 70
0
 10
326.931135
 20
563.916126
 30
0.0
 10
327.173135
 20
564.158126
 30
0.0
 10
327.411135
 20
563.916126
 30
0.0
 10
327.173135
 20
563.677126
 30
0.0
 10
326.931135
 20
563.916126
 30
0.0
 10
327.411135
 20
563.916126
 30
0.0
  0
LWPOLYLINE
  5
150
100
AcDbEntity
  8
Layer_1
 62
5
100
AcDbPolyline
 90
2
 70
0
 10
325.013135
 20
567.037126
 30
0.0
 10
327.411135
 20
567.037126
 30
0.0
  0
LWPOLYLINE
  5
151
100
AcDbEntity
  8
Layer_1
 62
5
100
AcDbPolyline
 90
3
 70
0
 10
323.571135
 20
566.318126
 30
0.0
 10
326.212135
 20
565.357126
 30
0.0
 10
326.212135
 20
567.755126
 30
0.0
  0
LWPOLYLINE
  5
152
100
AcDbEntity
  8
Layer_1
 62
5
100
AcDbPolyline
 90
2
 70
0
 10
345.649134
 20
553.119126
 30
0.0
 10
343.489134
 20
553.119126
 30
0.0
  0
LWPOLYLINE
  5
153
100
AcDbEntity
  8
Layer_1
 62
5
100
AcDbPolyline
 90
5
 70
0
 10
344.692134
 20
553.119126
 30
0.0
 10
344.692134
 20
556.716126
 30
0.0
 10
344.212134
 20
556.236126
 30
0.0
 10
343.970134
 20
555.755126
 30
0.0
 10
343.489134
 20
555.755126
 30
0.0
  0
LWPOLYLINE
  5
154
100
AcDbEntity
  8
Layer_1
 62
5
100
AcDbPolyline
 90
6
 70
0
 10
347.091134
 20
553.357126
 30
0.0
 10
347.329134
 20
553.357126
 30
0.0
 10
347.091134
 20
553.119126
 30
0.0
 10
347.091134
 20
553.357126
 30
0.0
 10
347.091134
 20
553.357126
 30
0.0
 10
347.091134
 20
553.119126
 30
0.0
  0
LWPOLYLINE
  5
155
100
AcDbEntity
  8
Layer_1
 62
5
100
AcDbPolyline
 90
16
 70
0
 10
350.692134
 20
556.716126
 30
0.0
 10
349.013134
 20
556.716126
 30
0.0
 10
348.771134
 20
555.037126
 30
0.0
 10
349.013134
 20
555.037126
 30
0.0
 10
349.251134
 20
555.279126
 30
0.0
 10
350.212134
 20
555.279126
 30
0.0
 10
350.450134
 20
555.037126
 30
0.0
 10
350.692134
 20
555.037126
 30
0.0
 10
350.692134
 20
554.556126
 30
0.0
 10
350.692134
 20
553.837126
 30
0.0
 10
350.692134
 20
553.357126
 30
0.0
 10
350.450134
 20
553.357126
 30
0.0
 10
350.212134
 20
553.119126
 30
0.0
 10
349.251134
 20
553.119126
 30
0.0
 10
349.013134
 20
553.357126
 30
0.0
 10
348.771134
 20
553.357126
 30
0.0
  0
LWPOLYLINE
  5
156
100
AcDbEntity
  8
Layer_1
 62
5
100
AcDbPolyline
 90
14
 70
0
 10
351.892134
 20
556.716126
 30
0.0
 10
354.290134
 20
556.716126
 30
0.0
 10
353.091134
 20
555.279126
 30
0.0
 10
353.571134
 20
555.279126
 30
0.0
 10
353.810134
 20
555.037126
 30
0.0
 10
354.052134
 20
555.037126
 30
0.0
 10
354.290134
 20
554.556126
 30
0.0
 10
354.290134
 20
553.837126
 30
0.0
 10
354.052134
 20
553.357126
 30
0.0
 10
353.810134
 20
553.357126
 30
0.0
 10
353.571134
 20
553.119126
 30
0.0
 10
352.610134
 20
553.119126
 30
0.0
 10
352.130134
 20
553.357126
 30
0.0
 10
351.892134
 20
553.357126
 30
0.0
  0
LWPOLYLINE
  5
157
100
AcDbEntity
  8
Layer_1
 62
5
100
AcDbPolyline
 90
2
 70
0
 10
370.610134
 20
573.517126
 30
0.0
 10
370.610134
 20
571.119126
 30
0.0
  0
LWPOLYLINE
  5
158
100
AcDbEntity
  8
Layer_1
 62
5
100
AcDbPolyline
 90
3
 70
0
 10
369.649134
 20
574.959126
 30
0.0
 10
368.692134
 20
572.318126
 30
0.0
 10
371.091134
 20
572.318126
 30
0.0
  0
LWPOLYLINE
  5
159
100
AcDbEntity
  8
Layer_1
 62
5
100
AcDbPolyline
 90
6
 70
0
 10
372.290134
 20
571.357126
 30
0.0
 10
372.532134
 20
571.357126
 30
0.0
 10
372.290134
 20
571.119126
 30
0.0
 10
372.290134
 20
571.357126
 30
0.0
 10
372.290134
 20
571.357126
 30
0.0
 10
372.290134
 20
571.119126
 30
0.0
  0
LWPOLYLINE
  5
15a
100
AcDbEntity
  8
Layer_1
 62
5
100
AcDbPolyline
 90
22
 70
0
 10
375.649134
 20
574.716126
 30
0.0
 10
374.931134
 20
574.716126
 30
0.0
 10
374.692134
 20
574.478126
 30
0.0
 10
374.450134
 20
574.236126
 30
0.0
 10
374.212134
 20
573.755126
 30
0.0
 10
373.970134
 20
573.037126
 30
0.0
 10
373.970134
 20
571.837126
 30
0.0
 10
374.212134
 20
571.357126
 30
0.0
 10
374.212134
 20
571.357126
 30
0.0
 10
374.692134
 20
571.119126
 30
0.0
 10
375.411134
 20
571.119126
 30
0.0
 10
375.649134
 20
571.357126
 30
0.0
 10
375.892134
 20
571.357126
 30
0.0
 10
375.892134
 20
571.837126
 30
0.0
 10
375.892134
 20
572.556126
 30
0.0
 10
375.892134
 20
573.037126
 30
0.0
 10
375.649134
 20
573.037126
 30
0.0
 10
375.411134
 20
573.279126
 30
0.0
 10
374.692134
 20
573.279126
 30
0.0
 10
374.212134
 20
573.037126
 30
0.0
 10
374.212134
 20
573.037126
 30
0.0
 10
373.970134
 20
572.556126
 30
0.0
  0
LWPOLYLINE
  5
15b
100
AcDbEntity
  8
Layer_1
 62
5
100
AcDbPolyline
 90
2
 70
0
 10
379.489134
 20
571.119126
 30
0.0
 10
377.329134
 20
571.119126
 30
0.0
  0
LWPOLYLINE
  5
15c
100
AcDbEntity
  8
Layer_1
 62
5
100
AcDbPolyline
 90
5
 70
0
 10
378.290134
 20
571.119126
 30
0.0
 10
378.290134
 20
574.716126
 30
0.0
 10
378.052134
 20
574.236126
 30
0.0
 10
377.810134
 20
573.755126
 30
0.0
 10
377.329134
 20
573.755126
 30
0.0
  0
LWPOLYLINE
  5
15d
100
AcDbEntity
  8
Layer_1
 62
5
100
AcDbPolyline
 90
2
 70
0
 10
399.649133
 20
553.119126
 30
0.0
 10
397.489133
 20
553.119126
 30
0.0
  0
LWPOLYLINE
  5
15e
100
AcDbEntity
  8
Layer_1
 62
5
100
AcDbPolyline
 90
5
 70
0
 10
398.692133
 20
553.119126
 30
0.0
 10
398.692133
 20
556.716126
 30
0.0
 10
398.212133
 20
556.236126
 30
0.0
 10
397.970133
 20
555.755126
 30
0.0
 10
397.489133
 20
555.755126
 30
0.0
  0
LWPOLYLINE
  5
15f
100
AcDbEntity
  8
Layer_1
 62
5
100
AcDbPolyline
 90
6
 70
0
 10
401.091133
 20
553.357126
 30
0.0
 10
401.329133
 20
553.357126
 30
0.0
 10
401.091133
 20
553.119126
 30
0.0
 10
401.091133
 20
553.357126
 30
0.0
 10
401.091133
 20
553.357126
 30
0.0
 10
401.091133
 20
553.119126
 30
0.0
  0
LWPOLYLINE
  5
160
100
AcDbEntity
  8
Layer_1
 62
5
100
AcDbPolyline
 90
22
 70
0
 10
404.450133
 20
556.716126
 30
0.0
 10
403.731133
 20
556.716126
 30
0.0
 10
403.489133
 20
556.478126
 30
0.0
 10
403.251133
 20
556.236126
 30
0.0
 10
403.013133
 20
555.755126
 30
0.0
 10
402.771133
 20
555.037126
 30
0.0
 10
402.771133
 20
553.837126
 30
0.0
 10
403.013133
 20
553.357126
 30
0.0
 10
403.013133
 20
553.357126
 30
0.0
 10
403.489133
 20
553.119126
 30
0.0
 10
404.212133
 20
553.119126
 30
0.0
 10
404.450133
 20
553.357126
 30
0.0
 10
404.692133
 20
553.357126
 30
0.0
 10
404.692133
 20
553.837126
 30
0.0
 10
404.692133
 20
554.556126
 30
0.0
 10
404.692133
 20
555.037126
 30
0.0
 10
404.450133
 20
555.037126
 30
0.0
 10
404.212133
 20
555.279126
 30
0.0
 10
403.489133
 20
555.279126
 30
0.0
 10
403.013133
 20
555.037126
 30
0.0
 10
403.013133
 20
555.037126
 30
0.0
 10
402.771133
 20
554.556126
 30
0.0
  0
LWPOLYLINE
  5
161
100
AcDbEntity
  8
Layer_1
 62
5
100
AcDbPolyline
 90
2
 70
0
 10
408.290133
 20
553.119126
 30
0.0
 10
406.130133
 20
553.119126
 30
0.0
  0
LWPOLYLINE
  5
162
100
AcDbEntity
  8
Layer_1
 62
5
100
AcDbPolyline
 90
5
 70
0
 10
407.091133
 20
553.119126
 30
0.0
 10
407.091133
 20
556.716126
 30
0.0
 10
406.853133
 20
556.236126
 30
0.0
 10
406.610133
 20
555.755126
 30
0.0
 10
406.130133
 20
555.755126
 30
0.0
  0
LWPOLYLINE
  5
163
100
AcDbEntity
  8
Layer_1
 62
5
100
AcDbPolyline
 90
2
 70
0
 10
489.411131
 20
515.677127
 30
0.0
 10
489.411131
 20
513.517127
 30
0.0
  0
LWPOLYLINE
  5
164
100
AcDbEntity
  8
Layer_1
 62
5
100
AcDbPolyline
 90
5
 70
0
 10
489.411131
 20
514.478127
 30
0.0
 10
485.810131
 20
514.478127
 30
0.0
 10
486.290131
 20
514.236127
 30
0.0
 10
486.532131
 20
513.998127
 30
0.0
 10
486.771131
 20
513.517127
 30
0.0
  0
LWPOLYLINE
  5
165
100
AcDbEntity
  8
Layer_1
 62
5
100
AcDbPolyline
 90
20
 70
1
 10
485.810131
 20
517.837127
 30
0.0
 10
485.810131
 20
518.076127
 30
0.0
 10
486.052131
 20
518.556127
 30
0.0
 10
486.052131
 20
518.556127
 30
0.0
 10
486.532131
 20
518.798127
 30
0.0
 10
487.013131
 20
519.037127
 30
0.0
 10
487.970131
 20
519.037127
 30
0.0
 10
488.692131
 20
518.798127
 30
0.0
 10
488.931131
 20
518.556127
 30
0.0
 10
489.173131
 20
518.556127
 30
0.0
 10
489.411131
 20
518.076127
 30
0.0
 10
489.411131
 20
517.837127
 30
0.0
 10
489.173131
 20
517.595127
 30
0.0
 10
488.931131
 20
517.357127
 30
0.0
 10
488.692131
 20
517.119127
 30
0.0
 10
487.970131
 20
516.877127
 30
0.0
 10
487.013131
 20
516.877127
 30
0.0
 10
486.532131
 20
517.119127
 30
0.0
 10
486.052131
 20
517.357127
 30
0.0
 10
486.052131
 20
517.595127
 30
0.0
  0
LWPOLYLINE
  5
166
100
AcDbEntity
  8
Layer_1
 62
5
100
AcDbPolyline
 90
6
 70
0
 10
488.931131
 20
520.478127
 30
0.0
 10
489.173131
 20
520.716127
 30
0.0
 10
489.411131
 20
520.478127
 30
0.0
 10
489.173131
 20
520.478127
 30
0.0
 10
488.931131
 20
520.478127
 30
0.0
 10
489.411131
 20
520.478127
 30
0.0
  0
LWPOLYLINE
  5
167
100
AcDbEntity
  8
Layer_1
 62
5
100
AcDbPolyline
 90
2
 70
0
 10
487.013131
 20
523.837127
 30
0.0
 10
489.411131
 20
523.837127
 30
0.0
  0
SPLINE
  5
168
100
AcDbEntity
  8
Layer_1
 62
3
100
AcDbSpline
 70
8
 71
3
 72
8
 73
4
 74
0
 40
0
 40
0
 40
0
 40
0
 40
1
 40
1
 40
1
 40
1
 10
477.173132
 20
573.755126
 30
0.0
 10
477.173132
 20
571.837126
 30
0.0
 10
474.290132
 20
571.837126
 30
0.0
 10
474.290132
 20
573.755126
 30
0.0
  0
SPLINE
  5
169
100
AcDbEntity
  8
Layer_1
 62
3
100
AcDbSpline
 70
8
 71
3
 72
8
 73
4
 74
0
 40
0
 40
0
 40
0
 40
0
 40
1
 40
1
 40
1
 40
1
 10
474.290132
 20
573.755126
 30
0.0
 10
474.290132
 20
575.677126
 30
0.0
 10
477.173132
 20
575.677126
 30
0.0
 10
477.173132
 20
573.755126
 30
0.0
  0
SPLINE
  5
16a
100
AcDbEntity
  8
Layer_1
 62
3
100
AcDbSpline
 70
8
 71
3
 72
8
 73
4
 74
0
 40
0
 40
0
 40
0
 40
0
 40
1
 40
1
 40
1
 40
1
 10
415.970133
 20
573.755126
 30
0.0
 10
415.970133
 20
571.837126
 30
0.0
 10
413.091133
 20
571.837126
 30
0.0
 10
413.091133
 20
573.755126
 30
0.0
  0
SPLINE
  5
16b
100
AcDbEntity
  8
Layer_1
 62
3
100
AcDbSpline
 70
8
 71
3
 72
8
 73
4
 74
0
 40
0
 40
0
 40
0
 40
0
 40
1
 40
1
 40
1
 40
1
 10
413.091133
 20
573.755126
 30
0.0
 10
413.091133
 20
575.677126
 30
0.0
 10
415.970133
 20
575.677126
 30
0.0
 10
415.970133
 20
573.755126
 30
0.0
  0
SPLINE
  5
16c
100
AcDbEntity
  8
Layer_1
 62
3
100
AcDbSpline
 70
8
 71
3
 72
8
 73
4
 74
0
 40
0
 40
0
 40
0
 40
0
 40
1
 40
1
 40
1
 40
1
 10
455.571132
 20
519.755127
 30
0.0
 10
455.571132
 20
517.837127
 30
0.0
 10
452.692132
 20
517.837127
 30
0.0
 10
452.692132
 20
519.755127
 30
0.0
  0
SPLINE
  5
16d
100
AcDbEntity
  8
Layer_1
 62
3
100
AcDbSpline
 70
8
 71
3
 72
8
 73
4
 74
0
 40
0
 40
0
 40
0
 40
0
 40
1
 40
1
 40
1
 40
1
 10
452.692132
 20
519.755127
 30
0.0
 10
452.692132
 20
521.677127
 30
0.0
 10
455.571132
 20
521.677127
 30
0.0
 10
455.571132
 20
519.755127
 30
0.0
  0
SPLINE
  5
16e
100
AcDbEntity
  8
Layer_1
 62
3
100
AcDbSpline
 70
8
 71
3
 72
8
 73
4
 74
0
 40
0
 40
0
 40
0
 40
0
 40
1
 40
1
 40
1
 40
1
 10
275.810136
 20
573.755126
 30
0.0
 10
275.810136
 20
571.837126
 30
0.0
 10
272.931136
 20
571.837126
 30
0.0
 10
272.931136
 20
573.755126
 30
0.0
  0
SPLINE
  5
16f
100
AcDbEntity
  8
Layer_1
 62
3
100
AcDbSpline
 70
8
 71
3
 72
8
 73
4
 74
0
 40
0
 40
0
 40
0
 40
0
 40
1
 40
1
 40
1
 40
1
 10
272.931136
 20
573.755126
 30
0.0
 10
272.931136
 20
575.677126
 30
0.0
 10
275.810136
 20
575.677126
 30
0.0
 10
275.810136
 20
573.755126
 30
0.0
  0
SPLINE
  5
170
100
AcDbEntity
  8
Layer_1
 62
3
100
AcDbSpline
 70
8
 71
3
 72
8
 73
4
 74
0
 40
0
 40
0
 40
0
 40
0
 40
1
 40
1
 40
1
 40
1
 10
142.610139
 20
573.755126
 30
0.0
 10
142.610139
 20
571.837126
 30
0.0
 10
139.731139
 20
571.837126
 30
0.0
 10
139.731139
 20
573.755126
 30
0.0
  0
SPLINE
  5
171
100
AcDbEntity
  8
Layer_1
 62
3
100
AcDbSpline
 70
8
 71
3
 72
8
 73
4
 74
0
 40
0
 40
0
 40
0
 40
0
 40
1
 40
1
 40
1
 40
1
 10
139.731139
 20
573.755126
 30
0.0
 10
139.731139
 20
575.677126
 30
0.0
 10
142.610139
 20
575.677126
 30
0.0
 10
142.610139
 20
573.755126
 30
0.0
  0
SPLINE
  5
172
100
AcDbEntity
  8
Layer_1
 62
3
100
AcDbSpline
 70
8
 71
3
 72
8
 73
4
 74
0
 40
0
 40
0
 40
0
 40
0
 40
1
 40
1
 40
1
 40
1
 10
153.411139
 20
541.357127
 30
0.0
 10
153.411139
 20
539.435127
 30
0.0
 10
150.532139
 20
539.435127
 30
0.0
 10
150.532139
 20
541.357127
 30
0.0
  0
SPLINE
  5
173
100
AcDbEntity
  8
Layer_1
 62
3
100
AcDbSpline
 70
8
 71
3
 72
8
 73
4
 74
0
 40
0
 40
0
 40
0
 40
0
 40
1
 40
1
 40
1
 40
1
 10
150.532139
 20
541.357127
 30
0.0
 10
150.532139
 20
543.279127
 30
0.0
 10
153.411139
 20
543.279127
 30
0.0
 10
153.411139
 20
541.357127
 30
0.0
  0
SPLINE
  5
174
100
AcDbEntity
  8
Layer_1
 62
3
100
AcDbSpline
 70
8
 71
3
 72
8
 73
4
 74
0
 40
0
 40
0
 40
0
 40
0
 40
1
 40
1
 40
1
 40
1
 10
149.810139
 20
379.595130
 30
0.0
 10
149.810139
 20
377.677130
 30
0.0
 10
146.931139
 20
377.677130
 30
0.0
 10
146.931139
 20
379.595130
 30
0.0
  0
SPLINE
  5
175
100
AcDbEntity
  8
Layer_1
 62
3
100
AcDbSpline
 70
8
 71
3
 72
8
 73
4
 74
0
 40
0
 40
0
 40
0
 40
0
 40
1
 40
1
 40
1
 40
1
 10
146.931139
 20
379.595130
 30
0.0
 10
146.931139
 20
381.517130
 30
0.0
 10
149.810139
 20
381.517130
 30
0.0
 10
149.810139
 20
379.595130
 30
0.0
  0
SPLINE
  5
176
100
AcDbEntity
  8
Layer_1
 62
3
100
AcDbSpline
 70
8
 71
3
 72
8
 73
4
 74
0
 40
0
 40
0
 40
0
 40
0
 40
1
 40
1
 40
1
 40
1
 10
484.372131
 20
379.595130
 30
0.0
 10
484.372131
 20
377.677130
 30
0.0
 10
481.489131
 20
377.677130
 30
0.0
 10
481.489131
 20
379.595130
 30
0.0
  0
SPLINE
  5
177
100
AcDbEntity
  8
Layer_1
 62
3
100
AcDbSpline
 70
8
 71
3
 72
8
 73
4
 74
0
 40
0
 40
0
 40
0
 40
0
 40
1
 40
1
 40
1
 40
1
 10
481.489131
 20
379.595130
 30
0.0
 10
481.489131
 20
381.517130
 30
0.0
 10
484.372131
 20
381.517130
 30
0.0
 10
484.372131
 20
379.595130
 30
0.0
  0
LWPOLYLINE
  5
178
100
AcDbEntity
  8
Layer_1
 62
5
100
AcDbPolyline
 90
3
 70
0
 10
485.571131
 20
522.877127
 30
0.0
 10
488.212131
 20
522.158127
 30
0.0
 10
488.212131
 20
524.318127
 30
0.0
  0
LWPOLYLINE
  5
179
100
AcDbEntity
  8
Layer_1
 62
6
100
AcDbPolyline
 90
4
 70
1
 10
483.736851
 20
578.627996
 30
0.0
 10
496.048085
 20
578.627996
 30
0.0
 10
496.048085
 20
525.026778
 30
0.0
 10
483.736851
 20
525.026778
 30
0.0
  0
LWPOLYLINE
  5
17a
100
AcDbEntity
  8
Layer_1
 62
6
100
AcDbPolyline
 90
4
 70
1
 10
429.377963
 20
580.711436
 30
0.0
 10
472.561983
 20
580.711436
 30
0.0
 10
472.561983
 20
568.589605
 30
0.0
 10
429.377963
 20
568.589605
 30
0.0
  0
LWPOLYLINE
  5
17b
100
AcDbEntity
  8
Layer_1
 62
6
100
AcDbPolyline
 90
4
 70
1
 10
146.598399
 20
578.817396
 30
0.0
 10
158.152019
 20
578.817396
 30
0.0
 10
158.152019
 20
554.952541
 30
0.0
 10
146.598399
 20
554.952541
 30
0.0
  0
LWPOLYLINE
  5
17c
100
AcDbEntity
  8
Layer_1
 62
6
100
AcDbPolyline
 90
4
 70
1
 10
163.265898
 20
579.385616
 30
0.0
 10
184.668507
 20
579.385616
 30
0.0
 10
184.668507
 20
554.573744
 30
0.0
 10
163.265898
 20
554.573744
 30
0.0
  0
LWPOLYLINE
  5
17d
100
AcDbEntity
  8
Layer_1
 62
6
100
AcDbPolyline
 90
4
 70
1
 10
277.665686
 20
578.817396
 30
0.0
 10
295.251135
 20
578.817396
 30
0.0
 10
295.251135
 20
563.916122
 30
0.0
 10
277.665686
 20
563.916122
 30
0.0
  0
SPLINE
  5
17e
100
AcDbEntity
  8
Layer_1
 62
6
100
AcDbSpline
 70
8
 71
3
 72
8
 73
4
 74
0
 40
0
 40
0
 40
0
 40
0
 40
1
 40
1
 40
1
 40
1
 10
288.749999
 20
411.696420
 30
0.0
 10
288.749999
 20
406.624524
 30
0.0
 10
287.014187
 20
401.937899
 30
0.0
 10
284.196427
 20
399.401952
 30
0.0
  0
SPLINE
  5
17f
100
AcDbEntity
  8
Layer_1
 62
6
100
AcDbSpline
 70
8
 71
3
 72
8
 73
4
 74
0
 40
0
 40
0
 40
0
 40
0
 40
1
 40
1
 40
1
 40
1
 10
284.196427
 20
399.401952
 30
0.0
 10
281.378668
 20
396.866004
 30
0.0
 10
277.907044
 20
396.866004
 30
0.0
 10
275.089284
 20
399.401952
 30
0.0
  0
SPLINE
  5
180
100
AcDbEntity
  8
Layer_1
 62
6
100
AcDbSpline
 70
8
 71
3
 72
8
 73
4
 74
0
 40
0
 40
0
 40
0
 40
0
 40
1
 40
1
 40
1
 40
1
 10
275.089284
 20
399.401952
 30
0.0
 10
272.271524
 20
401.937899
 30
0.0
 10
270.535713
 20
406.624524
 30
0.0
 10
270.535713
 20
411.696420
 30
0.0
  0
SPLINE
  5
181
100
AcDbEntity
  8
Layer_1
 62
6
100
AcDbSpline
 70
8
 71
3
 72
8
 73
4
 74
0
 40
0
 40
0
 40
0
 40
0
 40
1
 40
1
 40
1
 40
1
 10
270.535713
 20
411.696420
 30
0.0
 10
270.535713
 20
416.768315
 30
0.0
 10
272.271524
 20
421.454940
 30
0.0
 10
275.089284
 20
423.990887
 30
0.0
  0
SPLINE
  5
182
100
AcDbEntity
  8
Layer_1
 62
6
100
AcDbSpline
 70
8
 71
3
 72
8
 73
4
 74
0
 40
0
 40
0
 40
0
 40
0
 40
1
 40
1
 40
1
 40
1
 10
275.089284
 20
423.990887
 30
0.0
 10
277.907044
 20
426.526835
 30
0.0
 10
281.378668
 20
426.526835
 30
0.0
 10
284.196427
 20
423.990887
 30
0.0
  0
SPLINE
  5
183
100
AcDbEntity
  8
Layer_1
 62
6
100
AcDbSpline
 70
8
 71
3
 72
8
 73
4
 74
0
 40
0
 40
0
 40
0
 40
0
 40
1
 40
1
 40
1
 40
1
 10
284.196427
 20
423.990887
 30
0.0
 10
287.014187
 20
421.454940
 30
0.0
 10
288.749999
 20
416.768315
 30
0.0
 10
288.749999
 20
411.696420
 30
0.0
  0
LWPOLYLINE
  5
184
100
AcDbEntity
  8
Layer_1
 62
6
100
AcDbPolyline
 90
4
 70
1
 10
189.593008
 20
579.385616
 30
0.0
 10
269.521328
 20
579.385616
 30
0.0
 10
269.521328
 20
558.551218
 30
0.0
 10
189.593008
 20
558.551218
 30
0.0
  0
SPLINE
  5
185
100
AcDbEntity
  8
Layer_1
 62
6
100
AcDbSpline
 70
8
 71
3
 72
8
 73
4
 74
0
 40
0
 40
0
 40
0
 40
0
 40
1
 40
1
 40
1
 40
1
 10
375.214243
 20
412.688196
 30
0.0
 10
375.214243
 20
407.616301
 30
0.0
 10
373.478431
 20
402.929676
 30
0.0
 10
370.660672
 20
400.393728
 30
0.0
  0
SPLINE
  5
186
100
AcDbEntity
  8
Layer_1
 62
6
100
AcDbSpline
 70
8
 71
3
 72
8
 73
4
 74
0
 40
0
 40
0
 40
0
 40
0
 40
1
 40
1
 40
1
 40
1
 10
370.660672
 20
400.393728
 30
0.0
 10
367.842912
 20
397.857780
 30
0.0
 10
364.371288
 20
397.857780
 30
0.0
 10
361.553528
 20
400.393728
 30
0.0
  0
SPLINE
  5
187
100
AcDbEntity
  8
Layer_1
 62
6
100
AcDbSpline
 70
8
 71
3
 72
8
 73
4
 74
0
 40
0
 40
0
 40
0
 40
0
 40
1
 40
1
 40
1
 40
1
 10
361.553528
 20
400.393728
 30
0.0
 10
358.735768
 20
402.929676
 30
0.0
 10
356.999957
 20
407.616301
 30
0.0
 10
356.999957
 20
412.688196
 30
0.0
  0
SPLINE
  5
188
100
AcDbEntity
  8
Layer_1
 62
6
100
AcDbSpline
 70
8
 71
3
 72
8
 73
4
 74
0
 40
0
 40
0
 40
0
 40
0
 40
1
 40
1
 40
1
 40
1
 10
356.999957
 20
412.688196
 30
0.0
 10
356.999957
 20
417.760092
 30
0.0
 10
358.735768
 20
422.446716
 30
0.0
 10
361.553528
 20
424.982664
 30
0.0
  0
SPLINE
  5
189
100
AcDbEntity
  8
Layer_1
 62
6
100
AcDbSpline
 70
8
 71
3
 72
8
 73
4
 74
0
 40
0
 40
0
 40
0
 40
0
 40
1
 40
1
 40
1
 40
1
 10
361.553528
 20
424.982664
 30
0.0
 10
364.371288
 20
427.518612
 30
0.0
 10
367.842912
 20
427.518612
 30
0.0
 10
370.660672
 20
424.982664
 30
0.0
  0
SPLINE
  5
18a
100
AcDbEntity
  8
Layer_1
 62
6
100
AcDbSpline
 70
8
 71
3
 72
8
 73
4
 74
0
 40
0
 40
0
 40
0
 40
0
 40
1
 40
1
 40
1
 40
1
 10
370.660672
 20
424.982664
 30
0.0
 10
373.478431
 20
422.446716
 30
0.0
 10
375.214243
 20
417.760092
 30
0.0
 10
375.214243
 20
412.688196
 30
0.0
  0
LWPOLYLINE
  5
18b
100
AcDbEntity
  8
Layer_1
 62
6
100
AcDbPolyline
 90
1
 70
1
 10
288.749999
 20
411.696420
 30
0.0
  0
LWPOLYLINE
  5
18c
100
AcDbEntity
  8
Layer_1
 62
6
100
AcDbPolyline
 90
1
 70
1
 10
375.214243
 20
412.688196
 30
0.0
  0
ENDSEC
  0
SECTION
  2
OBJECTS
  0
DICTIONARY
  5
C
330
0
100
AcDbDictionary
  3
ACAD_GROUP
350
D
  3
ACAD_MLINESTYLE
350
17
  0
DICTIONARY
  5
D
330
C
100
AcDbDictionary
  0
DICTIONARY
  5
1A
330
C
100
AcDbDictionary
  0
DICTIONARY
  5
17
330
C
100
AcDbDictionary
  3
STANDARD
350
18
  0
DICTIONARY
  5
19
330
C
100
AcDbDictionary
  0
ENDSEC
  0
EOF
