  0
SECTION
  2
HEADER
  9
$ACADVER
  1
AC1014
  9
$HANDSEED
  5
FFFF
  9
$MEASUREMENT
 70
     1
  0
ENDSEC
  0
SECTION
  2
TABLES
  0
TABLE
  2
VPORT
  5
8
330
0
100
AcDbSymbolTable
 70
     4
  0
VPORT
  5
2E
330
8
100
AcDbSymbolTableRecord
100
AcDbViewportTableRecord
  2
*ACTIVE
 70
     0
 10
0.0
 20
0.0
 11
1.0
 21
1.0
 12
210.0
 22
148.5
 13
0.0
 23
0.0
 14
10.0
 24
10.0
 15
10.0
 25
10.0
 16
0.0
 26
0.0
 36
1.0
 17
0.0
 27
0.0
 37
0.0
 40
341.0
 41
1.24
 42
50.0
 43
0.0
 44
0.0
 50
0.0
 51
0.0
 71
     0
 72
   100
 73
     1
 74
     3
 75
     0
 76
     0
 77
     0
 78
     0
  0
ENDTAB
  0
TABLE
  2
LTYPE
  5
5
330
0
100
AcDbSymbolTable
 70
     1
  0
LTYPE
  5
14
330
5
100
AcDbSymbolTableRecord
100
AcDbLinetypeTableRecord
  2
BYBLOCK
 70
     0
  3

 72
    65
 73
     0
 40
0.0
  0
LTYPE
  5
15
330
5
100
AcDbSymbolTableRecord
100
AcDbLinetypeTableRecord
  2
BYLAYER
 70
     0
  3

 72
    65
 73
     0
 40
0.0
  0
LTYPE
  5
16
330
5
100
AcDbSymbolTableRecord
100
AcDbLinetypeTableRecord
  2
CONTINUOUS
 70
     0
  3
Solid line
 72
    65
 73
     0
 40
0.0
  0
ENDTAB
  0
TABLE
  2
LAYER
  5
2
100
AcDbSymbolTable
 70
1
  0
LAYER
  5
50
100
AcDbSymbolTableRecord
100
AcDbLayerTableRecord
  2
0
 70
0
  6
CONTINUOUS
  0
ENDTAB
  0
TABLE
  2
STYLE
  5
3
330
0
100
AcDbSymbolTable
 70
     1
  0
STYLE
  5
11
330
3
100
AcDbSymbolTableRecord
100
AcDbTextStyleTableRecord
  2
STANDARD
 70
     0
 40
0.0
 41
1.0
 50
0.0
 71
     0
 42
2.5
  3
txt
  4

  0
ENDTAB
  0
TABLE
  2
VIEW
  5
6
330
0
100
AcDbSymbolTable
 70
     0
  0
ENDTAB
  0
TABLE
  2
UCS
  5
7
330
0
100
AcDbSymbolTable
 70
     0
  0
ENDTAB
  0
TABLE
  2
APPID
  5
9
330
0
100
AcDbSymbolTable
 70
     2
  0
APPID
  5
12
330
9
100
AcDbSymbolTableRecord
100
AcDbRegAppTableRecord
  2
ACAD
 70
     0
  0
ENDTAB
  0
TABLE
  2
DIMSTYLE
  5
A
330
0
100
AcDbSymbolTable
 70
     1
  0
DIMSTYLE
105
27
330
A
100
AcDbSymbolTableRecord
100
AcDbDimStyleTableRecord
  2
ISO-25
 70
     0
  3

  4

  5

  6

  7

 40
1.0
 41
2.5
 42
0.625
 43
3.75
 44
1.25
 45
0.0
 46
0.0
 47
0.0
 48
0.0
140
2.5
141
2.5
142
0.0
143
0.03937007874016
144
1.0
145
0.0
146
1.0
147
0.625
 71
     0
 72
     0
 73
     0
 74
     0
 75
     0
 76
     0
 77
     1
 78
     8
170
     0
171
     3
172
     1
173
     0
174
     0
175
     0
176
     0
177
     0
178
     0
270
     2
271
     2
272
     2
273
     2
274
     3
340
11
275
     0
280
     0
281
     0
282
     0
283
     0
284
     8
285
     0
286
     0
287
     3
288
     0
  0
ENDTAB
  0
TABLE
  2
BLOCK_RECORD
  5
1
330
0
100
AcDbSymbolTable
 70
     1
  0
BLOCK_RECORD
  5
1F
330
1
100
AcDbSymbolTableRecord
100
AcDbBlockTableRecord
  2
*MODEL_SPACE
  0
BLOCK_RECORD
  5
1B
330
1
100
AcDbSymbolTableRecord
100
AcDbBlockTableRecord
  2
*PAPER_SPACE
  0
ENDTAB
  0
ENDSEC
  0
SECTION
  2
BLOCKS
  0
BLOCK
  5
20
330
1F
100
AcDbEntity
  8
0
100
AcDbBlockBegin
  2
*MODEL_SPACE
 70
     0
 10
0.0
 20
0.0
 30
0.0
  3
*MODEL_SPACE
  1

  0
ENDBLK
  5
21
330
1F
100
AcDbEntity
  8
0
100
AcDbBlockEnd
  0
BLOCK
  5
1C
330
1B
100
AcDbEntity
 67
     1
  8
0
100
AcDbBlockBegin
  2
*PAPER_SPACE
  1

  0
ENDBLK
  5
1D
330
1B
100
AcDbEntity
 67
     1
  8
0
100
AcDbBlockEnd
  0
ENDSEC
  0
SECTION
  2
ENTITIES
  0
SPLINE
  5
100
100
AcDbEntity
  8
0
 62
7
100
AcDbSpline
 70
8
 71
3
 72
8
 73
4
 74
0
 40
0
 40
0
 40
0
 40
0
 40
1
 40
1
 40
1
 40
1
 10
13.539737
 20
39.331077
 30
0.0
 10
11.705242
 20
39.331077
 30
0.0
 10
10.051382
 20
38.226004
 30
0.0
 10
9.349351
 20
36.531151
 30
0.0
  0
SPLINE
  5
101
100
AcDbEntity
  8
0
 62
7
100
AcDbSpline
 70
8
 71
3
 72
8
 73
4
 74
0
 40
0
 40
0
 40
0
 40
0
 40
1
 40
1
 40
1
 40
1
 10
9.349351
 20
36.531151
 30
0.0
 10
8.647320
 20
34.836298
 30
0.0
 10
9.035370
 20
32.885437
 30
0.0
 10
10.332555
 20
31.588253
 30
0.0
  0
SPLINE
  5
102
100
AcDbEntity
  8
0
 62
7
100
AcDbSpline
 70
8
 71
3
 72
8
 73
4
 74
0
 40
0
 40
0
 40
0
 40
0
 40
1
 40
1
 40
1
 40
1
 10
10.332555
 20
31.588253
 30
0.0
 10
11.629739
 20
30.291069
 30
0.0
 10
13.580599
 20
29.903019
 30
0.0
 10
15.275452
 20
30.605050
 30
0.0
  0
SPLINE
  5
103
100
AcDbEntity
  8
0
 62
7
100
AcDbSpline
 70
8
 71
3
 72
8
 73
4
 74
0
 40
0
 40
0
 40
0
 40
0
 40
1
 40
1
 40
1
 40
1
 10
15.275452
 20
30.605050
 30
0.0
 10
16.970305
 20
31.307081
 30
0.0
 10
18.075379
 20
32.960940
 30
0.0
 10
18.075379
 20
34.795436
 30
0.0
  0
SPLINE
  5
104
100
AcDbEntity
  8
0
 62
7
100
AcDbSpline
 70
8
 71
3
 72
8
 73
4
 74
0
 40
0
 40
0
 40
0
 40
0
 40
1
 40
1
 40
1
 40
1
 10
18.075379
 20
34.795436
 30
0.0
 10
18.075379
 20
35.998363
 30
0.0
 10
17.597518
 20
37.152021
 30
0.0
 10
16.746920
 20
38.002618
 30
0.0
  0
SPLINE
  5
105
100
AcDbEntity
  8
0
 62
7
100
AcDbSpline
 70
8
 71
3
 72
8
 73
4
 74
0
 40
0
 40
0
 40
0
 40
0
 40
1
 40
1
 40
1
 40
1
 10
16.746920
 20
38.002618
 30
0.0
 10
15.896322
 20
38.853216
 30
0.0
 10
14.742664
 20
39.331077
 30
0.0
 10
13.539737
 20
39.331077
 30
0.0
  0
SPLINE
  5
106
100
AcDbEntity
  8
0
 62
7
100
AcDbSpline
 70
8
 71
3
 72
8
 73
4
 74
0
 40
0
 40
0
 40
0
 40
0
 40
1
 40
1
 40
1
 40
1
 10
863.143036
 20
39.217199
 30
0.0
 10
861.308540
 20
39.217199
 30
0.0
 10
859.654681
 20
38.112126
 30
0.0
 10
858.952649
 20
36.417273
 30
0.0
  0
SPLINE
  5
107
100
AcDbEntity
  8
0
 62
7
100
AcDbSpline
 70
8
 71
3
 72
8
 73
4
 74
0
 40
0
 40
0
 40
0
 40
0
 40
1
 40
1
 40
1
 40
1
 10
858.952649
 20
36.417273
 30
0.0
 10
858.250618
 20
34.722420
 30
0.0
 10
858.638669
 20
32.771560
 30
0.0
 10
859.935853
 20
31.474375
 30
0.0
  0
SPLINE
  5
108
100
AcDbEntity
  8
0
 62
7
100
AcDbSpline
 70
8
 71
3
 72
8
 73
4
 74
0
 40
0
 40
0
 40
0
 40
0
 40
1
 40
1
 40
1
 40
1
 10
859.935853
 20
31.474375
 30
0.0
 10
861.233037
 20
30.177191
 30
0.0
 10
863.183897
 20
29.789141
 30
0.0
 10
864.878750
 20
30.491172
 30
0.0
  0
SPLINE
  5
109
100
AcDbEntity
  8
0
 62
7
100
AcDbSpline
 70
8
 71
3
 72
8
 73
4
 74
0
 40
0
 40
0
 40
0
 40
0
 40
1
 40
1
 40
1
 40
1
 10
864.878750
 20
30.491172
 30
0.0
 10
866.573603
 20
31.193203
 30
0.0
 10
867.678677
 20
32.847063
 30
0.0
 10
867.678677
 20
34.681558
 30
0.0
  0
SPLINE
  5
10a
100
AcDbEntity
  8
0
 62
7
100
AcDbSpline
 70
8
 71
3
 72
8
 73
4
 74
0
 40
0
 40
0
 40
0
 40
0
 40
1
 40
1
 40
1
 40
1
 10
867.678677
 20
34.681558
 30
0.0
 10
867.678677
 20
35.884485
 30
0.0
 10
867.200816
 20
37.038143
 30
0.0
 10
866.350218
 20
37.888741
 30
0.0
  0
SPLINE
  5
10b
100
AcDbEntity
  8
0
 62
7
100
AcDbSpline
 70
8
 71
3
 72
8
 73
4
 74
0
 40
0
 40
0
 40
0
 40
0
 40
1
 40
1
 40
1
 40
1
 10
866.350218
 20
37.888741
 30
0.0
 10
865.499621
 20
38.739339
 30
0.0
 10
864.345962
 20
39.217199
 30
0.0
 10
863.143036
 20
39.217199
 30
0.0
  0
LWPOLYLINE
  5
10c
100
AcDbEntity
  8
0
 62
7
100
AcDbPolyline
 90
1
 70
1
 10
13.539737
 20
39.331077
 30
0.0
  0
SPLINE
  5
10d
100
AcDbEntity
  8
0
 62
7
100
AcDbSpline
 70
8
 71
3
 72
8
 73
4
 74
0
 40
0
 40
0
 40
0
 40
0
 40
1
 40
1
 40
1
 40
1
 10
863.143036
 20
320.017204
 30
0.0
 10
861.308540
 20
320.017204
 30
0.0
 10
859.654681
 20
318.912130
 30
0.0
 10
858.952649
 20
317.217277
 30
0.0
  0
SPLINE
  5
10e
100
AcDbEntity
  8
0
 62
7
100
AcDbSpline
 70
8
 71
3
 72
8
 73
4
 74
0
 40
0
 40
0
 40
0
 40
0
 40
1
 40
1
 40
1
 40
1
 10
858.952649
 20
317.217277
 30
0.0
 10
858.250618
 20
315.522424
 30
0.0
 10
858.638669
 20
313.571564
 30
0.0
 10
859.935853
 20
312.274380
 30
0.0
  0
SPLINE
  5
10f
100
AcDbEntity
  8
0
 62
7
100
AcDbSpline
 70
8
 71
3
 72
8
 73
4
 74
0
 40
0
 40
0
 40
0
 40
0
 40
1
 40
1
 40
1
 40
1
 10
859.935853
 20
312.274380
 30
0.0
 10
861.233037
 20
310.977195
 30
0.0
 10
863.183897
 20
310.589145
 30
0.0
 10
864.878750
 20
311.291176
 30
0.0
  0
SPLINE
  5
110
100
AcDbEntity
  8
0
 62
7
100
AcDbSpline
 70
8
 71
3
 72
8
 73
4
 74
0
 40
0
 40
0
 40
0
 40
0
 40
1
 40
1
 40
1
 40
1
 10
864.878750
 20
311.291176
 30
0.0
 10
866.573603
 20
311.993207
 30
0.0
 10
867.678677
 20
313.647067
 30
0.0
 10
867.678677
 20
315.481562
 30
0.0
  0
SPLINE
  5
111
100
AcDbEntity
  8
0
 62
7
100
AcDbSpline
 70
8
 71
3
 72
8
 73
4
 74
0
 40
0
 40
0
 40
0
 40
0
 40
1
 40
1
 40
1
 40
1
 10
867.678677
 20
315.481562
 30
0.0
 10
867.678677
 20
316.684489
 30
0.0
 10
867.200816
 20
317.838147
 30
0.0
 10
866.350218
 20
318.688745
 30
0.0
  0
SPLINE
  5
112
100
AcDbEntity
  8
0
 62
7
100
AcDbSpline
 70
8
 71
3
 72
8
 73
4
 74
0
 40
0
 40
0
 40
0
 40
0
 40
1
 40
1
 40
1
 40
1
 10
866.350218
 20
318.688745
 30
0.0
 10
865.499621
 20
319.539343
 30
0.0
 10
864.345962
 20
320.017204
 30
0.0
 10
863.143036
 20
320.017204
 30
0.0
  0
LWPOLYLINE
  5
113
100
AcDbEntity
  8
0
 62
7
100
AcDbPolyline
 90
1
 70
1
 10
863.143036
 20
39.217199
 30
0.0
  0
SPLINE
  5
114
100
AcDbEntity
  8
0
 62
7
100
AcDbSpline
 70
8
 71
3
 72
8
 73
4
 74
0
 40
0
 40
0
 40
0
 40
0
 40
1
 40
1
 40
1
 40
1
 10
434.739398
 20
309.217209
 30
0.0
 10
432.904902
 20
309.217209
 30
0.0
 10
431.251043
 20
308.112136
 30
0.0
 10
430.549012
 20
306.417283
 30
0.0
  0
SPLINE
  5
115
100
AcDbEntity
  8
0
 62
7
100
AcDbSpline
 70
8
 71
3
 72
8
 73
4
 74
0
 40
0
 40
0
 40
0
 40
0
 40
1
 40
1
 40
1
 40
1
 10
430.549012
 20
306.417283
 30
0.0
 10
429.846981
 20
304.722430
 30
0.0
 10
430.235031
 20
302.771570
 30
0.0
 10
431.532215
 20
301.474385
 30
0.0
  0
SPLINE
  5
116
100
AcDbEntity
  8
0
 62
7
100
AcDbSpline
 70
8
 71
3
 72
8
 73
4
 74
0
 40
0
 40
0
 40
0
 40
0
 40
1
 40
1
 40
1
 40
1
 10
431.532215
 20
301.474385
 30
0.0
 10
432.829399
 20
300.177201
 30
0.0
 10
434.780260
 20
299.789151
 30
0.0
 10
436.475113
 20
300.491182
 30
0.0
  0
SPLINE
  5
117
100
AcDbEntity
  8
0
 62
7
100
AcDbSpline
 70
8
 71
3
 72
8
 73
4
 74
0
 40
0
 40
0
 40
0
 40
0
 40
1
 40
1
 40
1
 40
1
 10
436.475113
 20
300.491182
 30
0.0
 10
438.169965
 20
301.193213
 30
0.0
 10
439.275039
 20
302.847073
 30
0.0
 10
439.275039
 20
304.681568
 30
0.0
  0
SPLINE
  5
118
100
AcDbEntity
  8
0
 62
7
100
AcDbSpline
 70
8
 71
3
 72
8
 73
4
 74
0
 40
0
 40
0
 40
0
 40
0
 40
1
 40
1
 40
1
 40
1
 10
439.275039
 20
304.681568
 30
0.0
 10
439.275039
 20
305.884495
 30
0.0
 10
438.797178
 20
307.038153
 30
0.0
 10
437.946580
 20
307.888751
 30
0.0
  0
SPLINE
  5
119
100
AcDbEntity
  8
0
 62
7
100
AcDbSpline
 70
8
 71
3
 72
8
 73
4
 74
0
 40
0
 40
0
 40
0
 40
0
 40
1
 40
1
 40
1
 40
1
 10
437.946580
 20
307.888751
 30
0.0
 10
437.095983
 20
308.739349
 30
0.0
 10
435.942325
 20
309.217209
 30
0.0
 10
434.739398
 20
309.217209
 30
0.0
  0
LWPOLYLINE
  5
11a
100
AcDbEntity
  8
0
 62
7
100
AcDbPolyline
 90
1
 70
1
 10
863.143036
 20
320.017204
 30
0.0
  0
SPLINE
  5
11b
100
AcDbEntity
  8
0
 62
7
100
AcDbSpline
 70
8
 71
3
 72
8
 73
4
 74
0
 40
0
 40
0
 40
0
 40
0
 40
1
 40
1
 40
1
 40
1
 10
13.539737
 20
287.617222
 30
0.0
 10
11.705242
 20
287.617222
 30
0.0
 10
10.051382
 20
286.512149
 30
0.0
 10
9.349351
 20
284.817296
 30
0.0
  0
SPLINE
  5
11c
100
AcDbEntity
  8
0
 62
7
100
AcDbSpline
 70
8
 71
3
 72
8
 73
4
 74
0
 40
0
 40
0
 40
0
 40
0
 40
1
 40
1
 40
1
 40
1
 10
9.349351
 20
284.817296
 30
0.0
 10
8.647320
 20
283.122443
 30
0.0
 10
9.035370
 20
281.171583
 30
0.0
 10
10.332555
 20
279.874398
 30
0.0
  0
SPLINE
  5
11d
100
AcDbEntity
  8
0
 62
7
100
AcDbSpline
 70
8
 71
3
 72
8
 73
4
 74
0
 40
0
 40
0
 40
0
 40
0
 40
1
 40
1
 40
1
 40
1
 10
10.332555
 20
279.874398
 30
0.0
 10
11.629739
 20
278.577214
 30
0.0
 10
13.580599
 20
278.189164
 30
0.0
 10
15.275452
 20
278.891195
 30
0.0
  0
SPLINE
  5
11e
100
AcDbEntity
  8
0
 62
7
100
AcDbSpline
 70
8
 71
3
 72
8
 73
4
 74
0
 40
0
 40
0
 40
0
 40
0
 40
1
 40
1
 40
1
 40
1
 10
15.275452
 20
278.891195
 30
0.0
 10
16.970305
 20
279.593226
 30
0.0
 10
18.075379
 20
281.247085
 30
0.0
 10
18.075379
 20
283.081581
 30
0.0
  0
SPLINE
  5
11f
100
AcDbEntity
  8
0
 62
7
100
AcDbSpline
 70
8
 71
3
 72
8
 73
4
 74
0
 40
0
 40
0
 40
0
 40
0
 40
1
 40
1
 40
1
 40
1
 10
18.075379
 20
283.081581
 30
0.0
 10
18.075379
 20
284.284508
 30
0.0
 10
17.597518
 20
285.438166
 30
0.0
 10
16.746920
 20
286.288764
 30
0.0
  0
SPLINE
  5
120
100
AcDbEntity
  8
0
 62
7
100
AcDbSpline
 70
8
 71
3
 72
8
 73
4
 74
0
 40
0
 40
0
 40
0
 40
0
 40
1
 40
1
 40
1
 40
1
 10
16.746920
 20
286.288764
 30
0.0
 10
15.896322
 20
287.139361
 30
0.0
 10
14.742664
 20
287.617222
 30
0.0
 10
13.539737
 20
287.617222
 30
0.0
  0
LWPOLYLINE
  5
121
100
AcDbEntity
  8
0
 62
7
100
AcDbPolyline
 90
1
 70
1
 10
434.739398
 20
309.217209
 30
0.0
  0
LWPOLYLINE
  5
122
100
AcDbEntity
  8
0
 62
7
100
AcDbPolyline
 90
1
 70
1
 10
13.539737
 20
287.617222
 30
0.0
  0
LWPOLYLINE
  5
123
100
AcDbEntity
  8
0
 62
7
100
AcDbPolyline
 90
4
 70
1
 10
587.763410
 20
59.739743
 30
0.0
 10
597.117793
 20
59.739743
 30
0.0
 10
597.117793
 20
19.487992
 30
0.0
 10
587.763410
 20
19.487992
 30
0.0
  0
LWPOLYLINE
  5
124
100
AcDbEntity
  8
0
 62
7
100
AcDbPolyline
 90
13
 70
1
 10
266.457100
 20
30.232900
 30
0.0
 10
266.457100
 20
57.188900
 30
0.0
 10
252.283100
 20
57.188900
 30
0.0
 10
252.283100
 20
30.232900
 30
0.0
 10
246.898100
 20
30.232900
 30
0.0
 10
246.898100
 20
20.311900
 30
0.0
 10
252.283100
 20
20.311900
 30
0.0
 10
252.283100
 20
11.834900
 30
0.0
 10
266.457100
 20
11.834900
 30
0.0
 10
266.457100
 20
20.311900
 30
0.0
 10
271.842100
 20
20.311900
 30
0.0
 10
271.842100
 20
30.232900
 30
0.0
 10
266.457100
 20
30.232900
 30
0.0
  0
LWPOLYLINE
  5
125
100
AcDbEntity
  8
0
 62
7
100
AcDbPolyline
 90
13
 70
1
 10
623.056000
 20
30.232900
 30
0.0
 10
623.056000
 20
57.188900
 30
0.0
 10
608.882000
 20
57.188900
 30
0.0
 10
608.882000
 20
30.232900
 30
0.0
 10
603.497000
 20
30.232900
 30
0.0
 10
603.497000
 20
20.311900
 30
0.0
 10
608.882000
 20
20.311900
 30
0.0
 10
608.882000
 20
11.834900
 30
0.0
 10
623.056000
 20
11.834900
 30
0.0
 10
623.056000
 20
20.311900
 30
0.0
 10
628.441000
 20
20.311900
 30
0.0
 10
628.441000
 20
30.232900
 30
0.0
 10
623.056000
 20
30.232900
 30
0.0
  0
LWPOLYLINE
  5
126
100
AcDbEntity
  8
0
 62
7
100
AcDbPolyline
 90
4
 70
1
 10
278.787410
 20
59.739743
 30
0.0
 10
288.141793
 20
59.739743
 30
0.0
 10
288.141793
 20
19.487992
 30
0.0
 10
278.787410
 20
19.487992
 30
0.0
  0
LWPOLYLINE
  5
127
100
AcDbEntity
  8
0
 62
7
100
AcDbPolyline
 90
3
 70
1
 10
457.558345
 20
52.879934
 30
0.0
 10
457.558345
 20
13.195152
 30
0.0
 10
457.558345
 20
52.879934
 30
0.0
  0
LWPOLYLINE
  5
128
100
AcDbEntity
  8
0
 62
7
100
AcDbPolyline
 90
3
 70
1
 10
417.873563
 20
13.195152
 30
0.0
 10
417.873563
 20
52.879934
 30
0.0
 10
417.873563
 20
13.195152
 30
0.0
  0
LWPOLYLINE
  5
129
100
AcDbEntity
  8
0
 62
7
100
AcDbPolyline
 90
3
 70
1
 10
457.558345
 20
13.195152
 30
0.0
 10
417.873563
 20
13.195152
 30
0.0
 10
457.558345
 20
13.195152
 30
0.0
  0
LWPOLYLINE
  5
12a
100
AcDbEntity
  8
0
 62
7
100
AcDbPolyline
 90
3
 70
1
 10
417.873563
 20
52.879934
 30
0.0
 10
457.558345
 20
52.879934
 30
0.0
 10
417.873563
 20
52.879934
 30
0.0
  0
LWPOLYLINE
  5
12b
100
AcDbEntity
  8
0
 62
7
100
AcDbPolyline
 90
3
 70
1
 10
60.536148
 20
161.024398
 30
0.0
 10
100.220930
 20
161.024398
 30
0.0
 10
60.536148
 20
161.024398
 30
0.0
  0
LWPOLYLINE
  5
12c
100
AcDbEntity
  8
0
 62
7
100
AcDbPolyline
 90
3
 70
1
 10
100.220930
 20
161.024398
 30
0.0
 10
100.220930
 20
121.339615
 30
0.0
 10
100.220930
 20
161.024398
 30
0.0
  0
LWPOLYLINE
  5
12d
100
AcDbEntity
  8
0
 62
7
100
AcDbPolyline
 90
3
 70
1
 10
100.220930
 20
121.339615
 30
0.0
 10
60.536148
 20
121.339615
 30
0.0
 10
100.220930
 20
121.339615
 30
0.0
  0
LWPOLYLINE
  5
12e
100
AcDbEntity
  8
0
 62
7
100
AcDbPolyline
 90
3
 70
1
 10
60.536148
 20
121.339615
 30
0.0
 10
60.536148
 20
161.024398
 30
0.0
 10
60.536148
 20
121.339615
 30
0.0
  0
LWPOLYLINE
  5
12f
100
AcDbEntity
  8
0
 62
7
100
AcDbPolyline
 90
4
 70
1
 10
103.747600
 20
144.871800
 30
0.0
 10
123.590600
 20
144.871800
 30
0.0
 10
123.590600
 20
130.981800
 30
0.0
 10
103.747600
 20
130.981800
 30
0.0
  0
LWPOLYLINE
  5
130
100
AcDbEntity
  8
0
 62
7
100
AcDbPolyline
 90
4
 70
1
 10
37.416920
 20
144.871800
 30
0.0
 10
57.259920
 20
144.871800
 30
0.0
 10
57.259920
 20
130.981800
 30
0.0
 10
37.416920
 20
130.981800
 30
0.0
  0
LWPOLYLINE
  5
131
100
AcDbEntity
  8
0
 62
7
100
AcDbPolyline
 90
4
 70
1
 10
763.369600
 20
90.641200
 30
0.0
 10
783.212600
 20
90.641200
 30
0.0
 10
783.212600
 20
76.751200
 30
0.0
 10
763.369600
 20
76.751200
 30
0.0
  0
LWPOLYLINE
  5
132
100
AcDbEntity
  8
0
 62
7
100
AcDbPolyline
 90
3
 70
1
 10
720.403769
 20
106.880254
 30
0.0
 10
760.089612
 20
106.880254
 30
0.0
 10
720.403769
 20
106.880254
 30
0.0
  0
LWPOLYLINE
  5
133
100
AcDbEntity
  8
0
 62
7
100
AcDbPolyline
 90
3
 70
1
 10
760.089612
 20
106.880254
 30
0.0
 10
760.089612
 20
67.195472
 30
0.0
 10
760.089612
 20
106.880254
 30
0.0
  0
LWPOLYLINE
  5
134
100
AcDbEntity
  8
0
 62
7
100
AcDbPolyline
 90
3
 70
1
 10
760.089612
 20
67.195472
 30
0.0
 10
720.403769
 20
67.195472
 30
0.0
 10
760.089612
 20
67.195472
 30
0.0
  0
LWPOLYLINE
  5
135
100
AcDbEntity
  8
0
 62
7
100
AcDbPolyline
 90
3
 70
1
 10
720.403769
 20
67.195472
 30
0.0
 10
720.403769
 20
106.880254
 30
0.0
 10
720.403769
 20
67.195472
 30
0.0
  0
LWPOLYLINE
  5
136
100
AcDbEntity
  8
0
 62
7
100
AcDbPolyline
 90
4
 70
1
 10
697.038920
 20
90.641200
 30
0.0
 10
716.881920
 20
90.641200
 30
0.0
 10
716.881920
 20
76.751200
 30
0.0
 10
697.038920
 20
76.751200
 30
0.0
  0
LWPOLYLINE
  5
137
100
AcDbEntity
  8
0
 62
7
100
AcDbPolyline
 90
2
 70
0
 10
74.172217
 20
67.195472
 30
0.0
 10
74.172217
 20
106.880254
 30
0.0
  0
LWPOLYLINE
  5
138
100
AcDbEntity
  8
0
 62
7
100
AcDbPolyline
 90
2
 70
0
 10
113.858060
 20
67.195472
 30
0.0
 10
74.172217
 20
67.195472
 30
0.0
  0
LWPOLYLINE
  5
139
100
AcDbEntity
  8
0
 62
7
100
AcDbPolyline
 90
2
 70
0
 10
113.858060
 20
106.880254
 30
0.0
 10
113.858060
 20
67.195472
 30
0.0
  0
LWPOLYLINE
  5
13a
100
AcDbEntity
  8
0
 62
7
100
AcDbPolyline
 90
2
 70
0
 10
74.172217
 20
106.880254
 30
0.0
 10
113.858060
 20
106.880254
 30
0.0
  0
LWPOLYLINE
  5
13b
100
AcDbEntity
  8
0
 62
7
100
AcDbPolyline
 90
17
 70
1
 10
130.961000
 20
73.346000
 30
0.0
 10
130.961000
 20
75.707000
 30
0.0
 10
135.921000
 20
75.707000
 30
0.0
 10
135.921000
 20
65.409000
 30
0.0
 10
145.843000
 20
65.409000
 30
0.0
 10
145.843000
 20
75.707000
 30
0.0
 10
150.803000
 20
75.707000
 30
0.0
 10
150.803000
 20
89.596000
 30
0.0
 10
145.843000
 20
89.596000
 30
0.0
 10
145.843000
 20
106.512000
 30
0.0
 10
135.921000
 20
106.512000
 30
0.0
 10
135.921000
 20
89.596000
 30
0.0
 10
130.961000
 20
89.596000
 30
0.0
 10
130.961000
 20
113.598000
 30
0.0
 10
121.606000
 20
113.598000
 30
0.0
 10
121.606000
 20
73.346000
 30
0.0
 10
130.961000
 20
73.346000
 30
0.0
  0
SPLINE
  5
13c
100
AcDbEntity
  8
0
 62
7
100
AcDbSpline
 70
8
 71
3
 72
8
 73
4
 74
0
 40
0
 40
0
 40
0
 40
0
 40
1
 40
1
 40
1
 40
1
 10
801.895157
 20
330.423757
 30
0.0
 10
799.959090
 20
332.359824
 30
0.0
 10
796.815499
 20
332.359725
 30
0.0
 10
794.879478
 20
330.423705
 30
0.0
  0
LWPOLYLINE
  5
13d
100
AcDbEntity
  8
0
 62
7
100
AcDbPolyline
 90
17
 70
1
 10
57.260000
 20
75.699000
 30
0.0
 10
57.260000
 20
73.346000
 30
0.0
 10
66.614000
 20
73.346000
 30
0.0
 10
66.614000
 20
113.598000
 30
0.0
 10
57.260000
 20
113.598000
 30
0.0
 10
57.260000
 20
89.588000
 30
0.0
 10
52.299000
 20
89.588000
 30
0.0
 10
52.299000
 20
106.504000
 30
0.0
 10
42.378000
 20
106.504000
 30
0.0
 10
42.378000
 20
89.588000
 30
0.0
 10
37.417000
 20
89.588000
 30
0.0
 10
37.417000
 20
75.699000
 30
0.0
 10
42.378000
 20
75.699000
 30
0.0
 10
42.378000
 20
65.402000
 30
0.0
 10
52.299000
 20
65.402000
 30
0.0
 10
52.299000
 20
75.699000
 30
0.0
 10
57.260000
 20
75.699000
 30
0.0
  0
SPLINE
  5
13e
100
AcDbEntity
  8
0
 62
7
100
AcDbSpline
 70
8
 71
3
 72
8
 73
4
 74
0
 40
0
 40
0
 40
0
 40
0
 40
1
 40
1
 40
1
 40
1
 10
792.875175
 20
328.419401
 30
0.0
 10
790.939155
 20
326.483381
 30
0.0
 10
790.939056
 20
323.339789
 30
0.0
 10
792.875123
 20
321.403722
 30
0.0
  0
SPLINE
  5
13f
100
AcDbEntity
  8
0
 62
7
100
AcDbSpline
 70
8
 71
3
 72
8
 73
4
 74
0
 40
0
 40
0
 40
0
 40
0
 40
1
 40
1
 40
1
 40
1
 10
792.875123
 20
321.403722
 30
0.0
 10
794.811190
 20
319.467655
 30
0.0
 10
797.954781
 20
319.467754
 30
0.0
 10
799.890802
 20
321.403774
 30
0.0
  0
LWPOLYLINE
  5
140
100
AcDbEntity
  8
0
 62
7
100
AcDbPolyline
 90
2
 70
0
 10
794.879478
 20
330.423705
 30
0.0
 10
792.875175
 20
328.419401
 30
0.0
  0
SPLINE
  5
141
100
AcDbEntity
  8
0
 62
7
100
AcDbSpline
 70
8
 71
3
 72
8
 73
4
 74
0
 40
0
 40
0
 40
0
 40
0
 40
1
 40
1
 40
1
 40
1
 10
801.895105
 20
323.408078
 30
0.0
 10
803.831126
 20
325.344098
 30
0.0
 10
803.831224
 20
328.487690
 30
0.0
 10
801.895157
 20
330.423757
 30
0.0
  0
LWPOLYLINE
  5
142
100
AcDbEntity
  8
0
 62
7
100
AcDbPolyline
 90
2
 70
0
 10
799.890802
 20
321.403774
 30
0.0
 10
801.895105
 20
323.408078
 30
0.0
  0
LWPOLYLINE
  5
143
100
AcDbEntity
  8
0
 62
7
100
AcDbPolyline
 90
1
 70
1
 10
801.895157
 20
330.423757
 30
0.0
  0
SPLINE
  5
144
100
AcDbEntity
  8
0
 62
7
100
AcDbSpline
 70
8
 71
3
 72
8
 73
4
 74
0
 40
0
 40
0
 40
0
 40
0
 40
1
 40
1
 40
1
 40
1
 10
721.108157
 20
330.423757
 30
0.0
 10
719.172090
 20
332.359824
 30
0.0
 10
716.028499
 20
332.359725
 30
0.0
 10
714.092478
 20
330.423705
 30
0.0
  0
LWPOLYLINE
  5
145
100
AcDbEntity
  8
0
 62
7
100
AcDbPolyline
 90
5
 70
1
 10
849.592704
 20
358.370358
 30
0.0
 10
849.592704
 20
318.685575
 30
0.0
 10
809.906861
 20
318.685575
 30
0.0
 10
809.906861
 20
358.370358
 30
0.0
 10
849.592704
 20
358.370358
 30
0.0
  0
SPLINE
  5
146
100
AcDbEntity
  8
0
 62
7
100
AcDbSpline
 70
8
 71
3
 72
8
 73
4
 74
0
 40
0
 40
0
 40
0
 40
0
 40
1
 40
1
 40
1
 40
1
 10
712.088175
 20
328.419401
 30
0.0
 10
710.152155
 20
326.483381
 30
0.0
 10
710.152056
 20
323.339789
 30
0.0
 10
712.088123
 20
321.403722
 30
0.0
  0
SPLINE
  5
147
100
AcDbEntity
  8
0
 62
7
100
AcDbSpline
 70
8
 71
3
 72
8
 73
4
 74
0
 40
0
 40
0
 40
0
 40
0
 40
1
 40
1
 40
1
 40
1
 10
712.088123
 20
321.403722
 30
0.0
 10
714.024190
 20
319.467655
 30
0.0
 10
717.167781
 20
319.467754
 30
0.0
 10
719.103802
 20
321.403774
 30
0.0
  0
LWPOLYLINE
  5
148
100
AcDbEntity
  8
0
 62
7
100
AcDbPolyline
 90
2
 70
0
 10
714.092478
 20
330.423705
 30
0.0
 10
712.088175
 20
328.419401
 30
0.0
  0
SPLINE
  5
149
100
AcDbEntity
  8
0
 62
7
100
AcDbSpline
 70
8
 71
3
 72
8
 73
4
 74
0
 40
0
 40
0
 40
0
 40
0
 40
1
 40
1
 40
1
 40
1
 10
721.108105
 20
323.408078
 30
0.0
 10
723.044126
 20
325.344098
 30
0.0
 10
723.044224
 20
328.487690
 30
0.0
 10
721.108157
 20
330.423757
 30
0.0
  0
LWPOLYLINE
  5
14a
100
AcDbEntity
  8
0
 62
7
100
AcDbPolyline
 90
2
 70
0
 10
719.103802
 20
321.403774
 30
0.0
 10
721.108105
 20
323.408078
 30
0.0
  0
LWPOLYLINE
  5
14b
100
AcDbEntity
  8
0
 62
7
100
AcDbPolyline
 90
1
 70
1
 10
721.108157
 20
330.423757
 30
0.0
  0
SPLINE
  5
14c
100
AcDbEntity
  8
0
 62
7
100
AcDbSpline
 70
8
 71
3
 72
8
 73
4
 74
0
 40
0
 40
0
 40
0
 40
0
 40
1
 40
1
 40
1
 40
1
 10
640.321157
 20
330.423757
 30
0.0
 10
638.385090
 20
332.359824
 30
0.0
 10
635.241499
 20
332.359725
 30
0.0
 10
633.305478
 20
330.423705
 30
0.0
  0
LWPOLYLINE
  5
14d
100
AcDbEntity
  8
0
 62
7
100
AcDbPolyline
 90
5
 70
1
 10
768.801385
 20
358.370358
 30
0.0
 10
768.801385
 20
318.685575
 30
0.0
 10
729.115542
 20
318.685575
 30
0.0
 10
729.115542
 20
358.370358
 30
0.0
 10
768.801385
 20
358.370358
 30
0.0
  0
SPLINE
  5
14e
100
AcDbEntity
  8
0
 62
7
100
AcDbSpline
 70
8
 71
3
 72
8
 73
4
 74
0
 40
0
 40
0
 40
0
 40
0
 40
1
 40
1
 40
1
 40
1
 10
631.301175
 20
328.419401
 30
0.0
 10
629.365155
 20
326.483381
 30
0.0
 10
629.365056
 20
323.339789
 30
0.0
 10
631.301123
 20
321.403722
 30
0.0
  0
SPLINE
  5
14f
100
AcDbEntity
  8
0
 62
7
100
AcDbSpline
 70
8
 71
3
 72
8
 73
4
 74
0
 40
0
 40
0
 40
0
 40
0
 40
1
 40
1
 40
1
 40
1
 10
631.301123
 20
321.403722
 30
0.0
 10
633.237190
 20
319.467655
 30
0.0
 10
636.380781
 20
319.467754
 30
0.0
 10
638.316802
 20
321.403774
 30
0.0
  0
LWPOLYLINE
  5
150
100
AcDbEntity
  8
0
 62
7
100
AcDbPolyline
 90
2
 70
0
 10
633.305478
 20
330.423705
 30
0.0
 10
631.301175
 20
328.419401
 30
0.0
  0
SPLINE
  5
151
100
AcDbEntity
  8
0
 62
7
100
AcDbSpline
 70
8
 71
3
 72
8
 73
4
 74
0
 40
0
 40
0
 40
0
 40
0
 40
1
 40
1
 40
1
 40
1
 10
640.321105
 20
323.408078
 30
0.0
 10
642.257126
 20
325.344098
 30
0.0
 10
642.257224
 20
328.487690
 30
0.0
 10
640.321157
 20
330.423757
 30
0.0
  0
LWPOLYLINE
  5
152
100
AcDbEntity
  8
0
 62
7
100
AcDbPolyline
 90
2
 70
0
 10
638.316802
 20
321.403774
 30
0.0
 10
640.321105
 20
323.408078
 30
0.0
  0
LWPOLYLINE
  5
153
100
AcDbEntity
  8
0
 62
7
100
AcDbPolyline
 90
1
 70
1
 10
640.321157
 20
330.423757
 30
0.0
  0
LWPOLYLINE
  5
154
100
AcDbEntity
  8
0
 62
7
100
AcDbPolyline
 90
5
 70
1
 10
688.017491
 20
358.370358
 30
0.0
 10
688.017491
 20
318.685575
 30
0.0
 10
648.331648
 20
318.685575
 30
0.0
 10
648.331648
 20
358.370358
 30
0.0
 10
688.017491
 20
358.370358
 30
0.0
  0
SPLINE
  5
155
100
AcDbEntity
  8
0
 62
7
100
AcDbSpline
 70
8
 71
3
 72
8
 73
4
 74
0
 40
0
 40
0
 40
0
 40
0
 40
1
 40
1
 40
1
 40
1
 10
559.533157
 20
330.423757
 30
0.0
 10
557.597090
 20
332.359824
 30
0.0
 10
554.453499
 20
332.359725
 30
0.0
 10
552.517478
 20
330.423705
 30
0.0
  0
LWPOLYLINE
  5
156
100
AcDbEntity
  8
0
 62
7
100
AcDbPolyline
 90
5
 70
1
 10
607.225111
 20
358.370358
 30
0.0
 10
607.225111
 20
318.685575
 30
0.0
 10
567.540329
 20
318.685575
 30
0.0
 10
567.540329
 20
358.370358
 30
0.0
 10
607.225111
 20
358.370358
 30
0.0
  0
SPLINE
  5
157
100
AcDbEntity
  8
0
 62
7
100
AcDbSpline
 70
8
 71
3
 72
8
 73
4
 74
0
 40
0
 40
0
 40
0
 40
0
 40
1
 40
1
 40
1
 40
1
 10
550.513175
 20
328.419401
 30
0.0
 10
548.577155
 20
326.483381
 30
0.0
 10
548.577056
 20
323.339789
 30
0.0
 10
550.513123
 20
321.403722
 30
0.0
  0
SPLINE
  5
158
100
AcDbEntity
  8
0
 62
7
100
AcDbSpline
 70
8
 71
3
 72
8
 73
4
 74
0
 40
0
 40
0
 40
0
 40
0
 40
1
 40
1
 40
1
 40
1
 10
550.513123
 20
321.403722
 30
0.0
 10
552.449190
 20
319.467655
 30
0.0
 10
555.592781
 20
319.467754
 30
0.0
 10
557.528802
 20
321.403774
 30
0.0
  0
LWPOLYLINE
  5
159
100
AcDbEntity
  8
0
 62
7
100
AcDbPolyline
 90
2
 70
0
 10
552.517478
 20
330.423705
 30
0.0
 10
550.513175
 20
328.419401
 30
0.0
  0
SPLINE
  5
15a
100
AcDbEntity
  8
0
 62
7
100
AcDbSpline
 70
8
 71
3
 72
8
 73
4
 74
0
 40
0
 40
0
 40
0
 40
0
 40
1
 40
1
 40
1
 40
1
 10
559.533105
 20
323.408078
 30
0.0
 10
561.469126
 20
325.344098
 30
0.0
 10
561.469224
 20
328.487690
 30
0.0
 10
559.533157
 20
330.423757
 30
0.0
  0
LWPOLYLINE
  5
15b
100
AcDbEntity
  8
0
 62
7
100
AcDbPolyline
 90
2
 70
0
 10
557.528802
 20
321.403774
 30
0.0
 10
559.533105
 20
323.408078
 30
0.0
  0
LWPOLYLINE
  5
15c
100
AcDbEntity
  8
0
 62
7
100
AcDbPolyline
 90
1
 70
1
 10
559.533157
 20
330.423757
 30
0.0
  0
SPLINE
  5
15d
100
AcDbEntity
  8
0
 62
7
100
AcDbSpline
 70
8
 71
3
 72
8
 73
4
 74
0
 40
0
 40
0
 40
0
 40
0
 40
1
 40
1
 40
1
 40
1
 10
478.746157
 20
330.423757
 30
0.0
 10
476.810090
 20
332.359824
 30
0.0
 10
473.666499
 20
332.359725
 30
0.0
 10
471.730478
 20
330.423705
 30
0.0
  0
LWPOLYLINE
  5
15e
100
AcDbEntity
  8
0
 62
7
100
AcDbPolyline
 90
5
 70
1
 10
526.440217
 20
358.370358
 30
0.0
 10
526.440217
 20
318.685575
 30
0.0
 10
486.755434
 20
318.685575
 30
0.0
 10
486.755434
 20
358.370358
 30
0.0
 10
526.440217
 20
358.370358
 30
0.0
  0
SPLINE
  5
15f
100
AcDbEntity
  8
0
 62
7
100
AcDbSpline
 70
8
 71
3
 72
8
 73
4
 74
0
 40
0
 40
0
 40
0
 40
0
 40
1
 40
1
 40
1
 40
1
 10
469.726175
 20
328.419401
 30
0.0
 10
467.790155
 20
326.483381
 30
0.0
 10
467.790056
 20
323.339789
 30
0.0
 10
469.726123
 20
321.403722
 30
0.0
  0
SPLINE
  5
160
100
AcDbEntity
  8
0
 62
7
100
AcDbSpline
 70
8
 71
3
 72
8
 73
4
 74
0
 40
0
 40
0
 40
0
 40
0
 40
1
 40
1
 40
1
 40
1
 10
469.726123
 20
321.403722
 30
0.0
 10
471.662190
 20
319.467655
 30
0.0
 10
474.805781
 20
319.467754
 30
0.0
 10
476.741802
 20
321.403774
 30
0.0
  0
LWPOLYLINE
  5
161
100
AcDbEntity
  8
0
 62
7
100
AcDbPolyline
 90
2
 70
0
 10
471.730478
 20
330.423705
 30
0.0
 10
469.726175
 20
328.419401
 30
0.0
  0
SPLINE
  5
162
100
AcDbEntity
  8
0
 62
7
100
AcDbSpline
 70
8
 71
3
 72
8
 73
4
 74
0
 40
0
 40
0
 40
0
 40
0
 40
1
 40
1
 40
1
 40
1
 10
478.746105
 20
323.408078
 30
0.0
 10
480.682126
 20
325.344098
 30
0.0
 10
480.682224
 20
328.487690
 30
0.0
 10
478.746157
 20
330.423757
 30
0.0
  0
LWPOLYLINE
  5
163
100
AcDbEntity
  8
0
 62
7
100
AcDbPolyline
 90
2
 70
0
 10
476.741802
 20
321.403774
 30
0.0
 10
478.746105
 20
323.408078
 30
0.0
  0
LWPOLYLINE
  5
164
100
AcDbEntity
  8
0
 62
7
100
AcDbPolyline
 90
1
 70
1
 10
478.746157
 20
330.423757
 30
0.0
  0
LWPOLYLINE
  5
165
100
AcDbEntity
  8
0
 62
7
100
AcDbPolyline
 90
3
 70
1
 10
161.616574
 20
67.195472
 30
0.0
 10
161.616574
 20
106.880254
 30
0.0
 10
161.616574
 20
67.195472
 30
0.0
  0
LWPOLYLINE
  5
166
100
AcDbEntity
  8
0
 62
7
100
AcDbPolyline
 90
3
 70
1
 10
201.302417
 20
67.195472
 30
0.0
 10
161.616574
 20
67.195472
 30
0.0
 10
201.302417
 20
67.195472
 30
0.0
  0
LWPOLYLINE
  5
167
100
AcDbEntity
  8
0
 62
7
100
AcDbPolyline
 90
3
 70
1
 10
201.302417
 20
106.880254
 30
0.0
 10
201.302417
 20
67.195472
 30
0.0
 10
201.302417
 20
106.880254
 30
0.0
  0
LWPOLYLINE
  5
168
100
AcDbEntity
  8
0
 62
7
100
AcDbPolyline
 90
3
 70
1
 10
161.616574
 20
106.880254
 30
0.0
 10
201.302417
 20
106.880254
 30
0.0
 10
161.616574
 20
106.880254
 30
0.0
  0
LWPOLYLINE
  5
169
100
AcDbEntity
  8
0
 62
7
100
AcDbPolyline
 90
3
 70
1
 10
390.549275
 20
175.396888
 30
0.0
 10
390.549275
 20
215.082731
 30
0.0
 10
390.549275
 20
175.396888
 30
0.0
  0
LWPOLYLINE
  5
16a
100
AcDbEntity
  8
0
 62
7
100
AcDbPolyline
 90
3
 70
1
 10
430.234057
 20
175.396888
 30
0.0
 10
390.549275
 20
175.396888
 30
0.0
 10
430.234057
 20
175.396888
 30
0.0
  0
LWPOLYLINE
  5
16b
100
AcDbEntity
  8
0
 62
7
100
AcDbPolyline
 90
3
 70
1
 10
430.234057
 20
215.082731
 30
0.0
 10
430.234057
 20
175.396888
 30
0.0
 10
430.234057
 20
215.082731
 30
0.0
  0
LWPOLYLINE
  5
16c
100
AcDbEntity
  8
0
 62
7
100
AcDbPolyline
 90
3
 70
1
 10
390.549275
 20
215.082731
 30
0.0
 10
430.234057
 20
215.082731
 30
0.0
 10
390.549275
 20
215.082731
 30
0.0
  0
LWPOLYLINE
  5
16d
100
AcDbEntity
  8
0
 62
7
100
AcDbPolyline
 90
3
 70
1
 10
215.480655
 20
67.195472
 30
0.0
 10
215.480655
 20
106.880254
 30
0.0
 10
215.480655
 20
67.195472
 30
0.0
  0
LWPOLYLINE
  5
16e
100
AcDbEntity
  8
0
 62
7
100
AcDbPolyline
 90
3
 70
1
 10
255.165438
 20
67.195472
 30
0.0
 10
215.480655
 20
67.195472
 30
0.0
 10
255.165438
 20
67.195472
 30
0.0
  0
LWPOLYLINE
  5
16f
100
AcDbEntity
  8
0
 62
7
100
AcDbPolyline
 90
3
 70
1
 10
255.165438
 20
106.880254
 30
0.0
 10
255.165438
 20
67.195472
 30
0.0
 10
255.165438
 20
106.880254
 30
0.0
  0
LWPOLYLINE
  5
170
100
AcDbEntity
  8
0
 62
7
100
AcDbPolyline
 90
3
 70
1
 10
215.480655
 20
106.880254
 30
0.0
 10
255.165438
 20
106.880254
 30
0.0
 10
215.480655
 20
106.880254
 30
0.0
  0
LWPOLYLINE
  5
171
100
AcDbEntity
  8
0
 62
7
100
AcDbPolyline
 90
3
 70
1
 10
175.109980
 20
175.396888
 30
0.0
 10
175.109980
 20
215.082731
 30
0.0
 10
175.109980
 20
175.396888
 30
0.0
  0
LWPOLYLINE
  5
172
100
AcDbEntity
  8
0
 62
7
100
AcDbPolyline
 90
3
 70
1
 10
214.795823
 20
175.396888
 30
0.0
 10
175.109980
 20
175.396888
 30
0.0
 10
214.795823
 20
175.396888
 30
0.0
  0
LWPOLYLINE
  5
173
100
AcDbEntity
  8
0
 62
7
100
AcDbPolyline
 90
3
 70
1
 10
214.795823
 20
215.082731
 30
0.0
 10
214.795823
 20
175.396888
 30
0.0
 10
214.795823
 20
215.082731
 30
0.0
  0
LWPOLYLINE
  5
174
100
AcDbEntity
  8
0
 62
7
100
AcDbPolyline
 90
3
 70
1
 10
175.109980
 20
215.082731
 30
0.0
 10
214.795823
 20
215.082731
 30
0.0
 10
175.109980
 20
215.082731
 30
0.0
  0
LWPOLYLINE
  5
175
100
AcDbEntity
  8
0
 62
7
100
AcDbPolyline
 90
3
 70
1
 10
323.192848
 20
67.195472
 30
0.0
 10
323.192848
 20
106.880254
 30
0.0
 10
323.192848
 20
67.195472
 30
0.0
  0
LWPOLYLINE
  5
176
100
AcDbEntity
  8
0
 62
7
100
AcDbPolyline
 90
3
 70
1
 10
362.877631
 20
67.195472
 30
0.0
 10
323.192848
 20
67.195472
 30
0.0
 10
362.877631
 20
67.195472
 30
0.0
  0
LWPOLYLINE
  5
177
100
AcDbEntity
  8
0
 62
7
100
AcDbPolyline
 90
3
 70
1
 10
362.877631
 20
106.880254
 30
0.0
 10
362.877631
 20
67.195472
 30
0.0
 10
362.877631
 20
106.880254
 30
0.0
  0
LWPOLYLINE
  5
178
100
AcDbEntity
  8
0
 62
7
100
AcDbPolyline
 90
3
 70
1
 10
323.192848
 20
106.880254
 30
0.0
 10
362.877631
 20
106.880254
 30
0.0
 10
323.192848
 20
106.880254
 30
0.0
  0
LWPOLYLINE
  5
179
100
AcDbEntity
  8
0
 62
7
100
AcDbPolyline
 90
3
 70
1
 10
444.405871
 20
175.396888
 30
0.0
 10
444.405871
 20
215.082731
 30
0.0
 10
444.405871
 20
175.396888
 30
0.0
  0
LWPOLYLINE
  5
17a
100
AcDbEntity
  8
0
 62
7
100
AcDbPolyline
 90
3
 70
1
 10
484.090654
 20
175.396888
 30
0.0
 10
444.405871
 20
175.396888
 30
0.0
 10
484.090654
 20
175.396888
 30
0.0
  0
LWPOLYLINE
  5
17b
100
AcDbEntity
  8
0
 62
7
100
AcDbPolyline
 90
3
 70
1
 10
484.090654
 20
215.082731
 30
0.0
 10
484.090654
 20
175.396888
 30
0.0
 10
484.090654
 20
215.082731
 30
0.0
  0
LWPOLYLINE
  5
17c
100
AcDbEntity
  8
0
 62
7
100
AcDbPolyline
 90
3
 70
1
 10
444.405871
 20
215.082731
 30
0.0
 10
484.090654
 20
215.082731
 30
0.0
 10
444.405871
 20
215.082731
 30
0.0
  0
LWPOLYLINE
  5
17d
100
AcDbEntity
  8
0
 62
7
100
AcDbPolyline
 90
3
 70
1
 10
54.070437
 20
215.082731
 30
0.0
 10
93.755220
 20
215.082731
 30
0.0
 10
54.070437
 20
215.082731
 30
0.0
  0
LWPOLYLINE
  5
17e
100
AcDbEntity
  8
0
 62
7
100
AcDbPolyline
 90
3
 70
1
 10
93.755220
 20
215.082731
 30
0.0
 10
93.755220
 20
175.396888
 30
0.0
 10
93.755220
 20
215.082731
 30
0.0
  0
LWPOLYLINE
  5
17f
100
AcDbEntity
  8
0
 62
7
100
AcDbPolyline
 90
3
 70
1
 10
93.755220
 20
175.396888
 30
0.0
 10
54.070437
 20
175.396888
 30
0.0
 10
93.755220
 20
175.396888
 30
0.0
  0
LWPOLYLINE
  5
180
100
AcDbEntity
  8
0
 62
7
100
AcDbPolyline
 90
3
 70
1
 10
54.070437
 20
175.396888
 30
0.0
 10
54.070437
 20
215.082731
 30
0.0
 10
54.070437
 20
175.396888
 30
0.0
  0
LWPOLYLINE
  5
181
100
AcDbEntity
  8
0
 62
7
100
AcDbPolyline
 90
3
 70
1
 10
336.685194
 20
175.396888
 30
0.0
 10
336.685194
 20
215.082731
 30
0.0
 10
336.685194
 20
175.396888
 30
0.0
  0
LWPOLYLINE
  5
182
100
AcDbEntity
  8
0
 62
7
100
AcDbPolyline
 90
3
 70
1
 10
376.371037
 20
175.396888
 30
0.0
 10
336.685194
 20
175.396888
 30
0.0
 10
376.371037
 20
175.396888
 30
0.0
  0
LWPOLYLINE
  5
183
100
AcDbEntity
  8
0
 62
7
100
AcDbPolyline
 90
3
 70
1
 10
376.371037
 20
215.082731
 30
0.0
 10
376.371037
 20
175.396888
 30
0.0
 10
376.371037
 20
215.082731
 30
0.0
  0
LWPOLYLINE
  5
184
100
AcDbEntity
  8
0
 62
7
100
AcDbPolyline
 90
3
 70
1
 10
336.685194
 20
215.082731
 30
0.0
 10
376.371037
 20
215.082731
 30
0.0
 10
336.685194
 20
215.082731
 30
0.0
  0
LWPOLYLINE
  5
185
100
AcDbEntity
  8
0
 62
7
100
AcDbPolyline
 90
3
 70
1
 10
727.243630
 20
121.337117
 30
0.0
 10
727.243630
 20
161.029383
 30
0.0
 10
727.243630
 20
121.337117
 30
0.0
  0
LWPOLYLINE
  5
186
100
AcDbEntity
  8
0
 62
7
100
AcDbPolyline
 90
3
 70
1
 10
766.929531
 20
121.337117
 30
0.0
 10
727.243630
 20
121.337117
 30
0.0
 10
766.929531
 20
121.337117
 30
0.0
  0
LWPOLYLINE
  5
187
100
AcDbEntity
  8
0
 62
7
100
AcDbPolyline
 90
3
 70
1
 10
766.929531
 20
161.029383
 30
0.0
 10
766.929531
 20
121.337117
 30
0.0
 10
766.929531
 20
161.029383
 30
0.0
  0
LWPOLYLINE
  5
188
100
AcDbEntity
  8
0
 62
7
100
AcDbPolyline
 90
3
 70
1
 10
727.243630
 20
161.029383
 30
0.0
 10
766.929531
 20
161.029383
 30
0.0
 10
727.243630
 20
161.029383
 30
0.0
  0
LWPOLYLINE
  5
189
100
AcDbEntity
  8
0
 62
7
100
AcDbPolyline
 90
3
 70
1
 10
646.344275
 20
67.195472
 30
0.0
 10
646.344275
 20
106.880254
 30
0.0
 10
646.344275
 20
67.195472
 30
0.0
  0
LWPOLYLINE
  5
18a
100
AcDbEntity
  8
0
 62
7
100
AcDbPolyline
 90
3
 70
1
 10
686.029058
 20
67.195472
 30
0.0
 10
646.344275
 20
67.195472
 30
0.0
 10
686.029058
 20
67.195472
 30
0.0
  0
LWPOLYLINE
  5
18b
100
AcDbEntity
  8
0
 62
7
100
AcDbPolyline
 90
3
 70
1
 10
686.029058
 20
106.880254
 30
0.0
 10
686.029058
 20
67.195472
 30
0.0
 10
686.029058
 20
106.880254
 30
0.0
  0
LWPOLYLINE
  5
18c
100
AcDbEntity
  8
0
 62
7
100
AcDbPolyline
 90
3
 70
1
 10
646.344275
 20
106.880254
 30
0.0
 10
686.029058
 20
106.880254
 30
0.0
 10
646.344275
 20
106.880254
 30
0.0
  0
LWPOLYLINE
  5
18d
100
AcDbEntity
  8
0
 62
7
100
AcDbPolyline
 90
3
 70
1
 10
619.531944
 20
121.339615
 30
0.0
 10
619.531944
 20
161.024398
 30
0.0
 10
619.531944
 20
121.339615
 30
0.0
  0
LWPOLYLINE
  5
18e
100
AcDbEntity
  8
0
 62
7
100
AcDbPolyline
 90
3
 70
1
 10
659.217787
 20
121.339615
 30
0.0
 10
619.531944
 20
121.339615
 30
0.0
 10
659.217787
 20
121.339615
 30
0.0
  0
LWPOLYLINE
  5
18f
100
AcDbEntity
  8
0
 62
7
100
AcDbPolyline
 90
3
 70
1
 10
659.217787
 20
161.024398
 30
0.0
 10
659.217787
 20
121.339615
 30
0.0
 10
659.217787
 20
161.024398
 30
0.0
  0
LWPOLYLINE
  5
190
100
AcDbEntity
  8
0
 62
7
100
AcDbPolyline
 90
3
 70
1
 10
619.531944
 20
161.024398
 30
0.0
 10
659.217787
 20
161.024398
 30
0.0
 10
619.531944
 20
161.024398
 30
0.0
  0
LWPOLYLINE
  5
191
100
AcDbEntity
  8
0
 62
7
100
AcDbPolyline
 90
3
 70
1
 10
188.660900
 20
121.339615
 30
0.0
 10
188.660900
 20
161.024398
 30
0.0
 10
188.660900
 20
121.339615
 30
0.0
  0
LWPOLYLINE
  5
192
100
AcDbEntity
  8
0
 62
7
100
AcDbPolyline
 90
3
 70
1
 10
228.345682
 20
121.339615
 30
0.0
 10
188.660900
 20
121.339615
 30
0.0
 10
228.345682
 20
121.339615
 30
0.0
  0
LWPOLYLINE
  5
193
100
AcDbEntity
  8
0
 62
7
100
AcDbPolyline
 90
3
 70
1
 10
228.345682
 20
161.024398
 30
0.0
 10
228.345682
 20
121.339615
 30
0.0
 10
228.345682
 20
161.024398
 30
0.0
  0
LWPOLYLINE
  5
194
100
AcDbEntity
  8
0
 62
7
100
AcDbPolyline
 90
3
 70
1
 10
188.660900
 20
161.024398
 30
0.0
 10
228.345682
 20
161.024398
 30
0.0
 10
188.660900
 20
161.024398
 30
0.0
  0
LWPOLYLINE
  5
195
100
AcDbEntity
  8
0
 62
7
100
AcDbPolyline
 90
3
 70
1
 10
781.165671
 20
215.082731
 30
0.0
 10
820.850453
 20
215.082731
 30
0.0
 10
781.165671
 20
215.082731
 30
0.0
  0
LWPOLYLINE
  5
196
100
AcDbEntity
  8
0
 62
7
100
AcDbPolyline
 90
3
 70
1
 10
820.850453
 20
215.082731
 30
0.0
 10
820.850453
 20
175.396888
 30
0.0
 10
820.850453
 20
215.082731
 30
0.0
  0
LWPOLYLINE
  5
197
100
AcDbEntity
  8
0
 62
7
100
AcDbPolyline
 90
3
 70
1
 10
820.850453
 20
175.396888
 30
0.0
 10
781.165671
 20
175.396888
 30
0.0
 10
820.850453
 20
175.396888
 30
0.0
  0
LWPOLYLINE
  5
198
100
AcDbEntity
  8
0
 62
7
100
AcDbPolyline
 90
3
 70
1
 10
781.165671
 20
175.396888
 30
0.0
 10
781.165671
 20
215.082731
 30
0.0
 10
781.165671
 20
175.396888
 30
0.0
  0
LWPOLYLINE
  5
199
100
AcDbEntity
  8
0
 62
7
100
AcDbPolyline
 90
3
 70
1
 10
282.828597
 20
175.396888
 30
0.0
 10
282.828597
 20
215.082731
 30
0.0
 10
282.828597
 20
175.396888
 30
0.0
  0
LWPOLYLINE
  5
19a
100
AcDbEntity
  8
0
 62
7
100
AcDbPolyline
 90
3
 70
1
 10
322.514440
 20
175.396888
 30
0.0
 10
282.828597
 20
175.396888
 30
0.0
 10
322.514440
 20
175.396888
 30
0.0
  0
LWPOLYLINE
  5
19b
100
AcDbEntity
  8
0
 62
7
100
AcDbPolyline
 90
3
 70
1
 10
322.514440
 20
215.082731
 30
0.0
 10
322.514440
 20
175.396888
 30
0.0
 10
322.514440
 20
215.082731
 30
0.0
  0
LWPOLYLINE
  5
19c
100
AcDbEntity
  8
0
 62
7
100
AcDbPolyline
 90
3
 70
1
 10
282.828597
 20
215.082731
 30
0.0
 10
322.514440
 20
215.082731
 30
0.0
 10
282.828597
 20
215.082731
 30
0.0
  0
LWPOLYLINE
  5
19d
100
AcDbEntity
  8
0
 62
7
100
AcDbPolyline
 90
3
 70
1
 10
121.253384
 20
175.396888
 30
0.0
 10
121.253384
 20
215.082731
 30
0.0
 10
121.253384
 20
175.396888
 30
0.0
  0
LWPOLYLINE
  5
19e
100
AcDbEntity
  8
0
 62
7
100
AcDbPolyline
 90
3
 70
1
 10
160.939227
 20
175.396888
 30
0.0
 10
121.253384
 20
175.396888
 30
0.0
 10
160.939227
 20
175.396888
 30
0.0
  0
LWPOLYLINE
  5
19f
100
AcDbEntity
  8
0
 62
7
100
AcDbPolyline
 90
3
 70
1
 10
160.939227
 20
215.082731
 30
0.0
 10
160.939227
 20
175.396888
 30
0.0
 10
160.939227
 20
215.082731
 30
0.0
  0
LWPOLYLINE
  5
1a0
100
AcDbEntity
  8
0
 62
7
100
AcDbPolyline
 90
3
 70
1
 10
121.253384
 20
215.082731
 30
0.0
 10
160.939227
 20
215.082731
 30
0.0
 10
121.253384
 20
215.082731
 30
0.0
  0
LWPOLYLINE
  5
1a1
100
AcDbEntity
  8
0
 62
7
100
AcDbPolyline
 90
3
 70
1
 10
673.387540
 20
121.339615
 30
0.0
 10
673.387540
 20
161.024398
 30
0.0
 10
673.387540
 20
121.339615
 30
0.0
  0
LWPOLYLINE
  5
1a2
100
AcDbEntity
  8
0
 62
7
100
AcDbPolyline
 90
3
 70
1
 10
713.073383
 20
121.339615
 30
0.0
 10
673.387540
 20
121.339615
 30
0.0
 10
713.073383
 20
121.339615
 30
0.0
  0
LWPOLYLINE
  5
1a3
100
AcDbEntity
  8
0
 62
7
100
AcDbPolyline
 90
3
 70
1
 10
713.073383
 20
161.024398
 30
0.0
 10
713.073383
 20
121.339615
 30
0.0
 10
713.073383
 20
161.024398
 30
0.0
  0
LWPOLYLINE
  5
1a4
100
AcDbEntity
  8
0
 62
7
100
AcDbPolyline
 90
3
 70
1
 10
673.387540
 20
161.024398
 30
0.0
 10
713.073383
 20
161.024398
 30
0.0
 10
673.387540
 20
161.024398
 30
0.0
  0
LWPOLYLINE
  5
1a5
100
AcDbEntity
  8
0
 62
7
100
AcDbPolyline
 90
3
 70
1
 10
592.488679
 20
67.195472
 30
0.0
 10
592.488679
 20
106.880254
 30
0.0
 10
592.488679
 20
67.195472
 30
0.0
  0
LWPOLYLINE
  5
1a6
100
AcDbEntity
  8
0
 62
7
100
AcDbPolyline
 90
3
 70
1
 10
632.173461
 20
67.195472
 30
0.0
 10
592.488679
 20
67.195472
 30
0.0
 10
632.173461
 20
67.195472
 30
0.0
  0
LWPOLYLINE
  5
1a7
100
AcDbEntity
  8
0
 62
7
100
AcDbPolyline
 90
3
 70
1
 10
632.173461
 20
106.880254
 30
0.0
 10
632.173461
 20
67.195472
 30
0.0
 10
632.173461
 20
106.880254
 30
0.0
  0
LWPOLYLINE
  5
1a8
100
AcDbEntity
  8
0
 62
7
100
AcDbPolyline
 90
3
 70
1
 10
592.488679
 20
106.880254
 30
0.0
 10
632.173461
 20
106.880254
 30
0.0
 10
592.488679
 20
106.880254
 30
0.0
  0
LWPOLYLINE
  5
1a9
100
AcDbEntity
  8
0
 62
7
100
AcDbPolyline
 90
3
 70
1
 10
605.981085
 20
175.396888
 30
0.0
 10
605.981085
 20
215.082731
 30
0.0
 10
605.981085
 20
175.396888
 30
0.0
  0
LWPOLYLINE
  5
1aa
100
AcDbEntity
  8
0
 62
7
100
AcDbPolyline
 90
3
 70
1
 10
645.665867
 20
175.396888
 30
0.0
 10
605.981085
 20
175.396888
 30
0.0
 10
645.665867
 20
175.396888
 30
0.0
  0
LWPOLYLINE
  5
1ab
100
AcDbEntity
  8
0
 62
7
100
AcDbPolyline
 90
3
 70
1
 10
645.665867
 20
215.082731
 30
0.0
 10
645.665867
 20
175.396888
 30
0.0
 10
645.665867
 20
215.082731
 30
0.0
  0
LWPOLYLINE
  5
1ac
100
AcDbEntity
  8
0
 62
7
100
AcDbPolyline
 90
3
 70
1
 10
605.981085
 20
215.082731
 30
0.0
 10
645.665867
 20
215.082731
 30
0.0
 10
605.981085
 20
215.082731
 30
0.0
  0
LWPOLYLINE
  5
1ad
100
AcDbEntity
  8
0
 62
7
100
AcDbPolyline
 90
3
 70
1
 10
552.125488
 20
175.396888
 30
0.0
 10
552.125488
 20
215.082731
 30
0.0
 10
552.125488
 20
175.396888
 30
0.0
  0
LWPOLYLINE
  5
1ae
100
AcDbEntity
  8
0
 62
7
100
AcDbPolyline
 90
3
 70
1
 10
591.810271
 20
175.396888
 30
0.0
 10
552.125488
 20
175.396888
 30
0.0
 10
591.810271
 20
175.396888
 30
0.0
  0
LWPOLYLINE
  5
1af
100
AcDbEntity
  8
0
 62
7
100
AcDbPolyline
 90
3
 70
1
 10
591.810271
 20
215.082731
 30
0.0
 10
591.810271
 20
175.396888
 30
0.0
 10
591.810271
 20
215.082731
 30
0.0
  0
LWPOLYLINE
  5
1b0
100
AcDbEntity
  8
0
 62
7
100
AcDbPolyline
 90
3
 70
1
 10
552.125488
 20
215.082731
 30
0.0
 10
591.810271
 20
215.082731
 30
0.0
 10
552.125488
 20
215.082731
 30
0.0
  0
LWPOLYLINE
  5
1b1
100
AcDbEntity
  8
0
 62
7
100
AcDbPolyline
 90
3
 70
1
 10
430.912465
 20
67.195472
 30
0.0
 10
430.912465
 20
106.880254
 30
0.0
 10
430.912465
 20
67.195472
 30
0.0
  0
LWPOLYLINE
  5
1b2
100
AcDbEntity
  8
0
 62
7
100
AcDbPolyline
 90
3
 70
1
 10
470.597248
 20
67.195472
 30
0.0
 10
430.912465
 20
67.195472
 30
0.0
 10
470.597248
 20
67.195472
 30
0.0
  0
LWPOLYLINE
  5
1b3
100
AcDbEntity
  8
0
 62
7
100
AcDbPolyline
 90
3
 70
1
 10
470.597248
 20
106.880254
 30
0.0
 10
470.597248
 20
67.195472
 30
0.0
 10
470.597248
 20
106.880254
 30
0.0
  0
LWPOLYLINE
  5
1b4
100
AcDbEntity
  8
0
 62
7
100
AcDbPolyline
 90
3
 70
1
 10
430.912465
 20
106.880254
 30
0.0
 10
470.597248
 20
106.880254
 30
0.0
 10
430.912465
 20
106.880254
 30
0.0
  0
LWPOLYLINE
  5
1b5
100
AcDbEntity
  8
0
 62
7
100
AcDbPolyline
 90
3
 70
1
 10
484.769062
 20
67.195472
 30
0.0
 10
484.769062
 20
106.880254
 30
0.0
 10
484.769062
 20
67.195472
 30
0.0
  0
LWPOLYLINE
  5
1b6
100
AcDbEntity
  8
0
 62
7
100
AcDbPolyline
 90
3
 70
1
 10
524.453844
 20
67.195472
 30
0.0
 10
484.769062
 20
67.195472
 30
0.0
 10
524.453844
 20
67.195472
 30
0.0
  0
LWPOLYLINE
  5
1b7
100
AcDbEntity
  8
0
 62
7
100
AcDbPolyline
 90
3
 70
1
 10
524.453844
 20
106.880254
 30
0.0
 10
524.453844
 20
67.195472
 30
0.0
 10
524.453844
 20
106.880254
 30
0.0
  0
LWPOLYLINE
  5
1b8
100
AcDbEntity
  8
0
 62
7
100
AcDbPolyline
 90
3
 70
1
 10
484.769062
 20
106.880254
 30
0.0
 10
524.453844
 20
106.880254
 30
0.0
 10
484.769062
 20
106.880254
 30
0.0
  0
LWPOLYLINE
  5
1b9
100
AcDbEntity
  8
0
 62
7
100
AcDbPolyline
 90
3
 70
1
 10
633.024350
 20
229.541332
 30
0.0
 10
633.024350
 20
269.219751
 30
0.0
 10
633.024350
 20
229.541332
 30
0.0
  0
LWPOLYLINE
  5
1ba
100
AcDbEntity
  8
0
 62
7
100
AcDbPolyline
 90
3
 70
1
 10
672.709132
 20
229.541332
 30
0.0
 10
633.024350
 20
229.541332
 30
0.0
 10
672.709132
 20
229.541332
 30
0.0
  0
LWPOLYLINE
  5
1bb
100
AcDbEntity
  8
0
 62
7
100
AcDbPolyline
 90
3
 70
1
 10
672.709132
 20
269.219751
 30
0.0
 10
672.709132
 20
229.541332
 30
0.0
 10
672.709132
 20
269.219751
 30
0.0
  0
LWPOLYLINE
  5
1bc
100
AcDbEntity
  8
0
 62
7
100
AcDbPolyline
 90
3
 70
1
 10
633.024350
 20
269.219751
 30
0.0
 10
672.709132
 20
269.219751
 30
0.0
 10
633.024350
 20
269.219751
 30
0.0
  0
LWPOLYLINE
  5
1bd
100
AcDbEntity
  8
0
 62
7
100
AcDbPolyline
 90
3
 70
1
 10
565.669101
 20
121.337117
 30
0.0
 10
565.669101
 20
161.029383
 30
0.0
 10
565.669101
 20
121.337117
 30
0.0
  0
LWPOLYLINE
  5
1be
100
AcDbEntity
  8
0
 62
7
100
AcDbPolyline
 90
3
 70
1
 10
605.353942
 20
121.337117
 30
0.0
 10
565.669101
 20
121.337117
 30
0.0
 10
605.353942
 20
121.337117
 30
0.0
  0
LWPOLYLINE
  5
1bf
100
AcDbEntity
  8
0
 62
7
100
AcDbPolyline
 90
3
 70
1
 10
605.353942
 20
161.029383
 30
0.0
 10
605.353942
 20
121.337117
 30
0.0
 10
605.353942
 20
161.029383
 30
0.0
  0
LWPOLYLINE
  5
1c0
100
AcDbEntity
  8
0
 62
7
100
AcDbPolyline
 90
3
 70
1
 10
565.669101
 20
161.029383
 30
0.0
 10
605.353942
 20
161.029383
 30
0.0
 10
565.669101
 20
161.029383
 30
0.0
  0
LWPOLYLINE
  5
1c1
100
AcDbEntity
  8
0
 62
7
100
AcDbPolyline
 90
3
 70
1
 10
511.812327
 20
121.339615
 30
0.0
 10
511.812327
 20
161.024398
 30
0.0
 10
511.812327
 20
121.339615
 30
0.0
  0
LWPOLYLINE
  5
1c2
100
AcDbEntity
  8
0
 62
7
100
AcDbPolyline
 90
3
 70
1
 10
551.497109
 20
121.339615
 30
0.0
 10
511.812327
 20
121.339615
 30
0.0
 10
551.497109
 20
121.339615
 30
0.0
  0
LWPOLYLINE
  5
1c3
100
AcDbEntity
  8
0
 62
7
100
AcDbPolyline
 90
3
 70
1
 10
551.497109
 20
161.024398
 30
0.0
 10
551.497109
 20
121.339615
 30
0.0
 10
551.497109
 20
161.024398
 30
0.0
  0
LWPOLYLINE
  5
1c4
100
AcDbEntity
  8
0
 62
7
100
AcDbPolyline
 90
3
 70
1
 10
511.812327
 20
161.024398
 30
0.0
 10
551.497109
 20
161.024398
 30
0.0
 10
511.812327
 20
161.024398
 30
0.0
  0
LWPOLYLINE
  5
1c5
100
AcDbEntity
  8
0
 62
7
100
AcDbPolyline
 90
3
 70
1
 10
457.955730
 20
121.339615
 30
0.0
 10
457.955730
 20
161.024398
 30
0.0
 10
457.955730
 20
121.339615
 30
0.0
  0
LWPOLYLINE
  5
1c6
100
AcDbEntity
  8
0
 62
7
100
AcDbPolyline
 90
3
 70
1
 10
497.640513
 20
121.339615
 30
0.0
 10
457.955730
 20
121.339615
 30
0.0
 10
497.640513
 20
121.339615
 30
0.0
  0
LWPOLYLINE
  5
1c7
100
AcDbEntity
  8
0
 62
7
100
AcDbPolyline
 90
3
 70
1
 10
497.640513
 20
161.024398
 30
0.0
 10
497.640513
 20
121.339615
 30
0.0
 10
497.640513
 20
161.024398
 30
0.0
  0
LWPOLYLINE
  5
1c8
100
AcDbEntity
  8
0
 62
7
100
AcDbPolyline
 90
3
 70
1
 10
457.955730
 20
161.024398
 30
0.0
 10
497.640513
 20
161.024398
 30
0.0
 10
457.955730
 20
161.024398
 30
0.0
  0
LWPOLYLINE
  5
1c9
100
AcDbEntity
  8
0
 62
7
100
AcDbPolyline
 90
3
 70
1
 10
794.600563
 20
67.195472
 30
0.0
 10
794.600563
 20
106.880254
 30
0.0
 10
794.600563
 20
67.195472
 30
0.0
  0
LWPOLYLINE
  5
1ca
100
AcDbEntity
  8
0
 62
7
100
AcDbPolyline
 90
3
 70
1
 10
834.286406
 20
67.195472
 30
0.0
 10
794.600563
 20
67.195472
 30
0.0
 10
834.286406
 20
67.195472
 30
0.0
  0
LWPOLYLINE
  5
1cb
100
AcDbEntity
  8
0
 62
7
100
AcDbPolyline
 90
3
 70
1
 10
834.286406
 20
106.880254
 30
0.0
 10
834.286406
 20
67.195472
 30
0.0
 10
834.286406
 20
106.880254
 30
0.0
  0
LWPOLYLINE
  5
1cc
100
AcDbEntity
  8
0
 62
7
100
AcDbPolyline
 90
3
 70
1
 10
794.600563
 20
106.880254
 30
0.0
 10
834.286406
 20
106.880254
 30
0.0
 10
794.600563
 20
106.880254
 30
0.0
  0
LWPOLYLINE
  5
1cd
100
AcDbEntity
  8
0
 62
7
100
AcDbPolyline
 90
3
 70
1
 10
498.262468
 20
175.396888
 30
0.0
 10
498.262468
 20
215.082731
 30
0.0
 10
498.262468
 20
175.396888
 30
0.0
  0
LWPOLYLINE
  5
1ce
100
AcDbEntity
  8
0
 62
7
100
AcDbPolyline
 90
3
 70
1
 10
537.947250
 20
175.396888
 30
0.0
 10
498.262468
 20
175.396888
 30
0.0
 10
537.947250
 20
175.396888
 30
0.0
  0
LWPOLYLINE
  5
1cf
100
AcDbEntity
  8
0
 62
7
100
AcDbPolyline
 90
3
 70
1
 10
537.947250
 20
215.082731
 30
0.0
 10
537.947250
 20
175.396888
 30
0.0
 10
537.947250
 20
215.082731
 30
0.0
  0
LWPOLYLINE
  5
1d0
100
AcDbEntity
  8
0
 62
7
100
AcDbPolyline
 90
3
 70
1
 10
498.262468
 20
215.082731
 30
0.0
 10
537.947250
 20
215.082731
 30
0.0
 10
498.262468
 20
215.082731
 30
0.0
  0
LWPOLYLINE
  5
1d1
100
AcDbEntity
  8
0
 62
7
100
AcDbPolyline
 90
3
 70
1
 10
404.093573
 20
121.337117
 30
0.0
 10
404.093573
 20
161.029383
 30
0.0
 10
404.093573
 20
121.337117
 30
0.0
  0
LWPOLYLINE
  5
1d2
100
AcDbEntity
  8
0
 62
7
100
AcDbPolyline
 90
3
 70
1
 10
443.778413
 20
121.337117
 30
0.0
 10
404.093573
 20
121.337117
 30
0.0
 10
443.778413
 20
121.337117
 30
0.0
  0
LWPOLYLINE
  5
1d3
100
AcDbEntity
  8
0
 62
7
100
AcDbPolyline
 90
3
 70
1
 10
443.778413
 20
161.029383
 30
0.0
 10
443.778413
 20
121.337117
 30
0.0
 10
443.778413
 20
161.029383
 30
0.0
  0
LWPOLYLINE
  5
1d4
100
AcDbEntity
  8
0
 62
7
100
AcDbPolyline
 90
3
 70
1
 10
404.093573
 20
161.029383
 30
0.0
 10
443.778413
 20
161.029383
 30
0.0
 10
404.093573
 20
161.029383
 30
0.0
  0
LWPOLYLINE
  5
1d5
100
AcDbEntity
  8
0
 62
7
100
AcDbPolyline
 90
3
 70
1
 10
686.880946
 20
229.541332
 30
0.0
 10
686.880946
 20
269.219751
 30
0.0
 10
686.880946
 20
229.541332
 30
0.0
  0
LWPOLYLINE
  5
1d6
100
AcDbEntity
  8
0
 62
7
100
AcDbPolyline
 90
3
 70
1
 10
726.565729
 20
229.541332
 30
0.0
 10
686.880946
 20
229.541332
 30
0.0
 10
726.565729
 20
229.541332
 30
0.0
  0
LWPOLYLINE
  5
1d7
100
AcDbEntity
  8
0
 62
7
100
AcDbPolyline
 90
3
 70
1
 10
726.565729
 20
269.219751
 30
0.0
 10
726.565729
 20
229.541332
 30
0.0
 10
726.565729
 20
269.219751
 30
0.0
  0
LWPOLYLINE
  5
1d8
100
AcDbEntity
  8
0
 62
7
100
AcDbPolyline
 90
3
 70
1
 10
686.880946
 20
269.219751
 30
0.0
 10
726.565729
 20
269.219751
 30
0.0
 10
686.880946
 20
269.219751
 30
0.0
  0
LWPOLYLINE
  5
1d9
100
AcDbEntity
  8
0
 62
7
100
AcDbPolyline
 90
3
 70
1
 10
350.236113
 20
121.339615
 30
0.0
 10
350.236113
 20
161.024398
 30
0.0
 10
350.236113
 20
121.339615
 30
0.0
  0
LWPOLYLINE
  5
1da
100
AcDbEntity
  8
0
 62
7
100
AcDbPolyline
 90
3
 70
1
 10
389.920896
 20
121.339615
 30
0.0
 10
350.236113
 20
121.339615
 30
0.0
 10
389.920896
 20
121.339615
 30
0.0
  0
LWPOLYLINE
  5
1db
100
AcDbEntity
  8
0
 62
7
100
AcDbPolyline
 90
3
 70
1
 10
389.920896
 20
161.024398
 30
0.0
 10
389.920896
 20
121.339615
 30
0.0
 10
389.920896
 20
161.024398
 30
0.0
  0
LWPOLYLINE
  5
1dc
100
AcDbEntity
  8
0
 62
7
100
AcDbPolyline
 90
3
 70
1
 10
350.236113
 20
161.024398
 30
0.0
 10
389.920896
 20
161.024398
 30
0.0
 10
350.236113
 20
161.024398
 30
0.0
  0
LWPOLYLINE
  5
1dd
100
AcDbEntity
  8
0
 62
7
100
AcDbPolyline
 90
3
 70
1
 10
296.380517
 20
121.339615
 30
0.0
 10
296.380517
 20
161.024398
 30
0.0
 10
296.380517
 20
121.339615
 30
0.0
  0
LWPOLYLINE
  5
1de
100
AcDbEntity
  8
0
 62
7
100
AcDbPolyline
 90
3
 70
1
 10
336.065299
 20
121.339615
 30
0.0
 10
296.380517
 20
121.339615
 30
0.0
 10
336.065299
 20
121.339615
 30
0.0
  0
LWPOLYLINE
  5
1df
100
AcDbEntity
  8
0
 62
7
100
AcDbPolyline
 90
3
 70
1
 10
336.065299
 20
161.024398
 30
0.0
 10
336.065299
 20
121.339615
 30
0.0
 10
336.065299
 20
161.024398
 30
0.0
  0
LWPOLYLINE
  5
1e0
100
AcDbEntity
  8
0
 62
7
100
AcDbPolyline
 90
3
 70
1
 10
296.380517
 20
161.024398
 30
0.0
 10
336.065299
 20
161.024398
 30
0.0
 10
296.380517
 20
161.024398
 30
0.0
  0
LWPOLYLINE
  5
1e1
100
AcDbEntity
  8
0
 62
7
100
AcDbPolyline
 90
3
 70
1
 10
40.577032
 20
229.541332
 30
0.0
 10
40.577032
 20
269.219751
 30
0.0
 10
40.577032
 20
229.541332
 30
0.0
  0
LWPOLYLINE
  5
1e2
100
AcDbEntity
  8
0
 62
7
100
AcDbPolyline
 90
3
 70
1
 10
80.262875
 20
229.541332
 30
0.0
 10
40.577032
 20
229.541332
 30
0.0
 10
80.262875
 20
229.541332
 30
0.0
  0
LWPOLYLINE
  5
1e3
100
AcDbEntity
  8
0
 62
7
100
AcDbPolyline
 90
3
 70
1
 10
80.262875
 20
269.219751
 30
0.0
 10
80.262875
 20
229.541332
 30
0.0
 10
80.262875
 20
269.219751
 30
0.0
  0
LWPOLYLINE
  5
1e4
100
AcDbEntity
  8
0
 62
7
100
AcDbPolyline
 90
3
 70
1
 10
40.577032
 20
269.219751
 30
0.0
 10
80.262875
 20
269.219751
 30
0.0
 10
40.577032
 20
269.219751
 30
0.0
  0
LWPOLYLINE
  5
1e5
100
AcDbEntity
  8
0
 62
7
100
AcDbPolyline
 90
3
 70
1
 10
713.694061
 20
175.394101
 30
0.0
 10
713.694061
 20
215.087428
 30
0.0
 10
713.694061
 20
175.394101
 30
0.0
  0
LWPOLYLINE
  5
1e6
100
AcDbEntity
  8
0
 62
7
100
AcDbPolyline
 90
3
 70
1
 10
753.378901
 20
175.394101
 30
0.0
 10
713.694061
 20
175.394101
 30
0.0
 10
753.378901
 20
175.394101
 30
0.0
  0
LWPOLYLINE
  5
1e7
100
AcDbEntity
  8
0
 62
7
100
AcDbPolyline
 90
3
 70
1
 10
753.378901
 20
215.087428
 30
0.0
 10
753.378901
 20
175.394101
 30
0.0
 10
753.378901
 20
215.087428
 30
0.0
  0
LWPOLYLINE
  5
1e8
100
AcDbEntity
  8
0
 62
7
100
AcDbPolyline
 90
3
 70
1
 10
713.694061
 20
215.087428
 30
0.0
 10
753.378901
 20
215.087428
 30
0.0
 10
713.694061
 20
215.087428
 30
0.0
  0
LWPOLYLINE
  5
1e9
100
AcDbEntity
  8
0
 62
7
100
AcDbPolyline
 90
3
 70
1
 10
228.973001
 20
175.396888
 30
0.0
 10
228.973001
 20
215.082731
 30
0.0
 10
228.973001
 20
175.396888
 30
0.0
  0
LWPOLYLINE
  5
1ea
100
AcDbEntity
  8
0
 62
7
100
AcDbPolyline
 90
3
 70
1
 10
268.658844
 20
175.396888
 30
0.0
 10
228.973001
 20
175.396888
 30
0.0
 10
268.658844
 20
175.396888
 30
0.0
  0
LWPOLYLINE
  5
1eb
100
AcDbEntity
  8
0
 62
7
100
AcDbPolyline
 90
3
 70
1
 10
268.658844
 20
215.082731
 30
0.0
 10
268.658844
 20
175.396888
 30
0.0
 10
268.658844
 20
215.082731
 30
0.0
  0
LWPOLYLINE
  5
1ec
100
AcDbEntity
  8
0
 62
7
100
AcDbPolyline
 90
3
 70
1
 10
228.973001
 20
215.082731
 30
0.0
 10
268.658844
 20
215.082731
 30
0.0
 10
228.973001
 20
215.082731
 30
0.0
  0
LWPOLYLINE
  5
1ed
100
AcDbEntity
  8
0
 62
7
100
AcDbPolyline
 90
3
 70
1
 10
740.736734
 20
229.538374
 30
0.0
 10
740.736734
 20
269.224275
 30
0.0
 10
740.736734
 20
229.538374
 30
0.0
  0
LWPOLYLINE
  5
1ee
100
AcDbEntity
  8
0
 62
7
100
AcDbPolyline
 90
3
 70
1
 10
780.421575
 20
229.538374
 30
0.0
 10
740.736734
 20
229.538374
 30
0.0
 10
780.421575
 20
229.538374
 30
0.0
  0
LWPOLYLINE
  5
1ef
100
AcDbEntity
  8
0
 62
7
100
AcDbPolyline
 90
3
 70
1
 10
780.421575
 20
269.224275
 30
0.0
 10
780.421575
 20
229.538374
 30
0.0
 10
780.421575
 20
269.224275
 30
0.0
  0
LWPOLYLINE
  5
1f0
100
AcDbEntity
  8
0
 62
7
100
AcDbPolyline
 90
3
 70
1
 10
740.736734
 20
269.224275
 30
0.0
 10
780.421575
 20
269.224275
 30
0.0
 10
740.736734
 20
269.224275
 30
0.0
  0
LWPOLYLINE
  5
1f1
100
AcDbEntity
  8
0
 62
7
100
AcDbPolyline
 90
3
 70
1
 10
659.837681
 20
175.396888
 30
0.0
 10
659.837681
 20
215.082731
 30
0.0
 10
659.837681
 20
175.396888
 30
0.0
  0
LWPOLYLINE
  5
1f2
100
AcDbEntity
  8
0
 62
7
100
AcDbPolyline
 90
3
 70
1
 10
699.522464
 20
175.396888
 30
0.0
 10
659.837681
 20
175.396888
 30
0.0
 10
699.522464
 20
175.396888
 30
0.0
  0
LWPOLYLINE
  5
1f3
100
AcDbEntity
  8
0
 62
7
100
AcDbPolyline
 90
3
 70
1
 10
699.522464
 20
215.082731
 30
0.0
 10
699.522464
 20
175.396888
 30
0.0
 10
699.522464
 20
215.082731
 30
0.0
  0
LWPOLYLINE
  5
1f4
100
AcDbEntity
  8
0
 62
7
100
AcDbPolyline
 90
3
 70
1
 10
659.837681
 20
215.082731
 30
0.0
 10
699.522464
 20
215.082731
 30
0.0
 10
659.837681
 20
215.082731
 30
0.0
  0
LWPOLYLINE
  5
1f5
100
AcDbEntity
  8
0
 62
7
100
AcDbPolyline
 90
3
 70
1
 10
242.523920
 20
121.339615
 30
0.0
 10
242.523920
 20
161.024398
 30
0.0
 10
242.523920
 20
121.339615
 30
0.0
  0
LWPOLYLINE
  5
1f6
100
AcDbEntity
  8
0
 62
7
100
AcDbPolyline
 90
3
 70
1
 10
282.208703
 20
121.339615
 30
0.0
 10
242.523920
 20
121.339615
 30
0.0
 10
282.208703
 20
121.339615
 30
0.0
  0
LWPOLYLINE
  5
1f7
100
AcDbEntity
  8
0
 62
7
100
AcDbPolyline
 90
3
 70
1
 10
282.208703
 20
161.024398
 30
0.0
 10
282.208703
 20
121.339615
 30
0.0
 10
282.208703
 20
161.024398
 30
0.0
  0
LWPOLYLINE
  5
1f8
100
AcDbEntity
  8
0
 62
7
100
AcDbPolyline
 90
3
 70
1
 10
242.523920
 20
161.024398
 30
0.0
 10
282.208703
 20
161.024398
 30
0.0
 10
242.523920
 20
161.024398
 30
0.0
  0
LWPOLYLINE
  5
1f9
100
AcDbEntity
  8
0
 62
7
100
AcDbPolyline
 90
3
 70
1
 10
787.911343
 20
161.024398
 30
0.0
 10
827.597187
 20
161.024398
 30
0.0
 10
787.911343
 20
161.024398
 30
0.0
  0
LWPOLYLINE
  5
1fa
100
AcDbEntity
  8
0
 62
7
100
AcDbPolyline
 90
3
 70
1
 10
827.597187
 20
161.024398
 30
0.0
 10
827.597187
 20
121.339615
 30
0.0
 10
827.597187
 20
161.024398
 30
0.0
  0
LWPOLYLINE
  5
1fb
100
AcDbEntity
  8
0
 62
7
100
AcDbPolyline
 90
3
 70
1
 10
827.597187
 20
121.339615
 30
0.0
 10
787.911343
 20
121.339615
 30
0.0
 10
827.597187
 20
121.339615
 30
0.0
  0
LWPOLYLINE
  5
1fc
100
AcDbEntity
  8
0
 62
7
100
AcDbPolyline
 90
3
 70
1
 10
787.911343
 20
121.339615
 30
0.0
 10
787.911343
 20
161.024398
 30
0.0
 10
787.911343
 20
121.339615
 30
0.0
  0
LWPOLYLINE
  5
1fd
100
AcDbEntity
  8
0
 62
7
100
AcDbPolyline
 90
3
 70
1
 10
538.632082
 20
67.195472
 30
0.0
 10
538.632082
 20
106.880254
 30
0.0
 10
538.632082
 20
67.195472
 30
0.0
  0
LWPOLYLINE
  5
1fe
100
AcDbEntity
  8
0
 62
7
100
AcDbPolyline
 90
3
 70
1
 10
578.316865
 20
67.195472
 30
0.0
 10
538.632082
 20
67.195472
 30
0.0
 10
578.316865
 20
67.195472
 30
0.0
  0
LWPOLYLINE
  5
1ff
100
AcDbEntity
  8
0
 62
7
100
AcDbPolyline
 90
3
 70
1
 10
578.316865
 20
106.880254
 30
0.0
 10
578.316865
 20
67.195472
 30
0.0
 10
578.316865
 20
106.880254
 30
0.0
  0
LWPOLYLINE
  5
200
100
AcDbEntity
  8
0
 62
7
100
AcDbPolyline
 90
3
 70
1
 10
538.632082
 20
106.880254
 30
0.0
 10
578.316865
 20
106.880254
 30
0.0
 10
538.632082
 20
106.880254
 30
0.0
  0
LWPOLYLINE
  5
201
100
AcDbEntity
  8
0
 62
7
100
AcDbPolyline
 90
3
 70
1
 10
269.337252
 20
67.195472
 30
0.0
 10
269.337252
 20
106.880254
 30
0.0
 10
269.337252
 20
67.195472
 30
0.0
  0
LWPOLYLINE
  5
202
100
AcDbEntity
  8
0
 62
7
100
AcDbPolyline
 90
3
 70
1
 10
309.022034
 20
67.195472
 30
0.0
 10
269.337252
 20
67.195472
 30
0.0
 10
309.022034
 20
67.195472
 30
0.0
  0
LWPOLYLINE
  5
203
100
AcDbEntity
  8
0
 62
7
100
AcDbPolyline
 90
3
 70
1
 10
309.022034
 20
106.880254
 30
0.0
 10
309.022034
 20
67.195472
 30
0.0
 10
309.022034
 20
106.880254
 30
0.0
  0
LWPOLYLINE
  5
204
100
AcDbEntity
  8
0
 62
7
100
AcDbPolyline
 90
3
 70
1
 10
269.337252
 20
106.880254
 30
0.0
 10
309.022034
 20
106.880254
 30
0.0
 10
269.337252
 20
106.880254
 30
0.0
  0
LWPOLYLINE
  5
205
100
AcDbEntity
  8
0
 62
7
100
AcDbPolyline
 90
3
 70
1
 10
794.600563
 20
229.541332
 30
0.0
 10
794.600563
 20
269.219751
 30
0.0
 10
794.600563
 20
229.541332
 30
0.0
  0
LWPOLYLINE
  5
206
100
AcDbEntity
  8
0
 62
7
100
AcDbPolyline
 90
3
 70
1
 10
834.286406
 20
229.541332
 30
0.0
 10
794.600563
 20
229.541332
 30
0.0
 10
834.286406
 20
229.541332
 30
0.0
  0
LWPOLYLINE
  5
207
100
AcDbEntity
  8
0
 62
7
100
AcDbPolyline
 90
3
 70
1
 10
834.286406
 20
269.219751
 30
0.0
 10
834.286406
 20
229.541332
 30
0.0
 10
834.286406
 20
269.219751
 30
0.0
  0
LWPOLYLINE
  5
208
100
AcDbEntity
  8
0
 62
7
100
AcDbPolyline
 90
3
 70
1
 10
794.600563
 20
269.219751
 30
0.0
 10
834.286406
 20
269.219751
 30
0.0
 10
794.600563
 20
269.219751
 30
0.0
  0
LWPOLYLINE
  5
209
100
AcDbEntity
  8
0
 62
7
100
AcDbPolyline
 90
3
 70
1
 10
377.056869
 20
67.195472
 30
0.0
 10
377.056869
 20
106.880254
 30
0.0
 10
377.056869
 20
67.195472
 30
0.0
  0
LWPOLYLINE
  5
20a
100
AcDbEntity
  8
0
 62
7
100
AcDbPolyline
 90
3
 70
1
 10
416.741651
 20
67.195472
 30
0.0
 10
377.056869
 20
67.195472
 30
0.0
 10
416.741651
 20
67.195472
 30
0.0
  0
LWPOLYLINE
  5
20b
100
AcDbEntity
  8
0
 62
7
100
AcDbPolyline
 90
3
 70
1
 10
416.741651
 20
106.880254
 30
0.0
 10
416.741651
 20
67.195472
 30
0.0
 10
416.741651
 20
106.880254
 30
0.0
  0
LWPOLYLINE
  5
20c
100
AcDbEntity
  8
0
 62
7
100
AcDbPolyline
 90
3
 70
1
 10
377.056869
 20
106.880254
 30
0.0
 10
416.741651
 20
106.880254
 30
0.0
 10
377.056869
 20
106.880254
 30
0.0
  0
LWPOLYLINE
  5
20d
100
AcDbEntity
  8
0
 62
7
100
AcDbPolyline
 90
3
 70
1
 10
134.804303
 20
121.339615
 30
0.0
 10
134.804303
 20
161.024398
 30
0.0
 10
134.804303
 20
121.339615
 30
0.0
  0
LWPOLYLINE
  5
20e
100
AcDbEntity
  8
0
 62
7
100
AcDbPolyline
 90
3
 70
1
 10
174.489086
 20
121.339615
 30
0.0
 10
134.804303
 20
121.339615
 30
0.0
 10
174.489086
 20
121.339615
 30
0.0
  0
LWPOLYLINE
  5
20f
100
AcDbEntity
  8
0
 62
7
100
AcDbPolyline
 90
3
 70
1
 10
174.489086
 20
161.024398
 30
0.0
 10
174.489086
 20
121.339615
 30
0.0
 10
174.489086
 20
161.024398
 30
0.0
  0
LWPOLYLINE
  5
210
100
AcDbEntity
  8
0
 62
7
100
AcDbPolyline
 90
3
 70
1
 10
134.804303
 20
161.024398
 30
0.0
 10
174.489086
 20
161.024398
 30
0.0
 10
134.804303
 20
161.024398
 30
0.0
  0
LWPOLYLINE
  5
211
100
AcDbEntity
  8
0
 62
7
100
AcDbPolyline
 90
3
 70
1
 10
525.304733
 20
229.541332
 30
0.0
 10
525.304733
 20
269.219751
 30
0.0
 10
525.304733
 20
229.541332
 30
0.0
  0
LWPOLYLINE
  5
212
100
AcDbEntity
  8
0
 62
7
100
AcDbPolyline
 90
3
 70
1
 10
564.989515
 20
229.541332
 30
0.0
 10
525.304733
 20
229.541332
 30
0.0
 10
564.989515
 20
229.541332
 30
0.0
  0
LWPOLYLINE
  5
213
100
AcDbEntity
  8
0
 62
7
100
AcDbPolyline
 90
3
 70
1
 10
564.989515
 20
269.219751
 30
0.0
 10
564.989515
 20
229.541332
 30
0.0
 10
564.989515
 20
269.219751
 30
0.0
  0
LWPOLYLINE
  5
214
100
AcDbEntity
  8
0
 62
7
100
AcDbPolyline
 90
3
 70
1
 10
525.304733
 20
269.219751
 30
0.0
 10
564.989515
 20
269.219751
 30
0.0
 10
525.304733
 20
269.219751
 30
0.0
  0
LWPOLYLINE
  5
215
100
AcDbEntity
  8
0
 62
7
100
AcDbPolyline
 90
3
 70
1
 10
471.449136
 20
229.541332
 30
0.0
 10
471.449136
 20
269.219751
 30
0.0
 10
471.449136
 20
229.541332
 30
0.0
  0
LWPOLYLINE
  5
216
100
AcDbEntity
  8
0
 62
7
100
AcDbPolyline
 90
3
 70
1
 10
511.133919
 20
229.541332
 30
0.0
 10
471.449136
 20
229.541332
 30
0.0
 10
511.133919
 20
229.541332
 30
0.0
  0
LWPOLYLINE
  5
217
100
AcDbEntity
  8
0
 62
7
100
AcDbPolyline
 90
3
 70
1
 10
511.133919
 20
269.219751
 30
0.0
 10
511.133919
 20
229.541332
 30
0.0
 10
511.133919
 20
269.219751
 30
0.0
  0
LWPOLYLINE
  5
218
100
AcDbEntity
  8
0
 62
7
100
AcDbPolyline
 90
3
 70
1
 10
471.449136
 20
269.219751
 30
0.0
 10
511.133919
 20
269.219751
 30
0.0
 10
471.449136
 20
269.219751
 30
0.0
  0
LWPOLYLINE
  5
219
100
AcDbEntity
  8
0
 62
7
100
AcDbPolyline
 90
3
 70
1
 10
417.586677
 20
229.538374
 30
0.0
 10
417.586677
 20
269.224275
 30
0.0
 10
417.586677
 20
229.538374
 30
0.0
  0
LWPOLYLINE
  5
21a
100
AcDbEntity
  8
0
 62
7
100
AcDbPolyline
 90
3
 70
1
 10
457.271518
 20
229.538374
 30
0.0
 10
417.586677
 20
229.538374
 30
0.0
 10
457.271518
 20
229.538374
 30
0.0
  0
LWPOLYLINE
  5
21b
100
AcDbEntity
  8
0
 62
7
100
AcDbPolyline
 90
3
 70
1
 10
457.271518
 20
269.224275
 30
0.0
 10
457.271518
 20
229.538374
 30
0.0
 10
457.271518
 20
269.224275
 30
0.0
  0
LWPOLYLINE
  5
21c
100
AcDbEntity
  8
0
 62
7
100
AcDbPolyline
 90
3
 70
1
 10
417.586677
 20
269.224275
 30
0.0
 10
457.271518
 20
269.224275
 30
0.0
 10
417.586677
 20
269.224275
 30
0.0
  0
LWPOLYLINE
  5
21d
100
AcDbEntity
  8
0
 62
7
100
AcDbPolyline
 90
3
 70
1
 10
363.729519
 20
229.541332
 30
0.0
 10
363.729519
 20
269.219751
 30
0.0
 10
363.729519
 20
229.541332
 30
0.0
  0
LWPOLYLINE
  5
21e
100
AcDbEntity
  8
0
 62
7
100
AcDbPolyline
 90
3
 70
1
 10
403.414302
 20
229.541332
 30
0.0
 10
363.729519
 20
229.541332
 30
0.0
 10
403.414302
 20
229.541332
 30
0.0
  0
LWPOLYLINE
  5
21f
100
AcDbEntity
  8
0
 62
7
100
AcDbPolyline
 90
3
 70
1
 10
403.414302
 20
269.219751
 30
0.0
 10
403.414302
 20
229.541332
 30
0.0
 10
403.414302
 20
269.219751
 30
0.0
  0
LWPOLYLINE
  5
220
100
AcDbEntity
  8
0
 62
7
100
AcDbPolyline
 90
3
 70
1
 10
363.729519
 20
269.219751
 30
0.0
 10
403.414302
 20
269.219751
 30
0.0
 10
363.729519
 20
269.219751
 30
0.0
  0
LWPOLYLINE
  5
221
100
AcDbEntity
  8
0
 62
7
100
AcDbPolyline
 90
3
 70
1
 10
309.872923
 20
229.541332
 30
0.0
 10
309.872923
 20
269.219751
 30
0.0
 10
309.872923
 20
229.541332
 30
0.0
  0
LWPOLYLINE
  5
222
100
AcDbEntity
  8
0
 62
7
100
AcDbPolyline
 90
3
 70
1
 10
349.557705
 20
229.541332
 30
0.0
 10
309.872923
 20
229.541332
 30
0.0
 10
349.557705
 20
229.541332
 30
0.0
  0
LWPOLYLINE
  5
223
100
AcDbEntity
  8
0
 62
7
100
AcDbPolyline
 90
3
 70
1
 10
349.557705
 20
269.219751
 30
0.0
 10
349.557705
 20
229.541332
 30
0.0
 10
349.557705
 20
269.219751
 30
0.0
  0
LWPOLYLINE
  5
224
100
AcDbEntity
  8
0
 62
7
100
AcDbPolyline
 90
3
 70
1
 10
309.872923
 20
269.219751
 30
0.0
 10
349.557705
 20
269.219751
 30
0.0
 10
309.872923
 20
269.219751
 30
0.0
  0
LWPOLYLINE
  5
225
100
AcDbEntity
  8
0
 62
7
100
AcDbPolyline
 90
3
 70
1
 10
256.017326
 20
229.541332
 30
0.0
 10
256.017326
 20
269.219751
 30
0.0
 10
256.017326
 20
229.541332
 30
0.0
  0
LWPOLYLINE
  5
226
100
AcDbEntity
  8
0
 62
7
100
AcDbPolyline
 90
3
 70
1
 10
295.702109
 20
229.541332
 30
0.0
 10
256.017326
 20
229.541332
 30
0.0
 10
295.702109
 20
229.541332
 30
0.0
  0
LWPOLYLINE
  5
227
100
AcDbEntity
  8
0
 62
7
100
AcDbPolyline
 90
3
 70
1
 10
295.702109
 20
269.219751
 30
0.0
 10
295.702109
 20
229.541332
 30
0.0
 10
295.702109
 20
269.219751
 30
0.0
  0
LWPOLYLINE
  5
228
100
AcDbEntity
  8
0
 62
7
100
AcDbPolyline
 90
3
 70
1
 10
256.017326
 20
269.219751
 30
0.0
 10
295.702109
 20
269.219751
 30
0.0
 10
256.017326
 20
269.219751
 30
0.0
  0
LWPOLYLINE
  5
229
100
AcDbEntity
  8
0
 62
7
100
AcDbPolyline
 90
3
 70
1
 10
202.152245
 20
229.541332
 30
0.0
 10
202.152245
 20
269.219751
 30
0.0
 10
202.152245
 20
229.541332
 30
0.0
  0
LWPOLYLINE
  5
22a
100
AcDbEntity
  8
0
 62
7
100
AcDbPolyline
 90
3
 70
1
 10
241.838088
 20
229.541332
 30
0.0
 10
202.152245
 20
229.541332
 30
0.0
 10
241.838088
 20
229.541332
 30
0.0
  0
LWPOLYLINE
  5
22b
100
AcDbEntity
  8
0
 62
7
100
AcDbPolyline
 90
3
 70
1
 10
241.838088
 20
269.219751
 30
0.0
 10
241.838088
 20
229.541332
 30
0.0
 10
241.838088
 20
269.219751
 30
0.0
  0
LWPOLYLINE
  5
22c
100
AcDbEntity
  8
0
 62
7
100
AcDbPolyline
 90
3
 70
1
 10
202.152245
 20
269.219751
 30
0.0
 10
241.838088
 20
269.219751
 30
0.0
 10
202.152245
 20
269.219751
 30
0.0
  0
LWPOLYLINE
  5
22d
100
AcDbEntity
  8
0
 62
7
100
AcDbPolyline
 90
3
 70
1
 10
148.296649
 20
229.541332
 30
0.0
 10
148.296649
 20
269.219751
 30
0.0
 10
148.296649
 20
229.541332
 30
0.0
  0
LWPOLYLINE
  5
22e
100
AcDbEntity
  8
0
 62
7
100
AcDbPolyline
 90
3
 70
1
 10
187.982492
 20
229.541332
 30
0.0
 10
148.296649
 20
229.541332
 30
0.0
 10
187.982492
 20
229.541332
 30
0.0
  0
LWPOLYLINE
  5
22f
100
AcDbEntity
  8
0
 62
7
100
AcDbPolyline
 90
3
 70
1
 10
187.982492
 20
269.219751
 30
0.0
 10
187.982492
 20
229.541332
 30
0.0
 10
187.982492
 20
269.219751
 30
0.0
  0
LWPOLYLINE
  5
230
100
AcDbEntity
  8
0
 62
7
100
AcDbPolyline
 90
3
 70
1
 10
148.296649
 20
269.219751
 30
0.0
 10
187.982492
 20
269.219751
 30
0.0
 10
148.296649
 20
269.219751
 30
0.0
  0
LWPOLYLINE
  5
231
100
AcDbEntity
  8
0
 62
7
100
AcDbPolyline
 90
3
 70
1
 10
94.440052
 20
229.541332
 30
0.0
 10
94.440052
 20
269.219751
 30
0.0
 10
94.440052
 20
229.541332
 30
0.0
  0
LWPOLYLINE
  5
232
100
AcDbEntity
  8
0
 62
7
100
AcDbPolyline
 90
3
 70
1
 10
134.125895
 20
229.541332
 30
0.0
 10
94.440052
 20
229.541332
 30
0.0
 10
134.125895
 20
229.541332
 30
0.0
  0
LWPOLYLINE
  5
233
100
AcDbEntity
  8
0
 62
7
100
AcDbPolyline
 90
3
 70
1
 10
134.125895
 20
269.219751
 30
0.0
 10
134.125895
 20
229.541332
 30
0.0
 10
134.125895
 20
269.219751
 30
0.0
  0
LWPOLYLINE
  5
234
100
AcDbEntity
  8
0
 62
7
100
AcDbPolyline
 90
3
 70
1
 10
94.440052
 20
269.219751
 30
0.0
 10
134.125895
 20
269.219751
 30
0.0
 10
94.440052
 20
269.219751
 30
0.0
  0
LWPOLYLINE
  5
235
100
AcDbEntity
  8
0
 62
7
100
AcDbPolyline
 90
3
 70
1
 10
579.162206
 20
229.538374
 30
0.0
 10
579.162206
 20
269.224275
 30
0.0
 10
579.162206
 20
229.538374
 30
0.0
  0
LWPOLYLINE
  5
236
100
AcDbEntity
  8
0
 62
7
100
AcDbPolyline
 90
3
 70
1
 10
618.847047
 20
229.538374
 30
0.0
 10
579.162206
 20
229.538374
 30
0.0
 10
618.847047
 20
229.538374
 30
0.0
  0
LWPOLYLINE
  5
237
100
AcDbEntity
  8
0
 62
7
100
AcDbPolyline
 90
3
 70
1
 10
618.847047
 20
269.224275
 30
0.0
 10
618.847047
 20
229.538374
 30
0.0
 10
618.847047
 20
269.224275
 30
0.0
  0
SPLINE
  5
238
100
AcDbEntity
  8
0
 62
7
100
AcDbSpline
 70
8
 71
3
 72
8
 73
4
 74
0
 40
0
 40
0
 40
0
 40
0
 40
1
 40
1
 40
1
 40
1
 10
2.862600
 20
285.022018
 30
0.0
 10
2.862600
 20
289.717577
 30
0.0
 10
6.668600
 20
293.524524
 30
0.0
 10
11.365600
 20
293.526952
 30
0.0
  0
SPLINE
  5
239
100
AcDbEntity
  8
0
 62
7
100
AcDbSpline
 70
8
 71
3
 72
8
 73
4
 74
0
 40
0
 40
0
 40
0
 40
0
 40
1
 40
1
 40
1
 40
1
 10
11.365600
 20
293.526952
 30
0.0
 10
65.887600
 20
293.526952
 30
0.0
 10
365.243600
 20
293.526952
 30
0.0
 10
400.774600
 20
293.531808
 30
0.0
  0
SPLINE
  5
23a
100
AcDbEntity
  8
0
 62
7
100
AcDbSpline
 70
8
 71
3
 72
8
 73
4
 74
0
 40
0
 40
0
 40
0
 40
0
 40
1
 40
1
 40
1
 40
1
 10
400.774600
 20
293.531808
 30
0.0
 10
403.003600
 20
293.551231
 30
0.0
 10
405.134600
 20
294.447126
 30
0.0
 10
406.710600
 20
296.025261
 30
0.0
  0
SPLINE
  5
23b
100
AcDbEntity
  8
0
 62
7
100
AcDbSpline
 70
8
 71
3
 72
8
 73
4
 74
0
 40
0
 40
0
 40
0
 40
0
 40
1
 40
1
 40
1
 40
1
 10
406.710600
 20
296.025261
 30
0.0
 10
417.860600
 20
307.183889
 30
0.0
 10
463.143600
 20
352.507927
 30
0.0
 10
474.296600
 20
363.671411
 30
0.0
  0
SPLINE
  5
23c
100
AcDbEntity
  8
0
 62
7
100
AcDbSpline
 70
8
 71
3
 72
8
 73
4
 74
0
 40
0
 40
0
 40
0
 40
0
 40
1
 40
1
 40
1
 40
1
 10
474.296600
 20
363.671411
 30
0.0
 10
475.891600
 20
365.268969
 30
0.0
 10
478.055600
 20
366.164864
 30
0.0
 10
480.311600
 20
366.164864
 30
0.0
  0
SPLINE
  5
23d
100
AcDbEntity
  8
0
 62
7
100
AcDbSpline
 70
8
 71
3
 72
8
 73
4
 74
0
 40
0
 40
0
 40
0
 40
0
 40
1
 40
1
 40
1
 40
1
 10
480.311600
 20
366.164864
 30
0.0
 10
515.983600
 20
366.164864
 30
0.0
 10
811.508600
 20
366.164864
 30
0.0
 10
865.656600
 20
366.164864
 30
0.0
  0
SPLINE
  5
23e
100
AcDbEntity
  8
0
 62
7
100
AcDbSpline
 70
8
 71
3
 72
8
 73
4
 74
0
 40
0
 40
0
 40
0
 40
0
 40
1
 40
1
 40
1
 40
1
 10
865.656600
 20
366.164864
 30
0.0
 10
870.353600
 20
366.164864
 30
0.0
 10
874.160600
 20
362.357917
 30
0.0
 10
874.160600
 20
357.662358
 30
0.0
  0
SPLINE
  5
23f
100
AcDbEntity
  8
0
 62
7
100
AcDbSpline
 70
8
 71
3
 72
8
 73
4
 74
0
 40
0
 40
0
 40
0
 40
0
 40
1
 40
1
 40
1
 40
1
 10
874.160600
 20
357.662358
 30
0.0
 10
874.160600
 20
309.951695
 30
0.0
 10
874.160600
 20
75.987112
 30
0.0
 10
874.160600
 20
28.276449
 30
0.0
  0
SPLINE
  5
240
100
AcDbEntity
  8
0
 62
7
100
AcDbSpline
 70
8
 71
3
 72
8
 73
4
 74
0
 40
0
 40
0
 40
0
 40
0
 40
1
 40
1
 40
1
 40
1
 10
874.160600
 20
28.276449
 30
0.0
 10
874.160600
 20
26.020930
 30
0.0
 10
873.264600
 20
23.857671
 30
0.0
 10
871.670600
 20
22.262541
 30
0.0
  0
SPLINE
  5
241
100
AcDbEntity
  8
0
 62
7
100
AcDbSpline
 70
8
 71
3
 72
8
 73
4
 74
0
 40
0
 40
0
 40
0
 40
0
 40
1
 40
1
 40
1
 40
1
 10
871.670600
 20
22.262541
 30
0.0
 10
870.075600
 20
20.667410
 30
0.0
 10
867.912600
 20
19.771515
 30
0.0
 10
865.656600
 20
19.771515
 30
0.0
  0
SPLINE
  5
242
100
AcDbEntity
  8
0
 62
7
100
AcDbSpline
 70
8
 71
3
 72
8
 73
4
 74
0
 40
0
 40
0
 40
0
 40
0
 40
1
 40
1
 40
1
 40
1
 10
865.656600
 20
19.771515
 30
0.0
 10
843.855600
 20
19.773943
 30
0.0
 10
786.261600
 20
19.773943
 30
0.0
 10
765.935600
 20
19.773943
 30
0.0
  0
SPLINE
  5
243
100
AcDbEntity
  8
0
 62
7
100
AcDbSpline
 70
8
 71
3
 72
8
 73
4
 74
0
 40
0
 40
0
 40
0
 40
0
 40
1
 40
1
 40
1
 40
1
 10
765.935600
 20
19.773943
 30
0.0
 10
761.937600
 20
19.773943
 30
0.0
 10
758.690600
 20
16.544836
 30
0.0
 10
758.669600
 20
12.546085
 30
0.0
  0
LWPOLYLINE
  5
244
100
AcDbEntity
  8
0
 62
7
100
AcDbPolyline
 90
3
 70
1
 10
579.162206
 20
269.224275
 30
0.0
 10
618.847047
 20
269.224275
 30
0.0
 10
579.162206
 20
269.224275
 30
0.0
  0
SPLINE
  5
245
100
AcDbEntity
  8
0
 62
7
100
AcDbSpline
 70
8
 71
3
 72
8
 73
4
 74
0
 40
0
 40
0
 40
0
 40
0
 40
1
 40
1
 40
1
 40
1
 10
758.669600
 20
12.543657
 30
0.0
 10
758.648600
 20
8.547334
 30
0.0
 10
755.401600
 20
5.315799
 30
0.0
 10
751.403600
 20
5.315799
 30
0.0
  0
SPLINE
  5
246
100
AcDbEntity
  8
0
 62
7
100
AcDbSpline
 70
8
 71
3
 72
8
 73
4
 74
0
 40
0
 40
0
 40
0
 40
0
 40
1
 40
1
 40
1
 40
1
 10
751.403600
 20
5.315799
 30
0.0
 10
685.362600
 20
5.315799
 30
0.0
 10
187.549600
 20
5.315799
 30
0.0
 10
121.506600
 20
5.315799
 30
0.0
  0
SPLINE
  5
247
100
AcDbEntity
  8
0
 62
7
100
AcDbSpline
 70
8
 71
3
 72
8
 73
4
 74
0
 40
0
 40
0
 40
0
 40
0
 40
1
 40
1
 40
1
 40
1
 10
121.506600
 20
5.315799
 30
0.0
 10
119.589600
 20
5.315799
 30
0.0
 10
117.750600
 20
6.078159
 30
0.0
 10
116.395600
 20
7.432928
 30
0.0
  0
SPLINE
  5
248
100
AcDbEntity
  8
0
 62
7
100
AcDbSpline
 70
8
 71
3
 72
8
 73
4
 74
0
 40
0
 40
0
 40
0
 40
0
 40
1
 40
1
 40
1
 40
1
 10
116.395600
 20
7.432928
 30
0.0
 10
115.039600
 20
8.790124
 30
0.0
 10
114.278600
 20
10.628044
 30
0.0
 10
114.278600
 20
12.543657
 30
0.0
  0
LWPOLYLINE
  5
249
100
AcDbEntity
  8
0
 62
7
100
AcDbPolyline
 90
2
 70
0
 10
758.669600
 20
12.546085
 30
0.0
 10
758.669600
 20
12.543657
 30
0.0
  0
SPLINE
  5
24a
100
AcDbEntity
  8
0
 62
7
100
AcDbSpline
 70
8
 71
3
 72
8
 73
4
 74
0
 40
0
 40
0
 40
0
 40
0
 40
1
 40
1
 40
1
 40
1
 10
114.278600
 20
12.546085
 30
0.0
 10
114.278600
 20
14.461698
 30
0.0
 10
113.516600
 20
16.302046
 30
0.0
 10
112.161600
 20
17.656814
 30
0.0
  0
SPLINE
  5
24b
100
AcDbEntity
  8
0
 62
7
100
AcDbSpline
 70
8
 71
3
 72
8
 73
4
 74
0
 40
0
 40
0
 40
0
 40
0
 40
1
 40
1
 40
1
 40
1
 10
112.161600
 20
17.656814
 30
0.0
 10
110.805600
 20
19.011583
 30
0.0
 10
108.967600
 20
19.773943
 30
0.0
 10
107.050600
 20
19.773943
 30
0.0
  0
SPLINE
  5
24c
100
AcDbEntity
  8
0
 62
7
100
AcDbSpline
 70
8
 71
3
 72
8
 73
4
 74
0
 40
0
 40
0
 40
0
 40
0
 40
1
 40
1
 40
1
 40
1
 10
107.050600
 20
19.773943
 30
0.0
 10
87.309600
 20
19.773943
 30
0.0
 10
32.546600
 20
19.773943
 30
0.0
 10
11.380600
 20
19.773943
 30
0.0
  0
SPLINE
  5
24d
100
AcDbEntity
  8
0
 62
7
100
AcDbSpline
 70
8
 71
3
 72
8
 73
4
 74
0
 40
0
 40
0
 40
0
 40
0
 40
1
 40
1
 40
1
 40
1
 10
11.380600
 20
19.773943
 30
0.0
 10
6.683600
 20
19.773943
 30
0.0
 10
2.876600
 20
23.580890
 30
0.0
 10
2.876600
 20
28.276449
 30
0.0
  0
SPLINE
  5
24e
100
AcDbEntity
  8
0
 62
7
100
AcDbSpline
 70
8
 71
3
 72
8
 73
4
 74
0
 40
0
 40
0
 40
0
 40
0
 40
1
 40
1
 40
1
 40
1
 10
2.876600
 20
28.276449
 30
0.0
 10
2.874600
 20
69.050602
 30
0.0
 10
2.864600
 20
244.245438
 30
0.0
 10
2.862600
 20
285.022018
 30
0.0
  0
LWPOLYLINE
  5
24f
100
AcDbEntity
  8
0
 62
7
100
AcDbPolyline
 90
2
 70
0
 10
114.278600
 20
12.543657
 30
0.0
 10
114.278600
 20
12.546085
 30
0.0
  0
LWPOLYLINE
  5
250
100
AcDbEntity
  8
0
 62
7
100
AcDbPolyline
 90
1
 70
1
 10
2.862600
 20
285.022018
 30
0.0
  0
ENDSEC
  0
SECTION
  2
OBJECTS
  0
DICTIONARY
  5
C
330
0
100
AcDbDictionary
  3
ACAD_GROUP
350
D
  3
ACAD_MLINESTYLE
350
17
  0
DICTIONARY
  5
D
330
C
100
AcDbDictionary
  0
DICTIONARY
  5
1A
330
C
100
AcDbDictionary
  0
DICTIONARY
  5
17
330
C
100
AcDbDictionary
  3
STANDARD
350
18
  0
DICTIONARY
  5
19
330
C
100
AcDbDictionary
  0
ENDSEC
  0
EOF
