  0
SECTION
  2
HEADER
  9
$ACADVER
  1
AC1009
  9
$EXTMIN
 10
0.0
 20
0.0
 30
0.0
  9
$EXTMAX
 10
1000.0
 20
1000.0
 30
0.0
  9
$FILLMODE
 70
 0
  9
$SPLFRAME
 70
 1
  0
ENDSEC
  0
SECTION
  2
TABLES
  0
TABLE
  2
LAYER
 70
1
  0
LAYER
  2
0
 70
     0
 62
     7
  6
CONTINUOUS
  0
ENDTAB
  0
ENDSEC
  0
SECTION
  2
ENTITIES
  0
LINE
  8
0
 62
     0
 10
0.0950846
 20
19.3077
 30
0.0
 11
171.545
 21
19.3077
 31
0.0
  0
LINE
  8
0
 62
     0
 10
171.545
 20
19.3077
 30
0.0
 11
171.545
 21
0.257693
 31
0.0
  0
LINE
  8
0
 62
     0
 10
171.545
 20
0.257693
 30
0.0
 11
0.0950846
 21
0.257693
 31
0.0
  0
LINE
  8
0
 62
     0
 10
0.0950846
 20
0.257693
 30
0.0
 11
0.0950846
 21
19.3077
 31
0.0
  0
LINE
  8
0
 62
     0
 10
7.38216
 20
16.7831
 30
0.0
 11
7.38216
 21
16.1837
 31
0.0
  0
LINE
  8
0
 62
     0
 10
7.38216
 20
16.1837
 30
0.0
 11
6.58153
 21
16.1837
 31
0.0
  0
LINE
  8
0
 62
     0
 10
6.58153
 20
16.1837
 30
0.0
 11
6.58153
 21
3.38308
 31
0.0
  0
LINE
  8
0
 62
     0
 10
6.58153
 20
3.38308
 30
0.0
 11
7.38216
 21
3.38308
 31
0.0
  0
LINE
  8
0
 62
     0
 10
7.38216
 20
3.38308
 30
0.0
 11
7.38216
 21
2.78364
 31
0.0
  0
LINE
  8
0
 62
     0
 10
7.38216
 20
2.78364
 30
0.0
 11
17.4928
 21
2.78364
 31
0.0
  0
LINE
  8
0
 62
     0
 10
17.4928
 20
2.78364
 30
0.0
 11
17.4928
 21
2.03261
 31
0.0
  0
LINE
  8
0
 62
     0
 10
17.4928
 20
2.03261
 30
0.0
 11
20.7946
 21
2.03261
 31
0.0
  0
LINE
  8
0
 62
     0
 10
20.7946
 20
2.03261
 30
0.0
 11
20.7946
 21
2.78364
 31
0.0
  0
LINE
  8
0
 62
     0
 10
20.7946
 20
2.78364
 30
0.0
 11
21.3817
 21
2.78364
 31
0.0
  0
LINE
  8
0
 62
     0
 10
21.3817
 20
2.78364
 30
0.0
 11
21.3817
 21
3.01377
 31
0.0
  0
LINE
  8
0
 62
     0
 10
21.3817
 20
3.01377
 30
0.0
 11
22.5185
 21
3.01377
 31
0.0
  0
LINE
  8
0
 62
     0
 10
22.5185
 20
3.01377
 30
0.0
 11
22.5185
 21
7.48273
 31
0.0
  0
LINE
  8
0
 62
     0
 10
22.5185
 20
7.48273
 30
0.0
 11
34.8258
 21
7.48273
 31
0.0
  0
LINE
  8
0
 62
     0
 10
34.8258
 20
7.48273
 30
0.0
 11
34.8258
 21
3.01377
 31
0.0
  0
LINE
  8
0
 62
     0
 10
34.8258
 20
3.01377
 30
0.0
 11
36.551
 21
3.01377
 31
0.0
  0
LINE
  8
0
 62
     0
 10
36.551
 20
3.01377
 30
0.0
 11
36.551
 21
2.03261
 31
0.0
  0
LINE
  8
0
 62
     0
 10
36.551
 20
2.03261
 30
0.0
 11
39.8501
 21
2.03261
 31
0.0
  0
LINE
  8
0
 62
     0
 10
39.8501
 20
2.03261
 30
0.0
 11
39.8501
 21
3.01377
 31
0.0
  0
LINE
  8
0
 62
     0
 10
39.8501
 20
3.01377
 30
0.0
 11
41.5756
 21
3.01377
 31
0.0
  0
LINE
  8
0
 62
     0
 10
41.5756
 20
3.01377
 30
0.0
 11
41.5756
 21
7.48273
 31
0.0
  0
LINE
  8
0
 62
     0
 10
41.5756
 20
7.48273
 30
0.0
 11
78.0189
 21
7.48273
 31
0.0
  0
LINE
  8
0
 62
     0
 10
78.0189
 20
7.48273
 30
0.0
 11
78.0189
 21
3.38308
 31
0.0
  0
LINE
  8
0
 62
     0
 10
78.0189
 20
3.38308
 30
0.0
 11
78.8197
 21
3.38308
 31
0.0
  0
LINE
  8
0
 62
     0
 10
78.8197
 20
3.38308
 30
0.0
 11
78.8197
 21
2.78364
 31
0.0
  0
LINE
  8
0
 62
     0
 10
78.8197
 20
2.78364
 30
0.0
 11
95.2003
 21
2.78364
 31
0.0
  0
LINE
  8
0
 62
     0
 10
95.2003
 20
2.78364
 30
0.0
 11
95.2003
 21
3.38308
 31
0.0
  0
LINE
  8
0
 62
     0
 10
95.2003
 20
3.38308
 30
0.0
 11
96.0011
 21
3.38308
 31
0.0
  0
LINE
  8
0
 62
     0
 10
96.0011
 20
3.38308
 30
0.0
 11
96.0011
 21
7.48273
 31
0.0
  0
LINE
  8
0
 62
     0
 10
96.0011
 20
7.48273
 30
0.0
 11
134.826
 21
7.48273
 31
0.0
  0
LINE
  8
0
 62
     0
 10
134.826
 20
7.48273
 30
0.0
 11
134.826
 21
3.01377
 31
0.0
  0
LINE
  8
0
 62
     0
 10
134.826
 20
3.01377
 30
0.0
 11
136.55
 21
3.01377
 31
0.0
  0
LINE
  8
0
 62
     0
 10
136.55
 20
3.01377
 30
0.0
 11
136.55
 21
2.03261
 31
0.0
  0
LINE
  8
0
 62
     0
 10
136.55
 20
2.03261
 30
0.0
 11
139.85
 21
2.03261
 31
0.0
  0
LINE
  8
0
 62
     0
 10
139.85
 20
2.03261
 30
0.0
 11
139.85
 21
3.01377
 31
0.0
  0
LINE
  8
0
 62
     0
 10
139.85
 20
3.01377
 30
0.0
 11
141.575
 21
3.01377
 31
0.0
  0
LINE
  8
0
 62
     0
 10
141.575
 20
3.01377
 30
0.0
 11
141.575
 21
7.48273
 31
0.0
  0
LINE
  8
0
 62
     0
 10
141.575
 20
7.48273
 30
0.0
 11
149.119
 21
7.48273
 31
0.0
  0
LINE
  8
0
 62
     0
 10
149.119
 20
7.48273
 30
0.0
 11
149.119
 21
3.01377
 31
0.0
  0
LINE
  8
0
 62
     0
 10
149.119
 20
3.01377
 30
0.0
 11
150.844
 21
3.01377
 31
0.0
  0
LINE
  8
0
 62
     0
 10
150.844
 20
3.01377
 30
0.0
 11
150.844
 21
2.03261
 31
0.0
  0
LINE
  8
0
 62
     0
 10
150.844
 20
2.03261
 30
0.0
 11
154.144
 21
2.03261
 31
0.0
  0
LINE
  8
0
 62
     0
 10
154.144
 20
2.03261
 30
0.0
 11
154.144
 21
2.78364
 31
0.0
  0
LINE
  8
0
 62
     0
 10
154.144
 20
2.78364
 30
0.0
 11
166.638
 21
2.78364
 31
0.0
  0
LINE
  8
0
 62
     0
 10
166.638
 20
2.78364
 30
0.0
 11
166.638
 21
3.38308
 31
0.0
  0
LINE
  8
0
 62
     0
 10
166.638
 20
3.38308
 30
0.0
 11
167.437
 21
3.38308
 31
0.0
  0
LINE
  8
0
 62
     0
 10
167.437
 20
3.38308
 30
0.0
 11
167.437
 21
16.1837
 31
0.0
  0
LINE
  8
0
 62
     0
 10
167.437
 20
16.1837
 30
0.0
 11
166.638
 21
16.1837
 31
0.0
  0
LINE
  8
0
 62
     0
 10
166.638
 20
16.1837
 30
0.0
 11
166.638
 21
16.7831
 31
0.0
  0
LINE
  8
0
 62
     0
 10
166.638
 20
16.7831
 30
0.0
 11
152.637
 21
16.7831
 31
0.0
  0
LINE
  8
0
 62
     0
 10
152.637
 20
16.7831
 30
0.0
 11
152.637
 21
16.2347
 31
0.0
  0
LINE
  8
0
 62
     0
 10
152.637
 20
16.2347
 30
0.0
 11
150.844
 21
16.2347
 31
0.0
  0
LINE
  8
0
 62
     0
 10
150.844
 20
16.2347
 30
0.0
 11
150.844
 21
15.3128
 31
0.0
  0
LINE
  8
0
 62
     0
 10
150.844
 20
15.3128
 30
0.0
 11
149.119
 21
15.3128
 31
0.0
  0
LINE
  8
0
 62
     0
 10
149.119
 20
15.3128
 30
0.0
 11
149.119
 21
12.0826
 31
0.0
  0
LINE
  8
0
 62
     0
 10
149.119
 20
12.0826
 30
0.0
 11
141.575
 21
12.0826
 31
0.0
  0
LINE
  8
0
 62
     0
 10
141.575
 20
12.0826
 30
0.0
 11
141.575
 21
15.3128
 31
0.0
  0
LINE
  8
0
 62
     0
 10
141.575
 20
15.3128
 30
0.0
 11
139.85
 21
15.3128
 31
0.0
  0
LINE
  8
0
 62
     0
 10
139.85
 20
15.3128
 30
0.0
 11
139.85
 21
16.2347
 31
0.0
  0
LINE
  8
0
 62
     0
 10
139.85
 20
16.2347
 30
0.0
 11
136.55
 21
16.2347
 31
0.0
  0
LINE
  8
0
 62
     0
 10
136.55
 20
16.2347
 30
0.0
 11
136.55
 21
15.3128
 31
0.0
  0
LINE
  8
0
 62
     0
 10
136.55
 20
15.3128
 30
0.0
 11
134.826
 21
15.3128
 31
0.0
  0
LINE
  8
0
 62
     0
 10
134.826
 20
15.3128
 30
0.0
 11
134.826
 21
12.0826
 31
0.0
  0
LINE
  8
0
 62
     0
 10
134.826
 20
12.0826
 30
0.0
 11
96.0011
 21
12.0826
 31
0.0
  0
LINE
  8
0
 62
     0
 10
96.0011
 20
12.0826
 30
0.0
 11
96.0011
 21
16.1837
 31
0.0
  0
LINE
  8
0
 62
     0
 10
96.0011
 20
16.1837
 30
0.0
 11
95.2003
 21
16.1837
 31
0.0
  0
LINE
  8
0
 62
     0
 10
95.2003
 20
16.1837
 30
0.0
 11
95.2003
 21
16.7831
 31
0.0
  0
LINE
  8
0
 62
     0
 10
95.2003
 20
16.7831
 30
0.0
 11
78.8197
 21
16.7831
 31
0.0
  0
LINE
  8
0
 62
     0
 10
78.8197
 20
16.7831
 30
0.0
 11
78.8197
 21
16.1837
 31
0.0
  0
LINE
  8
0
 62
     0
 10
78.8197
 20
16.1837
 30
0.0
 11
78.0189
 21
16.1837
 31
0.0
  0
LINE
  8
0
 62
     0
 10
78.0189
 20
16.1837
 30
0.0
 11
78.0189
 21
12.0826
 31
0.0
  0
LINE
  8
0
 62
     0
 10
78.0189
 20
12.0826
 30
0.0
 11
41.5756
 21
12.0826
 31
0.0
  0
LINE
  8
0
 62
     0
 10
41.5756
 20
12.0826
 30
0.0
 11
41.5756
 21
15.3128
 31
0.0
  0
LINE
  8
0
 62
     0
 10
41.5756
 20
15.3128
 30
0.0
 11
39.8501
 21
15.3128
 31
0.0
  0
LINE
  8
0
 62
     0
 10
39.8501
 20
15.3128
 30
0.0
 11
39.8501
 21
16.2347
 31
0.0
  0
LINE
  8
0
 62
     0
 10
39.8501
 20
16.2347
 30
0.0
 11
36.551
 21
16.2347
 31
0.0
  0
LINE
  8
0
 62
     0
 10
36.551
 20
16.2347
 30
0.0
 11
36.551
 21
15.3128
 31
0.0
  0
LINE
  8
0
 62
     0
 10
36.551
 20
15.3128
 30
0.0
 11
34.8258
 21
15.3128
 31
0.0
  0
LINE
  8
0
 62
     0
 10
34.8258
 20
15.3128
 30
0.0
 11
34.8258
 21
12.0826
 31
0.0
  0
LINE
  8
0
 62
     0
 10
34.8258
 20
12.0826
 30
0.0
 11
22.5185
 21
12.0826
 31
0.0
  0
LINE
  8
0
 62
     0
 10
22.5185
 20
12.0826
 30
0.0
 11
22.5185
 21
15.3128
 31
0.0
  0
LINE
  8
0
 62
     0
 10
22.5185
 20
15.3128
 30
0.0
 11
22.1809
 21
15.3128
 31
0.0
  0
LINE
  8
0
 62
     0
 10
22.1809
 20
15.3128
 30
0.0
 11
22.1809
 21
16.1837
 31
0.0
  0
LINE
  8
0
 62
     0
 10
22.1809
 20
16.1837
 30
0.0
 11
21.3817
 21
16.1837
 31
0.0
  0
LINE
  8
0
 62
     0
 10
21.3817
 20
16.1837
 30
0.0
 11
21.3817
 21
16.7831
 31
0.0
  0
LINE
  8
0
 62
     0
 10
21.3817
 20
16.7831
 30
0.0
 11
7.38216
 21
16.7831
 31
0.0
  0
ENDSEC
  0
EOF
