<?xml version="1.0" encoding="UTF-8" standalone="no"?>
<!-- Created with Inkscape (http://www.inkscape.org/) -->

<svg
   xmlns:dc="http://purl.org/dc/elements/1.1/"
   xmlns:cc="http://creativecommons.org/ns#"
   xmlns:rdf="http://www.w3.org/1999/02/22-rdf-syntax-ns#"
   xmlns:svg="http://www.w3.org/2000/svg"
   xmlns="http://www.w3.org/2000/svg"
   xmlns:sodipodi="http://sodipodi.sourceforge.net/DTD/sodipodi-0.dtd"
   xmlns:inkscape="http://www.inkscape.org/namespaces/inkscape"
   version="1.1"
   id="svg61"
   width="1136.0045"
   height="891"
   viewBox="0 0 1136.0045 890.99999"
   sodipodi:docname="1200px-Atari_logo_alt.svg"
   inkscape:version="0.92.4 (5da689c313, 2019-01-14)">
  <metadata
     id="metadata67">
    <rdf:RDF>
      <cc:Work
         rdf:about="">
        <dc:format>image/svg+xml</dc:format>
        <dc:type
           rdf:resource="http://purl.org/dc/dcmitype/StillImage" />
        <dc:title></dc:title>
      </cc:Work>
    </rdf:RDF>
  </metadata>
  <defs
     id="defs65" />
  <sodipodi:namedview
     pagecolor="#ffffff"
     bordercolor="#666666"
     borderopacity="1"
     objecttolerance="10"
     gridtolerance="10"
     guidetolerance="10"
     inkscape:pageopacity="0"
     inkscape:pageshadow="2"
     inkscape:window-width="2560"
     inkscape:window-height="1406"
     id="namedview63"
     showgrid="false"
     fit-margin-top="0"
     fit-margin-left="0"
     fit-margin-right="0"
     fit-margin-bottom="0"
     inkscape:zoom="0.56716887"
     inkscape:cx="564.68653"
     inkscape:cy="173.59578"
     inkscape:window-x="0"
     inkscape:window-y="0"
     inkscape:window-maximized="1"
     inkscape:current-layer="svg61" />
  <path
     style="fill:#000000"
     d="M 506.00004,445.5 V 0 h 62 62 V 445.5 891 h -62 -62 z M 0,824.56127 v -64.43872 l 4.75,-0.56484 c 46.89971,-5.57696 110.76039,-36.8704 175.25001,-85.8772 73.20763,-55.63181 136.34423,-127.66047 165.22943,-188.50029 39.5899,-83.38657 62.8473,-207.65946 69.7463,-372.68022 0.5289,-12.649999 1.2729,-43.137502 1.6535,-67.75 L 417.32124,0 h 34.2155 34.2156 l 0.6114,5.75 c 1.3225,12.436252 1.9074,174.71171 0.7507,208.25 -4.1555,120.48402 -14.7428,210.42378 -33.1788,281.85367 -16.927,65.58328 -49.2264,131.17408 -93.784,190.44813 C 286.83974,783.82712 191.58992,851.5199 91.003516,877.58176 65.476793,884.19571 30.95042,889 8.94553,889 H 0 Z m 1110.5001,63.79447 c -1.65,-0.18953 -7.95,-0.83576 -14,-1.43607 -23.8879,-2.37028 -54.3951,-9.23734 -80.5,-18.12028 C 900.72414,829.57345 793.34494,733.44685 727.19354,610.25779 679.29984,521.0687 659.65124,427.9762 649.78374,243.5 648.32484,216.22545 647.98714,26.205326 649.36834,9.75 L 650.18664,0 h 34.4067 34.4067 l 0.01,21.25 c 0.01,30.300472 1.7474,90.58083 3.5422,122.75 9.1811,164.55222 37.0462,290.65106 80.5815,364.65856 28.4665,48.39127 78.436,104.58951 132.3708,148.87069 69.21676,56.82791 144.41166,96.0241 195.75006,102.03697 l 4.75,0.55633 V 824.56127 889 l -11.25,-0.14983 c -6.1875,-0.0824 -12.6,-0.3049 -14.25,-0.49443 z"
     id="path80"
     inkscape:connector-curvature="0"
     sodipodi:nodetypes="ccccccccccccsscscccccsssscccsssscccccccsscccccc" />
</svg>
