  0
SECTION
  2
HEADER
  9
$ACADVER
  1
AC1009
  9
$EXTMIN
 10
0.0
 20
0.0
 30
0.0
  9
$EXTMAX
 10
1000.0
 20
1000.0
 30
0.0
  9
$FILLMODE
 70
 0
  9
$SPLFRAME
 70
 1
  0
ENDSEC
  0
SECTION
  2
TABLES
  0
TABLE
  2
LAYER
 70
1
  0
LAYER
  2
0
 70
     0
 62
     7
  6
CONTINUOUS
  0
ENDTAB
  0
ENDSEC
  0
SECTION
  2
ENTITIES
  0
LINE
  8
0
 62
     0
 10
0.0950846
 20
129.021
 30
0.0
 11
295.37
 21
129.021
 31
0.0
  0
LINE
  8
0
 62
     0
 10
295.37
 20
129.021
 30
0.0
 11
295.37
 21
0.434082
 31
0.0
  0
LINE
  8
0
 62
     0
 10
295.37
 20
0.434082
 30
0.0
 11
0.0950846
 21
0.434082
 31
0.0
  0
LINE
  8
0
 62
     0
 10
0.0950846
 20
0.434082
 30
0.0
 11
0.0950846
 21
129.021
 31
0.0
  0
LINE
  8
0
 62
     0
 10
131.207
 20
16.9595
 30
0.0
 11
131.207
 21
12.2604
 31
0.0
  0
LINE
  8
0
 62
     0
 10
131.207
 20
12.2604
 30
0.0
 11
84.431
 21
12.2604
 31
0.0
  0
LINE
  8
0
 62
     0
 10
84.431
 20
12.2604
 30
0.0
 11
84.431
 21
15.4905
 31
0.0
  0
LINE
  8
0
 62
     0
 10
84.431
 20
15.4905
 30
0.0
 11
77.6813
 21
15.4905
 31
0.0
  0
LINE
  8
0
 62
     0
 10
77.6813
 20
15.4905
 30
0.0
 11
77.6813
 21
12.2604
 31
0.0
  0
LINE
  8
0
 62
     0
 10
77.6813
 20
12.2604
 30
0.0
 11
76.8558
 21
12.2604
 31
0.0
  0
LINE
  8
0
 62
     0
 10
76.8558
 20
12.2604
 30
0.0
 11
76.8558
 21
9.46023
 31
0.0
  0
LINE
  8
0
 62
     0
 10
76.8558
 20
9.46023
 30
0.0
 11
77.6813
 21
9.46023
 31
0.0
  0
LINE
  8
0
 62
     0
 10
77.6813
 20
9.46023
 30
0.0
 11
77.6813
 21
3.19016
 31
0.0
  0
LINE
  8
0
 62
     0
 10
77.6813
 20
3.19016
 30
0.0
 11
79.4067
 21
3.19016
 31
0.0
  0
LINE
  8
0
 62
     0
 10
79.4067
 20
3.19016
 30
0.0
 11
79.4067
 21
1.98989
 31
0.0
  0
LINE
  8
0
 62
     0
 10
79.4067
 20
1.98989
 30
0.0
 11
82.707
 21
1.98989
 31
0.0
  0
LINE
  8
0
 62
     0
 10
82.707
 20
1.98989
 30
0.0
 11
82.707
 21
3.19016
 31
0.0
  0
LINE
  8
0
 62
     0
 10
82.707
 20
3.19016
 30
0.0
 11
84.431
 21
3.19016
 31
0.0
  0
LINE
  8
0
 62
     0
 10
84.431
 20
3.19016
 30
0.0
 11
84.431
 21
7.6605
 31
0.0
  0
LINE
  8
0
 62
     0
 10
84.431
 20
7.6605
 30
0.0
 11
131.207
 21
7.6605
 31
0.0
  0
LINE
  8
0
 62
     0
 10
131.207
 20
7.6605
 30
0.0
 11
131.207
 21
2.96003
 31
0.0
  0
LINE
  8
0
 62
     0
 10
131.207
 20
2.96003
 30
0.0
 11
145.207
 21
2.96003
 31
0.0
  0
LINE
  8
0
 62
     0
 10
145.207
 20
2.96003
 30
0.0
 11
145.207
 21
7.6605
 31
0.0
  0
LINE
  8
0
 62
     0
 10
145.207
 20
7.6605
 30
0.0
 11
191.981
 21
7.6605
 31
0.0
  0
LINE
  8
0
 62
     0
 10
191.981
 20
7.6605
 30
0.0
 11
191.981
 21
3.19016
 31
0.0
  0
LINE
  8
0
 62
     0
 10
191.981
 20
3.19016
 30
0.0
 11
193.707
 21
3.19016
 31
0.0
  0
LINE
  8
0
 62
     0
 10
193.707
 20
3.19016
 30
0.0
 11
193.707
 21
1.98989
 31
0.0
  0
LINE
  8
0
 62
     0
 10
193.707
 20
1.98989
 30
0.0
 11
197.007
 21
1.98989
 31
0.0
  0
LINE
  8
0
 62
     0
 10
197.007
 20
1.98989
 30
0.0
 11
197.007
 21
3.19016
 31
0.0
  0
LINE
  8
0
 62
     0
 10
197.007
 20
3.19016
 30
0.0
 11
198.731
 21
3.19016
 31
0.0
  0
LINE
  8
0
 62
     0
 10
198.731
 20
3.19016
 30
0.0
 11
198.731
 21
9.46023
 31
0.0
  0
LINE
  8
0
 62
     0
 10
198.731
 20
9.46023
 30
0.0
 11
199.557
 21
9.46023
 31
0.0
  0
LINE
  8
0
 62
     0
 10
199.557
 20
9.46023
 30
0.0
 11
199.557
 21
12.2604
 31
0.0
  0
LINE
  8
0
 62
     0
 10
199.557
 20
12.2604
 30
0.0
 11
198.731
 21
12.2604
 31
0.0
  0
LINE
  8
0
 62
     0
 10
198.731
 20
12.2604
 30
0.0
 11
198.731
 21
15.4905
 31
0.0
  0
LINE
  8
0
 62
     0
 10
198.731
 20
15.4905
 30
0.0
 11
191.981
 21
15.4905
 31
0.0
  0
LINE
  8
0
 62
     0
 10
191.981
 20
15.4905
 30
0.0
 11
191.981
 21
12.2604
 31
0.0
  0
LINE
  8
0
 62
     0
 10
191.981
 20
12.2604
 30
0.0
 11
145.207
 21
12.2604
 31
0.0
  0
LINE
  8
0
 62
     0
 10
145.207
 20
12.2604
 30
0.0
 11
145.207
 21
16.9595
 31
0.0
  0
LINE
  8
0
 62
     0
 10
145.207
 20
16.9595
 30
0.0
 11
131.207
 21
16.9595
 31
0.0
  0
LINE
  8
0
 62
     0
 10
207.407
 20
16.9595
 30
0.0
 11
221.407
 21
16.9595
 31
0.0
  0
LINE
  8
0
 62
     0
 10
221.407
 20
16.9595
 30
0.0
 11
221.407
 21
2.96003
 31
0.0
  0
LINE
  8
0
 62
     0
 10
221.407
 20
2.96003
 30
0.0
 11
207.407
 21
2.96003
 31
0.0
  0
LINE
  8
0
 62
     0
 10
207.407
 20
2.96003
 30
0.0
 11
207.407
 21
16.9595
 31
0.0
  0
LINE
  8
0
 62
     0
 10
55.0072
 20
16.9595
 30
0.0
 11
69.0065
 21
16.9595
 31
0.0
  0
LINE
  8
0
 62
     0
 10
69.0065
 20
16.9595
 30
0.0
 11
69.0065
 21
2.96003
 31
0.0
  0
LINE
  8
0
 62
     0
 10
69.0065
 20
2.96003
 30
0.0
 11
55.0072
 21
2.96003
 31
0.0
  0
LINE
  8
0
 62
     0
 10
55.0072
 20
2.96003
 30
0.0
 11
55.0072
 21
16.9595
 31
0.0
  0
LINE
  8
0
 62
     0
 10
14.5259
 20
36.0094
 30
0.0
 11
14.5259
 21
31.3104
 31
0.0
  0
LINE
  8
0
 62
     0
 10
14.5259
 20
31.3104
 30
0.0
 11
13.0004
 21
31.3104
 31
0.0
  0
LINE
  8
0
 62
     0
 10
13.0004
 20
31.3104
 30
0.0
 11
13.0004
 21
34.5405
 31
0.0
  0
LINE
  8
0
 62
     0
 10
13.0004
 20
34.5405
 30
0.0
 11
6.2508
 21
34.5405
 31
0.0
  0
LINE
  8
0
 62
     0
 10
6.2508
 20
34.5405
 30
0.0
 11
6.2508
 21
31.3104
 31
0.0
  0
LINE
  8
0
 62
     0
 10
6.2508
 20
31.3104
 30
0.0
 11
5.42533
 21
31.3104
 31
0.0
  0
LINE
  8
0
 62
     0
 10
5.42533
 20
31.3104
 30
0.0
 11
5.42533
 21
28.5102
 31
0.0
  0
LINE
  8
0
 62
     0
 10
5.42533
 20
28.5102
 30
0.0
 11
6.2508
 21
28.5102
 31
0.0
  0
LINE
  8
0
 62
     0
 10
6.2508
 20
28.5102
 30
0.0
 11
6.2508
 21
22.2402
 31
0.0
  0
LINE
  8
0
 62
     0
 10
6.2508
 20
22.2402
 30
0.0
 11
7.97609
 21
22.2402
 31
0.0
  0
LINE
  8
0
 62
     0
 10
7.97609
 20
22.2402
 30
0.0
 11
7.97609
 21
21.0399
 31
0.0
  0
LINE
  8
0
 62
     0
 10
7.97609
 20
21.0399
 30
0.0
 11
11.2751
 21
21.0399
 31
0.0
  0
LINE
  8
0
 62
     0
 10
11.2751
 20
21.0399
 30
0.0
 11
11.2751
 21
22.2402
 31
0.0
  0
LINE
  8
0
 62
     0
 10
11.2751
 20
22.2402
 30
0.0
 11
13.0004
 21
22.2402
 31
0.0
  0
LINE
  8
0
 62
     0
 10
13.0004
 20
22.2402
 30
0.0
 11
13.0004
 21
26.7105
 31
0.0
  0
LINE
  8
0
 62
     0
 10
13.0004
 20
26.7105
 30
0.0
 11
14.5259
 21
26.7105
 31
0.0
  0
LINE
  8
0
 62
     0
 10
14.5259
 20
26.7105
 30
0.0
 11
14.5259
 21
22.01
 31
0.0
  0
LINE
  8
0
 62
     0
 10
14.5259
 20
22.01
 30
0.0
 11
28.5254
 21
22.01
 31
0.0
  0
LINE
  8
0
 62
     0
 10
28.5254
 20
22.01
 30
0.0
 11
28.5254
 21
26.7105
 31
0.0
  0
LINE
  8
0
 62
     0
 10
28.5254
 20
26.7105
 30
0.0
 11
30.0509
 21
26.7105
 31
0.0
  0
LINE
  8
0
 62
     0
 10
30.0509
 20
26.7105
 30
0.0
 11
30.0509
 21
22.2402
 31
0.0
  0
LINE
  8
0
 62
     0
 10
30.0509
 20
22.2402
 30
0.0
 11
31.7748
 21
22.2402
 31
0.0
  0
LINE
  8
0
 62
     0
 10
31.7748
 20
22.2402
 30
0.0
 11
31.7748
 21
21.0399
 31
0.0
  0
LINE
  8
0
 62
     0
 10
31.7748
 20
21.0399
 30
0.0
 11
35.0752
 21
21.0399
 31
0.0
  0
LINE
  8
0
 62
     0
 10
35.0752
 20
21.0399
 30
0.0
 11
35.0752
 21
22.2402
 31
0.0
  0
LINE
  8
0
 62
     0
 10
35.0752
 20
22.2402
 30
0.0
 11
36.8004
 21
22.2402
 31
0.0
  0
LINE
  8
0
 62
     0
 10
36.8004
 20
22.2402
 30
0.0
 11
36.8004
 21
28.5102
 31
0.0
  0
LINE
  8
0
 62
     0
 10
36.8004
 20
28.5102
 30
0.0
 11
37.6259
 21
28.5102
 31
0.0
  0
LINE
  8
0
 62
     0
 10
37.6259
 20
28.5102
 30
0.0
 11
37.6259
 21
31.3104
 31
0.0
  0
LINE
  8
0
 62
     0
 10
37.6259
 20
31.3104
 30
0.0
 11
36.8004
 21
31.3104
 31
0.0
  0
LINE
  8
0
 62
     0
 10
36.8004
 20
31.3104
 30
0.0
 11
36.8004
 21
34.5405
 31
0.0
  0
LINE
  8
0
 62
     0
 10
36.8004
 20
34.5405
 30
0.0
 11
30.0509
 21
34.5405
 31
0.0
  0
LINE
  8
0
 62
     0
 10
30.0509
 20
34.5405
 30
0.0
 11
30.0509
 21
31.3104
 31
0.0
  0
LINE
  8
0
 62
     0
 10
30.0509
 20
31.3104
 30
0.0
 11
28.5254
 21
31.3104
 31
0.0
  0
LINE
  8
0
 62
     0
 10
28.5254
 20
31.3104
 30
0.0
 11
28.5254
 21
36.0094
 31
0.0
  0
LINE
  8
0
 62
     0
 10
28.5254
 20
36.0094
 30
0.0
 11
14.5259
 21
36.0094
 31
0.0
  0
LINE
  8
0
 62
     0
 10
269.32
 20
36.0094
 30
0.0
 11
283.319
 21
36.0094
 31
0.0
  0
LINE
  8
0
 62
     0
 10
283.319
 20
36.0094
 30
0.0
 11
283.319
 21
22.01
 31
0.0
  0
LINE
  8
0
 62
     0
 10
283.319
 20
22.01
 30
0.0
 11
269.32
 21
22.01
 31
0.0
  0
LINE
  8
0
 62
     0
 10
269.32
 20
22.01
 30
0.0
 11
269.32
 21
36.0094
 31
0.0
  0
LINE
  8
0
 62
     0
 10
243.126
 20
36.0094
 30
0.0
 11
257.125
 21
36.0094
 31
0.0
  0
LINE
  8
0
 62
     0
 10
257.125
 20
36.0094
 30
0.0
 11
257.125
 21
22.01
 31
0.0
  0
LINE
  8
0
 62
     0
 10
257.125
 20
22.01
 30
0.0
 11
243.126
 21
22.01
 31
0.0
  0
LINE
  8
0
 62
     0
 10
243.126
 20
22.01
 30
0.0
 11
243.126
 21
36.0094
 31
0.0
  0
LINE
  8
0
 62
     0
 10
216.932
 20
36.0094
 30
0.0
 11
230.932
 21
36.0094
 31
0.0
  0
LINE
  8
0
 62
     0
 10
230.932
 20
36.0094
 30
0.0
 11
230.932
 21
22.01
 31
0.0
  0
LINE
  8
0
 62
     0
 10
230.932
 20
22.01
 30
0.0
 11
216.932
 21
22.01
 31
0.0
  0
LINE
  8
0
 62
     0
 10
216.932
 20
22.01
 30
0.0
 11
216.932
 21
36.0094
 31
0.0
  0
LINE
  8
0
 62
     0
 10
197.882
 20
36.0094
 30
0.0
 11
211.882
 21
36.0094
 31
0.0
  0
LINE
  8
0
 62
     0
 10
211.882
 20
36.0094
 30
0.0
 11
211.882
 21
22.01
 31
0.0
  0
LINE
  8
0
 62
     0
 10
211.882
 20
22.01
 30
0.0
 11
197.882
 21
22.01
 31
0.0
  0
LINE
  8
0
 62
     0
 10
197.882
 20
22.01
 30
0.0
 11
197.882
 21
36.0094
 31
0.0
  0
LINE
  8
0
 62
     0
 10
178.832
 20
36.0094
 30
0.0
 11
192.832
 21
36.0094
 31
0.0
  0
LINE
  8
0
 62
     0
 10
192.832
 20
36.0094
 30
0.0
 11
192.832
 21
22.01
 31
0.0
  0
LINE
  8
0
 62
     0
 10
192.832
 20
22.01
 30
0.0
 11
178.832
 21
22.01
 31
0.0
  0
LINE
  8
0
 62
     0
 10
178.832
 20
22.01
 30
0.0
 11
178.832
 21
36.0094
 31
0.0
  0
LINE
  8
0
 62
     0
 10
159.782
 20
36.0094
 30
0.0
 11
173.782
 21
36.0094
 31
0.0
  0
LINE
  8
0
 62
     0
 10
173.782
 20
36.0094
 30
0.0
 11
173.782
 21
22.01
 31
0.0
  0
LINE
  8
0
 62
     0
 10
173.782
 20
22.01
 30
0.0
 11
159.782
 21
22.01
 31
0.0
  0
LINE
  8
0
 62
     0
 10
159.782
 20
22.01
 30
0.0
 11
159.782
 21
36.0094
 31
0.0
  0
LINE
  8
0
 62
     0
 10
140.732
 20
36.0094
 30
0.0
 11
154.732
 21
36.0094
 31
0.0
  0
LINE
  8
0
 62
     0
 10
154.732
 20
36.0094
 30
0.0
 11
154.732
 21
22.01
 31
0.0
  0
LINE
  8
0
 62
     0
 10
154.732
 20
22.01
 30
0.0
 11
140.732
 21
22.01
 31
0.0
  0
LINE
  8
0
 62
     0
 10
140.732
 20
22.01
 30
0.0
 11
140.732
 21
36.0094
 31
0.0
  0
LINE
  8
0
 62
     0
 10
121.682
 20
36.0094
 30
0.0
 11
135.682
 21
36.0094
 31
0.0
  0
LINE
  8
0
 62
     0
 10
135.682
 20
36.0094
 30
0.0
 11
135.682
 21
22.01
 31
0.0
  0
LINE
  8
0
 62
     0
 10
135.682
 20
22.01
 30
0.0
 11
121.682
 21
22.01
 31
0.0
  0
LINE
  8
0
 62
     0
 10
121.682
 20
22.01
 30
0.0
 11
121.682
 21
36.0094
 31
0.0
  0
LINE
  8
0
 62
     0
 10
102.632
 20
36.0094
 30
0.0
 11
116.632
 21
36.0094
 31
0.0
  0
LINE
  8
0
 62
     0
 10
116.632
 20
36.0094
 30
0.0
 11
116.632
 21
22.01
 31
0.0
  0
LINE
  8
0
 62
     0
 10
116.632
 20
22.01
 30
0.0
 11
102.632
 21
22.01
 31
0.0
  0
LINE
  8
0
 62
     0
 10
102.632
 20
22.01
 30
0.0
 11
102.632
 21
36.0094
 31
0.0
  0
LINE
  8
0
 62
     0
 10
83.5822
 20
36.0094
 30
0.0
 11
97.5815
 21
36.0094
 31
0.0
  0
LINE
  8
0
 62
     0
 10
97.5815
 20
36.0094
 30
0.0
 11
97.5815
 21
22.01
 31
0.0
  0
LINE
  8
0
 62
     0
 10
97.5815
 20
22.01
 30
0.0
 11
83.5822
 21
22.01
 31
0.0
  0
LINE
  8
0
 62
     0
 10
83.5822
 20
22.01
 30
0.0
 11
83.5822
 21
36.0094
 31
0.0
  0
LINE
  8
0
 62
     0
 10
64.5322
 20
36.0094
 30
0.0
 11
78.5315
 21
36.0094
 31
0.0
  0
LINE
  8
0
 62
     0
 10
78.5315
 20
36.0094
 30
0.0
 11
78.5315
 21
22.01
 31
0.0
  0
LINE
  8
0
 62
     0
 10
78.5315
 20
22.01
 30
0.0
 11
64.5322
 21
22.01
 31
0.0
  0
LINE
  8
0
 62
     0
 10
64.5322
 20
22.01
 30
0.0
 11
64.5322
 21
36.0094
 31
0.0
  0
LINE
  8
0
 62
     0
 10
45.4822
 20
36.0094
 30
0.0
 11
59.4815
 21
36.0094
 31
0.0
  0
LINE
  8
0
 62
     0
 10
59.4815
 20
36.0094
 30
0.0
 11
59.4815
 21
22.01
 31
0.0
  0
LINE
  8
0
 62
     0
 10
59.4815
 20
22.01
 30
0.0
 11
45.4822
 21
22.01
 31
0.0
  0
LINE
  8
0
 62
     0
 10
45.4822
 20
22.01
 30
0.0
 11
45.4822
 21
36.0094
 31
0.0
  0
LINE
  8
0
 62
     0
 10
266.937
 20
55.0594
 30
0.0
 11
280.938
 21
55.0594
 31
0.0
  0
LINE
  8
0
 62
     0
 10
280.938
 20
55.0594
 30
0.0
 11
280.938
 21
41.0602
 31
0.0
  0
LINE
  8
0
 62
     0
 10
280.938
 20
41.0602
 30
0.0
 11
266.937
 21
41.0602
 31
0.0
  0
LINE
  8
0
 62
     0
 10
266.937
 20
41.0602
 30
0.0
 11
266.937
 21
55.0594
 31
0.0
  0
LINE
  8
0
 62
     0
 10
245.507
 20
55.0594
 30
0.0
 11
259.507
 21
55.0594
 31
0.0
  0
LINE
  8
0
 62
     0
 10
259.507
 20
55.0594
 30
0.0
 11
259.507
 21
41.0602
 31
0.0
  0
LINE
  8
0
 62
     0
 10
259.507
 20
41.0602
 30
0.0
 11
245.507
 21
41.0602
 31
0.0
  0
LINE
  8
0
 62
     0
 10
245.507
 20
41.0602
 30
0.0
 11
245.507
 21
55.0594
 31
0.0
  0
LINE
  8
0
 62
     0
 10
226.457
 20
55.0594
 30
0.0
 11
240.457
 21
55.0594
 31
0.0
  0
LINE
  8
0
 62
     0
 10
240.457
 20
55.0594
 30
0.0
 11
240.457
 21
41.0602
 31
0.0
  0
LINE
  8
0
 62
     0
 10
240.457
 20
41.0602
 30
0.0
 11
226.457
 21
41.0602
 31
0.0
  0
LINE
  8
0
 62
     0
 10
226.457
 20
41.0602
 30
0.0
 11
226.457
 21
55.0594
 31
0.0
  0
LINE
  8
0
 62
     0
 10
207.407
 20
55.0594
 30
0.0
 11
221.407
 21
55.0594
 31
0.0
  0
LINE
  8
0
 62
     0
 10
221.407
 20
55.0594
 30
0.0
 11
221.407
 21
41.0602
 31
0.0
  0
LINE
  8
0
 62
     0
 10
221.407
 20
41.0602
 30
0.0
 11
207.407
 21
41.0602
 31
0.0
  0
LINE
  8
0
 62
     0
 10
207.407
 20
41.0602
 30
0.0
 11
207.407
 21
55.0594
 31
0.0
  0
LINE
  8
0
 62
     0
 10
188.357
 20
55.0594
 30
0.0
 11
202.357
 21
55.0594
 31
0.0
  0
LINE
  8
0
 62
     0
 10
202.357
 20
55.0594
 30
0.0
 11
202.357
 21
41.0602
 31
0.0
  0
LINE
  8
0
 62
     0
 10
202.357
 20
41.0602
 30
0.0
 11
188.357
 21
41.0602
 31
0.0
  0
LINE
  8
0
 62
     0
 10
188.357
 20
41.0602
 30
0.0
 11
188.357
 21
55.0594
 31
0.0
  0
LINE
  8
0
 62
     0
 10
169.307
 20
55.0594
 30
0.0
 11
183.307
 21
55.0594
 31
0.0
  0
LINE
  8
0
 62
     0
 10
183.307
 20
55.0594
 30
0.0
 11
183.307
 21
41.0602
 31
0.0
  0
LINE
  8
0
 62
     0
 10
183.307
 20
41.0602
 30
0.0
 11
169.307
 21
41.0602
 31
0.0
  0
LINE
  8
0
 62
     0
 10
169.307
 20
41.0602
 30
0.0
 11
169.307
 21
55.0594
 31
0.0
  0
LINE
  8
0
 62
     0
 10
150.257
 20
55.0594
 30
0.0
 11
164.257
 21
55.0594
 31
0.0
  0
LINE
  8
0
 62
     0
 10
164.257
 20
55.0594
 30
0.0
 11
164.257
 21
41.0602
 31
0.0
  0
LINE
  8
0
 62
     0
 10
164.257
 20
41.0602
 30
0.0
 11
150.257
 21
41.0602
 31
0.0
  0
LINE
  8
0
 62
     0
 10
150.257
 20
41.0602
 30
0.0
 11
150.257
 21
55.0594
 31
0.0
  0
LINE
  8
0
 62
     0
 10
131.207
 20
55.0594
 30
0.0
 11
145.207
 21
55.0594
 31
0.0
  0
LINE
  8
0
 62
     0
 10
145.207
 20
55.0594
 30
0.0
 11
145.207
 21
41.0602
 31
0.0
  0
LINE
  8
0
 62
     0
 10
145.207
 20
41.0602
 30
0.0
 11
131.207
 21
41.0602
 31
0.0
  0
LINE
  8
0
 62
     0
 10
131.207
 20
41.0602
 30
0.0
 11
131.207
 21
55.0594
 31
0.0
  0
LINE
  8
0
 62
     0
 10
112.157
 20
55.0594
 30
0.0
 11
126.157
 21
55.0594
 31
0.0
  0
LINE
  8
0
 62
     0
 10
126.157
 20
55.0594
 30
0.0
 11
126.157
 21
41.0602
 31
0.0
  0
LINE
  8
0
 62
     0
 10
126.157
 20
41.0602
 30
0.0
 11
112.157
 21
41.0602
 31
0.0
  0
LINE
  8
0
 62
     0
 10
112.157
 20
41.0602
 30
0.0
 11
112.157
 21
55.0594
 31
0.0
  0
LINE
  8
0
 62
     0
 10
93.1072
 20
55.0594
 30
0.0
 11
107.107
 21
55.0594
 31
0.0
  0
LINE
  8
0
 62
     0
 10
107.107
 20
55.0594
 30
0.0
 11
107.107
 21
41.0602
 31
0.0
  0
LINE
  8
0
 62
     0
 10
107.107
 20
41.0602
 30
0.0
 11
93.1072
 21
41.0602
 31
0.0
  0
LINE
  8
0
 62
     0
 10
93.1072
 20
41.0602
 30
0.0
 11
93.1072
 21
55.0594
 31
0.0
  0
LINE
  8
0
 62
     0
 10
74.0572
 20
55.0594
 30
0.0
 11
88.0565
 21
55.0594
 31
0.0
  0
LINE
  8
0
 62
     0
 10
88.0565
 20
55.0594
 30
0.0
 11
88.0565
 21
41.0602
 31
0.0
  0
LINE
  8
0
 62
     0
 10
88.0565
 20
41.0602
 30
0.0
 11
74.0572
 21
41.0602
 31
0.0
  0
LINE
  8
0
 62
     0
 10
74.0572
 20
41.0602
 30
0.0
 11
74.0572
 21
55.0594
 31
0.0
  0
LINE
  8
0
 62
     0
 10
55.0072
 20
55.0594
 30
0.0
 11
69.0065
 21
55.0594
 31
0.0
  0
LINE
  8
0
 62
     0
 10
69.0065
 20
55.0594
 30
0.0
 11
69.0065
 21
41.0602
 31
0.0
  0
LINE
  8
0
 62
     0
 10
69.0065
 20
41.0602
 30
0.0
 11
55.0072
 21
41.0602
 31
0.0
  0
LINE
  8
0
 62
     0
 10
55.0072
 20
41.0602
 30
0.0
 11
55.0072
 21
55.0594
 31
0.0
  0
LINE
  8
0
 62
     0
 10
35.9572
 20
55.0594
 30
0.0
 11
49.9565
 21
55.0594
 31
0.0
  0
LINE
  8
0
 62
     0
 10
49.9565
 20
55.0594
 30
0.0
 11
49.9565
 21
41.0602
 31
0.0
  0
LINE
  8
0
 62
     0
 10
49.9565
 20
41.0602
 30
0.0
 11
35.9572
 21
41.0602
 31
0.0
  0
LINE
  8
0
 62
     0
 10
35.9572
 20
41.0602
 30
0.0
 11
35.9572
 21
55.0594
 31
0.0
  0
LINE
  8
0
 62
     0
 10
9.76203
 20
55.0594
 30
0.0
 11
23.7629
 21
55.0594
 31
0.0
  0
LINE
  8
0
 62
     0
 10
23.7629
 20
55.0594
 30
0.0
 11
23.7629
 21
41.0602
 31
0.0
  0
LINE
  8
0
 62
     0
 10
23.7629
 20
41.0602
 30
0.0
 11
9.76203
 21
41.0602
 31
0.0
  0
LINE
  8
0
 62
     0
 10
9.76203
 20
41.0602
 30
0.0
 11
9.76203
 21
55.0594
 31
0.0
  0
LINE
  8
0
 62
     0
 10
264.557
 20
74.1094
 30
0.0
 11
278.557
 21
74.1094
 31
0.0
  0
LINE
  8
0
 62
     0
 10
278.557
 20
74.1094
 30
0.0
 11
278.557
 21
60.1102
 31
0.0
  0
LINE
  8
0
 62
     0
 10
278.557
 20
60.1102
 30
0.0
 11
264.557
 21
60.1102
 31
0.0
  0
LINE
  8
0
 62
     0
 10
264.557
 20
60.1102
 30
0.0
 11
264.557
 21
74.1094
 31
0.0
  0
LINE
  8
0
 62
     0
 10
240.745
 20
74.1094
 30
0.0
 11
254.744
 21
74.1094
 31
0.0
  0
LINE
  8
0
 62
     0
 10
254.744
 20
74.1094
 30
0.0
 11
254.744
 21
60.1102
 31
0.0
  0
LINE
  8
0
 62
     0
 10
254.744
 20
60.1102
 30
0.0
 11
240.745
 21
60.1102
 31
0.0
  0
LINE
  8
0
 62
     0
 10
240.745
 20
60.1102
 30
0.0
 11
240.745
 21
74.1094
 31
0.0
  0
LINE
  8
0
 62
     0
 10
221.695
 20
74.1094
 30
0.0
 11
235.694
 21
74.1094
 31
0.0
  0
LINE
  8
0
 62
     0
 10
235.694
 20
74.1094
 30
0.0
 11
235.694
 21
60.1102
 31
0.0
  0
LINE
  8
0
 62
     0
 10
235.694
 20
60.1102
 30
0.0
 11
221.695
 21
60.1102
 31
0.0
  0
LINE
  8
0
 62
     0
 10
221.695
 20
60.1102
 30
0.0
 11
221.695
 21
74.1094
 31
0.0
  0
LINE
  8
0
 62
     0
 10
202.645
 20
74.1094
 30
0.0
 11
216.644
 21
74.1094
 31
0.0
  0
LINE
  8
0
 62
     0
 10
216.644
 20
74.1094
 30
0.0
 11
216.644
 21
60.1102
 31
0.0
  0
LINE
  8
0
 62
     0
 10
216.644
 20
60.1102
 30
0.0
 11
202.645
 21
60.1102
 31
0.0
  0
LINE
  8
0
 62
     0
 10
202.645
 20
60.1102
 30
0.0
 11
202.645
 21
74.1094
 31
0.0
  0
LINE
  8
0
 62
     0
 10
183.595
 20
74.1094
 30
0.0
 11
197.594
 21
74.1094
 31
0.0
  0
LINE
  8
0
 62
     0
 10
197.594
 20
74.1094
 30
0.0
 11
197.594
 21
60.1102
 31
0.0
  0
LINE
  8
0
 62
     0
 10
197.594
 20
60.1102
 30
0.0
 11
183.595
 21
60.1102
 31
0.0
  0
LINE
  8
0
 62
     0
 10
183.595
 20
60.1102
 30
0.0
 11
183.595
 21
74.1094
 31
0.0
  0
LINE
  8
0
 62
     0
 10
164.545
 20
74.1094
 30
0.0
 11
178.544
 21
74.1094
 31
0.0
  0
LINE
  8
0
 62
     0
 10
178.544
 20
74.1094
 30
0.0
 11
178.544
 21
60.1102
 31
0.0
  0
LINE
  8
0
 62
     0
 10
178.544
 20
60.1102
 30
0.0
 11
164.545
 21
60.1102
 31
0.0
  0
LINE
  8
0
 62
     0
 10
164.545
 20
60.1102
 30
0.0
 11
164.545
 21
74.1094
 31
0.0
  0
LINE
  8
0
 62
     0
 10
145.495
 20
74.1094
 30
0.0
 11
159.494
 21
74.1094
 31
0.0
  0
LINE
  8
0
 62
     0
 10
159.494
 20
74.1094
 30
0.0
 11
159.494
 21
60.1102
 31
0.0
  0
LINE
  8
0
 62
     0
 10
159.494
 20
60.1102
 30
0.0
 11
145.495
 21
60.1102
 31
0.0
  0
LINE
  8
0
 62
     0
 10
145.495
 20
60.1102
 30
0.0
 11
145.495
 21
74.1094
 31
0.0
  0
LINE
  8
0
 62
     0
 10
126.445
 20
74.1094
 30
0.0
 11
140.444
 21
74.1094
 31
0.0
  0
LINE
  8
0
 62
     0
 10
140.444
 20
74.1094
 30
0.0
 11
140.444
 21
60.1102
 31
0.0
  0
LINE
  8
0
 62
     0
 10
140.444
 20
60.1102
 30
0.0
 11
126.445
 21
60.1102
 31
0.0
  0
LINE
  8
0
 62
     0
 10
126.445
 20
60.1102
 30
0.0
 11
126.445
 21
74.1094
 31
0.0
  0
LINE
  8
0
 62
     0
 10
107.395
 20
74.1094
 30
0.0
 11
121.394
 21
74.1094
 31
0.0
  0
LINE
  8
0
 62
     0
 10
121.394
 20
74.1094
 30
0.0
 11
121.394
 21
60.1102
 31
0.0
  0
LINE
  8
0
 62
     0
 10
121.394
 20
60.1102
 30
0.0
 11
107.395
 21
60.1102
 31
0.0
  0
LINE
  8
0
 62
     0
 10
107.395
 20
60.1102
 30
0.0
 11
107.395
 21
74.1094
 31
0.0
  0
LINE
  8
0
 62
     0
 10
88.3447
 20
74.1094
 30
0.0
 11
102.344
 21
74.1094
 31
0.0
  0
LINE
  8
0
 62
     0
 10
102.344
 20
74.1094
 30
0.0
 11
102.344
 21
60.1102
 31
0.0
  0
LINE
  8
0
 62
     0
 10
102.344
 20
60.1102
 30
0.0
 11
88.3447
 21
60.1102
 31
0.0
  0
LINE
  8
0
 62
     0
 10
88.3447
 20
60.1102
 30
0.0
 11
88.3447
 21
74.1094
 31
0.0
  0
LINE
  8
0
 62
     0
 10
69.2947
 20
74.1094
 30
0.0
 11
83.294
 21
74.1094
 31
0.0
  0
LINE
  8
0
 62
     0
 10
83.294
 20
74.1094
 30
0.0
 11
83.294
 21
60.1102
 31
0.0
  0
LINE
  8
0
 62
     0
 10
83.294
 20
60.1102
 30
0.0
 11
69.2947
 21
60.1102
 31
0.0
  0
LINE
  8
0
 62
     0
 10
69.2947
 20
60.1102
 30
0.0
 11
69.2947
 21
74.1094
 31
0.0
  0
LINE
  8
0
 62
     0
 10
50.2447
 20
74.1094
 30
0.0
 11
64.244
 21
74.1094
 31
0.0
  0
LINE
  8
0
 62
     0
 10
64.244
 20
74.1094
 30
0.0
 11
64.244
 21
60.1102
 31
0.0
  0
LINE
  8
0
 62
     0
 10
64.244
 20
60.1102
 30
0.0
 11
50.2447
 21
60.1102
 31
0.0
  0
LINE
  8
0
 62
     0
 10
50.2447
 20
60.1102
 30
0.0
 11
50.2447
 21
74.1094
 31
0.0
  0
LINE
  8
0
 62
     0
 10
31.1947
 20
74.1094
 30
0.0
 11
45.194
 21
74.1094
 31
0.0
  0
LINE
  8
0
 62
     0
 10
45.194
 20
74.1094
 30
0.0
 11
45.194
 21
60.1102
 31
0.0
  0
LINE
  8
0
 62
     0
 10
45.194
 20
60.1102
 30
0.0
 11
31.1947
 21
60.1102
 31
0.0
  0
LINE
  8
0
 62
     0
 10
31.1947
 20
60.1102
 30
0.0
 11
31.1947
 21
74.1094
 31
0.0
  0
LINE
  8
0
 62
     0
 10
7.38216
 20
74.1094
 30
0.0
 11
21.3817
 21
74.1094
 31
0.0
  0
LINE
  8
0
 62
     0
 10
21.3817
 20
74.1094
 30
0.0
 11
21.3817
 21
60.1102
 31
0.0
  0
LINE
  8
0
 62
     0
 10
21.3817
 20
60.1102
 30
0.0
 11
7.38216
 21
60.1102
 31
0.0
  0
LINE
  8
0
 62
     0
 10
7.38216
 20
60.1102
 30
0.0
 11
7.38216
 21
74.1094
 31
0.0
  0
LINE
  8
0
 62
     0
 10
269.32
 20
93.1594
 30
0.0
 11
283.319
 21
93.1594
 31
0.0
  0
LINE
  8
0
 62
     0
 10
283.319
 20
93.1594
 30
0.0
 11
283.319
 21
79.1602
 31
0.0
  0
LINE
  8
0
 62
     0
 10
283.319
 20
79.1602
 30
0.0
 11
269.32
 21
79.1602
 31
0.0
  0
LINE
  8
0
 62
     0
 10
269.32
 20
79.1602
 30
0.0
 11
269.32
 21
93.1594
 31
0.0
  0
LINE
  8
0
 62
     0
 10
250.27
 20
93.1594
 30
0.0
 11
264.269
 21
93.1594
 31
0.0
  0
LINE
  8
0
 62
     0
 10
264.269
 20
93.1594
 30
0.0
 11
264.269
 21
79.1602
 31
0.0
  0
LINE
  8
0
 62
     0
 10
264.269
 20
79.1602
 30
0.0
 11
250.27
 21
79.1602
 31
0.0
  0
LINE
  8
0
 62
     0
 10
250.27
 20
79.1602
 30
0.0
 11
250.27
 21
93.1594
 31
0.0
  0
LINE
  8
0
 62
     0
 10
231.22
 20
93.1594
 30
0.0
 11
245.219
 21
93.1594
 31
0.0
  0
LINE
  8
0
 62
     0
 10
245.219
 20
93.1594
 30
0.0
 11
245.219
 21
79.1602
 31
0.0
  0
LINE
  8
0
 62
     0
 10
245.219
 20
79.1602
 30
0.0
 11
231.22
 21
79.1602
 31
0.0
  0
LINE
  8
0
 62
     0
 10
231.22
 20
79.1602
 30
0.0
 11
231.22
 21
93.1594
 31
0.0
  0
LINE
  8
0
 62
     0
 10
212.17
 20
93.1594
 30
0.0
 11
226.169
 21
93.1594
 31
0.0
  0
LINE
  8
0
 62
     0
 10
226.169
 20
93.1594
 30
0.0
 11
226.169
 21
79.1602
 31
0.0
  0
LINE
  8
0
 62
     0
 10
226.169
 20
79.1602
 30
0.0
 11
212.17
 21
79.1602
 31
0.0
  0
LINE
  8
0
 62
     0
 10
212.17
 20
79.1602
 30
0.0
 11
212.17
 21
93.1594
 31
0.0
  0
LINE
  8
0
 62
     0
 10
193.12
 20
93.1594
 30
0.0
 11
207.119
 21
93.1594
 31
0.0
  0
LINE
  8
0
 62
     0
 10
207.119
 20
93.1594
 30
0.0
 11
207.119
 21
79.1602
 31
0.0
  0
LINE
  8
0
 62
     0
 10
207.119
 20
79.1602
 30
0.0
 11
193.12
 21
79.1602
 31
0.0
  0
LINE
  8
0
 62
     0
 10
193.12
 20
79.1602
 30
0.0
 11
193.12
 21
93.1594
 31
0.0
  0
LINE
  8
0
 62
     0
 10
174.07
 20
93.1594
 30
0.0
 11
188.069
 21
93.1594
 31
0.0
  0
LINE
  8
0
 62
     0
 10
188.069
 20
93.1594
 30
0.0
 11
188.069
 21
79.1602
 31
0.0
  0
LINE
  8
0
 62
     0
 10
188.069
 20
79.1602
 30
0.0
 11
174.07
 21
79.1602
 31
0.0
  0
LINE
  8
0
 62
     0
 10
174.07
 20
79.1602
 30
0.0
 11
174.07
 21
93.1594
 31
0.0
  0
LINE
  8
0
 62
     0
 10
155.02
 20
93.1594
 30
0.0
 11
169.019
 21
93.1594
 31
0.0
  0
LINE
  8
0
 62
     0
 10
169.019
 20
93.1594
 30
0.0
 11
169.019
 21
79.1602
 31
0.0
  0
LINE
  8
0
 62
     0
 10
169.019
 20
79.1602
 30
0.0
 11
155.02
 21
79.1602
 31
0.0
  0
LINE
  8
0
 62
     0
 10
155.02
 20
79.1602
 30
0.0
 11
155.02
 21
93.1594
 31
0.0
  0
LINE
  8
0
 62
     0
 10
135.97
 20
93.1594
 30
0.0
 11
149.969
 21
93.1594
 31
0.0
  0
LINE
  8
0
 62
     0
 10
149.969
 20
93.1594
 30
0.0
 11
149.969
 21
79.1602
 31
0.0
  0
LINE
  8
0
 62
     0
 10
149.969
 20
79.1602
 30
0.0
 11
135.97
 21
79.1602
 31
0.0
  0
LINE
  8
0
 62
     0
 10
135.97
 20
79.1602
 30
0.0
 11
135.97
 21
93.1594
 31
0.0
  0
LINE
  8
0
 62
     0
 10
116.918
 20
93.1594
 30
0.0
 11
130.919
 21
93.1594
 31
0.0
  0
LINE
  8
0
 62
     0
 10
130.919
 20
93.1594
 30
0.0
 11
130.919
 21
79.1602
 31
0.0
  0
LINE
  8
0
 62
     0
 10
130.919
 20
79.1602
 30
0.0
 11
116.918
 21
79.1602
 31
0.0
  0
LINE
  8
0
 62
     0
 10
116.918
 20
79.1602
 30
0.0
 11
116.918
 21
93.1594
 31
0.0
  0
LINE
  8
0
 62
     0
 10
97.8683
 20
93.1594
 30
0.0
 11
111.869
 21
93.1594
 31
0.0
  0
LINE
  8
0
 62
     0
 10
111.869
 20
93.1594
 30
0.0
 11
111.869
 21
79.1602
 31
0.0
  0
LINE
  8
0
 62
     0
 10
111.869
 20
79.1602
 30
0.0
 11
97.8683
 21
79.1602
 31
0.0
  0
LINE
  8
0
 62
     0
 10
97.8683
 20
79.1602
 30
0.0
 11
97.8683
 21
93.1594
 31
0.0
  0
LINE
  8
0
 62
     0
 10
78.8197
 20
93.1594
 30
0.0
 11
92.819
 21
93.1594
 31
0.0
  0
LINE
  8
0
 62
     0
 10
92.819
 20
93.1594
 30
0.0
 11
92.819
 21
79.1602
 31
0.0
  0
LINE
  8
0
 62
     0
 10
92.819
 20
79.1602
 30
0.0
 11
78.8197
 21
79.1602
 31
0.0
  0
LINE
  8
0
 62
     0
 10
78.8197
 20
79.1602
 30
0.0
 11
78.8197
 21
93.1594
 31
0.0
  0
LINE
  8
0
 62
     0
 10
59.7697
 20
93.1594
 30
0.0
 11
73.769
 21
93.1594
 31
0.0
  0
LINE
  8
0
 62
     0
 10
73.769
 20
93.1594
 30
0.0
 11
73.769
 21
79.1602
 31
0.0
  0
LINE
  8
0
 62
     0
 10
73.769
 20
79.1602
 30
0.0
 11
59.7697
 21
79.1602
 31
0.0
  0
LINE
  8
0
 62
     0
 10
59.7697
 20
79.1602
 30
0.0
 11
59.7697
 21
93.1594
 31
0.0
  0
LINE
  8
0
 62
     0
 10
40.7197
 20
93.1594
 30
0.0
 11
54.719
 21
93.1594
 31
0.0
  0
LINE
  8
0
 62
     0
 10
54.719
 20
93.1594
 30
0.0
 11
54.719
 21
79.1602
 31
0.0
  0
LINE
  8
0
 62
     0
 10
54.719
 20
79.1602
 30
0.0
 11
40.7197
 21
79.1602
 31
0.0
  0
LINE
  8
0
 62
     0
 10
40.7197
 20
79.1602
 30
0.0
 11
40.7197
 21
93.1594
 31
0.0
  0
LINE
  8
0
 62
     0
 10
21.6697
 20
93.1594
 30
0.0
 11
35.669
 21
93.1594
 31
0.0
  0
LINE
  8
0
 62
     0
 10
35.669
 20
93.1594
 30
0.0
 11
35.669
 21
79.1602
 31
0.0
  0
LINE
  8
0
 62
     0
 10
35.669
 20
79.1602
 30
0.0
 11
21.6697
 21
79.1602
 31
0.0
  0
LINE
  8
0
 62
     0
 10
21.6697
 20
79.1602
 30
0.0
 11
21.6697
 21
93.1594
 31
0.0
  0
LINE
  8
0
 62
     0
 10
2.61965
 20
93.1594
 30
0.0
 11
16.6192
 21
93.1594
 31
0.0
  0
LINE
  8
0
 62
     0
 10
16.6192
 20
93.1594
 30
0.0
 11
16.6192
 21
79.1602
 31
0.0
  0
LINE
  8
0
 62
     0
 10
16.6192
 20
79.1602
 30
0.0
 11
2.61965
 21
79.1602
 31
0.0
  0
LINE
  8
0
 62
     0
 10
2.61965
 20
79.1602
 30
0.0
 11
2.61965
 21
93.1594
 31
0.0
  0
LINE
  8
0
 62
     0
 10
274.082
 20
126.497
 30
0.0
 11
288.082
 21
126.497
 31
0.0
  0
LINE
  8
0
 62
     0
 10
288.082
 20
126.497
 30
0.0
 11
288.082
 21
112.498
 31
0.0
  0
LINE
  8
0
 62
     0
 10
288.082
 20
112.498
 30
0.0
 11
274.082
 21
112.498
 31
0.0
  0
LINE
  8
0
 62
     0
 10
274.082
 20
112.498
 30
0.0
 11
274.082
 21
126.497
 31
0.0
  0
LINE
  8
0
 62
     0
 10
245.507
 20
126.497
 30
0.0
 11
259.507
 21
126.497
 31
0.0
  0
LINE
  8
0
 62
     0
 10
259.507
 20
126.497
 30
0.0
 11
259.507
 21
112.498
 31
0.0
  0
LINE
  8
0
 62
     0
 10
259.507
 20
112.498
 30
0.0
 11
245.507
 21
112.498
 31
0.0
  0
LINE
  8
0
 62
     0
 10
245.507
 20
112.498
 30
0.0
 11
245.507
 21
126.497
 31
0.0
  0
LINE
  8
0
 62
     0
 10
216.932
 20
126.497
 30
0.0
 11
230.932
 21
126.497
 31
0.0
  0
LINE
  8
0
 62
     0
 10
230.932
 20
126.497
 30
0.0
 11
230.932
 21
112.498
 31
0.0
  0
LINE
  8
0
 62
     0
 10
230.932
 20
112.498
 30
0.0
 11
216.932
 21
112.498
 31
0.0
  0
LINE
  8
0
 62
     0
 10
216.932
 20
112.498
 30
0.0
 11
216.932
 21
126.497
 31
0.0
  0
LINE
  8
0
 62
     0
 10
188.357
 20
126.497
 30
0.0
 11
202.357
 21
126.497
 31
0.0
  0
LINE
  8
0
 62
     0
 10
202.357
 20
126.497
 30
0.0
 11
202.357
 21
112.498
 31
0.0
  0
LINE
  8
0
 62
     0
 10
202.357
 20
112.498
 30
0.0
 11
188.357
 21
112.498
 31
0.0
  0
LINE
  8
0
 62
     0
 10
188.357
 20
112.498
 30
0.0
 11
188.357
 21
126.497
 31
0.0
  0
LINE
  8
0
 62
     0
 10
159.782
 20
126.497
 30
0.0
 11
173.782
 21
126.497
 31
0.0
  0
LINE
  8
0
 62
     0
 10
173.782
 20
126.497
 30
0.0
 11
173.782
 21
112.498
 31
0.0
  0
LINE
  8
0
 62
     0
 10
173.782
 20
112.498
 30
0.0
 11
159.782
 21
112.498
 31
0.0
  0
LINE
  8
0
 62
     0
 10
159.782
 20
112.498
 30
0.0
 11
159.782
 21
126.497
 31
0.0
  0
LINE
  8
0
 62
     0
 10
59.7697
 20
126.497
 30
0.0
 11
73.769
 21
126.497
 31
0.0
  0
LINE
  8
0
 62
     0
 10
73.769
 20
126.497
 30
0.0
 11
73.769
 21
112.498
 31
0.0
  0
LINE
  8
0
 62
     0
 10
73.769
 20
112.498
 30
0.0
 11
59.7697
 21
112.498
 31
0.0
  0
LINE
  8
0
 62
     0
 10
59.7697
 20
112.498
 30
0.0
 11
59.7697
 21
126.497
 31
0.0
  0
LINE
  8
0
 62
     0
 10
40.7197
 20
126.497
 30
0.0
 11
54.719
 21
126.497
 31
0.0
  0
LINE
  8
0
 62
     0
 10
54.719
 20
126.497
 30
0.0
 11
54.719
 21
112.498
 31
0.0
  0
LINE
  8
0
 62
     0
 10
54.719
 20
112.498
 30
0.0
 11
40.7197
 21
112.498
 31
0.0
  0
LINE
  8
0
 62
     0
 10
40.7197
 20
112.498
 30
0.0
 11
40.7197
 21
126.497
 31
0.0
  0
LINE
  8
0
 62
     0
 10
21.6697
 20
126.497
 30
0.0
 11
35.669
 21
126.497
 31
0.0
  0
LINE
  8
0
 62
     0
 10
35.669
 20
126.497
 30
0.0
 11
35.669
 21
112.498
 31
0.0
  0
LINE
  8
0
 62
     0
 10
35.669
 20
112.498
 30
0.0
 11
21.6697
 21
112.498
 31
0.0
  0
LINE
  8
0
 62
     0
 10
21.6697
 20
112.498
 30
0.0
 11
21.6697
 21
126.497
 31
0.0
  0
LINE
  8
0
 62
     0
 10
2.61965
 20
126.497
 30
0.0
 11
16.6192
 21
126.497
 31
0.0
  0
LINE
  8
0
 62
     0
 10
16.6192
 20
126.497
 30
0.0
 11
16.6192
 21
112.498
 31
0.0
  0
LINE
  8
0
 62
     0
 10
16.6192
 20
112.498
 30
0.0
 11
2.61965
 21
112.498
 31
0.0
  0
LINE
  8
0
 62
     0
 10
2.61965
 20
112.498
 30
0.0
 11
2.61965
 21
126.497
 31
0.0
  0
ENDSEC
  0
EOF
