  0
SECTION
  2
HEADER
  9
$ACADVER
  1
AC1009
  9
$EXTMIN
 10
0.0
 20
0.0
 30
0.0
  9
$EXTMAX
 10
1000.0
 20
1000.0
 30
0.0
  9
$FILLMODE
 70
 0
  9
$SPLFRAME
 70
 1
  0
ENDSEC
  0
SECTION
  2
TABLES
  0
TABLE
  2
LAYER
 70
1
  0
LAYER
  2
0
 70
     0
 62
     7
  6
CONTINUOUS
  0
ENDTAB
  0
ENDSEC
  0
SECTION
  2
ENTITIES
  0
LINE
  8
0
 62
     0
 10
0.0950846
 20
124.083
 30
0.0
 11
333.47
 21
124.083
 31
0.0
  0
LINE
  8
0
 62
     0
 10
333.47
 20
124.083
 30
0.0
 11
333.47
 21
0.257693
 31
0.0
  0
LINE
  8
0
 62
     0
 10
333.47
 20
0.257693
 30
0.0
 11
0.0950846
 21
0.257693
 31
0.0
  0
LINE
  8
0
 62
     0
 10
0.0950846
 20
0.257693
 30
0.0
 11
0.0950846
 21
124.083
 31
0.0
  0
LINE
  8
0
 62
     0
 10
128.826
 20
16.7831
 30
0.0
 11
128.826
 21
12.0826
 31
0.0
  0
LINE
  8
0
 62
     0
 10
128.826
 20
12.0826
 30
0.0
 11
89.2006
 21
12.0826
 31
0.0
  0
LINE
  8
0
 62
     0
 10
89.2006
 20
12.0826
 30
0.0
 11
89.2006
 21
15.3128
 31
0.0
  0
LINE
  8
0
 62
     0
 10
89.2006
 20
15.3128
 30
0.0
 11
82.4509
 21
15.3128
 31
0.0
  0
LINE
  8
0
 62
     0
 10
82.4509
 20
15.3128
 30
0.0
 11
82.4509
 21
12.0826
 31
0.0
  0
LINE
  8
0
 62
     0
 10
82.4509
 20
12.0826
 30
0.0
 11
81.6254
 21
12.0826
 31
0.0
  0
LINE
  8
0
 62
     0
 10
81.6254
 20
12.0826
 30
0.0
 11
81.6254
 21
9.28384
 31
0.0
  0
LINE
  8
0
 62
     0
 10
81.6254
 20
9.28384
 30
0.0
 11
82.4509
 21
9.28384
 31
0.0
  0
LINE
  8
0
 62
     0
 10
82.4509
 20
9.28384
 30
0.0
 11
82.4509
 21
3.01377
 31
0.0
  0
LINE
  8
0
 62
     0
 10
82.4509
 20
3.01377
 30
0.0
 11
84.176
 21
3.01377
 31
0.0
  0
LINE
  8
0
 62
     0
 10
84.176
 20
3.01377
 30
0.0
 11
84.176
 21
1.8135
 31
0.0
  0
LINE
  8
0
 62
     0
 10
84.176
 20
1.8135
 30
0.0
 11
87.4751
 21
1.8135
 31
0.0
  0
LINE
  8
0
 62
     0
 10
87.4751
 20
1.8135
 30
0.0
 11
87.4751
 21
3.01377
 31
0.0
  0
LINE
  8
0
 62
     0
 10
87.4751
 20
3.01377
 30
0.0
 11
89.2006
 21
3.01377
 31
0.0
  0
LINE
  8
0
 62
     0
 10
89.2006
 20
3.01377
 30
0.0
 11
89.2006
 21
7.48273
 31
0.0
  0
LINE
  8
0
 62
     0
 10
89.2006
 20
7.48273
 30
0.0
 11
128.826
 21
7.48273
 31
0.0
  0
LINE
  8
0
 62
     0
 10
128.826
 20
7.48273
 30
0.0
 11
128.826
 21
2.78364
 31
0.0
  0
LINE
  8
0
 62
     0
 10
128.826
 20
2.78364
 30
0.0
 11
142.825
 21
2.78364
 31
0.0
  0
LINE
  8
0
 62
     0
 10
142.825
 20
2.78364
 30
0.0
 11
142.825
 21
7.48273
 31
0.0
  0
LINE
  8
0
 62
     0
 10
142.825
 20
7.48273
 30
0.0
 11
182.451
 21
7.48273
 31
0.0
  0
LINE
  8
0
 62
     0
 10
182.451
 20
7.48273
 30
0.0
 11
182.451
 21
3.01377
 31
0.0
  0
LINE
  8
0
 62
     0
 10
182.451
 20
3.01377
 30
0.0
 11
184.175
 21
3.01377
 31
0.0
  0
LINE
  8
0
 62
     0
 10
184.175
 20
3.01377
 30
0.0
 11
184.175
 21
1.8135
 31
0.0
  0
LINE
  8
0
 62
     0
 10
184.175
 20
1.8135
 30
0.0
 11
187.475
 21
1.8135
 31
0.0
  0
LINE
  8
0
 62
     0
 10
187.475
 20
1.8135
 30
0.0
 11
187.475
 21
3.01377
 31
0.0
  0
LINE
  8
0
 62
     0
 10
187.475
 20
3.01377
 30
0.0
 11
189.2
 21
3.01377
 31
0.0
  0
LINE
  8
0
 62
     0
 10
189.2
 20
3.01377
 30
0.0
 11
189.2
 21
9.28384
 31
0.0
  0
LINE
  8
0
 62
     0
 10
189.2
 20
9.28384
 30
0.0
 11
190.026
 21
9.28384
 31
0.0
  0
LINE
  8
0
 62
     0
 10
190.026
 20
9.28384
 30
0.0
 11
190.026
 21
12.0826
 31
0.0
  0
LINE
  8
0
 62
     0
 10
190.026
 20
12.0826
 30
0.0
 11
189.2
 21
12.0826
 31
0.0
  0
LINE
  8
0
 62
     0
 10
189.2
 20
12.0826
 30
0.0
 11
189.2
 21
15.3128
 31
0.0
  0
LINE
  8
0
 62
     0
 10
189.2
 20
15.3128
 30
0.0
 11
182.451
 21
15.3128
 31
0.0
  0
LINE
  8
0
 62
     0
 10
182.451
 20
15.3128
 30
0.0
 11
182.451
 21
12.0826
 31
0.0
  0
LINE
  8
0
 62
     0
 10
182.451
 20
12.0826
 30
0.0
 11
142.825
 21
12.0826
 31
0.0
  0
LINE
  8
0
 62
     0
 10
142.825
 20
12.0826
 30
0.0
 11
142.825
 21
16.7831
 31
0.0
  0
LINE
  8
0
 62
     0
 10
142.825
 20
16.7831
 30
0.0
 11
128.826
 21
16.7831
 31
0.0
  0
LINE
  8
0
 62
     0
 10
316.945
 20
16.7831
 30
0.0
 11
330.944
 21
16.7831
 31
0.0
  0
LINE
  8
0
 62
     0
 10
330.944
 20
16.7831
 30
0.0
 11
330.944
 21
2.78364
 31
0.0
  0
LINE
  8
0
 62
     0
 10
330.944
 20
2.78364
 30
0.0
 11
316.945
 21
2.78364
 31
0.0
  0
LINE
  8
0
 62
     0
 10
316.945
 20
2.78364
 30
0.0
 11
316.945
 21
16.7831
 31
0.0
  0
LINE
  8
0
 62
     0
 10
202.643
 20
16.7831
 30
0.0
 11
216.644
 21
16.7831
 31
0.0
  0
LINE
  8
0
 62
     0
 10
216.644
 20
16.7831
 30
0.0
 11
216.644
 21
2.78364
 31
0.0
  0
LINE
  8
0
 62
     0
 10
216.644
 20
2.78364
 30
0.0
 11
202.643
 21
2.78364
 31
0.0
  0
LINE
  8
0
 62
     0
 10
202.643
 20
2.78364
 30
0.0
 11
202.643
 21
16.7831
 31
0.0
  0
LINE
  8
0
 62
     0
 10
57.3871
 20
16.7831
 30
0.0
 11
71.3878
 21
16.7831
 31
0.0
  0
LINE
  8
0
 62
     0
 10
71.3878
 20
16.7831
 30
0.0
 11
71.3878
 21
2.78364
 31
0.0
  0
LINE
  8
0
 62
     0
 10
71.3878
 20
2.78364
 30
0.0
 11
57.3871
 21
2.78364
 31
0.0
  0
LINE
  8
0
 62
     0
 10
57.3871
 20
2.78364
 30
0.0
 11
57.3871
 21
16.7831
 31
0.0
  0
LINE
  8
0
 62
     0
 10
245.507
 20
35.833
 30
0.0
 11
245.507
 21
31.1326
 31
0.0
  0
LINE
  8
0
 62
     0
 10
245.507
 20
31.1326
 30
0.0
 11
243.982
 21
31.1326
 31
0.0
  0
LINE
  8
0
 62
     0
 10
243.982
 20
31.1326
 30
0.0
 11
243.982
 21
34.3628
 31
0.0
  0
LINE
  8
0
 62
     0
 10
243.982
 20
34.3628
 30
0.0
 11
237.232
 21
34.3628
 31
0.0
  0
LINE
  8
0
 62
     0
 10
237.232
 20
34.3628
 30
0.0
 11
237.232
 21
31.1326
 31
0.0
  0
LINE
  8
0
 62
     0
 10
237.232
 20
31.1326
 30
0.0
 11
236.407
 21
31.1326
 31
0.0
  0
LINE
  8
0
 62
     0
 10
236.407
 20
31.1326
 30
0.0
 11
236.407
 21
28.3338
 31
0.0
  0
LINE
  8
0
 62
     0
 10
236.407
 20
28.3338
 30
0.0
 11
237.232
 21
28.3338
 31
0.0
  0
LINE
  8
0
 62
     0
 10
237.232
 20
28.3338
 30
0.0
 11
237.232
 21
22.0638
 31
0.0
  0
LINE
  8
0
 62
     0
 10
237.232
 20
22.0638
 30
0.0
 11
238.956
 21
22.0638
 31
0.0
  0
LINE
  8
0
 62
     0
 10
238.956
 20
22.0638
 30
0.0
 11
238.956
 21
20.8635
 31
0.0
  0
LINE
  8
0
 62
     0
 10
238.956
 20
20.8635
 30
0.0
 11
242.256
 21
20.8635
 31
0.0
  0
LINE
  8
0
 62
     0
 10
242.256
 20
20.8635
 30
0.0
 11
242.256
 21
22.0638
 31
0.0
  0
LINE
  8
0
 62
     0
 10
242.256
 20
22.0638
 30
0.0
 11
243.982
 21
22.0638
 31
0.0
  0
LINE
  8
0
 62
     0
 10
243.982
 20
22.0638
 30
0.0
 11
243.982
 21
26.5327
 31
0.0
  0
LINE
  8
0
 62
     0
 10
243.982
 20
26.5327
 30
0.0
 11
245.507
 21
26.5327
 31
0.0
  0
LINE
  8
0
 62
     0
 10
245.507
 20
26.5327
 30
0.0
 11
245.507
 21
21.8336
 31
0.0
  0
LINE
  8
0
 62
     0
 10
245.507
 20
21.8336
 30
0.0
 11
259.507
 21
21.8336
 31
0.0
  0
LINE
  8
0
 62
     0
 10
259.507
 20
21.8336
 30
0.0
 11
259.507
 21
26.5327
 31
0.0
  0
LINE
  8
0
 62
     0
 10
259.507
 20
26.5327
 30
0.0
 11
261.032
 21
26.5327
 31
0.0
  0
LINE
  8
0
 62
     0
 10
261.032
 20
26.5327
 30
0.0
 11
261.032
 21
22.0638
 31
0.0
  0
LINE
  8
0
 62
     0
 10
261.032
 20
22.0638
 30
0.0
 11
262.756
 21
22.0638
 31
0.0
  0
LINE
  8
0
 62
     0
 10
262.756
 20
22.0638
 30
0.0
 11
262.756
 21
20.8635
 31
0.0
  0
LINE
  8
0
 62
     0
 10
262.756
 20
20.8635
 30
0.0
 11
266.057
 21
20.8635
 31
0.0
  0
LINE
  8
0
 62
     0
 10
266.057
 20
20.8635
 30
0.0
 11
266.057
 21
22.0638
 31
0.0
  0
LINE
  8
0
 62
     0
 10
266.057
 20
22.0638
 30
0.0
 11
267.782
 21
22.0638
 31
0.0
  0
LINE
  8
0
 62
     0
 10
267.782
 20
22.0638
 30
0.0
 11
267.782
 21
28.3338
 31
0.0
  0
LINE
  8
0
 62
     0
 10
267.782
 20
28.3338
 30
0.0
 11
268.606
 21
28.3338
 31
0.0
  0
LINE
  8
0
 62
     0
 10
268.606
 20
28.3338
 30
0.0
 11
268.606
 21
31.1326
 31
0.0
  0
LINE
  8
0
 62
     0
 10
268.606
 20
31.1326
 30
0.0
 11
267.782
 21
31.1326
 31
0.0
  0
LINE
  8
0
 62
     0
 10
267.782
 20
31.1326
 30
0.0
 11
267.782
 21
34.3628
 31
0.0
  0
LINE
  8
0
 62
     0
 10
267.782
 20
34.3628
 30
0.0
 11
261.032
 21
34.3628
 31
0.0
  0
LINE
  8
0
 62
     0
 10
261.032
 20
34.3628
 30
0.0
 11
261.032
 21
31.1326
 31
0.0
  0
LINE
  8
0
 62
     0
 10
261.032
 20
31.1326
 30
0.0
 11
259.507
 21
31.1326
 31
0.0
  0
LINE
  8
0
 62
     0
 10
259.507
 20
31.1326
 30
0.0
 11
259.507
 21
35.833
 31
0.0
  0
LINE
  8
0
 62
     0
 10
259.507
 20
35.833
 30
0.0
 11
245.507
 21
35.833
 31
0.0
  0
LINE
  8
0
 62
     0
 10
14.5259
 20
35.833
 30
0.0
 11
14.5259
 21
31.1326
 31
0.0
  0
LINE
  8
0
 62
     0
 10
14.5259
 20
31.1326
 30
0.0
 11
13.0004
 21
31.1326
 31
0.0
  0
LINE
  8
0
 62
     0
 10
13.0004
 20
31.1326
 30
0.0
 11
13.0004
 21
34.3628
 31
0.0
  0
LINE
  8
0
 62
     0
 10
13.0004
 20
34.3628
 30
0.0
 11
6.2508
 21
34.3628
 31
0.0
  0
LINE
  8
0
 62
     0
 10
6.2508
 20
34.3628
 30
0.0
 11
6.2508
 21
31.1326
 31
0.0
  0
LINE
  8
0
 62
     0
 10
6.2508
 20
31.1326
 30
0.0
 11
5.42533
 21
31.1326
 31
0.0
  0
LINE
  8
0
 62
     0
 10
5.42533
 20
31.1326
 30
0.0
 11
5.42533
 21
28.3338
 31
0.0
  0
LINE
  8
0
 62
     0
 10
5.42533
 20
28.3338
 30
0.0
 11
6.2508
 21
28.3338
 31
0.0
  0
LINE
  8
0
 62
     0
 10
6.2508
 20
28.3338
 30
0.0
 11
6.2508
 21
22.0638
 31
0.0
  0
LINE
  8
0
 62
     0
 10
6.2508
 20
22.0638
 30
0.0
 11
7.97609
 21
22.0638
 31
0.0
  0
LINE
  8
0
 62
     0
 10
7.97609
 20
22.0638
 30
0.0
 11
7.97609
 21
20.8635
 31
0.0
  0
LINE
  8
0
 62
     0
 10
7.97609
 20
20.8635
 30
0.0
 11
11.2751
 21
20.8635
 31
0.0
  0
LINE
  8
0
 62
     0
 10
11.2751
 20
20.8635
 30
0.0
 11
11.2751
 21
22.0638
 31
0.0
  0
LINE
  8
0
 62
     0
 10
11.2751
 20
22.0638
 30
0.0
 11
13.0004
 21
22.0638
 31
0.0
  0
LINE
  8
0
 62
     0
 10
13.0004
 20
22.0638
 30
0.0
 11
13.0004
 21
26.5327
 31
0.0
  0
LINE
  8
0
 62
     0
 10
13.0004
 20
26.5327
 30
0.0
 11
14.5259
 21
26.5327
 31
0.0
  0
LINE
  8
0
 62
     0
 10
14.5259
 20
26.5327
 30
0.0
 11
14.5259
 21
21.8336
 31
0.0
  0
LINE
  8
0
 62
     0
 10
14.5259
 20
21.8336
 30
0.0
 11
28.5254
 21
21.8336
 31
0.0
  0
LINE
  8
0
 62
     0
 10
28.5254
 20
21.8336
 30
0.0
 11
28.5254
 21
26.5327
 31
0.0
  0
LINE
  8
0
 62
     0
 10
28.5254
 20
26.5327
 30
0.0
 11
30.0509
 21
26.5327
 31
0.0
  0
LINE
  8
0
 62
     0
 10
30.0509
 20
26.5327
 30
0.0
 11
30.0509
 21
22.0638
 31
0.0
  0
LINE
  8
0
 62
     0
 10
30.0509
 20
22.0638
 30
0.0
 11
31.7748
 21
22.0638
 31
0.0
  0
LINE
  8
0
 62
     0
 10
31.7748
 20
22.0638
 30
0.0
 11
31.7748
 21
20.8635
 31
0.0
  0
LINE
  8
0
 62
     0
 10
31.7748
 20
20.8635
 30
0.0
 11
35.0752
 21
20.8635
 31
0.0
  0
LINE
  8
0
 62
     0
 10
35.0752
 20
20.8635
 30
0.0
 11
35.0752
 21
22.0638
 31
0.0
  0
LINE
  8
0
 62
     0
 10
35.0752
 20
22.0638
 30
0.0
 11
36.8004
 21
22.0638
 31
0.0
  0
LINE
  8
0
 62
     0
 10
36.8004
 20
22.0638
 30
0.0
 11
36.8004
 21
28.3338
 31
0.0
  0
LINE
  8
0
 62
     0
 10
36.8004
 20
28.3338
 30
0.0
 11
37.6259
 21
28.3338
 31
0.0
  0
LINE
  8
0
 62
     0
 10
37.6259
 20
28.3338
 30
0.0
 11
37.6259
 21
31.1326
 31
0.0
  0
LINE
  8
0
 62
     0
 10
37.6259
 20
31.1326
 30
0.0
 11
36.8004
 21
31.1326
 31
0.0
  0
LINE
  8
0
 62
     0
 10
36.8004
 20
31.1326
 30
0.0
 11
36.8004
 21
34.3628
 31
0.0
  0
LINE
  8
0
 62
     0
 10
36.8004
 20
34.3628
 30
0.0
 11
30.0509
 21
34.3628
 31
0.0
  0
LINE
  8
0
 62
     0
 10
30.0509
 20
34.3628
 30
0.0
 11
30.0509
 21
31.1326
 31
0.0
  0
LINE
  8
0
 62
     0
 10
30.0509
 20
31.1326
 30
0.0
 11
28.5254
 21
31.1326
 31
0.0
  0
LINE
  8
0
 62
     0
 10
28.5254
 20
31.1326
 30
0.0
 11
28.5254
 21
35.833
 31
0.0
  0
LINE
  8
0
 62
     0
 10
28.5254
 20
35.833
 30
0.0
 11
14.5259
 21
35.833
 31
0.0
  0
LINE
  8
0
 62
     0
 10
316.945
 20
35.833
 30
0.0
 11
330.944
 21
35.833
 31
0.0
  0
LINE
  8
0
 62
     0
 10
330.944
 20
35.833
 30
0.0
 11
330.944
 21
21.8336
 31
0.0
  0
LINE
  8
0
 62
     0
 10
330.944
 20
21.8336
 30
0.0
 11
316.945
 21
21.8336
 31
0.0
  0
LINE
  8
0
 62
     0
 10
316.945
 20
21.8336
 30
0.0
 11
316.945
 21
35.833
 31
0.0
  0
LINE
  8
0
 62
     0
 10
274.082
 20
35.833
 30
0.0
 11
288.082
 21
35.833
 31
0.0
  0
LINE
  8
0
 62
     0
 10
288.082
 20
35.833
 30
0.0
 11
288.082
 21
21.8336
 31
0.0
  0
LINE
  8
0
 62
     0
 10
288.082
 20
21.8336
 30
0.0
 11
274.082
 21
21.8336
 31
0.0
  0
LINE
  8
0
 62
     0
 10
274.082
 20
21.8336
 30
0.0
 11
274.082
 21
35.833
 31
0.0
  0
LINE
  8
0
 62
     0
 10
216.932
 20
35.833
 30
0.0
 11
230.932
 21
35.833
 31
0.0
  0
LINE
  8
0
 62
     0
 10
230.932
 20
35.833
 30
0.0
 11
230.932
 21
21.8336
 31
0.0
  0
LINE
  8
0
 62
     0
 10
230.932
 20
21.8336
 30
0.0
 11
216.932
 21
21.8336
 31
0.0
  0
LINE
  8
0
 62
     0
 10
216.932
 20
21.8336
 30
0.0
 11
216.932
 21
35.833
 31
0.0
  0
LINE
  8
0
 62
     0
 10
197.882
 20
35.833
 30
0.0
 11
211.882
 21
35.833
 31
0.0
  0
LINE
  8
0
 62
     0
 10
211.882
 20
35.833
 30
0.0
 11
211.882
 21
21.8336
 31
0.0
  0
LINE
  8
0
 62
     0
 10
211.882
 20
21.8336
 30
0.0
 11
197.882
 21
21.8336
 31
0.0
  0
LINE
  8
0
 62
     0
 10
197.882
 20
21.8336
 30
0.0
 11
197.882
 21
35.833
 31
0.0
  0
LINE
  8
0
 62
     0
 10
178.832
 20
35.833
 30
0.0
 11
192.832
 21
35.833
 31
0.0
  0
LINE
  8
0
 62
     0
 10
192.832
 20
35.833
 30
0.0
 11
192.832
 21
21.8336
 31
0.0
  0
LINE
  8
0
 62
     0
 10
192.832
 20
21.8336
 30
0.0
 11
178.832
 21
21.8336
 31
0.0
  0
LINE
  8
0
 62
     0
 10
178.832
 20
21.8336
 30
0.0
 11
178.832
 21
35.833
 31
0.0
  0
LINE
  8
0
 62
     0
 10
159.782
 20
35.833
 30
0.0
 11
173.782
 21
35.833
 31
0.0
  0
LINE
  8
0
 62
     0
 10
173.782
 20
35.833
 30
0.0
 11
173.782
 21
21.8336
 31
0.0
  0
LINE
  8
0
 62
     0
 10
173.782
 20
21.8336
 30
0.0
 11
159.782
 21
21.8336
 31
0.0
  0
LINE
  8
0
 62
     0
 10
159.782
 20
21.8336
 30
0.0
 11
159.782
 21
35.833
 31
0.0
  0
LINE
  8
0
 62
     0
 10
140.732
 20
35.833
 30
0.0
 11
154.732
 21
35.833
 31
0.0
  0
LINE
  8
0
 62
     0
 10
154.732
 20
35.833
 30
0.0
 11
154.732
 21
21.8336
 31
0.0
  0
LINE
  8
0
 62
     0
 10
154.732
 20
21.8336
 30
0.0
 11
140.732
 21
21.8336
 31
0.0
  0
LINE
  8
0
 62
     0
 10
140.732
 20
21.8336
 30
0.0
 11
140.732
 21
35.833
 31
0.0
  0
LINE
  8
0
 62
     0
 10
121.682
 20
35.833
 30
0.0
 11
135.682
 21
35.833
 31
0.0
  0
LINE
  8
0
 62
     0
 10
135.682
 20
35.833
 30
0.0
 11
135.682
 21
21.8336
 31
0.0
  0
LINE
  8
0
 62
     0
 10
135.682
 20
21.8336
 30
0.0
 11
121.682
 21
21.8336
 31
0.0
  0
LINE
  8
0
 62
     0
 10
121.682
 20
21.8336
 30
0.0
 11
121.682
 21
35.833
 31
0.0
  0
LINE
  8
0
 62
     0
 10
102.632
 20
35.833
 30
0.0
 11
116.632
 21
35.833
 31
0.0
  0
LINE
  8
0
 62
     0
 10
116.632
 20
35.833
 30
0.0
 11
116.632
 21
21.8336
 31
0.0
  0
LINE
  8
0
 62
     0
 10
116.632
 20
21.8336
 30
0.0
 11
102.632
 21
21.8336
 31
0.0
  0
LINE
  8
0
 62
     0
 10
102.632
 20
21.8336
 30
0.0
 11
102.632
 21
35.833
 31
0.0
  0
LINE
  8
0
 62
     0
 10
83.5822
 20
35.833
 30
0.0
 11
97.5815
 21
35.833
 31
0.0
  0
LINE
  8
0
 62
     0
 10
97.5815
 20
35.833
 30
0.0
 11
97.5815
 21
21.8336
 31
0.0
  0
LINE
  8
0
 62
     0
 10
97.5815
 20
21.8336
 30
0.0
 11
83.5822
 21
21.8336
 31
0.0
  0
LINE
  8
0
 62
     0
 10
83.5822
 20
21.8336
 30
0.0
 11
83.5822
 21
35.833
 31
0.0
  0
LINE
  8
0
 62
     0
 10
64.5322
 20
35.833
 30
0.0
 11
78.5315
 21
35.833
 31
0.0
  0
LINE
  8
0
 62
     0
 10
78.5315
 20
35.833
 30
0.0
 11
78.5315
 21
21.8336
 31
0.0
  0
LINE
  8
0
 62
     0
 10
78.5315
 20
21.8336
 30
0.0
 11
64.5322
 21
21.8336
 31
0.0
  0
LINE
  8
0
 62
     0
 10
64.5322
 20
21.8336
 30
0.0
 11
64.5322
 21
35.833
 31
0.0
  0
LINE
  8
0
 62
     0
 10
45.4822
 20
35.833
 30
0.0
 11
59.4815
 21
35.833
 31
0.0
  0
LINE
  8
0
 62
     0
 10
59.4815
 20
35.833
 30
0.0
 11
59.4815
 21
21.8336
 31
0.0
  0
LINE
  8
0
 62
     0
 10
59.4815
 20
21.8336
 30
0.0
 11
45.4822
 21
21.8336
 31
0.0
  0
LINE
  8
0
 62
     0
 10
45.4822
 20
21.8336
 30
0.0
 11
45.4822
 21
35.833
 31
0.0
  0
LINE
  8
0
 62
     0
 10
12.1447
 20
54.8831
 30
0.0
 11
12.1447
 21
50.1826
 31
0.0
  0
LINE
  8
0
 62
     0
 10
12.1447
 20
50.1826
 30
0.0
 11
10.6192
 21
50.1826
 31
0.0
  0
LINE
  8
0
 62
     0
 10
10.6192
 20
50.1826
 30
0.0
 11
10.6192
 21
53.4127
 31
0.0
  0
LINE
  8
0
 62
     0
 10
10.6192
 20
53.4127
 30
0.0
 11
3.86955
 21
53.4127
 31
0.0
  0
LINE
  8
0
 62
     0
 10
3.86955
 20
53.4127
 30
0.0
 11
3.86955
 21
50.1826
 31
0.0
  0
LINE
  8
0
 62
     0
 10
3.86955
 20
50.1826
 30
0.0
 11
3.04409
 21
50.1826
 31
0.0
  0
LINE
  8
0
 62
     0
 10
3.04409
 20
50.1826
 30
0.0
 11
3.04409
 21
47.3837
 31
0.0
  0
LINE
  8
0
 62
     0
 10
3.04409
 20
47.3837
 30
0.0
 11
3.86955
 21
47.3837
 31
0.0
  0
LINE
  8
0
 62
     0
 10
3.86955
 20
47.3837
 30
0.0
 11
3.86955
 21
41.1138
 31
0.0
  0
LINE
  8
0
 62
     0
 10
3.86955
 20
41.1138
 30
0.0
 11
5.59484
 21
41.1138
 31
0.0
  0
LINE
  8
0
 62
     0
 10
5.59484
 20
41.1138
 30
0.0
 11
5.59484
 21
39.9136
 31
0.0
  0
LINE
  8
0
 62
     0
 10
5.59484
 20
39.9136
 30
0.0
 11
8.89385
 21
39.9136
 31
0.0
  0
LINE
  8
0
 62
     0
 10
8.89385
 20
39.9136
 30
0.0
 11
8.89385
 21
41.1138
 31
0.0
  0
LINE
  8
0
 62
     0
 10
8.89385
 20
41.1138
 30
0.0
 11
10.6192
 21
41.1138
 31
0.0
  0
LINE
  8
0
 62
     0
 10
10.6192
 20
41.1138
 30
0.0
 11
10.6192
 21
45.5828
 31
0.0
  0
LINE
  8
0
 62
     0
 10
10.6192
 20
45.5828
 30
0.0
 11
12.1447
 21
45.5828
 31
0.0
  0
LINE
  8
0
 62
     0
 10
12.1447
 20
45.5828
 30
0.0
 11
12.1447
 21
40.8838
 31
0.0
  0
LINE
  8
0
 62
     0
 10
12.1447
 20
40.8838
 30
0.0
 11
26.1441
 21
40.8838
 31
0.0
  0
LINE
  8
0
 62
     0
 10
26.1441
 20
40.8838
 30
0.0
 11
26.1441
 21
45.5828
 31
0.0
  0
LINE
  8
0
 62
     0
 10
26.1441
 20
45.5828
 30
0.0
 11
27.6696
 21
45.5828
 31
0.0
  0
LINE
  8
0
 62
     0
 10
27.6696
 20
45.5828
 30
0.0
 11
27.6696
 21
41.1138
 31
0.0
  0
LINE
  8
0
 62
     0
 10
27.6696
 20
41.1138
 30
0.0
 11
29.3949
 21
41.1138
 31
0.0
  0
LINE
  8
0
 62
     0
 10
29.3949
 20
41.1138
 30
0.0
 11
29.3949
 21
39.9136
 31
0.0
  0
LINE
  8
0
 62
     0
 10
29.3949
 20
39.9136
 30
0.0
 11
32.694
 21
39.9136
 31
0.0
  0
LINE
  8
0
 62
     0
 10
32.694
 20
39.9136
 30
0.0
 11
32.694
 21
41.1138
 31
0.0
  0
LINE
  8
0
 62
     0
 10
32.694
 20
41.1138
 30
0.0
 11
34.4193
 21
41.1138
 31
0.0
  0
LINE
  8
0
 62
     0
 10
34.4193
 20
41.1138
 30
0.0
 11
34.4193
 21
47.3837
 31
0.0
  0
LINE
  8
0
 62
     0
 10
34.4193
 20
47.3837
 30
0.0
 11
35.2447
 21
47.3837
 31
0.0
  0
LINE
  8
0
 62
     0
 10
35.2447
 20
47.3837
 30
0.0
 11
35.2447
 21
50.1826
 31
0.0
  0
LINE
  8
0
 62
     0
 10
35.2447
 20
50.1826
 30
0.0
 11
34.4193
 21
50.1826
 31
0.0
  0
LINE
  8
0
 62
     0
 10
34.4193
 20
50.1826
 30
0.0
 11
34.4193
 21
53.4127
 31
0.0
  0
LINE
  8
0
 62
     0
 10
34.4193
 20
53.4127
 30
0.0
 11
27.6696
 21
53.4127
 31
0.0
  0
LINE
  8
0
 62
     0
 10
27.6696
 20
53.4127
 30
0.0
 11
27.6696
 21
50.1826
 31
0.0
  0
LINE
  8
0
 62
     0
 10
27.6696
 20
50.1826
 30
0.0
 11
26.1441
 21
50.1826
 31
0.0
  0
LINE
  8
0
 62
     0
 10
26.1441
 20
50.1826
 30
0.0
 11
26.1441
 21
54.8831
 31
0.0
  0
LINE
  8
0
 62
     0
 10
26.1441
 20
54.8831
 30
0.0
 11
12.1447
 21
54.8831
 31
0.0
  0
LINE
  8
0
 62
     0
 10
316.945
 20
54.8831
 30
0.0
 11
330.944
 21
54.8831
 31
0.0
  0
LINE
  8
0
 62
     0
 10
330.944
 20
54.8831
 30
0.0
 11
330.944
 21
40.8838
 31
0.0
  0
LINE
  8
0
 62
     0
 10
330.944
 20
40.8838
 30
0.0
 11
316.945
 21
40.8838
 31
0.0
  0
LINE
  8
0
 62
     0
 10
316.945
 20
40.8838
 30
0.0
 11
316.945
 21
54.8831
 31
0.0
  0
LINE
  8
0
 62
     0
 10
271.701
 20
54.8831
 30
0.0
 11
285.7
 21
54.8831
 31
0.0
  0
LINE
  8
0
 62
     0
 10
285.7
 20
54.8831
 30
0.0
 11
285.7
 21
40.8838
 31
0.0
  0
LINE
  8
0
 62
     0
 10
285.7
 20
40.8838
 30
0.0
 11
271.701
 21
40.8838
 31
0.0
  0
LINE
  8
0
 62
     0
 10
271.701
 20
40.8838
 30
0.0
 11
271.701
 21
54.8831
 31
0.0
  0
LINE
  8
0
 62
     0
 10
250.27
 20
54.8831
 30
0.0
 11
264.269
 21
54.8831
 31
0.0
  0
LINE
  8
0
 62
     0
 10
264.269
 20
54.8831
 30
0.0
 11
264.269
 21
40.8838
 31
0.0
  0
LINE
  8
0
 62
     0
 10
264.269
 20
40.8838
 30
0.0
 11
250.27
 21
40.8838
 31
0.0
  0
LINE
  8
0
 62
     0
 10
250.27
 20
40.8838
 30
0.0
 11
250.27
 21
54.8831
 31
0.0
  0
LINE
  8
0
 62
     0
 10
231.22
 20
54.8831
 30
0.0
 11
245.219
 21
54.8831
 31
0.0
  0
LINE
  8
0
 62
     0
 10
245.219
 20
54.8831
 30
0.0
 11
245.219
 21
40.8838
 31
0.0
  0
LINE
  8
0
 62
     0
 10
245.219
 20
40.8838
 30
0.0
 11
231.22
 21
40.8838
 31
0.0
  0
LINE
  8
0
 62
     0
 10
231.22
 20
40.8838
 30
0.0
 11
231.22
 21
54.8831
 31
0.0
  0
LINE
  8
0
 62
     0
 10
212.17
 20
54.8831
 30
0.0
 11
226.169
 21
54.8831
 31
0.0
  0
LINE
  8
0
 62
     0
 10
226.169
 20
54.8831
 30
0.0
 11
226.169
 21
40.8838
 31
0.0
  0
LINE
  8
0
 62
     0
 10
226.169
 20
40.8838
 30
0.0
 11
212.17
 21
40.8838
 31
0.0
  0
LINE
  8
0
 62
     0
 10
212.17
 20
40.8838
 30
0.0
 11
212.17
 21
54.8831
 31
0.0
  0
LINE
  8
0
 62
     0
 10
193.12
 20
54.8831
 30
0.0
 11
207.119
 21
54.8831
 31
0.0
  0
LINE
  8
0
 62
     0
 10
207.119
 20
54.8831
 30
0.0
 11
207.119
 21
40.8838
 31
0.0
  0
LINE
  8
0
 62
     0
 10
207.119
 20
40.8838
 30
0.0
 11
193.12
 21
40.8838
 31
0.0
  0
LINE
  8
0
 62
     0
 10
193.12
 20
40.8838
 30
0.0
 11
193.12
 21
54.8831
 31
0.0
  0
LINE
  8
0
 62
     0
 10
174.07
 20
54.8831
 30
0.0
 11
188.069
 21
54.8831
 31
0.0
  0
LINE
  8
0
 62
     0
 10
188.069
 20
54.8831
 30
0.0
 11
188.069
 21
40.8838
 31
0.0
  0
LINE
  8
0
 62
     0
 10
188.069
 20
40.8838
 30
0.0
 11
174.07
 21
40.8838
 31
0.0
  0
LINE
  8
0
 62
     0
 10
174.07
 20
40.8838
 30
0.0
 11
174.07
 21
54.8831
 31
0.0
  0
LINE
  8
0
 62
     0
 10
155.02
 20
54.8831
 30
0.0
 11
169.019
 21
54.8831
 31
0.0
  0
LINE
  8
0
 62
     0
 10
169.019
 20
54.8831
 30
0.0
 11
169.019
 21
40.8838
 31
0.0
  0
LINE
  8
0
 62
     0
 10
169.019
 20
40.8838
 30
0.0
 11
155.02
 21
40.8838
 31
0.0
  0
LINE
  8
0
 62
     0
 10
155.02
 20
40.8838
 30
0.0
 11
155.02
 21
54.8831
 31
0.0
  0
LINE
  8
0
 62
     0
 10
135.97
 20
54.8831
 30
0.0
 11
149.969
 21
54.8831
 31
0.0
  0
LINE
  8
0
 62
     0
 10
149.969
 20
54.8831
 30
0.0
 11
149.969
 21
40.8838
 31
0.0
  0
LINE
  8
0
 62
     0
 10
149.969
 20
40.8838
 30
0.0
 11
135.97
 21
40.8838
 31
0.0
  0
LINE
  8
0
 62
     0
 10
135.97
 20
40.8838
 30
0.0
 11
135.97
 21
54.8831
 31
0.0
  0
LINE
  8
0
 62
     0
 10
116.918
 20
54.8831
 30
0.0
 11
130.919
 21
54.8831
 31
0.0
  0
LINE
  8
0
 62
     0
 10
130.919
 20
54.8831
 30
0.0
 11
130.919
 21
40.8838
 31
0.0
  0
LINE
  8
0
 62
     0
 10
130.919
 20
40.8838
 30
0.0
 11
116.918
 21
40.8838
 31
0.0
  0
LINE
  8
0
 62
     0
 10
116.918
 20
40.8838
 30
0.0
 11
116.918
 21
54.8831
 31
0.0
  0
LINE
  8
0
 62
     0
 10
97.8683
 20
54.8831
 30
0.0
 11
111.869
 21
54.8831
 31
0.0
  0
LINE
  8
0
 62
     0
 10
111.869
 20
54.8831
 30
0.0
 11
111.869
 21
40.8838
 31
0.0
  0
LINE
  8
0
 62
     0
 10
111.869
 20
40.8838
 30
0.0
 11
97.8683
 21
40.8838
 31
0.0
  0
LINE
  8
0
 62
     0
 10
97.8683
 20
40.8838
 30
0.0
 11
97.8683
 21
54.8831
 31
0.0
  0
LINE
  8
0
 62
     0
 10
78.8197
 20
54.8831
 30
0.0
 11
92.819
 21
54.8831
 31
0.0
  0
LINE
  8
0
 62
     0
 10
92.819
 20
54.8831
 30
0.0
 11
92.819
 21
40.8838
 31
0.0
  0
LINE
  8
0
 62
     0
 10
92.819
 20
40.8838
 30
0.0
 11
78.8197
 21
40.8838
 31
0.0
  0
LINE
  8
0
 62
     0
 10
78.8197
 20
40.8838
 30
0.0
 11
78.8197
 21
54.8831
 31
0.0
  0
LINE
  8
0
 62
     0
 10
59.7697
 20
54.8831
 30
0.0
 11
73.769
 21
54.8831
 31
0.0
  0
LINE
  8
0
 62
     0
 10
73.769
 20
54.8831
 30
0.0
 11
73.769
 21
40.8838
 31
0.0
  0
LINE
  8
0
 62
     0
 10
73.769
 20
40.8838
 30
0.0
 11
59.7697
 21
40.8838
 31
0.0
  0
LINE
  8
0
 62
     0
 10
59.7697
 20
40.8838
 30
0.0
 11
59.7697
 21
54.8831
 31
0.0
  0
LINE
  8
0
 62
     0
 10
40.7197
 20
54.8831
 30
0.0
 11
54.719
 21
54.8831
 31
0.0
  0
LINE
  8
0
 62
     0
 10
54.719
 20
54.8831
 30
0.0
 11
54.719
 21
40.8838
 31
0.0
  0
LINE
  8
0
 62
     0
 10
54.719
 20
40.8838
 30
0.0
 11
40.7197
 21
40.8838
 31
0.0
  0
LINE
  8
0
 62
     0
 10
40.7197
 20
40.8838
 30
0.0
 11
40.7197
 21
54.8831
 31
0.0
  0
LINE
  8
0
 62
     0
 10
316.945
 20
73.9331
 30
0.0
 11
330.944
 21
73.9331
 31
0.0
  0
LINE
  8
0
 62
     0
 10
330.944
 20
73.9331
 30
0.0
 11
330.944
 21
59.9338
 31
0.0
  0
LINE
  8
0
 62
     0
 10
330.944
 20
59.9338
 30
0.0
 11
316.945
 21
59.9338
 31
0.0
  0
LINE
  8
0
 62
     0
 10
316.945
 20
59.9338
 30
0.0
 11
316.945
 21
73.9331
 31
0.0
  0
LINE
  8
0
 62
     0
 10
269.32
 20
73.9331
 30
0.0
 11
283.319
 21
73.9331
 31
0.0
  0
LINE
  8
0
 62
     0
 10
283.319
 20
73.9331
 30
0.0
 11
283.319
 21
59.9338
 31
0.0
  0
LINE
  8
0
 62
     0
 10
283.319
 20
59.9338
 30
0.0
 11
269.32
 21
59.9338
 31
0.0
  0
LINE
  8
0
 62
     0
 10
269.32
 20
59.9338
 30
0.0
 11
269.32
 21
73.9331
 31
0.0
  0
LINE
  8
0
 62
     0
 10
245.507
 20
73.9331
 30
0.0
 11
259.507
 21
73.9331
 31
0.0
  0
LINE
  8
0
 62
     0
 10
259.507
 20
73.9331
 30
0.0
 11
259.507
 21
59.9338
 31
0.0
  0
LINE
  8
0
 62
     0
 10
259.507
 20
59.9338
 30
0.0
 11
245.507
 21
59.9338
 31
0.0
  0
LINE
  8
0
 62
     0
 10
245.507
 20
59.9338
 30
0.0
 11
245.507
 21
73.9331
 31
0.0
  0
LINE
  8
0
 62
     0
 10
226.457
 20
73.9331
 30
0.0
 11
240.457
 21
73.9331
 31
0.0
  0
LINE
  8
0
 62
     0
 10
240.457
 20
73.9331
 30
0.0
 11
240.457
 21
59.9338
 31
0.0
  0
LINE
  8
0
 62
     0
 10
240.457
 20
59.9338
 30
0.0
 11
226.457
 21
59.9338
 31
0.0
  0
LINE
  8
0
 62
     0
 10
226.457
 20
59.9338
 30
0.0
 11
226.457
 21
73.9331
 31
0.0
  0
LINE
  8
0
 62
     0
 10
207.407
 20
73.9331
 30
0.0
 11
221.407
 21
73.9331
 31
0.0
  0
LINE
  8
0
 62
     0
 10
221.407
 20
73.9331
 30
0.0
 11
221.407
 21
59.9338
 31
0.0
  0
LINE
  8
0
 62
     0
 10
221.407
 20
59.9338
 30
0.0
 11
207.407
 21
59.9338
 31
0.0
  0
LINE
  8
0
 62
     0
 10
207.407
 20
59.9338
 30
0.0
 11
207.407
 21
73.9331
 31
0.0
  0
LINE
  8
0
 62
     0
 10
188.357
 20
73.9331
 30
0.0
 11
202.357
 21
73.9331
 31
0.0
  0
LINE
  8
0
 62
     0
 10
202.357
 20
73.9331
 30
0.0
 11
202.357
 21
59.9338
 31
0.0
  0
LINE
  8
0
 62
     0
 10
202.357
 20
59.9338
 30
0.0
 11
188.357
 21
59.9338
 31
0.0
  0
LINE
  8
0
 62
     0
 10
188.357
 20
59.9338
 30
0.0
 11
188.357
 21
73.9331
 31
0.0
  0
LINE
  8
0
 62
     0
 10
169.307
 20
73.9331
 30
0.0
 11
183.307
 21
73.9331
 31
0.0
  0
LINE
  8
0
 62
     0
 10
183.307
 20
73.9331
 30
0.0
 11
183.307
 21
59.9338
 31
0.0
  0
LINE
  8
0
 62
     0
 10
183.307
 20
59.9338
 30
0.0
 11
169.307
 21
59.9338
 31
0.0
  0
LINE
  8
0
 62
     0
 10
169.307
 20
59.9338
 30
0.0
 11
169.307
 21
73.9331
 31
0.0
  0
LINE
  8
0
 62
     0
 10
150.257
 20
73.9331
 30
0.0
 11
164.257
 21
73.9331
 31
0.0
  0
LINE
  8
0
 62
     0
 10
164.257
 20
73.9331
 30
0.0
 11
164.257
 21
59.9338
 31
0.0
  0
LINE
  8
0
 62
     0
 10
164.257
 20
59.9338
 30
0.0
 11
150.257
 21
59.9338
 31
0.0
  0
LINE
  8
0
 62
     0
 10
150.257
 20
59.9338
 30
0.0
 11
150.257
 21
73.9331
 31
0.0
  0
LINE
  8
0
 62
     0
 10
131.207
 20
73.9331
 30
0.0
 11
145.207
 21
73.9331
 31
0.0
  0
LINE
  8
0
 62
     0
 10
145.207
 20
73.9331
 30
0.0
 11
145.207
 21
59.9338
 31
0.0
  0
LINE
  8
0
 62
     0
 10
145.207
 20
59.9338
 30
0.0
 11
131.207
 21
59.9338
 31
0.0
  0
LINE
  8
0
 62
     0
 10
131.207
 20
59.9338
 30
0.0
 11
131.207
 21
73.9331
 31
0.0
  0
LINE
  8
0
 62
     0
 10
112.157
 20
73.9331
 30
0.0
 11
126.157
 21
73.9331
 31
0.0
  0
LINE
  8
0
 62
     0
 10
126.157
 20
73.9331
 30
0.0
 11
126.157
 21
59.9338
 31
0.0
  0
LINE
  8
0
 62
     0
 10
126.157
 20
59.9338
 30
0.0
 11
112.157
 21
59.9338
 31
0.0
  0
LINE
  8
0
 62
     0
 10
112.157
 20
59.9338
 30
0.0
 11
112.157
 21
73.9331
 31
0.0
  0
LINE
  8
0
 62
     0
 10
93.1072
 20
73.9331
 30
0.0
 11
107.107
 21
73.9331
 31
0.0
  0
LINE
  8
0
 62
     0
 10
107.107
 20
73.9331
 30
0.0
 11
107.107
 21
59.9338
 31
0.0
  0
LINE
  8
0
 62
     0
 10
107.107
 20
59.9338
 30
0.0
 11
93.1072
 21
59.9338
 31
0.0
  0
LINE
  8
0
 62
     0
 10
93.1072
 20
59.9338
 30
0.0
 11
93.1072
 21
73.9331
 31
0.0
  0
LINE
  8
0
 62
     0
 10
74.0572
 20
73.9331
 30
0.0
 11
88.0565
 21
73.9331
 31
0.0
  0
LINE
  8
0
 62
     0
 10
88.0565
 20
73.9331
 30
0.0
 11
88.0565
 21
59.9338
 31
0.0
  0
LINE
  8
0
 62
     0
 10
88.0565
 20
59.9338
 30
0.0
 11
74.0572
 21
59.9338
 31
0.0
  0
LINE
  8
0
 62
     0
 10
74.0572
 20
59.9338
 30
0.0
 11
74.0572
 21
73.9331
 31
0.0
  0
LINE
  8
0
 62
     0
 10
55.0072
 20
73.9331
 30
0.0
 11
69.0065
 21
73.9331
 31
0.0
  0
LINE
  8
0
 62
     0
 10
69.0065
 20
73.9331
 30
0.0
 11
69.0065
 21
59.9338
 31
0.0
  0
LINE
  8
0
 62
     0
 10
69.0065
 20
59.9338
 30
0.0
 11
55.0072
 21
59.9338
 31
0.0
  0
LINE
  8
0
 62
     0
 10
55.0072
 20
59.9338
 30
0.0
 11
55.0072
 21
73.9331
 31
0.0
  0
LINE
  8
0
 62
     0
 10
35.9572
 20
73.9331
 30
0.0
 11
49.9565
 21
73.9331
 31
0.0
  0
LINE
  8
0
 62
     0
 10
49.9565
 20
73.9331
 30
0.0
 11
49.9565
 21
59.9338
 31
0.0
  0
LINE
  8
0
 62
     0
 10
49.9565
 20
59.9338
 30
0.0
 11
35.9572
 21
59.9338
 31
0.0
  0
LINE
  8
0
 62
     0
 10
35.9572
 20
59.9338
 30
0.0
 11
35.9572
 21
73.9331
 31
0.0
  0
LINE
  8
0
 62
     0
 10
9.76203
 20
73.9331
 30
0.0
 11
23.7629
 21
73.9331
 31
0.0
  0
LINE
  8
0
 62
     0
 10
23.7629
 20
73.9331
 30
0.0
 11
23.7629
 21
59.9338
 31
0.0
  0
LINE
  8
0
 62
     0
 10
23.7629
 20
59.9338
 30
0.0
 11
9.76203
 21
59.9338
 31
0.0
  0
LINE
  8
0
 62
     0
 10
9.76203
 20
59.9338
 30
0.0
 11
9.76203
 21
73.9331
 31
0.0
  0
LINE
  8
0
 62
     0
 10
316.945
 20
92.9831
 30
0.0
 11
330.944
 21
92.9831
 31
0.0
  0
LINE
  8
0
 62
     0
 10
330.944
 20
92.9831
 30
0.0
 11
330.944
 21
78.9838
 31
0.0
  0
LINE
  8
0
 62
     0
 10
330.944
 20
78.9838
 30
0.0
 11
316.945
 21
78.9838
 31
0.0
  0
LINE
  8
0
 62
     0
 10
316.945
 20
78.9838
 30
0.0
 11
316.945
 21
92.9831
 31
0.0
  0
LINE
  8
0
 62
     0
 10
274.082
 20
92.9831
 30
0.0
 11
288.082
 21
92.9831
 31
0.0
  0
LINE
  8
0
 62
     0
 10
288.082
 20
92.9831
 30
0.0
 11
288.082
 21
78.9838
 31
0.0
  0
LINE
  8
0
 62
     0
 10
288.082
 20
78.9838
 30
0.0
 11
274.082
 21
78.9838
 31
0.0
  0
LINE
  8
0
 62
     0
 10
274.082
 20
78.9838
 30
0.0
 11
274.082
 21
92.9831
 31
0.0
  0
LINE
  8
0
 62
     0
 10
255.032
 20
92.9831
 30
0.0
 11
269.032
 21
92.9831
 31
0.0
  0
LINE
  8
0
 62
     0
 10
269.032
 20
92.9831
 30
0.0
 11
269.032
 21
78.9838
 31
0.0
  0
LINE
  8
0
 62
     0
 10
269.032
 20
78.9838
 30
0.0
 11
255.032
 21
78.9838
 31
0.0
  0
LINE
  8
0
 62
     0
 10
255.032
 20
78.9838
 30
0.0
 11
255.032
 21
92.9831
 31
0.0
  0
LINE
  8
0
 62
     0
 10
235.982
 20
92.9831
 30
0.0
 11
249.982
 21
92.9831
 31
0.0
  0
LINE
  8
0
 62
     0
 10
249.982
 20
92.9831
 30
0.0
 11
249.982
 21
78.9838
 31
0.0
  0
LINE
  8
0
 62
     0
 10
249.982
 20
78.9838
 30
0.0
 11
235.982
 21
78.9838
 31
0.0
  0
LINE
  8
0
 62
     0
 10
235.982
 20
78.9838
 30
0.0
 11
235.982
 21
92.9831
 31
0.0
  0
LINE
  8
0
 62
     0
 10
216.932
 20
92.9831
 30
0.0
 11
230.932
 21
92.9831
 31
0.0
  0
LINE
  8
0
 62
     0
 10
230.932
 20
92.9831
 30
0.0
 11
230.932
 21
78.9838
 31
0.0
  0
LINE
  8
0
 62
     0
 10
230.932
 20
78.9838
 30
0.0
 11
216.932
 21
78.9838
 31
0.0
  0
LINE
  8
0
 62
     0
 10
216.932
 20
78.9838
 30
0.0
 11
216.932
 21
92.9831
 31
0.0
  0
LINE
  8
0
 62
     0
 10
197.882
 20
92.9831
 30
0.0
 11
211.882
 21
92.9831
 31
0.0
  0
LINE
  8
0
 62
     0
 10
211.882
 20
92.9831
 30
0.0
 11
211.882
 21
78.9838
 31
0.0
  0
LINE
  8
0
 62
     0
 10
211.882
 20
78.9838
 30
0.0
 11
197.882
 21
78.9838
 31
0.0
  0
LINE
  8
0
 62
     0
 10
197.882
 20
78.9838
 30
0.0
 11
197.882
 21
92.9831
 31
0.0
  0
LINE
  8
0
 62
     0
 10
178.832
 20
92.9831
 30
0.0
 11
192.832
 21
92.9831
 31
0.0
  0
LINE
  8
0
 62
     0
 10
192.832
 20
92.9831
 30
0.0
 11
192.832
 21
78.9838
 31
0.0
  0
LINE
  8
0
 62
     0
 10
192.832
 20
78.9838
 30
0.0
 11
178.832
 21
78.9838
 31
0.0
  0
LINE
  8
0
 62
     0
 10
178.832
 20
78.9838
 30
0.0
 11
178.832
 21
92.9831
 31
0.0
  0
LINE
  8
0
 62
     0
 10
159.782
 20
92.9831
 30
0.0
 11
173.782
 21
92.9831
 31
0.0
  0
LINE
  8
0
 62
     0
 10
173.782
 20
92.9831
 30
0.0
 11
173.782
 21
78.9838
 31
0.0
  0
LINE
  8
0
 62
     0
 10
173.782
 20
78.9838
 30
0.0
 11
159.782
 21
78.9838
 31
0.0
  0
LINE
  8
0
 62
     0
 10
159.782
 20
78.9838
 30
0.0
 11
159.782
 21
92.9831
 31
0.0
  0
LINE
  8
0
 62
     0
 10
140.732
 20
92.9831
 30
0.0
 11
154.732
 21
92.9831
 31
0.0
  0
LINE
  8
0
 62
     0
 10
154.732
 20
92.9831
 30
0.0
 11
154.732
 21
78.9838
 31
0.0
  0
LINE
  8
0
 62
     0
 10
154.732
 20
78.9838
 30
0.0
 11
140.732
 21
78.9838
 31
0.0
  0
LINE
  8
0
 62
     0
 10
140.732
 20
78.9838
 30
0.0
 11
140.732
 21
92.9831
 31
0.0
  0
LINE
  8
0
 62
     0
 10
121.682
 20
92.9831
 30
0.0
 11
135.682
 21
92.9831
 31
0.0
  0
LINE
  8
0
 62
     0
 10
135.682
 20
92.9831
 30
0.0
 11
135.682
 21
78.9838
 31
0.0
  0
LINE
  8
0
 62
     0
 10
135.682
 20
78.9838
 30
0.0
 11
121.682
 21
78.9838
 31
0.0
  0
LINE
  8
0
 62
     0
 10
121.682
 20
78.9838
 30
0.0
 11
121.682
 21
92.9831
 31
0.0
  0
LINE
  8
0
 62
     0
 10
102.632
 20
92.9831
 30
0.0
 11
116.632
 21
92.9831
 31
0.0
  0
LINE
  8
0
 62
     0
 10
116.632
 20
92.9831
 30
0.0
 11
116.632
 21
78.9838
 31
0.0
  0
LINE
  8
0
 62
     0
 10
116.632
 20
78.9838
 30
0.0
 11
102.632
 21
78.9838
 31
0.0
  0
LINE
  8
0
 62
     0
 10
102.632
 20
78.9838
 30
0.0
 11
102.632
 21
92.9831
 31
0.0
  0
LINE
  8
0
 62
     0
 10
83.5822
 20
92.9831
 30
0.0
 11
97.5815
 21
92.9831
 31
0.0
  0
LINE
  8
0
 62
     0
 10
97.5815
 20
92.9831
 30
0.0
 11
97.5815
 21
78.9838
 31
0.0
  0
LINE
  8
0
 62
     0
 10
97.5815
 20
78.9838
 30
0.0
 11
83.5822
 21
78.9838
 31
0.0
  0
LINE
  8
0
 62
     0
 10
83.5822
 20
78.9838
 30
0.0
 11
83.5822
 21
92.9831
 31
0.0
  0
LINE
  8
0
 62
     0
 10
64.5322
 20
92.9831
 30
0.0
 11
78.5315
 21
92.9831
 31
0.0
  0
LINE
  8
0
 62
     0
 10
78.5315
 20
92.9831
 30
0.0
 11
78.5315
 21
78.9838
 31
0.0
  0
LINE
  8
0
 62
     0
 10
78.5315
 20
78.9838
 30
0.0
 11
64.5322
 21
78.9838
 31
0.0
  0
LINE
  8
0
 62
     0
 10
64.5322
 20
78.9838
 30
0.0
 11
64.5322
 21
92.9831
 31
0.0
  0
LINE
  8
0
 62
     0
 10
45.4822
 20
92.9831
 30
0.0
 11
59.4815
 21
92.9831
 31
0.0
  0
LINE
  8
0
 62
     0
 10
59.4815
 20
92.9831
 30
0.0
 11
59.4815
 21
78.9838
 31
0.0
  0
LINE
  8
0
 62
     0
 10
59.4815
 20
78.9838
 30
0.0
 11
45.4822
 21
78.9838
 31
0.0
  0
LINE
  8
0
 62
     0
 10
45.4822
 20
78.9838
 30
0.0
 11
45.4822
 21
92.9831
 31
0.0
  0
LINE
  8
0
 62
     0
 10
26.4322
 20
92.9831
 30
0.0
 11
40.4315
 21
92.9831
 31
0.0
  0
LINE
  8
0
 62
     0
 10
40.4315
 20
92.9831
 30
0.0
 11
40.4315
 21
78.9838
 31
0.0
  0
LINE
  8
0
 62
     0
 10
40.4315
 20
78.9838
 30
0.0
 11
26.4322
 21
78.9838
 31
0.0
  0
LINE
  8
0
 62
     0
 10
26.4322
 20
78.9838
 30
0.0
 11
26.4322
 21
92.9831
 31
0.0
  0
LINE
  8
0
 62
     0
 10
5.00091
 20
92.9831
 30
0.0
 11
19.0004
 21
92.9831
 31
0.0
  0
LINE
  8
0
 62
     0
 10
19.0004
 20
92.9831
 30
0.0
 11
19.0004
 21
78.9838
 31
0.0
  0
LINE
  8
0
 62
     0
 10
19.0004
 20
78.9838
 30
0.0
 11
5.00091
 21
78.9838
 31
0.0
  0
LINE
  8
0
 62
     0
 10
5.00091
 20
78.9838
 30
0.0
 11
5.00091
 21
92.9831
 31
0.0
  0
LINE
  8
0
 62
     0
 10
59.7697
 20
121.558
 30
0.0
 11
73.769
 21
121.558
 31
0.0
  0
LINE
  8
0
 62
     0
 10
73.769
 20
121.558
 30
0.0
 11
73.769
 21
107.559
 31
0.0
  0
LINE
  8
0
 62
     0
 10
73.769
 20
107.559
 30
0.0
 11
59.7697
 21
107.559
 31
0.0
  0
LINE
  8
0
 62
     0
 10
59.7697
 20
107.559
 30
0.0
 11
59.7697
 21
121.558
 31
0.0
  0
LINE
  8
0
 62
     0
 10
40.7197
 20
121.558
 30
0.0
 11
54.719
 21
121.558
 31
0.0
  0
LINE
  8
0
 62
     0
 10
54.719
 20
121.558
 30
0.0
 11
54.719
 21
107.559
 31
0.0
  0
LINE
  8
0
 62
     0
 10
54.719
 20
107.559
 30
0.0
 11
40.7197
 21
107.559
 31
0.0
  0
LINE
  8
0
 62
     0
 10
40.7197
 20
107.559
 30
0.0
 11
40.7197
 21
121.558
 31
0.0
  0
LINE
  8
0
 62
     0
 10
21.6697
 20
121.558
 30
0.0
 11
35.669
 21
121.558
 31
0.0
  0
LINE
  8
0
 62
     0
 10
35.669
 20
121.558
 30
0.0
 11
35.669
 21
107.559
 31
0.0
  0
LINE
  8
0
 62
     0
 10
35.669
 20
107.559
 30
0.0
 11
21.6697
 21
107.559
 31
0.0
  0
LINE
  8
0
 62
     0
 10
21.6697
 20
107.559
 30
0.0
 11
21.6697
 21
121.558
 31
0.0
  0
LINE
  8
0
 62
     0
 10
2.61965
 20
121.558
 30
0.0
 11
16.6192
 21
121.558
 31
0.0
  0
LINE
  8
0
 62
     0
 10
16.6192
 20
121.558
 30
0.0
 11
16.6192
 21
107.559
 31
0.0
  0
LINE
  8
0
 62
     0
 10
16.6192
 20
107.559
 30
0.0
 11
2.61965
 21
107.559
 31
0.0
  0
LINE
  8
0
 62
     0
 10
2.61965
 20
107.559
 30
0.0
 11
2.61965
 21
121.558
 31
0.0
  0
ENDSEC
  0
EOF
