0
SECTION
2
HEADER
9
$INSUNITS
70
4
9
$INSBASE
10
0.0
20
0.0
30
0.0
9
$EXTMIN
10
0
20
0
9
$EXTMAX
10
303.66650000000004
20
133.5625
0
ENDSEC
0
SECTION
2
TABLES
0
TABLE
2
LTYPE
70
1
0
LTYPE
2
CONTINUOUS
70
64
3
Solid line
72
65
73
0
40
0.0
0
ENDTAB
0
TABLE
2
LAYER
70
1
0
LAYER
2
Layer1
70
64
62
7
6
CONTINUOUS
0
ENDTAB
0
TABLE
2
STYLE
70
0
0
ENDTAB
0
TABLE
2
VIEW
70
0
0
ENDTAB
0
ENDSEC
0
SECTION
2
BLOCKS
0
ENDSEC
0
SECTION
2
ENTITIES
0
POLYLINE
5
2f3e
8
Layer1
66
1
10
0.0
20
0.0
30
0.0
70
1
0
VERTEX
5
2f3f
8
Layer1
10
0.0000
20
0.0000
30
0.0
0
VERTEX
5
2f40
8
Layer1
10
303.6665
20
0.0000
30
0.0
0
VERTEX
5
2f41
8
Layer1
10
303.6665
20
133.5625
30
0.0
0
VERTEX
5
2f42
8
Layer1
10
0.0000
20
133.5625
30
0.0
0
VERTEX
5
2f43
8
Layer1
10
0.0000
20
0.0000
30
0.0
0
SEQEND
5
2f44
8
Layer1
0
POLYLINE
5
2f45
8
Layer1
66
1
10
0.0
20
0.0
30
0.0
70
1
0
VERTEX
5
2f46
8
Layer1
10
21.4060
20
127.2045
30
0.0
0
VERTEX
5
2f47
8
Layer1
10
7.4060
20
127.2045
30
0.0
0
VERTEX
5
2f48
8
Layer1
10
7.4060
20
113.2045
30
0.0
0
VERTEX
5
2f49
8
Layer1
10
21.4060
20
113.2045
30
0.0
0
VERTEX
5
2f4a
8
Layer1
10
21.4060
20
127.2045
30
0.0
0
SEQEND
5
2f4b
8
Layer1
0
POLYLINE
5
2f4c
8
Layer1
66
1
10
0.0
20
0.0
30
0.0
70
1
0
VERTEX
5
2f4d
8
Layer1
10
40.4560
20
127.2045
30
0.0
0
VERTEX
5
2f4e
8
Layer1
10
26.4560
20
127.2045
30
0.0
0
VERTEX
5
2f4f
8
Layer1
10
26.4560
20
113.2045
30
0.0
0
VERTEX
5
2f50
8
Layer1
10
40.4560
20
113.2045
30
0.0
0
VERTEX
5
2f51
8
Layer1
10
40.4560
20
127.2045
30
0.0
0
SEQEND
5
2f52
8
Layer1
0
POLYLINE
5
2f53
8
Layer1
66
1
10
0.0
20
0.0
30
0.0
70
1
0
VERTEX
5
2f54
8
Layer1
10
59.5060
20
127.2045
30
0.0
0
VERTEX
5
2f55
8
Layer1
10
45.5060
20
127.2045
30
0.0
0
VERTEX
5
2f56
8
Layer1
10
45.5060
20
113.2045
30
0.0
0
VERTEX
5
2f57
8
Layer1
10
59.5060
20
113.2045
30
0.0
0
VERTEX
5
2f58
8
Layer1
10
59.5060
20
127.2045
30
0.0
0
SEQEND
5
2f59
8
Layer1
0
POLYLINE
5
2f5a
8
Layer1
66
1
10
0.0
20
0.0
30
0.0
70
1
0
VERTEX
5
2f5b
8
Layer1
10
78.5560
20
127.2045
30
0.0
0
VERTEX
5
2f5c
8
Layer1
10
64.5560
20
127.2045
30
0.0
0
VERTEX
5
2f5d
8
Layer1
10
64.5560
20
113.2045
30
0.0
0
VERTEX
5
2f5e
8
Layer1
10
78.5560
20
113.2045
30
0.0
0
VERTEX
5
2f5f
8
Layer1
10
78.5560
20
127.2045
30
0.0
0
SEQEND
5
2f60
8
Layer1
0
POLYLINE
5
2f61
8
Layer1
66
1
10
0.0
20
0.0
30
0.0
70
1
0
VERTEX
5
2f62
8
Layer1
10
179.6170
20
127.2045
30
0.0
0
VERTEX
5
2f63
8
Layer1
10
165.6170
20
127.2045
30
0.0
0
VERTEX
5
2f64
8
Layer1
10
165.6170
20
113.2045
30
0.0
0
VERTEX
5
2f65
8
Layer1
10
179.6170
20
113.2045
30
0.0
0
VERTEX
5
2f66
8
Layer1
10
179.6170
20
127.2045
30
0.0
0
SEQEND
5
2f67
8
Layer1
0
POLYLINE
5
2f68
8
Layer1
66
1
10
0.0
20
0.0
30
0.0
70
1
0
VERTEX
5
2f69
8
Layer1
10
208.1920
20
127.2045
30
0.0
0
VERTEX
5
2f6a
8
Layer1
10
194.1920
20
127.2045
30
0.0
0
VERTEX
5
2f6b
8
Layer1
10
194.1920
20
113.2045
30
0.0
0
VERTEX
5
2f6c
8
Layer1
10
208.1920
20
113.2045
30
0.0
0
VERTEX
5
2f6d
8
Layer1
10
208.1920
20
127.2045
30
0.0
0
SEQEND
5
2f6e
8
Layer1
0
POLYLINE
5
2f6f
8
Layer1
66
1
10
0.0
20
0.0
30
0.0
70
1
0
VERTEX
5
2f70
8
Layer1
10
236.7670
20
127.2045
30
0.0
0
VERTEX
5
2f71
8
Layer1
10
222.7670
20
127.2045
30
0.0
0
VERTEX
5
2f72
8
Layer1
10
222.7670
20
113.2045
30
0.0
0
VERTEX
5
2f73
8
Layer1
10
236.7670
20
113.2045
30
0.0
0
VERTEX
5
2f74
8
Layer1
10
236.7670
20
127.2045
30
0.0
0
SEQEND
5
2f75
8
Layer1
0
POLYLINE
5
2f76
8
Layer1
66
1
10
0.0
20
0.0
30
0.0
70
1
0
VERTEX
5
2f77
8
Layer1
10
265.3420
20
127.2045
30
0.0
0
VERTEX
5
2f78
8
Layer1
10
251.3420
20
127.2045
30
0.0
0
VERTEX
5
2f79
8
Layer1
10
251.3420
20
113.2045
30
0.0
0
VERTEX
5
2f7a
8
Layer1
10
265.3420
20
113.2045
30
0.0
0
VERTEX
5
2f7b
8
Layer1
10
265.3420
20
127.2045
30
0.0
0
SEQEND
5
2f7c
8
Layer1
0
POLYLINE
5
2f7d
8
Layer1
66
1
10
0.0
20
0.0
30
0.0
70
1
0
VERTEX
5
2f7e
8
Layer1
10
293.9170
20
127.2045
30
0.0
0
VERTEX
5
2f7f
8
Layer1
10
279.9170
20
127.2045
30
0.0
0
VERTEX
5
2f80
8
Layer1
10
279.9170
20
113.2045
30
0.0
0
VERTEX
5
2f81
8
Layer1
10
293.9170
20
113.2045
30
0.0
0
VERTEX
5
2f82
8
Layer1
10
293.9170
20
127.2045
30
0.0
0
SEQEND
5
2f83
8
Layer1
0
POLYLINE
5
2f84
8
Layer1
66
1
10
0.0
20
0.0
30
0.0
70
1
0
VERTEX
5
2f85
8
Layer1
10
23.7880
20
95.2005
30
0.0
0
VERTEX
5
2f86
8
Layer1
10
9.7880
20
95.2005
30
0.0
0
VERTEX
5
2f87
8
Layer1
10
9.7880
20
81.2005
30
0.0
0
VERTEX
5
2f88
8
Layer1
10
23.7880
20
81.2005
30
0.0
0
VERTEX
5
2f89
8
Layer1
10
23.7880
20
95.2005
30
0.0
0
SEQEND
5
2f8a
8
Layer1
0
POLYLINE
5
2f8b
8
Layer1
66
1
10
0.0
20
0.0
30
0.0
70
1
0
VERTEX
5
2f8c
8
Layer1
10
42.8380
20
95.2005
30
0.0
0
VERTEX
5
2f8d
8
Layer1
10
28.8380
20
95.2005
30
0.0
0
VERTEX
5
2f8e
8
Layer1
10
28.8380
20
81.2005
30
0.0
0
VERTEX
5
2f8f
8
Layer1
10
42.8380
20
81.2005
30
0.0
0
VERTEX
5
2f90
8
Layer1
10
42.8380
20
95.2005
30
0.0
0
SEQEND
5
2f91
8
Layer1
0
POLYLINE
5
2f92
8
Layer1
66
1
10
0.0
20
0.0
30
0.0
70
1
0
VERTEX
5
2f93
8
Layer1
10
61.8880
20
95.2005
30
0.0
0
VERTEX
5
2f94
8
Layer1
10
47.8880
20
95.2005
30
0.0
0
VERTEX
5
2f95
8
Layer1
10
47.8880
20
81.2005
30
0.0
0
VERTEX
5
2f96
8
Layer1
10
61.8880
20
81.2005
30
0.0
0
VERTEX
5
2f97
8
Layer1
10
61.8880
20
95.2005
30
0.0
0
SEQEND
5
2f98
8
Layer1
0
POLYLINE
5
2f99
8
Layer1
66
1
10
0.0
20
0.0
30
0.0
70
1
0
VERTEX
5
2f9a
8
Layer1
10
80.9380
20
95.2005
30
0.0
0
VERTEX
5
2f9b
8
Layer1
10
66.9380
20
95.2005
30
0.0
0
VERTEX
5
2f9c
8
Layer1
10
66.9380
20
81.2005
30
0.0
0
VERTEX
5
2f9d
8
Layer1
10
80.9380
20
81.2005
30
0.0
0
VERTEX
5
2f9e
8
Layer1
10
80.9380
20
95.2005
30
0.0
0
SEQEND
5
2f9f
8
Layer1
0
POLYLINE
5
2fa0
8
Layer1
66
1
10
0.0
20
0.0
30
0.0
70
1
0
VERTEX
5
2fa1
8
Layer1
10
99.9880
20
95.2005
30
0.0
0
VERTEX
5
2fa2
8
Layer1
10
85.9880
20
95.2005
30
0.0
0
VERTEX
5
2fa3
8
Layer1
10
85.9880
20
81.2005
30
0.0
0
VERTEX
5
2fa4
8
Layer1
10
99.9880
20
81.2005
30
0.0
0
VERTEX
5
2fa5
8
Layer1
10
99.9880
20
95.2005
30
0.0
0
SEQEND
5
2fa6
8
Layer1
0
POLYLINE
5
2fa7
8
Layer1
66
1
10
0.0
20
0.0
30
0.0
70
1
0
VERTEX
5
2fa8
8
Layer1
10
119.0380
20
95.2005
30
0.0
0
VERTEX
5
2fa9
8
Layer1
10
105.0380
20
95.2005
30
0.0
0
VERTEX
5
2faa
8
Layer1
10
105.0380
20
81.2005
30
0.0
0
VERTEX
5
2fab
8
Layer1
10
119.0380
20
81.2005
30
0.0
0
VERTEX
5
2fac
8
Layer1
10
119.0380
20
95.2005
30
0.0
0
SEQEND
5
2fad
8
Layer1
0
POLYLINE
5
2fae
8
Layer1
66
1
10
0.0
20
0.0
30
0.0
70
1
0
VERTEX
5
2faf
8
Layer1
10
138.0880
20
95.2005
30
0.0
0
VERTEX
5
2fb0
8
Layer1
10
124.0880
20
95.2005
30
0.0
0
VERTEX
5
2fb1
8
Layer1
10
124.0880
20
81.2005
30
0.0
0
VERTEX
5
2fb2
8
Layer1
10
138.0880
20
81.2005
30
0.0
0
VERTEX
5
2fb3
8
Layer1
10
138.0880
20
95.2005
30
0.0
0
SEQEND
5
2fb4
8
Layer1
0
POLYLINE
5
2fb5
8
Layer1
66
1
10
0.0
20
0.0
30
0.0
70
1
0
VERTEX
5
2fb6
8
Layer1
10
157.1380
20
95.2005
30
0.0
0
VERTEX
5
2fb7
8
Layer1
10
143.1380
20
95.2005
30
0.0
0
VERTEX
5
2fb8
8
Layer1
10
143.1380
20
81.2005
30
0.0
0
VERTEX
5
2fb9
8
Layer1
10
157.1380
20
81.2005
30
0.0
0
VERTEX
5
2fba
8
Layer1
10
157.1380
20
95.2005
30
0.0
0
SEQEND
5
2fbb
8
Layer1
0
POLYLINE
5
2fbc
8
Layer1
66
1
10
0.0
20
0.0
30
0.0
70
1
0
VERTEX
5
2fbd
8
Layer1
10
176.1880
20
95.2005
30
0.0
0
VERTEX
5
2fbe
8
Layer1
10
162.1880
20
95.2005
30
0.0
0
VERTEX
5
2fbf
8
Layer1
10
162.1880
20
81.2005
30
0.0
0
VERTEX
5
2fc0
8
Layer1
10
176.1880
20
81.2005
30
0.0
0
VERTEX
5
2fc1
8
Layer1
10
176.1880
20
95.2005
30
0.0
0
SEQEND
5
2fc2
8
Layer1
0
POLYLINE
5
2fc3
8
Layer1
66
1
10
0.0
20
0.0
30
0.0
70
1
0
VERTEX
5
2fc4
8
Layer1
10
195.2380
20
95.2005
30
0.0
0
VERTEX
5
2fc5
8
Layer1
10
181.2380
20
95.2005
30
0.0
0
VERTEX
5
2fc6
8
Layer1
10
181.2380
20
81.2005
30
0.0
0
VERTEX
5
2fc7
8
Layer1
10
195.2380
20
81.2005
30
0.0
0
VERTEX
5
2fc8
8
Layer1
10
195.2380
20
95.2005
30
0.0
0
SEQEND
5
2fc9
8
Layer1
0
POLYLINE
5
2fca
8
Layer1
66
1
10
0.0
20
0.0
30
0.0
70
1
0
VERTEX
5
2fcb
8
Layer1
10
214.2880
20
95.2005
30
0.0
0
VERTEX
5
2fcc
8
Layer1
10
200.2880
20
95.2005
30
0.0
0
VERTEX
5
2fcd
8
Layer1
10
200.2880
20
81.2005
30
0.0
0
VERTEX
5
2fce
8
Layer1
10
214.2880
20
81.2005
30
0.0
0
VERTEX
5
2fcf
8
Layer1
10
214.2880
20
95.2005
30
0.0
0
SEQEND
5
2fd0
8
Layer1
0
POLYLINE
5
2fd1
8
Layer1
66
1
10
0.0
20
0.0
30
0.0
70
1
0
VERTEX
5
2fd2
8
Layer1
10
233.3380
20
95.2005
30
0.0
0
VERTEX
5
2fd3
8
Layer1
10
219.3380
20
95.2005
30
0.0
0
VERTEX
5
2fd4
8
Layer1
10
219.3380
20
81.2005
30
0.0
0
VERTEX
5
2fd5
8
Layer1
10
233.3380
20
81.2005
30
0.0
0
VERTEX
5
2fd6
8
Layer1
10
233.3380
20
95.2005
30
0.0
0
SEQEND
5
2fd7
8
Layer1
0
POLYLINE
5
2fd8
8
Layer1
66
1
10
0.0
20
0.0
30
0.0
70
1
0
VERTEX
5
2fd9
8
Layer1
10
252.3880
20
95.2005
30
0.0
0
VERTEX
5
2fda
8
Layer1
10
238.3880
20
95.2005
30
0.0
0
VERTEX
5
2fdb
8
Layer1
10
238.3880
20
81.2005
30
0.0
0
VERTEX
5
2fdc
8
Layer1
10
252.3880
20
81.2005
30
0.0
0
VERTEX
5
2fdd
8
Layer1
10
252.3880
20
95.2005
30
0.0
0
SEQEND
5
2fde
8
Layer1
0
POLYLINE
5
2fdf
8
Layer1
66
1
10
0.0
20
0.0
30
0.0
70
1
0
VERTEX
5
2fe0
8
Layer1
10
271.4380
20
95.2005
30
0.0
0
VERTEX
5
2fe1
8
Layer1
10
257.4380
20
95.2005
30
0.0
0
VERTEX
5
2fe2
8
Layer1
10
257.4380
20
81.2005
30
0.0
0
VERTEX
5
2fe3
8
Layer1
10
271.4380
20
81.2005
30
0.0
0
VERTEX
5
2fe4
8
Layer1
10
271.4380
20
95.2005
30
0.0
0
SEQEND
5
2fe5
8
Layer1
0
POLYLINE
5
2fe6
8
Layer1
66
1
10
0.0
20
0.0
30
0.0
70
1
0
VERTEX
5
2fe7
8
Layer1
10
290.4880
20
95.2005
30
0.0
0
VERTEX
5
2fe8
8
Layer1
10
276.4880
20
95.2005
30
0.0
0
VERTEX
5
2fe9
8
Layer1
10
276.4880
20
81.2005
30
0.0
0
VERTEX
5
2fea
8
Layer1
10
290.4880
20
81.2005
30
0.0
0
VERTEX
5
2feb
8
Layer1
10
290.4880
20
95.2005
30
0.0
0
SEQEND
5
2fec
8
Layer1
0
POLYLINE
5
2fed
8
Layer1
66
1
10
0.0
20
0.0
30
0.0
70
1
0
VERTEX
5
2fee
8
Layer1
10
28.5500
20
76.1495
30
0.0
0
VERTEX
5
2fef
8
Layer1
10
14.5500
20
76.1495
30
0.0
0
VERTEX
5
2ff0
8
Layer1
10
14.5500
20
62.1495
30
0.0
0
VERTEX
5
2ff1
8
Layer1
10
28.5500
20
62.1495
30
0.0
0
VERTEX
5
2ff2
8
Layer1
10
28.5500
20
76.1495
30
0.0
0
SEQEND
5
2ff3
8
Layer1
0
POLYLINE
5
2ff4
8
Layer1
66
1
10
0.0
20
0.0
30
0.0
70
1
0
VERTEX
5
2ff5
8
Layer1
10
52.3630
20
76.1495
30
0.0
0
VERTEX
5
2ff6
8
Layer1
10
38.3630
20
76.1495
30
0.0
0
VERTEX
5
2ff7
8
Layer1
10
38.3630
20
62.1495
30
0.0
0
VERTEX
5
2ff8
8
Layer1
10
52.3630
20
62.1495
30
0.0
0
VERTEX
5
2ff9
8
Layer1
10
52.3630
20
76.1495
30
0.0
0
SEQEND
5
2ffa
8
Layer1
0
POLYLINE
5
2ffb
8
Layer1
66
1
10
0.0
20
0.0
30
0.0
70
1
0
VERTEX
5
2ffc
8
Layer1
10
71.4130
20
76.1495
30
0.0
0
VERTEX
5
2ffd
8
Layer1
10
57.4130
20
76.1495
30
0.0
0
VERTEX
5
2ffe
8
Layer1
10
57.4130
20
62.1495
30
0.0
0
VERTEX
5
2fff
8
Layer1
10
71.4130
20
62.1495
30
0.0
0
VERTEX
5
3000
8
Layer1
10
71.4130
20
76.1495
30
0.0
0
SEQEND
5
3001
8
Layer1
0
POLYLINE
5
3002
8
Layer1
66
1
10
0.0
20
0.0
30
0.0
70
1
0
VERTEX
5
3003
8
Layer1
10
90.4630
20
76.1495
30
0.0
0
VERTEX
5
3004
8
Layer1
10
76.4630
20
76.1495
30
0.0
0
VERTEX
5
3005
8
Layer1
10
76.4630
20
62.1495
30
0.0
0
VERTEX
5
3006
8
Layer1
10
90.4630
20
62.1495
30
0.0
0
VERTEX
5
3007
8
Layer1
10
90.4630
20
76.1495
30
0.0
0
SEQEND
5
3008
8
Layer1
0
POLYLINE
5
3009
8
Layer1
66
1
10
0.0
20
0.0
30
0.0
70
1
0
VERTEX
5
300a
8
Layer1
10
109.5130
20
76.1495
30
0.0
0
VERTEX
5
300b
8
Layer1
10
95.5130
20
76.1495
30
0.0
0
VERTEX
5
300c
8
Layer1
10
95.5130
20
62.1495
30
0.0
0
VERTEX
5
300d
8
Layer1
10
109.5130
20
62.1495
30
0.0
0
VERTEX
5
300e
8
Layer1
10
109.5130
20
76.1495
30
0.0
0
SEQEND
5
300f
8
Layer1
0
POLYLINE
5
3010
8
Layer1
66
1
10
0.0
20
0.0
30
0.0
70
1
0
VERTEX
5
3011
8
Layer1
10
128.5630
20
76.1495
30
0.0
0
VERTEX
5
3012
8
Layer1
10
114.5630
20
76.1495
30
0.0
0
VERTEX
5
3013
8
Layer1
10
114.5630
20
62.1495
30
0.0
0
VERTEX
5
3014
8
Layer1
10
128.5630
20
62.1495
30
0.0
0
VERTEX
5
3015
8
Layer1
10
128.5630
20
76.1495
30
0.0
0
SEQEND
5
3016
8
Layer1
0
POLYLINE
5
3017
8
Layer1
66
1
10
0.0
20
0.0
30
0.0
70
1
0
VERTEX
5
3018
8
Layer1
10
147.6130
20
76.1495
30
0.0
0
VERTEX
5
3019
8
Layer1
10
133.6130
20
76.1495
30
0.0
0
VERTEX
5
301a
8
Layer1
10
133.6130
20
62.1495
30
0.0
0
VERTEX
5
301b
8
Layer1
10
147.6130
20
62.1495
30
0.0
0
VERTEX
5
301c
8
Layer1
10
147.6130
20
76.1495
30
0.0
0
SEQEND
5
301d
8
Layer1
0
POLYLINE
5
301e
8
Layer1
66
1
10
0.0
20
0.0
30
0.0
70
1
0
VERTEX
5
301f
8
Layer1
10
166.6630
20
76.1495
30
0.0
0
VERTEX
5
3020
8
Layer1
10
152.6630
20
76.1495
30
0.0
0
VERTEX
5
3021
8
Layer1
10
152.6630
20
62.1495
30
0.0
0
VERTEX
5
3022
8
Layer1
10
166.6630
20
62.1495
30
0.0
0
VERTEX
5
3023
8
Layer1
10
166.6630
20
76.1495
30
0.0
0
SEQEND
5
3024
8
Layer1
0
POLYLINE
5
3025
8
Layer1
66
1
10
0.0
20
0.0
30
0.0
70
1
0
VERTEX
5
3026
8
Layer1
10
185.7130
20
76.1495
30
0.0
0
VERTEX
5
3027
8
Layer1
10
171.7130
20
76.1495
30
0.0
0
VERTEX
5
3028
8
Layer1
10
171.7130
20
62.1495
30
0.0
0
VERTEX
5
3029
8
Layer1
10
185.7130
20
62.1495
30
0.0
0
VERTEX
5
302a
8
Layer1
10
185.7130
20
76.1495
30
0.0
0
SEQEND
5
302b
8
Layer1
0
POLYLINE
5
302c
8
Layer1
66
1
10
0.0
20
0.0
30
0.0
70
1
0
VERTEX
5
302d
8
Layer1
10
204.7630
20
76.1495
30
0.0
0
VERTEX
5
302e
8
Layer1
10
190.7630
20
76.1495
30
0.0
0
VERTEX
5
302f
8
Layer1
10
190.7630
20
62.1495
30
0.0
0
VERTEX
5
3030
8
Layer1
10
204.7630
20
62.1495
30
0.0
0
VERTEX
5
3031
8
Layer1
10
204.7630
20
76.1495
30
0.0
0
SEQEND
5
3032
8
Layer1
0
POLYLINE
5
3033
8
Layer1
66
1
10
0.0
20
0.0
30
0.0
70
1
0
VERTEX
5
3034
8
Layer1
10
223.8130
20
76.1495
30
0.0
0
VERTEX
5
3035
8
Layer1
10
209.8130
20
76.1495
30
0.0
0
VERTEX
5
3036
8
Layer1
10
209.8130
20
62.1495
30
0.0
0
VERTEX
5
3037
8
Layer1
10
223.8130
20
62.1495
30
0.0
0
VERTEX
5
3038
8
Layer1
10
223.8130
20
76.1495
30
0.0
0
SEQEND
5
3039
8
Layer1
0
POLYLINE
5
303a
8
Layer1
66
1
10
0.0
20
0.0
30
0.0
70
1
0
VERTEX
5
303b
8
Layer1
10
242.8630
20
76.1495
30
0.0
0
VERTEX
5
303c
8
Layer1
10
228.8630
20
76.1495
30
0.0
0
VERTEX
5
303d
8
Layer1
10
228.8630
20
62.1495
30
0.0
0
VERTEX
5
303e
8
Layer1
10
242.8630
20
62.1495
30
0.0
0
VERTEX
5
303f
8
Layer1
10
242.8630
20
76.1495
30
0.0
0
SEQEND
5
3040
8
Layer1
0
POLYLINE
5
3041
8
Layer1
66
1
10
0.0
20
0.0
30
0.0
70
1
0
VERTEX
5
3042
8
Layer1
10
261.9130
20
76.1495
30
0.0
0
VERTEX
5
3043
8
Layer1
10
247.9130
20
76.1495
30
0.0
0
VERTEX
5
3044
8
Layer1
10
247.9130
20
62.1495
30
0.0
0
VERTEX
5
3045
8
Layer1
10
261.9130
20
62.1495
30
0.0
0
VERTEX
5
3046
8
Layer1
10
261.9130
20
76.1495
30
0.0
0
SEQEND
5
3047
8
Layer1
0
POLYLINE
5
3048
8
Layer1
66
1
10
0.0
20
0.0
30
0.0
70
1
0
VERTEX
5
3049
8
Layer1
10
285.7250
20
76.1495
30
0.0
0
VERTEX
5
304a
8
Layer1
10
271.7250
20
76.1495
30
0.0
0
VERTEX
5
304b
8
Layer1
10
271.7250
20
62.1495
30
0.0
0
VERTEX
5
304c
8
Layer1
10
285.7250
20
62.1495
30
0.0
0
VERTEX
5
304d
8
Layer1
10
285.7250
20
76.1495
30
0.0
0
SEQEND
5
304e
8
Layer1
0
POLYLINE
5
304f
8
Layer1
66
1
10
0.0
20
0.0
30
0.0
70
1
0
VERTEX
5
3050
8
Layer1
10
30.9310
20
57.1005
30
0.0
0
VERTEX
5
3051
8
Layer1
10
16.9310
20
57.1005
30
0.0
0
VERTEX
5
3052
8
Layer1
10
16.9310
20
43.1005
30
0.0
0
VERTEX
5
3053
8
Layer1
10
30.9310
20
43.1005
30
0.0
0
VERTEX
5
3054
8
Layer1
10
30.9310
20
57.1005
30
0.0
0
SEQEND
5
3055
8
Layer1
0
POLYLINE
5
3056
8
Layer1
66
1
10
0.0
20
0.0
30
0.0
70
1
0
VERTEX
5
3057
8
Layer1
10
57.1250
20
57.1005
30
0.0
0
VERTEX
5
3058
8
Layer1
10
43.1250
20
57.1005
30
0.0
0
VERTEX
5
3059
8
Layer1
10
43.1250
20
43.1005
30
0.0
0
VERTEX
5
305a
8
Layer1
10
57.1250
20
43.1005
30
0.0
0
VERTEX
5
305b
8
Layer1
10
57.1250
20
57.1005
30
0.0
0
SEQEND
5
305c
8
Layer1
0
POLYLINE
5
305d
8
Layer1
66
1
10
0.0
20
0.0
30
0.0
70
1
0
VERTEX
5
305e
8
Layer1
10
76.1750
20
57.1005
30
0.0
0
VERTEX
5
305f
8
Layer1
10
62.1750
20
57.1005
30
0.0
0
VERTEX
5
3060
8
Layer1
10
62.1750
20
43.1005
30
0.0
0
VERTEX
5
3061
8
Layer1
10
76.1750
20
43.1005
30
0.0
0
VERTEX
5
3062
8
Layer1
10
76.1750
20
57.1005
30
0.0
0
SEQEND
5
3063
8
Layer1
0
POLYLINE
5
3064
8
Layer1
66
1
10
0.0
20
0.0
30
0.0
70
1
0
VERTEX
5
3065
8
Layer1
10
95.2250
20
57.1005
30
0.0
0
VERTEX
5
3066
8
Layer1
10
81.2250
20
57.1005
30
0.0
0
VERTEX
5
3067
8
Layer1
10
81.2250
20
43.1005
30
0.0
0
VERTEX
5
3068
8
Layer1
10
95.2250
20
43.1005
30
0.0
0
VERTEX
5
3069
8
Layer1
10
95.2250
20
57.1005
30
0.0
0
SEQEND
5
306a
8
Layer1
0
POLYLINE
5
306b
8
Layer1
66
1
10
0.0
20
0.0
30
0.0
70
1
0
VERTEX
5
306c
8
Layer1
10
114.2750
20
57.1005
30
0.0
0
VERTEX
5
306d
8
Layer1
10
100.2750
20
57.1005
30
0.0
0
VERTEX
5
306e
8
Layer1
10
100.2750
20
43.1005
30
0.0
0
VERTEX
5
306f
8
Layer1
10
114.2750
20
43.1005
30
0.0
0
VERTEX
5
3070
8
Layer1
10
114.2750
20
57.1005
30
0.0
0
SEQEND
5
3071
8
Layer1
0
POLYLINE
5
3072
8
Layer1
66
1
10
0.0
20
0.0
30
0.0
70
1
0
VERTEX
5
3073
8
Layer1
10
133.3250
20
57.1005
30
0.0
0
VERTEX
5
3074
8
Layer1
10
119.3250
20
57.1005
30
0.0
0
VERTEX
5
3075
8
Layer1
10
119.3250
20
43.1005
30
0.0
0
VERTEX
5
3076
8
Layer1
10
133.3250
20
43.1005
30
0.0
0
VERTEX
5
3077
8
Layer1
10
133.3250
20
57.1005
30
0.0
0
SEQEND
5
3078
8
Layer1
0
POLYLINE
5
3079
8
Layer1
66
1
10
0.0
20
0.0
30
0.0
70
1
0
VERTEX
5
307a
8
Layer1
10
152.3750
20
57.1005
30
0.0
0
VERTEX
5
307b
8
Layer1
10
138.3750
20
57.1005
30
0.0
0
VERTEX
5
307c
8
Layer1
10
138.3750
20
43.1005
30
0.0
0
VERTEX
5
307d
8
Layer1
10
152.3750
20
43.1005
30
0.0
0
VERTEX
5
307e
8
Layer1
10
152.3750
20
57.1005
30
0.0
0
SEQEND
5
307f
8
Layer1
0
POLYLINE
5
3080
8
Layer1
66
1
10
0.0
20
0.0
30
0.0
70
1
0
VERTEX
5
3081
8
Layer1
10
171.4250
20
57.1005
30
0.0
0
VERTEX
5
3082
8
Layer1
10
157.4250
20
57.1005
30
0.0
0
VERTEX
5
3083
8
Layer1
10
157.4250
20
43.1005
30
0.0
0
VERTEX
5
3084
8
Layer1
10
171.4250
20
43.1005
30
0.0
0
VERTEX
5
3085
8
Layer1
10
171.4250
20
57.1005
30
0.0
0
SEQEND
5
3086
8
Layer1
0
POLYLINE
5
3087
8
Layer1
66
1
10
0.0
20
0.0
30
0.0
70
1
0
VERTEX
5
3088
8
Layer1
10
190.4750
20
57.1005
30
0.0
0
VERTEX
5
3089
8
Layer1
10
176.4750
20
57.1005
30
0.0
0
VERTEX
5
308a
8
Layer1
10
176.4750
20
43.1005
30
0.0
0
VERTEX
5
308b
8
Layer1
10
190.4750
20
43.1005
30
0.0
0
VERTEX
5
308c
8
Layer1
10
190.4750
20
57.1005
30
0.0
0
SEQEND
5
308d
8
Layer1
0
POLYLINE
5
308e
8
Layer1
66
1
10
0.0
20
0.0
30
0.0
70
1
0
VERTEX
5
308f
8
Layer1
10
209.5250
20
57.1005
30
0.0
0
VERTEX
5
3090
8
Layer1
10
195.5250
20
57.1005
30
0.0
0
VERTEX
5
3091
8
Layer1
10
195.5250
20
43.1005
30
0.0
0
VERTEX
5
3092
8
Layer1
10
209.5250
20
43.1005
30
0.0
0
VERTEX
5
3093
8
Layer1
10
209.5250
20
57.1005
30
0.0
0
SEQEND
5
3094
8
Layer1
0
POLYLINE
5
3095
8
Layer1
66
1
10
0.0
20
0.0
30
0.0
70
1
0
VERTEX
5
3096
8
Layer1
10
228.5750
20
57.1005
30
0.0
0
VERTEX
5
3097
8
Layer1
10
214.5750
20
57.1005
30
0.0
0
VERTEX
5
3098
8
Layer1
10
214.5750
20
43.1005
30
0.0
0
VERTEX
5
3099
8
Layer1
10
228.5750
20
43.1005
30
0.0
0
VERTEX
5
309a
8
Layer1
10
228.5750
20
57.1005
30
0.0
0
SEQEND
5
309b
8
Layer1
0
POLYLINE
5
309c
8
Layer1
66
1
10
0.0
20
0.0
30
0.0
70
1
0
VERTEX
5
309d
8
Layer1
10
247.6250
20
57.1005
30
0.0
0
VERTEX
5
309e
8
Layer1
10
233.6250
20
57.1005
30
0.0
0
VERTEX
5
309f
8
Layer1
10
233.6250
20
43.1005
30
0.0
0
VERTEX
5
30a0
8
Layer1
10
247.6250
20
43.1005
30
0.0
0
VERTEX
5
30a1
8
Layer1
10
247.6250
20
57.1005
30
0.0
0
SEQEND
5
30a2
8
Layer1
0
POLYLINE
5
30a3
8
Layer1
66
1
10
0.0
20
0.0
30
0.0
70
1
0
VERTEX
5
30a4
8
Layer1
10
266.6750
20
57.1005
30
0.0
0
VERTEX
5
30a5
8
Layer1
10
252.6750
20
57.1005
30
0.0
0
VERTEX
5
30a6
8
Layer1
10
252.6750
20
43.1005
30
0.0
0
VERTEX
5
30a7
8
Layer1
10
266.6750
20
43.1005
30
0.0
0
VERTEX
5
30a8
8
Layer1
10
266.6750
20
57.1005
30
0.0
0
SEQEND
5
30a9
8
Layer1
0
POLYLINE
5
30aa
8
Layer1
66
1
10
0.0
20
0.0
30
0.0
70
1
0
VERTEX
5
30ab
8
Layer1
10
288.1060
20
57.1005
30
0.0
0
VERTEX
5
30ac
8
Layer1
10
274.1060
20
57.1005
30
0.0
0
VERTEX
5
30ad
8
Layer1
10
274.1060
20
43.1005
30
0.0
0
VERTEX
5
30ae
8
Layer1
10
288.1060
20
43.1005
30
0.0
0
VERTEX
5
30af
8
Layer1
10
288.1060
20
57.1005
30
0.0
0
SEQEND
5
30b0
8
Layer1
0
POLYLINE
5
30b1
8
Layer1
66
1
10
0.0
20
0.0
30
0.0
70
1
0
VERTEX
5
30b2
8
Layer1
10
18.2940
20
24.2795
30
0.0
0
VERTEX
5
30b3
8
Layer1
10
20.1190
20
24.2795
30
0.0
0
VERTEX
5
30b4
8
Layer1
10
20.1190
20
30.5505
30
0.0
0
VERTEX
5
30b5
8
Layer1
10
21.6940
20
30.5505
30
0.0
0
VERTEX
5
30b6
8
Layer1
10
21.6940
20
24.0505
30
0.0
0
VERTEX
5
30b7
8
Layer1
10
35.6940
20
24.0505
30
0.0
0
VERTEX
5
30b8
8
Layer1
10
35.6940
20
30.5505
30
0.0
0
VERTEX
5
30b9
8
Layer1
10
37.2690
20
30.5505
30
0.0
0
VERTEX
5
30ba
8
Layer1
10
37.2690
20
24.2795
30
0.0
0
VERTEX
5
30bb
8
Layer1
10
39.0940
20
24.2795
30
0.0
0
VERTEX
5
30bc
8
Layer1
10
39.0940
20
23.0805
30
0.0
0
VERTEX
5
30bd
8
Layer1
10
42.0940
20
23.0805
30
0.0
0
VERTEX
5
30be
8
Layer1
10
42.0940
20
24.2795
30
0.0
0
VERTEX
5
30bf
8
Layer1
10
43.9190
20
24.2795
30
0.0
0
VERTEX
5
30c0
8
Layer1
10
43.9190
20
30.5505
30
0.0
0
VERTEX
5
30c1
8
Layer1
10
44.7940
20
30.5505
30
0.0
0
VERTEX
5
30c2
8
Layer1
10
44.7940
20
33.3505
30
0.0
0
VERTEX
5
30c3
8
Layer1
10
43.9190
20
33.3505
30
0.0
0
VERTEX
5
30c4
8
Layer1
10
43.9190
20
36.5805
30
0.0
0
VERTEX
5
30c5
8
Layer1
10
37.2690
20
36.5805
30
0.0
0
VERTEX
5
30c6
8
Layer1
10
37.2690
20
33.3505
30
0.0
0
VERTEX
5
30c7
8
Layer1
10
35.6940
20
33.3505
30
0.0
0
VERTEX
5
30c8
8
Layer1
10
35.6940
20
38.0505
30
0.0
0
VERTEX
5
30c9
8
Layer1
10
21.6940
20
38.0505
30
0.0
0
VERTEX
5
30ca
8
Layer1
10
21.6940
20
33.3505
30
0.0
0
VERTEX
5
30cb
8
Layer1
10
20.1190
20
33.3505
30
0.0
0
VERTEX
5
30cc
8
Layer1
10
20.1190
20
36.5805
30
0.0
0
VERTEX
5
30cd
8
Layer1
10
13.4690
20
36.5805
30
0.0
0
VERTEX
5
30ce
8
Layer1
10
13.4690
20
33.3505
30
0.0
0
VERTEX
5
30cf
8
Layer1
10
12.5940
20
33.3505
30
0.0
0
VERTEX
5
30d0
8
Layer1
10
12.5940
20
30.5505
30
0.0
0
VERTEX
5
30d1
8
Layer1
10
13.4690
20
30.5505
30
0.0
0
VERTEX
5
30d2
8
Layer1
10
13.4690
20
24.2795
30
0.0
0
VERTEX
5
30d3
8
Layer1
10
15.2940
20
24.2795
30
0.0
0
VERTEX
5
30d4
8
Layer1
10
15.2940
20
23.0805
30
0.0
0
VERTEX
5
30d5
8
Layer1
10
18.2940
20
23.0805
30
0.0
0
VERTEX
5
30d6
8
Layer1
10
18.2940
20
24.2795
30
0.0
0
SEQEND
5
30d7
8
Layer1
0
POLYLINE
5
30d8
8
Layer1
66
1
10
0.0
20
0.0
30
0.0
70
1
0
VERTEX
5
30d9
8
Layer1
10
66.6500
20
38.0505
30
0.0
0
VERTEX
5
30da
8
Layer1
10
52.6500
20
38.0505
30
0.0
0
VERTEX
5
30db
8
Layer1
10
52.6500
20
24.0505
30
0.0
0
VERTEX
5
30dc
8
Layer1
10
66.6500
20
24.0505
30
0.0
0
VERTEX
5
30dd
8
Layer1
10
66.6500
20
38.0505
30
0.0
0
SEQEND
5
30de
8
Layer1
0
POLYLINE
5
30df
8
Layer1
66
1
10
0.0
20
0.0
30
0.0
70
1
0
VERTEX
5
30e0
8
Layer1
10
85.7000
20
38.0505
30
0.0
0
VERTEX
5
30e1
8
Layer1
10
71.7000
20
38.0505
30
0.0
0
VERTEX
5
30e2
8
Layer1
10
71.7000
20
24.0505
30
0.0
0
VERTEX
5
30e3
8
Layer1
10
85.7000
20
24.0505
30
0.0
0
VERTEX
5
30e4
8
Layer1
10
85.7000
20
38.0505
30
0.0
0
SEQEND
5
30e5
8
Layer1
0
POLYLINE
5
30e6
8
Layer1
66
1
10
0.0
20
0.0
30
0.0
70
1
0
VERTEX
5
30e7
8
Layer1
10
104.7500
20
38.0505
30
0.0
0
VERTEX
5
30e8
8
Layer1
10
90.7500
20
38.0505
30
0.0
0
VERTEX
5
30e9
8
Layer1
10
90.7500
20
24.0505
30
0.0
0
VERTEX
5
30ea
8
Layer1
10
104.7500
20
24.0505
30
0.0
0
VERTEX
5
30eb
8
Layer1
10
104.7500
20
38.0505
30
0.0
0
SEQEND
5
30ec
8
Layer1
0
POLYLINE
5
30ed
8
Layer1
66
1
10
0.0
20
0.0
30
0.0
70
1
0
VERTEX
5
30ee
8
Layer1
10
123.8000
20
38.0505
30
0.0
0
VERTEX
5
30ef
8
Layer1
10
109.8000
20
38.0505
30
0.0
0
VERTEX
5
30f0
8
Layer1
10
109.8000
20
24.0505
30
0.0
0
VERTEX
5
30f1
8
Layer1
10
123.8000
20
24.0505
30
0.0
0
VERTEX
5
30f2
8
Layer1
10
123.8000
20
38.0505
30
0.0
0
SEQEND
5
30f3
8
Layer1
0
POLYLINE
5
30f4
8
Layer1
66
1
10
0.0
20
0.0
30
0.0
70
1
0
VERTEX
5
30f5
8
Layer1
10
142.8500
20
38.0505
30
0.0
0
VERTEX
5
30f6
8
Layer1
10
128.8500
20
38.0505
30
0.0
0
VERTEX
5
30f7
8
Layer1
10
128.8500
20
24.0505
30
0.0
0
VERTEX
5
30f8
8
Layer1
10
142.8500
20
24.0505
30
0.0
0
VERTEX
5
30f9
8
Layer1
10
142.8500
20
38.0505
30
0.0
0
SEQEND
5
30fa
8
Layer1
0
POLYLINE
5
30fb
8
Layer1
66
1
10
0.0
20
0.0
30
0.0
70
1
0
VERTEX
5
30fc
8
Layer1
10
161.9000
20
38.0505
30
0.0
0
VERTEX
5
30fd
8
Layer1
10
147.9000
20
38.0505
30
0.0
0
VERTEX
5
30fe
8
Layer1
10
147.9000
20
24.0505
30
0.0
0
VERTEX
5
30ff
8
Layer1
10
161.9000
20
24.0505
30
0.0
0
VERTEX
5
3100
8
Layer1
10
161.9000
20
38.0505
30
0.0
0
SEQEND
5
3101
8
Layer1
0
POLYLINE
5
3102
8
Layer1
66
1
10
0.0
20
0.0
30
0.0
70
1
0
VERTEX
5
3103
8
Layer1
10
180.9500
20
38.0505
30
0.0
0
VERTEX
5
3104
8
Layer1
10
166.9500
20
38.0505
30
0.0
0
VERTEX
5
3105
8
Layer1
10
166.9500
20
24.0505
30
0.0
0
VERTEX
5
3106
8
Layer1
10
180.9500
20
24.0505
30
0.0
0
VERTEX
5
3107
8
Layer1
10
180.9500
20
38.0505
30
0.0
0
SEQEND
5
3108
8
Layer1
0
POLYLINE
5
3109
8
Layer1
66
1
10
0.0
20
0.0
30
0.0
70
1
0
VERTEX
5
310a
8
Layer1
10
200.0000
20
38.0505
30
0.0
0
VERTEX
5
310b
8
Layer1
10
186.0000
20
38.0505
30
0.0
0
VERTEX
5
310c
8
Layer1
10
186.0000
20
24.0505
30
0.0
0
VERTEX
5
310d
8
Layer1
10
200.0000
20
24.0505
30
0.0
0
VERTEX
5
310e
8
Layer1
10
200.0000
20
38.0505
30
0.0
0
SEQEND
5
310f
8
Layer1
0
POLYLINE
5
3110
8
Layer1
66
1
10
0.0
20
0.0
30
0.0
70
1
0
VERTEX
5
3111
8
Layer1
10
219.0500
20
38.0505
30
0.0
0
VERTEX
5
3112
8
Layer1
10
205.0500
20
38.0505
30
0.0
0
VERTEX
5
3113
8
Layer1
10
205.0500
20
24.0505
30
0.0
0
VERTEX
5
3114
8
Layer1
10
219.0500
20
24.0505
30
0.0
0
VERTEX
5
3115
8
Layer1
10
219.0500
20
38.0505
30
0.0
0
SEQEND
5
3116
8
Layer1
0
POLYLINE
5
3117
8
Layer1
66
1
10
0.0
20
0.0
30
0.0
70
1
0
VERTEX
5
3118
8
Layer1
10
238.1000
20
38.0505
30
0.0
0
VERTEX
5
3119
8
Layer1
10
224.1000
20
38.0505
30
0.0
0
VERTEX
5
311a
8
Layer1
10
224.1000
20
24.0505
30
0.0
0
VERTEX
5
311b
8
Layer1
10
238.1000
20
24.0505
30
0.0
0
VERTEX
5
311c
8
Layer1
10
238.1000
20
38.0505
30
0.0
0
SEQEND
5
311d
8
Layer1
0
POLYLINE
5
311e
8
Layer1
66
1
10
0.0
20
0.0
30
0.0
70
1
0
VERTEX
5
311f
8
Layer1
10
264.2940
20
38.0505
30
0.0
0
VERTEX
5
3120
8
Layer1
10
250.2940
20
38.0505
30
0.0
0
VERTEX
5
3121
8
Layer1
10
250.2940
20
24.0505
30
0.0
0
VERTEX
5
3122
8
Layer1
10
264.2940
20
24.0505
30
0.0
0
VERTEX
5
3123
8
Layer1
10
264.2940
20
38.0505
30
0.0
0
SEQEND
5
3124
8
Layer1
0
POLYLINE
5
3125
8
Layer1
66
1
10
0.0
20
0.0
30
0.0
70
1
0
VERTEX
5
3126
8
Layer1
10
290.4880
20
38.0505
30
0.0
0
VERTEX
5
3127
8
Layer1
10
276.4880
20
38.0505
30
0.0
0
VERTEX
5
3128
8
Layer1
10
276.4880
20
24.0505
30
0.0
0
VERTEX
5
3129
8
Layer1
10
290.4880
20
24.0505
30
0.0
0
VERTEX
5
312a
8
Layer1
10
290.4880
20
38.0505
30
0.0
0
SEQEND
5
312b
8
Layer1
0
POLYLINE
5
312c
8
Layer1
66
1
10
0.0
20
0.0
30
0.0
70
1
0
VERTEX
5
312d
8
Layer1
10
83.3190
20
18.9995
30
0.0
0
VERTEX
5
312e
8
Layer1
10
69.3190
20
18.9995
30
0.0
0
VERTEX
5
312f
8
Layer1
10
69.3190
20
5.0005
30
0.0
0
VERTEX
5
3130
8
Layer1
10
83.3190
20
5.0005
30
0.0
0
VERTEX
5
3131
8
Layer1
10
83.3190
20
18.9995
30
0.0
0
SEQEND
5
3132
8
Layer1
0
POLYLINE
5
3133
8
Layer1
66
1
10
0.0
20
0.0
30
0.0
70
1
0
VERTEX
5
3134
8
Layer1
10
99.2560
20
5.2295
30
0.0
0
VERTEX
5
3135
8
Layer1
10
101.0810
20
5.2295
30
0.0
0
VERTEX
5
3136
8
Layer1
10
101.0810
20
9.6995
30
0.0
0
VERTEX
5
3137
8
Layer1
10
140.7560
20
9.6995
30
0.0
0
VERTEX
5
3138
8
Layer1
10
140.7560
20
5.0005
30
0.0
0
VERTEX
5
3139
8
Layer1
10
154.7560
20
5.0005
30
0.0
0
VERTEX
5
313a
8
Layer1
10
154.7560
20
9.6995
30
0.0
0
VERTEX
5
313b
8
Layer1
10
194.4310
20
9.6995
30
0.0
0
VERTEX
5
313c
8
Layer1
10
194.4310
20
5.2295
30
0.0
0
VERTEX
5
313d
8
Layer1
10
196.2560
20
5.2295
30
0.0
0
VERTEX
5
313e
8
Layer1
10
196.2560
20
4.0305
30
0.0
0
VERTEX
5
313f
8
Layer1
10
199.2560
20
4.0305
30
0.0
0
VERTEX
5
3140
8
Layer1
10
199.2560
20
5.2295
30
0.0
0
VERTEX
5
3141
8
Layer1
10
201.0810
20
5.2295
30
0.0
0
VERTEX
5
3142
8
Layer1
10
201.0810
20
11.4995
30
0.0
0
VERTEX
5
3143
8
Layer1
10
201.9810
20
11.4995
30
0.0
0
VERTEX
5
3144
8
Layer1
10
201.9810
20
14.3005
30
0.0
0
VERTEX
5
3145
8
Layer1
10
201.0810
20
14.3005
30
0.0
0
VERTEX
5
3146
8
Layer1
10
201.0810
20
17.5295
30
0.0
0
VERTEX
5
3147
8
Layer1
10
194.4310
20
17.5295
30
0.0
0
VERTEX
5
3148
8
Layer1
10
194.4310
20
14.3005
30
0.0
0
VERTEX
5
3149
8
Layer1
10
193.5310
20
14.3005
30
0.0
0
VERTEX
5
314a
8
Layer1
10
193.5310
20
14.2995
30
0.0
0
VERTEX
5
314b
8
Layer1
10
154.7560
20
14.2995
30
0.0
0
VERTEX
5
314c
8
Layer1
10
154.7560
20
18.9995
30
0.0
0
VERTEX
5
314d
8
Layer1
10
140.7560
20
18.9995
30
0.0
0
VERTEX
5
314e
8
Layer1
10
140.7560
20
14.2995
30
0.0
0
VERTEX
5
314f
8
Layer1
10
101.9810
20
14.2995
30
0.0
0
VERTEX
5
3150
8
Layer1
10
101.9810
20
14.3005
30
0.0
0
VERTEX
5
3151
8
Layer1
10
101.0810
20
14.3005
30
0.0
0
VERTEX
5
3152
8
Layer1
10
101.0810
20
17.5295
30
0.0
0
VERTEX
5
3153
8
Layer1
10
94.4310
20
17.5295
30
0.0
0
VERTEX
5
3154
8
Layer1
10
94.4310
20
14.3005
30
0.0
0
VERTEX
5
3155
8
Layer1
10
93.5310
20
14.3005
30
0.0
0
VERTEX
5
3156
8
Layer1
10
93.5310
20
11.4995
30
0.0
0
VERTEX
5
3157
8
Layer1
10
94.4310
20
11.4995
30
0.0
0
VERTEX
5
3158
8
Layer1
10
94.4310
20
5.2295
30
0.0
0
VERTEX
5
3159
8
Layer1
10
96.2560
20
5.2295
30
0.0
0
VERTEX
5
315a
8
Layer1
10
96.2560
20
4.0305
30
0.0
0
VERTEX
5
315b
8
Layer1
10
99.2560
20
4.0305
30
0.0
0
VERTEX
5
315c
8
Layer1
10
99.2560
20
5.2295
30
0.0
0
SEQEND
5
315d
8
Layer1
0
POLYLINE
5
315e
8
Layer1
66
1
10
0.0
20
0.0
30
0.0
70
1
0
VERTEX
5
315f
8
Layer1
10
228.5750
20
18.9995
30
0.0
0
VERTEX
5
3160
8
Layer1
10
214.5750
20
18.9995
30
0.0
0
VERTEX
5
3161
8
Layer1
10
214.5750
20
5.0005
30
0.0
0
VERTEX
5
3162
8
Layer1
10
228.5750
20
5.0005
30
0.0
0
VERTEX
5
3163
8
Layer1
10
228.5750
20
18.9995
30
0.0
0
SEQEND
5
3164
8
Layer1
0
ENDSEC
0
EOF
