  0
SECTION
  2
HEADER
  9
$ACADVER
  1
AC1009
  9
$EXTMIN
 10
0.0
 20
0.0
 30
0.0
  9
$EXTMAX
 10
1000.0
 20
1000.0
 30
0.0
  9
$FILLMODE
 70
 0
  9
$SPLFRAME
 70
 1
  0
ENDSEC
  0
SECTION
  2
TABLES
  0
TABLE
  2
LAYER
 70
1
  0
LAYER
  2
0
 70
     0
 62
     7
  6
CONTINUOUS
  0
ENDTAB
  0
ENDSEC
  0
SECTION
  2
ENTITIES
  0
LINE
  8
0
 62
     1
 10
0.188791
 20
95.7668
 30
0.0
 11
285.94
 21
95.7668
 31
0.0
  0
LINE
  8
0
 62
     1
 10
285.94
 20
95.7668
 30
0.0
 11
285.94
 21
0.516763
 31
0.0
  0
LINE
  8
0
 62
     1
 10
285.94
 20
0.516763
 30
0.0
 11
0.188791
 21
0.516763
 31
0.0
  0
LINE
  8
0
 62
     1
 10
0.188791
 20
0.516763
 30
0.0
 11
0.188791
 21
95.7668
 31
0.0
  0
LINE
  8
0
 62
     1
 10
131.301
 20
17.0422
 30
0.0
 11
131.301
 21
12.3417
 31
0.0
  0
LINE
  8
0
 62
     1
 10
131.301
 20
12.3417
 30
0.0
 11
84.5263
 21
12.3417
 31
0.0
  0
LINE
  8
0
 62
     1
 10
84.5263
 20
12.3417
 30
0.0
 11
84.5263
 21
15.5718
 31
0.0
  0
LINE
  8
0
 62
     1
 10
84.5263
 20
15.5718
 30
0.0
 11
82.8008
 21
15.5718
 31
0.0
  0
LINE
  8
0
 62
     1
 10
82.8008
 20
15.5718
 30
0.0
 11
82.8008
 21
16.4924
 31
0.0
  0
LINE
  8
0
 62
     1
 10
82.8008
 20
16.4924
 30
0.0
 11
79.5002
 21
16.4924
 31
0.0
  0
LINE
  8
0
 62
     1
 10
79.5002
 20
16.4924
 30
0.0
 11
79.5002
 21
15.5718
 31
0.0
  0
LINE
  8
0
 62
     1
 10
79.5002
 20
15.5718
 30
0.0
 11
77.7766
 21
15.5718
 31
0.0
  0
LINE
  8
0
 62
     1
 10
77.7766
 20
15.5718
 30
0.0
 11
77.7766
 21
12.3417
 31
0.0
  0
LINE
  8
0
 62
     1
 10
77.7766
 20
12.3417
 30
0.0
 11
76.9511
 21
12.3417
 31
0.0
  0
LINE
  8
0
 62
     1
 10
76.9511
 20
12.3417
 30
0.0
 11
76.9511
 21
9.54155
 31
0.0
  0
LINE
  8
0
 62
     1
 10
76.9511
 20
9.54155
 30
0.0
 11
77.7766
 21
9.54155
 31
0.0
  0
LINE
  8
0
 62
     1
 10
77.7766
 20
9.54155
 30
0.0
 11
77.7766
 21
3.27284
 31
0.0
  0
LINE
  8
0
 62
     1
 10
77.7766
 20
3.27284
 30
0.0
 11
79.5002
 21
3.27284
 31
0.0
  0
LINE
  8
0
 62
     1
 10
79.5002
 20
3.27284
 30
0.0
 11
79.5002
 21
2.29168
 31
0.0
  0
LINE
  8
0
 62
     1
 10
79.5002
 20
2.29168
 30
0.0
 11
82.8008
 21
2.29168
 31
0.0
  0
LINE
  8
0
 62
     1
 10
82.8008
 20
2.29168
 30
0.0
 11
82.8008
 21
3.27284
 31
0.0
  0
LINE
  8
0
 62
     1
 10
82.8008
 20
3.27284
 30
0.0
 11
84.5263
 21
3.27284
 31
0.0
  0
LINE
  8
0
 62
     1
 10
84.5263
 20
3.27284
 30
0.0
 11
84.5263
 21
7.74319
 31
0.0
  0
LINE
  8
0
 62
     1
 10
84.5263
 20
7.74319
 30
0.0
 11
131.301
 21
7.74319
 31
0.0
  0
LINE
  8
0
 62
     1
 10
131.301
 20
7.74319
 30
0.0
 11
131.301
 21
3.04133
 31
0.0
  0
LINE
  8
0
 62
     1
 10
131.301
 20
3.04133
 30
0.0
 11
145.3
 21
3.04133
 31
0.0
  0
LINE
  8
0
 62
     1
 10
145.3
 20
3.04133
 30
0.0
 11
145.3
 21
7.74319
 31
0.0
  0
LINE
  8
0
 62
     1
 10
145.3
 20
7.74319
 30
0.0
 11
192.077
 21
7.74319
 31
0.0
  0
LINE
  8
0
 62
     1
 10
192.077
 20
7.74319
 30
0.0
 11
192.077
 21
3.27284
 31
0.0
  0
LINE
  8
0
 62
     1
 10
192.077
 20
3.27284
 30
0.0
 11
193.8
 21
3.27284
 31
0.0
  0
LINE
  8
0
 62
     1
 10
193.8
 20
3.27284
 30
0.0
 11
193.8
 21
2.29168
 31
0.0
  0
LINE
  8
0
 62
     1
 10
193.8
 20
2.29168
 30
0.0
 11
197.101
 21
2.29168
 31
0.0
  0
LINE
  8
0
 62
     1
 10
197.101
 20
2.29168
 30
0.0
 11
197.101
 21
3.27284
 31
0.0
  0
LINE
  8
0
 62
     1
 10
197.101
 20
3.27284
 30
0.0
 11
198.826
 21
3.27284
 31
0.0
  0
LINE
  8
0
 62
     1
 10
198.826
 20
3.27284
 30
0.0
 11
198.826
 21
9.54155
 31
0.0
  0
LINE
  8
0
 62
     1
 10
198.826
 20
9.54155
 30
0.0
 11
199.651
 21
9.54155
 31
0.0
  0
LINE
  8
0
 62
     1
 10
199.651
 20
9.54155
 30
0.0
 11
199.651
 21
12.3417
 31
0.0
  0
LINE
  8
0
 62
     1
 10
199.651
 20
12.3417
 30
0.0
 11
198.826
 21
12.3417
 31
0.0
  0
LINE
  8
0
 62
     1
 10
198.826
 20
12.3417
 30
0.0
 11
198.826
 21
15.5718
 31
0.0
  0
LINE
  8
0
 62
     1
 10
198.826
 20
15.5718
 30
0.0
 11
197.101
 21
15.5718
 31
0.0
  0
LINE
  8
0
 62
     1
 10
197.101
 20
15.5718
 30
0.0
 11
197.101
 21
16.4924
 31
0.0
  0
LINE
  8
0
 62
     1
 10
197.101
 20
16.4924
 30
0.0
 11
193.8
 21
16.4924
 31
0.0
  0
LINE
  8
0
 62
     1
 10
193.8
 20
16.4924
 30
0.0
 11
193.8
 21
15.5718
 31
0.0
  0
LINE
  8
0
 62
     1
 10
193.8
 20
15.5718
 30
0.0
 11
192.077
 21
15.5718
 31
0.0
  0
LINE
  8
0
 62
     1
 10
192.077
 20
15.5718
 30
0.0
 11
192.077
 21
12.3417
 31
0.0
  0
LINE
  8
0
 62
     1
 10
192.077
 20
12.3417
 30
0.0
 11
145.3
 21
12.3417
 31
0.0
  0
LINE
  8
0
 62
     1
 10
145.3
 20
12.3417
 30
0.0
 11
145.3
 21
17.0422
 31
0.0
  0
LINE
  8
0
 62
     1
 10
145.3
 20
17.0422
 30
0.0
 11
131.301
 21
17.0422
 31
0.0
  0
LINE
  8
0
 62
     1
 10
207.501
 20
17.0422
 30
0.0
 11
221.5
 21
17.0422
 31
0.0
  0
LINE
  8
0
 62
     1
 10
221.5
 20
17.0422
 30
0.0
 11
221.5
 21
3.04133
 31
0.0
  0
LINE
  8
0
 62
     1
 10
221.5
 20
3.04133
 30
0.0
 11
207.501
 21
3.04133
 31
0.0
  0
LINE
  8
0
 62
     1
 10
207.501
 20
3.04133
 30
0.0
 11
207.501
 21
17.0422
 31
0.0
  0
LINE
  8
0
 62
     1
 10
55.1007
 20
17.0422
 30
0.0
 11
69.1003
 21
17.0422
 31
0.0
  0
LINE
  8
0
 62
     1
 10
69.1003
 20
17.0422
 30
0.0
 11
69.1003
 21
3.04133
 31
0.0
  0
LINE
  8
0
 62
     1
 10
69.1003
 20
3.04133
 30
0.0
 11
55.1007
 21
3.04133
 31
0.0
  0
LINE
  8
0
 62
     1
 10
55.1007
 20
3.04133
 30
0.0
 11
55.1007
 21
17.0422
 31
0.0
  0
LINE
  8
0
 62
     1
 10
14.6196
 20
36.0923
 30
0.0
 11
14.6196
 21
31.3917
 31
0.0
  0
LINE
  8
0
 62
     1
 10
14.6196
 20
31.3917
 30
0.0
 11
13.0955
 21
31.3917
 31
0.0
  0
LINE
  8
0
 62
     1
 10
13.0955
 20
31.3917
 30
0.0
 11
13.0955
 21
34.6218
 31
0.0
  0
LINE
  8
0
 62
     1
 10
13.0955
 20
34.6218
 30
0.0
 11
11.3702
 21
34.6218
 31
0.0
  0
LINE
  8
0
 62
     1
 10
11.3702
 20
34.6218
 30
0.0
 11
11.3702
 21
35.5424
 31
0.0
  0
LINE
  8
0
 62
     1
 10
11.3702
 20
35.5424
 30
0.0
 11
8.06979
 21
35.5424
 31
0.0
  0
LINE
  8
0
 62
     1
 10
8.06979
 20
35.5424
 30
0.0
 11
8.06979
 21
34.6218
 31
0.0
  0
LINE
  8
0
 62
     1
 10
8.06979
 20
34.6218
 30
0.0
 11
6.3445
 21
34.6218
 31
0.0
  0
LINE
  8
0
 62
     1
 10
6.3445
 20
34.6218
 30
0.0
 11
6.3445
 21
31.3917
 31
0.0
  0
LINE
  8
0
 62
     1
 10
6.3445
 20
31.3917
 30
0.0
 11
5.52041
 21
31.3917
 31
0.0
  0
LINE
  8
0
 62
     1
 10
5.52041
 20
31.3917
 30
0.0
 11
5.52041
 21
28.5915
 31
0.0
  0
LINE
  8
0
 62
     1
 10
5.52041
 20
28.5915
 30
0.0
 11
6.3445
 21
28.5915
 31
0.0
  0
LINE
  8
0
 62
     1
 10
6.3445
 20
28.5915
 30
0.0
 11
6.3445
 21
22.3214
 31
0.0
  0
LINE
  8
0
 62
     1
 10
6.3445
 20
22.3214
 30
0.0
 11
8.06979
 21
22.3214
 31
0.0
  0
LINE
  8
0
 62
     1
 10
8.06979
 20
22.3214
 30
0.0
 11
8.06979
 21
21.3417
 31
0.0
  0
LINE
  8
0
 62
     1
 10
8.06979
 20
21.3417
 30
0.0
 11
11.3702
 21
21.3417
 31
0.0
  0
LINE
  8
0
 62
     1
 10
11.3702
 20
21.3417
 30
0.0
 11
11.3702
 21
22.3214
 31
0.0
  0
LINE
  8
0
 62
     1
 10
11.3702
 20
22.3214
 30
0.0
 11
13.0955
 21
22.3214
 31
0.0
  0
LINE
  8
0
 62
     1
 10
13.0955
 20
22.3214
 30
0.0
 11
13.0955
 21
26.7918
 31
0.0
  0
LINE
  8
0
 62
     1
 10
13.0955
 20
26.7918
 30
0.0
 11
14.6196
 21
26.7918
 31
0.0
  0
LINE
  8
0
 62
     1
 10
14.6196
 20
26.7918
 30
0.0
 11
14.6196
 21
22.0913
 31
0.0
  0
LINE
  8
0
 62
     1
 10
14.6196
 20
22.0913
 30
0.0
 11
28.6205
 21
22.0913
 31
0.0
  0
LINE
  8
0
 62
     1
 10
28.6205
 20
22.0913
 30
0.0
 11
28.6205
 21
26.7918
 31
0.0
  0
LINE
  8
0
 62
     1
 10
28.6205
 20
26.7918
 30
0.0
 11
30.1446
 21
26.7918
 31
0.0
  0
LINE
  8
0
 62
     1
 10
30.1446
 20
26.7918
 30
0.0
 11
30.1446
 21
22.3214
 31
0.0
  0
LINE
  8
0
 62
     1
 10
30.1446
 20
22.3214
 30
0.0
 11
31.8699
 21
22.3214
 31
0.0
  0
LINE
  8
0
 62
     1
 10
31.8699
 20
22.3214
 30
0.0
 11
31.8699
 21
21.3417
 31
0.0
  0
LINE
  8
0
 62
     1
 10
31.8699
 20
21.3417
 30
0.0
 11
35.1703
 21
21.3417
 31
0.0
  0
LINE
  8
0
 62
     1
 10
35.1703
 20
21.3417
 30
0.0
 11
35.1703
 21
22.3214
 31
0.0
  0
LINE
  8
0
 62
     1
 10
35.1703
 20
22.3214
 30
0.0
 11
36.8956
 21
22.3214
 31
0.0
  0
LINE
  8
0
 62
     1
 10
36.8956
 20
22.3214
 30
0.0
 11
36.8956
 21
28.5915
 31
0.0
  0
LINE
  8
0
 62
     1
 10
36.8956
 20
28.5915
 30
0.0
 11
37.7197
 21
28.5915
 31
0.0
  0
LINE
  8
0
 62
     1
 10
37.7197
 20
28.5915
 30
0.0
 11
37.7197
 21
31.3917
 31
0.0
  0
LINE
  8
0
 62
     1
 10
37.7197
 20
31.3917
 30
0.0
 11
36.8956
 21
31.3917
 31
0.0
  0
LINE
  8
0
 62
     1
 10
36.8956
 20
31.3917
 30
0.0
 11
36.8956
 21
34.6218
 31
0.0
  0
LINE
  8
0
 62
     1
 10
36.8956
 20
34.6218
 30
0.0
 11
35.1703
 21
34.6218
 31
0.0
  0
LINE
  8
0
 62
     1
 10
35.1703
 20
34.6218
 30
0.0
 11
35.1703
 21
35.5424
 31
0.0
  0
LINE
  8
0
 62
     1
 10
35.1703
 20
35.5424
 30
0.0
 11
31.8699
 21
35.5424
 31
0.0
  0
LINE
  8
0
 62
     1
 10
31.8699
 20
35.5424
 30
0.0
 11
31.8699
 21
34.6218
 31
0.0
  0
LINE
  8
0
 62
     1
 10
31.8699
 20
34.6218
 30
0.0
 11
30.1446
 21
34.6218
 31
0.0
  0
LINE
  8
0
 62
     1
 10
30.1446
 20
34.6218
 30
0.0
 11
30.1446
 21
31.3917
 31
0.0
  0
LINE
  8
0
 62
     1
 10
30.1446
 20
31.3917
 30
0.0
 11
28.6205
 21
31.3917
 31
0.0
  0
LINE
  8
0
 62
     1
 10
28.6205
 20
31.3917
 30
0.0
 11
28.6205
 21
36.0923
 31
0.0
  0
LINE
  8
0
 62
     1
 10
28.6205
 20
36.0923
 30
0.0
 11
14.6196
 21
36.0923
 31
0.0
  0
LINE
  8
0
 62
     1
 10
269.413
 20
36.0923
 30
0.0
 11
283.414
 21
36.0923
 31
0.0
  0
LINE
  8
0
 62
     1
 10
283.414
 20
36.0923
 30
0.0
 11
283.414
 21
22.0913
 31
0.0
  0
LINE
  8
0
 62
     1
 10
283.414
 20
22.0913
 30
0.0
 11
269.413
 21
22.0913
 31
0.0
  0
LINE
  8
0
 62
     1
 10
269.413
 20
22.0913
 30
0.0
 11
269.413
 21
36.0923
 31
0.0
  0
LINE
  8
0
 62
     1
 10
243.219
 20
36.0923
 30
0.0
 11
257.221
 21
36.0923
 31
0.0
  0
LINE
  8
0
 62
     1
 10
257.221
 20
36.0923
 30
0.0
 11
257.221
 21
22.0913
 31
0.0
  0
LINE
  8
0
 62
     1
 10
257.221
 20
22.0913
 30
0.0
 11
243.219
 21
22.0913
 31
0.0
  0
LINE
  8
0
 62
     1
 10
243.219
 20
22.0913
 30
0.0
 11
243.219
 21
36.0923
 31
0.0
  0
LINE
  8
0
 62
     1
 10
217.026
 20
36.0923
 30
0.0
 11
231.025
 21
36.0923
 31
0.0
  0
LINE
  8
0
 62
     1
 10
231.025
 20
36.0923
 30
0.0
 11
231.025
 21
22.0913
 31
0.0
  0
LINE
  8
0
 62
     1
 10
231.025
 20
22.0913
 30
0.0
 11
217.026
 21
22.0913
 31
0.0
  0
LINE
  8
0
 62
     1
 10
217.026
 20
22.0913
 30
0.0
 11
217.026
 21
36.0923
 31
0.0
  0
LINE
  8
0
 62
     1
 10
197.976
 20
36.0923
 30
0.0
 11
211.975
 21
36.0923
 31
0.0
  0
LINE
  8
0
 62
     1
 10
211.975
 20
36.0923
 30
0.0
 11
211.975
 21
22.0913
 31
0.0
  0
LINE
  8
0
 62
     1
 10
211.975
 20
22.0913
 30
0.0
 11
197.976
 21
22.0913
 31
0.0
  0
LINE
  8
0
 62
     1
 10
197.976
 20
22.0913
 30
0.0
 11
197.976
 21
36.0923
 31
0.0
  0
LINE
  8
0
 62
     1
 10
178.926
 20
36.0923
 30
0.0
 11
192.925
 21
36.0923
 31
0.0
  0
LINE
  8
0
 62
     1
 10
192.925
 20
36.0923
 30
0.0
 11
192.925
 21
22.0913
 31
0.0
  0
LINE
  8
0
 62
     1
 10
192.925
 20
22.0913
 30
0.0
 11
178.926
 21
22.0913
 31
0.0
  0
LINE
  8
0
 62
     1
 10
178.926
 20
22.0913
 30
0.0
 11
178.926
 21
36.0923
 31
0.0
  0
LINE
  8
0
 62
     1
 10
159.876
 20
36.0923
 30
0.0
 11
173.875
 21
36.0923
 31
0.0
  0
LINE
  8
0
 62
     1
 10
173.875
 20
36.0923
 30
0.0
 11
173.875
 21
22.0913
 31
0.0
  0
LINE
  8
0
 62
     1
 10
173.875
 20
22.0913
 30
0.0
 11
159.876
 21
22.0913
 31
0.0
  0
LINE
  8
0
 62
     1
 10
159.876
 20
22.0913
 30
0.0
 11
159.876
 21
36.0923
 31
0.0
  0
LINE
  8
0
 62
     1
 10
140.826
 20
36.0923
 30
0.0
 11
154.825
 21
36.0923
 31
0.0
  0
LINE
  8
0
 62
     1
 10
154.825
 20
36.0923
 30
0.0
 11
154.825
 21
22.0913
 31
0.0
  0
LINE
  8
0
 62
     1
 10
154.825
 20
22.0913
 30
0.0
 11
140.826
 21
22.0913
 31
0.0
  0
LINE
  8
0
 62
     1
 10
140.826
 20
22.0913
 30
0.0
 11
140.826
 21
36.0923
 31
0.0
  0
LINE
  8
0
 62
     1
 10
121.776
 20
36.0923
 30
0.0
 11
135.775
 21
36.0923
 31
0.0
  0
LINE
  8
0
 62
     1
 10
135.775
 20
36.0923
 30
0.0
 11
135.775
 21
22.0913
 31
0.0
  0
LINE
  8
0
 62
     1
 10
135.775
 20
22.0913
 30
0.0
 11
121.776
 21
22.0913
 31
0.0
  0
LINE
  8
0
 62
     1
 10
121.776
 20
22.0913
 30
0.0
 11
121.776
 21
36.0923
 31
0.0
  0
LINE
  8
0
 62
     1
 10
102.726
 20
36.0923
 30
0.0
 11
116.725
 21
36.0923
 31
0.0
  0
LINE
  8
0
 62
     1
 10
116.725
 20
36.0923
 30
0.0
 11
116.725
 21
22.0913
 31
0.0
  0
LINE
  8
0
 62
     1
 10
116.725
 20
22.0913
 30
0.0
 11
102.726
 21
22.0913
 31
0.0
  0
LINE
  8
0
 62
     1
 10
102.726
 20
22.0913
 30
0.0
 11
102.726
 21
36.0923
 31
0.0
  0
LINE
  8
0
 62
     1
 10
83.6757
 20
36.0923
 30
0.0
 11
97.6753
 21
36.0923
 31
0.0
  0
LINE
  8
0
 62
     1
 10
97.6753
 20
36.0923
 30
0.0
 11
97.6753
 21
22.0913
 31
0.0
  0
LINE
  8
0
 62
     1
 10
97.6753
 20
22.0913
 30
0.0
 11
83.6757
 21
22.0913
 31
0.0
  0
LINE
  8
0
 62
     1
 10
83.6757
 20
22.0913
 30
0.0
 11
83.6757
 21
36.0923
 31
0.0
  0
LINE
  8
0
 62
     1
 10
64.6257
 20
36.0923
 30
0.0
 11
78.6253
 21
36.0923
 31
0.0
  0
LINE
  8
0
 62
     1
 10
78.6253
 20
36.0923
 30
0.0
 11
78.6253
 21
22.0913
 31
0.0
  0
LINE
  8
0
 62
     1
 10
78.6253
 20
22.0913
 30
0.0
 11
64.6257
 21
22.0913
 31
0.0
  0
LINE
  8
0
 62
     1
 10
64.6257
 20
22.0913
 30
0.0
 11
64.6257
 21
36.0923
 31
0.0
  0
LINE
  8
0
 62
     1
 10
45.5757
 20
36.0923
 30
0.0
 11
59.5753
 21
36.0923
 31
0.0
  0
LINE
  8
0
 62
     1
 10
59.5753
 20
36.0923
 30
0.0
 11
59.5753
 21
22.0913
 31
0.0
  0
LINE
  8
0
 62
     1
 10
59.5753
 20
22.0913
 30
0.0
 11
45.5757
 21
22.0913
 31
0.0
  0
LINE
  8
0
 62
     1
 10
45.5757
 20
22.0913
 30
0.0
 11
45.5757
 21
36.0923
 31
0.0
  0
LINE
  8
0
 62
     1
 10
267.032
 20
55.1423
 30
0.0
 11
281.032
 21
55.1423
 31
0.0
  0
LINE
  8
0
 62
     1
 10
281.032
 20
55.1423
 30
0.0
 11
281.032
 21
41.1413
 31
0.0
  0
LINE
  8
0
 62
     1
 10
281.032
 20
41.1413
 30
0.0
 11
267.032
 21
41.1413
 31
0.0
  0
LINE
  8
0
 62
     1
 10
267.032
 20
41.1413
 30
0.0
 11
267.032
 21
55.1423
 31
0.0
  0
LINE
  8
0
 62
     1
 10
245.601
 20
55.1423
 30
0.0
 11
259.6
 21
55.1423
 31
0.0
  0
LINE
  8
0
 62
     1
 10
259.6
 20
55.1423
 30
0.0
 11
259.6
 21
41.1413
 31
0.0
  0
LINE
  8
0
 62
     1
 10
259.6
 20
41.1413
 30
0.0
 11
245.601
 21
41.1413
 31
0.0
  0
LINE
  8
0
 62
     1
 10
245.601
 20
41.1413
 30
0.0
 11
245.601
 21
55.1423
 31
0.0
  0
LINE
  8
0
 62
     1
 10
226.551
 20
55.1423
 30
0.0
 11
240.55
 21
55.1423
 31
0.0
  0
LINE
  8
0
 62
     1
 10
240.55
 20
55.1423
 30
0.0
 11
240.55
 21
41.1413
 31
0.0
  0
LINE
  8
0
 62
     1
 10
240.55
 20
41.1413
 30
0.0
 11
226.551
 21
41.1413
 31
0.0
  0
LINE
  8
0
 62
     1
 10
226.551
 20
41.1413
 30
0.0
 11
226.551
 21
55.1423
 31
0.0
  0
LINE
  8
0
 62
     1
 10
207.501
 20
55.1423
 30
0.0
 11
221.5
 21
55.1423
 31
0.0
  0
LINE
  8
0
 62
     1
 10
221.5
 20
55.1423
 30
0.0
 11
221.5
 21
41.1413
 31
0.0
  0
LINE
  8
0
 62
     1
 10
221.5
 20
41.1413
 30
0.0
 11
207.501
 21
41.1413
 31
0.0
  0
LINE
  8
0
 62
     1
 10
207.501
 20
41.1413
 30
0.0
 11
207.501
 21
55.1423
 31
0.0
  0
LINE
  8
0
 62
     1
 10
188.451
 20
55.1423
 30
0.0
 11
202.45
 21
55.1423
 31
0.0
  0
LINE
  8
0
 62
     1
 10
202.45
 20
55.1423
 30
0.0
 11
202.45
 21
41.1413
 31
0.0
  0
LINE
  8
0
 62
     1
 10
202.45
 20
41.1413
 30
0.0
 11
188.451
 21
41.1413
 31
0.0
  0
LINE
  8
0
 62
     1
 10
188.451
 20
41.1413
 30
0.0
 11
188.451
 21
55.1423
 31
0.0
  0
LINE
  8
0
 62
     1
 10
169.401
 20
55.1423
 30
0.0
 11
183.4
 21
55.1423
 31
0.0
  0
LINE
  8
0
 62
     1
 10
183.4
 20
55.1423
 30
0.0
 11
183.4
 21
41.1413
 31
0.0
  0
LINE
  8
0
 62
     1
 10
183.4
 20
41.1413
 30
0.0
 11
169.401
 21
41.1413
 31
0.0
  0
LINE
  8
0
 62
     1
 10
169.401
 20
41.1413
 30
0.0
 11
169.401
 21
55.1423
 31
0.0
  0
LINE
  8
0
 62
     1
 10
150.351
 20
55.1423
 30
0.0
 11
164.35
 21
55.1423
 31
0.0
  0
LINE
  8
0
 62
     1
 10
164.35
 20
55.1423
 30
0.0
 11
164.35
 21
41.1413
 31
0.0
  0
LINE
  8
0
 62
     1
 10
164.35
 20
41.1413
 30
0.0
 11
150.351
 21
41.1413
 31
0.0
  0
LINE
  8
0
 62
     1
 10
150.351
 20
41.1413
 30
0.0
 11
150.351
 21
55.1423
 31
0.0
  0
LINE
  8
0
 62
     1
 10
131.301
 20
55.1423
 30
0.0
 11
145.3
 21
55.1423
 31
0.0
  0
LINE
  8
0
 62
     1
 10
145.3
 20
55.1423
 30
0.0
 11
145.3
 21
41.1413
 31
0.0
  0
LINE
  8
0
 62
     1
 10
145.3
 20
41.1413
 30
0.0
 11
131.301
 21
41.1413
 31
0.0
  0
LINE
  8
0
 62
     1
 10
131.301
 20
41.1413
 30
0.0
 11
131.301
 21
55.1423
 31
0.0
  0
LINE
  8
0
 62
     1
 10
112.251
 20
55.1423
 30
0.0
 11
126.25
 21
55.1423
 31
0.0
  0
LINE
  8
0
 62
     1
 10
126.25
 20
55.1423
 30
0.0
 11
126.25
 21
41.1413
 31
0.0
  0
LINE
  8
0
 62
     1
 10
126.25
 20
41.1413
 30
0.0
 11
112.251
 21
41.1413
 31
0.0
  0
LINE
  8
0
 62
     1
 10
112.251
 20
41.1413
 30
0.0
 11
112.251
 21
55.1423
 31
0.0
  0
LINE
  8
0
 62
     1
 10
93.2007
 20
55.1423
 30
0.0
 11
107.2
 21
55.1423
 31
0.0
  0
LINE
  8
0
 62
     1
 10
107.2
 20
55.1423
 30
0.0
 11
107.2
 21
41.1413
 31
0.0
  0
LINE
  8
0
 62
     1
 10
107.2
 20
41.1413
 30
0.0
 11
93.2007
 21
41.1413
 31
0.0
  0
LINE
  8
0
 62
     1
 10
93.2007
 20
41.1413
 30
0.0
 11
93.2007
 21
55.1423
 31
0.0
  0
LINE
  8
0
 62
     1
 10
74.1507
 20
55.1423
 30
0.0
 11
88.1503
 21
55.1423
 31
0.0
  0
LINE
  8
0
 62
     1
 10
88.1503
 20
55.1423
 30
0.0
 11
88.1503
 21
41.1413
 31
0.0
  0
LINE
  8
0
 62
     1
 10
88.1503
 20
41.1413
 30
0.0
 11
74.1507
 21
41.1413
 31
0.0
  0
LINE
  8
0
 62
     1
 10
74.1507
 20
41.1413
 30
0.0
 11
74.1507
 21
55.1423
 31
0.0
  0
LINE
  8
0
 62
     1
 10
55.1007
 20
55.1423
 30
0.0
 11
69.1003
 21
55.1423
 31
0.0
  0
LINE
  8
0
 62
     1
 10
69.1003
 20
55.1423
 30
0.0
 11
69.1003
 21
41.1413
 31
0.0
  0
LINE
  8
0
 62
     1
 10
69.1003
 20
41.1413
 30
0.0
 11
55.1007
 21
41.1413
 31
0.0
  0
LINE
  8
0
 62
     1
 10
55.1007
 20
41.1413
 30
0.0
 11
55.1007
 21
55.1423
 31
0.0
  0
LINE
  8
0
 62
     1
 10
36.0507
 20
55.1423
 30
0.0
 11
50.0503
 21
55.1423
 31
0.0
  0
LINE
  8
0
 62
     1
 10
50.0503
 20
55.1423
 30
0.0
 11
50.0503
 21
41.1413
 31
0.0
  0
LINE
  8
0
 62
     1
 10
50.0503
 20
41.1413
 30
0.0
 11
36.0507
 21
41.1413
 31
0.0
  0
LINE
  8
0
 62
     1
 10
36.0507
 20
41.1413
 30
0.0
 11
36.0507
 21
55.1423
 31
0.0
  0
LINE
  8
0
 62
     1
 10
9.85711
 20
55.1423
 30
0.0
 11
23.8566
 21
55.1423
 31
0.0
  0
LINE
  8
0
 62
     1
 10
23.8566
 20
55.1423
 30
0.0
 11
23.8566
 21
41.1413
 31
0.0
  0
LINE
  8
0
 62
     1
 10
23.8566
 20
41.1413
 30
0.0
 11
9.85711
 21
41.1413
 31
0.0
  0
LINE
  8
0
 62
     1
 10
9.85711
 20
41.1413
 30
0.0
 11
9.85711
 21
55.1423
 31
0.0
  0
LINE
  8
0
 62
     1
 10
264.651
 20
74.1923
 30
0.0
 11
278.65
 21
74.1923
 31
0.0
  0
LINE
  8
0
 62
     1
 10
278.65
 20
74.1923
 30
0.0
 11
278.65
 21
60.1913
 31
0.0
  0
LINE
  8
0
 62
     1
 10
278.65
 20
60.1913
 30
0.0
 11
264.651
 21
60.1913
 31
0.0
  0
LINE
  8
0
 62
     1
 10
264.651
 20
60.1913
 30
0.0
 11
264.651
 21
74.1923
 31
0.0
  0
LINE
  8
0
 62
     1
 10
240.838
 20
74.1923
 30
0.0
 11
254.838
 21
74.1923
 31
0.0
  0
LINE
  8
0
 62
     1
 10
254.838
 20
74.1923
 30
0.0
 11
254.838
 21
60.1913
 31
0.0
  0
LINE
  8
0
 62
     1
 10
254.838
 20
60.1913
 30
0.0
 11
240.838
 21
60.1913
 31
0.0
  0
LINE
  8
0
 62
     1
 10
240.838
 20
60.1913
 30
0.0
 11
240.838
 21
74.1923
 31
0.0
  0
LINE
  8
0
 62
     1
 10
221.788
 20
74.1923
 30
0.0
 11
235.789
 21
74.1923
 31
0.0
  0
LINE
  8
0
 62
     1
 10
235.789
 20
74.1923
 30
0.0
 11
235.789
 21
60.1913
 31
0.0
  0
LINE
  8
0
 62
     1
 10
235.789
 20
60.1913
 30
0.0
 11
221.788
 21
60.1913
 31
0.0
  0
LINE
  8
0
 62
     1
 10
221.788
 20
60.1913
 30
0.0
 11
221.788
 21
74.1923
 31
0.0
  0
LINE
  8
0
 62
     1
 10
202.738
 20
74.1923
 30
0.0
 11
216.739
 21
74.1923
 31
0.0
  0
LINE
  8
0
 62
     1
 10
216.739
 20
74.1923
 30
0.0
 11
216.739
 21
60.1913
 31
0.0
  0
LINE
  8
0
 62
     1
 10
216.739
 20
60.1913
 30
0.0
 11
202.738
 21
60.1913
 31
0.0
  0
LINE
  8
0
 62
     1
 10
202.738
 20
60.1913
 30
0.0
 11
202.738
 21
74.1923
 31
0.0
  0
LINE
  8
0
 62
     1
 10
183.688
 20
74.1923
 30
0.0
 11
197.689
 21
74.1923
 31
0.0
  0
LINE
  8
0
 62
     1
 10
197.689
 20
74.1923
 30
0.0
 11
197.689
 21
60.1913
 31
0.0
  0
LINE
  8
0
 62
     1
 10
197.689
 20
60.1913
 30
0.0
 11
183.688
 21
60.1913
 31
0.0
  0
LINE
  8
0
 62
     1
 10
183.688
 20
60.1913
 30
0.0
 11
183.688
 21
74.1923
 31
0.0
  0
LINE
  8
0
 62
     1
 10
164.638
 20
74.1923
 30
0.0
 11
178.639
 21
74.1923
 31
0.0
  0
LINE
  8
0
 62
     1
 10
178.639
 20
74.1923
 30
0.0
 11
178.639
 21
60.1913
 31
0.0
  0
LINE
  8
0
 62
     1
 10
178.639
 20
60.1913
 30
0.0
 11
164.638
 21
60.1913
 31
0.0
  0
LINE
  8
0
 62
     1
 10
164.638
 20
60.1913
 30
0.0
 11
164.638
 21
74.1923
 31
0.0
  0
LINE
  8
0
 62
     1
 10
145.588
 20
74.1923
 30
0.0
 11
159.589
 21
74.1923
 31
0.0
  0
LINE
  8
0
 62
     1
 10
159.589
 20
74.1923
 30
0.0
 11
159.589
 21
60.1913
 31
0.0
  0
LINE
  8
0
 62
     1
 10
159.589
 20
60.1913
 30
0.0
 11
145.588
 21
60.1913
 31
0.0
  0
LINE
  8
0
 62
     1
 10
145.588
 20
60.1913
 30
0.0
 11
145.588
 21
74.1923
 31
0.0
  0
LINE
  8
0
 62
     1
 10
126.538
 20
74.1923
 30
0.0
 11
140.539
 21
74.1923
 31
0.0
  0
LINE
  8
0
 62
     1
 10
140.539
 20
74.1923
 30
0.0
 11
140.539
 21
60.1913
 31
0.0
  0
LINE
  8
0
 62
     1
 10
140.539
 20
60.1913
 30
0.0
 11
126.538
 21
60.1913
 31
0.0
  0
LINE
  8
0
 62
     1
 10
126.538
 20
60.1913
 30
0.0
 11
126.538
 21
74.1923
 31
0.0
  0
LINE
  8
0
 62
     1
 10
107.488
 20
74.1923
 30
0.0
 11
121.489
 21
74.1923
 31
0.0
  0
LINE
  8
0
 62
     1
 10
121.489
 20
74.1923
 30
0.0
 11
121.489
 21
60.1913
 31
0.0
  0
LINE
  8
0
 62
     1
 10
121.489
 20
60.1913
 30
0.0
 11
107.488
 21
60.1913
 31
0.0
  0
LINE
  8
0
 62
     1
 10
107.488
 20
60.1913
 30
0.0
 11
107.488
 21
74.1923
 31
0.0
  0
LINE
  8
0
 62
     1
 10
88.4382
 20
74.1923
 30
0.0
 11
102.439
 21
74.1923
 31
0.0
  0
LINE
  8
0
 62
     1
 10
102.439
 20
74.1923
 30
0.0
 11
102.439
 21
60.1913
 31
0.0
  0
LINE
  8
0
 62
     1
 10
102.439
 20
60.1913
 30
0.0
 11
88.4382
 21
60.1913
 31
0.0
  0
LINE
  8
0
 62
     1
 10
88.4382
 20
60.1913
 30
0.0
 11
88.4382
 21
74.1923
 31
0.0
  0
LINE
  8
0
 62
     1
 10
69.3882
 20
74.1923
 30
0.0
 11
83.3893
 21
74.1923
 31
0.0
  0
LINE
  8
0
 62
     1
 10
83.3893
 20
74.1923
 30
0.0
 11
83.3893
 21
60.1913
 31
0.0
  0
LINE
  8
0
 62
     1
 10
83.3893
 20
60.1913
 30
0.0
 11
69.3882
 21
60.1913
 31
0.0
  0
LINE
  8
0
 62
     1
 10
69.3882
 20
60.1913
 30
0.0
 11
69.3882
 21
74.1923
 31
0.0
  0
LINE
  8
0
 62
     1
 10
50.3382
 20
74.1923
 30
0.0
 11
64.3393
 21
74.1923
 31
0.0
  0
LINE
  8
0
 62
     1
 10
64.3393
 20
74.1923
 30
0.0
 11
64.3393
 21
60.1913
 31
0.0
  0
LINE
  8
0
 62
     1
 10
64.3393
 20
60.1913
 30
0.0
 11
50.3382
 21
60.1913
 31
0.0
  0
LINE
  8
0
 62
     1
 10
50.3382
 20
60.1913
 30
0.0
 11
50.3382
 21
74.1923
 31
0.0
  0
LINE
  8
0
 62
     1
 10
31.2884
 20
74.1923
 30
0.0
 11
45.2893
 21
74.1923
 31
0.0
  0
LINE
  8
0
 62
     1
 10
45.2893
 20
74.1923
 30
0.0
 11
45.2893
 21
60.1913
 31
0.0
  0
LINE
  8
0
 62
     1
 10
45.2893
 20
60.1913
 30
0.0
 11
31.2884
 21
60.1913
 31
0.0
  0
LINE
  8
0
 62
     1
 10
31.2884
 20
60.1913
 30
0.0
 11
31.2884
 21
74.1923
 31
0.0
  0
LINE
  8
0
 62
     1
 10
7.47586
 20
74.1923
 30
0.0
 11
21.4753
 21
74.1923
 31
0.0
  0
LINE
  8
0
 62
     1
 10
21.4753
 20
74.1923
 30
0.0
 11
21.4753
 21
60.1913
 31
0.0
  0
LINE
  8
0
 62
     1
 10
21.4753
 20
60.1913
 30
0.0
 11
7.47586
 21
60.1913
 31
0.0
  0
LINE
  8
0
 62
     1
 10
7.47586
 20
60.1913
 30
0.0
 11
7.47586
 21
74.1923
 31
0.0
  0
LINE
  8
0
 62
     1
 10
269.413
 20
93.2423
 30
0.0
 11
283.414
 21
93.2423
 31
0.0
  0
LINE
  8
0
 62
     1
 10
283.414
 20
93.2423
 30
0.0
 11
283.414
 21
79.2413
 31
0.0
  0
LINE
  8
0
 62
     1
 10
283.414
 20
79.2413
 30
0.0
 11
269.413
 21
79.2413
 31
0.0
  0
LINE
  8
0
 62
     1
 10
269.413
 20
79.2413
 30
0.0
 11
269.413
 21
93.2423
 31
0.0
  0
LINE
  8
0
 62
     1
 10
250.363
 20
93.2423
 30
0.0
 11
264.364
 21
93.2423
 31
0.0
  0
LINE
  8
0
 62
     1
 10
264.364
 20
93.2423
 30
0.0
 11
264.364
 21
79.2413
 31
0.0
  0
LINE
  8
0
 62
     1
 10
264.364
 20
79.2413
 30
0.0
 11
250.363
 21
79.2413
 31
0.0
  0
LINE
  8
0
 62
     1
 10
250.363
 20
79.2413
 30
0.0
 11
250.363
 21
93.2423
 31
0.0
  0
LINE
  8
0
 62
     1
 10
231.313
 20
93.2423
 30
0.0
 11
245.314
 21
93.2423
 31
0.0
  0
LINE
  8
0
 62
     1
 10
245.314
 20
93.2423
 30
0.0
 11
245.314
 21
79.2413
 31
0.0
  0
LINE
  8
0
 62
     1
 10
245.314
 20
79.2413
 30
0.0
 11
231.313
 21
79.2413
 31
0.0
  0
LINE
  8
0
 62
     1
 10
231.313
 20
79.2413
 30
0.0
 11
231.313
 21
93.2423
 31
0.0
  0
LINE
  8
0
 62
     1
 10
212.263
 20
93.2423
 30
0.0
 11
226.264
 21
93.2423
 31
0.0
  0
LINE
  8
0
 62
     1
 10
226.264
 20
93.2423
 30
0.0
 11
226.264
 21
79.2413
 31
0.0
  0
LINE
  8
0
 62
     1
 10
226.264
 20
79.2413
 30
0.0
 11
212.263
 21
79.2413
 31
0.0
  0
LINE
  8
0
 62
     1
 10
212.263
 20
79.2413
 30
0.0
 11
212.263
 21
93.2423
 31
0.0
  0
LINE
  8
0
 62
     1
 10
193.213
 20
93.2423
 30
0.0
 11
207.214
 21
93.2423
 31
0.0
  0
LINE
  8
0
 62
     1
 10
207.214
 20
93.2423
 30
0.0
 11
207.214
 21
79.2413
 31
0.0
  0
LINE
  8
0
 62
     1
 10
207.214
 20
79.2413
 30
0.0
 11
193.213
 21
79.2413
 31
0.0
  0
LINE
  8
0
 62
     1
 10
193.213
 20
79.2413
 30
0.0
 11
193.213
 21
93.2423
 31
0.0
  0
LINE
  8
0
 62
     1
 10
174.163
 20
93.2423
 30
0.0
 11
188.164
 21
93.2423
 31
0.0
  0
LINE
  8
0
 62
     1
 10
188.164
 20
93.2423
 30
0.0
 11
188.164
 21
79.2413
 31
0.0
  0
LINE
  8
0
 62
     1
 10
188.164
 20
79.2413
 30
0.0
 11
174.163
 21
79.2413
 31
0.0
  0
LINE
  8
0
 62
     1
 10
174.163
 20
79.2413
 30
0.0
 11
174.163
 21
93.2423
 31
0.0
  0
LINE
  8
0
 62
     1
 10
155.113
 20
93.2423
 30
0.0
 11
169.114
 21
93.2423
 31
0.0
  0
LINE
  8
0
 62
     1
 10
169.114
 20
93.2423
 30
0.0
 11
169.114
 21
79.2413
 31
0.0
  0
LINE
  8
0
 62
     1
 10
169.114
 20
79.2413
 30
0.0
 11
155.113
 21
79.2413
 31
0.0
  0
LINE
  8
0
 62
     1
 10
155.113
 20
79.2413
 30
0.0
 11
155.113
 21
93.2423
 31
0.0
  0
LINE
  8
0
 62
     1
 10
136.063
 20
93.2423
 30
0.0
 11
150.064
 21
93.2423
 31
0.0
  0
LINE
  8
0
 62
     1
 10
150.064
 20
93.2423
 30
0.0
 11
150.064
 21
79.2413
 31
0.0
  0
LINE
  8
0
 62
     1
 10
150.064
 20
79.2413
 30
0.0
 11
136.063
 21
79.2413
 31
0.0
  0
LINE
  8
0
 62
     1
 10
136.063
 20
79.2413
 30
0.0
 11
136.063
 21
93.2423
 31
0.0
  0
LINE
  8
0
 62
     1
 10
117.013
 20
93.2423
 30
0.0
 11
131.014
 21
93.2423
 31
0.0
  0
LINE
  8
0
 62
     1
 10
131.014
 20
93.2423
 30
0.0
 11
131.014
 21
79.2413
 31
0.0
  0
LINE
  8
0
 62
     1
 10
131.014
 20
79.2413
 30
0.0
 11
117.013
 21
79.2413
 31
0.0
  0
LINE
  8
0
 62
     1
 10
117.013
 20
79.2413
 30
0.0
 11
117.013
 21
93.2423
 31
0.0
  0
LINE
  8
0
 62
     1
 10
97.9632
 20
93.2423
 30
0.0
 11
111.963
 21
93.2423
 31
0.0
  0
LINE
  8
0
 62
     1
 10
111.963
 20
93.2423
 30
0.0
 11
111.963
 21
79.2413
 31
0.0
  0
LINE
  8
0
 62
     1
 10
111.963
 20
79.2413
 30
0.0
 11
97.9632
 21
79.2413
 31
0.0
  0
LINE
  8
0
 62
     1
 10
97.9632
 20
79.2413
 30
0.0
 11
97.9632
 21
93.2423
 31
0.0
  0
LINE
  8
0
 62
     1
 10
78.9132
 20
93.2423
 30
0.0
 11
92.9143
 21
93.2423
 31
0.0
  0
LINE
  8
0
 62
     1
 10
92.9143
 20
93.2423
 30
0.0
 11
92.9143
 21
79.2413
 31
0.0
  0
LINE
  8
0
 62
     1
 10
92.9143
 20
79.2413
 30
0.0
 11
78.9132
 21
79.2413
 31
0.0
  0
LINE
  8
0
 62
     1
 10
78.9132
 20
79.2413
 30
0.0
 11
78.9132
 21
93.2423
 31
0.0
  0
LINE
  8
0
 62
     1
 10
59.8632
 20
93.2423
 30
0.0
 11
73.8643
 21
93.2423
 31
0.0
  0
LINE
  8
0
 62
     1
 10
73.8643
 20
93.2423
 30
0.0
 11
73.8643
 21
79.2413
 31
0.0
  0
LINE
  8
0
 62
     1
 10
73.8643
 20
79.2413
 30
0.0
 11
59.8632
 21
79.2413
 31
0.0
  0
LINE
  8
0
 62
     1
 10
59.8632
 20
79.2413
 30
0.0
 11
59.8632
 21
93.2423
 31
0.0
  0
LINE
  8
0
 62
     1
 10
40.8132
 20
93.2423
 30
0.0
 11
54.8143
 21
93.2423
 31
0.0
  0
LINE
  8
0
 62
     1
 10
54.8143
 20
93.2423
 30
0.0
 11
54.8143
 21
79.2413
 31
0.0
  0
LINE
  8
0
 62
     1
 10
54.8143
 20
79.2413
 30
0.0
 11
40.8132
 21
79.2413
 31
0.0
  0
LINE
  8
0
 62
     1
 10
40.8132
 20
79.2413
 30
0.0
 11
40.8132
 21
93.2423
 31
0.0
  0
LINE
  8
0
 62
     1
 10
21.7634
 20
93.2423
 30
0.0
 11
35.7643
 21
93.2423
 31
0.0
  0
LINE
  8
0
 62
     1
 10
35.7643
 20
93.2423
 30
0.0
 11
35.7643
 21
79.2413
 31
0.0
  0
LINE
  8
0
 62
     1
 10
35.7643
 20
79.2413
 30
0.0
 11
21.7634
 21
79.2413
 31
0.0
  0
LINE
  8
0
 62
     1
 10
21.7634
 20
79.2413
 30
0.0
 11
21.7634
 21
93.2423
 31
0.0
  0
LINE
  8
0
 62
     1
 10
2.71336
 20
93.2423
 30
0.0
 11
16.7142
 21
93.2423
 31
0.0
  0
LINE
  8
0
 62
     1
 10
16.7142
 20
93.2423
 30
0.0
 11
16.7142
 21
79.2413
 31
0.0
  0
LINE
  8
0
 62
     1
 10
16.7142
 20
79.2413
 30
0.0
 11
2.71336
 21
79.2413
 31
0.0
  0
LINE
  8
0
 62
     1
 10
2.71336
 20
79.2413
 30
0.0
 11
2.71336
 21
93.2423
 31
0.0
  0
ENDSEC
  0
EOF
