M48
; DRILL file {KiCad 5.1.9+dfsg1-1} date Wed Feb 16 13:07:31 2022
; FORMAT={-:-/ absolute / metric / decimal}
; #@! TF.CreationDate,2022-02-16T13:07:31+01:00
; #@! TF.GenerationSoftware,Kicad,Pcbnew,5.1.9+dfsg1-1
; #@! TF.FileFunction,NonPlated,1,2,NPTH
FMAT,2
METRIC
T1C1.700
T2C3.050
T3C4.000
%
G90
G05
T1
X113.64Y-92.07
X113.64Y-111.12
X113.65Y-72.99
X113.66Y-53.91
X123.17Y-130.2
X123.8Y-92.07
X123.8Y-111.12
X123.81Y-72.99
X123.82Y-53.91
X132.69Y-53.95
X132.69Y-111.11
X132.71Y-72.99
X132.71Y-92.05
X133.33Y-130.2
X142.85Y-53.95
X142.85Y-111.11
X142.87Y-72.99
X142.87Y-92.05
X151.75Y-53.99
X151.75Y-73.01
X151.75Y-130.18
X151.8Y-92.02
X151.8Y-111.09
X161.91Y-53.99
X161.91Y-73.01
X161.91Y-130.18
X161.96Y-92.02
X161.96Y-111.09
X170.81Y-120.62
X170.83Y-53.99
X170.83Y-73.01
X170.83Y-91.99
X180.97Y-120.62
X180.99Y-53.99
X180.99Y-73.01
X180.99Y-91.99
T2
X116.35Y-123.2
X140.15Y-123.2
X168.89Y-108.72
X168.89Y-132.52
T3
X116.35Y-138.44
X118.72Y-92.07
X118.72Y-111.12
X118.73Y-72.99
X118.74Y-53.91
X128.25Y-130.2
X137.77Y-53.95
X137.77Y-111.11
X137.79Y-72.99
X137.79Y-92.05
X140.15Y-138.44
X156.83Y-53.99
X156.83Y-73.01
X156.83Y-130.18
X156.88Y-92.02
X156.88Y-111.09
X175.89Y-120.62
X175.91Y-53.99
X175.91Y-73.01
X175.91Y-91.99
X184.13Y-108.72
X184.13Y-132.52
T0
M30
