%TF.GenerationSoftware,KiCad,Pcbnew,5.1.9+dfsg1-1*%
%TF.CreationDate,2022-02-16T13:07:23+01:00*%
%TF.ProjectId,A130XE_CX85,41313330-5845-45f4-9358-38352e6b6963,0.1*%
%TF.SameCoordinates,Original*%
%TF.FileFunction,Copper,L2,Bot*%
%TF.FilePolarity,Positive*%
%FSLAX46Y46*%
G04 Gerber Fmt 4.6, Leading zero omitted, Abs format (unit mm)*
G04 Created by KiCad (PCBNEW 5.1.9+dfsg1-1) date 2022-02-16 13:07:23*
%MOMM*%
%LPD*%
G01*
G04 APERTURE LIST*
%TA.AperFunction,ComponentPad*%
%ADD10C,1.600000*%
%TD*%
%TA.AperFunction,ComponentPad*%
%ADD11R,1.600000X1.600000*%
%TD*%
%TA.AperFunction,ComponentPad*%
%ADD12C,2.200000*%
%TD*%
%TA.AperFunction,ComponentPad*%
%ADD13O,1.600000X1.600000*%
%TD*%
%TA.AperFunction,ComponentPad*%
%ADD14C,5.600000*%
%TD*%
G04 APERTURE END LIST*
D10*
%TO.P,J1,9*%
%TO.N,/JOY_9*%
X66240000Y-44735000D03*
%TO.P,J1,8*%
%TO.N,GND*%
X66240000Y-47505000D03*
%TO.P,J1,7*%
%TO.N,+5V*%
X66240000Y-50275000D03*
%TO.P,J1,6*%
%TO.N,/JOY_6*%
X66240000Y-53045000D03*
%TO.P,J1,5*%
%TO.N,/JOY_5*%
X68780000Y-43350000D03*
%TO.P,J1,4*%
%TO.N,/JOY_4*%
X68780000Y-46120000D03*
%TO.P,J1,3*%
%TO.N,/JOY_3*%
X68780000Y-48890000D03*
%TO.P,J1,2*%
%TO.N,/JOY_2*%
X68780000Y-51660000D03*
D11*
%TO.P,J1,1*%
%TO.N,/JOY_1*%
X68780000Y-54430000D03*
%TD*%
%TO.P,J2,1*%
%TO.N,D0*%
X68850000Y-86560000D03*
D10*
%TO.P,J2,2*%
%TO.N,D1*%
X68850000Y-83790000D03*
%TO.P,J2,3*%
%TO.N,D2*%
X68850000Y-81020000D03*
%TO.P,J2,4*%
%TO.N,D3*%
X68850000Y-78250000D03*
%TO.P,J2,5*%
%TO.N,D4*%
X68850000Y-75480000D03*
%TO.P,J2,6*%
%TO.N,D5*%
X66310000Y-85175000D03*
%TO.P,J2,7*%
%TO.N,+5V*%
X66310000Y-82405000D03*
%TO.P,J2,8*%
%TO.N,GND*%
X66310000Y-79635000D03*
%TO.P,J2,9*%
%TO.N,Net-(J2-Pad9)*%
X66310000Y-76865000D03*
%TD*%
D11*
%TO.P,J3,1*%
%TO.N,/JOY_1*%
X206730000Y-54500000D03*
D10*
%TO.P,J3,2*%
%TO.N,/JOY_2*%
X206730000Y-51730000D03*
%TO.P,J3,3*%
%TO.N,/JOY_3*%
X206730000Y-48960000D03*
%TO.P,J3,4*%
%TO.N,/JOY_4*%
X206730000Y-46190000D03*
%TO.P,J3,5*%
%TO.N,/JOY_5*%
X206730000Y-43420000D03*
%TO.P,J3,6*%
%TO.N,/JOY_6*%
X209270000Y-53115000D03*
%TO.P,J3,7*%
%TO.N,+5V*%
X209270000Y-50345000D03*
%TO.P,J3,8*%
%TO.N,GND*%
X209270000Y-47575000D03*
%TO.P,J3,9*%
%TO.N,/JOY_9*%
X209270000Y-44805000D03*
%TD*%
D12*
%TO.P,SW1,1*%
%TO.N,COL0*%
X178450000Y-67930000D03*
%TO.P,SW1,2*%
%TO.N,ROW0*%
X172100000Y-70470000D03*
%TD*%
%TO.P,SW2,1*%
%TO.N,COL1*%
X159420000Y-106010000D03*
%TO.P,SW2,2*%
%TO.N,ROW0*%
X153070000Y-108550000D03*
%TD*%
%TO.P,SW3,2*%
%TO.N,ROW0*%
X153020000Y-70470000D03*
%TO.P,SW3,1*%
%TO.N,COL2*%
X159370000Y-67930000D03*
%TD*%
%TO.P,SW4,2*%
%TO.N,ROW0*%
X153070000Y-89480000D03*
%TO.P,SW4,1*%
%TO.N,COL3*%
X159420000Y-86940000D03*
%TD*%
%TO.P,SW6,2*%
%TO.N,ROW1*%
X133960000Y-108570000D03*
%TO.P,SW6,1*%
%TO.N,COL1*%
X140310000Y-106030000D03*
%TD*%
%TO.P,SW7,1*%
%TO.N,COL2*%
X140330000Y-67910000D03*
%TO.P,SW7,2*%
%TO.N,ROW1*%
X133980000Y-70450000D03*
%TD*%
%TO.P,SW8,1*%
%TO.N,COL3*%
X140330000Y-86970000D03*
%TO.P,SW8,2*%
%TO.N,ROW1*%
X133980000Y-89510000D03*
%TD*%
%TO.P,SW9,2*%
%TO.N,ROW2*%
X153020000Y-127640000D03*
%TO.P,SW9,1*%
%TO.N,COL0*%
X159370000Y-125100000D03*
%TD*%
%TO.P,SW10,1*%
%TO.N,COL1*%
X121260000Y-106040000D03*
%TO.P,SW10,2*%
%TO.N,ROW2*%
X114910000Y-108580000D03*
%TD*%
%TO.P,SW11,2*%
%TO.N,ROW2*%
X114920000Y-70450000D03*
%TO.P,SW11,1*%
%TO.N,COL2*%
X121270000Y-67910000D03*
%TD*%
%TO.P,SW12,2*%
%TO.N,ROW2*%
X114910000Y-89530000D03*
%TO.P,SW12,1*%
%TO.N,COL3*%
X121260000Y-86990000D03*
%TD*%
%TO.P,SW13,2*%
%TO.N,ROW2*%
X172080000Y-118080000D03*
%TO.P,SW13,1*%
%TO.N,COL4*%
X178430000Y-115540000D03*
%TD*%
%TO.P,SW14,1*%
%TO.N,COL0*%
X130790000Y-125120000D03*
%TO.P,SW14,2*%
%TO.N,ROW3*%
X124440000Y-127660000D03*
%TD*%
%TO.P,SW15,1*%
%TO.N,COL1*%
X178450000Y-48910000D03*
%TO.P,SW15,2*%
%TO.N,ROW3*%
X172100000Y-51450000D03*
%TD*%
%TO.P,SW16,1*%
%TO.N,COL2*%
X159370000Y-48910000D03*
%TO.P,SW16,2*%
%TO.N,ROW3*%
X153020000Y-51450000D03*
%TD*%
%TO.P,SW17,1*%
%TO.N,COL3*%
X140310000Y-48870000D03*
%TO.P,SW17,2*%
%TO.N,ROW3*%
X133960000Y-51410000D03*
%TD*%
%TO.P,SW18,2*%
%TO.N,ROW3*%
X114930000Y-51370000D03*
%TO.P,SW18,1*%
%TO.N,COL4*%
X121280000Y-48830000D03*
%TD*%
D11*
%TO.P,U1,1*%
%TO.N,+5V*%
X89530000Y-119310000D03*
D13*
%TO.P,U1,9*%
%TO.N,Net-(U1-Pad9)*%
X97150000Y-137090000D03*
%TO.P,U1,2*%
%TO.N,D0*%
X89530000Y-121850000D03*
%TO.P,U1,10*%
%TO.N,D3*%
X97150000Y-134550000D03*
%TO.P,U1,3*%
%TO.N,Net-(U1-Pad3)*%
X89530000Y-124390000D03*
%TO.P,U1,11*%
%TO.N,Net-(U1-Pad11)*%
X97150000Y-132010000D03*
%TO.P,U1,4*%
%TO.N,D1*%
X89530000Y-126930000D03*
%TO.P,U1,12*%
%TO.N,D4*%
X97150000Y-129470000D03*
%TO.P,U1,5*%
%TO.N,Net-(U1-Pad5)*%
X89530000Y-129470000D03*
%TO.P,U1,13*%
%TO.N,N/C*%
X97150000Y-126930000D03*
%TO.P,U1,6*%
%TO.N,D2*%
X89530000Y-132010000D03*
%TO.P,U1,14*%
%TO.N,Net-(U1-Pad14)*%
X97150000Y-124390000D03*
%TO.P,U1,7*%
%TO.N,Net-(U1-Pad7)*%
X89530000Y-134550000D03*
%TO.P,U1,15*%
%TO.N,D5*%
X97150000Y-121850000D03*
%TO.P,U1,8*%
%TO.N,GND*%
X89530000Y-137090000D03*
%TO.P,U1,16*%
%TO.N,N/C*%
X97150000Y-119310000D03*
%TD*%
D11*
%TO.P,U2,1*%
%TO.N,COL0*%
X89540000Y-90120000D03*
D13*
%TO.P,U2,11*%
%TO.N,ROW1*%
X97160000Y-112980000D03*
%TO.P,U2,2*%
%TO.N,COL1*%
X89540000Y-92660000D03*
%TO.P,U2,12*%
%TO.N,ROW0*%
X97160000Y-110440000D03*
%TO.P,U2,3*%
%TO.N,COL2*%
X89540000Y-95200000D03*
%TO.P,U2,13*%
%TO.N,Net-(U1-Pad14)*%
X97160000Y-107900000D03*
%TO.P,U2,4*%
%TO.N,COL3*%
X89540000Y-97740000D03*
%TO.P,U2,14*%
%TO.N,GND*%
X97160000Y-105360000D03*
%TO.P,U2,5*%
%TO.N,COL4*%
X89540000Y-100280000D03*
%TO.P,U2,15*%
%TO.N,Net-(U1-Pad11)*%
X97160000Y-102820000D03*
%TO.P,U2,6*%
%TO.N,Net-(C2-Pad1)*%
X89540000Y-102820000D03*
%TO.P,U2,16*%
%TO.N,Net-(U1-Pad9)*%
X97160000Y-100280000D03*
%TO.P,U2,7*%
%TO.N,Net-(C3-Pad1)*%
X89540000Y-105360000D03*
%TO.P,U2,17*%
%TO.N,Net-(U1-Pad7)*%
X97160000Y-97740000D03*
%TO.P,U2,8*%
%TO.N,ROW3*%
X89540000Y-107900000D03*
%TO.P,U2,18*%
%TO.N,Net-(U1-Pad5)*%
X97160000Y-95200000D03*
%TO.P,U2,9*%
%TO.N,ROW2*%
X89540000Y-110440000D03*
%TO.P,U2,19*%
%TO.N,Net-(U1-Pad3)*%
X97160000Y-92660000D03*
%TO.P,U2,10*%
%TO.N,GND*%
X89540000Y-112980000D03*
%TO.P,U2,20*%
%TO.N,+5V*%
X97160000Y-90120000D03*
%TD*%
D12*
%TO.P,SW5,1*%
%TO.N,COL0*%
X178450000Y-86910000D03*
%TO.P,SW5,2*%
%TO.N,ROW1*%
X172100000Y-89450000D03*
%TD*%
D14*
%TO.P,H1,1*%
%TO.N,GND*%
X65000000Y-37500000D03*
%TD*%
%TO.P,H2,1*%
%TO.N,GND*%
X210000000Y-37500000D03*
%TD*%
%TO.P,H3,1*%
%TO.N,GND*%
X210000000Y-65000000D03*
%TD*%
%TO.P,H4,1*%
%TO.N,GND*%
X190000000Y-142500000D03*
%TD*%
%TO.P,H5,1*%
%TO.N,GND*%
X82500000Y-142500000D03*
%TD*%
%TO.P,H6,1*%
%TO.N,GND*%
X65000000Y-95000000D03*
%TD*%
D10*
%TO.P,C1,1*%
%TO.N,+5V*%
X85310000Y-120300000D03*
%TO.P,C1,2*%
%TO.N,GND*%
X85310000Y-122800000D03*
%TD*%
%TO.P,C2,1*%
%TO.N,Net-(C2-Pad1)*%
X85380000Y-111690000D03*
%TO.P,C2,2*%
%TO.N,GND*%
X85380000Y-114190000D03*
%TD*%
%TO.P,C3,2*%
%TO.N,GND*%
X85450000Y-107500000D03*
%TO.P,C3,1*%
%TO.N,Net-(C3-Pad1)*%
X85450000Y-105000000D03*
%TD*%
M02*
