%TF.GenerationSoftware,KiCad,Pcbnew,5.1.9+dfsg1-1*%
%TF.CreationDate,2022-02-16T13:07:29+01:00*%
%TF.ProjectId,A130XE_CX85,41313330-5845-45f4-9358-38352e6b6963,0.1*%
%TF.SameCoordinates,Original*%
%TF.FileFunction,Legend,Top*%
%TF.FilePolarity,Positive*%
%FSLAX46Y46*%
G04 Gerber Fmt 4.6, Leading zero omitted, Abs format (unit mm)*
G04 Created by KiCad (PCBNEW 5.1.9+dfsg1-1) date 2022-02-16 13:07:29*
%MOMM*%
%LPD*%
G01*
G04 APERTURE LIST*
%ADD10C,0.120000*%
%ADD11C,0.150000*%
G04 APERTURE END LIST*
D10*
%TO.C,J1*%
X70101325Y-54430000D02*
X70534338Y-54180000D01*
X70534338Y-54680000D02*
X70101325Y-54430000D01*
X70534338Y-54180000D02*
X70534338Y-54680000D01*
X61000000Y-57500000D02*
X56900000Y-57500000D01*
X61000000Y-55490000D02*
X61000000Y-57500000D01*
X69840000Y-55490000D02*
X61000000Y-55490000D01*
X69840000Y-42290000D02*
X69840000Y-55490000D01*
X61000000Y-42290000D02*
X69840000Y-42290000D01*
X61000000Y-40280000D02*
X61000000Y-42290000D01*
X56900000Y-40280000D02*
X61000000Y-40280000D01*
%TO.C,J2*%
X56970000Y-72410000D02*
X61070000Y-72410000D01*
X61070000Y-72410000D02*
X61070000Y-74420000D01*
X61070000Y-74420000D02*
X69910000Y-74420000D01*
X69910000Y-74420000D02*
X69910000Y-87620000D01*
X69910000Y-87620000D02*
X61070000Y-87620000D01*
X61070000Y-87620000D02*
X61070000Y-89630000D01*
X61070000Y-89630000D02*
X56970000Y-89630000D01*
X70604338Y-86310000D02*
X70604338Y-86810000D01*
X70604338Y-86810000D02*
X70171325Y-86560000D01*
X70171325Y-86560000D02*
X70604338Y-86310000D01*
%TO.C,J3*%
X218610000Y-57570000D02*
X214510000Y-57570000D01*
X214510000Y-57570000D02*
X214510000Y-55560000D01*
X214510000Y-55560000D02*
X205670000Y-55560000D01*
X205670000Y-55560000D02*
X205670000Y-42360000D01*
X205670000Y-42360000D02*
X214510000Y-42360000D01*
X214510000Y-42360000D02*
X214510000Y-40350000D01*
X214510000Y-40350000D02*
X218610000Y-40350000D01*
X204975662Y-54750000D02*
X204975662Y-54250000D01*
X204975662Y-54250000D02*
X205408675Y-54500000D01*
X205408675Y-54500000D02*
X204975662Y-54750000D01*
%TO.C,SW1*%
X168925000Y-66025000D02*
X182895000Y-66025000D01*
X182895000Y-66025000D02*
X182895000Y-79995000D01*
X182895000Y-79995000D02*
X168925000Y-79995000D01*
X168925000Y-79995000D02*
X168925000Y-66025000D01*
%TO.C,SW2*%
X149895000Y-104105000D02*
X163865000Y-104105000D01*
X163865000Y-104105000D02*
X163865000Y-118075000D01*
X163865000Y-118075000D02*
X149895000Y-118075000D01*
X149895000Y-118075000D02*
X149895000Y-104105000D01*
%TO.C,SW3*%
X149845000Y-79995000D02*
X149845000Y-66025000D01*
X163815000Y-79995000D02*
X149845000Y-79995000D01*
X163815000Y-66025000D02*
X163815000Y-79995000D01*
X149845000Y-66025000D02*
X163815000Y-66025000D01*
%TO.C,SW4*%
X149895000Y-99005000D02*
X149895000Y-85035000D01*
X163865000Y-99005000D02*
X149895000Y-99005000D01*
X163865000Y-85035000D02*
X163865000Y-99005000D01*
X149895000Y-85035000D02*
X163865000Y-85035000D01*
%TO.C,SW6*%
X130785000Y-118095000D02*
X130785000Y-104125000D01*
X144755000Y-118095000D02*
X130785000Y-118095000D01*
X144755000Y-104125000D02*
X144755000Y-118095000D01*
X130785000Y-104125000D02*
X144755000Y-104125000D01*
%TO.C,SW7*%
X130805000Y-66005000D02*
X144775000Y-66005000D01*
X144775000Y-66005000D02*
X144775000Y-79975000D01*
X144775000Y-79975000D02*
X130805000Y-79975000D01*
X130805000Y-79975000D02*
X130805000Y-66005000D01*
%TO.C,SW8*%
X130805000Y-85065000D02*
X144775000Y-85065000D01*
X144775000Y-85065000D02*
X144775000Y-99035000D01*
X144775000Y-99035000D02*
X130805000Y-99035000D01*
X130805000Y-99035000D02*
X130805000Y-85065000D01*
%TO.C,SW9*%
X149845000Y-137165000D02*
X149845000Y-123195000D01*
X163815000Y-137165000D02*
X149845000Y-137165000D01*
X163815000Y-123195000D02*
X163815000Y-137165000D01*
X149845000Y-123195000D02*
X163815000Y-123195000D01*
%TO.C,SW10*%
X111735000Y-104135000D02*
X125705000Y-104135000D01*
X125705000Y-104135000D02*
X125705000Y-118105000D01*
X125705000Y-118105000D02*
X111735000Y-118105000D01*
X111735000Y-118105000D02*
X111735000Y-104135000D01*
%TO.C,SW11*%
X111745000Y-79975000D02*
X111745000Y-66005000D01*
X125715000Y-79975000D02*
X111745000Y-79975000D01*
X125715000Y-66005000D02*
X125715000Y-79975000D01*
X111745000Y-66005000D02*
X125715000Y-66005000D01*
%TO.C,SW12*%
X111735000Y-99055000D02*
X111735000Y-85085000D01*
X125705000Y-99055000D02*
X111735000Y-99055000D01*
X125705000Y-85085000D02*
X125705000Y-99055000D01*
X111735000Y-85085000D02*
X125705000Y-85085000D01*
%TO.C,SW13*%
X168905000Y-127605000D02*
X168905000Y-113635000D01*
X182875000Y-127605000D02*
X168905000Y-127605000D01*
X182875000Y-113635000D02*
X182875000Y-127605000D01*
X168905000Y-113635000D02*
X182875000Y-113635000D01*
%TO.C,SW14*%
X121265000Y-123215000D02*
X135235000Y-123215000D01*
X135235000Y-123215000D02*
X135235000Y-137185000D01*
X135235000Y-137185000D02*
X121265000Y-137185000D01*
X121265000Y-137185000D02*
X121265000Y-123215000D01*
%TO.C,SW15*%
X168925000Y-47005000D02*
X182895000Y-47005000D01*
X182895000Y-47005000D02*
X182895000Y-60975000D01*
X182895000Y-60975000D02*
X168925000Y-60975000D01*
X168925000Y-60975000D02*
X168925000Y-47005000D01*
%TO.C,SW16*%
X149845000Y-47005000D02*
X163815000Y-47005000D01*
X163815000Y-47005000D02*
X163815000Y-60975000D01*
X163815000Y-60975000D02*
X149845000Y-60975000D01*
X149845000Y-60975000D02*
X149845000Y-47005000D01*
%TO.C,SW17*%
X130785000Y-46965000D02*
X144755000Y-46965000D01*
X144755000Y-46965000D02*
X144755000Y-60935000D01*
X144755000Y-60935000D02*
X130785000Y-60935000D01*
X130785000Y-60935000D02*
X130785000Y-46965000D01*
%TO.C,SW18*%
X111755000Y-60895000D02*
X111755000Y-46925000D01*
X125725000Y-60895000D02*
X111755000Y-60895000D01*
X125725000Y-46925000D02*
X125725000Y-60895000D01*
X111755000Y-46925000D02*
X125725000Y-46925000D01*
%TO.C,U1*%
X92340000Y-117980000D02*
X90690000Y-117980000D01*
X90690000Y-117980000D02*
X90690000Y-138420000D01*
X90690000Y-138420000D02*
X95990000Y-138420000D01*
X95990000Y-138420000D02*
X95990000Y-117980000D01*
X95990000Y-117980000D02*
X94340000Y-117980000D01*
X94340000Y-117980000D02*
G75*
G02*
X92340000Y-117980000I-1000000J0D01*
G01*
%TO.C,U2*%
X92350000Y-88790000D02*
X90700000Y-88790000D01*
X90700000Y-88790000D02*
X90700000Y-114310000D01*
X90700000Y-114310000D02*
X96000000Y-114310000D01*
X96000000Y-114310000D02*
X96000000Y-88790000D01*
X96000000Y-88790000D02*
X94350000Y-88790000D01*
X94350000Y-88790000D02*
G75*
G02*
X92350000Y-88790000I-1000000J0D01*
G01*
%TO.C,SW5*%
X168925000Y-85005000D02*
X182895000Y-85005000D01*
X182895000Y-85005000D02*
X182895000Y-98975000D01*
X182895000Y-98975000D02*
X168925000Y-98975000D01*
X168925000Y-98975000D02*
X168925000Y-85005000D01*
%TO.C,C1*%
X86680000Y-124170000D02*
X83940000Y-124170000D01*
X86680000Y-118930000D02*
X83940000Y-118930000D01*
X83940000Y-118930000D02*
X83940000Y-124170000D01*
X86680000Y-118930000D02*
X86680000Y-124170000D01*
%TO.C,C2*%
X86750000Y-115560000D02*
X84010000Y-115560000D01*
X86750000Y-110320000D02*
X84010000Y-110320000D01*
X84010000Y-110320000D02*
X84010000Y-115560000D01*
X86750000Y-110320000D02*
X86750000Y-115560000D01*
%TO.C,C3*%
X86820000Y-103630000D02*
X86820000Y-108870000D01*
X84080000Y-103630000D02*
X84080000Y-108870000D01*
X86820000Y-103630000D02*
X84080000Y-103630000D01*
X86820000Y-108870000D02*
X84080000Y-108870000D01*
%TO.C,J1*%
D11*
X70032380Y-49223333D02*
X70746666Y-49223333D01*
X70889523Y-49270952D01*
X70984761Y-49366190D01*
X71032380Y-49509047D01*
X71032380Y-49604285D01*
X71032380Y-48223333D02*
X71032380Y-48794761D01*
X71032380Y-48509047D02*
X70032380Y-48509047D01*
X70175238Y-48604285D01*
X70270476Y-48699523D01*
X70318095Y-48794761D01*
%TO.C,J2*%
X70102380Y-81353333D02*
X70816666Y-81353333D01*
X70959523Y-81400952D01*
X71054761Y-81496190D01*
X71102380Y-81639047D01*
X71102380Y-81734285D01*
X70197619Y-80924761D02*
X70150000Y-80877142D01*
X70102380Y-80781904D01*
X70102380Y-80543809D01*
X70150000Y-80448571D01*
X70197619Y-80400952D01*
X70292857Y-80353333D01*
X70388095Y-80353333D01*
X70530952Y-80400952D01*
X71102380Y-80972380D01*
X71102380Y-80353333D01*
%TO.C,J3*%
X204382380Y-49293333D02*
X205096666Y-49293333D01*
X205239523Y-49340952D01*
X205334761Y-49436190D01*
X205382380Y-49579047D01*
X205382380Y-49674285D01*
X204382380Y-48912380D02*
X204382380Y-48293333D01*
X204763333Y-48626666D01*
X204763333Y-48483809D01*
X204810952Y-48388571D01*
X204858571Y-48340952D01*
X204953809Y-48293333D01*
X205191904Y-48293333D01*
X205287142Y-48340952D01*
X205334761Y-48388571D01*
X205382380Y-48483809D01*
X205382380Y-48769523D01*
X205334761Y-48864761D01*
X205287142Y-48912380D01*
%TO.C,SW1*%
X174576666Y-65540761D02*
X174719523Y-65588380D01*
X174957619Y-65588380D01*
X175052857Y-65540761D01*
X175100476Y-65493142D01*
X175148095Y-65397904D01*
X175148095Y-65302666D01*
X175100476Y-65207428D01*
X175052857Y-65159809D01*
X174957619Y-65112190D01*
X174767142Y-65064571D01*
X174671904Y-65016952D01*
X174624285Y-64969333D01*
X174576666Y-64874095D01*
X174576666Y-64778857D01*
X174624285Y-64683619D01*
X174671904Y-64636000D01*
X174767142Y-64588380D01*
X175005238Y-64588380D01*
X175148095Y-64636000D01*
X175481428Y-64588380D02*
X175719523Y-65588380D01*
X175910000Y-64874095D01*
X176100476Y-65588380D01*
X176338571Y-64588380D01*
X177243333Y-65588380D02*
X176671904Y-65588380D01*
X176957619Y-65588380D02*
X176957619Y-64588380D01*
X176862380Y-64731238D01*
X176767142Y-64826476D01*
X176671904Y-64874095D01*
%TO.C,SW2*%
X155546666Y-103620761D02*
X155689523Y-103668380D01*
X155927619Y-103668380D01*
X156022857Y-103620761D01*
X156070476Y-103573142D01*
X156118095Y-103477904D01*
X156118095Y-103382666D01*
X156070476Y-103287428D01*
X156022857Y-103239809D01*
X155927619Y-103192190D01*
X155737142Y-103144571D01*
X155641904Y-103096952D01*
X155594285Y-103049333D01*
X155546666Y-102954095D01*
X155546666Y-102858857D01*
X155594285Y-102763619D01*
X155641904Y-102716000D01*
X155737142Y-102668380D01*
X155975238Y-102668380D01*
X156118095Y-102716000D01*
X156451428Y-102668380D02*
X156689523Y-103668380D01*
X156880000Y-102954095D01*
X157070476Y-103668380D01*
X157308571Y-102668380D01*
X157641904Y-102763619D02*
X157689523Y-102716000D01*
X157784761Y-102668380D01*
X158022857Y-102668380D01*
X158118095Y-102716000D01*
X158165714Y-102763619D01*
X158213333Y-102858857D01*
X158213333Y-102954095D01*
X158165714Y-103096952D01*
X157594285Y-103668380D01*
X158213333Y-103668380D01*
%TO.C,SW3*%
X155496666Y-65540761D02*
X155639523Y-65588380D01*
X155877619Y-65588380D01*
X155972857Y-65540761D01*
X156020476Y-65493142D01*
X156068095Y-65397904D01*
X156068095Y-65302666D01*
X156020476Y-65207428D01*
X155972857Y-65159809D01*
X155877619Y-65112190D01*
X155687142Y-65064571D01*
X155591904Y-65016952D01*
X155544285Y-64969333D01*
X155496666Y-64874095D01*
X155496666Y-64778857D01*
X155544285Y-64683619D01*
X155591904Y-64636000D01*
X155687142Y-64588380D01*
X155925238Y-64588380D01*
X156068095Y-64636000D01*
X156401428Y-64588380D02*
X156639523Y-65588380D01*
X156830000Y-64874095D01*
X157020476Y-65588380D01*
X157258571Y-64588380D01*
X157544285Y-64588380D02*
X158163333Y-64588380D01*
X157830000Y-64969333D01*
X157972857Y-64969333D01*
X158068095Y-65016952D01*
X158115714Y-65064571D01*
X158163333Y-65159809D01*
X158163333Y-65397904D01*
X158115714Y-65493142D01*
X158068095Y-65540761D01*
X157972857Y-65588380D01*
X157687142Y-65588380D01*
X157591904Y-65540761D01*
X157544285Y-65493142D01*
%TO.C,SW4*%
X155546666Y-84550761D02*
X155689523Y-84598380D01*
X155927619Y-84598380D01*
X156022857Y-84550761D01*
X156070476Y-84503142D01*
X156118095Y-84407904D01*
X156118095Y-84312666D01*
X156070476Y-84217428D01*
X156022857Y-84169809D01*
X155927619Y-84122190D01*
X155737142Y-84074571D01*
X155641904Y-84026952D01*
X155594285Y-83979333D01*
X155546666Y-83884095D01*
X155546666Y-83788857D01*
X155594285Y-83693619D01*
X155641904Y-83646000D01*
X155737142Y-83598380D01*
X155975238Y-83598380D01*
X156118095Y-83646000D01*
X156451428Y-83598380D02*
X156689523Y-84598380D01*
X156880000Y-83884095D01*
X157070476Y-84598380D01*
X157308571Y-83598380D01*
X158118095Y-83931714D02*
X158118095Y-84598380D01*
X157880000Y-83550761D02*
X157641904Y-84265047D01*
X158260952Y-84265047D01*
%TO.C,SW6*%
X136436666Y-103640761D02*
X136579523Y-103688380D01*
X136817619Y-103688380D01*
X136912857Y-103640761D01*
X136960476Y-103593142D01*
X137008095Y-103497904D01*
X137008095Y-103402666D01*
X136960476Y-103307428D01*
X136912857Y-103259809D01*
X136817619Y-103212190D01*
X136627142Y-103164571D01*
X136531904Y-103116952D01*
X136484285Y-103069333D01*
X136436666Y-102974095D01*
X136436666Y-102878857D01*
X136484285Y-102783619D01*
X136531904Y-102736000D01*
X136627142Y-102688380D01*
X136865238Y-102688380D01*
X137008095Y-102736000D01*
X137341428Y-102688380D02*
X137579523Y-103688380D01*
X137770000Y-102974095D01*
X137960476Y-103688380D01*
X138198571Y-102688380D01*
X139008095Y-102688380D02*
X138817619Y-102688380D01*
X138722380Y-102736000D01*
X138674761Y-102783619D01*
X138579523Y-102926476D01*
X138531904Y-103116952D01*
X138531904Y-103497904D01*
X138579523Y-103593142D01*
X138627142Y-103640761D01*
X138722380Y-103688380D01*
X138912857Y-103688380D01*
X139008095Y-103640761D01*
X139055714Y-103593142D01*
X139103333Y-103497904D01*
X139103333Y-103259809D01*
X139055714Y-103164571D01*
X139008095Y-103116952D01*
X138912857Y-103069333D01*
X138722380Y-103069333D01*
X138627142Y-103116952D01*
X138579523Y-103164571D01*
X138531904Y-103259809D01*
%TO.C,SW7*%
X136456666Y-65520761D02*
X136599523Y-65568380D01*
X136837619Y-65568380D01*
X136932857Y-65520761D01*
X136980476Y-65473142D01*
X137028095Y-65377904D01*
X137028095Y-65282666D01*
X136980476Y-65187428D01*
X136932857Y-65139809D01*
X136837619Y-65092190D01*
X136647142Y-65044571D01*
X136551904Y-64996952D01*
X136504285Y-64949333D01*
X136456666Y-64854095D01*
X136456666Y-64758857D01*
X136504285Y-64663619D01*
X136551904Y-64616000D01*
X136647142Y-64568380D01*
X136885238Y-64568380D01*
X137028095Y-64616000D01*
X137361428Y-64568380D02*
X137599523Y-65568380D01*
X137790000Y-64854095D01*
X137980476Y-65568380D01*
X138218571Y-64568380D01*
X138504285Y-64568380D02*
X139170952Y-64568380D01*
X138742380Y-65568380D01*
%TO.C,SW8*%
X136456666Y-84580761D02*
X136599523Y-84628380D01*
X136837619Y-84628380D01*
X136932857Y-84580761D01*
X136980476Y-84533142D01*
X137028095Y-84437904D01*
X137028095Y-84342666D01*
X136980476Y-84247428D01*
X136932857Y-84199809D01*
X136837619Y-84152190D01*
X136647142Y-84104571D01*
X136551904Y-84056952D01*
X136504285Y-84009333D01*
X136456666Y-83914095D01*
X136456666Y-83818857D01*
X136504285Y-83723619D01*
X136551904Y-83676000D01*
X136647142Y-83628380D01*
X136885238Y-83628380D01*
X137028095Y-83676000D01*
X137361428Y-83628380D02*
X137599523Y-84628380D01*
X137790000Y-83914095D01*
X137980476Y-84628380D01*
X138218571Y-83628380D01*
X138742380Y-84056952D02*
X138647142Y-84009333D01*
X138599523Y-83961714D01*
X138551904Y-83866476D01*
X138551904Y-83818857D01*
X138599523Y-83723619D01*
X138647142Y-83676000D01*
X138742380Y-83628380D01*
X138932857Y-83628380D01*
X139028095Y-83676000D01*
X139075714Y-83723619D01*
X139123333Y-83818857D01*
X139123333Y-83866476D01*
X139075714Y-83961714D01*
X139028095Y-84009333D01*
X138932857Y-84056952D01*
X138742380Y-84056952D01*
X138647142Y-84104571D01*
X138599523Y-84152190D01*
X138551904Y-84247428D01*
X138551904Y-84437904D01*
X138599523Y-84533142D01*
X138647142Y-84580761D01*
X138742380Y-84628380D01*
X138932857Y-84628380D01*
X139028095Y-84580761D01*
X139075714Y-84533142D01*
X139123333Y-84437904D01*
X139123333Y-84247428D01*
X139075714Y-84152190D01*
X139028095Y-84104571D01*
X138932857Y-84056952D01*
%TO.C,SW9*%
X155496666Y-122710761D02*
X155639523Y-122758380D01*
X155877619Y-122758380D01*
X155972857Y-122710761D01*
X156020476Y-122663142D01*
X156068095Y-122567904D01*
X156068095Y-122472666D01*
X156020476Y-122377428D01*
X155972857Y-122329809D01*
X155877619Y-122282190D01*
X155687142Y-122234571D01*
X155591904Y-122186952D01*
X155544285Y-122139333D01*
X155496666Y-122044095D01*
X155496666Y-121948857D01*
X155544285Y-121853619D01*
X155591904Y-121806000D01*
X155687142Y-121758380D01*
X155925238Y-121758380D01*
X156068095Y-121806000D01*
X156401428Y-121758380D02*
X156639523Y-122758380D01*
X156830000Y-122044095D01*
X157020476Y-122758380D01*
X157258571Y-121758380D01*
X157687142Y-122758380D02*
X157877619Y-122758380D01*
X157972857Y-122710761D01*
X158020476Y-122663142D01*
X158115714Y-122520285D01*
X158163333Y-122329809D01*
X158163333Y-121948857D01*
X158115714Y-121853619D01*
X158068095Y-121806000D01*
X157972857Y-121758380D01*
X157782380Y-121758380D01*
X157687142Y-121806000D01*
X157639523Y-121853619D01*
X157591904Y-121948857D01*
X157591904Y-122186952D01*
X157639523Y-122282190D01*
X157687142Y-122329809D01*
X157782380Y-122377428D01*
X157972857Y-122377428D01*
X158068095Y-122329809D01*
X158115714Y-122282190D01*
X158163333Y-122186952D01*
%TO.C,SW10*%
X116910476Y-103650761D02*
X117053333Y-103698380D01*
X117291428Y-103698380D01*
X117386666Y-103650761D01*
X117434285Y-103603142D01*
X117481904Y-103507904D01*
X117481904Y-103412666D01*
X117434285Y-103317428D01*
X117386666Y-103269809D01*
X117291428Y-103222190D01*
X117100952Y-103174571D01*
X117005714Y-103126952D01*
X116958095Y-103079333D01*
X116910476Y-102984095D01*
X116910476Y-102888857D01*
X116958095Y-102793619D01*
X117005714Y-102746000D01*
X117100952Y-102698380D01*
X117339047Y-102698380D01*
X117481904Y-102746000D01*
X117815238Y-102698380D02*
X118053333Y-103698380D01*
X118243809Y-102984095D01*
X118434285Y-103698380D01*
X118672380Y-102698380D01*
X119577142Y-103698380D02*
X119005714Y-103698380D01*
X119291428Y-103698380D02*
X119291428Y-102698380D01*
X119196190Y-102841238D01*
X119100952Y-102936476D01*
X119005714Y-102984095D01*
X120196190Y-102698380D02*
X120291428Y-102698380D01*
X120386666Y-102746000D01*
X120434285Y-102793619D01*
X120481904Y-102888857D01*
X120529523Y-103079333D01*
X120529523Y-103317428D01*
X120481904Y-103507904D01*
X120434285Y-103603142D01*
X120386666Y-103650761D01*
X120291428Y-103698380D01*
X120196190Y-103698380D01*
X120100952Y-103650761D01*
X120053333Y-103603142D01*
X120005714Y-103507904D01*
X119958095Y-103317428D01*
X119958095Y-103079333D01*
X120005714Y-102888857D01*
X120053333Y-102793619D01*
X120100952Y-102746000D01*
X120196190Y-102698380D01*
%TO.C,SW11*%
X116920476Y-65520761D02*
X117063333Y-65568380D01*
X117301428Y-65568380D01*
X117396666Y-65520761D01*
X117444285Y-65473142D01*
X117491904Y-65377904D01*
X117491904Y-65282666D01*
X117444285Y-65187428D01*
X117396666Y-65139809D01*
X117301428Y-65092190D01*
X117110952Y-65044571D01*
X117015714Y-64996952D01*
X116968095Y-64949333D01*
X116920476Y-64854095D01*
X116920476Y-64758857D01*
X116968095Y-64663619D01*
X117015714Y-64616000D01*
X117110952Y-64568380D01*
X117349047Y-64568380D01*
X117491904Y-64616000D01*
X117825238Y-64568380D02*
X118063333Y-65568380D01*
X118253809Y-64854095D01*
X118444285Y-65568380D01*
X118682380Y-64568380D01*
X119587142Y-65568380D02*
X119015714Y-65568380D01*
X119301428Y-65568380D02*
X119301428Y-64568380D01*
X119206190Y-64711238D01*
X119110952Y-64806476D01*
X119015714Y-64854095D01*
X120539523Y-65568380D02*
X119968095Y-65568380D01*
X120253809Y-65568380D02*
X120253809Y-64568380D01*
X120158571Y-64711238D01*
X120063333Y-64806476D01*
X119968095Y-64854095D01*
%TO.C,SW12*%
X116910476Y-84600761D02*
X117053333Y-84648380D01*
X117291428Y-84648380D01*
X117386666Y-84600761D01*
X117434285Y-84553142D01*
X117481904Y-84457904D01*
X117481904Y-84362666D01*
X117434285Y-84267428D01*
X117386666Y-84219809D01*
X117291428Y-84172190D01*
X117100952Y-84124571D01*
X117005714Y-84076952D01*
X116958095Y-84029333D01*
X116910476Y-83934095D01*
X116910476Y-83838857D01*
X116958095Y-83743619D01*
X117005714Y-83696000D01*
X117100952Y-83648380D01*
X117339047Y-83648380D01*
X117481904Y-83696000D01*
X117815238Y-83648380D02*
X118053333Y-84648380D01*
X118243809Y-83934095D01*
X118434285Y-84648380D01*
X118672380Y-83648380D01*
X119577142Y-84648380D02*
X119005714Y-84648380D01*
X119291428Y-84648380D02*
X119291428Y-83648380D01*
X119196190Y-83791238D01*
X119100952Y-83886476D01*
X119005714Y-83934095D01*
X119958095Y-83743619D02*
X120005714Y-83696000D01*
X120100952Y-83648380D01*
X120339047Y-83648380D01*
X120434285Y-83696000D01*
X120481904Y-83743619D01*
X120529523Y-83838857D01*
X120529523Y-83934095D01*
X120481904Y-84076952D01*
X119910476Y-84648380D01*
X120529523Y-84648380D01*
%TO.C,SW13*%
X174080476Y-113150761D02*
X174223333Y-113198380D01*
X174461428Y-113198380D01*
X174556666Y-113150761D01*
X174604285Y-113103142D01*
X174651904Y-113007904D01*
X174651904Y-112912666D01*
X174604285Y-112817428D01*
X174556666Y-112769809D01*
X174461428Y-112722190D01*
X174270952Y-112674571D01*
X174175714Y-112626952D01*
X174128095Y-112579333D01*
X174080476Y-112484095D01*
X174080476Y-112388857D01*
X174128095Y-112293619D01*
X174175714Y-112246000D01*
X174270952Y-112198380D01*
X174509047Y-112198380D01*
X174651904Y-112246000D01*
X174985238Y-112198380D02*
X175223333Y-113198380D01*
X175413809Y-112484095D01*
X175604285Y-113198380D01*
X175842380Y-112198380D01*
X176747142Y-113198380D02*
X176175714Y-113198380D01*
X176461428Y-113198380D02*
X176461428Y-112198380D01*
X176366190Y-112341238D01*
X176270952Y-112436476D01*
X176175714Y-112484095D01*
X177080476Y-112198380D02*
X177699523Y-112198380D01*
X177366190Y-112579333D01*
X177509047Y-112579333D01*
X177604285Y-112626952D01*
X177651904Y-112674571D01*
X177699523Y-112769809D01*
X177699523Y-113007904D01*
X177651904Y-113103142D01*
X177604285Y-113150761D01*
X177509047Y-113198380D01*
X177223333Y-113198380D01*
X177128095Y-113150761D01*
X177080476Y-113103142D01*
%TO.C,SW14*%
X126440476Y-122730761D02*
X126583333Y-122778380D01*
X126821428Y-122778380D01*
X126916666Y-122730761D01*
X126964285Y-122683142D01*
X127011904Y-122587904D01*
X127011904Y-122492666D01*
X126964285Y-122397428D01*
X126916666Y-122349809D01*
X126821428Y-122302190D01*
X126630952Y-122254571D01*
X126535714Y-122206952D01*
X126488095Y-122159333D01*
X126440476Y-122064095D01*
X126440476Y-121968857D01*
X126488095Y-121873619D01*
X126535714Y-121826000D01*
X126630952Y-121778380D01*
X126869047Y-121778380D01*
X127011904Y-121826000D01*
X127345238Y-121778380D02*
X127583333Y-122778380D01*
X127773809Y-122064095D01*
X127964285Y-122778380D01*
X128202380Y-121778380D01*
X129107142Y-122778380D02*
X128535714Y-122778380D01*
X128821428Y-122778380D02*
X128821428Y-121778380D01*
X128726190Y-121921238D01*
X128630952Y-122016476D01*
X128535714Y-122064095D01*
X129964285Y-122111714D02*
X129964285Y-122778380D01*
X129726190Y-121730761D02*
X129488095Y-122445047D01*
X130107142Y-122445047D01*
%TO.C,SW15*%
X174100476Y-46520761D02*
X174243333Y-46568380D01*
X174481428Y-46568380D01*
X174576666Y-46520761D01*
X174624285Y-46473142D01*
X174671904Y-46377904D01*
X174671904Y-46282666D01*
X174624285Y-46187428D01*
X174576666Y-46139809D01*
X174481428Y-46092190D01*
X174290952Y-46044571D01*
X174195714Y-45996952D01*
X174148095Y-45949333D01*
X174100476Y-45854095D01*
X174100476Y-45758857D01*
X174148095Y-45663619D01*
X174195714Y-45616000D01*
X174290952Y-45568380D01*
X174529047Y-45568380D01*
X174671904Y-45616000D01*
X175005238Y-45568380D02*
X175243333Y-46568380D01*
X175433809Y-45854095D01*
X175624285Y-46568380D01*
X175862380Y-45568380D01*
X176767142Y-46568380D02*
X176195714Y-46568380D01*
X176481428Y-46568380D02*
X176481428Y-45568380D01*
X176386190Y-45711238D01*
X176290952Y-45806476D01*
X176195714Y-45854095D01*
X177671904Y-45568380D02*
X177195714Y-45568380D01*
X177148095Y-46044571D01*
X177195714Y-45996952D01*
X177290952Y-45949333D01*
X177529047Y-45949333D01*
X177624285Y-45996952D01*
X177671904Y-46044571D01*
X177719523Y-46139809D01*
X177719523Y-46377904D01*
X177671904Y-46473142D01*
X177624285Y-46520761D01*
X177529047Y-46568380D01*
X177290952Y-46568380D01*
X177195714Y-46520761D01*
X177148095Y-46473142D01*
%TO.C,SW16*%
X155020476Y-46520761D02*
X155163333Y-46568380D01*
X155401428Y-46568380D01*
X155496666Y-46520761D01*
X155544285Y-46473142D01*
X155591904Y-46377904D01*
X155591904Y-46282666D01*
X155544285Y-46187428D01*
X155496666Y-46139809D01*
X155401428Y-46092190D01*
X155210952Y-46044571D01*
X155115714Y-45996952D01*
X155068095Y-45949333D01*
X155020476Y-45854095D01*
X155020476Y-45758857D01*
X155068095Y-45663619D01*
X155115714Y-45616000D01*
X155210952Y-45568380D01*
X155449047Y-45568380D01*
X155591904Y-45616000D01*
X155925238Y-45568380D02*
X156163333Y-46568380D01*
X156353809Y-45854095D01*
X156544285Y-46568380D01*
X156782380Y-45568380D01*
X157687142Y-46568380D02*
X157115714Y-46568380D01*
X157401428Y-46568380D02*
X157401428Y-45568380D01*
X157306190Y-45711238D01*
X157210952Y-45806476D01*
X157115714Y-45854095D01*
X158544285Y-45568380D02*
X158353809Y-45568380D01*
X158258571Y-45616000D01*
X158210952Y-45663619D01*
X158115714Y-45806476D01*
X158068095Y-45996952D01*
X158068095Y-46377904D01*
X158115714Y-46473142D01*
X158163333Y-46520761D01*
X158258571Y-46568380D01*
X158449047Y-46568380D01*
X158544285Y-46520761D01*
X158591904Y-46473142D01*
X158639523Y-46377904D01*
X158639523Y-46139809D01*
X158591904Y-46044571D01*
X158544285Y-45996952D01*
X158449047Y-45949333D01*
X158258571Y-45949333D01*
X158163333Y-45996952D01*
X158115714Y-46044571D01*
X158068095Y-46139809D01*
%TO.C,SW17*%
X135960476Y-46480761D02*
X136103333Y-46528380D01*
X136341428Y-46528380D01*
X136436666Y-46480761D01*
X136484285Y-46433142D01*
X136531904Y-46337904D01*
X136531904Y-46242666D01*
X136484285Y-46147428D01*
X136436666Y-46099809D01*
X136341428Y-46052190D01*
X136150952Y-46004571D01*
X136055714Y-45956952D01*
X136008095Y-45909333D01*
X135960476Y-45814095D01*
X135960476Y-45718857D01*
X136008095Y-45623619D01*
X136055714Y-45576000D01*
X136150952Y-45528380D01*
X136389047Y-45528380D01*
X136531904Y-45576000D01*
X136865238Y-45528380D02*
X137103333Y-46528380D01*
X137293809Y-45814095D01*
X137484285Y-46528380D01*
X137722380Y-45528380D01*
X138627142Y-46528380D02*
X138055714Y-46528380D01*
X138341428Y-46528380D02*
X138341428Y-45528380D01*
X138246190Y-45671238D01*
X138150952Y-45766476D01*
X138055714Y-45814095D01*
X138960476Y-45528380D02*
X139627142Y-45528380D01*
X139198571Y-46528380D01*
%TO.C,SW18*%
X116930476Y-46440761D02*
X117073333Y-46488380D01*
X117311428Y-46488380D01*
X117406666Y-46440761D01*
X117454285Y-46393142D01*
X117501904Y-46297904D01*
X117501904Y-46202666D01*
X117454285Y-46107428D01*
X117406666Y-46059809D01*
X117311428Y-46012190D01*
X117120952Y-45964571D01*
X117025714Y-45916952D01*
X116978095Y-45869333D01*
X116930476Y-45774095D01*
X116930476Y-45678857D01*
X116978095Y-45583619D01*
X117025714Y-45536000D01*
X117120952Y-45488380D01*
X117359047Y-45488380D01*
X117501904Y-45536000D01*
X117835238Y-45488380D02*
X118073333Y-46488380D01*
X118263809Y-45774095D01*
X118454285Y-46488380D01*
X118692380Y-45488380D01*
X119597142Y-46488380D02*
X119025714Y-46488380D01*
X119311428Y-46488380D02*
X119311428Y-45488380D01*
X119216190Y-45631238D01*
X119120952Y-45726476D01*
X119025714Y-45774095D01*
X120168571Y-45916952D02*
X120073333Y-45869333D01*
X120025714Y-45821714D01*
X119978095Y-45726476D01*
X119978095Y-45678857D01*
X120025714Y-45583619D01*
X120073333Y-45536000D01*
X120168571Y-45488380D01*
X120359047Y-45488380D01*
X120454285Y-45536000D01*
X120501904Y-45583619D01*
X120549523Y-45678857D01*
X120549523Y-45726476D01*
X120501904Y-45821714D01*
X120454285Y-45869333D01*
X120359047Y-45916952D01*
X120168571Y-45916952D01*
X120073333Y-45964571D01*
X120025714Y-46012190D01*
X119978095Y-46107428D01*
X119978095Y-46297904D01*
X120025714Y-46393142D01*
X120073333Y-46440761D01*
X120168571Y-46488380D01*
X120359047Y-46488380D01*
X120454285Y-46440761D01*
X120501904Y-46393142D01*
X120549523Y-46297904D01*
X120549523Y-46107428D01*
X120501904Y-46012190D01*
X120454285Y-45964571D01*
X120359047Y-45916952D01*
%TO.C,U1*%
X92578095Y-116432380D02*
X92578095Y-117241904D01*
X92625714Y-117337142D01*
X92673333Y-117384761D01*
X92768571Y-117432380D01*
X92959047Y-117432380D01*
X93054285Y-117384761D01*
X93101904Y-117337142D01*
X93149523Y-117241904D01*
X93149523Y-116432380D01*
X94149523Y-117432380D02*
X93578095Y-117432380D01*
X93863809Y-117432380D02*
X93863809Y-116432380D01*
X93768571Y-116575238D01*
X93673333Y-116670476D01*
X93578095Y-116718095D01*
%TO.C,U2*%
X92588095Y-87242380D02*
X92588095Y-88051904D01*
X92635714Y-88147142D01*
X92683333Y-88194761D01*
X92778571Y-88242380D01*
X92969047Y-88242380D01*
X93064285Y-88194761D01*
X93111904Y-88147142D01*
X93159523Y-88051904D01*
X93159523Y-87242380D01*
X93588095Y-87337619D02*
X93635714Y-87290000D01*
X93730952Y-87242380D01*
X93969047Y-87242380D01*
X94064285Y-87290000D01*
X94111904Y-87337619D01*
X94159523Y-87432857D01*
X94159523Y-87528095D01*
X94111904Y-87670952D01*
X93540476Y-88242380D01*
X94159523Y-88242380D01*
%TO.C,SW5*%
X174576666Y-84520761D02*
X174719523Y-84568380D01*
X174957619Y-84568380D01*
X175052857Y-84520761D01*
X175100476Y-84473142D01*
X175148095Y-84377904D01*
X175148095Y-84282666D01*
X175100476Y-84187428D01*
X175052857Y-84139809D01*
X174957619Y-84092190D01*
X174767142Y-84044571D01*
X174671904Y-83996952D01*
X174624285Y-83949333D01*
X174576666Y-83854095D01*
X174576666Y-83758857D01*
X174624285Y-83663619D01*
X174671904Y-83616000D01*
X174767142Y-83568380D01*
X175005238Y-83568380D01*
X175148095Y-83616000D01*
X175481428Y-83568380D02*
X175719523Y-84568380D01*
X175910000Y-83854095D01*
X176100476Y-84568380D01*
X176338571Y-83568380D01*
X177195714Y-83568380D02*
X176719523Y-83568380D01*
X176671904Y-84044571D01*
X176719523Y-83996952D01*
X176814761Y-83949333D01*
X177052857Y-83949333D01*
X177148095Y-83996952D01*
X177195714Y-84044571D01*
X177243333Y-84139809D01*
X177243333Y-84377904D01*
X177195714Y-84473142D01*
X177148095Y-84520761D01*
X177052857Y-84568380D01*
X176814761Y-84568380D01*
X176719523Y-84520761D01*
X176671904Y-84473142D01*
%TO.C,H1*%
X64238095Y-34152380D02*
X64238095Y-33152380D01*
X64238095Y-33628571D02*
X64809523Y-33628571D01*
X64809523Y-34152380D02*
X64809523Y-33152380D01*
X65809523Y-34152380D02*
X65238095Y-34152380D01*
X65523809Y-34152380D02*
X65523809Y-33152380D01*
X65428571Y-33295238D01*
X65333333Y-33390476D01*
X65238095Y-33438095D01*
%TO.C,H2*%
X209238095Y-34152380D02*
X209238095Y-33152380D01*
X209238095Y-33628571D02*
X209809523Y-33628571D01*
X209809523Y-34152380D02*
X209809523Y-33152380D01*
X210238095Y-33247619D02*
X210285714Y-33200000D01*
X210380952Y-33152380D01*
X210619047Y-33152380D01*
X210714285Y-33200000D01*
X210761904Y-33247619D01*
X210809523Y-33342857D01*
X210809523Y-33438095D01*
X210761904Y-33580952D01*
X210190476Y-34152380D01*
X210809523Y-34152380D01*
%TO.C,H3*%
X209238095Y-61652380D02*
X209238095Y-60652380D01*
X209238095Y-61128571D02*
X209809523Y-61128571D01*
X209809523Y-61652380D02*
X209809523Y-60652380D01*
X210190476Y-60652380D02*
X210809523Y-60652380D01*
X210476190Y-61033333D01*
X210619047Y-61033333D01*
X210714285Y-61080952D01*
X210761904Y-61128571D01*
X210809523Y-61223809D01*
X210809523Y-61461904D01*
X210761904Y-61557142D01*
X210714285Y-61604761D01*
X210619047Y-61652380D01*
X210333333Y-61652380D01*
X210238095Y-61604761D01*
X210190476Y-61557142D01*
%TO.C,H4*%
X189238095Y-139152380D02*
X189238095Y-138152380D01*
X189238095Y-138628571D02*
X189809523Y-138628571D01*
X189809523Y-139152380D02*
X189809523Y-138152380D01*
X190714285Y-138485714D02*
X190714285Y-139152380D01*
X190476190Y-138104761D02*
X190238095Y-138819047D01*
X190857142Y-138819047D01*
%TO.C,H5*%
X81738095Y-139152380D02*
X81738095Y-138152380D01*
X81738095Y-138628571D02*
X82309523Y-138628571D01*
X82309523Y-139152380D02*
X82309523Y-138152380D01*
X83261904Y-138152380D02*
X82785714Y-138152380D01*
X82738095Y-138628571D01*
X82785714Y-138580952D01*
X82880952Y-138533333D01*
X83119047Y-138533333D01*
X83214285Y-138580952D01*
X83261904Y-138628571D01*
X83309523Y-138723809D01*
X83309523Y-138961904D01*
X83261904Y-139057142D01*
X83214285Y-139104761D01*
X83119047Y-139152380D01*
X82880952Y-139152380D01*
X82785714Y-139104761D01*
X82738095Y-139057142D01*
%TO.C,H6*%
X64238095Y-91652380D02*
X64238095Y-90652380D01*
X64238095Y-91128571D02*
X64809523Y-91128571D01*
X64809523Y-91652380D02*
X64809523Y-90652380D01*
X65714285Y-90652380D02*
X65523809Y-90652380D01*
X65428571Y-90700000D01*
X65380952Y-90747619D01*
X65285714Y-90890476D01*
X65238095Y-91080952D01*
X65238095Y-91461904D01*
X65285714Y-91557142D01*
X65333333Y-91604761D01*
X65428571Y-91652380D01*
X65619047Y-91652380D01*
X65714285Y-91604761D01*
X65761904Y-91557142D01*
X65809523Y-91461904D01*
X65809523Y-91223809D01*
X65761904Y-91128571D01*
X65714285Y-91080952D01*
X65619047Y-91033333D01*
X65428571Y-91033333D01*
X65333333Y-91080952D01*
X65285714Y-91128571D01*
X65238095Y-91223809D01*
%TO.C,C1*%
X88167142Y-121716666D02*
X88214761Y-121764285D01*
X88262380Y-121907142D01*
X88262380Y-122002380D01*
X88214761Y-122145238D01*
X88119523Y-122240476D01*
X88024285Y-122288095D01*
X87833809Y-122335714D01*
X87690952Y-122335714D01*
X87500476Y-122288095D01*
X87405238Y-122240476D01*
X87310000Y-122145238D01*
X87262380Y-122002380D01*
X87262380Y-121907142D01*
X87310000Y-121764285D01*
X87357619Y-121716666D01*
X88262380Y-120764285D02*
X88262380Y-121335714D01*
X88262380Y-121050000D02*
X87262380Y-121050000D01*
X87405238Y-121145238D01*
X87500476Y-121240476D01*
X87548095Y-121335714D01*
%TO.C,C2*%
X88237142Y-113106666D02*
X88284761Y-113154285D01*
X88332380Y-113297142D01*
X88332380Y-113392380D01*
X88284761Y-113535238D01*
X88189523Y-113630476D01*
X88094285Y-113678095D01*
X87903809Y-113725714D01*
X87760952Y-113725714D01*
X87570476Y-113678095D01*
X87475238Y-113630476D01*
X87380000Y-113535238D01*
X87332380Y-113392380D01*
X87332380Y-113297142D01*
X87380000Y-113154285D01*
X87427619Y-113106666D01*
X87427619Y-112725714D02*
X87380000Y-112678095D01*
X87332380Y-112582857D01*
X87332380Y-112344761D01*
X87380000Y-112249523D01*
X87427619Y-112201904D01*
X87522857Y-112154285D01*
X87618095Y-112154285D01*
X87760952Y-112201904D01*
X88332380Y-112773333D01*
X88332380Y-112154285D01*
%TO.C,C3*%
X88307142Y-106416666D02*
X88354761Y-106464285D01*
X88402380Y-106607142D01*
X88402380Y-106702380D01*
X88354761Y-106845238D01*
X88259523Y-106940476D01*
X88164285Y-106988095D01*
X87973809Y-107035714D01*
X87830952Y-107035714D01*
X87640476Y-106988095D01*
X87545238Y-106940476D01*
X87450000Y-106845238D01*
X87402380Y-106702380D01*
X87402380Y-106607142D01*
X87450000Y-106464285D01*
X87497619Y-106416666D01*
X87402380Y-106083333D02*
X87402380Y-105464285D01*
X87783333Y-105797619D01*
X87783333Y-105654761D01*
X87830952Y-105559523D01*
X87878571Y-105511904D01*
X87973809Y-105464285D01*
X88211904Y-105464285D01*
X88307142Y-105511904D01*
X88354761Y-105559523D01*
X88402380Y-105654761D01*
X88402380Y-105940476D01*
X88354761Y-106035714D01*
X88307142Y-106083333D01*
%TD*%
M02*
