M48
; DRILL file {KiCad 5.1.9+dfsg1-1} date Wed Feb 16 13:07:31 2022
; FORMAT={-:-/ absolute / metric / decimal}
; #@! TF.CreationDate,2022-02-16T13:07:31+01:00
; #@! TF.GenerationSoftware,Kicad,Pcbnew,5.1.9+dfsg1-1
; #@! TF.FileFunction,Plated,1,2,PTH
FMAT,2
METRIC
T1C0.800
T2C1.000
T3C1.500
T4C3.200
%
G90
G05
T1
X85.31Y-120.3
X85.31Y-122.8
X85.38Y-111.69
X85.38Y-114.19
X85.45Y-105.0
X85.45Y-107.5
X89.53Y-119.31
X89.53Y-121.85
X89.53Y-124.39
X89.53Y-126.93
X89.53Y-129.47
X89.53Y-132.01
X89.53Y-134.55
X89.53Y-137.09
X89.54Y-90.12
X89.54Y-92.66
X89.54Y-95.2
X89.54Y-97.74
X89.54Y-100.28
X89.54Y-102.82
X89.54Y-105.36
X89.54Y-107.9
X89.54Y-110.44
X89.54Y-112.98
X97.15Y-119.31
X97.15Y-121.85
X97.15Y-124.39
X97.15Y-126.93
X97.15Y-129.47
X97.15Y-132.01
X97.15Y-134.55
X97.15Y-137.09
X97.16Y-90.12
X97.16Y-92.66
X97.16Y-95.2
X97.16Y-97.74
X97.16Y-100.28
X97.16Y-102.82
X97.16Y-105.36
X97.16Y-107.9
X97.16Y-110.44
X97.16Y-112.98
T2
X66.24Y-44.735
X66.24Y-47.505
X66.24Y-50.275
X66.24Y-53.045
X66.31Y-76.865
X66.31Y-79.635
X66.31Y-82.405
X66.31Y-85.175
X68.78Y-43.35
X68.78Y-46.12
X68.78Y-48.89
X68.78Y-51.66
X68.78Y-54.43
X68.85Y-75.48
X68.85Y-78.25
X68.85Y-81.02
X68.85Y-83.79
X68.85Y-86.56
X206.73Y-43.42
X206.73Y-46.19
X206.73Y-48.96
X206.73Y-51.73
X206.73Y-54.5
X209.27Y-44.805
X209.27Y-47.575
X209.27Y-50.345
X209.27Y-53.115
T3
X114.91Y-89.53
X114.91Y-108.58
X114.92Y-70.45
X114.93Y-51.37
X121.26Y-86.99
X121.26Y-106.04
X121.27Y-67.91
X121.28Y-48.83
X124.44Y-127.66
X130.79Y-125.12
X133.96Y-51.41
X133.96Y-108.57
X133.98Y-70.45
X133.98Y-89.51
X140.31Y-48.87
X140.31Y-106.03
X140.33Y-67.91
X140.33Y-86.97
X153.02Y-51.45
X153.02Y-70.47
X153.02Y-127.64
X153.07Y-89.48
X153.07Y-108.55
X159.37Y-48.91
X159.37Y-67.93
X159.37Y-125.1
X159.42Y-86.94
X159.42Y-106.01
X172.08Y-118.08
X172.1Y-51.45
X172.1Y-70.47
X172.1Y-89.45
X178.43Y-115.54
X178.45Y-48.91
X178.45Y-67.93
X178.45Y-86.91
T4
X65.0Y-37.5
X65.0Y-95.0
X82.5Y-142.5
X190.0Y-142.5
X210.0Y-37.5
X210.0Y-65.0
T0
M30
