M48
; DRILL file {KiCad 5.1.9+dfsg1-1~bpo10+1} date Fri Mar 26 13:46:21 2021
; FORMAT={-:-/ absolute / inch / decimal}
; #@! TF.CreationDate,2021-03-26T13:46:21+01:00
; #@! TF.GenerationSoftware,Kicad,Pcbnew,5.1.9+dfsg1-1~bpo10+1
; #@! TF.FileFunction,NonPlated,1,2,NPTH
FMAT,2
INCH
T1C0.0669
T2C0.1201
T3C0.1457
T4C0.1575
%
G90
G05
T1
X2.8299Y-3.7433
X2.9244Y-4.9992
X3.1169Y-5.748
X3.2055Y-6.4961
X3.2299Y-3.7433
X3.3244Y-4.9992
X3.4008Y-7.2472
X3.5169Y-5.748
X3.578Y-3.7433
X3.6055Y-6.4961
X3.6764Y-4.9992
X3.8008Y-7.2472
X3.978Y-3.7433
X4.0524Y-5.7492
X4.0764Y-4.9992
X4.2374Y-6.4992
X4.326Y-3.7433
X4.426Y-5.0
X4.4524Y-5.7492
X4.6134Y-7.2492
X4.6374Y-6.4992
X4.726Y-3.7433
X4.8004Y-5.7492
X4.826Y-5.0
X4.9894Y-6.4992
X5.0134Y-7.2492
X5.074Y-3.7433
X5.1764Y-5.0
X5.2004Y-5.7492
X5.3614Y-7.9913
X5.3634Y-7.2492
X5.3894Y-6.4992
X5.474Y-3.7433
X5.5504Y-5.7492
X5.5764Y-5.0
X5.739Y-6.5
X5.7614Y-7.9913
X5.7634Y-7.2492
X5.9264Y-4.9992
X5.9504Y-5.7492
X6.1134Y-7.2492
X6.139Y-6.5
X6.3004Y-5.7492
X6.3264Y-4.9992
X6.4894Y-6.4992
X6.5134Y-7.2492
X6.6764Y-4.9992
X6.7004Y-5.7492
X6.8634Y-7.2492
X6.8894Y-6.4992
X7.0504Y-5.7492
X7.0764Y-4.9992
X7.2394Y-6.4992
X7.2634Y-7.2492
X7.4264Y-4.9992
X7.4504Y-5.7492
X7.6134Y-7.2492
X7.6394Y-6.4992
X7.8004Y-5.7492
X7.8264Y-4.9992
X7.9894Y-6.4992
X8.0134Y-7.2492
X8.1764Y-4.9992
X8.2004Y-5.7492
X8.2709Y-7.9913
X8.3634Y-7.2512
X8.3894Y-6.4992
X8.5504Y-5.7492
X8.5764Y-4.9992
X8.6709Y-7.9913
X8.7394Y-6.4992
X8.7634Y-7.2512
X8.9264Y-4.9992
X8.9504Y-5.7492
X9.0602Y-3.7402
X9.1134Y-7.2492
X9.1394Y-6.4992
X9.3012Y-5.75
X9.3264Y-4.9992
X9.4602Y-3.7402
X9.4882Y-6.5
X9.5134Y-7.2492
X9.6764Y-4.9992
X9.7012Y-5.75
X9.8634Y-7.2492
X9.8882Y-6.5
X10.0504Y-5.7492
X10.0764Y-4.9992
X10.1858Y-3.739
X10.2394Y-6.4992
X10.2634Y-7.2492
X10.4264Y-4.9992
X10.4504Y-5.7492
X10.5858Y-3.739
X10.6134Y-7.2492
X10.6394Y-6.4992
X10.8004Y-5.7492
X10.8264Y-4.9992
X10.9894Y-6.4992
X11.0134Y-7.2492
X11.0819Y-7.9913
X11.1764Y-4.9992
X11.2004Y-5.7492
X11.3098Y-3.7402
X11.3634Y-7.2492
X11.3894Y-6.4992
X11.4819Y-7.9913
X11.5504Y-5.7492
X11.5764Y-4.9992
X11.7098Y-3.7402
X11.7374Y-6.5012
X11.7634Y-7.2492
X11.9264Y-4.9992
X11.9504Y-5.7492
X12.1374Y-6.5012
X12.3004Y-5.7492
X12.3264Y-4.9992
X12.3969Y-7.2472
X12.4378Y-3.739
X12.4894Y-6.4992
X12.6764Y-4.9992
X12.7004Y-5.7492
X12.7969Y-7.2472
X12.8378Y-3.739
X12.8894Y-6.4992
X13.0764Y-4.9992
X13.2433Y-5.7512
X13.3319Y-6.4992
X13.4244Y-7.2472
X13.4264Y-4.9992
X13.5618Y-3.739
X13.6433Y-5.7512
X13.7319Y-6.4992
X13.8244Y-7.2472
X13.8264Y-4.9992
X13.9618Y-3.739
T2
X3.1323Y-6.9717
X4.0693Y-6.9717
X6.5024Y-7.7157
X10.4394Y-7.7157
T3
X2.0472Y-3.5433
X2.0472Y-7.9921
X14.6457Y-3.5433
X14.6457Y-8.2283
T4
X3.0299Y-3.7433
X3.1244Y-4.9992
X3.1323Y-7.5717
X3.3169Y-5.748
X3.4055Y-6.4961
X3.6008Y-7.2472
X3.778Y-3.7433
X3.8764Y-4.9992
X4.0693Y-7.5717
X4.2524Y-5.7492
X4.4374Y-6.4992
X4.526Y-3.7433
X4.626Y-5.0
X4.8134Y-7.2492
X5.0004Y-5.7492
X5.1894Y-6.4992
X5.274Y-3.7433
X5.3764Y-5.0
X5.5614Y-7.9913
X5.5634Y-7.2492
X5.7504Y-5.7492
X5.939Y-6.5
X6.1264Y-4.9992
X6.3134Y-7.2492
X6.5004Y-5.7492
X6.5024Y-8.3157
X6.6894Y-6.4992
X6.8764Y-4.9992
X7.0634Y-7.2492
X7.2504Y-5.7492
X7.4394Y-6.4992
X7.6264Y-4.9992
X7.8134Y-7.2492
X8.0004Y-5.7492
X8.1894Y-6.4992
X8.3764Y-4.9992
X8.4709Y-7.9913
X8.5634Y-7.2512
X8.7504Y-5.7492
X8.9394Y-6.4992
X9.1264Y-4.9992
X9.2602Y-3.7402
X9.3134Y-7.2492
X9.5012Y-5.75
X9.6882Y-6.5
X9.8764Y-4.9992
X10.0634Y-7.2492
X10.2504Y-5.7492
X10.3858Y-3.739
X10.4394Y-6.4992
X10.4394Y-8.3157
X10.6264Y-4.9992
X10.8134Y-7.2492
X11.0004Y-5.7492
X11.1894Y-6.4992
X11.2819Y-7.9913
X11.3764Y-4.9992
X11.5098Y-3.7402
X11.5634Y-7.2492
X11.7504Y-5.7492
X11.9374Y-6.5012
X12.1264Y-4.9992
X12.5004Y-5.7492
X12.5969Y-7.2472
X12.6378Y-3.739
X12.6894Y-6.4992
X12.8764Y-4.9992
X13.4433Y-5.7512
X13.5319Y-6.4992
X13.6244Y-7.2472
X13.6264Y-4.9992
X13.7618Y-3.739
T0
M30
