%TF.GenerationSoftware,KiCad,Pcbnew,5.0.2+dfsg1-1*%
%TF.CreationDate,2020-10-11T22:00:56+02:00*%
%TF.ProjectId,A130XE_KB_MX,41313330-5845-45f4-9b42-5f4d582e6b69,0.1*%
%TF.SameCoordinates,Original*%
%TF.FileFunction,Copper,L2,Bot*%
%TF.FilePolarity,Positive*%
%FSLAX46Y46*%
G04 Gerber Fmt 4.6, Leading zero omitted, Abs format (unit mm)*
G04 Created by KiCad (PCBNEW 5.0.2+dfsg1-1) date Sun 11 Oct 2020 10:00:56 PM CEST*
%MOMM*%
%LPD*%
G01*
G04 APERTURE LIST*
%ADD10C,2.200000*%
%ADD11R,1.700000X1.700000*%
%ADD12O,1.700000X1.700000*%
%ADD13C,0.800000*%
%ADD14C,0.300000*%
%ADD15C,0.254000*%
G04 APERTURE END LIST*
D10*
X98500000Y-90000000D03*
X92150000Y-92540000D03*
X210540000Y-198256000D03*
X204190000Y-200796000D03*
D11*
X298600000Y-201000000D03*
D12*
X298600000Y-203540000D03*
X301140000Y-201000000D03*
X301140000Y-203540000D03*
X303680000Y-201000000D03*
X303680000Y-203540000D03*
X306220000Y-201000000D03*
X306220000Y-203540000D03*
X308760000Y-201000000D03*
X308760000Y-203540000D03*
X311300000Y-201000000D03*
X311300000Y-203540000D03*
X313840000Y-201000000D03*
X313840000Y-203540000D03*
X316380000Y-201000000D03*
X316380000Y-203540000D03*
X318920000Y-201000000D03*
X318920000Y-203540000D03*
X321460000Y-201000000D03*
X321460000Y-203540000D03*
X324000000Y-201000000D03*
X324000000Y-203540000D03*
X326540000Y-201000000D03*
X326540000Y-203540000D03*
X329080000Y-201000000D03*
X329080000Y-203540000D03*
X331620000Y-201000000D03*
X331620000Y-203540000D03*
X334160000Y-201000000D03*
X334160000Y-203540000D03*
X336700000Y-201000000D03*
X336700000Y-203540000D03*
X339240000Y-201000000D03*
X339240000Y-203540000D03*
D10*
X345650000Y-92540000D03*
X352000000Y-90000000D03*
X189900000Y-124440000D03*
X196250000Y-121900000D03*
X218450000Y-143490000D03*
X224800000Y-140950000D03*
X199400000Y-143490000D03*
X205750000Y-140950000D03*
X204200000Y-162540000D03*
X210550000Y-160000000D03*
X213700000Y-181640000D03*
X220050000Y-179100000D03*
X229650000Y-92540000D03*
X236000000Y-90000000D03*
X223250000Y-162540000D03*
X229600000Y-160000000D03*
X323000000Y-90000000D03*
X316650000Y-92540000D03*
X170850000Y-124440000D03*
X177200000Y-121900000D03*
X243870000Y-140970000D03*
X237520000Y-143510000D03*
X186700000Y-140950000D03*
X180350000Y-143490000D03*
X191500000Y-160000000D03*
X185150000Y-162540000D03*
X201000000Y-179050000D03*
X194650000Y-181590000D03*
X248620000Y-160020000D03*
X242270000Y-162560000D03*
X287650000Y-92540000D03*
X294000000Y-90000000D03*
X158150000Y-121900000D03*
X151800000Y-124440000D03*
X256550000Y-143490000D03*
X262900000Y-140950000D03*
X161300000Y-143490000D03*
X167650000Y-140950000D03*
X166100000Y-162540000D03*
X172450000Y-160000000D03*
X239100000Y-179050000D03*
X232750000Y-181590000D03*
X175600000Y-181590000D03*
X181950000Y-179050000D03*
X261350000Y-162540000D03*
X267700000Y-160000000D03*
X132750000Y-124460000D03*
X139100000Y-121920000D03*
X281950000Y-140950000D03*
X275600000Y-143490000D03*
X148600000Y-140950000D03*
X142250000Y-143490000D03*
X153390000Y-160020000D03*
X147040000Y-162560000D03*
X265000000Y-90000000D03*
X258650000Y-92540000D03*
X251800000Y-181590000D03*
X258150000Y-179050000D03*
X286750000Y-160000000D03*
X280400000Y-162540000D03*
X162900000Y-179050000D03*
X156550000Y-181590000D03*
X277200000Y-179050000D03*
X270850000Y-181590000D03*
X120040000Y-121920000D03*
X113690000Y-124460000D03*
X294650000Y-143490000D03*
X301000000Y-140950000D03*
X129550000Y-140950000D03*
X123200000Y-143490000D03*
X128000000Y-162540000D03*
X134350000Y-160000000D03*
X137500000Y-181590000D03*
X143850000Y-179050000D03*
X299400000Y-162590000D03*
X305750000Y-160050000D03*
X94650000Y-124440000D03*
X101000000Y-121900000D03*
X320050000Y-140950000D03*
X313700000Y-143490000D03*
X104200000Y-143490000D03*
X110550000Y-140950000D03*
X115250000Y-160000000D03*
X108900000Y-162540000D03*
X296250000Y-179050000D03*
X289900000Y-181590000D03*
X324850000Y-160000000D03*
X318500000Y-162540000D03*
X124800000Y-179050000D03*
X118450000Y-181590000D03*
X348600000Y-179000000D03*
X342250000Y-181540000D03*
X81900000Y-121900000D03*
X75550000Y-124440000D03*
X344000000Y-141000000D03*
X337650000Y-143540000D03*
X80440000Y-143460000D03*
X86790000Y-140920000D03*
X346250000Y-160000000D03*
X339900000Y-162540000D03*
X82690000Y-162460000D03*
X89040000Y-159920000D03*
X94000000Y-179000000D03*
X87650000Y-181540000D03*
X322500000Y-179000000D03*
X316150000Y-181540000D03*
X348650000Y-121900000D03*
X342300000Y-124440000D03*
X329600000Y-121900000D03*
X323250000Y-124440000D03*
X304200000Y-124440000D03*
X310550000Y-121900000D03*
X291500000Y-121900000D03*
X285150000Y-124440000D03*
X266100000Y-124440000D03*
X272450000Y-121900000D03*
X253400000Y-121900000D03*
X247050000Y-124440000D03*
X228000000Y-124440000D03*
X234350000Y-121900000D03*
X208950000Y-124440000D03*
X215300000Y-121900000D03*
X128000000Y-200640000D03*
X134350000Y-198100000D03*
X286750000Y-198100000D03*
X280400000Y-200640000D03*
D11*
X116900000Y-201400000D03*
D12*
X116900000Y-203940000D03*
D10*
X73150000Y-92540000D03*
X79500000Y-90000000D03*
X111150000Y-92540000D03*
X117500000Y-90000000D03*
X136500000Y-90000000D03*
X130150000Y-92540000D03*
D13*
X295223000Y-200640000D03*
X276832000Y-200718000D03*
X286442000Y-177494000D03*
X255248000Y-206285000D03*
X166500000Y-156500000D03*
X273754000Y-191766000D03*
X271680000Y-187564000D03*
X305271000Y-196710000D03*
X307724000Y-157642000D03*
X79500000Y-115500000D03*
X95440000Y-91440000D03*
X340566000Y-202670000D03*
X312990000Y-179759000D03*
X306091000Y-142817800D03*
X304344000Y-190257000D03*
X304344000Y-182232000D03*
X339293000Y-205091000D03*
X209527000Y-143490000D03*
X315030000Y-175082000D03*
X354455000Y-175082000D03*
X343391000Y-108391200D03*
X332306000Y-205266000D03*
X352500000Y-172000000D03*
D14*
X282879900Y-124413300D02*
X289707000Y-117586500D01*
X301140000Y-201000000D02*
X299798000Y-199658000D01*
X299798000Y-199658000D02*
X295389000Y-199658000D01*
X295389000Y-199658000D02*
X287304000Y-191572000D01*
X287304000Y-191572000D02*
X287304000Y-165204000D01*
X287304000Y-165204000D02*
X288313000Y-164194000D01*
X288313000Y-164194000D02*
X288313000Y-138464200D01*
X288313000Y-138464200D02*
X282514000Y-132665300D01*
X282514000Y-132665300D02*
X282514000Y-124779200D01*
X282514000Y-124779200D02*
X282879900Y-124413300D01*
X258650000Y-92540000D02*
X259106800Y-92996800D01*
X259106800Y-92996800D02*
X259106800Y-100640200D01*
X259106800Y-100640200D02*
X282879900Y-124413300D01*
X316650000Y-92540000D02*
X289764100Y-92540000D01*
X289764100Y-92540000D02*
X289707000Y-92597100D01*
X345650000Y-92540000D02*
X341556200Y-88446200D01*
X341556200Y-88446200D02*
X320743800Y-88446200D01*
X320743800Y-88446200D02*
X316650000Y-92540000D01*
X289707000Y-92597100D02*
X289650000Y-92540000D01*
X287650000Y-92540000D02*
X289650000Y-92540000D01*
X223250000Y-162540000D02*
X225750000Y-160040000D01*
X225750000Y-160040000D02*
X225750000Y-143920600D01*
X225750000Y-143920600D02*
X226408000Y-143262200D01*
X226408000Y-143262200D02*
X226408000Y-129802600D01*
X226408000Y-129802600D02*
X225369000Y-128763500D01*
X225369000Y-128763500D02*
X225369000Y-124824300D01*
X225369000Y-124824300D02*
X233000000Y-117193300D01*
X233000000Y-117193300D02*
X233000000Y-115000000D01*
X233000000Y-115000000D02*
X230500000Y-112500000D01*
X230500000Y-112500000D02*
X230500000Y-94945600D01*
X230500000Y-94945600D02*
X229650000Y-94095600D01*
X229650000Y-94095600D02*
X229650000Y-92540000D01*
X204200000Y-162540000D02*
X203585000Y-162540000D01*
X203585000Y-162540000D02*
X199425000Y-166700000D01*
X199425000Y-166700000D02*
X199425000Y-179692000D01*
X199425000Y-179692000D02*
X201813000Y-182080000D01*
X201813000Y-182080000D02*
X201813000Y-198419000D01*
X201813000Y-198419000D02*
X204190000Y-200796000D01*
X301140000Y-203540000D02*
X299793000Y-204887000D01*
X299793000Y-204887000D02*
X298094000Y-204887000D01*
X298094000Y-204887000D02*
X295223000Y-202016000D01*
X295223000Y-202016000D02*
X295223000Y-200640000D01*
X280400000Y-200640000D02*
X280322000Y-200718000D01*
X280322000Y-200718000D02*
X276832000Y-200718000D01*
X220050000Y-179100000D02*
X219113000Y-179100000D01*
X219113000Y-179100000D02*
X214157000Y-184056000D01*
X214157000Y-184056000D02*
X214157000Y-194639000D01*
X214157000Y-194639000D02*
X210540000Y-198256000D01*
X296250000Y-179050000D02*
X296250000Y-192270000D01*
X296250000Y-192270000D02*
X303680000Y-199700000D01*
X303680000Y-199700000D02*
X303680000Y-201000000D01*
X286442000Y-177494000D02*
X286442000Y-194084000D01*
X286442000Y-194084000D02*
X297846000Y-205487000D01*
X297846000Y-205487000D02*
X301733000Y-205487000D01*
X301733000Y-205487000D02*
X303680000Y-203540000D01*
X236000000Y-90000000D02*
X237100000Y-88900000D01*
X237100000Y-88900000D02*
X241400000Y-88900000D01*
X241400000Y-88900000D02*
X248600000Y-96100000D01*
X248600000Y-96100000D02*
X248600000Y-112100000D01*
X248600000Y-112100000D02*
X253500000Y-117000000D01*
X253500000Y-117000000D02*
X266400000Y-117000000D01*
X266400000Y-117000000D02*
X270892000Y-121491500D01*
X270892000Y-121491500D02*
X270892000Y-122544900D01*
X270892000Y-122544900D02*
X273263000Y-124916600D01*
X273263000Y-124916600D02*
X273263000Y-136217500D01*
X273263000Y-136217500D02*
X282358000Y-145312000D01*
X282358000Y-145312000D02*
X282358000Y-158928000D01*
X282358000Y-158928000D02*
X286703000Y-163273000D01*
X286703000Y-163273000D02*
X286703000Y-177233000D01*
X286703000Y-177233000D02*
X286442000Y-177494000D01*
X306220000Y-201000000D02*
X306220000Y-160520000D01*
X306220000Y-160520000D02*
X305750000Y-160050000D01*
X238215000Y-162560000D02*
X242270000Y-162560000D01*
X232750000Y-181590000D02*
X232750000Y-168025000D01*
X232750000Y-168025000D02*
X238215000Y-162560000D01*
X194650000Y-181590000D02*
X185607000Y-172547000D01*
X185607000Y-172547000D02*
X185607000Y-162997000D01*
X185607000Y-162997000D02*
X185150000Y-162540000D01*
X180350000Y-143490000D02*
X180807000Y-143946800D01*
X180807000Y-143946800D02*
X180807000Y-158197000D01*
X180807000Y-158197000D02*
X185150000Y-162540000D01*
X238215000Y-162560000D02*
X238215000Y-144205000D01*
X238215000Y-144205000D02*
X237520000Y-143510000D01*
X237520000Y-143510000D02*
X228457000Y-134446900D01*
X228457000Y-134446900D02*
X228457000Y-124896900D01*
X228457000Y-124896900D02*
X228000000Y-124440000D01*
X170850000Y-124440000D02*
X171307000Y-124896800D01*
X171307000Y-124896800D02*
X171307000Y-134446800D01*
X171307000Y-134446800D02*
X180350000Y-143490000D01*
X232750000Y-181590000D02*
X233207000Y-182047000D01*
X233207000Y-182047000D02*
X233207000Y-184244000D01*
X233207000Y-184244000D02*
X255248000Y-206285000D01*
X261080000Y-177465000D02*
X255925000Y-177465000D01*
X255925000Y-177465000D02*
X251800000Y-181590000D01*
X273754000Y-191766000D02*
X261080000Y-179092000D01*
X261080000Y-179092000D02*
X261080000Y-177465000D01*
X166500000Y-156500000D02*
X166500000Y-162140000D01*
X166500000Y-162140000D02*
X166100000Y-162540000D01*
X247050000Y-124440000D02*
X247507000Y-124896800D01*
X247507000Y-124896800D02*
X247507000Y-134446800D01*
X247507000Y-134446800D02*
X256550000Y-143490000D01*
X261080000Y-177465000D02*
X261407000Y-177138000D01*
X261407000Y-177138000D02*
X261407000Y-162597000D01*
X261407000Y-162597000D02*
X261350000Y-162540000D01*
X261350000Y-162540000D02*
X257007000Y-158197000D01*
X257007000Y-158197000D02*
X257007000Y-143946900D01*
X257007000Y-143946900D02*
X256550000Y-143490000D01*
X151800000Y-124440000D02*
X152257000Y-124896800D01*
X152257000Y-124896800D02*
X152257000Y-134446800D01*
X152257000Y-134446800D02*
X161300000Y-143490000D01*
X175600000Y-181590000D02*
X166557000Y-172547000D01*
X166557000Y-172547000D02*
X166557000Y-162997000D01*
X166557000Y-162997000D02*
X166100000Y-162540000D01*
X271693000Y-187551000D02*
X279060000Y-187551000D01*
X279060000Y-187551000D02*
X297597000Y-206088000D01*
X297597000Y-206088000D02*
X306212000Y-206088000D01*
X306212000Y-206088000D02*
X308760000Y-203540000D01*
X270850000Y-181590000D02*
X271693000Y-182433000D01*
X271693000Y-182433000D02*
X271693000Y-187551000D01*
X276295000Y-162540000D02*
X280400000Y-162540000D01*
X156550000Y-181590000D02*
X147497000Y-172537000D01*
X147497000Y-172537000D02*
X147497000Y-163017000D01*
X147497000Y-163017000D02*
X147040000Y-162560000D01*
X142250000Y-143490000D02*
X142707000Y-143946800D01*
X142707000Y-143946800D02*
X142707000Y-158227000D01*
X142707000Y-158227000D02*
X147040000Y-162560000D01*
X276295000Y-162540000D02*
X276295000Y-144185000D01*
X276295000Y-144185000D02*
X275600000Y-143490000D01*
X275600000Y-143490000D02*
X266557000Y-134446900D01*
X266557000Y-134446900D02*
X266557000Y-124896900D01*
X266557000Y-124896900D02*
X266100000Y-124440000D01*
X276295000Y-162540000D02*
X270850000Y-167985000D01*
X270850000Y-167985000D02*
X270850000Y-181590000D01*
X132750000Y-124460000D02*
X133207000Y-124916800D01*
X133207000Y-124916800D02*
X133207000Y-134446800D01*
X133207000Y-134446800D02*
X142250000Y-143490000D01*
X271693000Y-187551000D02*
X271680000Y-187564000D01*
X123200000Y-143490000D02*
X123657000Y-143946800D01*
X123657000Y-143946800D02*
X123657000Y-158197000D01*
X123657000Y-158197000D02*
X128000000Y-162540000D01*
X113690000Y-124460000D02*
X114147000Y-124916800D01*
X114147000Y-124916800D02*
X114147000Y-134436800D01*
X114147000Y-134436800D02*
X123200000Y-143490000D01*
X285150000Y-124440000D02*
X285607000Y-124896800D01*
X285607000Y-124896800D02*
X285607000Y-134446800D01*
X285607000Y-134446800D02*
X294650000Y-143490000D01*
X295345000Y-162590000D02*
X295345000Y-144185000D01*
X295345000Y-144185000D02*
X294650000Y-143490000D01*
X137500000Y-181590000D02*
X128457000Y-172547000D01*
X128457000Y-172547000D02*
X128457000Y-162997000D01*
X128457000Y-162997000D02*
X128000000Y-162540000D01*
X289900000Y-181590000D02*
X289900000Y-168035000D01*
X289900000Y-168035000D02*
X295345000Y-162590000D01*
X295345000Y-162590000D02*
X299400000Y-162590000D01*
X299400000Y-162590000D02*
X299857000Y-163047000D01*
X299857000Y-163047000D02*
X299857000Y-170198000D01*
X299857000Y-170198000D02*
X305271000Y-175613000D01*
X305271000Y-175613000D02*
X305271000Y-196710000D01*
X311300000Y-203540000D02*
X308134000Y-206706000D01*
X308134000Y-206706000D02*
X295978000Y-206706000D01*
X295978000Y-206706000D02*
X289145000Y-199874000D01*
X289145000Y-199874000D02*
X282787000Y-199874000D01*
X282787000Y-199874000D02*
X274998000Y-192085000D01*
X274998000Y-192085000D02*
X274998000Y-191414000D01*
X274998000Y-191414000D02*
X274500000Y-190916000D01*
X274500000Y-190916000D02*
X273829000Y-190916000D01*
X273829000Y-190916000D02*
X262659000Y-179746000D01*
X262659000Y-179746000D02*
X262659000Y-164116000D01*
X262659000Y-164116000D02*
X262951000Y-163824000D01*
X262951000Y-163824000D02*
X262951000Y-141000800D01*
X262951000Y-141000800D02*
X262900000Y-140950000D01*
X291500000Y-121900000D02*
X310550000Y-121900000D01*
X313840000Y-201000000D02*
X313840000Y-199700000D01*
X313840000Y-199700000D02*
X306940000Y-192800000D01*
X306940000Y-192800000D02*
X306940000Y-161882000D01*
X306940000Y-161882000D02*
X307328000Y-161494000D01*
X307328000Y-161494000D02*
X307328000Y-158646000D01*
X307328000Y-158646000D02*
X306836000Y-158154000D01*
X306836000Y-158154000D02*
X306836000Y-143275300D01*
X306836000Y-143275300D02*
X306941000Y-143170000D01*
X306941000Y-143170000D02*
X306941000Y-134524900D01*
X306941000Y-134524900D02*
X310550000Y-130916200D01*
X310550000Y-130916200D02*
X310550000Y-121900000D01*
X196250000Y-121900000D02*
X199121000Y-121900000D01*
X199121000Y-121900000D02*
X220012000Y-142791200D01*
X220012000Y-142791200D02*
X220012000Y-144617300D01*
X220012000Y-144617300D02*
X219800000Y-144828900D01*
X219800000Y-144828900D02*
X219800000Y-174307000D01*
X219800000Y-174307000D02*
X252813000Y-207320000D01*
X252813000Y-207320000D02*
X310060000Y-207320000D01*
X310060000Y-207320000D02*
X313840000Y-203540000D01*
X316380000Y-201000000D02*
X316380000Y-199700000D01*
X316380000Y-199700000D02*
X310204000Y-193524000D01*
X310204000Y-193524000D02*
X310204000Y-160122000D01*
X310204000Y-160122000D02*
X307724000Y-157642000D01*
X92150000Y-92540000D02*
X92150000Y-93150000D01*
X92150000Y-93150000D02*
X93000000Y-94000000D01*
X93000000Y-94000000D02*
X93000000Y-98000000D01*
X93000000Y-98000000D02*
X79500000Y-111500000D01*
X79500000Y-111500000D02*
X79500000Y-115500000D01*
X95440000Y-91440000D02*
X96440000Y-91440000D01*
X96440000Y-91440000D02*
X97540000Y-92540000D01*
X97540000Y-92540000D02*
X111150000Y-92540000D01*
X80440000Y-143460000D02*
X76006900Y-139026900D01*
X76006900Y-139026900D02*
X76006900Y-124896900D01*
X76006900Y-124896900D02*
X75550000Y-124440000D01*
X337650000Y-143540000D02*
X323707000Y-129596900D01*
X323707000Y-129596900D02*
X323707000Y-124896900D01*
X323707000Y-124896900D02*
X323250000Y-124440000D01*
X339900000Y-162540000D02*
X337707000Y-160347000D01*
X337707000Y-160347000D02*
X337707000Y-143597100D01*
X337707000Y-143597100D02*
X337650000Y-143540000D01*
X339900000Y-162540000D02*
X339957000Y-162597000D01*
X339957000Y-162597000D02*
X339957000Y-181640000D01*
X339957000Y-181640000D02*
X339672000Y-181925000D01*
X339672000Y-181925000D02*
X339672000Y-185098000D01*
X339672000Y-185098000D02*
X340566000Y-185992000D01*
X340566000Y-185992000D02*
X340566000Y-202670000D01*
X104200000Y-143490000D02*
X104656800Y-143946800D01*
X104656800Y-143946800D02*
X104656800Y-158297000D01*
X104656800Y-158297000D02*
X108900000Y-162540000D01*
X94650000Y-124440000D02*
X95106800Y-124896800D01*
X95106800Y-124896800D02*
X95106800Y-134396800D01*
X95106800Y-134396800D02*
X104200000Y-143490000D01*
X118450000Y-181590000D02*
X109357000Y-172497000D01*
X109357000Y-172497000D02*
X109357000Y-162997000D01*
X109357000Y-162997000D02*
X108900000Y-162540000D01*
X318500000Y-162540000D02*
X314157000Y-158197000D01*
X314157000Y-158197000D02*
X314157000Y-143946900D01*
X314157000Y-143946900D02*
X313700000Y-143490000D01*
X318500000Y-162540000D02*
X318570000Y-162610000D01*
X318570000Y-162610000D02*
X318570000Y-167893000D01*
X318570000Y-167893000D02*
X312990000Y-173472000D01*
X312990000Y-173472000D02*
X312990000Y-179759000D01*
X306091000Y-142817800D02*
X304657000Y-141383700D01*
X304657000Y-141383700D02*
X304657000Y-124896900D01*
X304657000Y-124896900D02*
X304200000Y-124440000D01*
X304344000Y-190257000D02*
X304344000Y-182232000D01*
X346250000Y-160000000D02*
X346250000Y-180229000D01*
X346250000Y-180229000D02*
X343275000Y-183204000D01*
X343275000Y-183204000D02*
X343275000Y-201384000D01*
X343275000Y-201384000D02*
X339568000Y-205091000D01*
X339568000Y-205091000D02*
X339293000Y-205091000D01*
X130150000Y-92540000D02*
X131960000Y-92540000D01*
X131960000Y-92540000D02*
X132500000Y-92000000D01*
X132500000Y-92000000D02*
X160500000Y-92000000D01*
X160500000Y-92000000D02*
X189900000Y-121400000D01*
X189900000Y-121400000D02*
X189900000Y-124440000D01*
X73150000Y-92540000D02*
X74250000Y-91440000D01*
X74250000Y-91440000D02*
X74250000Y-89750000D01*
X74250000Y-89750000D02*
X77000000Y-87000000D01*
X77000000Y-87000000D02*
X124610000Y-87000000D01*
X124610000Y-87000000D02*
X130150000Y-92540000D01*
X213700000Y-181640000D02*
X218507000Y-176833000D01*
X218507000Y-176833000D02*
X218507000Y-143547100D01*
X218507000Y-143547100D02*
X218450000Y-143490000D01*
X199400000Y-143490000D02*
X190357000Y-134446900D01*
X190357000Y-134446900D02*
X190357000Y-124896900D01*
X190357000Y-124896900D02*
X189900000Y-124440000D01*
X199400000Y-143490000D02*
X209527000Y-143490000D01*
X87650000Y-181540000D02*
X83146900Y-177037000D01*
X83146900Y-177037000D02*
X83146900Y-162917000D01*
X83146900Y-162917000D02*
X82690000Y-162460000D01*
X315435000Y-175487000D02*
X315030000Y-175082000D01*
X315435000Y-175487000D02*
X315435000Y-180825000D01*
X315435000Y-180825000D02*
X316150000Y-181540000D01*
X315435000Y-175487000D02*
X325663000Y-165258000D01*
X325663000Y-165258000D02*
X325663000Y-161977000D01*
X325663000Y-161977000D02*
X326441000Y-161199000D01*
X326441000Y-161199000D02*
X326441000Y-133333900D01*
X326441000Y-133333900D02*
X320633000Y-127525900D01*
X320633000Y-127525900D02*
X320633000Y-124864300D01*
X320633000Y-124864300D02*
X322623000Y-122874000D01*
X322623000Y-122874000D02*
X324471000Y-122874000D01*
X324471000Y-122874000D02*
X326037000Y-124440000D01*
X326037000Y-124440000D02*
X342300000Y-124440000D01*
X321460000Y-203540000D02*
X325083000Y-207163000D01*
X325083000Y-207163000D02*
X340284000Y-207163000D01*
X340284000Y-207163000D02*
X354455000Y-192992000D01*
X354455000Y-192992000D02*
X354455000Y-175082000D01*
X265000000Y-90000000D02*
X267400000Y-90000000D01*
X267400000Y-90000000D02*
X268959000Y-88440900D01*
X268959000Y-88440900D02*
X274441000Y-88440900D01*
X274441000Y-88440900D02*
X276500000Y-90500000D01*
X276500000Y-90500000D02*
X276500000Y-104500000D01*
X276500000Y-104500000D02*
X281500000Y-109500000D01*
X281500000Y-109500000D02*
X310894000Y-109500000D01*
X310894000Y-109500000D02*
X314394000Y-113000000D01*
X314394000Y-113000000D02*
X314394000Y-128334600D01*
X314394000Y-128334600D02*
X310517000Y-132211300D01*
X310517000Y-132211300D02*
X310517000Y-147278900D01*
X310517000Y-147278900D02*
X311117000Y-147879200D01*
X311117000Y-147879200D02*
X311117000Y-186817000D01*
X311117000Y-186817000D02*
X324000000Y-199700000D01*
X324000000Y-199700000D02*
X324000000Y-201000000D01*
X343391000Y-108391200D02*
X343782000Y-108391200D01*
X343782000Y-108391200D02*
X343891000Y-108500000D01*
X343891000Y-108500000D02*
X343891000Y-125418700D01*
X343891000Y-125418700D02*
X343608000Y-125702300D01*
X343608000Y-125702300D02*
X343608000Y-133488100D01*
X343608000Y-133488100D02*
X350176000Y-140056500D01*
X350176000Y-140056500D02*
X350176000Y-181727000D01*
X350176000Y-181727000D02*
X348813000Y-183090000D01*
X348813000Y-183090000D02*
X348813000Y-196784000D01*
X348813000Y-196784000D02*
X339655000Y-205942000D01*
X339655000Y-205942000D02*
X332983000Y-205942000D01*
X332983000Y-205942000D02*
X332306000Y-205266000D01*
X323000000Y-90000000D02*
X322910000Y-90090000D01*
X322910000Y-90090000D02*
X322910000Y-92410000D01*
X322910000Y-92410000D02*
X323500000Y-93000000D01*
X323500000Y-93000000D02*
X323500000Y-113500000D01*
X323500000Y-113500000D02*
X326000000Y-116000000D01*
X326000000Y-116000000D02*
X326000000Y-118648200D01*
X326000000Y-118648200D02*
X311117000Y-133531100D01*
X311117000Y-133531100D02*
X311117000Y-146730000D01*
X311117000Y-146730000D02*
X311718000Y-147330400D01*
X311718000Y-147330400D02*
X311718000Y-184877000D01*
X311718000Y-184877000D02*
X326540000Y-199700000D01*
X326540000Y-199700000D02*
X326540000Y-201000000D01*
X352500000Y-172000000D02*
X352500000Y-181500000D01*
X352500000Y-181500000D02*
X353600000Y-182600000D01*
X353600000Y-182600000D02*
X353600000Y-192890000D01*
X353600000Y-192890000D02*
X339948000Y-206542000D01*
X339948000Y-206542000D02*
X329542000Y-206542000D01*
X329542000Y-206542000D02*
X326540000Y-203540000D01*
X116900000Y-201400000D02*
X118200000Y-201400000D01*
X118200000Y-201400000D02*
X121500000Y-198100000D01*
X121500000Y-198100000D02*
X134350000Y-198100000D01*
D15*
G36*
X297115000Y-200714250D02*
X297273750Y-200873000D01*
X298473000Y-200873000D01*
X298473000Y-200853000D01*
X298727000Y-200853000D01*
X298727000Y-200873000D01*
X298747000Y-200873000D01*
X298747000Y-201127000D01*
X298727000Y-201127000D01*
X298727000Y-201147000D01*
X298473000Y-201147000D01*
X298473000Y-201127000D01*
X297273750Y-201127000D01*
X297115000Y-201285750D01*
X297115000Y-201976309D01*
X297211673Y-202209698D01*
X297390301Y-202388327D01*
X297551032Y-202454904D01*
X297529375Y-202469375D01*
X297231834Y-202914677D01*
X296008000Y-201690843D01*
X296008000Y-201318711D01*
X296100431Y-201226280D01*
X296258000Y-200845874D01*
X296258000Y-200443000D01*
X297115000Y-200443000D01*
X297115000Y-200714250D01*
X297115000Y-200714250D01*
G37*
X297115000Y-200714250D02*
X297273750Y-200873000D01*
X298473000Y-200873000D01*
X298473000Y-200853000D01*
X298727000Y-200853000D01*
X298727000Y-200873000D01*
X298747000Y-200873000D01*
X298747000Y-201127000D01*
X298727000Y-201127000D01*
X298727000Y-201147000D01*
X298473000Y-201147000D01*
X298473000Y-201127000D01*
X297273750Y-201127000D01*
X297115000Y-201285750D01*
X297115000Y-201976309D01*
X297211673Y-202209698D01*
X297390301Y-202388327D01*
X297551032Y-202454904D01*
X297529375Y-202469375D01*
X297231834Y-202914677D01*
X296008000Y-201690843D01*
X296008000Y-201318711D01*
X296100431Y-201226280D01*
X296258000Y-200845874D01*
X296258000Y-200443000D01*
X297115000Y-200443000D01*
X297115000Y-200714250D01*
M02*
