M48
;DRILL file {KiCad 5.0.2+dfsg1-1} date Sat 21 Nov 2020 02:43:37 PM CET
;FORMAT={-:-/ absolute / inch / decimal}
FMAT,2
INCH,TZ
T1C0.0157
T2C0.0394
T3C0.0591
%
G90
G05
T1
X6.5354Y-6.1693
X8.0227Y-7.1349
X9.626Y-7.3189
X9.7362Y-7.1614
X10.2263Y-7.123
X10.4005Y-7.7293
X10.5098Y-7.7894
X10.5627Y-8.1572
X10.58Y-7.4599
X11.3228Y-7.3592
X11.5801Y-7.8608
X11.5925Y-8.1024
X12.1803Y-7.7378
X12.2599Y-6.0817
X12.3165Y-6.8932
X12.3683Y-4.565
X12.6812Y-7.3569
X13.0436Y-7.1472
X13.5636Y-8.0654
X13.7386Y-7.7751
X13.8286Y-7.1565
T2
X4.6024Y-7.9291
X4.6024Y-8.0291
X11.7559Y-7.9134
X11.7559Y-8.0134
X11.8559Y-7.9134
X11.8559Y-8.0134
X11.9559Y-7.9134
X11.9559Y-8.0134
X12.0559Y-7.9134
X12.0559Y-8.0134
X12.1559Y-7.9134
X12.1559Y-8.0134
X12.2559Y-7.9134
X12.2559Y-8.0134
X12.3559Y-7.9134
X12.3559Y-8.0134
X12.4559Y-7.9134
X12.4559Y-8.0134
X12.5559Y-7.9134
X12.5559Y-8.0134
X12.6559Y-7.9134
X12.6559Y-8.0134
X12.7559Y-7.9134
X12.7559Y-8.0134
X12.8559Y-7.9134
X12.8559Y-8.0134
X12.9559Y-7.9134
X12.9559Y-8.0134
X13.0559Y-7.9134
X13.0559Y-8.0134
X13.1559Y-7.9134
X13.1559Y-8.0134
X13.2559Y-7.9134
X13.2559Y-8.0134
X13.3559Y-7.9134
X13.3559Y-8.0134
T3
X11.9764Y-4.8992
X12.2264Y-4.7992
X9.5382Y-6.4
X9.7882Y-6.3
X4.376Y-3.6433
X4.626Y-3.5433
X10.1831Y-3.6433
X10.4331Y-3.5433
X9.0413Y-3.6433
X9.2913Y-3.5433
X11.2264Y-4.8992
X11.4764Y-4.7992
X7.8504Y-5.6492
X8.1004Y-5.5492
X9.9134Y-7.1492
X10.1634Y-7.0492
X3.7264Y-4.8992
X3.9764Y-4.7992
X10.8504Y-5.6492
X11.1004Y-5.5492
X11.4134Y-7.1492
X11.6634Y-7.0492
X4.6634Y-7.1492
X4.9134Y-7.0492
X8.7894Y-6.3992
X9.0394Y-6.2992
X5.3209Y-7.8992
X5.5709Y-7.7992
X6.5394Y-6.3992
X6.7894Y-6.2992
X8.6004Y-5.6492
X8.8504Y-5.5492
X5.124Y-3.6433
X5.374Y-3.5433
X10.2894Y-6.3992
X10.5394Y-6.2992
X9.7264Y-4.8992
X9.9764Y-4.7992
X5.2264Y-4.9
X5.4764Y-4.8
X10.4764Y-4.8992
X10.7264Y-4.7992
X11.7874Y-6.4012
X12.0374Y-6.3012
X11.6004Y-5.6492
X11.8504Y-5.5492
X4.2874Y-6.3992
X4.5374Y-6.2992
X10.6634Y-7.1492
X10.9134Y-7.0492
X6.1634Y-7.1492
X6.4134Y-7.0492
X8.1319Y-7.8992
X8.3819Y-7.7992
X8.0394Y-6.3992
X8.2894Y-6.2992
X12.3504Y-5.6492
X12.6004Y-5.5492
X13.4744Y-7.1472
X13.7244Y-7.0472
X10.1004Y-5.6492
X10.3504Y-5.5492
X8.2264Y-4.8992
X8.4764Y-4.7992
X6.7264Y-4.8992
X6.9764Y-4.7992
X4.8504Y-5.6492
X5.1004Y-5.5492
X8.9764Y-4.8992
X9.2264Y-4.7992
X3.628Y-3.6433
X3.878Y-3.5433
X6.9134Y-7.1492
X7.1634Y-7.0492
X7.2894Y-6.3992
X7.5394Y-6.2992
X6.3504Y-5.6492
X6.6004Y-5.5492
X5.6004Y-5.6492
X5.8504Y-5.5492
X2.9744Y-4.8992
X3.2244Y-4.7992
X3.1669Y-5.648
X3.4169Y-5.548
X2.8799Y-3.6433
X3.1299Y-3.5433
X12.5394Y-6.3992
X12.7894Y-6.2992
X13.4764Y-4.8992
X13.7264Y-4.7992
X11.0394Y-6.3992
X11.2894Y-6.2992
X12.4665Y-3.6433
X12.7165Y-3.5433
X12.4469Y-7.1472
X12.6969Y-7.0472
X13.2933Y-5.6512
X13.5433Y-5.5512
X7.1004Y-5.6492
X7.3504Y-5.5492
X13.3819Y-6.3992
X13.6319Y-6.2992
X12.7264Y-4.8992
X12.9764Y-4.7992
X11.0394Y-7.8996
X11.2894Y-7.7996
X9.3512Y-5.65
X9.6012Y-5.55
X13.6083Y-3.6433
X13.8583Y-3.5433
X3.2555Y-6.3961
X3.5055Y-6.2961
X4.1024Y-5.6492
X4.3524Y-5.5492
X5.4134Y-7.1492
X5.6634Y-7.0492
X5.789Y-6.4
X6.039Y-6.3
X5.0394Y-6.3992
X5.2894Y-6.2992
X7.4764Y-4.8992
X7.7264Y-4.7992
X11.3248Y-3.6433
X11.5748Y-3.5433
X9.1634Y-7.1492
X9.4134Y-7.0492
X3.4508Y-7.1472
X3.7008Y-7.0472
X8.4134Y-7.1512
X8.6634Y-7.0512
X7.6634Y-7.1492
X7.9134Y-7.0492
X5.9764Y-4.8992
X6.2264Y-4.7992
X4.476Y-4.9
X4.726Y-4.8
T0
M30
