M48
; DRILL file {KiCad 5.1.9+dfsg1-1~bpo10+1} date Sat Apr  3 18:05:05 2021
; FORMAT={-:-/ absolute / inch / decimal}
; #@! TF.CreationDate,2021-04-03T18:05:05+02:00
; #@! TF.GenerationSoftware,Kicad,Pcbnew,5.1.9+dfsg1-1~bpo10+1
; #@! TF.FileFunction,Plated,1,2,PTH
FMAT,2
INCH
T1C0.0157
T2C0.0335
T3C0.0394
T4C0.0591
%
G90
G05
T1
X4.8102Y-6.9197
X8.9124Y-5.4882
X9.2581Y-7.5469
X9.3512Y-5.4749
X10.8505Y-6.9949
X10.9383Y-5.514
X11.2756Y-7.6357
X11.3198Y-7.2928
X11.3263Y-5.3941
X11.8749Y-7.5068
X11.9558Y-5.6103
X11.976Y-7.1492
X12.0073Y-6.9197
X12.0522Y-6.8803
X12.3511Y-7.361
X12.4554Y-8.101
X12.6862Y-6.7207
X12.7091Y-5.2254
X13.592Y-6.7564
X13.6981Y-6.019
X13.7396Y-7.8782
X13.8509Y-8.1709
X13.8945Y-6.7742
X13.9105Y-8.0631
X13.9392Y-7.6464
X13.962Y-8.1365
X13.9688Y-6.9144
X14.0917Y-6.6508
X14.1861Y-6.3341
X14.2208Y-5.3543
X14.2952Y-5.514
X14.3701Y-7.6464
X14.4054Y-7.6937
X14.4307Y-7.3478
X14.4817Y-7.2308
X14.4905Y-7.5467
X14.5097Y-7.5035
X14.5146Y-7.0435
X14.5733Y-5.5543
X14.5994Y-6.1556
X14.6468Y-5.9543
X14.6585Y-7.1538
X14.6897Y-6.4543
X14.7183Y-6.2543
T2
X12.2441Y-7.9429
X12.2933Y-8.0413
X12.3425Y-7.9429
X12.3917Y-8.0413
X12.4409Y-7.9429
X12.4902Y-8.0413
X12.5394Y-7.9429
X12.5886Y-8.0413
X12.6378Y-7.9429
X12.687Y-8.0413
X12.7362Y-7.9429
X12.7854Y-8.0413
X12.8346Y-7.9429
X12.8839Y-8.0413
X12.9331Y-7.9429
X12.9823Y-8.0413
X13.0315Y-7.9429
X13.0807Y-8.0413
X13.1299Y-7.9429
X13.1791Y-8.0413
X13.2283Y-7.9429
X13.2776Y-8.0413
X13.3268Y-7.9429
X13.376Y-8.0413
X13.4252Y-7.9429
X13.4744Y-8.0413
X13.5236Y-7.9429
X13.5728Y-8.0413
X13.622Y-7.9429
X13.6713Y-8.0413
X13.7205Y-7.9429
X13.7697Y-8.0413
T3
X2.5197Y-7.0835
X2.5197Y-7.1835
X2.5197Y-7.2835
X4.6024Y-7.9291
X4.6024Y-8.0291
X10.315Y-4.3307
X10.415Y-4.3307
X10.515Y-4.3307
X14.3882Y-5.3543
X14.3882Y-5.4543
X14.3882Y-5.5543
X14.3882Y-5.6543
X14.3882Y-5.7543
X14.3882Y-5.8543
X14.3882Y-5.9543
X14.3882Y-6.0543
X14.3882Y-6.1543
X14.3882Y-6.2543
X14.3882Y-6.3543
X14.3882Y-6.4543
X14.3882Y-6.5543
X14.3882Y-6.6543
X14.3882Y-6.7543
X14.3882Y-6.8543
X14.3882Y-6.9543
X14.4882Y-5.3543
X14.4882Y-5.4543
X14.4882Y-5.5543
X14.4882Y-5.6543
X14.4882Y-5.7543
X14.4882Y-5.8543
X14.4882Y-5.9543
X14.4882Y-6.0543
X14.4882Y-6.1543
X14.4882Y-6.2543
X14.4882Y-6.3543
X14.4882Y-6.4543
X14.4882Y-6.5543
X14.4882Y-6.6543
X14.4882Y-6.7543
X14.4882Y-6.8543
X14.4882Y-6.9543
T4
X2.8799Y-3.6433
X2.9744Y-4.8992
X3.1299Y-3.5433
X3.1669Y-5.648
X3.2244Y-4.7992
X3.2555Y-6.3961
X3.4169Y-5.548
X3.4508Y-7.1472
X3.5055Y-6.2961
X3.628Y-3.6433
X3.7008Y-7.0472
X3.7264Y-4.8992
X3.878Y-3.5433
X3.9764Y-4.7992
X4.1024Y-5.6492
X4.2874Y-6.3992
X4.3524Y-5.5492
X4.376Y-3.6433
X4.476Y-4.9
X4.5374Y-6.2992
X4.626Y-3.5433
X4.6634Y-7.1492
X4.726Y-4.8
X4.8504Y-5.6492
X4.9134Y-7.0492
X5.0394Y-6.3992
X5.1004Y-5.5492
X5.124Y-3.6433
X5.2264Y-4.9
X5.2894Y-6.2992
X5.374Y-3.5433
X5.4114Y-7.8913
X5.4134Y-7.1492
X5.4764Y-4.8
X5.6004Y-5.6492
X5.6614Y-7.7913
X5.6634Y-7.0492
X5.789Y-6.4
X5.8504Y-5.5492
X5.9764Y-4.8992
X6.039Y-6.3
X6.1634Y-7.1492
X6.2264Y-4.7992
X6.3504Y-5.6492
X6.4134Y-7.0492
X6.5394Y-6.3992
X6.6004Y-5.5492
X6.7264Y-4.8992
X6.7894Y-6.2992
X6.9134Y-7.1492
X6.9764Y-4.7992
X7.1004Y-5.6492
X7.1634Y-7.0492
X7.2894Y-6.3992
X7.3504Y-5.5492
X7.4764Y-4.8992
X7.5394Y-6.2992
X7.6634Y-7.1492
X7.7264Y-4.7992
X7.8504Y-5.6492
X7.9134Y-7.0492
X8.0394Y-6.3992
X8.1004Y-5.5492
X8.2264Y-4.8992
X8.2894Y-6.2992
X8.3209Y-7.8913
X8.3209Y-7.8913
X8.4134Y-7.1512
X8.4764Y-4.7992
X8.5709Y-7.7913
X8.5709Y-7.7913
X8.6004Y-5.6492
X8.6634Y-7.0512
X8.7894Y-6.3992
X8.8504Y-5.5492
X8.9764Y-4.8992
X9.0394Y-6.2992
X9.1102Y-3.6402
X9.1634Y-7.1492
X9.2264Y-4.7992
X9.3512Y-5.65
X9.3602Y-3.5402
X9.4134Y-7.0492
X9.5382Y-6.4
X9.6012Y-5.55
X9.7264Y-4.8992
X9.7882Y-6.3
X9.9134Y-7.1492
X9.9764Y-4.7992
X10.1004Y-5.6492
X10.1634Y-7.0492
X10.2358Y-3.639
X10.2894Y-6.3992
X10.3504Y-5.5492
X10.4764Y-4.8992
X10.4858Y-3.539
X10.5394Y-6.2992
X10.6634Y-7.1492
X10.7264Y-4.7992
X10.8504Y-5.6492
X10.9134Y-7.0492
X11.0394Y-6.3992
X11.1004Y-5.5492
X11.1319Y-7.8913
X11.2264Y-4.8992
X11.2894Y-6.2992
X11.3598Y-3.6402
X11.3819Y-7.7913
X11.4134Y-7.1492
X11.4764Y-4.7992
X11.6004Y-5.6492
X11.6098Y-3.5402
X11.6634Y-7.0492
X11.7874Y-6.4012
X11.8504Y-5.5492
X11.9764Y-4.8992
X12.0374Y-6.3012
X12.2264Y-4.7992
X12.3504Y-5.6492
X12.4469Y-7.1472
X12.4878Y-3.639
X12.5394Y-6.3992
X12.6004Y-5.5492
X12.6969Y-7.0472
X12.7264Y-4.8992
X12.7378Y-3.539
X12.7894Y-6.2992
X12.9764Y-4.7992
X13.2933Y-5.6512
X13.3819Y-6.3992
X13.4744Y-7.1472
X13.4764Y-4.8992
X13.5433Y-5.5512
X13.6118Y-3.639
X13.6319Y-6.2992
X13.7244Y-7.0472
X13.7264Y-4.7992
X13.8618Y-3.539
T0
M30
