%TF.GenerationSoftware,KiCad,Pcbnew,5.1.9+dfsg1-1~bpo10+1*%
%TF.CreationDate,2021-04-03T18:05:08+02:00*%
%TF.ProjectId,A130XE_KB_MX,41313330-5845-45f4-9b42-5f4d582e6b69,2.0*%
%TF.SameCoordinates,Original*%
%TF.FileFunction,Soldermask,Top*%
%TF.FilePolarity,Negative*%
%FSLAX46Y46*%
G04 Gerber Fmt 4.6, Leading zero omitted, Abs format (unit mm)*
G04 Created by KiCad (PCBNEW 5.1.9+dfsg1-1~bpo10+1) date 2021-04-03 18:05:08*
%MOMM*%
%LPD*%
G01*
G04 APERTURE LIST*
%ADD10C,1.700000*%
%ADD11C,4.000000*%
%ADD12C,2.200000*%
%ADD13C,3.050000*%
%ADD14C,1.600000*%
%ADD15C,3.700000*%
%ADD16O,1.700000X1.700000*%
%ADD17R,1.700000X1.700000*%
%ADD18C,0.800000*%
G04 APERTURE END LIST*
G36*
G01*
X251232100Y-98870816D02*
X251998144Y-98228028D01*
G75*
G02*
X254463600Y-98443728I1124878J-1340578D01*
G01*
X254463600Y-98443728D01*
G75*
G02*
X254247900Y-100909184I-1340578J-1124878D01*
G01*
X253481856Y-101551972D01*
G75*
G02*
X251016400Y-101336272I-1124878J1340578D01*
G01*
X251016400Y-101336272D01*
G75*
G02*
X251232100Y-98870816I1340578J1124878D01*
G01*
G37*
D10*
X268880000Y-94970000D03*
X258720000Y-94970000D03*
D11*
X263800000Y-94970000D03*
D12*
X259990000Y-92430000D03*
X266340000Y-89890000D03*
G36*
G01*
X279782100Y-98900816D02*
X280548144Y-98258028D01*
G75*
G02*
X283013600Y-98473728I1124878J-1340578D01*
G01*
X283013600Y-98473728D01*
G75*
G02*
X282797900Y-100939184I-1340578J-1124878D01*
G01*
X282031856Y-101581972D01*
G75*
G02*
X279566400Y-101366272I-1124878J1340578D01*
G01*
X279566400Y-101366272D01*
G75*
G02*
X279782100Y-98900816I1340578J1124878D01*
G01*
G37*
D10*
X297430000Y-95000000D03*
X287270000Y-95000000D03*
D11*
X292350000Y-95000000D03*
D12*
X288540000Y-92460000D03*
X294890000Y-89920000D03*
G36*
G01*
X308432100Y-98870816D02*
X309198144Y-98228028D01*
G75*
G02*
X311663600Y-98443728I1124878J-1340578D01*
G01*
X311663600Y-98443728D01*
G75*
G02*
X311447900Y-100909184I-1340578J-1124878D01*
G01*
X310681856Y-101551972D01*
G75*
G02*
X308216400Y-101336272I-1124878J1340578D01*
G01*
X308216400Y-101336272D01*
G75*
G02*
X308432100Y-98870816I1340578J1124878D01*
G01*
G37*
D10*
X326080000Y-94970000D03*
X315920000Y-94970000D03*
D11*
X321000000Y-94970000D03*
D12*
X317190000Y-92430000D03*
X323540000Y-89890000D03*
G36*
G01*
X222642100Y-98900816D02*
X223408144Y-98258028D01*
G75*
G02*
X225873600Y-98473728I1124878J-1340578D01*
G01*
X225873600Y-98473728D01*
G75*
G02*
X225657900Y-100939184I-1340578J-1124878D01*
G01*
X224891856Y-101581972D01*
G75*
G02*
X222426400Y-101366272I-1124878J1340578D01*
G01*
X222426400Y-101366272D01*
G75*
G02*
X222642100Y-98900816I1340578J1124878D01*
G01*
G37*
D10*
X240290000Y-95000000D03*
X230130000Y-95000000D03*
D11*
X235210000Y-95000000D03*
D12*
X231400000Y-92460000D03*
X237750000Y-89920000D03*
G36*
G01*
X336982100Y-98870816D02*
X337748144Y-98228028D01*
G75*
G02*
X340213600Y-98443728I1124878J-1340578D01*
G01*
X340213600Y-98443728D01*
G75*
G02*
X339997900Y-100909184I-1340578J-1124878D01*
G01*
X339231856Y-101551972D01*
G75*
G02*
X336766400Y-101336272I-1124878J1340578D01*
G01*
X336766400Y-101336272D01*
G75*
G02*
X336982100Y-98870816I1340578J1124878D01*
G01*
G37*
D10*
X354630000Y-94970000D03*
X344470000Y-94970000D03*
D11*
X349550000Y-94970000D03*
D12*
X345740000Y-92430000D03*
X352090000Y-89890000D03*
D11*
X277700000Y-211220000D03*
D13*
X277700000Y-195980000D03*
X152700000Y-195980000D03*
D11*
X152700000Y-211220000D03*
D10*
X220240000Y-202980000D03*
X210080000Y-202980000D03*
D11*
X215160000Y-202980000D03*
D12*
X211350000Y-200440000D03*
X217700000Y-197900000D03*
D14*
X349750000Y-204250000D03*
X348500000Y-201750000D03*
X347250000Y-204250000D03*
X346000000Y-201750000D03*
X344750000Y-204250000D03*
X343500000Y-201750000D03*
X342250000Y-204250000D03*
X341000000Y-201750000D03*
X339750000Y-204250000D03*
X338500000Y-201750000D03*
X337250000Y-204250000D03*
X336000000Y-201750000D03*
X334750000Y-204250000D03*
X333500000Y-201750000D03*
X332250000Y-204250000D03*
X331000000Y-201750000D03*
X329750000Y-204250000D03*
X328500000Y-201750000D03*
X327250000Y-204250000D03*
X326000000Y-201750000D03*
X324750000Y-204250000D03*
X323500000Y-201750000D03*
X322250000Y-204250000D03*
X321000000Y-201750000D03*
X319750000Y-204250000D03*
X318500000Y-201750000D03*
X317250000Y-204250000D03*
X316000000Y-201750000D03*
X314750000Y-204250000D03*
X313500000Y-201750000D03*
X312250000Y-204250000D03*
X311000000Y-201750000D03*
D13*
X103360000Y-177080000D03*
X79560000Y-177080000D03*
D11*
X79560000Y-192320000D03*
X103360000Y-192320000D03*
D10*
X96540000Y-184080000D03*
X86380000Y-184080000D03*
D11*
X91460000Y-184080000D03*
D12*
X87650000Y-181540000D03*
X94000000Y-179000000D03*
D10*
X139040000Y-95080000D03*
X128880000Y-95080000D03*
D11*
X133960000Y-95080000D03*
D12*
X130150000Y-92540000D03*
X136500000Y-90000000D03*
D15*
X52000000Y-90000000D03*
D10*
X120040000Y-95080000D03*
X109880000Y-95080000D03*
D11*
X114960000Y-95080000D03*
D12*
X111150000Y-92540000D03*
X117500000Y-90000000D03*
D10*
X351140000Y-184080000D03*
X340980000Y-184080000D03*
D11*
X346060000Y-184080000D03*
D12*
X342250000Y-181540000D03*
X348600000Y-179000000D03*
D10*
X351190000Y-126980000D03*
X341030000Y-126980000D03*
D11*
X346110000Y-126980000D03*
D12*
X342300000Y-124440000D03*
X348650000Y-121900000D03*
D10*
X332140000Y-126980000D03*
X321980000Y-126980000D03*
D11*
X327060000Y-126980000D03*
D12*
X323250000Y-124440000D03*
X329600000Y-121900000D03*
D10*
X313090000Y-126980000D03*
X302930000Y-126980000D03*
D11*
X308010000Y-126980000D03*
D12*
X304200000Y-124440000D03*
X310550000Y-121900000D03*
D10*
X294040000Y-126980000D03*
X283880000Y-126980000D03*
D11*
X288960000Y-126980000D03*
D12*
X285150000Y-124440000D03*
X291500000Y-121900000D03*
D10*
X274990000Y-126980000D03*
X264830000Y-126980000D03*
D11*
X269910000Y-126980000D03*
D12*
X266100000Y-124440000D03*
X272450000Y-121900000D03*
D10*
X255940000Y-126980000D03*
X245780000Y-126980000D03*
D11*
X250860000Y-126980000D03*
D12*
X247050000Y-124440000D03*
X253400000Y-121900000D03*
D10*
X236890000Y-126980000D03*
X226730000Y-126980000D03*
D11*
X231810000Y-126980000D03*
D12*
X228000000Y-124440000D03*
X234350000Y-121900000D03*
D10*
X217840000Y-126980000D03*
X207680000Y-126980000D03*
D11*
X212760000Y-126980000D03*
D12*
X208950000Y-124440000D03*
X215300000Y-121900000D03*
D10*
X101040000Y-95080000D03*
X90880000Y-95080000D03*
D11*
X95960000Y-95080000D03*
D12*
X92150000Y-92540000D03*
X98500000Y-90000000D03*
D10*
X279740000Y-184130000D03*
X269580000Y-184130000D03*
D11*
X274660000Y-184130000D03*
D12*
X270850000Y-181590000D03*
X277200000Y-179050000D03*
D10*
X84440000Y-126980000D03*
X74280000Y-126980000D03*
D11*
X79360000Y-126980000D03*
D12*
X75550000Y-124440000D03*
X81900000Y-121900000D03*
D10*
X289290000Y-165080000D03*
X279130000Y-165080000D03*
D11*
X284210000Y-165080000D03*
D12*
X280400000Y-162540000D03*
X286750000Y-160000000D03*
D10*
X132090000Y-146030000D03*
X121930000Y-146030000D03*
D11*
X127010000Y-146030000D03*
D12*
X123200000Y-143490000D03*
X129550000Y-140950000D03*
D10*
X136890000Y-165080000D03*
X126730000Y-165080000D03*
D11*
X131810000Y-165080000D03*
D12*
X128000000Y-162540000D03*
X134350000Y-160000000D03*
D10*
X146390000Y-184130000D03*
X136230000Y-184130000D03*
D11*
X141310000Y-184130000D03*
D12*
X137500000Y-181590000D03*
X143850000Y-179050000D03*
D10*
X308290000Y-165130000D03*
X298130000Y-165130000D03*
D11*
X303210000Y-165130000D03*
D12*
X299400000Y-162590000D03*
X305750000Y-160050000D03*
D10*
X103540000Y-126980000D03*
X93380000Y-126980000D03*
D11*
X98460000Y-126980000D03*
D12*
X94650000Y-124440000D03*
X101000000Y-121900000D03*
D10*
X322590000Y-146030000D03*
X312430000Y-146030000D03*
D11*
X317510000Y-146030000D03*
D12*
X313700000Y-143490000D03*
X320050000Y-140950000D03*
D10*
X113090000Y-146030000D03*
X102930000Y-146030000D03*
D11*
X108010000Y-146030000D03*
D12*
X104200000Y-143490000D03*
X110550000Y-140950000D03*
D10*
X117790000Y-165080000D03*
X107630000Y-165080000D03*
D11*
X112710000Y-165080000D03*
D12*
X108900000Y-162540000D03*
X115250000Y-160000000D03*
D10*
X298790000Y-184130000D03*
X288630000Y-184130000D03*
D11*
X293710000Y-184130000D03*
D12*
X289900000Y-181590000D03*
X296250000Y-179050000D03*
D10*
X303540000Y-146030000D03*
X293380000Y-146030000D03*
D11*
X298460000Y-146030000D03*
D12*
X294650000Y-143490000D03*
X301000000Y-140950000D03*
D10*
X127340000Y-184130000D03*
X117180000Y-184130000D03*
D11*
X122260000Y-184130000D03*
D12*
X118450000Y-181590000D03*
X124800000Y-179050000D03*
D10*
X327390000Y-165080000D03*
X317230000Y-165080000D03*
D11*
X322310000Y-165080000D03*
D12*
X318500000Y-162540000D03*
X324850000Y-160000000D03*
D10*
X265440000Y-146030000D03*
X255280000Y-146030000D03*
D11*
X260360000Y-146030000D03*
D12*
X256550000Y-143490000D03*
X262900000Y-140950000D03*
D10*
X174990000Y-165080000D03*
X164830000Y-165080000D03*
D11*
X169910000Y-165080000D03*
D12*
X166100000Y-162540000D03*
X172450000Y-160000000D03*
D10*
X241640000Y-184130000D03*
X231480000Y-184130000D03*
D11*
X236560000Y-184130000D03*
D12*
X232750000Y-181590000D03*
X239100000Y-179050000D03*
D10*
X184490000Y-184130000D03*
X174330000Y-184130000D03*
D11*
X179410000Y-184130000D03*
D12*
X175600000Y-181590000D03*
X181950000Y-179050000D03*
D10*
X270240000Y-165080000D03*
X260080000Y-165080000D03*
D11*
X265160000Y-165080000D03*
D12*
X261350000Y-162540000D03*
X267700000Y-160000000D03*
D10*
X141640000Y-127000000D03*
X131480000Y-127000000D03*
D11*
X136560000Y-127000000D03*
D12*
X132750000Y-124460000D03*
X139100000Y-121920000D03*
D10*
X284490000Y-146030000D03*
X274330000Y-146030000D03*
D11*
X279410000Y-146030000D03*
D12*
X275600000Y-143490000D03*
X281950000Y-140950000D03*
D10*
X151140000Y-146030000D03*
X140980000Y-146030000D03*
D11*
X146060000Y-146030000D03*
D12*
X142250000Y-143490000D03*
X148600000Y-140950000D03*
D10*
X155930000Y-165100000D03*
X145770000Y-165100000D03*
D11*
X150850000Y-165100000D03*
D12*
X147040000Y-162560000D03*
X153390000Y-160020000D03*
D10*
X260690000Y-184130000D03*
X250530000Y-184130000D03*
D11*
X255610000Y-184130000D03*
D12*
X251800000Y-181590000D03*
X258150000Y-179050000D03*
D10*
X165440000Y-184130000D03*
X155280000Y-184130000D03*
D11*
X160360000Y-184130000D03*
D12*
X156550000Y-181590000D03*
X162900000Y-179050000D03*
D10*
X122580000Y-127000000D03*
X112420000Y-127000000D03*
D11*
X117500000Y-127000000D03*
D12*
X113690000Y-124460000D03*
X120040000Y-121920000D03*
D10*
X170190000Y-146030000D03*
X160030000Y-146030000D03*
D11*
X165110000Y-146030000D03*
D12*
X161300000Y-143490000D03*
X167650000Y-140950000D03*
D10*
X160690000Y-126980000D03*
X150530000Y-126980000D03*
D11*
X155610000Y-126980000D03*
D12*
X151800000Y-124440000D03*
X158150000Y-121900000D03*
D10*
X251160000Y-165100000D03*
X241000000Y-165100000D03*
D11*
X246080000Y-165100000D03*
D12*
X242270000Y-162560000D03*
X248620000Y-160020000D03*
D10*
X203540000Y-184130000D03*
X193380000Y-184130000D03*
D11*
X198460000Y-184130000D03*
D12*
X194650000Y-181590000D03*
X201000000Y-179050000D03*
D10*
X194040000Y-165080000D03*
X183880000Y-165080000D03*
D11*
X188960000Y-165080000D03*
D12*
X185150000Y-162540000D03*
X191500000Y-160000000D03*
D10*
X189240000Y-146030000D03*
X179080000Y-146030000D03*
D11*
X184160000Y-146030000D03*
D12*
X180350000Y-143490000D03*
X186700000Y-140950000D03*
D10*
X246410000Y-146050000D03*
X236250000Y-146050000D03*
D11*
X241330000Y-146050000D03*
D12*
X237520000Y-143510000D03*
X243870000Y-140970000D03*
D10*
X179740000Y-126980000D03*
X169580000Y-126980000D03*
D11*
X174660000Y-126980000D03*
D12*
X170850000Y-124440000D03*
X177200000Y-121900000D03*
D10*
X232140000Y-165080000D03*
X221980000Y-165080000D03*
D11*
X227060000Y-165080000D03*
D12*
X223250000Y-162540000D03*
X229600000Y-160000000D03*
D10*
X222590000Y-184180000D03*
X212430000Y-184180000D03*
D11*
X217510000Y-184180000D03*
D12*
X213700000Y-181640000D03*
X220050000Y-179100000D03*
D10*
X213090000Y-165080000D03*
X202930000Y-165080000D03*
D11*
X208010000Y-165080000D03*
D12*
X204200000Y-162540000D03*
X210550000Y-160000000D03*
D10*
X208290000Y-146030000D03*
X198130000Y-146030000D03*
D11*
X203210000Y-146030000D03*
D12*
X199400000Y-143490000D03*
X205750000Y-140950000D03*
D10*
X227340000Y-146030000D03*
X217180000Y-146030000D03*
D11*
X222260000Y-146030000D03*
D12*
X218450000Y-143490000D03*
X224800000Y-140950000D03*
D10*
X82040000Y-95080000D03*
X71880000Y-95080000D03*
D11*
X76960000Y-95080000D03*
D12*
X73150000Y-92540000D03*
X79500000Y-90000000D03*
D10*
X198790000Y-126980000D03*
X188630000Y-126980000D03*
D11*
X193710000Y-126980000D03*
D12*
X189900000Y-124440000D03*
X196250000Y-121900000D03*
D10*
X291640000Y-202980000D03*
X281480000Y-202980000D03*
D11*
X286560000Y-202980000D03*
D12*
X282750000Y-200440000D03*
X289100000Y-197900000D03*
D10*
X348790000Y-165080000D03*
X338630000Y-165080000D03*
D11*
X343710000Y-165080000D03*
D12*
X339900000Y-162540000D03*
X346250000Y-160000000D03*
D10*
X89330000Y-146000000D03*
X79170000Y-146000000D03*
D11*
X84250000Y-146000000D03*
D12*
X80440000Y-143460000D03*
X86790000Y-140920000D03*
D10*
X346540000Y-146080000D03*
X336380000Y-146080000D03*
D11*
X341460000Y-146080000D03*
D12*
X337650000Y-143540000D03*
X344000000Y-141000000D03*
D10*
X325040000Y-184080000D03*
X314880000Y-184080000D03*
D11*
X319960000Y-184080000D03*
D12*
X316150000Y-181540000D03*
X322500000Y-179000000D03*
D10*
X91580000Y-165000000D03*
X81420000Y-165000000D03*
D11*
X86500000Y-165000000D03*
D12*
X82690000Y-162460000D03*
X89040000Y-159920000D03*
D13*
X265160000Y-195980000D03*
X165160000Y-195980000D03*
D11*
X165160000Y-211220000D03*
X265160000Y-211220000D03*
D10*
X220240000Y-202980000D03*
X210080000Y-202980000D03*
D11*
X215160000Y-202980000D03*
D12*
X211350000Y-200440000D03*
X217700000Y-197900000D03*
G36*
G01*
X55037500Y-211825000D02*
X55037500Y-209675000D01*
G75*
G02*
X55287500Y-209425000I250000J0D01*
G01*
X56212500Y-209425000D01*
G75*
G02*
X56462500Y-209675000I0J-250000D01*
G01*
X56462500Y-211825000D01*
G75*
G02*
X56212500Y-212075000I-250000J0D01*
G01*
X55287500Y-212075000D01*
G75*
G02*
X55037500Y-211825000I0J250000D01*
G01*
G37*
G36*
G01*
X52062500Y-211825000D02*
X52062500Y-209675000D01*
G75*
G02*
X52312500Y-209425000I250000J0D01*
G01*
X53237500Y-209425000D01*
G75*
G02*
X53487500Y-209675000I0J-250000D01*
G01*
X53487500Y-211825000D01*
G75*
G02*
X53237500Y-212075000I-250000J0D01*
G01*
X52312500Y-212075000D01*
G75*
G02*
X52062500Y-211825000I0J250000D01*
G01*
G37*
D16*
X116900000Y-203940000D03*
D17*
X116900000Y-201400000D03*
D15*
X372000000Y-90000000D03*
X372000000Y-209000000D03*
X52000000Y-203000000D03*
D10*
X146340000Y-202980000D03*
X136180000Y-202980000D03*
D11*
X141260000Y-202980000D03*
D12*
X137450000Y-200440000D03*
X143800000Y-197900000D03*
D16*
X64000000Y-179920000D03*
X64000000Y-182460000D03*
D17*
X64000000Y-185000000D03*
D16*
X267080000Y-110000000D03*
X264540000Y-110000000D03*
D17*
X262000000Y-110000000D03*
D10*
X365460000Y-176640000D03*
X365460000Y-174100000D03*
X365460000Y-171560000D03*
X365460000Y-169020000D03*
X365460000Y-166480000D03*
X365460000Y-163940000D03*
X365460000Y-161400000D03*
X365460000Y-158860000D03*
X365460000Y-156320000D03*
X365460000Y-153780000D03*
X365460000Y-151240000D03*
X365460000Y-148700000D03*
X365460000Y-146160000D03*
X365460000Y-143620000D03*
X365460000Y-141080000D03*
X365460000Y-138540000D03*
X365460000Y-136000000D03*
X368000000Y-176640000D03*
X368000000Y-174100000D03*
X368000000Y-171560000D03*
X368000000Y-169020000D03*
X368000000Y-166480000D03*
X368000000Y-163940000D03*
X368000000Y-161400000D03*
X368000000Y-158860000D03*
X368000000Y-156320000D03*
X368000000Y-153780000D03*
X368000000Y-151240000D03*
X368000000Y-148700000D03*
X368000000Y-146160000D03*
X368000000Y-143620000D03*
X368000000Y-141080000D03*
X368000000Y-138540000D03*
G36*
G01*
X368850000Y-135400000D02*
X368850000Y-136600000D01*
G75*
G02*
X368600000Y-136850000I-250000J0D01*
G01*
X367400000Y-136850000D01*
G75*
G02*
X367150000Y-136600000I0J250000D01*
G01*
X367150000Y-135400000D01*
G75*
G02*
X367400000Y-135150000I250000J0D01*
G01*
X368600000Y-135150000D01*
G75*
G02*
X368850000Y-135400000I0J-250000D01*
G01*
G37*
D18*
X287521900Y-185238100D03*
X287688500Y-137011000D03*
X301621800Y-190673700D03*
X368547600Y-190589800D03*
X226376100Y-139399600D03*
X372325900Y-181705400D03*
X370160700Y-141080000D03*
X354808300Y-175625800D03*
X363098700Y-140054900D03*
X275602100Y-177669200D03*
X322809900Y-132725200D03*
X237520000Y-139062000D03*
X286400200Y-193947400D03*
X277832300Y-140054400D03*
X304191300Y-181590000D03*
X316367100Y-205764800D03*
X372028700Y-151240000D03*
X347932900Y-152883700D03*
X313718200Y-186968200D03*
X366540400Y-186634800D03*
X303678000Y-142500400D03*
X367835200Y-183661100D03*
X370824700Y-156352400D03*
X304986100Y-175759700D03*
X122178200Y-175759700D03*
X368059500Y-191685700D03*
X373846000Y-158860000D03*
X235156600Y-191690100D03*
X348984600Y-200105700D03*
X322229500Y-170706700D03*
X360328200Y-160885700D03*
X365000100Y-194218200D03*
X354054900Y-194218200D03*
X357929100Y-168930900D03*
X345236300Y-171611400D03*
X365896100Y-195419600D03*
X373118000Y-163940000D03*
X354633600Y-206667800D03*
X368671800Y-178903900D03*
X306125300Y-174759700D03*
X353326100Y-204802500D03*
X352919900Y-172063800D03*
X351812300Y-207539900D03*
X361208900Y-136000000D03*
M02*
