M48
; DRILL file {KiCad 5.1.9+dfsg1-1~bpo10+1} date Wed Mar 24 08:29:30 2021
; FORMAT={-:-/ absolute / inch / decimal}
; #@! TF.CreationDate,2021-03-24T08:29:30+01:00
; #@! TF.GenerationSoftware,Kicad,Pcbnew,5.1.9+dfsg1-1~bpo10+1
; #@! TF.FileFunction,Plated,1,2,PTH
FMAT,2
INCH
T1C0.0157
T2C0.0335
T3C0.0394
T4C0.0591
%
G90
G05
T1
X10.513Y-7.5336
X10.9795Y-7.674
X12.068Y-7.7075
X12.3356Y-5.848
X12.4083Y-5.8522
X12.6045Y-8.1031
X12.7473Y-5.7988
X12.7651Y-7.4751
X12.8113Y-5.4993
X12.8887Y-6.5617
X13.2811Y-7.4593
X13.3256Y-5.0992
X13.367Y-7.4299
X13.8192Y-5.8051
X13.8266Y-7.0578
X13.914Y-7.0085
X13.9484Y-6.7078
X13.9547Y-5.8408
X14.0146Y-6.2815
X14.0446Y-6.5543
X14.0721Y-6.5044
X14.0885Y-6.2381
X14.122Y-7.803
X14.1242Y-6.3431
X14.1493Y-7.6651
X14.2173Y-6.1257
X14.2864Y-7.3836
T2
X12.2441Y-7.9429
X12.2933Y-8.0413
X12.3425Y-7.9429
X12.3917Y-8.0413
X12.4409Y-7.9429
X12.4902Y-8.0413
X12.5394Y-7.9429
X12.5886Y-8.0413
X12.6378Y-7.9429
X12.687Y-8.0413
X12.7362Y-7.9429
X12.7854Y-8.0413
X12.8346Y-7.9429
X12.8839Y-8.0413
X12.9331Y-7.9429
X12.9823Y-8.0413
X13.0315Y-7.9429
X13.0807Y-8.0413
X13.1299Y-7.9429
X13.1791Y-8.0413
X13.2283Y-7.9429
X13.2776Y-8.0413
X13.3268Y-7.9429
X13.376Y-8.0413
X13.4252Y-7.9429
X13.4744Y-8.0413
X13.5236Y-7.9429
X13.5728Y-8.0413
X13.622Y-7.9429
X13.6713Y-8.0413
X13.7205Y-7.9429
X13.7697Y-8.0413
T3
X2.5197Y-7.0835
X2.5197Y-7.1835
X2.5197Y-7.2835
X4.6024Y-7.9291
X4.6024Y-8.0291
X10.315Y-4.3307
X10.415Y-4.3307
X10.515Y-4.3307
X14.3882Y-5.3543
X14.3882Y-5.4543
X14.3882Y-5.5543
X14.3882Y-5.6543
X14.3882Y-5.7543
X14.3882Y-5.8543
X14.3882Y-5.9543
X14.3882Y-6.0543
X14.3882Y-6.1543
X14.3882Y-6.2543
X14.3882Y-6.3543
X14.3882Y-6.4543
X14.3882Y-6.5543
X14.3882Y-6.6543
X14.3882Y-6.7543
X14.3882Y-6.8543
X14.3882Y-6.9543
X14.4882Y-5.3543
X14.4882Y-5.4543
X14.4882Y-5.5543
X14.4882Y-5.6543
X14.4882Y-5.7543
X14.4882Y-5.8543
X14.4882Y-5.9543
X14.4882Y-6.0543
X14.4882Y-6.1543
X14.4882Y-6.2543
X14.4882Y-6.3543
X14.4882Y-6.4543
X14.4882Y-6.5543
X14.4882Y-6.6543
X14.4882Y-6.7543
X14.4882Y-6.8543
X14.4882Y-6.9543
T4
X2.8799Y-3.6433
X2.9744Y-4.8992
X3.1299Y-3.5433
X3.1669Y-5.648
X3.2244Y-4.7992
X3.2555Y-6.3961
X3.4169Y-5.548
X3.4508Y-7.1472
X3.5055Y-6.2961
X3.628Y-3.6433
X3.7008Y-7.0472
X3.7264Y-4.8992
X3.878Y-3.5433
X3.9764Y-4.7992
X4.1024Y-5.6492
X4.2874Y-6.3992
X4.3524Y-5.5492
X4.376Y-3.6433
X4.476Y-4.9
X4.5374Y-6.2992
X4.626Y-3.5433
X4.6634Y-7.1492
X4.726Y-4.8
X4.8504Y-5.6492
X4.9134Y-7.0492
X5.0394Y-6.3992
X5.1004Y-5.5492
X5.124Y-3.6433
X5.2264Y-4.9
X5.2894Y-6.2992
X5.3209Y-7.8992
X5.374Y-3.5433
X5.4134Y-7.1492
X5.4764Y-4.8
X5.5709Y-7.7992
X5.6004Y-5.6492
X5.6634Y-7.0492
X5.789Y-6.4
X5.8504Y-5.5492
X5.9764Y-4.8992
X6.039Y-6.3
X6.1634Y-7.1492
X6.2264Y-4.7992
X6.3504Y-5.6492
X6.4134Y-7.0492
X6.5394Y-6.3992
X6.6004Y-5.5492
X6.7264Y-4.8992
X6.7894Y-6.2992
X6.9134Y-7.1492
X6.9764Y-4.7992
X7.1004Y-5.6492
X7.1634Y-7.0492
X7.2894Y-6.3992
X7.3504Y-5.5492
X7.4764Y-4.8992
X7.5394Y-6.2992
X7.6634Y-7.1492
X7.7264Y-4.7992
X7.8504Y-5.6492
X7.9134Y-7.0492
X8.0394Y-6.3992
X8.1004Y-5.5492
X8.1319Y-7.8992
X8.2264Y-4.8992
X8.2894Y-6.2992
X8.3819Y-7.7992
X8.4134Y-7.1512
X8.4764Y-4.7992
X8.6004Y-5.6492
X8.6634Y-7.0512
X8.7894Y-6.3992
X8.8504Y-5.5492
X8.9764Y-4.8992
X9.0394Y-6.2992
X9.1102Y-3.6402
X9.1634Y-7.1492
X9.2264Y-4.7992
X9.3512Y-5.65
X9.3602Y-3.5402
X9.4134Y-7.0492
X9.5382Y-6.4
X9.6012Y-5.55
X9.7264Y-4.8992
X9.7882Y-6.3
X9.9134Y-7.1492
X9.9764Y-4.7992
X10.1004Y-5.6492
X10.1634Y-7.0492
X10.2358Y-3.639
X10.2894Y-6.3992
X10.3504Y-5.5492
X10.4764Y-4.8992
X10.4858Y-3.539
X10.5394Y-6.2992
X10.6634Y-7.1492
X10.7264Y-4.7992
X10.8504Y-5.6492
X10.9134Y-7.0492
X11.038Y-7.901
X11.0394Y-6.3992
X11.1004Y-5.5492
X11.2264Y-4.8992
X11.288Y-7.801
X11.2894Y-6.2992
X11.3598Y-3.6402
X11.4134Y-7.1492
X11.4764Y-4.7992
X11.6004Y-5.6492
X11.6098Y-3.5402
X11.6634Y-7.0492
X11.7874Y-6.4012
X11.8504Y-5.5492
X11.9764Y-4.8992
X12.0374Y-6.3012
X12.2264Y-4.7992
X12.3504Y-5.6492
X12.4469Y-7.1472
X12.4878Y-3.639
X12.5394Y-6.3992
X12.6004Y-5.5492
X12.6969Y-7.0472
X12.7264Y-4.8992
X12.7378Y-3.539
X12.7894Y-6.2992
X12.9764Y-4.7992
X13.2933Y-5.6512
X13.3819Y-6.3992
X13.4744Y-7.1472
X13.4764Y-4.8992
X13.5433Y-5.5512
X13.6118Y-3.639
X13.6319Y-6.2992
X13.7244Y-7.0472
X13.7264Y-4.7992
X13.8618Y-3.539
T0
M30
