%FSLAX45Y45*%
G04 Gerber Fmt 4.5, Leading zero omitted, Abs format (unit mm)*
G04 Created by KiCad (PCBNEW 5.0.2+dfsg1-1) date Tue 29 Dec 2020 05:37:10 PM CET*
%MOMM*%
%LPD*%
G01*
G04 APERTURE LIST*
%ADD10C,0.200000*%
%ADD11C,0.300000*%
G04 APERTURE END LIST*
D10*
X4700000Y-21600000D02*
X4700000Y-8500000D01*
X5900000Y-21600000D02*
X4700000Y-21600000D01*
X5900000Y-21400000D02*
X5900000Y-21600000D01*
X7700000Y-21400000D02*
X5900000Y-21400000D01*
X7700000Y-21000000D02*
X7700000Y-21400000D01*
X9700000Y-21000000D02*
X7700000Y-21000000D01*
X9700000Y-21400000D02*
X9700000Y-21000000D01*
X32700000Y-21400000D02*
X9700000Y-21400000D01*
X32700000Y-21000000D02*
X32700000Y-21400000D01*
X34700000Y-21000000D02*
X32700000Y-21000000D01*
X34700000Y-21400000D02*
X34700000Y-21000000D01*
X37700000Y-21400000D02*
X34700000Y-21400000D01*
X37700000Y-8500000D02*
X37700000Y-21400000D01*
X4700000Y-8500000D02*
X37700000Y-8500000D01*
D10*
X23540000Y-14520000D02*
X23710000Y-14690000D01*
X23710000Y-14520000D02*
X23540000Y-14690000D01*
X24556000Y-14520000D02*
X24726000Y-14690000D01*
X24726000Y-14520000D02*
X24556000Y-14690000D01*
X21633000Y-14518000D02*
X21803000Y-14688000D01*
X21803000Y-14518000D02*
X21633000Y-14688000D01*
X22649000Y-14518000D02*
X22819000Y-14688000D01*
X22819000Y-14518000D02*
X22649000Y-14688000D01*
X15443000Y-18328000D02*
X15613000Y-18498000D01*
X15613000Y-18328000D02*
X15443000Y-18498000D01*
X16459000Y-18328000D02*
X16629000Y-18498000D01*
X16629000Y-18328000D02*
X16459000Y-18498000D01*
X7343000Y-12613000D02*
X7513000Y-12783000D01*
X7513000Y-12613000D02*
X7343000Y-12783000D01*
X8359000Y-12613000D02*
X8529000Y-12783000D01*
X8529000Y-12613000D02*
X8359000Y-12783000D01*
X10208000Y-14518000D02*
X10378000Y-14688000D01*
X10378000Y-14518000D02*
X10208000Y-14688000D01*
X11224000Y-14518000D02*
X11394000Y-14688000D01*
X11394000Y-14518000D02*
X11224000Y-14688000D01*
X7832000Y-14515000D02*
X8002000Y-14685000D01*
X8002000Y-14515000D02*
X7832000Y-14685000D01*
X8848000Y-14515000D02*
X9018000Y-14685000D01*
X9018000Y-14515000D02*
X8848000Y-14685000D01*
X9253000Y-12613000D02*
X9423000Y-12783000D01*
X9423000Y-12613000D02*
X9253000Y-12783000D01*
X10269000Y-12613000D02*
X10439000Y-12783000D01*
X10439000Y-12613000D02*
X10269000Y-12783000D01*
X13063000Y-12615000D02*
X13233000Y-12785000D01*
X13233000Y-12615000D02*
X13063000Y-12785000D01*
X14079000Y-12615000D02*
X14249000Y-12785000D01*
X14249000Y-12615000D02*
X14079000Y-12785000D01*
X20683000Y-12613000D02*
X20853000Y-12783000D01*
X20853000Y-12613000D02*
X20683000Y-12783000D01*
X21699000Y-12613000D02*
X21869000Y-12783000D01*
X21869000Y-12613000D02*
X21699000Y-12783000D01*
X34013000Y-18323000D02*
X34183000Y-18493000D01*
X34183000Y-18323000D02*
X34013000Y-18493000D01*
X35029000Y-18323000D02*
X35199000Y-18493000D01*
X35199000Y-18323000D02*
X35029000Y-18493000D01*
X25923000Y-16423000D02*
X26093000Y-16593000D01*
X26093000Y-16423000D02*
X25923000Y-16593000D01*
X26939000Y-16423000D02*
X27109000Y-16593000D01*
X27109000Y-16423000D02*
X26939000Y-16593000D01*
X8553000Y-18323000D02*
X8723000Y-18493000D01*
X8723000Y-18323000D02*
X8553000Y-18493000D01*
X9569000Y-18323000D02*
X9739000Y-18493000D01*
X9739000Y-18323000D02*
X9569000Y-18493000D01*
X29728000Y-16428000D02*
X29898000Y-16598000D01*
X29898000Y-16428000D02*
X29728000Y-16598000D01*
X30744000Y-16428000D02*
X30914000Y-16598000D01*
X30914000Y-16428000D02*
X30744000Y-16598000D01*
X11633000Y-18328000D02*
X11803000Y-18498000D01*
X11803000Y-18328000D02*
X11633000Y-18498000D01*
X12649000Y-18328000D02*
X12819000Y-18498000D01*
X12819000Y-18328000D02*
X12649000Y-18498000D01*
X27828000Y-16423000D02*
X27998000Y-16593000D01*
X27998000Y-16423000D02*
X27828000Y-16593000D01*
X28844000Y-16423000D02*
X29014000Y-16593000D01*
X29014000Y-16423000D02*
X28844000Y-16593000D01*
X12803000Y-9423000D02*
X12973000Y-9593000D01*
X12973000Y-9423000D02*
X12803000Y-9593000D01*
X13819000Y-9423000D02*
X13989000Y-9593000D01*
X13989000Y-9423000D02*
X13819000Y-9593000D01*
X20443000Y-20233000D02*
X20613000Y-20403000D01*
X20613000Y-20233000D02*
X20443000Y-20403000D01*
X21459000Y-20233000D02*
X21629000Y-20403000D01*
X21629000Y-20233000D02*
X21459000Y-20403000D01*
X13538000Y-18328000D02*
X13708000Y-18498000D01*
X13708000Y-18328000D02*
X13538000Y-18498000D01*
X14554000Y-18328000D02*
X14724000Y-18498000D01*
X14724000Y-18328000D02*
X14554000Y-18498000D01*
X33778000Y-16423000D02*
X33948000Y-16593000D01*
X33948000Y-16423000D02*
X33778000Y-16593000D01*
X34794000Y-16423000D02*
X34964000Y-16593000D01*
X34964000Y-16423000D02*
X34794000Y-16593000D01*
X9003000Y-9423000D02*
X9173000Y-9593000D01*
X9173000Y-9423000D02*
X9003000Y-9593000D01*
X10019000Y-9423000D02*
X10189000Y-9593000D01*
X10189000Y-9423000D02*
X10019000Y-9593000D01*
X12108000Y-14518000D02*
X12278000Y-14688000D01*
X12278000Y-14518000D02*
X12108000Y-14688000D01*
X13124000Y-14518000D02*
X13294000Y-14688000D01*
X13294000Y-14518000D02*
X13124000Y-14688000D01*
X19728000Y-14518000D02*
X19898000Y-14688000D01*
X19898000Y-14518000D02*
X19728000Y-14688000D01*
X20744000Y-14518000D02*
X20914000Y-14688000D01*
X20914000Y-14518000D02*
X20744000Y-14688000D01*
X31453000Y-9423000D02*
X31623000Y-9593000D01*
X31623000Y-9423000D02*
X31453000Y-9593000D01*
X32469000Y-9423000D02*
X32639000Y-9593000D01*
X32639000Y-9423000D02*
X32469000Y-9593000D01*
X16873000Y-12613000D02*
X17043000Y-12783000D01*
X17043000Y-12613000D02*
X16873000Y-12783000D01*
X17889000Y-12613000D02*
X18059000Y-12783000D01*
X18059000Y-12613000D02*
X17889000Y-12783000D01*
X20208000Y-16423000D02*
X20378000Y-16593000D01*
X20378000Y-16423000D02*
X20208000Y-16593000D01*
X21224000Y-16423000D02*
X21394000Y-16593000D01*
X21394000Y-16423000D02*
X21224000Y-16593000D01*
X33553000Y-14523000D02*
X33723000Y-14693000D01*
X33723000Y-14523000D02*
X33553000Y-14693000D01*
X34569000Y-14523000D02*
X34739000Y-14693000D01*
X34739000Y-14523000D02*
X34569000Y-14693000D01*
X30208000Y-12613000D02*
X30378000Y-12783000D01*
X30378000Y-12613000D02*
X30208000Y-12783000D01*
X31224000Y-12613000D02*
X31394000Y-12783000D01*
X31394000Y-12613000D02*
X31224000Y-12783000D01*
X14013000Y-14518000D02*
X14183000Y-14688000D01*
X14183000Y-14518000D02*
X14013000Y-14688000D01*
X15029000Y-14518000D02*
X15199000Y-14688000D01*
X15199000Y-14518000D02*
X15029000Y-14688000D01*
X21158000Y-18333000D02*
X21328000Y-18503000D01*
X21328000Y-18333000D02*
X21158000Y-18503000D01*
X22174000Y-18333000D02*
X22344000Y-18503000D01*
X22344000Y-18333000D02*
X22174000Y-18503000D01*
X34018000Y-12613000D02*
X34188000Y-12783000D01*
X34188000Y-12613000D02*
X34018000Y-12783000D01*
X35034000Y-12613000D02*
X35204000Y-12783000D01*
X35204000Y-12613000D02*
X35034000Y-12783000D01*
X25443000Y-14518000D02*
X25613000Y-14688000D01*
X25613000Y-14518000D02*
X25443000Y-14688000D01*
X26459000Y-14518000D02*
X26629000Y-14688000D01*
X26629000Y-14518000D02*
X26459000Y-14688000D01*
X28303000Y-12613000D02*
X28473000Y-12783000D01*
X28473000Y-12613000D02*
X28303000Y-12783000D01*
X29319000Y-12613000D02*
X29489000Y-12783000D01*
X29489000Y-12613000D02*
X29319000Y-12783000D01*
X22753000Y-9423000D02*
X22923000Y-9593000D01*
X22923000Y-9423000D02*
X22753000Y-9593000D01*
X23769000Y-9423000D02*
X23939000Y-9593000D01*
X23939000Y-9423000D02*
X23769000Y-9593000D01*
X22113000Y-16423000D02*
X22283000Y-16593000D01*
X22283000Y-16423000D02*
X22113000Y-16593000D01*
X23129000Y-16423000D02*
X23299000Y-16593000D01*
X23299000Y-16423000D02*
X23129000Y-16593000D01*
X19253000Y-18328000D02*
X19423000Y-18498000D01*
X19423000Y-18328000D02*
X19253000Y-18498000D01*
X20269000Y-18328000D02*
X20439000Y-18498000D01*
X20439000Y-18328000D02*
X20269000Y-18498000D01*
X14492000Y-16425000D02*
X14662000Y-16595000D01*
X14662000Y-16425000D02*
X14492000Y-16595000D01*
X15508000Y-16425000D02*
X15678000Y-16595000D01*
X15678000Y-16425000D02*
X15508000Y-16595000D01*
X34353000Y-9423000D02*
X34523000Y-9593000D01*
X34523000Y-9423000D02*
X34353000Y-9593000D01*
X35369000Y-9423000D02*
X35539000Y-9593000D01*
X35539000Y-9423000D02*
X35369000Y-9593000D01*
X28778000Y-18328000D02*
X28948000Y-18498000D01*
X28948000Y-18328000D02*
X28778000Y-18498000D01*
X29794000Y-18328000D02*
X29964000Y-18498000D01*
X29964000Y-18328000D02*
X29794000Y-18498000D01*
X24968000Y-18328000D02*
X25138000Y-18498000D01*
X25138000Y-18328000D02*
X24968000Y-18498000D01*
X25984000Y-18328000D02*
X26154000Y-18498000D01*
X26154000Y-18328000D02*
X25984000Y-18498000D01*
X23063000Y-18328000D02*
X23233000Y-18498000D01*
X23233000Y-18328000D02*
X23063000Y-18498000D01*
X24079000Y-18328000D02*
X24249000Y-18498000D01*
X24249000Y-18328000D02*
X24079000Y-18498000D01*
X25653000Y-9423000D02*
X25823000Y-9593000D01*
X25823000Y-9423000D02*
X25653000Y-9593000D01*
X26669000Y-9423000D02*
X26839000Y-9593000D01*
X26839000Y-9423000D02*
X26669000Y-9593000D01*
X12588000Y-16423000D02*
X12758000Y-16593000D01*
X12758000Y-16423000D02*
X12588000Y-16593000D01*
X13604000Y-16423000D02*
X13774000Y-16593000D01*
X13774000Y-16423000D02*
X13604000Y-16593000D01*
X18303000Y-16423000D02*
X18473000Y-16593000D01*
X18473000Y-16423000D02*
X18303000Y-16593000D01*
X19319000Y-16423000D02*
X19489000Y-16593000D01*
X19489000Y-16423000D02*
X19319000Y-16593000D01*
X31403000Y-18323000D02*
X31573000Y-18493000D01*
X31573000Y-18323000D02*
X31403000Y-18493000D01*
X32419000Y-18323000D02*
X32589000Y-18493000D01*
X32589000Y-18323000D02*
X32419000Y-18493000D01*
X16398000Y-16423000D02*
X16568000Y-16593000D01*
X16568000Y-16423000D02*
X16398000Y-16593000D01*
X17414000Y-16423000D02*
X17584000Y-16593000D01*
X17584000Y-16423000D02*
X17414000Y-16593000D01*
X11157000Y-12615000D02*
X11327000Y-12785000D01*
X11327000Y-12615000D02*
X11157000Y-12785000D01*
X12173000Y-12615000D02*
X12343000Y-12785000D01*
X12343000Y-12615000D02*
X12173000Y-12785000D01*
X17348000Y-18328000D02*
X17518000Y-18498000D01*
X17518000Y-18328000D02*
X17348000Y-18498000D01*
X18364000Y-18328000D02*
X18534000Y-18498000D01*
X18534000Y-18328000D02*
X18364000Y-18498000D01*
X10678000Y-16423000D02*
X10848000Y-16593000D01*
X10848000Y-16423000D02*
X10678000Y-16593000D01*
X11694000Y-16423000D02*
X11864000Y-16593000D01*
X11864000Y-16423000D02*
X11694000Y-16593000D01*
X26398000Y-12613000D02*
X26568000Y-12783000D01*
X26568000Y-12613000D02*
X26398000Y-12783000D01*
X27414000Y-12613000D02*
X27584000Y-12783000D01*
X27584000Y-12613000D02*
X27414000Y-12783000D01*
X22588000Y-12613000D02*
X22758000Y-12783000D01*
X22758000Y-12613000D02*
X22588000Y-12783000D01*
X23604000Y-12613000D02*
X23774000Y-12783000D01*
X23774000Y-12613000D02*
X23604000Y-12783000D01*
X24015000Y-16425000D02*
X24185000Y-16595000D01*
X24185000Y-16425000D02*
X24015000Y-16595000D01*
X25031000Y-16425000D02*
X25201000Y-16595000D01*
X25201000Y-16425000D02*
X25031000Y-16595000D01*
X31638000Y-16423000D02*
X31808000Y-16593000D01*
X31808000Y-16423000D02*
X31638000Y-16593000D01*
X32654000Y-16423000D02*
X32824000Y-16593000D01*
X32824000Y-16423000D02*
X32654000Y-16593000D01*
X31158000Y-14518000D02*
X31328000Y-14688000D01*
X31328000Y-14518000D02*
X31158000Y-14688000D01*
X32174000Y-14518000D02*
X32344000Y-14688000D01*
X32344000Y-14518000D02*
X32174000Y-14688000D01*
X27824500Y-20237500D02*
X27994500Y-20407500D01*
X27994500Y-20237500D02*
X27824500Y-20407500D01*
X28840500Y-20237500D02*
X29010500Y-20407500D01*
X29010500Y-20237500D02*
X28840500Y-20407500D01*
X26873000Y-18328000D02*
X27043000Y-18498000D01*
X27043000Y-18328000D02*
X26873000Y-18498000D01*
X27889000Y-18328000D02*
X28059000Y-18498000D01*
X28059000Y-18328000D02*
X27889000Y-18498000D01*
X15918000Y-14518000D02*
X16088000Y-14688000D01*
X16088000Y-14518000D02*
X15918000Y-14688000D01*
X16934000Y-14518000D02*
X17104000Y-14688000D01*
X17104000Y-14518000D02*
X16934000Y-14688000D01*
X13303000Y-20233000D02*
X13473000Y-20403000D01*
X13473000Y-20233000D02*
X13303000Y-20403000D01*
X14319000Y-20233000D02*
X14489000Y-20403000D01*
X14489000Y-20233000D02*
X14319000Y-20403000D01*
X28553000Y-9423000D02*
X28723000Y-9593000D01*
X28723000Y-9423000D02*
X28553000Y-9593000D01*
X29569000Y-9423000D02*
X29739000Y-9593000D01*
X29739000Y-9423000D02*
X29569000Y-9593000D01*
X27348000Y-14518000D02*
X27518000Y-14688000D01*
X27518000Y-14518000D02*
X27348000Y-14688000D01*
X28364000Y-14518000D02*
X28534000Y-14688000D01*
X28534000Y-14518000D02*
X28364000Y-14688000D01*
X14968000Y-12613000D02*
X15138000Y-12783000D01*
X15138000Y-12613000D02*
X14968000Y-12783000D01*
X15984000Y-12613000D02*
X16154000Y-12783000D01*
X16154000Y-12613000D02*
X15984000Y-12783000D01*
X18778000Y-12613000D02*
X18948000Y-12783000D01*
X18948000Y-12613000D02*
X18778000Y-12783000D01*
X19794000Y-12613000D02*
X19964000Y-12783000D01*
X19964000Y-12613000D02*
X19794000Y-12783000D01*
X8057000Y-16415000D02*
X8227000Y-16585000D01*
X8227000Y-16415000D02*
X8057000Y-16585000D01*
X9073000Y-16415000D02*
X9243000Y-16585000D01*
X9243000Y-16415000D02*
X9073000Y-16585000D01*
X10903000Y-9423000D02*
X11073000Y-9593000D01*
X11073000Y-9423000D02*
X10903000Y-9593000D01*
X11919000Y-9423000D02*
X12089000Y-9593000D01*
X12089000Y-9423000D02*
X11919000Y-9593000D01*
X29253000Y-14518000D02*
X29423000Y-14688000D01*
X29423000Y-14518000D02*
X29253000Y-14688000D01*
X30269000Y-14518000D02*
X30439000Y-14688000D01*
X30439000Y-14518000D02*
X30269000Y-14688000D01*
X17823000Y-14518000D02*
X17993000Y-14688000D01*
X17993000Y-14518000D02*
X17823000Y-14688000D01*
X18839000Y-14518000D02*
X19009000Y-14688000D01*
X19009000Y-14518000D02*
X18839000Y-14688000D01*
X7103000Y-9423000D02*
X7273000Y-9593000D01*
X7273000Y-9423000D02*
X7103000Y-9593000D01*
X8119000Y-9423000D02*
X8289000Y-9593000D01*
X8289000Y-9423000D02*
X8119000Y-9593000D01*
X24493000Y-12613000D02*
X24663000Y-12783000D01*
X24663000Y-12613000D02*
X24493000Y-12783000D01*
X25509000Y-12613000D02*
X25679000Y-12783000D01*
X25679000Y-12613000D02*
X25509000Y-12783000D01*
X32113000Y-12613000D02*
X32283000Y-12783000D01*
X32283000Y-12613000D02*
X32113000Y-12783000D01*
X33129000Y-12613000D02*
X33299000Y-12783000D01*
X33299000Y-12613000D02*
X33129000Y-12783000D01*
X8108500Y-17708000D02*
G75*
G03X8108500Y-17708000I-152500J0D01*
G01*
X10488500Y-17708000D02*
G75*
G03X10488500Y-17708000I-152500J0D01*
G01*
X16188500Y-19618000D02*
G75*
G03X16188500Y-19618000I-152500J0D01*
G01*
X26188500Y-19618000D02*
G75*
G03X26188500Y-19618000I-152500J0D01*
G01*
X5200000Y-20115000D02*
X5200000Y-20485000D01*
X5015000Y-20300000D02*
X5385000Y-20300000D01*
X5200000Y-8815000D02*
X5200000Y-9185000D01*
X5015000Y-9000000D02*
X5385000Y-9000000D01*
X37200000Y-8815000D02*
X37200000Y-9185000D01*
X37015000Y-9000000D02*
X37385000Y-9000000D01*
X37200000Y-20715000D02*
X37200000Y-21085000D01*
X37015000Y-20900000D02*
X37385000Y-20900000D01*
X16177423Y-21283423D02*
X16177423Y-21000577D01*
X15894577Y-21000577D01*
X15894577Y-21283423D01*
X16177423Y-21283423D01*
X21177423Y-20459423D02*
X21177423Y-20176577D01*
X20894577Y-20176577D01*
X20894577Y-20459423D01*
X21177423Y-20459423D01*
X26177423Y-21283423D02*
X26177423Y-21000577D01*
X25894577Y-21000577D01*
X25894577Y-21283423D01*
X26177423Y-21283423D01*
X14272423Y-18554423D02*
X14272423Y-18271577D01*
X13989577Y-18271577D01*
X13989577Y-18554423D01*
X14272423Y-18554423D01*
X34512423Y-16649423D02*
X34512423Y-16366577D01*
X34229577Y-16366577D01*
X34229577Y-16649423D01*
X34512423Y-16649423D01*
X9737423Y-9649423D02*
X9737423Y-9366577D01*
X9454577Y-9366577D01*
X9454577Y-9649423D01*
X9737423Y-9649423D01*
X12842423Y-14744423D02*
X12842423Y-14461577D01*
X12559577Y-14461577D01*
X12559577Y-14744423D01*
X12842423Y-14744423D01*
X20462423Y-14744423D02*
X20462423Y-14461577D01*
X20179577Y-14461577D01*
X20179577Y-14744423D01*
X20462423Y-14744423D01*
X32187423Y-9649423D02*
X32187423Y-9366577D01*
X31904577Y-9366577D01*
X31904577Y-9649423D01*
X32187423Y-9649423D01*
X17607423Y-12839423D02*
X17607423Y-12556577D01*
X17324577Y-12556577D01*
X17324577Y-12839423D01*
X17607423Y-12839423D01*
X20942423Y-16649423D02*
X20942423Y-16366577D01*
X20659577Y-16366577D01*
X20659577Y-16649423D01*
X20942423Y-16649423D01*
X34287423Y-14749423D02*
X34287423Y-14466577D01*
X34004577Y-14466577D01*
X34004577Y-14749423D01*
X34287423Y-14749423D01*
X30942423Y-12839423D02*
X30942423Y-12556577D01*
X30659577Y-12556577D01*
X30659577Y-12839423D01*
X30942423Y-12839423D01*
X14747423Y-14744423D02*
X14747423Y-14461577D01*
X14464577Y-14461577D01*
X14464577Y-14744423D01*
X14747423Y-14744423D01*
X21892423Y-18559423D02*
X21892423Y-18276577D01*
X21609577Y-18276577D01*
X21609577Y-18559423D01*
X21892423Y-18559423D01*
X34752423Y-12839423D02*
X34752423Y-12556577D01*
X34469577Y-12556577D01*
X34469577Y-12839423D01*
X34752423Y-12839423D01*
X26177423Y-14744423D02*
X26177423Y-14461577D01*
X25894577Y-14461577D01*
X25894577Y-14744423D01*
X26177423Y-14744423D01*
X29037423Y-12839423D02*
X29037423Y-12556577D01*
X28754577Y-12556577D01*
X28754577Y-12839423D01*
X29037423Y-12839423D01*
X23487423Y-9649423D02*
X23487423Y-9366577D01*
X23204577Y-9366577D01*
X23204577Y-9649423D01*
X23487423Y-9649423D01*
X22847423Y-16649423D02*
X22847423Y-16366577D01*
X22564577Y-16366577D01*
X22564577Y-16649423D01*
X22847423Y-16649423D01*
X19987423Y-18554423D02*
X19987423Y-18271577D01*
X19704577Y-18271577D01*
X19704577Y-18554423D01*
X19987423Y-18554423D01*
X15226423Y-16651423D02*
X15226423Y-16368577D01*
X14943577Y-16368577D01*
X14943577Y-16651423D01*
X15226423Y-16651423D01*
X35087423Y-9649423D02*
X35087423Y-9366577D01*
X34804577Y-9366577D01*
X34804577Y-9649423D01*
X35087423Y-9649423D01*
X29512423Y-18554423D02*
X29512423Y-18271577D01*
X29229577Y-18271577D01*
X29229577Y-18554423D01*
X29512423Y-18554423D01*
X25702423Y-18554423D02*
X25702423Y-18271577D01*
X25419577Y-18271577D01*
X25419577Y-18554423D01*
X25702423Y-18554423D01*
X23797423Y-18554423D02*
X23797423Y-18271577D01*
X23514577Y-18271577D01*
X23514577Y-18554423D01*
X23797423Y-18554423D01*
X26387423Y-9649423D02*
X26387423Y-9366577D01*
X26104577Y-9366577D01*
X26104577Y-9649423D01*
X26387423Y-9649423D01*
X13322423Y-16649423D02*
X13322423Y-16366577D01*
X13039577Y-16366577D01*
X13039577Y-16649423D01*
X13322423Y-16649423D01*
X19037423Y-16649423D02*
X19037423Y-16366577D01*
X18754577Y-16366577D01*
X18754577Y-16649423D01*
X19037423Y-16649423D01*
X32137423Y-18549423D02*
X32137423Y-18266577D01*
X31854577Y-18266577D01*
X31854577Y-18549423D01*
X32137423Y-18549423D01*
X17132423Y-16649423D02*
X17132423Y-16366577D01*
X16849577Y-16366577D01*
X16849577Y-16649423D01*
X17132423Y-16649423D01*
X11891423Y-12841423D02*
X11891423Y-12558577D01*
X11608577Y-12558577D01*
X11608577Y-12841423D01*
X11891423Y-12841423D01*
X18082423Y-18554423D02*
X18082423Y-18271577D01*
X17799577Y-18271577D01*
X17799577Y-18554423D01*
X18082423Y-18554423D01*
X11412423Y-16649423D02*
X11412423Y-16366577D01*
X11129577Y-16366577D01*
X11129577Y-16649423D01*
X11412423Y-16649423D01*
X27132423Y-12839423D02*
X27132423Y-12556577D01*
X26849577Y-12556577D01*
X26849577Y-12839423D01*
X27132423Y-12839423D01*
X23322423Y-12839423D02*
X23322423Y-12556577D01*
X23039577Y-12556577D01*
X23039577Y-12839423D01*
X23322423Y-12839423D01*
X24749423Y-16651423D02*
X24749423Y-16368577D01*
X24466577Y-16368577D01*
X24466577Y-16651423D01*
X24749423Y-16651423D01*
X32372423Y-16649423D02*
X32372423Y-16366577D01*
X32089577Y-16366577D01*
X32089577Y-16649423D01*
X32372423Y-16649423D01*
X31892423Y-14744423D02*
X31892423Y-14461577D01*
X31609577Y-14461577D01*
X31609577Y-14744423D01*
X31892423Y-14744423D01*
X28558923Y-20463923D02*
X28558923Y-20181077D01*
X28276077Y-20181077D01*
X28276077Y-20463923D01*
X28558923Y-20463923D01*
X27607423Y-18554423D02*
X27607423Y-18271577D01*
X27324577Y-18271577D01*
X27324577Y-18554423D01*
X27607423Y-18554423D01*
X16652423Y-14744423D02*
X16652423Y-14461577D01*
X16369577Y-14461577D01*
X16369577Y-14744423D01*
X16652423Y-14744423D01*
X14037423Y-20459423D02*
X14037423Y-20176577D01*
X13754577Y-20176577D01*
X13754577Y-20459423D01*
X14037423Y-20459423D01*
X29287423Y-9649423D02*
X29287423Y-9366577D01*
X29004577Y-9366577D01*
X29004577Y-9649423D01*
X29287423Y-9649423D01*
X28082423Y-14744423D02*
X28082423Y-14461577D01*
X27799577Y-14461577D01*
X27799577Y-14744423D01*
X28082423Y-14744423D01*
X15702423Y-12839423D02*
X15702423Y-12556577D01*
X15419577Y-12556577D01*
X15419577Y-12839423D01*
X15702423Y-12839423D01*
X19512423Y-12839423D02*
X19512423Y-12556577D01*
X19229577Y-12556577D01*
X19229577Y-12839423D01*
X19512423Y-12839423D01*
X8791423Y-16641423D02*
X8791423Y-16358577D01*
X8508577Y-16358577D01*
X8508577Y-16641423D01*
X8791423Y-16641423D01*
X11637423Y-9649423D02*
X11637423Y-9366577D01*
X11354577Y-9366577D01*
X11354577Y-9649423D01*
X11637423Y-9649423D01*
X29987423Y-14744423D02*
X29987423Y-14461577D01*
X29704577Y-14461577D01*
X29704577Y-14744423D01*
X29987423Y-14744423D01*
X18557423Y-14744423D02*
X18557423Y-14461577D01*
X18274577Y-14461577D01*
X18274577Y-14744423D01*
X18557423Y-14744423D01*
X7837423Y-9649423D02*
X7837423Y-9366577D01*
X7554577Y-9366577D01*
X7554577Y-9649423D01*
X7837423Y-9649423D01*
X25227423Y-12839423D02*
X25227423Y-12556577D01*
X24944577Y-12556577D01*
X24944577Y-12839423D01*
X25227423Y-12839423D01*
X32847423Y-12839423D02*
X32847423Y-12556577D01*
X32564577Y-12556577D01*
X32564577Y-12839423D01*
X32847423Y-12839423D01*
X24274423Y-14746423D02*
X24274423Y-14463577D01*
X23991577Y-14463577D01*
X23991577Y-14746423D01*
X24274423Y-14746423D01*
X22367423Y-14744423D02*
X22367423Y-14461577D01*
X22084577Y-14461577D01*
X22084577Y-14744423D01*
X22367423Y-14744423D01*
X16177423Y-18554423D02*
X16177423Y-18271577D01*
X15894577Y-18271577D01*
X15894577Y-18554423D01*
X16177423Y-18554423D01*
X8077423Y-12839423D02*
X8077423Y-12556577D01*
X7794577Y-12556577D01*
X7794577Y-12839423D01*
X8077423Y-12839423D01*
X10942423Y-14744423D02*
X10942423Y-14461577D01*
X10659577Y-14461577D01*
X10659577Y-14744423D01*
X10942423Y-14744423D01*
X8566423Y-14741423D02*
X8566423Y-14458577D01*
X8283577Y-14458577D01*
X8283577Y-14741423D01*
X8566423Y-14741423D01*
X9987423Y-12839423D02*
X9987423Y-12556577D01*
X9704577Y-12556577D01*
X9704577Y-12839423D01*
X9987423Y-12839423D01*
X13797423Y-12841423D02*
X13797423Y-12558577D01*
X13514577Y-12558577D01*
X13514577Y-12841423D01*
X13797423Y-12841423D01*
X21417423Y-12839423D02*
X21417423Y-12556577D01*
X21134577Y-12556577D01*
X21134577Y-12839423D01*
X21417423Y-12839423D01*
X34747423Y-18549423D02*
X34747423Y-18266577D01*
X34464577Y-18266577D01*
X34464577Y-18549423D01*
X34747423Y-18549423D01*
X26657423Y-16649423D02*
X26657423Y-16366577D01*
X26374577Y-16366577D01*
X26374577Y-16649423D01*
X26657423Y-16649423D01*
X8097423Y-19373423D02*
X8097423Y-19090577D01*
X7814577Y-19090577D01*
X7814577Y-19373423D01*
X8097423Y-19373423D01*
X9287423Y-18549423D02*
X9287423Y-18266577D01*
X9004577Y-18266577D01*
X9004577Y-18549423D01*
X9287423Y-18549423D01*
X10477423Y-19373423D02*
X10477423Y-19090577D01*
X10194577Y-19090577D01*
X10194577Y-19373423D01*
X10477423Y-19373423D01*
X30462423Y-16654423D02*
X30462423Y-16371577D01*
X30179577Y-16371577D01*
X30179577Y-16654423D01*
X30462423Y-16654423D01*
X12367423Y-18554423D02*
X12367423Y-18271577D01*
X12084577Y-18271577D01*
X12084577Y-18554423D01*
X12367423Y-18554423D01*
X28562423Y-16649423D02*
X28562423Y-16366577D01*
X28279577Y-16366577D01*
X28279577Y-16649423D01*
X28562423Y-16649423D01*
X13537423Y-9649423D02*
X13537423Y-9366577D01*
X13254577Y-9366577D01*
X13254577Y-9649423D01*
X13537423Y-9649423D01*
D11*
X4976428Y-22075714D02*
X4976428Y-21775714D01*
X5047857Y-21775714D01*
X5090714Y-21790000D01*
X5119286Y-21818572D01*
X5133571Y-21847143D01*
X5147857Y-21904286D01*
X5147857Y-21947143D01*
X5133571Y-22004286D01*
X5119286Y-22032857D01*
X5090714Y-22061429D01*
X5047857Y-22075714D01*
X4976428Y-22075714D01*
X5276428Y-22075714D02*
X5276428Y-21875714D01*
X5276428Y-21932857D02*
X5290714Y-21904286D01*
X5305000Y-21890000D01*
X5333571Y-21875714D01*
X5362143Y-21875714D01*
X5462143Y-22075714D02*
X5462143Y-21875714D01*
X5462143Y-21775714D02*
X5447857Y-21790000D01*
X5462143Y-21804286D01*
X5476428Y-21790000D01*
X5462143Y-21775714D01*
X5462143Y-21804286D01*
X5647857Y-22075714D02*
X5619286Y-22061429D01*
X5605000Y-22032857D01*
X5605000Y-21775714D01*
X5805000Y-22075714D02*
X5776428Y-22061429D01*
X5762143Y-22032857D01*
X5762143Y-21775714D01*
X6147857Y-22075714D02*
X6147857Y-21775714D01*
X6247857Y-21990000D01*
X6347857Y-21775714D01*
X6347857Y-22075714D01*
X6619286Y-22075714D02*
X6619286Y-21918572D01*
X6605000Y-21890000D01*
X6576428Y-21875714D01*
X6519286Y-21875714D01*
X6490714Y-21890000D01*
X6619286Y-22061429D02*
X6590714Y-22075714D01*
X6519286Y-22075714D01*
X6490714Y-22061429D01*
X6476428Y-22032857D01*
X6476428Y-22004286D01*
X6490714Y-21975714D01*
X6519286Y-21961429D01*
X6590714Y-21961429D01*
X6619286Y-21947143D01*
X6762143Y-21875714D02*
X6762143Y-22175714D01*
X6762143Y-21890000D02*
X6790714Y-21875714D01*
X6847857Y-21875714D01*
X6876428Y-21890000D01*
X6890714Y-21904286D01*
X6905000Y-21932857D01*
X6905000Y-22018572D01*
X6890714Y-22047143D01*
X6876428Y-22061429D01*
X6847857Y-22075714D01*
X6790714Y-22075714D01*
X6762143Y-22061429D01*
X7033571Y-22047143D02*
X7047857Y-22061429D01*
X7033571Y-22075714D01*
X7019286Y-22061429D01*
X7033571Y-22047143D01*
X7033571Y-22075714D01*
X7033571Y-21890000D02*
X7047857Y-21904286D01*
X7033571Y-21918572D01*
X7019286Y-21904286D01*
X7033571Y-21890000D01*
X7033571Y-21918572D01*
X4520000Y-22485000D02*
X4690000Y-22655000D01*
X4690000Y-22485000D02*
X4520000Y-22655000D01*
X5133571Y-22705714D02*
X4962143Y-22705714D01*
X5047857Y-22705714D02*
X5047857Y-22405714D01*
X5019286Y-22448571D01*
X4990714Y-22477143D01*
X4962143Y-22491429D01*
X5262143Y-22677143D02*
X5276428Y-22691429D01*
X5262143Y-22705714D01*
X5247857Y-22691429D01*
X5262143Y-22677143D01*
X5262143Y-22705714D01*
X5376428Y-22405714D02*
X5576428Y-22405714D01*
X5447857Y-22705714D01*
X5747857Y-22405714D02*
X5776428Y-22405714D01*
X5805000Y-22420000D01*
X5819286Y-22434286D01*
X5833571Y-22462857D01*
X5847857Y-22520000D01*
X5847857Y-22591429D01*
X5833571Y-22648571D01*
X5819286Y-22677143D01*
X5805000Y-22691429D01*
X5776428Y-22705714D01*
X5747857Y-22705714D01*
X5719286Y-22691429D01*
X5705000Y-22677143D01*
X5690714Y-22648571D01*
X5676428Y-22591429D01*
X5676428Y-22520000D01*
X5690714Y-22462857D01*
X5705000Y-22434286D01*
X5719286Y-22420000D01*
X5747857Y-22405714D01*
X5976428Y-22705714D02*
X5976428Y-22505714D01*
X5976428Y-22534286D02*
X5990714Y-22520000D01*
X6019286Y-22505714D01*
X6062143Y-22505714D01*
X6090714Y-22520000D01*
X6105000Y-22548571D01*
X6105000Y-22705714D01*
X6105000Y-22548571D02*
X6119286Y-22520000D01*
X6147857Y-22505714D01*
X6190714Y-22505714D01*
X6219286Y-22520000D01*
X6233571Y-22548571D01*
X6233571Y-22705714D01*
X6376428Y-22705714D02*
X6376428Y-22505714D01*
X6376428Y-22534286D02*
X6390714Y-22520000D01*
X6419286Y-22505714D01*
X6462143Y-22505714D01*
X6490714Y-22520000D01*
X6505000Y-22548571D01*
X6505000Y-22705714D01*
X6505000Y-22548571D02*
X6519286Y-22520000D01*
X6547857Y-22505714D01*
X6590714Y-22505714D01*
X6619286Y-22520000D01*
X6633571Y-22548571D01*
X6633571Y-22705714D01*
X7219286Y-22391429D02*
X6962143Y-22777143D01*
X7605000Y-22405714D02*
X7633571Y-22405714D01*
X7662143Y-22420000D01*
X7676428Y-22434286D01*
X7690714Y-22462857D01*
X7705000Y-22520000D01*
X7705000Y-22591429D01*
X7690714Y-22648571D01*
X7676428Y-22677143D01*
X7662143Y-22691429D01*
X7633571Y-22705714D01*
X7605000Y-22705714D01*
X7576428Y-22691429D01*
X7562143Y-22677143D01*
X7547857Y-22648571D01*
X7533571Y-22591429D01*
X7533571Y-22520000D01*
X7547857Y-22462857D01*
X7562143Y-22434286D01*
X7576428Y-22420000D01*
X7605000Y-22405714D01*
X7833571Y-22677143D02*
X7847857Y-22691429D01*
X7833571Y-22705714D01*
X7819286Y-22691429D01*
X7833571Y-22677143D01*
X7833571Y-22705714D01*
X8033571Y-22405714D02*
X8062143Y-22405714D01*
X8090714Y-22420000D01*
X8105000Y-22434286D01*
X8119286Y-22462857D01*
X8133571Y-22520000D01*
X8133571Y-22591429D01*
X8119286Y-22648571D01*
X8105000Y-22677143D01*
X8090714Y-22691429D01*
X8062143Y-22705714D01*
X8033571Y-22705714D01*
X8005000Y-22691429D01*
X7990714Y-22677143D01*
X7976428Y-22648571D01*
X7962143Y-22591429D01*
X7962143Y-22520000D01*
X7976428Y-22462857D01*
X7990714Y-22434286D01*
X8005000Y-22420000D01*
X8033571Y-22405714D01*
X8390714Y-22405714D02*
X8333571Y-22405714D01*
X8305000Y-22420000D01*
X8290714Y-22434286D01*
X8262143Y-22477143D01*
X8247857Y-22534286D01*
X8247857Y-22648571D01*
X8262143Y-22677143D01*
X8276428Y-22691429D01*
X8305000Y-22705714D01*
X8362143Y-22705714D01*
X8390714Y-22691429D01*
X8405000Y-22677143D01*
X8419286Y-22648571D01*
X8419286Y-22577143D01*
X8405000Y-22548571D01*
X8390714Y-22534286D01*
X8362143Y-22520000D01*
X8305000Y-22520000D01*
X8276428Y-22534286D01*
X8262143Y-22548571D01*
X8247857Y-22577143D01*
X8519286Y-22405714D02*
X8719286Y-22405714D01*
X8590714Y-22705714D01*
X8819286Y-22405714D02*
X8819286Y-22462857D01*
X8933571Y-22405714D02*
X8933571Y-22462857D01*
X9376428Y-22820000D02*
X9362143Y-22805714D01*
X9333571Y-22762857D01*
X9319286Y-22734286D01*
X9305000Y-22691429D01*
X9290714Y-22620000D01*
X9290714Y-22562857D01*
X9305000Y-22491429D01*
X9319286Y-22448571D01*
X9333571Y-22420000D01*
X9362143Y-22377143D01*
X9376428Y-22362857D01*
X9647857Y-22705714D02*
X9476428Y-22705714D01*
X9562143Y-22705714D02*
X9562143Y-22405714D01*
X9533571Y-22448571D01*
X9505000Y-22477143D01*
X9476428Y-22491429D01*
X9747857Y-22405714D02*
X9933571Y-22405714D01*
X9833571Y-22520000D01*
X9876428Y-22520000D01*
X9905000Y-22534286D01*
X9919286Y-22548571D01*
X9933571Y-22577143D01*
X9933571Y-22648571D01*
X9919286Y-22677143D01*
X9905000Y-22691429D01*
X9876428Y-22705714D01*
X9790714Y-22705714D01*
X9762143Y-22691429D01*
X9747857Y-22677143D01*
X10190714Y-22405714D02*
X10133571Y-22405714D01*
X10105000Y-22420000D01*
X10090714Y-22434286D01*
X10062143Y-22477143D01*
X10047857Y-22534286D01*
X10047857Y-22648571D01*
X10062143Y-22677143D01*
X10076428Y-22691429D01*
X10105000Y-22705714D01*
X10162143Y-22705714D01*
X10190714Y-22691429D01*
X10205000Y-22677143D01*
X10219286Y-22648571D01*
X10219286Y-22577143D01*
X10205000Y-22548571D01*
X10190714Y-22534286D01*
X10162143Y-22520000D01*
X10105000Y-22520000D01*
X10076428Y-22534286D01*
X10062143Y-22548571D01*
X10047857Y-22577143D01*
X10576428Y-22705714D02*
X10576428Y-22405714D01*
X10705000Y-22705714D02*
X10705000Y-22548571D01*
X10690714Y-22520000D01*
X10662143Y-22505714D01*
X10619286Y-22505714D01*
X10590714Y-22520000D01*
X10576428Y-22534286D01*
X10890714Y-22705714D02*
X10862143Y-22691429D01*
X10847857Y-22677143D01*
X10833571Y-22648571D01*
X10833571Y-22562857D01*
X10847857Y-22534286D01*
X10862143Y-22520000D01*
X10890714Y-22505714D01*
X10933571Y-22505714D01*
X10962143Y-22520000D01*
X10976428Y-22534286D01*
X10990714Y-22562857D01*
X10990714Y-22648571D01*
X10976428Y-22677143D01*
X10962143Y-22691429D01*
X10933571Y-22705714D01*
X10890714Y-22705714D01*
X11162143Y-22705714D02*
X11133571Y-22691429D01*
X11119286Y-22662857D01*
X11119286Y-22405714D01*
X11390714Y-22691429D02*
X11362143Y-22705714D01*
X11305000Y-22705714D01*
X11276428Y-22691429D01*
X11262143Y-22662857D01*
X11262143Y-22548571D01*
X11276428Y-22520000D01*
X11305000Y-22505714D01*
X11362143Y-22505714D01*
X11390714Y-22520000D01*
X11405000Y-22548571D01*
X11405000Y-22577143D01*
X11262143Y-22605714D01*
X11519286Y-22691429D02*
X11547857Y-22705714D01*
X11605000Y-22705714D01*
X11633571Y-22691429D01*
X11647857Y-22662857D01*
X11647857Y-22648571D01*
X11633571Y-22620000D01*
X11605000Y-22605714D01*
X11562143Y-22605714D01*
X11533571Y-22591429D01*
X11519286Y-22562857D01*
X11519286Y-22548571D01*
X11533571Y-22520000D01*
X11562143Y-22505714D01*
X11605000Y-22505714D01*
X11633571Y-22520000D01*
X11747857Y-22820000D02*
X11762143Y-22805714D01*
X11790714Y-22762857D01*
X11805000Y-22734286D01*
X11819286Y-22691429D01*
X11833571Y-22620000D01*
X11833571Y-22562857D01*
X11819286Y-22491429D01*
X11805000Y-22448571D01*
X11790714Y-22420000D01*
X11762143Y-22377143D01*
X11747857Y-22362857D01*
X12290714Y-22820000D02*
X12276428Y-22805714D01*
X12247857Y-22762857D01*
X12233571Y-22734286D01*
X12219286Y-22691429D01*
X12205000Y-22620000D01*
X12205000Y-22562857D01*
X12219286Y-22491429D01*
X12233571Y-22448571D01*
X12247857Y-22420000D01*
X12276428Y-22377143D01*
X12290714Y-22362857D01*
X12405000Y-22505714D02*
X12405000Y-22705714D01*
X12405000Y-22534286D02*
X12419286Y-22520000D01*
X12447857Y-22505714D01*
X12490714Y-22505714D01*
X12519286Y-22520000D01*
X12533571Y-22548571D01*
X12533571Y-22705714D01*
X12719286Y-22705714D02*
X12690714Y-22691429D01*
X12676428Y-22677143D01*
X12662143Y-22648571D01*
X12662143Y-22562857D01*
X12676428Y-22534286D01*
X12690714Y-22520000D01*
X12719286Y-22505714D01*
X12762143Y-22505714D01*
X12790714Y-22520000D01*
X12805000Y-22534286D01*
X12819286Y-22562857D01*
X12819286Y-22648571D01*
X12805000Y-22677143D01*
X12790714Y-22691429D01*
X12762143Y-22705714D01*
X12719286Y-22705714D01*
X12905000Y-22505714D02*
X13019286Y-22505714D01*
X12947857Y-22405714D02*
X12947857Y-22662857D01*
X12962143Y-22691429D01*
X12990714Y-22705714D01*
X13019286Y-22705714D01*
X13347857Y-22505714D02*
X13347857Y-22805714D01*
X13347857Y-22520000D02*
X13376428Y-22505714D01*
X13433571Y-22505714D01*
X13462143Y-22520000D01*
X13476428Y-22534286D01*
X13490714Y-22562857D01*
X13490714Y-22648571D01*
X13476428Y-22677143D01*
X13462143Y-22691429D01*
X13433571Y-22705714D01*
X13376428Y-22705714D01*
X13347857Y-22691429D01*
X13662143Y-22705714D02*
X13633571Y-22691429D01*
X13619286Y-22662857D01*
X13619286Y-22405714D01*
X13905000Y-22705714D02*
X13905000Y-22548571D01*
X13890714Y-22520000D01*
X13862143Y-22505714D01*
X13805000Y-22505714D01*
X13776428Y-22520000D01*
X13905000Y-22691429D02*
X13876428Y-22705714D01*
X13805000Y-22705714D01*
X13776428Y-22691429D01*
X13762143Y-22662857D01*
X13762143Y-22634286D01*
X13776428Y-22605714D01*
X13805000Y-22591429D01*
X13876428Y-22591429D01*
X13905000Y-22577143D01*
X14005000Y-22505714D02*
X14119286Y-22505714D01*
X14047857Y-22405714D02*
X14047857Y-22662857D01*
X14062143Y-22691429D01*
X14090714Y-22705714D01*
X14119286Y-22705714D01*
X14333571Y-22691429D02*
X14305000Y-22705714D01*
X14247857Y-22705714D01*
X14219286Y-22691429D01*
X14205000Y-22662857D01*
X14205000Y-22548571D01*
X14219286Y-22520000D01*
X14247857Y-22505714D01*
X14305000Y-22505714D01*
X14333571Y-22520000D01*
X14347857Y-22548571D01*
X14347857Y-22577143D01*
X14205000Y-22605714D01*
X14605000Y-22705714D02*
X14605000Y-22405714D01*
X14605000Y-22691429D02*
X14576428Y-22705714D01*
X14519286Y-22705714D01*
X14490714Y-22691429D01*
X14476428Y-22677143D01*
X14462143Y-22648571D01*
X14462143Y-22562857D01*
X14476428Y-22534286D01*
X14490714Y-22520000D01*
X14519286Y-22505714D01*
X14576428Y-22505714D01*
X14605000Y-22520000D01*
X14719286Y-22820000D02*
X14733571Y-22805714D01*
X14762143Y-22762857D01*
X14776428Y-22734286D01*
X14790714Y-22691429D01*
X14805000Y-22620000D01*
X14805000Y-22562857D01*
X14790714Y-22491429D01*
X14776428Y-22448571D01*
X14762143Y-22420000D01*
X14733571Y-22377143D01*
X14719286Y-22362857D01*
X4690000Y-22966000D02*
G75*
G03X4690000Y-22966000I-152500J0D01*
G01*
X4947857Y-22801714D02*
X5133571Y-22801714D01*
X5033571Y-22916000D01*
X5076428Y-22916000D01*
X5105000Y-22930286D01*
X5119286Y-22944571D01*
X5133571Y-22973143D01*
X5133571Y-23044571D01*
X5119286Y-23073143D01*
X5105000Y-23087429D01*
X5076428Y-23101714D01*
X4990714Y-23101714D01*
X4962143Y-23087429D01*
X4947857Y-23073143D01*
X5262143Y-23073143D02*
X5276428Y-23087429D01*
X5262143Y-23101714D01*
X5247857Y-23087429D01*
X5262143Y-23073143D01*
X5262143Y-23101714D01*
X5462143Y-22801714D02*
X5490714Y-22801714D01*
X5519286Y-22816000D01*
X5533571Y-22830286D01*
X5547857Y-22858857D01*
X5562143Y-22916000D01*
X5562143Y-22987429D01*
X5547857Y-23044571D01*
X5533571Y-23073143D01*
X5519286Y-23087429D01*
X5490714Y-23101714D01*
X5462143Y-23101714D01*
X5433571Y-23087429D01*
X5419286Y-23073143D01*
X5405000Y-23044571D01*
X5390714Y-22987429D01*
X5390714Y-22916000D01*
X5405000Y-22858857D01*
X5419286Y-22830286D01*
X5433571Y-22816000D01*
X5462143Y-22801714D01*
X5833571Y-22801714D02*
X5690714Y-22801714D01*
X5676428Y-22944571D01*
X5690714Y-22930286D01*
X5719286Y-22916000D01*
X5790714Y-22916000D01*
X5819286Y-22930286D01*
X5833571Y-22944571D01*
X5847857Y-22973143D01*
X5847857Y-23044571D01*
X5833571Y-23073143D01*
X5819286Y-23087429D01*
X5790714Y-23101714D01*
X5719286Y-23101714D01*
X5690714Y-23087429D01*
X5676428Y-23073143D01*
X5976428Y-23101714D02*
X5976428Y-22901714D01*
X5976428Y-22930286D02*
X5990714Y-22916000D01*
X6019286Y-22901714D01*
X6062143Y-22901714D01*
X6090714Y-22916000D01*
X6105000Y-22944571D01*
X6105000Y-23101714D01*
X6105000Y-22944571D02*
X6119286Y-22916000D01*
X6147857Y-22901714D01*
X6190714Y-22901714D01*
X6219286Y-22916000D01*
X6233571Y-22944571D01*
X6233571Y-23101714D01*
X6376428Y-23101714D02*
X6376428Y-22901714D01*
X6376428Y-22930286D02*
X6390714Y-22916000D01*
X6419286Y-22901714D01*
X6462143Y-22901714D01*
X6490714Y-22916000D01*
X6505000Y-22944571D01*
X6505000Y-23101714D01*
X6505000Y-22944571D02*
X6519286Y-22916000D01*
X6547857Y-22901714D01*
X6590714Y-22901714D01*
X6619286Y-22916000D01*
X6633571Y-22944571D01*
X6633571Y-23101714D01*
X7219286Y-22787429D02*
X6962143Y-23173143D01*
X7605000Y-22801714D02*
X7633571Y-22801714D01*
X7662143Y-22816000D01*
X7676428Y-22830286D01*
X7690714Y-22858857D01*
X7705000Y-22916000D01*
X7705000Y-22987429D01*
X7690714Y-23044571D01*
X7676428Y-23073143D01*
X7662143Y-23087429D01*
X7633571Y-23101714D01*
X7605000Y-23101714D01*
X7576428Y-23087429D01*
X7562143Y-23073143D01*
X7547857Y-23044571D01*
X7533571Y-22987429D01*
X7533571Y-22916000D01*
X7547857Y-22858857D01*
X7562143Y-22830286D01*
X7576428Y-22816000D01*
X7605000Y-22801714D01*
X7833571Y-23073143D02*
X7847857Y-23087429D01*
X7833571Y-23101714D01*
X7819286Y-23087429D01*
X7833571Y-23073143D01*
X7833571Y-23101714D01*
X8133571Y-23101714D02*
X7962143Y-23101714D01*
X8047857Y-23101714D02*
X8047857Y-22801714D01*
X8019286Y-22844571D01*
X7990714Y-22873143D01*
X7962143Y-22887429D01*
X8247857Y-22830286D02*
X8262143Y-22816000D01*
X8290714Y-22801714D01*
X8362143Y-22801714D01*
X8390714Y-22816000D01*
X8405000Y-22830286D01*
X8419286Y-22858857D01*
X8419286Y-22887429D01*
X8405000Y-22930286D01*
X8233571Y-23101714D01*
X8419286Y-23101714D01*
X8605000Y-22801714D02*
X8633571Y-22801714D01*
X8662143Y-22816000D01*
X8676428Y-22830286D01*
X8690714Y-22858857D01*
X8705000Y-22916000D01*
X8705000Y-22987429D01*
X8690714Y-23044571D01*
X8676428Y-23073143D01*
X8662143Y-23087429D01*
X8633571Y-23101714D01*
X8605000Y-23101714D01*
X8576428Y-23087429D01*
X8562143Y-23073143D01*
X8547857Y-23044571D01*
X8533571Y-22987429D01*
X8533571Y-22916000D01*
X8547857Y-22858857D01*
X8562143Y-22830286D01*
X8576428Y-22816000D01*
X8605000Y-22801714D01*
X8819286Y-22801714D02*
X8819286Y-22858857D01*
X8933571Y-22801714D02*
X8933571Y-22858857D01*
X9376428Y-23216000D02*
X9362143Y-23201714D01*
X9333571Y-23158857D01*
X9319286Y-23130286D01*
X9305000Y-23087429D01*
X9290714Y-23016000D01*
X9290714Y-22958857D01*
X9305000Y-22887429D01*
X9319286Y-22844571D01*
X9333571Y-22816000D01*
X9362143Y-22773143D01*
X9376428Y-22758857D01*
X9619286Y-22901714D02*
X9619286Y-23101714D01*
X9547857Y-22787429D02*
X9476428Y-23001714D01*
X9662143Y-23001714D01*
X10005000Y-23101714D02*
X10005000Y-22801714D01*
X10133571Y-23101714D02*
X10133571Y-22944571D01*
X10119286Y-22916000D01*
X10090714Y-22901714D01*
X10047857Y-22901714D01*
X10019286Y-22916000D01*
X10005000Y-22930286D01*
X10319286Y-23101714D02*
X10290714Y-23087429D01*
X10276428Y-23073143D01*
X10262143Y-23044571D01*
X10262143Y-22958857D01*
X10276428Y-22930286D01*
X10290714Y-22916000D01*
X10319286Y-22901714D01*
X10362143Y-22901714D01*
X10390714Y-22916000D01*
X10405000Y-22930286D01*
X10419286Y-22958857D01*
X10419286Y-23044571D01*
X10405000Y-23073143D01*
X10390714Y-23087429D01*
X10362143Y-23101714D01*
X10319286Y-23101714D01*
X10590714Y-23101714D02*
X10562143Y-23087429D01*
X10547857Y-23058857D01*
X10547857Y-22801714D01*
X10819286Y-23087429D02*
X10790714Y-23101714D01*
X10733571Y-23101714D01*
X10705000Y-23087429D01*
X10690714Y-23058857D01*
X10690714Y-22944571D01*
X10705000Y-22916000D01*
X10733571Y-22901714D01*
X10790714Y-22901714D01*
X10819286Y-22916000D01*
X10833571Y-22944571D01*
X10833571Y-22973143D01*
X10690714Y-23001714D01*
X10947857Y-23087429D02*
X10976428Y-23101714D01*
X11033571Y-23101714D01*
X11062143Y-23087429D01*
X11076428Y-23058857D01*
X11076428Y-23044571D01*
X11062143Y-23016000D01*
X11033571Y-23001714D01*
X10990714Y-23001714D01*
X10962143Y-22987429D01*
X10947857Y-22958857D01*
X10947857Y-22944571D01*
X10962143Y-22916000D01*
X10990714Y-22901714D01*
X11033571Y-22901714D01*
X11062143Y-22916000D01*
X11176428Y-23216000D02*
X11190714Y-23201714D01*
X11219286Y-23158857D01*
X11233571Y-23130286D01*
X11247857Y-23087429D01*
X11262143Y-23016000D01*
X11262143Y-22958857D01*
X11247857Y-22887429D01*
X11233571Y-22844571D01*
X11219286Y-22816000D01*
X11190714Y-22773143D01*
X11176428Y-22758857D01*
X11719286Y-23216000D02*
X11705000Y-23201714D01*
X11676428Y-23158857D01*
X11662143Y-23130286D01*
X11647857Y-23087429D01*
X11633571Y-23016000D01*
X11633571Y-22958857D01*
X11647857Y-22887429D01*
X11662143Y-22844571D01*
X11676428Y-22816000D01*
X11705000Y-22773143D01*
X11719286Y-22758857D01*
X11833571Y-22901714D02*
X11833571Y-23101714D01*
X11833571Y-22930286D02*
X11847857Y-22916000D01*
X11876428Y-22901714D01*
X11919286Y-22901714D01*
X11947857Y-22916000D01*
X11962143Y-22944571D01*
X11962143Y-23101714D01*
X12147857Y-23101714D02*
X12119286Y-23087429D01*
X12105000Y-23073143D01*
X12090714Y-23044571D01*
X12090714Y-22958857D01*
X12105000Y-22930286D01*
X12119286Y-22916000D01*
X12147857Y-22901714D01*
X12190714Y-22901714D01*
X12219286Y-22916000D01*
X12233571Y-22930286D01*
X12247857Y-22958857D01*
X12247857Y-23044571D01*
X12233571Y-23073143D01*
X12219286Y-23087429D01*
X12190714Y-23101714D01*
X12147857Y-23101714D01*
X12333571Y-22901714D02*
X12447857Y-22901714D01*
X12376428Y-22801714D02*
X12376428Y-23058857D01*
X12390714Y-23087429D01*
X12419286Y-23101714D01*
X12447857Y-23101714D01*
X12776428Y-22901714D02*
X12776428Y-23201714D01*
X12776428Y-22916000D02*
X12805000Y-22901714D01*
X12862143Y-22901714D01*
X12890714Y-22916000D01*
X12905000Y-22930286D01*
X12919286Y-22958857D01*
X12919286Y-23044571D01*
X12905000Y-23073143D01*
X12890714Y-23087429D01*
X12862143Y-23101714D01*
X12805000Y-23101714D01*
X12776428Y-23087429D01*
X13090714Y-23101714D02*
X13062143Y-23087429D01*
X13047857Y-23058857D01*
X13047857Y-22801714D01*
X13333571Y-23101714D02*
X13333571Y-22944571D01*
X13319286Y-22916000D01*
X13290714Y-22901714D01*
X13233571Y-22901714D01*
X13205000Y-22916000D01*
X13333571Y-23087429D02*
X13305000Y-23101714D01*
X13233571Y-23101714D01*
X13205000Y-23087429D01*
X13190714Y-23058857D01*
X13190714Y-23030286D01*
X13205000Y-23001714D01*
X13233571Y-22987429D01*
X13305000Y-22987429D01*
X13333571Y-22973143D01*
X13433571Y-22901714D02*
X13547857Y-22901714D01*
X13476428Y-22801714D02*
X13476428Y-23058857D01*
X13490714Y-23087429D01*
X13519286Y-23101714D01*
X13547857Y-23101714D01*
X13762143Y-23087429D02*
X13733571Y-23101714D01*
X13676428Y-23101714D01*
X13647857Y-23087429D01*
X13633571Y-23058857D01*
X13633571Y-22944571D01*
X13647857Y-22916000D01*
X13676428Y-22901714D01*
X13733571Y-22901714D01*
X13762143Y-22916000D01*
X13776428Y-22944571D01*
X13776428Y-22973143D01*
X13633571Y-23001714D01*
X14033571Y-23101714D02*
X14033571Y-22801714D01*
X14033571Y-23087429D02*
X14005000Y-23101714D01*
X13947857Y-23101714D01*
X13919286Y-23087429D01*
X13905000Y-23073143D01*
X13890714Y-23044571D01*
X13890714Y-22958857D01*
X13905000Y-22930286D01*
X13919286Y-22916000D01*
X13947857Y-22901714D01*
X14005000Y-22901714D01*
X14033571Y-22916000D01*
X14147857Y-23216000D02*
X14162143Y-23201714D01*
X14190714Y-23158857D01*
X14205000Y-23130286D01*
X14219286Y-23087429D01*
X14233571Y-23016000D01*
X14233571Y-22958857D01*
X14219286Y-22887429D01*
X14205000Y-22844571D01*
X14190714Y-22816000D01*
X14162143Y-22773143D01*
X14147857Y-22758857D01*
X4505000Y-23216000D02*
X4505000Y-23586000D01*
X4320000Y-23401000D02*
X4690000Y-23401000D01*
X4947857Y-23236714D02*
X5133571Y-23236714D01*
X5033571Y-23351000D01*
X5076428Y-23351000D01*
X5105000Y-23365286D01*
X5119286Y-23379571D01*
X5133571Y-23408143D01*
X5133571Y-23479571D01*
X5119286Y-23508143D01*
X5105000Y-23522429D01*
X5076428Y-23536714D01*
X4990714Y-23536714D01*
X4962143Y-23522429D01*
X4947857Y-23508143D01*
X5262143Y-23508143D02*
X5276428Y-23522429D01*
X5262143Y-23536714D01*
X5247857Y-23522429D01*
X5262143Y-23508143D01*
X5262143Y-23536714D01*
X5376428Y-23236714D02*
X5576428Y-23236714D01*
X5447857Y-23536714D01*
X5747857Y-23236714D02*
X5776428Y-23236714D01*
X5805000Y-23251000D01*
X5819286Y-23265286D01*
X5833571Y-23293857D01*
X5847857Y-23351000D01*
X5847857Y-23422429D01*
X5833571Y-23479571D01*
X5819286Y-23508143D01*
X5805000Y-23522429D01*
X5776428Y-23536714D01*
X5747857Y-23536714D01*
X5719286Y-23522429D01*
X5705000Y-23508143D01*
X5690714Y-23479571D01*
X5676428Y-23422429D01*
X5676428Y-23351000D01*
X5690714Y-23293857D01*
X5705000Y-23265286D01*
X5719286Y-23251000D01*
X5747857Y-23236714D01*
X5976428Y-23536714D02*
X5976428Y-23336714D01*
X5976428Y-23365286D02*
X5990714Y-23351000D01*
X6019286Y-23336714D01*
X6062143Y-23336714D01*
X6090714Y-23351000D01*
X6105000Y-23379571D01*
X6105000Y-23536714D01*
X6105000Y-23379571D02*
X6119286Y-23351000D01*
X6147857Y-23336714D01*
X6190714Y-23336714D01*
X6219286Y-23351000D01*
X6233571Y-23379571D01*
X6233571Y-23536714D01*
X6376428Y-23536714D02*
X6376428Y-23336714D01*
X6376428Y-23365286D02*
X6390714Y-23351000D01*
X6419286Y-23336714D01*
X6462143Y-23336714D01*
X6490714Y-23351000D01*
X6505000Y-23379571D01*
X6505000Y-23536714D01*
X6505000Y-23379571D02*
X6519286Y-23351000D01*
X6547857Y-23336714D01*
X6590714Y-23336714D01*
X6619286Y-23351000D01*
X6633571Y-23379571D01*
X6633571Y-23536714D01*
X7219286Y-23222429D02*
X6962143Y-23608143D01*
X7605000Y-23236714D02*
X7633571Y-23236714D01*
X7662143Y-23251000D01*
X7676428Y-23265286D01*
X7690714Y-23293857D01*
X7705000Y-23351000D01*
X7705000Y-23422429D01*
X7690714Y-23479571D01*
X7676428Y-23508143D01*
X7662143Y-23522429D01*
X7633571Y-23536714D01*
X7605000Y-23536714D01*
X7576428Y-23522429D01*
X7562143Y-23508143D01*
X7547857Y-23479571D01*
X7533571Y-23422429D01*
X7533571Y-23351000D01*
X7547857Y-23293857D01*
X7562143Y-23265286D01*
X7576428Y-23251000D01*
X7605000Y-23236714D01*
X7833571Y-23508143D02*
X7847857Y-23522429D01*
X7833571Y-23536714D01*
X7819286Y-23522429D01*
X7833571Y-23508143D01*
X7833571Y-23536714D01*
X8133571Y-23536714D02*
X7962143Y-23536714D01*
X8047857Y-23536714D02*
X8047857Y-23236714D01*
X8019286Y-23279571D01*
X7990714Y-23308143D01*
X7962143Y-23322429D01*
X8390714Y-23336714D02*
X8390714Y-23536714D01*
X8319286Y-23222429D02*
X8247857Y-23436714D01*
X8433571Y-23436714D01*
X8676428Y-23236714D02*
X8619286Y-23236714D01*
X8590714Y-23251000D01*
X8576428Y-23265286D01*
X8547857Y-23308143D01*
X8533571Y-23365286D01*
X8533571Y-23479571D01*
X8547857Y-23508143D01*
X8562143Y-23522429D01*
X8590714Y-23536714D01*
X8647857Y-23536714D01*
X8676428Y-23522429D01*
X8690714Y-23508143D01*
X8705000Y-23479571D01*
X8705000Y-23408143D01*
X8690714Y-23379571D01*
X8676428Y-23365286D01*
X8647857Y-23351000D01*
X8590714Y-23351000D01*
X8562143Y-23365286D01*
X8547857Y-23379571D01*
X8533571Y-23408143D01*
X8819286Y-23236714D02*
X8819286Y-23293857D01*
X8933571Y-23236714D02*
X8933571Y-23293857D01*
X9376428Y-23651000D02*
X9362143Y-23636714D01*
X9333571Y-23593857D01*
X9319286Y-23565286D01*
X9305000Y-23522429D01*
X9290714Y-23451000D01*
X9290714Y-23393857D01*
X9305000Y-23322429D01*
X9319286Y-23279571D01*
X9333571Y-23251000D01*
X9362143Y-23208143D01*
X9376428Y-23193857D01*
X9619286Y-23336714D02*
X9619286Y-23536714D01*
X9547857Y-23222429D02*
X9476428Y-23436714D01*
X9662143Y-23436714D01*
X10005000Y-23536714D02*
X10005000Y-23236714D01*
X10133571Y-23536714D02*
X10133571Y-23379571D01*
X10119286Y-23351000D01*
X10090714Y-23336714D01*
X10047857Y-23336714D01*
X10019286Y-23351000D01*
X10005000Y-23365286D01*
X10319286Y-23536714D02*
X10290714Y-23522429D01*
X10276428Y-23508143D01*
X10262143Y-23479571D01*
X10262143Y-23393857D01*
X10276428Y-23365286D01*
X10290714Y-23351000D01*
X10319286Y-23336714D01*
X10362143Y-23336714D01*
X10390714Y-23351000D01*
X10405000Y-23365286D01*
X10419286Y-23393857D01*
X10419286Y-23479571D01*
X10405000Y-23508143D01*
X10390714Y-23522429D01*
X10362143Y-23536714D01*
X10319286Y-23536714D01*
X10590714Y-23536714D02*
X10562143Y-23522429D01*
X10547857Y-23493857D01*
X10547857Y-23236714D01*
X10819286Y-23522429D02*
X10790714Y-23536714D01*
X10733571Y-23536714D01*
X10705000Y-23522429D01*
X10690714Y-23493857D01*
X10690714Y-23379571D01*
X10705000Y-23351000D01*
X10733571Y-23336714D01*
X10790714Y-23336714D01*
X10819286Y-23351000D01*
X10833571Y-23379571D01*
X10833571Y-23408143D01*
X10690714Y-23436714D01*
X10947857Y-23522429D02*
X10976428Y-23536714D01*
X11033571Y-23536714D01*
X11062143Y-23522429D01*
X11076428Y-23493857D01*
X11076428Y-23479571D01*
X11062143Y-23451000D01*
X11033571Y-23436714D01*
X10990714Y-23436714D01*
X10962143Y-23422429D01*
X10947857Y-23393857D01*
X10947857Y-23379571D01*
X10962143Y-23351000D01*
X10990714Y-23336714D01*
X11033571Y-23336714D01*
X11062143Y-23351000D01*
X11176428Y-23651000D02*
X11190714Y-23636714D01*
X11219286Y-23593857D01*
X11233571Y-23565286D01*
X11247857Y-23522429D01*
X11262143Y-23451000D01*
X11262143Y-23393857D01*
X11247857Y-23322429D01*
X11233571Y-23279571D01*
X11219286Y-23251000D01*
X11190714Y-23208143D01*
X11176428Y-23193857D01*
X11719286Y-23651000D02*
X11705000Y-23636714D01*
X11676428Y-23593857D01*
X11662143Y-23565286D01*
X11647857Y-23522429D01*
X11633571Y-23451000D01*
X11633571Y-23393857D01*
X11647857Y-23322429D01*
X11662143Y-23279571D01*
X11676428Y-23251000D01*
X11705000Y-23208143D01*
X11719286Y-23193857D01*
X11833571Y-23336714D02*
X11833571Y-23536714D01*
X11833571Y-23365286D02*
X11847857Y-23351000D01*
X11876428Y-23336714D01*
X11919286Y-23336714D01*
X11947857Y-23351000D01*
X11962143Y-23379571D01*
X11962143Y-23536714D01*
X12147857Y-23536714D02*
X12119286Y-23522429D01*
X12105000Y-23508143D01*
X12090714Y-23479571D01*
X12090714Y-23393857D01*
X12105000Y-23365286D01*
X12119286Y-23351000D01*
X12147857Y-23336714D01*
X12190714Y-23336714D01*
X12219286Y-23351000D01*
X12233571Y-23365286D01*
X12247857Y-23393857D01*
X12247857Y-23479571D01*
X12233571Y-23508143D01*
X12219286Y-23522429D01*
X12190714Y-23536714D01*
X12147857Y-23536714D01*
X12333571Y-23336714D02*
X12447857Y-23336714D01*
X12376428Y-23236714D02*
X12376428Y-23493857D01*
X12390714Y-23522429D01*
X12419286Y-23536714D01*
X12447857Y-23536714D01*
X12776428Y-23336714D02*
X12776428Y-23636714D01*
X12776428Y-23351000D02*
X12805000Y-23336714D01*
X12862143Y-23336714D01*
X12890714Y-23351000D01*
X12905000Y-23365286D01*
X12919286Y-23393857D01*
X12919286Y-23479571D01*
X12905000Y-23508143D01*
X12890714Y-23522429D01*
X12862143Y-23536714D01*
X12805000Y-23536714D01*
X12776428Y-23522429D01*
X13090714Y-23536714D02*
X13062143Y-23522429D01*
X13047857Y-23493857D01*
X13047857Y-23236714D01*
X13333571Y-23536714D02*
X13333571Y-23379571D01*
X13319286Y-23351000D01*
X13290714Y-23336714D01*
X13233571Y-23336714D01*
X13205000Y-23351000D01*
X13333571Y-23522429D02*
X13305000Y-23536714D01*
X13233571Y-23536714D01*
X13205000Y-23522429D01*
X13190714Y-23493857D01*
X13190714Y-23465286D01*
X13205000Y-23436714D01*
X13233571Y-23422429D01*
X13305000Y-23422429D01*
X13333571Y-23408143D01*
X13433571Y-23336714D02*
X13547857Y-23336714D01*
X13476428Y-23236714D02*
X13476428Y-23493857D01*
X13490714Y-23522429D01*
X13519286Y-23536714D01*
X13547857Y-23536714D01*
X13762143Y-23522429D02*
X13733571Y-23536714D01*
X13676428Y-23536714D01*
X13647857Y-23522429D01*
X13633571Y-23493857D01*
X13633571Y-23379571D01*
X13647857Y-23351000D01*
X13676428Y-23336714D01*
X13733571Y-23336714D01*
X13762143Y-23351000D01*
X13776428Y-23379571D01*
X13776428Y-23408143D01*
X13633571Y-23436714D01*
X14033571Y-23536714D02*
X14033571Y-23236714D01*
X14033571Y-23522429D02*
X14005000Y-23536714D01*
X13947857Y-23536714D01*
X13919286Y-23522429D01*
X13905000Y-23508143D01*
X13890714Y-23479571D01*
X13890714Y-23393857D01*
X13905000Y-23365286D01*
X13919286Y-23351000D01*
X13947857Y-23336714D01*
X14005000Y-23336714D01*
X14033571Y-23351000D01*
X14147857Y-23651000D02*
X14162143Y-23636714D01*
X14190714Y-23593857D01*
X14205000Y-23565286D01*
X14219286Y-23522429D01*
X14233571Y-23451000D01*
X14233571Y-23393857D01*
X14219286Y-23322429D01*
X14205000Y-23279571D01*
X14190714Y-23251000D01*
X14162143Y-23208143D01*
X14147857Y-23193857D01*
X4631423Y-24042423D02*
X4631423Y-23759577D01*
X4348577Y-23759577D01*
X4348577Y-24042423D01*
X4631423Y-24042423D01*
X5105000Y-23836714D02*
X5105000Y-24036714D01*
X5033571Y-23722429D02*
X4962143Y-23936714D01*
X5147857Y-23936714D01*
X5262143Y-24008143D02*
X5276428Y-24022429D01*
X5262143Y-24036714D01*
X5247857Y-24022429D01*
X5262143Y-24008143D01*
X5262143Y-24036714D01*
X5462143Y-23736714D02*
X5490714Y-23736714D01*
X5519286Y-23751000D01*
X5533571Y-23765286D01*
X5547857Y-23793857D01*
X5562143Y-23851000D01*
X5562143Y-23922429D01*
X5547857Y-23979571D01*
X5533571Y-24008143D01*
X5519286Y-24022429D01*
X5490714Y-24036714D01*
X5462143Y-24036714D01*
X5433571Y-24022429D01*
X5419286Y-24008143D01*
X5405000Y-23979571D01*
X5390714Y-23922429D01*
X5390714Y-23851000D01*
X5405000Y-23793857D01*
X5419286Y-23765286D01*
X5433571Y-23751000D01*
X5462143Y-23736714D01*
X5747857Y-23736714D02*
X5776428Y-23736714D01*
X5805000Y-23751000D01*
X5819286Y-23765286D01*
X5833571Y-23793857D01*
X5847857Y-23851000D01*
X5847857Y-23922429D01*
X5833571Y-23979571D01*
X5819286Y-24008143D01*
X5805000Y-24022429D01*
X5776428Y-24036714D01*
X5747857Y-24036714D01*
X5719286Y-24022429D01*
X5705000Y-24008143D01*
X5690714Y-23979571D01*
X5676428Y-23922429D01*
X5676428Y-23851000D01*
X5690714Y-23793857D01*
X5705000Y-23765286D01*
X5719286Y-23751000D01*
X5747857Y-23736714D01*
X5976428Y-24036714D02*
X5976428Y-23836714D01*
X5976428Y-23865286D02*
X5990714Y-23851000D01*
X6019286Y-23836714D01*
X6062143Y-23836714D01*
X6090714Y-23851000D01*
X6105000Y-23879571D01*
X6105000Y-24036714D01*
X6105000Y-23879571D02*
X6119286Y-23851000D01*
X6147857Y-23836714D01*
X6190714Y-23836714D01*
X6219286Y-23851000D01*
X6233571Y-23879571D01*
X6233571Y-24036714D01*
X6376428Y-24036714D02*
X6376428Y-23836714D01*
X6376428Y-23865286D02*
X6390714Y-23851000D01*
X6419286Y-23836714D01*
X6462143Y-23836714D01*
X6490714Y-23851000D01*
X6505000Y-23879571D01*
X6505000Y-24036714D01*
X6505000Y-23879571D02*
X6519286Y-23851000D01*
X6547857Y-23836714D01*
X6590714Y-23836714D01*
X6619286Y-23851000D01*
X6633571Y-23879571D01*
X6633571Y-24036714D01*
X7219286Y-23722429D02*
X6962143Y-24108143D01*
X7605000Y-23736714D02*
X7633571Y-23736714D01*
X7662143Y-23751000D01*
X7676428Y-23765286D01*
X7690714Y-23793857D01*
X7705000Y-23851000D01*
X7705000Y-23922429D01*
X7690714Y-23979571D01*
X7676428Y-24008143D01*
X7662143Y-24022429D01*
X7633571Y-24036714D01*
X7605000Y-24036714D01*
X7576428Y-24022429D01*
X7562143Y-24008143D01*
X7547857Y-23979571D01*
X7533571Y-23922429D01*
X7533571Y-23851000D01*
X7547857Y-23793857D01*
X7562143Y-23765286D01*
X7576428Y-23751000D01*
X7605000Y-23736714D01*
X7833571Y-24008143D02*
X7847857Y-24022429D01*
X7833571Y-24036714D01*
X7819286Y-24022429D01*
X7833571Y-24008143D01*
X7833571Y-24036714D01*
X8133571Y-24036714D02*
X7962143Y-24036714D01*
X8047857Y-24036714D02*
X8047857Y-23736714D01*
X8019286Y-23779571D01*
X7990714Y-23808143D01*
X7962143Y-23822429D01*
X8405000Y-23736714D02*
X8262143Y-23736714D01*
X8247857Y-23879571D01*
X8262143Y-23865286D01*
X8290714Y-23851000D01*
X8362143Y-23851000D01*
X8390714Y-23865286D01*
X8405000Y-23879571D01*
X8419286Y-23908143D01*
X8419286Y-23979571D01*
X8405000Y-24008143D01*
X8390714Y-24022429D01*
X8362143Y-24036714D01*
X8290714Y-24036714D01*
X8262143Y-24022429D01*
X8247857Y-24008143D01*
X8519286Y-23736714D02*
X8719286Y-23736714D01*
X8590714Y-24036714D01*
X8819286Y-23736714D02*
X8819286Y-23793857D01*
X8933571Y-23736714D02*
X8933571Y-23793857D01*
X9376428Y-24151000D02*
X9362143Y-24136714D01*
X9333571Y-24093857D01*
X9319286Y-24065286D01*
X9305000Y-24022429D01*
X9290714Y-23951000D01*
X9290714Y-23893857D01*
X9305000Y-23822429D01*
X9319286Y-23779571D01*
X9333571Y-23751000D01*
X9362143Y-23708143D01*
X9376428Y-23693857D01*
X9462143Y-23736714D02*
X9662143Y-23736714D01*
X9533571Y-24036714D01*
X9762143Y-23765286D02*
X9776428Y-23751000D01*
X9805000Y-23736714D01*
X9876428Y-23736714D01*
X9905000Y-23751000D01*
X9919286Y-23765286D01*
X9933571Y-23793857D01*
X9933571Y-23822429D01*
X9919286Y-23865286D01*
X9747857Y-24036714D01*
X9933571Y-24036714D01*
X10290714Y-24036714D02*
X10290714Y-23736714D01*
X10419286Y-24036714D02*
X10419286Y-23879571D01*
X10405000Y-23851000D01*
X10376428Y-23836714D01*
X10333571Y-23836714D01*
X10305000Y-23851000D01*
X10290714Y-23865286D01*
X10605000Y-24036714D02*
X10576428Y-24022429D01*
X10562143Y-24008143D01*
X10547857Y-23979571D01*
X10547857Y-23893857D01*
X10562143Y-23865286D01*
X10576428Y-23851000D01*
X10605000Y-23836714D01*
X10647857Y-23836714D01*
X10676428Y-23851000D01*
X10690714Y-23865286D01*
X10705000Y-23893857D01*
X10705000Y-23979571D01*
X10690714Y-24008143D01*
X10676428Y-24022429D01*
X10647857Y-24036714D01*
X10605000Y-24036714D01*
X10876428Y-24036714D02*
X10847857Y-24022429D01*
X10833571Y-23993857D01*
X10833571Y-23736714D01*
X11105000Y-24022429D02*
X11076428Y-24036714D01*
X11019286Y-24036714D01*
X10990714Y-24022429D01*
X10976428Y-23993857D01*
X10976428Y-23879571D01*
X10990714Y-23851000D01*
X11019286Y-23836714D01*
X11076428Y-23836714D01*
X11105000Y-23851000D01*
X11119286Y-23879571D01*
X11119286Y-23908143D01*
X10976428Y-23936714D01*
X11233571Y-24022429D02*
X11262143Y-24036714D01*
X11319286Y-24036714D01*
X11347857Y-24022429D01*
X11362143Y-23993857D01*
X11362143Y-23979571D01*
X11347857Y-23951000D01*
X11319286Y-23936714D01*
X11276428Y-23936714D01*
X11247857Y-23922429D01*
X11233571Y-23893857D01*
X11233571Y-23879571D01*
X11247857Y-23851000D01*
X11276428Y-23836714D01*
X11319286Y-23836714D01*
X11347857Y-23851000D01*
X11462143Y-24151000D02*
X11476428Y-24136714D01*
X11505000Y-24093857D01*
X11519286Y-24065286D01*
X11533571Y-24022429D01*
X11547857Y-23951000D01*
X11547857Y-23893857D01*
X11533571Y-23822429D01*
X11519286Y-23779571D01*
X11505000Y-23751000D01*
X11476428Y-23708143D01*
X11462143Y-23693857D01*
X12005000Y-24151000D02*
X11990714Y-24136714D01*
X11962143Y-24093857D01*
X11947857Y-24065286D01*
X11933571Y-24022429D01*
X11919286Y-23951000D01*
X11919286Y-23893857D01*
X11933571Y-23822429D01*
X11947857Y-23779571D01*
X11962143Y-23751000D01*
X11990714Y-23708143D01*
X12005000Y-23693857D01*
X12119286Y-23836714D02*
X12119286Y-24036714D01*
X12119286Y-23865286D02*
X12133571Y-23851000D01*
X12162143Y-23836714D01*
X12205000Y-23836714D01*
X12233571Y-23851000D01*
X12247857Y-23879571D01*
X12247857Y-24036714D01*
X12433571Y-24036714D02*
X12405000Y-24022429D01*
X12390714Y-24008143D01*
X12376428Y-23979571D01*
X12376428Y-23893857D01*
X12390714Y-23865286D01*
X12405000Y-23851000D01*
X12433571Y-23836714D01*
X12476428Y-23836714D01*
X12505000Y-23851000D01*
X12519286Y-23865286D01*
X12533571Y-23893857D01*
X12533571Y-23979571D01*
X12519286Y-24008143D01*
X12505000Y-24022429D01*
X12476428Y-24036714D01*
X12433571Y-24036714D01*
X12619286Y-23836714D02*
X12733571Y-23836714D01*
X12662143Y-23736714D02*
X12662143Y-23993857D01*
X12676428Y-24022429D01*
X12705000Y-24036714D01*
X12733571Y-24036714D01*
X13062143Y-23836714D02*
X13062143Y-24136714D01*
X13062143Y-23851000D02*
X13090714Y-23836714D01*
X13147857Y-23836714D01*
X13176428Y-23851000D01*
X13190714Y-23865286D01*
X13205000Y-23893857D01*
X13205000Y-23979571D01*
X13190714Y-24008143D01*
X13176428Y-24022429D01*
X13147857Y-24036714D01*
X13090714Y-24036714D01*
X13062143Y-24022429D01*
X13376428Y-24036714D02*
X13347857Y-24022429D01*
X13333571Y-23993857D01*
X13333571Y-23736714D01*
X13619286Y-24036714D02*
X13619286Y-23879571D01*
X13605000Y-23851000D01*
X13576428Y-23836714D01*
X13519286Y-23836714D01*
X13490714Y-23851000D01*
X13619286Y-24022429D02*
X13590714Y-24036714D01*
X13519286Y-24036714D01*
X13490714Y-24022429D01*
X13476428Y-23993857D01*
X13476428Y-23965286D01*
X13490714Y-23936714D01*
X13519286Y-23922429D01*
X13590714Y-23922429D01*
X13619286Y-23908143D01*
X13719286Y-23836714D02*
X13833571Y-23836714D01*
X13762143Y-23736714D02*
X13762143Y-23993857D01*
X13776428Y-24022429D01*
X13805000Y-24036714D01*
X13833571Y-24036714D01*
X14047857Y-24022429D02*
X14019286Y-24036714D01*
X13962143Y-24036714D01*
X13933571Y-24022429D01*
X13919286Y-23993857D01*
X13919286Y-23879571D01*
X13933571Y-23851000D01*
X13962143Y-23836714D01*
X14019286Y-23836714D01*
X14047857Y-23851000D01*
X14062143Y-23879571D01*
X14062143Y-23908143D01*
X13919286Y-23936714D01*
X14319286Y-24036714D02*
X14319286Y-23736714D01*
X14319286Y-24022429D02*
X14290714Y-24036714D01*
X14233571Y-24036714D01*
X14205000Y-24022429D01*
X14190714Y-24008143D01*
X14176428Y-23979571D01*
X14176428Y-23893857D01*
X14190714Y-23865286D01*
X14205000Y-23851000D01*
X14233571Y-23836714D01*
X14290714Y-23836714D01*
X14319286Y-23851000D01*
X14433571Y-24151000D02*
X14447857Y-24136714D01*
X14476428Y-24093857D01*
X14490714Y-24065286D01*
X14505000Y-24022429D01*
X14519286Y-23951000D01*
X14519286Y-23893857D01*
X14505000Y-23822429D01*
X14490714Y-23779571D01*
X14476428Y-23751000D01*
X14447857Y-23708143D01*
X14433571Y-23693857D01*
M02*
