%TF.GenerationSoftware,KiCad,Pcbnew,5.1.9+dfsg1-1*%
%TF.CreationDate,2021-12-02T21:44:05+01:00*%
%TF.ProjectId,STM32F4XX_Hat,53544d33-3246-4345-9858-5f4861742e6b,rev?*%
%TF.SameCoordinates,Original*%
%TF.FileFunction,Legend,Bot*%
%TF.FilePolarity,Positive*%
%FSLAX46Y46*%
G04 Gerber Fmt 4.6, Leading zero omitted, Abs format (unit mm)*
G04 Created by KiCad (PCBNEW 5.1.9+dfsg1-1) date 2021-12-02 21:44:05*
%MOMM*%
%LPD*%
G01*
G04 APERTURE LIST*
%ADD10C,0.150000*%
%ADD11C,0.010000*%
%ADD12C,0.120000*%
G04 APERTURE END LIST*
D10*
X120452380Y-102666666D02*
X119785714Y-102666666D01*
X119452380Y-102666666D02*
X119500000Y-102619047D01*
X119547619Y-102666666D01*
X119500000Y-102714285D01*
X119452380Y-102666666D01*
X119547619Y-102666666D01*
X119785714Y-103142857D02*
X120452380Y-103142857D01*
X119880952Y-103142857D02*
X119833333Y-103190476D01*
X119785714Y-103285714D01*
X119785714Y-103428571D01*
X119833333Y-103523809D01*
X119928571Y-103571428D01*
X120452380Y-103571428D01*
X120452380Y-104809523D02*
X119785714Y-104809523D01*
X119880952Y-104809523D02*
X119833333Y-104857142D01*
X119785714Y-104952380D01*
X119785714Y-105095238D01*
X119833333Y-105190476D01*
X119928571Y-105238095D01*
X120452380Y-105238095D01*
X119928571Y-105238095D02*
X119833333Y-105285714D01*
X119785714Y-105380952D01*
X119785714Y-105523809D01*
X119833333Y-105619047D01*
X119928571Y-105666666D01*
X120452380Y-105666666D01*
X120404761Y-106523809D02*
X120452380Y-106428571D01*
X120452380Y-106238095D01*
X120404761Y-106142857D01*
X120309523Y-106095238D01*
X119928571Y-106095238D01*
X119833333Y-106142857D01*
X119785714Y-106238095D01*
X119785714Y-106428571D01*
X119833333Y-106523809D01*
X119928571Y-106571428D01*
X120023809Y-106571428D01*
X120119047Y-106095238D01*
X120452380Y-107000000D02*
X119785714Y-107000000D01*
X119880952Y-107000000D02*
X119833333Y-107047619D01*
X119785714Y-107142857D01*
X119785714Y-107285714D01*
X119833333Y-107380952D01*
X119928571Y-107428571D01*
X120452380Y-107428571D01*
X119928571Y-107428571D02*
X119833333Y-107476190D01*
X119785714Y-107571428D01*
X119785714Y-107714285D01*
X119833333Y-107809523D01*
X119928571Y-107857142D01*
X120452380Y-107857142D01*
X120452380Y-108476190D02*
X120404761Y-108380952D01*
X120357142Y-108333333D01*
X120261904Y-108285714D01*
X119976190Y-108285714D01*
X119880952Y-108333333D01*
X119833333Y-108380952D01*
X119785714Y-108476190D01*
X119785714Y-108619047D01*
X119833333Y-108714285D01*
X119880952Y-108761904D01*
X119976190Y-108809523D01*
X120261904Y-108809523D01*
X120357142Y-108761904D01*
X120404761Y-108714285D01*
X120452380Y-108619047D01*
X120452380Y-108476190D01*
X120452380Y-109238095D02*
X119785714Y-109238095D01*
X119976190Y-109238095D02*
X119880952Y-109285714D01*
X119833333Y-109333333D01*
X119785714Y-109428571D01*
X119785714Y-109523809D01*
X120452380Y-109857142D02*
X119785714Y-109857142D01*
X119452380Y-109857142D02*
X119500000Y-109809523D01*
X119547619Y-109857142D01*
X119500000Y-109904761D01*
X119452380Y-109857142D01*
X119547619Y-109857142D01*
X120452380Y-110761904D02*
X119928571Y-110761904D01*
X119833333Y-110714285D01*
X119785714Y-110619047D01*
X119785714Y-110428571D01*
X119833333Y-110333333D01*
X120404761Y-110761904D02*
X120452380Y-110666666D01*
X120452380Y-110428571D01*
X120404761Y-110333333D01*
X120309523Y-110285714D01*
X120214285Y-110285714D01*
X120119047Y-110333333D01*
X120071428Y-110428571D01*
X120071428Y-110666666D01*
X120023809Y-110761904D01*
X120452380Y-111238095D02*
X119785714Y-111238095D01*
X119880952Y-111238095D02*
X119833333Y-111285714D01*
X119785714Y-111380952D01*
X119785714Y-111523809D01*
X119833333Y-111619047D01*
X119928571Y-111666666D01*
X120452380Y-111666666D01*
X119928571Y-111666666D02*
X119833333Y-111714285D01*
X119785714Y-111809523D01*
X119785714Y-111952380D01*
X119833333Y-112047619D01*
X119928571Y-112095238D01*
X120452380Y-112095238D01*
X120166666Y-113285714D02*
X120166666Y-113761904D01*
X120452380Y-113190476D02*
X119452380Y-113523809D01*
X120452380Y-113857142D01*
X120357142Y-114190476D02*
X120404761Y-114238095D01*
X120452380Y-114190476D01*
X120404761Y-114142857D01*
X120357142Y-114190476D01*
X120452380Y-114190476D01*
X120404761Y-114619047D02*
X120452380Y-114761904D01*
X120452380Y-115000000D01*
X120404761Y-115095238D01*
X120357142Y-115142857D01*
X120261904Y-115190476D01*
X120166666Y-115190476D01*
X120071428Y-115142857D01*
X120023809Y-115095238D01*
X119976190Y-115000000D01*
X119928571Y-114809523D01*
X119880952Y-114714285D01*
X119833333Y-114666666D01*
X119738095Y-114619047D01*
X119642857Y-114619047D01*
X119547619Y-114666666D01*
X119500000Y-114714285D01*
X119452380Y-114809523D01*
X119452380Y-115047619D01*
X119500000Y-115190476D01*
X120357142Y-115619047D02*
X120404761Y-115666666D01*
X120452380Y-115619047D01*
X120404761Y-115571428D01*
X120357142Y-115619047D01*
X120452380Y-115619047D01*
X120071428Y-116857142D02*
X120071428Y-117619047D01*
X119500000Y-119380952D02*
X119452380Y-119285714D01*
X119452380Y-119142857D01*
X119500000Y-119000000D01*
X119595238Y-118904761D01*
X119690476Y-118857142D01*
X119880952Y-118809523D01*
X120023809Y-118809523D01*
X120214285Y-118857142D01*
X120309523Y-118904761D01*
X120404761Y-119000000D01*
X120452380Y-119142857D01*
X120452380Y-119238095D01*
X120404761Y-119380952D01*
X120357142Y-119428571D01*
X120023809Y-119428571D01*
X120023809Y-119238095D01*
X120357142Y-119857142D02*
X120404761Y-119904761D01*
X120452380Y-119857142D01*
X120404761Y-119809523D01*
X120357142Y-119857142D01*
X120452380Y-119857142D01*
X120452380Y-120333333D02*
X119452380Y-120333333D01*
X119452380Y-120571428D01*
X119500000Y-120714285D01*
X119595238Y-120809523D01*
X119690476Y-120857142D01*
X119880952Y-120904761D01*
X120023809Y-120904761D01*
X120214285Y-120857142D01*
X120309523Y-120809523D01*
X120404761Y-120714285D01*
X120452380Y-120571428D01*
X120452380Y-120333333D01*
X120357142Y-121333333D02*
X120404761Y-121380952D01*
X120452380Y-121333333D01*
X120404761Y-121285714D01*
X120357142Y-121333333D01*
X120452380Y-121333333D01*
D11*
%TO.C,G\u002A\u002A\u002A*%
G36*
X153211950Y-119973784D02*
G01*
X153020492Y-120081839D01*
X152876369Y-120259184D01*
X152796716Y-120450389D01*
X152769535Y-120543989D01*
X152723501Y-120704794D01*
X152660996Y-120924362D01*
X152584397Y-121194253D01*
X152496084Y-121506024D01*
X152398437Y-121851237D01*
X152293834Y-122221448D01*
X152184654Y-122608218D01*
X152073277Y-123003106D01*
X151962083Y-123397670D01*
X151853449Y-123783469D01*
X151749755Y-124152064D01*
X151653382Y-124495012D01*
X151566706Y-124803872D01*
X151492109Y-125070205D01*
X151431968Y-125285568D01*
X151388664Y-125441521D01*
X151364575Y-125529623D01*
X151360333Y-125546451D01*
X151399673Y-125555228D01*
X151505727Y-125562187D01*
X151660549Y-125566440D01*
X151782448Y-125567333D01*
X152204563Y-125567333D01*
X152287575Y-125281583D01*
X152336985Y-125110299D01*
X152398976Y-124893693D01*
X152463207Y-124667946D01*
X152490233Y-124572500D01*
X152609880Y-124149166D01*
X153431966Y-124137642D01*
X153688008Y-124135703D01*
X153914946Y-124137119D01*
X154099227Y-124141548D01*
X154227299Y-124148651D01*
X154285607Y-124158087D01*
X154287058Y-124159124D01*
X154308860Y-124209205D01*
X154348145Y-124326723D01*
X154400470Y-124497337D01*
X154461394Y-124706705D01*
X154506919Y-124869148D01*
X154693776Y-125546166D01*
X155122555Y-125558230D01*
X155301442Y-125561283D01*
X155443742Y-125559941D01*
X155531666Y-125554599D01*
X155551333Y-125548701D01*
X155540119Y-125502821D01*
X155508093Y-125384099D01*
X155457681Y-125201109D01*
X155391309Y-124962422D01*
X155311401Y-124676613D01*
X155220384Y-124352254D01*
X155120683Y-123997919D01*
X155014723Y-123622182D01*
X154914414Y-123267176D01*
X154057048Y-123267176D01*
X154050572Y-123289705D01*
X154004021Y-123305616D01*
X153906830Y-123315907D01*
X153748436Y-123321572D01*
X153518278Y-123323607D01*
X153457510Y-123323666D01*
X153216354Y-123322939D01*
X153047761Y-123319762D01*
X152939632Y-123312640D01*
X152879868Y-123300077D01*
X152856372Y-123280580D01*
X152857044Y-123252653D01*
X152857903Y-123249583D01*
X152876543Y-123185381D01*
X152914273Y-123055205D01*
X152966644Y-122874409D01*
X153029210Y-122658350D01*
X153075583Y-122498166D01*
X153149086Y-122244391D01*
X153221732Y-121993819D01*
X153287060Y-121768726D01*
X153338606Y-121591387D01*
X153357422Y-121526793D01*
X153407388Y-121371859D01*
X153445165Y-121294518D01*
X153473761Y-121289074D01*
X153478915Y-121296592D01*
X153500330Y-121354482D01*
X153540598Y-121481415D01*
X153595961Y-121664843D01*
X153662663Y-121892218D01*
X153736947Y-122150991D01*
X153775006Y-122285559D01*
X153850942Y-122554501D01*
X153920080Y-122797715D01*
X153978856Y-123002793D01*
X154023705Y-123157329D01*
X154051061Y-123248912D01*
X154057048Y-123267176D01*
X154914414Y-123267176D01*
X154904930Y-123233614D01*
X154793730Y-122840791D01*
X154683547Y-122452284D01*
X154576808Y-122076667D01*
X154475938Y-121722513D01*
X154383362Y-121398395D01*
X154301507Y-121112888D01*
X154232796Y-120874563D01*
X154179657Y-120691994D01*
X154144514Y-120573755D01*
X154136638Y-120548283D01*
X154038902Y-120294877D01*
X153924680Y-120116578D01*
X153783436Y-120004036D01*
X153604633Y-119947900D01*
X153448033Y-119937158D01*
X153211950Y-119973784D01*
G37*
X153211950Y-119973784D02*
X153020492Y-120081839D01*
X152876369Y-120259184D01*
X152796716Y-120450389D01*
X152769535Y-120543989D01*
X152723501Y-120704794D01*
X152660996Y-120924362D01*
X152584397Y-121194253D01*
X152496084Y-121506024D01*
X152398437Y-121851237D01*
X152293834Y-122221448D01*
X152184654Y-122608218D01*
X152073277Y-123003106D01*
X151962083Y-123397670D01*
X151853449Y-123783469D01*
X151749755Y-124152064D01*
X151653382Y-124495012D01*
X151566706Y-124803872D01*
X151492109Y-125070205D01*
X151431968Y-125285568D01*
X151388664Y-125441521D01*
X151364575Y-125529623D01*
X151360333Y-125546451D01*
X151399673Y-125555228D01*
X151505727Y-125562187D01*
X151660549Y-125566440D01*
X151782448Y-125567333D01*
X152204563Y-125567333D01*
X152287575Y-125281583D01*
X152336985Y-125110299D01*
X152398976Y-124893693D01*
X152463207Y-124667946D01*
X152490233Y-124572500D01*
X152609880Y-124149166D01*
X153431966Y-124137642D01*
X153688008Y-124135703D01*
X153914946Y-124137119D01*
X154099227Y-124141548D01*
X154227299Y-124148651D01*
X154285607Y-124158087D01*
X154287058Y-124159124D01*
X154308860Y-124209205D01*
X154348145Y-124326723D01*
X154400470Y-124497337D01*
X154461394Y-124706705D01*
X154506919Y-124869148D01*
X154693776Y-125546166D01*
X155122555Y-125558230D01*
X155301442Y-125561283D01*
X155443742Y-125559941D01*
X155531666Y-125554599D01*
X155551333Y-125548701D01*
X155540119Y-125502821D01*
X155508093Y-125384099D01*
X155457681Y-125201109D01*
X155391309Y-124962422D01*
X155311401Y-124676613D01*
X155220384Y-124352254D01*
X155120683Y-123997919D01*
X155014723Y-123622182D01*
X154914414Y-123267176D01*
X154057048Y-123267176D01*
X154050572Y-123289705D01*
X154004021Y-123305616D01*
X153906830Y-123315907D01*
X153748436Y-123321572D01*
X153518278Y-123323607D01*
X153457510Y-123323666D01*
X153216354Y-123322939D01*
X153047761Y-123319762D01*
X152939632Y-123312640D01*
X152879868Y-123300077D01*
X152856372Y-123280580D01*
X152857044Y-123252653D01*
X152857903Y-123249583D01*
X152876543Y-123185381D01*
X152914273Y-123055205D01*
X152966644Y-122874409D01*
X153029210Y-122658350D01*
X153075583Y-122498166D01*
X153149086Y-122244391D01*
X153221732Y-121993819D01*
X153287060Y-121768726D01*
X153338606Y-121591387D01*
X153357422Y-121526793D01*
X153407388Y-121371859D01*
X153445165Y-121294518D01*
X153473761Y-121289074D01*
X153478915Y-121296592D01*
X153500330Y-121354482D01*
X153540598Y-121481415D01*
X153595961Y-121664843D01*
X153662663Y-121892218D01*
X153736947Y-122150991D01*
X153775006Y-122285559D01*
X153850942Y-122554501D01*
X153920080Y-122797715D01*
X153978856Y-123002793D01*
X154023705Y-123157329D01*
X154051061Y-123248912D01*
X154057048Y-123267176D01*
X154914414Y-123267176D01*
X154904930Y-123233614D01*
X154793730Y-122840791D01*
X154683547Y-122452284D01*
X154576808Y-122076667D01*
X154475938Y-121722513D01*
X154383362Y-121398395D01*
X154301507Y-121112888D01*
X154232796Y-120874563D01*
X154179657Y-120691994D01*
X154144514Y-120573755D01*
X154136638Y-120548283D01*
X154038902Y-120294877D01*
X153924680Y-120116578D01*
X153783436Y-120004036D01*
X153604633Y-119947900D01*
X153448033Y-119937158D01*
X153211950Y-119973784D01*
G36*
X148735666Y-120741333D02*
G01*
X148940830Y-120741333D01*
X149079646Y-120744461D01*
X149268455Y-120752783D01*
X149472854Y-120764700D01*
X149533496Y-120768839D01*
X149921000Y-120796344D01*
X149921000Y-125567333D01*
X150767666Y-125567333D01*
X150767666Y-120741333D01*
X151953000Y-120741333D01*
X151953000Y-119937000D01*
X148735666Y-119937000D01*
X148735666Y-120741333D01*
G37*
X148735666Y-120741333D02*
X148940830Y-120741333D01*
X149079646Y-120744461D01*
X149268455Y-120752783D01*
X149472854Y-120764700D01*
X149533496Y-120768839D01*
X149921000Y-120796344D01*
X149921000Y-125567333D01*
X150767666Y-125567333D01*
X150767666Y-120741333D01*
X151953000Y-120741333D01*
X151953000Y-119937000D01*
X148735666Y-119937000D01*
X148735666Y-120741333D01*
G36*
X146946270Y-119969875D02*
G01*
X146848315Y-120005006D01*
X146725648Y-120090190D01*
X146624403Y-120203585D01*
X146620495Y-120209746D01*
X146597762Y-120268081D01*
X146554706Y-120399358D01*
X146493785Y-120595032D01*
X146417457Y-120846560D01*
X146328180Y-121145397D01*
X146228411Y-121482999D01*
X146120609Y-121850823D01*
X146007231Y-122240323D01*
X145890735Y-122642955D01*
X145773579Y-123050177D01*
X145658220Y-123453442D01*
X145547118Y-123844208D01*
X145442729Y-124213930D01*
X145347511Y-124554064D01*
X145263923Y-124856066D01*
X145194422Y-125111391D01*
X145141465Y-125311496D01*
X145107512Y-125447836D01*
X145095018Y-125511867D01*
X145095000Y-125512789D01*
X145118270Y-125539471D01*
X145195323Y-125556492D01*
X145337018Y-125565276D01*
X145510605Y-125567333D01*
X145926209Y-125567333D01*
X146106121Y-124921750D01*
X146169210Y-124695480D01*
X146225417Y-124494106D01*
X146270300Y-124333531D01*
X146299414Y-124229655D01*
X146307202Y-124202083D01*
X146321143Y-124176408D01*
X146353686Y-124157413D01*
X146416069Y-124144109D01*
X146519533Y-124135506D01*
X146675313Y-124130614D01*
X146894651Y-124128444D01*
X147148521Y-124128000D01*
X147455715Y-124129572D01*
X147686288Y-124134618D01*
X147848230Y-124143632D01*
X147949535Y-124157106D01*
X147998194Y-124175534D01*
X148002918Y-124180735D01*
X148025930Y-124237762D01*
X148067325Y-124361153D01*
X148122317Y-124535837D01*
X148186117Y-124746746D01*
X148228208Y-124889819D01*
X148419249Y-125546166D01*
X148831458Y-125558282D01*
X149028020Y-125561661D01*
X149153383Y-125556907D01*
X149220750Y-125542544D01*
X149243327Y-125517099D01*
X149243666Y-125512243D01*
X149232559Y-125459965D01*
X149200858Y-125335196D01*
X149150997Y-125146922D01*
X149085410Y-124904129D01*
X149006531Y-124615801D01*
X148916793Y-124290923D01*
X148818630Y-123938481D01*
X148781756Y-123806794D01*
X148632958Y-123276249D01*
X147762000Y-123276249D01*
X147727031Y-123297450D01*
X147619481Y-123312208D01*
X147435388Y-123320842D01*
X147170788Y-123323666D01*
X147169333Y-123323666D01*
X146956335Y-123321368D01*
X146777295Y-123315056D01*
X146647360Y-123305605D01*
X146581675Y-123293890D01*
X146576666Y-123289448D01*
X146588080Y-123233476D01*
X146619653Y-123111545D01*
X146667382Y-122937372D01*
X146727266Y-122724674D01*
X146795303Y-122487169D01*
X146867491Y-122238573D01*
X146939826Y-121992603D01*
X147008309Y-121762976D01*
X147068935Y-121563410D01*
X147117703Y-121407622D01*
X147150611Y-121309327D01*
X147162488Y-121281578D01*
X147180286Y-121313161D01*
X147217104Y-121413086D01*
X147268989Y-121568203D01*
X147331991Y-121765365D01*
X147402155Y-121991423D01*
X147475532Y-122233227D01*
X147548168Y-122477628D01*
X147616112Y-122711478D01*
X147675411Y-122921628D01*
X147722115Y-123094929D01*
X147752270Y-123218233D01*
X147762000Y-123276249D01*
X148632958Y-123276249D01*
X148604790Y-123175815D01*
X148448988Y-122621233D01*
X148312634Y-122137928D01*
X148194013Y-121720780D01*
X148091409Y-121364668D01*
X148003106Y-121064473D01*
X147927390Y-120815075D01*
X147862543Y-120611353D01*
X147806852Y-120448189D01*
X147758599Y-120320460D01*
X147716070Y-120223049D01*
X147677549Y-120150834D01*
X147641320Y-120098697D01*
X147605669Y-120061515D01*
X147568878Y-120034171D01*
X147529233Y-120011543D01*
X147506015Y-119999473D01*
X147342149Y-119950456D01*
X147142536Y-119940700D01*
X146946270Y-119969875D01*
G37*
X146946270Y-119969875D02*
X146848315Y-120005006D01*
X146725648Y-120090190D01*
X146624403Y-120203585D01*
X146620495Y-120209746D01*
X146597762Y-120268081D01*
X146554706Y-120399358D01*
X146493785Y-120595032D01*
X146417457Y-120846560D01*
X146328180Y-121145397D01*
X146228411Y-121482999D01*
X146120609Y-121850823D01*
X146007231Y-122240323D01*
X145890735Y-122642955D01*
X145773579Y-123050177D01*
X145658220Y-123453442D01*
X145547118Y-123844208D01*
X145442729Y-124213930D01*
X145347511Y-124554064D01*
X145263923Y-124856066D01*
X145194422Y-125111391D01*
X145141465Y-125311496D01*
X145107512Y-125447836D01*
X145095018Y-125511867D01*
X145095000Y-125512789D01*
X145118270Y-125539471D01*
X145195323Y-125556492D01*
X145337018Y-125565276D01*
X145510605Y-125567333D01*
X145926209Y-125567333D01*
X146106121Y-124921750D01*
X146169210Y-124695480D01*
X146225417Y-124494106D01*
X146270300Y-124333531D01*
X146299414Y-124229655D01*
X146307202Y-124202083D01*
X146321143Y-124176408D01*
X146353686Y-124157413D01*
X146416069Y-124144109D01*
X146519533Y-124135506D01*
X146675313Y-124130614D01*
X146894651Y-124128444D01*
X147148521Y-124128000D01*
X147455715Y-124129572D01*
X147686288Y-124134618D01*
X147848230Y-124143632D01*
X147949535Y-124157106D01*
X147998194Y-124175534D01*
X148002918Y-124180735D01*
X148025930Y-124237762D01*
X148067325Y-124361153D01*
X148122317Y-124535837D01*
X148186117Y-124746746D01*
X148228208Y-124889819D01*
X148419249Y-125546166D01*
X148831458Y-125558282D01*
X149028020Y-125561661D01*
X149153383Y-125556907D01*
X149220750Y-125542544D01*
X149243327Y-125517099D01*
X149243666Y-125512243D01*
X149232559Y-125459965D01*
X149200858Y-125335196D01*
X149150997Y-125146922D01*
X149085410Y-124904129D01*
X149006531Y-124615801D01*
X148916793Y-124290923D01*
X148818630Y-123938481D01*
X148781756Y-123806794D01*
X148632958Y-123276249D01*
X147762000Y-123276249D01*
X147727031Y-123297450D01*
X147619481Y-123312208D01*
X147435388Y-123320842D01*
X147170788Y-123323666D01*
X147169333Y-123323666D01*
X146956335Y-123321368D01*
X146777295Y-123315056D01*
X146647360Y-123305605D01*
X146581675Y-123293890D01*
X146576666Y-123289448D01*
X146588080Y-123233476D01*
X146619653Y-123111545D01*
X146667382Y-122937372D01*
X146727266Y-122724674D01*
X146795303Y-122487169D01*
X146867491Y-122238573D01*
X146939826Y-121992603D01*
X147008309Y-121762976D01*
X147068935Y-121563410D01*
X147117703Y-121407622D01*
X147150611Y-121309327D01*
X147162488Y-121281578D01*
X147180286Y-121313161D01*
X147217104Y-121413086D01*
X147268989Y-121568203D01*
X147331991Y-121765365D01*
X147402155Y-121991423D01*
X147475532Y-122233227D01*
X147548168Y-122477628D01*
X147616112Y-122711478D01*
X147675411Y-122921628D01*
X147722115Y-123094929D01*
X147752270Y-123218233D01*
X147762000Y-123276249D01*
X148632958Y-123276249D01*
X148604790Y-123175815D01*
X148448988Y-122621233D01*
X148312634Y-122137928D01*
X148194013Y-121720780D01*
X148091409Y-121364668D01*
X148003106Y-121064473D01*
X147927390Y-120815075D01*
X147862543Y-120611353D01*
X147806852Y-120448189D01*
X147758599Y-120320460D01*
X147716070Y-120223049D01*
X147677549Y-120150834D01*
X147641320Y-120098697D01*
X147605669Y-120061515D01*
X147568878Y-120034171D01*
X147529233Y-120011543D01*
X147506015Y-119999473D01*
X147342149Y-119950456D01*
X147142536Y-119940700D01*
X146946270Y-119969875D01*
G36*
X143566969Y-119941346D02*
G01*
X143294056Y-119945165D01*
X143274666Y-119945478D01*
X142997503Y-119950440D01*
X142789919Y-119956349D01*
X142636835Y-119965146D01*
X142523170Y-119978769D01*
X142433843Y-119999161D01*
X142353774Y-120028260D01*
X142267883Y-120068007D01*
X142248480Y-120077502D01*
X141948338Y-120270948D01*
X141701770Y-120529458D01*
X141522546Y-120826000D01*
X141466216Y-120948705D01*
X141428736Y-121051901D01*
X141406285Y-121158305D01*
X141395043Y-121290635D01*
X141391189Y-121471609D01*
X141390833Y-121609166D01*
X141392387Y-121831670D01*
X141399381Y-121991984D01*
X141415314Y-122112560D01*
X141443682Y-122215852D01*
X141487984Y-122324315D01*
X141509542Y-122371166D01*
X141628902Y-122588197D01*
X141774222Y-122770061D01*
X141965324Y-122938206D01*
X142158795Y-123073550D01*
X142290129Y-123165025D01*
X142391540Y-123246661D01*
X142442883Y-123302100D01*
X142444484Y-123305563D01*
X142453093Y-123343954D01*
X142448197Y-123392127D01*
X142425316Y-123458004D01*
X142379970Y-123549506D01*
X142307679Y-123674553D01*
X142203964Y-123841066D01*
X142064344Y-124056968D01*
X141884340Y-124330179D01*
X141753647Y-124527078D01*
X141585685Y-124781136D01*
X141434280Y-125012888D01*
X141305507Y-125212817D01*
X141205438Y-125371402D01*
X141140148Y-125479124D01*
X141115709Y-125526467D01*
X141115666Y-125526995D01*
X141155486Y-125544056D01*
X141264964Y-125557297D01*
X141429130Y-125565406D01*
X141576478Y-125567333D01*
X142037289Y-125567333D01*
X142727314Y-124519583D01*
X142925755Y-124217565D01*
X143082334Y-123976699D01*
X143202170Y-123787701D01*
X143290380Y-123641287D01*
X143352082Y-123528172D01*
X143392393Y-123439070D01*
X143416431Y-123364698D01*
X143429315Y-123295770D01*
X143435266Y-123235204D01*
X143438141Y-123054198D01*
X143407767Y-122914960D01*
X143332750Y-122801408D01*
X143201698Y-122697459D01*
X143003219Y-122587031D01*
X142961308Y-122566140D01*
X142687336Y-122407676D01*
X142469046Y-122232890D01*
X142315621Y-122050731D01*
X142236247Y-121870149D01*
X142233533Y-121856912D01*
X142221498Y-121732467D01*
X142219722Y-121568146D01*
X142224676Y-121458981D01*
X142263912Y-121233180D01*
X142353231Y-121059334D01*
X142506462Y-120912887D01*
X142549355Y-120882430D01*
X142685219Y-120822219D01*
X142877936Y-120777799D01*
X143100643Y-120752331D01*
X143326471Y-120748980D01*
X143516301Y-120768585D01*
X143641360Y-120797633D01*
X143707263Y-120837185D01*
X143739192Y-120905211D01*
X143745551Y-120932175D01*
X143750820Y-120997919D01*
X143755937Y-121139970D01*
X143760791Y-121349970D01*
X143765267Y-121619558D01*
X143769255Y-121940376D01*
X143772640Y-122304065D01*
X143775310Y-122702265D01*
X143777152Y-123126616D01*
X143777658Y-123313083D01*
X143782666Y-125567333D01*
X144587000Y-125567333D01*
X144587000Y-122994922D01*
X144587105Y-122441446D01*
X144586931Y-121966274D01*
X144585746Y-121563042D01*
X144582814Y-121225389D01*
X144577403Y-120946952D01*
X144568780Y-120721370D01*
X144556210Y-120542279D01*
X144538961Y-120403319D01*
X144516299Y-120298126D01*
X144487490Y-120220338D01*
X144451801Y-120163593D01*
X144408499Y-120121529D01*
X144356850Y-120087784D01*
X144296120Y-120055995D01*
X144245201Y-120030145D01*
X144174944Y-119995816D01*
X144106618Y-119970960D01*
X144025940Y-119954331D01*
X143918628Y-119944683D01*
X143770399Y-119940770D01*
X143566969Y-119941346D01*
G37*
X143566969Y-119941346D02*
X143294056Y-119945165D01*
X143274666Y-119945478D01*
X142997503Y-119950440D01*
X142789919Y-119956349D01*
X142636835Y-119965146D01*
X142523170Y-119978769D01*
X142433843Y-119999161D01*
X142353774Y-120028260D01*
X142267883Y-120068007D01*
X142248480Y-120077502D01*
X141948338Y-120270948D01*
X141701770Y-120529458D01*
X141522546Y-120826000D01*
X141466216Y-120948705D01*
X141428736Y-121051901D01*
X141406285Y-121158305D01*
X141395043Y-121290635D01*
X141391189Y-121471609D01*
X141390833Y-121609166D01*
X141392387Y-121831670D01*
X141399381Y-121991984D01*
X141415314Y-122112560D01*
X141443682Y-122215852D01*
X141487984Y-122324315D01*
X141509542Y-122371166D01*
X141628902Y-122588197D01*
X141774222Y-122770061D01*
X141965324Y-122938206D01*
X142158795Y-123073550D01*
X142290129Y-123165025D01*
X142391540Y-123246661D01*
X142442883Y-123302100D01*
X142444484Y-123305563D01*
X142453093Y-123343954D01*
X142448197Y-123392127D01*
X142425316Y-123458004D01*
X142379970Y-123549506D01*
X142307679Y-123674553D01*
X142203964Y-123841066D01*
X142064344Y-124056968D01*
X141884340Y-124330179D01*
X141753647Y-124527078D01*
X141585685Y-124781136D01*
X141434280Y-125012888D01*
X141305507Y-125212817D01*
X141205438Y-125371402D01*
X141140148Y-125479124D01*
X141115709Y-125526467D01*
X141115666Y-125526995D01*
X141155486Y-125544056D01*
X141264964Y-125557297D01*
X141429130Y-125565406D01*
X141576478Y-125567333D01*
X142037289Y-125567333D01*
X142727314Y-124519583D01*
X142925755Y-124217565D01*
X143082334Y-123976699D01*
X143202170Y-123787701D01*
X143290380Y-123641287D01*
X143352082Y-123528172D01*
X143392393Y-123439070D01*
X143416431Y-123364698D01*
X143429315Y-123295770D01*
X143435266Y-123235204D01*
X143438141Y-123054198D01*
X143407767Y-122914960D01*
X143332750Y-122801408D01*
X143201698Y-122697459D01*
X143003219Y-122587031D01*
X142961308Y-122566140D01*
X142687336Y-122407676D01*
X142469046Y-122232890D01*
X142315621Y-122050731D01*
X142236247Y-121870149D01*
X142233533Y-121856912D01*
X142221498Y-121732467D01*
X142219722Y-121568146D01*
X142224676Y-121458981D01*
X142263912Y-121233180D01*
X142353231Y-121059334D01*
X142506462Y-120912887D01*
X142549355Y-120882430D01*
X142685219Y-120822219D01*
X142877936Y-120777799D01*
X143100643Y-120752331D01*
X143326471Y-120748980D01*
X143516301Y-120768585D01*
X143641360Y-120797633D01*
X143707263Y-120837185D01*
X143739192Y-120905211D01*
X143745551Y-120932175D01*
X143750820Y-120997919D01*
X143755937Y-121139970D01*
X143760791Y-121349970D01*
X143765267Y-121619558D01*
X143769255Y-121940376D01*
X143772640Y-122304065D01*
X143775310Y-122702265D01*
X143777152Y-123126616D01*
X143777658Y-123313083D01*
X143782666Y-125567333D01*
X144587000Y-125567333D01*
X144587000Y-122994922D01*
X144587105Y-122441446D01*
X144586931Y-121966274D01*
X144585746Y-121563042D01*
X144582814Y-121225389D01*
X144577403Y-120946952D01*
X144568780Y-120721370D01*
X144556210Y-120542279D01*
X144538961Y-120403319D01*
X144516299Y-120298126D01*
X144487490Y-120220338D01*
X144451801Y-120163593D01*
X144408499Y-120121529D01*
X144356850Y-120087784D01*
X144296120Y-120055995D01*
X144245201Y-120030145D01*
X144174944Y-119995816D01*
X144106618Y-119970960D01*
X144025940Y-119954331D01*
X143918628Y-119944683D01*
X143770399Y-119940770D01*
X143566969Y-119941346D01*
G36*
X139761000Y-125567333D02*
G01*
X140156111Y-125567333D01*
X140331357Y-125564487D01*
X140473276Y-125556853D01*
X140561513Y-125545790D01*
X140579444Y-125539111D01*
X140584282Y-125493012D01*
X140588858Y-125369327D01*
X140593101Y-125175135D01*
X140596940Y-124917516D01*
X140600304Y-124603550D01*
X140603122Y-124240316D01*
X140605324Y-123834895D01*
X140606838Y-123394365D01*
X140607593Y-122925807D01*
X140607666Y-122723944D01*
X140607666Y-119937000D01*
X139761000Y-119937000D01*
X139761000Y-125567333D01*
G37*
X139761000Y-125567333D02*
X140156111Y-125567333D01*
X140331357Y-125564487D01*
X140473276Y-125556853D01*
X140561513Y-125545790D01*
X140579444Y-125539111D01*
X140584282Y-125493012D01*
X140588858Y-125369327D01*
X140593101Y-125175135D01*
X140596940Y-124917516D01*
X140600304Y-124603550D01*
X140603122Y-124240316D01*
X140605324Y-123834895D01*
X140606838Y-123394365D01*
X140607593Y-122925807D01*
X140607666Y-122723944D01*
X140607666Y-119937000D01*
X139761000Y-119937000D01*
X139761000Y-125567333D01*
G36*
X139074726Y-119075703D02*
G01*
X139032414Y-119105712D01*
X138952536Y-119202937D01*
X138899843Y-119332908D01*
X138889662Y-119454472D01*
X138894591Y-119475820D01*
X138960355Y-119576724D01*
X139071724Y-119667268D01*
X139192263Y-119720494D01*
X139231833Y-119725333D01*
X139330986Y-119699685D01*
X139437307Y-119637973D01*
X139437791Y-119637594D01*
X139528657Y-119517898D01*
X139553828Y-119370995D01*
X139512995Y-119223465D01*
X139443667Y-119132823D01*
X139367330Y-119072394D01*
X139318596Y-119054279D01*
X139315346Y-119056209D01*
X139330059Y-119091990D01*
X139396898Y-119147129D01*
X139399845Y-119149074D01*
X139482414Y-119247456D01*
X139513381Y-119379379D01*
X139491840Y-119512441D01*
X139416888Y-119614239D01*
X139412914Y-119617099D01*
X139272947Y-119676460D01*
X139143852Y-119666832D01*
X139037472Y-119603886D01*
X138965647Y-119503295D01*
X138940221Y-119380730D01*
X138973033Y-119251864D01*
X139057805Y-119147133D01*
X139128167Y-119075901D01*
X139132045Y-119049217D01*
X139074726Y-119075703D01*
G37*
X139074726Y-119075703D02*
X139032414Y-119105712D01*
X138952536Y-119202937D01*
X138899843Y-119332908D01*
X138889662Y-119454472D01*
X138894591Y-119475820D01*
X138960355Y-119576724D01*
X139071724Y-119667268D01*
X139192263Y-119720494D01*
X139231833Y-119725333D01*
X139330986Y-119699685D01*
X139437307Y-119637973D01*
X139437791Y-119637594D01*
X139528657Y-119517898D01*
X139553828Y-119370995D01*
X139512995Y-119223465D01*
X139443667Y-119132823D01*
X139367330Y-119072394D01*
X139318596Y-119054279D01*
X139315346Y-119056209D01*
X139330059Y-119091990D01*
X139396898Y-119147129D01*
X139399845Y-119149074D01*
X139482414Y-119247456D01*
X139513381Y-119379379D01*
X139491840Y-119512441D01*
X139416888Y-119614239D01*
X139412914Y-119617099D01*
X139272947Y-119676460D01*
X139143852Y-119666832D01*
X139037472Y-119603886D01*
X138965647Y-119503295D01*
X138940221Y-119380730D01*
X138973033Y-119251864D01*
X139057805Y-119147133D01*
X139128167Y-119075901D01*
X139132045Y-119049217D01*
X139074726Y-119075703D01*
G36*
X139181253Y-119207444D02*
G01*
X139151415Y-119257864D01*
X139145590Y-119344385D01*
X139135293Y-119463841D01*
X139112445Y-119552357D01*
X139110615Y-119556052D01*
X139110112Y-119573829D01*
X139152969Y-119533566D01*
X139161310Y-119524250D01*
X139227531Y-119456656D01*
X139267425Y-119429000D01*
X139290856Y-119464787D01*
X139306107Y-119524250D01*
X139322738Y-119586239D01*
X139344453Y-119570032D01*
X139354368Y-119549446D01*
X139372610Y-119459405D01*
X139372597Y-119339882D01*
X139372399Y-119337779D01*
X139365192Y-119302000D01*
X139295333Y-119302000D01*
X139275827Y-119369143D01*
X139242416Y-119376083D01*
X139193257Y-119324088D01*
X139189500Y-119302000D01*
X139222883Y-119238435D01*
X139242416Y-119227916D01*
X139284904Y-119247564D01*
X139295333Y-119302000D01*
X139365192Y-119302000D01*
X139352608Y-119239528D01*
X139305453Y-119200957D01*
X139253000Y-119196166D01*
X139181253Y-119207444D01*
G37*
X139181253Y-119207444D02*
X139151415Y-119257864D01*
X139145590Y-119344385D01*
X139135293Y-119463841D01*
X139112445Y-119552357D01*
X139110615Y-119556052D01*
X139110112Y-119573829D01*
X139152969Y-119533566D01*
X139161310Y-119524250D01*
X139227531Y-119456656D01*
X139267425Y-119429000D01*
X139290856Y-119464787D01*
X139306107Y-119524250D01*
X139322738Y-119586239D01*
X139344453Y-119570032D01*
X139354368Y-119549446D01*
X139372610Y-119459405D01*
X139372597Y-119339882D01*
X139372399Y-119337779D01*
X139365192Y-119302000D01*
X139295333Y-119302000D01*
X139275827Y-119369143D01*
X139242416Y-119376083D01*
X139193257Y-119324088D01*
X139189500Y-119302000D01*
X139222883Y-119238435D01*
X139242416Y-119227916D01*
X139284904Y-119247564D01*
X139295333Y-119302000D01*
X139365192Y-119302000D01*
X139352608Y-119239528D01*
X139305453Y-119200957D01*
X139253000Y-119196166D01*
X139181253Y-119207444D01*
G36*
X148836165Y-108348249D02*
G01*
X148849843Y-109153256D01*
X148867340Y-109880119D01*
X148889548Y-110535312D01*
X148917360Y-111125308D01*
X148951670Y-111656581D01*
X148993369Y-112135603D01*
X149043352Y-112568847D01*
X149102511Y-112962786D01*
X149171738Y-113323894D01*
X149251927Y-113658643D01*
X149343971Y-113973507D01*
X149448763Y-114274959D01*
X149567195Y-114569471D01*
X149700161Y-114863518D01*
X149748842Y-114964544D01*
X149996076Y-115422939D01*
X150271477Y-115835587D01*
X150594079Y-116228826D01*
X150876145Y-116524567D01*
X151465612Y-117057660D01*
X152098069Y-117530161D01*
X152764686Y-117937208D01*
X153456631Y-118273941D01*
X154165075Y-118535500D01*
X154846824Y-118710221D01*
X155026699Y-118745617D01*
X155175746Y-118773615D01*
X155274286Y-118790591D01*
X155301908Y-118794000D01*
X155312933Y-118753597D01*
X155322646Y-118640102D01*
X155330587Y-118465085D01*
X155336295Y-118240117D01*
X155339310Y-117976768D01*
X155339666Y-117844501D01*
X155339666Y-116895002D01*
X155096250Y-116845036D01*
X154536391Y-116695489D01*
X153971323Y-116479858D01*
X153428559Y-116210147D01*
X152950525Y-115908998D01*
X152549186Y-115593107D01*
X152145891Y-115218994D01*
X151756859Y-114805017D01*
X151398313Y-114369537D01*
X151086472Y-113930914D01*
X150850267Y-113531850D01*
X150639732Y-113080057D01*
X150452720Y-112567932D01*
X150288742Y-111992645D01*
X150147306Y-111351364D01*
X150027921Y-110641261D01*
X149930097Y-109859504D01*
X149853341Y-109003263D01*
X149797164Y-108069708D01*
X149767430Y-107289916D01*
X149738358Y-106305666D01*
X148807039Y-106305666D01*
X148836165Y-108348249D01*
G37*
X148836165Y-108348249D02*
X148849843Y-109153256D01*
X148867340Y-109880119D01*
X148889548Y-110535312D01*
X148917360Y-111125308D01*
X148951670Y-111656581D01*
X148993369Y-112135603D01*
X149043352Y-112568847D01*
X149102511Y-112962786D01*
X149171738Y-113323894D01*
X149251927Y-113658643D01*
X149343971Y-113973507D01*
X149448763Y-114274959D01*
X149567195Y-114569471D01*
X149700161Y-114863518D01*
X149748842Y-114964544D01*
X149996076Y-115422939D01*
X150271477Y-115835587D01*
X150594079Y-116228826D01*
X150876145Y-116524567D01*
X151465612Y-117057660D01*
X152098069Y-117530161D01*
X152764686Y-117937208D01*
X153456631Y-118273941D01*
X154165075Y-118535500D01*
X154846824Y-118710221D01*
X155026699Y-118745617D01*
X155175746Y-118773615D01*
X155274286Y-118790591D01*
X155301908Y-118794000D01*
X155312933Y-118753597D01*
X155322646Y-118640102D01*
X155330587Y-118465085D01*
X155336295Y-118240117D01*
X155339310Y-117976768D01*
X155339666Y-117844501D01*
X155339666Y-116895002D01*
X155096250Y-116845036D01*
X154536391Y-116695489D01*
X153971323Y-116479858D01*
X153428559Y-116210147D01*
X152950525Y-115908998D01*
X152549186Y-115593107D01*
X152145891Y-115218994D01*
X151756859Y-114805017D01*
X151398313Y-114369537D01*
X151086472Y-113930914D01*
X150850267Y-113531850D01*
X150639732Y-113080057D01*
X150452720Y-112567932D01*
X150288742Y-111992645D01*
X150147306Y-111351364D01*
X150027921Y-110641261D01*
X149930097Y-109859504D01*
X149853341Y-109003263D01*
X149797164Y-108069708D01*
X149767430Y-107289916D01*
X149738358Y-106305666D01*
X148807039Y-106305666D01*
X148836165Y-108348249D01*
G36*
X146619000Y-118794000D02*
G01*
X148439333Y-118794000D01*
X148439333Y-106305666D01*
X146619000Y-106305666D01*
X146619000Y-118794000D01*
G37*
X146619000Y-118794000D02*
X148439333Y-118794000D01*
X148439333Y-106305666D01*
X146619000Y-106305666D01*
X146619000Y-118794000D01*
G36*
X145306449Y-106951250D02*
G01*
X145291531Y-107831580D01*
X145248323Y-108701673D01*
X145178255Y-109547928D01*
X145082755Y-110356744D01*
X144963252Y-111114522D01*
X144821174Y-111807660D01*
X144777087Y-111990117D01*
X144617659Y-112559313D01*
X144436681Y-113066508D01*
X144224621Y-113528380D01*
X143971948Y-113961606D01*
X143669128Y-114382865D01*
X143306630Y-114808834D01*
X142957166Y-115174344D01*
X142448894Y-115641980D01*
X141931990Y-116030758D01*
X141396237Y-116346471D01*
X140831415Y-116594913D01*
X140227306Y-116781876D01*
X140045952Y-116824837D01*
X139717070Y-116897854D01*
X139728452Y-117834788D01*
X139732955Y-118145033D01*
X139738458Y-118380472D01*
X139745742Y-118550963D01*
X139755587Y-118666365D01*
X139768776Y-118736539D01*
X139786088Y-118771343D01*
X139803333Y-118780333D01*
X139870971Y-118775736D01*
X139998952Y-118756207D01*
X140165009Y-118725361D01*
X140253046Y-118707313D01*
X140994835Y-118507958D01*
X141721275Y-118228407D01*
X142425030Y-117872748D01*
X143098764Y-117445072D01*
X143735144Y-116949468D01*
X144228198Y-116490986D01*
X144616370Y-116069051D01*
X144938199Y-115647493D01*
X145209098Y-115204678D01*
X145365217Y-114895107D01*
X145502098Y-114587268D01*
X145623891Y-114277898D01*
X145731479Y-113960376D01*
X145825743Y-113628082D01*
X145907565Y-113274394D01*
X145977825Y-112892693D01*
X146037407Y-112476357D01*
X146087190Y-112018765D01*
X146128058Y-111513297D01*
X146160891Y-110953331D01*
X146186570Y-110332248D01*
X146205979Y-109643426D01*
X146219997Y-108880245D01*
X146225658Y-108432916D01*
X146249007Y-106305666D01*
X145306666Y-106305666D01*
X145306449Y-106951250D01*
G37*
X145306449Y-106951250D02*
X145291531Y-107831580D01*
X145248323Y-108701673D01*
X145178255Y-109547928D01*
X145082755Y-110356744D01*
X144963252Y-111114522D01*
X144821174Y-111807660D01*
X144777087Y-111990117D01*
X144617659Y-112559313D01*
X144436681Y-113066508D01*
X144224621Y-113528380D01*
X143971948Y-113961606D01*
X143669128Y-114382865D01*
X143306630Y-114808834D01*
X142957166Y-115174344D01*
X142448894Y-115641980D01*
X141931990Y-116030758D01*
X141396237Y-116346471D01*
X140831415Y-116594913D01*
X140227306Y-116781876D01*
X140045952Y-116824837D01*
X139717070Y-116897854D01*
X139728452Y-117834788D01*
X139732955Y-118145033D01*
X139738458Y-118380472D01*
X139745742Y-118550963D01*
X139755587Y-118666365D01*
X139768776Y-118736539D01*
X139786088Y-118771343D01*
X139803333Y-118780333D01*
X139870971Y-118775736D01*
X139998952Y-118756207D01*
X140165009Y-118725361D01*
X140253046Y-118707313D01*
X140994835Y-118507958D01*
X141721275Y-118228407D01*
X142425030Y-117872748D01*
X143098764Y-117445072D01*
X143735144Y-116949468D01*
X144228198Y-116490986D01*
X144616370Y-116069051D01*
X144938199Y-115647493D01*
X145209098Y-115204678D01*
X145365217Y-114895107D01*
X145502098Y-114587268D01*
X145623891Y-114277898D01*
X145731479Y-113960376D01*
X145825743Y-113628082D01*
X145907565Y-113274394D01*
X145977825Y-112892693D01*
X146037407Y-112476357D01*
X146087190Y-112018765D01*
X146128058Y-111513297D01*
X146160891Y-110953331D01*
X146186570Y-110332248D01*
X146205979Y-109643426D01*
X146219997Y-108880245D01*
X146225658Y-108432916D01*
X146249007Y-106305666D01*
X145306666Y-106305666D01*
X145306449Y-106951250D01*
D12*
%TO.C,J1*%
X127702000Y-56642000D02*
X127702000Y-57972000D01*
X127702000Y-57972000D02*
X129032000Y-57972000D01*
X127702000Y-55372000D02*
X130302000Y-55372000D01*
X130302000Y-55372000D02*
X130302000Y-57972000D01*
X130302000Y-57972000D02*
X168462000Y-57972000D01*
X168462000Y-52772000D02*
X168462000Y-57972000D01*
X127702000Y-52772000D02*
X168462000Y-52772000D01*
X127702000Y-52772000D02*
X127702000Y-55372000D01*
%TO.C,J2*%
X182626000Y-125155000D02*
X183956000Y-125155000D01*
X183956000Y-125155000D02*
X183956000Y-123825000D01*
X181356000Y-125155000D02*
X181356000Y-122555000D01*
X181356000Y-122555000D02*
X183956000Y-122555000D01*
X183956000Y-122555000D02*
X183956000Y-64075000D01*
X178756000Y-64075000D02*
X183956000Y-64075000D01*
X178756000Y-125155000D02*
X178756000Y-64075000D01*
X178756000Y-125155000D02*
X181356000Y-125155000D01*
%TO.C,J3*%
X112716000Y-125155000D02*
X115316000Y-125155000D01*
X112716000Y-125155000D02*
X112716000Y-64075000D01*
X112716000Y-64075000D02*
X117916000Y-64075000D01*
X117916000Y-122555000D02*
X117916000Y-64075000D01*
X115316000Y-122555000D02*
X117916000Y-122555000D01*
X115316000Y-125155000D02*
X115316000Y-122555000D01*
X117916000Y-125155000D02*
X117916000Y-123825000D01*
X116586000Y-125155000D02*
X117916000Y-125155000D01*
%TO.C,J1*%
D10*
X125714380Y-55038666D02*
X126428666Y-55038666D01*
X126571523Y-54991047D01*
X126666761Y-54895809D01*
X126714380Y-54752952D01*
X126714380Y-54657714D01*
X126714380Y-56038666D02*
X126714380Y-55467238D01*
X126714380Y-55752952D02*
X125714380Y-55752952D01*
X125857238Y-55657714D01*
X125952476Y-55562476D01*
X126000095Y-55467238D01*
%TO.C,J2*%
X181689333Y-126047380D02*
X181689333Y-126761666D01*
X181736952Y-126904523D01*
X181832190Y-126999761D01*
X181975047Y-127047380D01*
X182070285Y-127047380D01*
X181260761Y-126142619D02*
X181213142Y-126095000D01*
X181117904Y-126047380D01*
X180879809Y-126047380D01*
X180784571Y-126095000D01*
X180736952Y-126142619D01*
X180689333Y-126237857D01*
X180689333Y-126333095D01*
X180736952Y-126475952D01*
X181308380Y-127047380D01*
X180689333Y-127047380D01*
%TO.C,J3*%
X115649333Y-126047380D02*
X115649333Y-126761666D01*
X115696952Y-126904523D01*
X115792190Y-126999761D01*
X115935047Y-127047380D01*
X116030285Y-127047380D01*
X115268380Y-126047380D02*
X114649333Y-126047380D01*
X114982666Y-126428333D01*
X114839809Y-126428333D01*
X114744571Y-126475952D01*
X114696952Y-126523571D01*
X114649333Y-126618809D01*
X114649333Y-126856904D01*
X114696952Y-126952142D01*
X114744571Y-126999761D01*
X114839809Y-127047380D01*
X115125523Y-127047380D01*
X115220761Y-126999761D01*
X115268380Y-126952142D01*
%TD*%
M02*
