%TF.GenerationSoftware,KiCad,Pcbnew,5.1.9+dfsg1-1*%
%TF.CreationDate,2021-12-02T21:44:04+01:00*%
%TF.ProjectId,STM32F4XX_Hat,53544d33-3246-4345-9858-5f4861742e6b,rev?*%
%TF.SameCoordinates,Original*%
%TF.FileFunction,Copper,L2,Bot*%
%TF.FilePolarity,Positive*%
%FSLAX46Y46*%
G04 Gerber Fmt 4.6, Leading zero omitted, Abs format (unit mm)*
G04 Created by KiCad (PCBNEW 5.1.9+dfsg1-1) date 2021-12-02 21:44:05*
%MOMM*%
%LPD*%
G01*
G04 APERTURE LIST*
%TA.AperFunction,ComponentPad*%
%ADD10O,1.400000X1.400000*%
%TD*%
%TA.AperFunction,ComponentPad*%
%ADD11C,1.400000*%
%TD*%
%TA.AperFunction,ComponentPad*%
%ADD12O,1.700000X1.700000*%
%TD*%
%TA.AperFunction,ComponentPad*%
%ADD13R,1.700000X1.700000*%
%TD*%
%TA.AperFunction,ComponentPad*%
%ADD14C,1.800000*%
%TD*%
%TA.AperFunction,ComponentPad*%
%ADD15R,1.800000X1.800000*%
%TD*%
%TA.AperFunction,ComponentPad*%
%ADD16C,1.700000*%
%TD*%
%TA.AperFunction,ComponentPad*%
%ADD17C,1.600000*%
%TD*%
%TA.AperFunction,ViaPad*%
%ADD18C,0.800000*%
%TD*%
%TA.AperFunction,Conductor*%
%ADD19C,0.250000*%
%TD*%
%TA.AperFunction,Conductor*%
%ADD20C,0.254000*%
%TD*%
%TA.AperFunction,Conductor*%
%ADD21C,0.100000*%
%TD*%
G04 APERTURE END LIST*
D10*
%TO.P,R6,2*%
%TO.N,Net-(D6-Pad1)*%
X166851000Y-131121000D03*
D11*
%TO.P,R6,1*%
%TO.N,/KANA*%
X166851000Y-133661000D03*
%TD*%
D10*
%TO.P,R5,2*%
%TO.N,Net-(D5-Pad1)*%
X135351000Y-131121000D03*
D11*
%TO.P,R5,1*%
%TO.N,/CAPSLK*%
X135351000Y-133661000D03*
%TD*%
D10*
%TO.P,R4,2*%
%TO.N,Net-(D4-Pad1)*%
X156351000Y-131121000D03*
D11*
%TO.P,R4,1*%
%TO.N,/COMPOSE*%
X156351000Y-133661000D03*
%TD*%
D10*
%TO.P,R3,2*%
%TO.N,Net-(D3-Pad1)*%
X145951000Y-131021000D03*
D11*
%TO.P,R3,1*%
%TO.N,/PA4*%
X145951000Y-133561000D03*
%TD*%
D10*
%TO.P,R2,2*%
%TO.N,Net-(D2-Pad1)*%
X124851000Y-131121000D03*
D11*
%TO.P,R2,1*%
%TO.N,/NUM_LK*%
X124851000Y-133661000D03*
%TD*%
D12*
%TO.P,J6,3*%
%TO.N,/PA9-TXD1*%
X135131000Y-63881000D03*
%TO.P,J6,2*%
%TO.N,/PA10-RXD1*%
X132591000Y-63881000D03*
D13*
%TO.P,J6,1*%
%TO.N,GND*%
X130051000Y-63881000D03*
%TD*%
D14*
%TO.P,D6,2*%
%TO.N,+3V3*%
X172591000Y-132561000D03*
D15*
%TO.P,D6,1*%
%TO.N,Net-(D6-Pad1)*%
X170051000Y-132561000D03*
%TD*%
D14*
%TO.P,D5,2*%
%TO.N,+3V3*%
X141091000Y-132361000D03*
D15*
%TO.P,D5,1*%
%TO.N,Net-(D5-Pad1)*%
X138551000Y-132361000D03*
%TD*%
D14*
%TO.P,D4,2*%
%TO.N,+3V3*%
X162191000Y-132461000D03*
D15*
%TO.P,D4,1*%
%TO.N,Net-(D4-Pad1)*%
X159651000Y-132461000D03*
%TD*%
D14*
%TO.P,D3,2*%
%TO.N,+3V3*%
X151691000Y-132361000D03*
D15*
%TO.P,D3,1*%
%TO.N,Net-(D3-Pad1)*%
X149151000Y-132361000D03*
%TD*%
D14*
%TO.P,D2,2*%
%TO.N,+3V3*%
X130591000Y-132261000D03*
D15*
%TO.P,D2,1*%
%TO.N,Net-(D2-Pad1)*%
X128051000Y-132261000D03*
%TD*%
%TO.P,D1,1*%
%TO.N,GND*%
X154051000Y-65261000D03*
D14*
%TO.P,D1,2*%
%TO.N,~LED*%
X156591000Y-65261000D03*
%TD*%
D13*
%TO.P,J1,1*%
%TO.N,GND*%
X129032000Y-56642000D03*
D12*
%TO.P,J1,2*%
%TO.N,Net-(J1-Pad2)*%
X129032000Y-54102000D03*
%TO.P,J1,3*%
%TO.N,Net-(J1-Pad3)*%
X131572000Y-56642000D03*
%TO.P,J1,4*%
%TO.N,Net-(J1-Pad4)*%
X131572000Y-54102000D03*
%TO.P,J1,5*%
%TO.N,Net-(J1-Pad5)*%
X134112000Y-56642000D03*
%TO.P,J1,6*%
%TO.N,Net-(J1-Pad6)*%
X134112000Y-54102000D03*
%TO.P,J1,7*%
%TO.N,Net-(J1-Pad7)*%
X136652000Y-56642000D03*
%TO.P,J1,8*%
%TO.N,Net-(J1-Pad8)*%
X136652000Y-54102000D03*
%TO.P,J1,9*%
%TO.N,Net-(J1-Pad9)*%
X139192000Y-56642000D03*
%TO.P,J1,10*%
%TO.N,Net-(J1-Pad10)*%
X139192000Y-54102000D03*
%TO.P,J1,11*%
%TO.N,Net-(J1-Pad11)*%
X141732000Y-56642000D03*
%TO.P,J1,12*%
%TO.N,Net-(J1-Pad12)*%
X141732000Y-54102000D03*
%TO.P,J1,13*%
%TO.N,Net-(J1-Pad13)*%
X144272000Y-56642000D03*
%TO.P,J1,14*%
%TO.N,Net-(J1-Pad14)*%
X144272000Y-54102000D03*
%TO.P,J1,15*%
%TO.N,Net-(J1-Pad15)*%
X146812000Y-56642000D03*
%TO.P,J1,16*%
%TO.N,Net-(J1-Pad16)*%
X146812000Y-54102000D03*
%TO.P,J1,17*%
%TO.N,Net-(J1-Pad17)*%
X149352000Y-56642000D03*
%TO.P,J1,18*%
%TO.N,Net-(J1-Pad18)*%
X149352000Y-54102000D03*
%TO.P,J1,19*%
%TO.N,Net-(J1-Pad19)*%
X151892000Y-56642000D03*
%TO.P,J1,20*%
%TO.N,Net-(J1-Pad20)*%
X151892000Y-54102000D03*
%TO.P,J1,21*%
%TO.N,Net-(J1-Pad21)*%
X154432000Y-56642000D03*
%TO.P,J1,22*%
%TO.N,Net-(J1-Pad22)*%
X154432000Y-54102000D03*
%TO.P,J1,23*%
%TO.N,Net-(J1-Pad23)*%
X156972000Y-56642000D03*
%TO.P,J1,24*%
%TO.N,Net-(J1-Pad24)*%
X156972000Y-54102000D03*
%TO.P,J1,25*%
%TO.N,Net-(J1-Pad25)*%
X159512000Y-56642000D03*
%TO.P,J1,26*%
%TO.N,Net-(J1-Pad26)*%
X159512000Y-54102000D03*
%TO.P,J1,27*%
%TO.N,Net-(J1-Pad27)*%
X162052000Y-56642000D03*
%TO.P,J1,28*%
%TO.N,Net-(J1-Pad28)*%
X162052000Y-54102000D03*
%TO.P,J1,29*%
%TO.N,Net-(J1-Pad29)*%
X164592000Y-56642000D03*
%TO.P,J1,30*%
%TO.N,GND*%
X164592000Y-54102000D03*
%TO.P,J1,31*%
%TO.N,+3V3*%
X167132000Y-56642000D03*
%TO.P,J1,32*%
%TO.N,GND*%
X167132000Y-54102000D03*
%TD*%
D13*
%TO.P,J2,1*%
%TO.N,+5V*%
X182626000Y-123825000D03*
D12*
%TO.P,J2,2*%
X180086000Y-123825000D03*
%TO.P,J2,3*%
X182626000Y-121285000D03*
%TO.P,J2,4*%
X180086000Y-121285000D03*
%TO.P,J2,5*%
%TO.N,+3V3*%
X182626000Y-118745000D03*
%TO.P,J2,6*%
X180086000Y-118745000D03*
%TO.P,J2,7*%
X182626000Y-116205000D03*
%TO.P,J2,8*%
X180086000Y-116205000D03*
%TO.P,J2,9*%
%TO.N,GND*%
X182626000Y-113665000D03*
%TO.P,J2,10*%
X180086000Y-113665000D03*
%TO.P,J2,11*%
%TO.N,/PE2*%
X182626000Y-111125000D03*
%TO.P,J2,12*%
%TO.N,/PE3*%
X180086000Y-111125000D03*
%TO.P,J2,13*%
%TO.N,/PE4*%
X182626000Y-108585000D03*
%TO.P,J2,14*%
%TO.N,IN_4*%
X180086000Y-108585000D03*
%TO.P,J2,15*%
%TO.N,IN_6*%
X182626000Y-106045000D03*
%TO.P,J2,16*%
%TO.N,/PC13*%
X180086000Y-106045000D03*
%TO.P,J2,17*%
%TO.N,OUT_1*%
X182626000Y-103505000D03*
%TO.P,J2,18*%
%TO.N,OUT_4*%
X180086000Y-103505000D03*
%TO.P,J2,19*%
%TO.N,OUT_6*%
X182626000Y-100965000D03*
%TO.P,J2,20*%
%TO.N,OUT_2*%
X180086000Y-100965000D03*
%TO.P,J2,21*%
%TO.N,/VREF-*%
X182626000Y-98425000D03*
%TO.P,J2,22*%
%TO.N,/VREF+*%
X180086000Y-98425000D03*
%TO.P,J2,23*%
%TO.N,/PA0-WK_UP*%
X182626000Y-95885000D03*
%TO.P,J2,24*%
%TO.N,/PA1*%
X180086000Y-95885000D03*
%TO.P,J2,25*%
%TO.N,/PA2*%
X182626000Y-93345000D03*
%TO.P,J2,26*%
%TO.N,/NUM_LK*%
X180086000Y-93345000D03*
%TO.P,J2,27*%
%TO.N,/PA4*%
X182626000Y-90805000D03*
%TO.P,J2,28*%
%TO.N,/COMPOSE*%
X180086000Y-90805000D03*
%TO.P,J2,29*%
%TO.N,/CAPSLK*%
X182626000Y-88265000D03*
%TO.P,J2,30*%
%TO.N,/KANA*%
X180086000Y-88265000D03*
%TO.P,J2,31*%
%TO.N,OUT_7*%
X182626000Y-85725000D03*
%TO.P,J2,32*%
%TO.N,OUT_0*%
X180086000Y-85725000D03*
%TO.P,J2,33*%
%TO.N,/PB0*%
X182626000Y-83185000D03*
%TO.P,J2,34*%
%TO.N,/PB1*%
X180086000Y-83185000D03*
%TO.P,J2,35*%
%TO.N,IN_2*%
X182626000Y-80645000D03*
%TO.P,J2,36*%
%TO.N,IN_7*%
X180086000Y-80645000D03*
%TO.P,J2,37*%
%TO.N,IN_5*%
X182626000Y-78105000D03*
%TO.P,J2,38*%
%TO.N,IN_1*%
X180086000Y-78105000D03*
%TO.P,J2,39*%
%TO.N,IN_0*%
X182626000Y-75565000D03*
%TO.P,J2,40*%
%TO.N,IN_3*%
X180086000Y-75565000D03*
%TO.P,J2,41*%
%TO.N,RSC*%
X182626000Y-73025000D03*
%TO.P,J2,42*%
%TO.N,START*%
X180086000Y-73025000D03*
%TO.P,J2,43*%
%TO.N,SELECT*%
X182626000Y-70485000D03*
%TO.P,J2,44*%
%TO.N,/PB10*%
X180086000Y-70485000D03*
%TO.P,J2,45*%
%TO.N,/PB11*%
X182626000Y-67945000D03*
%TO.P,J2,46*%
%TO.N,/PB12*%
X180086000Y-67945000D03*
%TO.P,J2,47*%
%TO.N,/PB13*%
X182626000Y-65405000D03*
%TO.P,J2,48*%
%TO.N,/PB14*%
X180086000Y-65405000D03*
%TD*%
%TO.P,J3,48*%
%TO.N,/PB15*%
X114046000Y-65405000D03*
%TO.P,J3,47*%
%TO.N,OUT_FN*%
X116586000Y-65405000D03*
%TO.P,J3,46*%
%TO.N,/PD9*%
X114046000Y-67945000D03*
%TO.P,J3,45*%
%TO.N,/PD10*%
X116586000Y-67945000D03*
%TO.P,J3,44*%
%TO.N,/PD11*%
X114046000Y-70485000D03*
%TO.P,J3,43*%
%TO.N,/PD12*%
X116586000Y-70485000D03*
%TO.P,J3,42*%
%TO.N,/PD13*%
X114046000Y-73025000D03*
%TO.P,J3,41*%
%TO.N,/PD14*%
X116586000Y-73025000D03*
%TO.P,J3,40*%
%TO.N,/PD15*%
X114046000Y-75565000D03*
%TO.P,J3,39*%
%TO.N,OUT_3*%
X116586000Y-75565000D03*
%TO.P,J3,38*%
%TO.N,OUT_5*%
X114046000Y-78105000D03*
%TO.P,J3,37*%
%TO.N,/PC8*%
X116586000Y-78105000D03*
%TO.P,J3,36*%
%TO.N,/PC9*%
X114046000Y-80645000D03*
%TO.P,J3,35*%
%TO.N,/PA8*%
X116586000Y-80645000D03*
%TO.P,J3,34*%
%TO.N,/PA9-TXD1*%
X114046000Y-83185000D03*
%TO.P,J3,33*%
%TO.N,/PA10-RXD1*%
X116586000Y-83185000D03*
%TO.P,J3,32*%
%TO.N,/PA11-USB_DM*%
X114046000Y-85725000D03*
%TO.P,J3,31*%
%TO.N,/PA12-USB_DP*%
X116586000Y-85725000D03*
%TO.P,J3,30*%
%TO.N,/PA15-TDI_SWD*%
X114046000Y-88265000D03*
%TO.P,J3,29*%
%TO.N,/PC10*%
X116586000Y-88265000D03*
%TO.P,J3,28*%
%TO.N,/PC11*%
X114046000Y-90805000D03*
%TO.P,J3,27*%
%TO.N,/PC12*%
X116586000Y-90805000D03*
%TO.P,J3,26*%
%TO.N,OPTION*%
X114046000Y-93345000D03*
%TO.P,J3,25*%
%TO.N,RESET*%
X116586000Y-93345000D03*
%TO.P,J3,24*%
%TO.N,/PD2*%
X114046000Y-95885000D03*
%TO.P,J3,23*%
%TO.N,/PD3*%
X116586000Y-95885000D03*
%TO.P,J3,22*%
%TO.N,/PD4*%
X114046000Y-98425000D03*
%TO.P,J3,21*%
%TO.N,/PD5*%
X116586000Y-98425000D03*
%TO.P,J3,20*%
%TO.N,/PD6*%
X114046000Y-100965000D03*
%TO.P,J3,19*%
%TO.N,/PD7*%
X116586000Y-100965000D03*
%TO.P,J3,18*%
%TO.N,/PB3-TDO_SWD*%
X114046000Y-103505000D03*
%TO.P,J3,17*%
%TO.N,/PB5*%
X116586000Y-103505000D03*
%TO.P,J3,16*%
%TO.N,/PB6*%
X114046000Y-106045000D03*
%TO.P,J3,15*%
%TO.N,/PB7*%
X116586000Y-106045000D03*
%TO.P,J3,14*%
%TO.N,/PB8*%
X114046000Y-108585000D03*
%TO.P,J3,13*%
%TO.N,/PB9*%
X116586000Y-108585000D03*
%TO.P,J3,12*%
%TO.N,/PE0*%
X114046000Y-111125000D03*
%TO.P,J3,11*%
%TO.N,/PE1*%
X116586000Y-111125000D03*
%TO.P,J3,10*%
%TO.N,GND*%
X114046000Y-113665000D03*
%TO.P,J3,9*%
X116586000Y-113665000D03*
%TO.P,J3,8*%
X114046000Y-116205000D03*
%TO.P,J3,7*%
X116586000Y-116205000D03*
%TO.P,J3,6*%
%TO.N,/PB2-BOOT1*%
X114046000Y-118745000D03*
%TO.P,J3,5*%
%TO.N,/BOOT0*%
X116586000Y-118745000D03*
%TO.P,J3,4*%
%TO.N,+3V3*%
X114046000Y-121285000D03*
%TO.P,J3,3*%
X116586000Y-121285000D03*
%TO.P,J3,2*%
X114046000Y-123825000D03*
D13*
%TO.P,J3,1*%
X116586000Y-123825000D03*
%TD*%
%TO.P,J4,1*%
%TO.N,+5V*%
%TA.AperFunction,ComponentPad*%
G36*
G01*
X168441000Y-73371000D02*
X168441000Y-72171000D01*
G75*
G02*
X168691000Y-71921000I250000J0D01*
G01*
X169891000Y-71921000D01*
G75*
G02*
X170141000Y-72171000I0J-250000D01*
G01*
X170141000Y-73371000D01*
G75*
G02*
X169891000Y-73621000I-250000J0D01*
G01*
X168691000Y-73621000D01*
G75*
G02*
X168441000Y-73371000I0J250000D01*
G01*
G37*
%TD.AperFunction*%
D16*
%TO.P,J4,3*%
%TO.N,GND*%
X169291000Y-75311000D03*
%TO.P,J4,5*%
%TO.N,OUT_3*%
X169291000Y-77851000D03*
%TO.P,J4,7*%
%TO.N,OUT_7*%
X169291000Y-80391000D03*
%TO.P,J4,9*%
%TO.N,IN_7*%
X169291000Y-82931000D03*
%TO.P,J4,11*%
%TO.N,IN_1*%
X169291000Y-85471000D03*
%TO.P,J4,13*%
%TO.N,OUT_1*%
X169291000Y-88011000D03*
%TO.P,J4,15*%
%TO.N,OUT_2*%
X169291000Y-90551000D03*
%TO.P,J4,17*%
%TO.N,IN_0*%
X169291000Y-93091000D03*
%TO.P,J4,19*%
%TO.N,IN_4*%
X169291000Y-95631000D03*
%TO.P,J4,21*%
%TO.N,START*%
X169291000Y-98171000D03*
%TO.P,J4,23*%
%TO.N,OPTION*%
X169291000Y-100711000D03*
%TO.P,J4,25*%
%TO.N,LSC*%
X169291000Y-103251000D03*
%TO.P,J4,27*%
%TO.N,Net-(J4-Pad27)*%
X169291000Y-105791000D03*
%TO.P,J4,29*%
%TO.N,Net-(J4-Pad29)*%
X169291000Y-108331000D03*
%TO.P,J4,31*%
%TO.N,Net-(J4-Pad31)*%
X169291000Y-110871000D03*
%TO.P,J4,33*%
%TO.N,Net-(J4-Pad33)*%
X169291000Y-113411000D03*
%TO.P,J4,2*%
%TO.N,~LED*%
X171831000Y-72771000D03*
%TO.P,J4,4*%
%TO.N,IN_6*%
X171831000Y-75311000D03*
%TO.P,J4,6*%
%TO.N,OUT_5*%
X171831000Y-77851000D03*
%TO.P,J4,8*%
%TO.N,IN_2*%
X171831000Y-80391000D03*
%TO.P,J4,10*%
%TO.N,IN_5*%
X171831000Y-82931000D03*
%TO.P,J4,12*%
%TO.N,OUT_6*%
X171831000Y-85471000D03*
%TO.P,J4,14*%
%TO.N,OUT_4*%
X171831000Y-88011000D03*
%TO.P,J4,16*%
%TO.N,IN_3*%
X171831000Y-90551000D03*
%TO.P,J4,18*%
%TO.N,OUT_0*%
X171831000Y-93091000D03*
%TO.P,J4,20*%
%TO.N,RSC*%
X171831000Y-95631000D03*
%TO.P,J4,22*%
%TO.N,SELECT*%
X171831000Y-98171000D03*
%TO.P,J4,24*%
%TO.N,RESET*%
X171831000Y-100711000D03*
%TO.P,J4,26*%
%TO.N,OUT_FN*%
X171831000Y-103251000D03*
%TO.P,J4,28*%
%TO.N,Net-(J4-Pad28)*%
X171831000Y-105791000D03*
%TO.P,J4,30*%
%TO.N,Net-(J4-Pad30)*%
X171831000Y-108331000D03*
%TO.P,J4,32*%
%TO.N,Net-(J4-Pad32)*%
X171831000Y-110871000D03*
%TO.P,J4,34*%
%TO.N,Net-(J4-Pad34)*%
X171831000Y-113411000D03*
%TD*%
D17*
%TO.P,J5,1*%
%TO.N,+5V*%
X128671000Y-72456000D03*
%TO.P,J5,2*%
%TO.N,~LED*%
X131171000Y-73706000D03*
%TO.P,J5,3*%
%TO.N,GND*%
X128671000Y-74956000D03*
%TO.P,J5,4*%
%TO.N,IN_6*%
X131171000Y-76206000D03*
%TO.P,J5,5*%
%TO.N,OUT_3*%
X128671000Y-77456000D03*
%TO.P,J5,6*%
%TO.N,OUT_5*%
X131171000Y-78706000D03*
%TO.P,J5,7*%
%TO.N,OUT_7*%
X128671000Y-79956000D03*
%TO.P,J5,8*%
%TO.N,IN_2*%
X131171000Y-81206000D03*
%TO.P,J5,9*%
%TO.N,IN_7*%
X128671000Y-82456000D03*
%TO.P,J5,10*%
%TO.N,IN_5*%
X131171000Y-83706000D03*
%TO.P,J5,11*%
%TO.N,IN_1*%
X128671000Y-84956000D03*
%TO.P,J5,12*%
%TO.N,OUT_6*%
X131171000Y-86206000D03*
%TO.P,J5,13*%
%TO.N,OUT_1*%
X128671000Y-87456000D03*
%TO.P,J5,14*%
%TO.N,OUT_4*%
X131171000Y-88706000D03*
%TO.P,J5,15*%
%TO.N,OUT_2*%
X128671000Y-89956000D03*
%TO.P,J5,16*%
%TO.N,IN_3*%
X131171000Y-91206000D03*
%TO.P,J5,17*%
%TO.N,IN_0*%
X128671000Y-92456000D03*
%TO.P,J5,18*%
%TO.N,OUT_0*%
X131171000Y-93706000D03*
%TO.P,J5,19*%
%TO.N,IN_4*%
X128671000Y-94956000D03*
%TO.P,J5,20*%
%TO.N,RSC*%
X131171000Y-96206000D03*
%TO.P,J5,21*%
%TO.N,START*%
X128671000Y-97456000D03*
%TO.P,J5,22*%
%TO.N,SELECT*%
X131171000Y-98706000D03*
%TO.P,J5,23*%
%TO.N,OPTION*%
X128671000Y-99956000D03*
%TO.P,J5,24*%
%TO.N,RESET*%
X131171000Y-101206000D03*
%TO.P,J5,25*%
%TO.N,LSC*%
X128671000Y-102456000D03*
%TO.P,J5,26*%
%TO.N,OUT_FN*%
X131171000Y-103706000D03*
%TO.P,J5,27*%
%TO.N,Net-(J5-Pad27)*%
X128671000Y-104956000D03*
%TO.P,J5,28*%
%TO.N,Net-(J5-Pad28)*%
X131171000Y-106206000D03*
%TO.P,J5,29*%
%TO.N,Net-(J5-Pad29)*%
X128671000Y-107456000D03*
%TO.P,J5,30*%
%TO.N,Net-(J5-Pad30)*%
X131171000Y-108706000D03*
%TO.P,J5,31*%
%TO.N,Net-(J5-Pad31)*%
X128671000Y-109956000D03*
%TO.P,J5,32*%
%TO.N,Net-(J5-Pad32)*%
X131171000Y-111206000D03*
%TD*%
D11*
%TO.P,R1,1*%
%TO.N,~LED*%
X148971000Y-66421000D03*
D10*
%TO.P,R1,2*%
%TO.N,+5V*%
X148971000Y-63881000D03*
%TD*%
D18*
%TO.N,+5V*%
X174492200Y-117051800D03*
%TO.N,IN_4*%
X176383800Y-108585000D03*
%TO.N,IN_6*%
X173300800Y-105572700D03*
%TO.N,OUT_1*%
X174591500Y-104721200D03*
%TO.N,OUT_2*%
X172644500Y-94388000D03*
%TO.N,OUT_7*%
X173976300Y-83502100D03*
%TO.N,OUT_0*%
X175908900Y-88898800D03*
%TO.N,IN_1*%
X176412800Y-82754300D03*
%TO.N,IN_0*%
X177057300Y-78723000D03*
%TD*%
D19*
%TO.N,GND*%
X116586000Y-116205000D02*
X117761300Y-116205000D01*
X178910700Y-113665000D02*
X176370700Y-116205000D01*
X176370700Y-116205000D02*
X117761300Y-116205000D01*
X130051000Y-63881000D02*
X130051000Y-62705700D01*
X130051000Y-62705700D02*
X129032000Y-61686700D01*
X129032000Y-61686700D02*
X129032000Y-56642000D01*
X154051000Y-65261000D02*
X155276300Y-65261000D01*
X164592000Y-54689600D02*
X163322000Y-55959600D01*
X163322000Y-55959600D02*
X163322000Y-57052200D01*
X163322000Y-57052200D02*
X156338500Y-64035700D01*
X156338500Y-64035700D02*
X156072800Y-64035700D01*
X156072800Y-64035700D02*
X155276300Y-64832200D01*
X155276300Y-64832200D02*
X155276300Y-65261000D01*
X165956700Y-54102000D02*
X165369100Y-54689600D01*
X165369100Y-54689600D02*
X164592000Y-54689600D01*
X167132000Y-54102000D02*
X165956700Y-54102000D01*
X164592000Y-54102000D02*
X164592000Y-54689600D01*
X180086000Y-113665000D02*
X178910700Y-113665000D01*
X182626000Y-113665000D02*
X180086000Y-113665000D01*
X116586000Y-116205000D02*
X114046000Y-116205000D01*
%TO.N,~LED*%
X156591000Y-65261000D02*
X164321000Y-65261000D01*
X164321000Y-65261000D02*
X171831000Y-72771000D01*
X131171000Y-73706000D02*
X138456000Y-66421000D01*
X138456000Y-66421000D02*
X148971000Y-66421000D01*
%TO.N,+3V3*%
X130591000Y-132261000D02*
X122155000Y-123825000D01*
X122155000Y-123825000D02*
X116586000Y-123825000D01*
X162191000Y-132461000D02*
X160965600Y-133686400D01*
X160965600Y-133686400D02*
X158530700Y-133686400D01*
X158530700Y-133686400D02*
X157205300Y-132361000D01*
X157205300Y-132361000D02*
X151691000Y-132361000D01*
X172591000Y-130067600D02*
X164584400Y-130067600D01*
X164584400Y-130067600D02*
X162191000Y-132461000D01*
X141091000Y-132361000D02*
X139865600Y-133586400D01*
X139865600Y-133586400D02*
X137393200Y-133586400D01*
X137393200Y-133586400D02*
X136067800Y-132261000D01*
X136067800Y-132261000D02*
X130591000Y-132261000D01*
X151691000Y-132361000D02*
X150465600Y-133586400D01*
X150465600Y-133586400D02*
X148080700Y-133586400D01*
X148080700Y-133586400D02*
X146855300Y-132361000D01*
X146855300Y-132361000D02*
X141091000Y-132361000D01*
X172591000Y-130067600D02*
X172591000Y-132561000D01*
X180086000Y-119920300D02*
X179718700Y-119920300D01*
X179718700Y-119920300D02*
X172591000Y-127048000D01*
X172591000Y-127048000D02*
X172591000Y-130067600D01*
X180086000Y-118745000D02*
X180086000Y-119920300D01*
%TO.N,+5V*%
X180086000Y-121285000D02*
X181261300Y-121285000D01*
X181271700Y-120099300D02*
X181261300Y-120109700D01*
X181261300Y-120109700D02*
X181261300Y-121285000D01*
X174492200Y-117051800D02*
X174915400Y-117475000D01*
X174915400Y-117475000D02*
X180480800Y-117475000D01*
X180480800Y-117475000D02*
X181271700Y-118265900D01*
X181271700Y-118265900D02*
X181271700Y-120099300D01*
X181271700Y-120099300D02*
X182615600Y-120099300D01*
X182615600Y-120099300D02*
X182626000Y-120109700D01*
X182626000Y-121285000D02*
X182626000Y-120109700D01*
X128671000Y-72456000D02*
X137246000Y-63881000D01*
X137246000Y-63881000D02*
X148971000Y-63881000D01*
X148971000Y-63881000D02*
X149996300Y-63881000D01*
X149996300Y-63881000D02*
X158886300Y-72771000D01*
X158886300Y-72771000D02*
X169291000Y-72771000D01*
%TO.N,IN_4*%
X178910700Y-108585000D02*
X176383800Y-108585000D01*
X180086000Y-108585000D02*
X178910700Y-108585000D01*
X128671000Y-94956000D02*
X168616000Y-94956000D01*
X168616000Y-94956000D02*
X169291000Y-95631000D01*
%TO.N,IN_6*%
X181450700Y-106045000D02*
X181450700Y-106412300D01*
X181450700Y-106412300D02*
X180607100Y-107255900D01*
X180607100Y-107255900D02*
X174984000Y-107255900D01*
X174984000Y-107255900D02*
X173300800Y-105572700D01*
X182626000Y-106045000D02*
X181450700Y-106045000D01*
X131171000Y-76206000D02*
X133282900Y-74094100D01*
X133282900Y-74094100D02*
X170614100Y-74094100D01*
X170614100Y-74094100D02*
X171831000Y-75311000D01*
%TO.N,OUT_1*%
X182626000Y-103505000D02*
X181450700Y-103505000D01*
X174591500Y-104721200D02*
X180601800Y-104721200D01*
X180601800Y-104721200D02*
X181450700Y-103872300D01*
X181450700Y-103872300D02*
X181450700Y-103505000D01*
X128671000Y-87456000D02*
X168736000Y-87456000D01*
X168736000Y-87456000D02*
X169291000Y-88011000D01*
%TO.N,OUT_4*%
X171422400Y-88419600D02*
X171831000Y-88011000D01*
X131171000Y-88706000D02*
X131651400Y-89186400D01*
X131651400Y-89186400D02*
X170655600Y-89186400D01*
X170655600Y-89186400D02*
X171422400Y-88419600D01*
X171422400Y-88419600D02*
X173369900Y-90367200D01*
X173369900Y-90367200D02*
X173369900Y-93373200D01*
X173369900Y-93373200D02*
X179725100Y-99728400D01*
X179725100Y-99728400D02*
X180533600Y-99728400D01*
X180533600Y-99728400D02*
X181261300Y-100456100D01*
X181261300Y-100456100D02*
X181261300Y-101521800D01*
X181261300Y-101521800D02*
X180453400Y-102329700D01*
X180453400Y-102329700D02*
X180086000Y-102329700D01*
X180086000Y-103505000D02*
X180086000Y-102329700D01*
%TO.N,OUT_6*%
X171418900Y-85883100D02*
X170627900Y-86674100D01*
X170627900Y-86674100D02*
X131639100Y-86674100D01*
X131639100Y-86674100D02*
X131171000Y-86206000D01*
X171831000Y-85471000D02*
X171418900Y-85883100D01*
X171418900Y-85883100D02*
X178515900Y-92980100D01*
X178515900Y-92980100D02*
X178515900Y-95977800D01*
X178515900Y-95977800D02*
X179787700Y-97249600D01*
X179787700Y-97249600D02*
X180611600Y-97249600D01*
X180611600Y-97249600D02*
X181450700Y-98088700D01*
X181450700Y-98088700D02*
X181450700Y-98981800D01*
X181450700Y-98981800D02*
X182258600Y-99789700D01*
X182258600Y-99789700D02*
X182626000Y-99789700D01*
X182626000Y-100965000D02*
X182626000Y-99789700D01*
%TO.N,OUT_2*%
X180086000Y-100965000D02*
X178910700Y-100965000D01*
X178910700Y-100965000D02*
X178910700Y-100654200D01*
X178910700Y-100654200D02*
X172644500Y-94388000D01*
X169291000Y-90551000D02*
X168696000Y-89956000D01*
X168696000Y-89956000D02*
X128671000Y-89956000D01*
%TO.N,/PA4*%
X182626000Y-90805000D02*
X182626000Y-91980300D01*
X182626000Y-91980300D02*
X182993300Y-91980300D01*
X182993300Y-91980300D02*
X183801400Y-92788400D01*
X183801400Y-92788400D02*
X183801400Y-124863700D01*
X183801400Y-124863700D02*
X173978700Y-134686400D01*
X173978700Y-134686400D02*
X147076400Y-134686400D01*
X147076400Y-134686400D02*
X145951000Y-133561000D01*
%TO.N,OUT_7*%
X181450700Y-85725000D02*
X181450700Y-85357600D01*
X181450700Y-85357600D02*
X180642800Y-84549700D01*
X180642800Y-84549700D02*
X175023900Y-84549700D01*
X175023900Y-84549700D02*
X173976300Y-83502100D01*
X182626000Y-85725000D02*
X181450700Y-85725000D01*
X128671000Y-79956000D02*
X168856000Y-79956000D01*
X168856000Y-79956000D02*
X169291000Y-80391000D01*
%TO.N,OUT_0*%
X180086000Y-85725000D02*
X178910700Y-85725000D01*
X175908900Y-88898800D02*
X178910700Y-85897000D01*
X178910700Y-85897000D02*
X178910700Y-85725000D01*
X131171000Y-93706000D02*
X131740900Y-94275900D01*
X131740900Y-94275900D02*
X170646100Y-94275900D01*
X170646100Y-94275900D02*
X171831000Y-93091000D01*
%TO.N,IN_2*%
X182626000Y-80645000D02*
X181450700Y-80645000D01*
X171831000Y-80391000D02*
X172752300Y-79469700D01*
X172752300Y-79469700D02*
X180642800Y-79469700D01*
X180642800Y-79469700D02*
X181450700Y-80277600D01*
X181450700Y-80277600D02*
X181450700Y-80645000D01*
X131171000Y-81206000D02*
X131555200Y-81590200D01*
X131555200Y-81590200D02*
X170631800Y-81590200D01*
X170631800Y-81590200D02*
X171831000Y-80391000D01*
%TO.N,IN_7*%
X178910700Y-80645000D02*
X177977000Y-81578700D01*
X177977000Y-81578700D02*
X171280200Y-81578700D01*
X171280200Y-81578700D02*
X170165400Y-82693500D01*
X170165400Y-82693500D02*
X169291000Y-82693500D01*
X128671000Y-82456000D02*
X169053500Y-82456000D01*
X169053500Y-82456000D02*
X169291000Y-82693500D01*
X169291000Y-82693500D02*
X169291000Y-82931000D01*
X180086000Y-80645000D02*
X178910700Y-80645000D01*
%TO.N,IN_5*%
X182626000Y-79280300D02*
X182993400Y-79280300D01*
X182993400Y-79280300D02*
X183801300Y-80088200D01*
X183801300Y-80088200D02*
X183801300Y-81157600D01*
X183801300Y-81157600D02*
X183043900Y-81915000D01*
X183043900Y-81915000D02*
X178760300Y-81915000D01*
X178760300Y-81915000D02*
X178646300Y-82029000D01*
X178646300Y-82029000D02*
X172733000Y-82029000D01*
X172733000Y-82029000D02*
X171831000Y-82931000D01*
X182626000Y-78105000D02*
X182626000Y-79280300D01*
X131171000Y-83706000D02*
X131593900Y-84128900D01*
X131593900Y-84128900D02*
X170633100Y-84128900D01*
X170633100Y-84128900D02*
X171831000Y-82931000D01*
%TO.N,IN_1*%
X169291000Y-85342200D02*
X169291000Y-85471000D01*
X128671000Y-84956000D02*
X168904800Y-84956000D01*
X168904800Y-84956000D02*
X169291000Y-85342200D01*
X169291000Y-85342200D02*
X170056700Y-85342200D01*
X170056700Y-85342200D02*
X171197900Y-84201000D01*
X171197900Y-84201000D02*
X172251500Y-84201000D01*
X172251500Y-84201000D02*
X173698200Y-82754300D01*
X173698200Y-82754300D02*
X176412800Y-82754300D01*
%TO.N,IN_0*%
X181450700Y-75565000D02*
X181450700Y-75932400D01*
X181450700Y-75932400D02*
X180642800Y-76740300D01*
X180642800Y-76740300D02*
X179040000Y-76740300D01*
X179040000Y-76740300D02*
X177057300Y-78723000D01*
X182626000Y-75565000D02*
X181450700Y-75565000D01*
X128671000Y-92456000D02*
X168656000Y-92456000D01*
X168656000Y-92456000D02*
X169291000Y-93091000D01*
%TO.N,IN_3*%
X131171000Y-91206000D02*
X131709100Y-91744100D01*
X131709100Y-91744100D02*
X170637900Y-91744100D01*
X170637900Y-91744100D02*
X171831000Y-90551000D01*
%TO.N,RSC*%
X171831000Y-95631000D02*
X170655600Y-96806400D01*
X170655600Y-96806400D02*
X131771400Y-96806400D01*
X131771400Y-96806400D02*
X131171000Y-96206000D01*
%TO.N,START*%
X128671000Y-97456000D02*
X168576000Y-97456000D01*
X168576000Y-97456000D02*
X169291000Y-98171000D01*
%TO.N,SELECT*%
X131171000Y-98706000D02*
X131814100Y-99349100D01*
X131814100Y-99349100D02*
X170652900Y-99349100D01*
X170652900Y-99349100D02*
X171831000Y-98171000D01*
%TO.N,OUT_FN*%
X131171000Y-103706000D02*
X131935100Y-104470100D01*
X131935100Y-104470100D02*
X170611900Y-104470100D01*
X170611900Y-104470100D02*
X171831000Y-103251000D01*
%TO.N,OUT_3*%
X169291000Y-77851000D02*
X168896000Y-77456000D01*
X168896000Y-77456000D02*
X128671000Y-77456000D01*
X116586000Y-75565000D02*
X117761300Y-75565000D01*
X128671000Y-77456000D02*
X119652300Y-77456000D01*
X119652300Y-77456000D02*
X117761300Y-75565000D01*
%TO.N,OUT_5*%
X171831000Y-77851000D02*
X171035500Y-77851000D01*
X171035500Y-77851000D02*
X169849600Y-79036900D01*
X169849600Y-79036900D02*
X131501900Y-79036900D01*
X131501900Y-79036900D02*
X131171000Y-78706000D01*
X131171000Y-78706000D02*
X128120000Y-78706000D01*
X128120000Y-78706000D02*
X127545700Y-79280300D01*
X127545700Y-79280300D02*
X116029200Y-79280300D01*
X116029200Y-79280300D02*
X115221300Y-78472400D01*
X115221300Y-78472400D02*
X115221300Y-78105000D01*
X114046000Y-78105000D02*
X115221300Y-78105000D01*
%TO.N,/PA9-TXD1*%
X135131000Y-63881000D02*
X133955700Y-63881000D01*
X114046000Y-83185000D02*
X114046000Y-82009700D01*
X114046000Y-82009700D02*
X113678700Y-82009700D01*
X113678700Y-82009700D02*
X112842100Y-81173100D01*
X112842100Y-81173100D02*
X112842100Y-77579900D01*
X112842100Y-77579900D02*
X113681600Y-76740400D01*
X113681600Y-76740400D02*
X114571600Y-76740400D01*
X114571600Y-76740400D02*
X115410600Y-75901400D01*
X115410600Y-75901400D02*
X115410600Y-75039400D01*
X115410600Y-75039400D02*
X116070800Y-74379200D01*
X116070800Y-74379200D02*
X123824800Y-74379200D01*
X123824800Y-74379200D02*
X133955700Y-64248300D01*
X133955700Y-64248300D02*
X133955700Y-63881000D01*
%TO.N,OPTION*%
X128671000Y-99956000D02*
X120884700Y-92169700D01*
X120884700Y-92169700D02*
X116029200Y-92169700D01*
X116029200Y-92169700D02*
X115221300Y-92977600D01*
X115221300Y-92977600D02*
X115221300Y-93345000D01*
X169291000Y-100711000D02*
X168536000Y-99956000D01*
X168536000Y-99956000D02*
X128671000Y-99956000D01*
X114046000Y-93345000D02*
X115221300Y-93345000D01*
%TO.N,RESET*%
X116586000Y-93345000D02*
X117761300Y-93345000D01*
X131171000Y-101206000D02*
X131861600Y-101896600D01*
X131861600Y-101896600D02*
X170645400Y-101896600D01*
X170645400Y-101896600D02*
X171831000Y-100711000D01*
X131171000Y-101206000D02*
X125622300Y-101206000D01*
X125622300Y-101206000D02*
X117761300Y-93345000D01*
%TO.N,LSC*%
X128671000Y-102456000D02*
X168496000Y-102456000D01*
X168496000Y-102456000D02*
X169291000Y-103251000D01*
%TO.N,Net-(D3-Pad1)*%
X149151000Y-132361000D02*
X147925700Y-132361000D01*
X145951000Y-131021000D02*
X146976300Y-131021000D01*
X147925700Y-132361000D02*
X147925700Y-131970400D01*
X147925700Y-131970400D02*
X146976300Y-131021000D01*
%TO.N,Net-(D4-Pad1)*%
X159651000Y-132461000D02*
X158425700Y-132461000D01*
X156351000Y-131121000D02*
X157376300Y-131121000D01*
X158425700Y-132461000D02*
X158425700Y-132170400D01*
X158425700Y-132170400D02*
X157376300Y-131121000D01*
%TO.N,Net-(D5-Pad1)*%
X138551000Y-132361000D02*
X137325700Y-132361000D01*
X135351000Y-131121000D02*
X136376300Y-131121000D01*
X137325700Y-132361000D02*
X137325700Y-132070400D01*
X137325700Y-132070400D02*
X136376300Y-131121000D01*
%TO.N,Net-(D6-Pad1)*%
X170051000Y-132561000D02*
X168825700Y-132561000D01*
X166851000Y-131121000D02*
X167876300Y-131121000D01*
X168825700Y-132561000D02*
X168825700Y-132070400D01*
X168825700Y-132070400D02*
X167876300Y-131121000D01*
%TD*%
D20*
%TO.N,GND*%
X125058500Y-101717002D02*
X125082299Y-101746001D01*
X125198024Y-101840974D01*
X125330053Y-101911546D01*
X125473314Y-101955003D01*
X125584967Y-101966000D01*
X125584977Y-101966000D01*
X125622300Y-101969676D01*
X125659623Y-101966000D01*
X127320733Y-101966000D01*
X127291147Y-102037426D01*
X127236000Y-102314665D01*
X127236000Y-102597335D01*
X127291147Y-102874574D01*
X127399320Y-103135727D01*
X127556363Y-103370759D01*
X127756241Y-103570637D01*
X127958827Y-103706000D01*
X127756241Y-103841363D01*
X127556363Y-104041241D01*
X127399320Y-104276273D01*
X127291147Y-104537426D01*
X127236000Y-104814665D01*
X127236000Y-105097335D01*
X127291147Y-105374574D01*
X127399320Y-105635727D01*
X127556363Y-105870759D01*
X127756241Y-106070637D01*
X127958827Y-106206000D01*
X127756241Y-106341363D01*
X127556363Y-106541241D01*
X127399320Y-106776273D01*
X127291147Y-107037426D01*
X127236000Y-107314665D01*
X127236000Y-107597335D01*
X127291147Y-107874574D01*
X127399320Y-108135727D01*
X127556363Y-108370759D01*
X127756241Y-108570637D01*
X127958827Y-108706000D01*
X127756241Y-108841363D01*
X127556363Y-109041241D01*
X127399320Y-109276273D01*
X127291147Y-109537426D01*
X127236000Y-109814665D01*
X127236000Y-110097335D01*
X127291147Y-110374574D01*
X127399320Y-110635727D01*
X127556363Y-110870759D01*
X127756241Y-111070637D01*
X127991273Y-111227680D01*
X128252426Y-111335853D01*
X128529665Y-111391000D01*
X128812335Y-111391000D01*
X129089574Y-111335853D01*
X129350727Y-111227680D01*
X129585759Y-111070637D01*
X129771823Y-110884573D01*
X129736000Y-111064665D01*
X129736000Y-111347335D01*
X129791147Y-111624574D01*
X129899320Y-111885727D01*
X130056363Y-112120759D01*
X130256241Y-112320637D01*
X130491273Y-112477680D01*
X130752426Y-112585853D01*
X131029665Y-112641000D01*
X131312335Y-112641000D01*
X131589574Y-112585853D01*
X131850727Y-112477680D01*
X132085759Y-112320637D01*
X132285637Y-112120759D01*
X132442680Y-111885727D01*
X132550853Y-111624574D01*
X132606000Y-111347335D01*
X132606000Y-111064665D01*
X132550853Y-110787426D01*
X132442680Y-110526273D01*
X132285637Y-110291241D01*
X132085759Y-110091363D01*
X131883173Y-109956000D01*
X132085759Y-109820637D01*
X132285637Y-109620759D01*
X132442680Y-109385727D01*
X132550853Y-109124574D01*
X132606000Y-108847335D01*
X132606000Y-108564665D01*
X132550853Y-108287426D01*
X132442680Y-108026273D01*
X132285637Y-107791241D01*
X132085759Y-107591363D01*
X131883173Y-107456000D01*
X132085759Y-107320637D01*
X132285637Y-107120759D01*
X132442680Y-106885727D01*
X132550853Y-106624574D01*
X132606000Y-106347335D01*
X132606000Y-106064665D01*
X132550853Y-105787426D01*
X132442680Y-105526273D01*
X132285637Y-105291241D01*
X132224496Y-105230100D01*
X167915980Y-105230100D01*
X167863068Y-105357842D01*
X167806000Y-105644740D01*
X167806000Y-105937260D01*
X167863068Y-106224158D01*
X167975010Y-106494411D01*
X168137525Y-106737632D01*
X168344368Y-106944475D01*
X168518760Y-107061000D01*
X168344368Y-107177525D01*
X168137525Y-107384368D01*
X167975010Y-107627589D01*
X167863068Y-107897842D01*
X167806000Y-108184740D01*
X167806000Y-108477260D01*
X167863068Y-108764158D01*
X167975010Y-109034411D01*
X168137525Y-109277632D01*
X168344368Y-109484475D01*
X168518760Y-109601000D01*
X168344368Y-109717525D01*
X168137525Y-109924368D01*
X167975010Y-110167589D01*
X167863068Y-110437842D01*
X167806000Y-110724740D01*
X167806000Y-111017260D01*
X167863068Y-111304158D01*
X167975010Y-111574411D01*
X168137525Y-111817632D01*
X168344368Y-112024475D01*
X168518760Y-112141000D01*
X168344368Y-112257525D01*
X168137525Y-112464368D01*
X167975010Y-112707589D01*
X167863068Y-112977842D01*
X167806000Y-113264740D01*
X167806000Y-113557260D01*
X167863068Y-113844158D01*
X167975010Y-114114411D01*
X168137525Y-114357632D01*
X168344368Y-114564475D01*
X168587589Y-114726990D01*
X168857842Y-114838932D01*
X169144740Y-114896000D01*
X169437260Y-114896000D01*
X169724158Y-114838932D01*
X169994411Y-114726990D01*
X170237632Y-114564475D01*
X170444475Y-114357632D01*
X170561000Y-114183240D01*
X170677525Y-114357632D01*
X170884368Y-114564475D01*
X171127589Y-114726990D01*
X171397842Y-114838932D01*
X171684740Y-114896000D01*
X171977260Y-114896000D01*
X172264158Y-114838932D01*
X172534411Y-114726990D01*
X172777632Y-114564475D01*
X172984475Y-114357632D01*
X173146990Y-114114411D01*
X173258932Y-113844158D01*
X173316000Y-113557260D01*
X173316000Y-113264740D01*
X173258932Y-112977842D01*
X173146990Y-112707589D01*
X172984475Y-112464368D01*
X172777632Y-112257525D01*
X172603240Y-112141000D01*
X172777632Y-112024475D01*
X172984475Y-111817632D01*
X173146990Y-111574411D01*
X173258932Y-111304158D01*
X173316000Y-111017260D01*
X173316000Y-110724740D01*
X173258932Y-110437842D01*
X173146990Y-110167589D01*
X172984475Y-109924368D01*
X172777632Y-109717525D01*
X172603240Y-109601000D01*
X172777632Y-109484475D01*
X172984475Y-109277632D01*
X173146990Y-109034411D01*
X173258932Y-108764158D01*
X173316000Y-108477260D01*
X173316000Y-108184740D01*
X173258932Y-107897842D01*
X173146990Y-107627589D01*
X172984475Y-107384368D01*
X172777632Y-107177525D01*
X172603240Y-107061000D01*
X172777632Y-106944475D01*
X172984475Y-106737632D01*
X173086259Y-106585302D01*
X173198861Y-106607700D01*
X173260999Y-106607700D01*
X174420201Y-107766903D01*
X174443999Y-107795901D01*
X174559724Y-107890874D01*
X174691753Y-107961446D01*
X174835014Y-108004903D01*
X174946667Y-108015900D01*
X174946676Y-108015900D01*
X174983999Y-108019576D01*
X175021322Y-108015900D01*
X175519277Y-108015900D01*
X175466595Y-108094744D01*
X175388574Y-108283102D01*
X175348800Y-108483061D01*
X175348800Y-108686939D01*
X175388574Y-108886898D01*
X175466595Y-109075256D01*
X175579863Y-109244774D01*
X175724026Y-109388937D01*
X175893544Y-109502205D01*
X176081902Y-109580226D01*
X176281861Y-109620000D01*
X176485739Y-109620000D01*
X176685698Y-109580226D01*
X176874056Y-109502205D01*
X177043574Y-109388937D01*
X177087511Y-109345000D01*
X178807822Y-109345000D01*
X178932525Y-109531632D01*
X179139368Y-109738475D01*
X179313760Y-109855000D01*
X179139368Y-109971525D01*
X178932525Y-110178368D01*
X178770010Y-110421589D01*
X178658068Y-110691842D01*
X178601000Y-110978740D01*
X178601000Y-111271260D01*
X178658068Y-111558158D01*
X178770010Y-111828411D01*
X178932525Y-112071632D01*
X179139368Y-112278475D01*
X179321534Y-112400195D01*
X179204645Y-112469822D01*
X178988412Y-112664731D01*
X178814359Y-112898080D01*
X178689175Y-113160901D01*
X178644524Y-113308110D01*
X178765845Y-113538000D01*
X179959000Y-113538000D01*
X179959000Y-113518000D01*
X180213000Y-113518000D01*
X180213000Y-113538000D01*
X182499000Y-113538000D01*
X182499000Y-113518000D01*
X182753000Y-113518000D01*
X182753000Y-113538000D01*
X182773000Y-113538000D01*
X182773000Y-113792000D01*
X182753000Y-113792000D01*
X182753000Y-113812000D01*
X182499000Y-113812000D01*
X182499000Y-113792000D01*
X180213000Y-113792000D01*
X180213000Y-113812000D01*
X179959000Y-113812000D01*
X179959000Y-113792000D01*
X178765845Y-113792000D01*
X178644524Y-114021890D01*
X178689175Y-114169099D01*
X178814359Y-114431920D01*
X178988412Y-114665269D01*
X179204645Y-114860178D01*
X179321534Y-114929805D01*
X179139368Y-115051525D01*
X178932525Y-115258368D01*
X178770010Y-115501589D01*
X178658068Y-115771842D01*
X178601000Y-116058740D01*
X178601000Y-116351260D01*
X178658068Y-116638158D01*
X178689897Y-116715000D01*
X175472969Y-116715000D01*
X175409405Y-116561544D01*
X175296137Y-116392026D01*
X175151974Y-116247863D01*
X174982456Y-116134595D01*
X174794098Y-116056574D01*
X174594139Y-116016800D01*
X174390261Y-116016800D01*
X174190302Y-116056574D01*
X174001944Y-116134595D01*
X173832426Y-116247863D01*
X173688263Y-116392026D01*
X173574995Y-116561544D01*
X173496974Y-116749902D01*
X173457200Y-116949861D01*
X173457200Y-117153739D01*
X173496974Y-117353698D01*
X173574995Y-117542056D01*
X173688263Y-117711574D01*
X173832426Y-117855737D01*
X174001944Y-117969005D01*
X174190302Y-118047026D01*
X174390261Y-118086800D01*
X174462886Y-118086800D01*
X174491124Y-118109974D01*
X174623153Y-118180546D01*
X174766414Y-118224003D01*
X174878067Y-118235000D01*
X174878076Y-118235000D01*
X174915399Y-118238676D01*
X174952722Y-118235000D01*
X178689897Y-118235000D01*
X178658068Y-118311842D01*
X178601000Y-118598740D01*
X178601000Y-118891260D01*
X178658068Y-119178158D01*
X178770010Y-119448411D01*
X178908509Y-119655689D01*
X172080003Y-126484196D01*
X172050999Y-126507999D01*
X171995871Y-126575174D01*
X171956026Y-126623724D01*
X171885455Y-126755753D01*
X171885454Y-126755754D01*
X171841997Y-126899015D01*
X171831000Y-127010668D01*
X171831000Y-127010678D01*
X171827324Y-127048000D01*
X171831000Y-127085323D01*
X171831001Y-129307600D01*
X164621725Y-129307600D01*
X164584400Y-129303924D01*
X164547075Y-129307600D01*
X164547067Y-129307600D01*
X164435414Y-129318597D01*
X164292153Y-129362054D01*
X164160124Y-129432626D01*
X164044399Y-129527599D01*
X164020601Y-129556597D01*
X162599930Y-130977269D01*
X162342184Y-130926000D01*
X162039816Y-130926000D01*
X161743257Y-130984989D01*
X161463905Y-131100701D01*
X161212495Y-131268688D01*
X161146056Y-131335127D01*
X161140502Y-131316820D01*
X161081537Y-131206506D01*
X161002185Y-131109815D01*
X160905494Y-131030463D01*
X160795180Y-130971498D01*
X160675482Y-130935188D01*
X160551000Y-130922928D01*
X158751000Y-130922928D01*
X158626518Y-130935188D01*
X158506820Y-130971498D01*
X158396506Y-131030463D01*
X158376765Y-131046664D01*
X157940104Y-130610002D01*
X157916301Y-130580999D01*
X157800576Y-130486026D01*
X157668547Y-130415454D01*
X157525286Y-130371997D01*
X157451250Y-130364705D01*
X157387962Y-130269987D01*
X157202013Y-130084038D01*
X156983359Y-129937939D01*
X156740405Y-129837304D01*
X156482486Y-129786000D01*
X156219514Y-129786000D01*
X155961595Y-129837304D01*
X155718641Y-129937939D01*
X155499987Y-130084038D01*
X155314038Y-130269987D01*
X155167939Y-130488641D01*
X155067304Y-130731595D01*
X155016000Y-130989514D01*
X155016000Y-131252486D01*
X155067304Y-131510405D01*
X155104830Y-131601000D01*
X153029313Y-131601000D01*
X152883312Y-131382495D01*
X152669505Y-131168688D01*
X152418095Y-131000701D01*
X152138743Y-130884989D01*
X151842184Y-130826000D01*
X151539816Y-130826000D01*
X151243257Y-130884989D01*
X150963905Y-131000701D01*
X150712495Y-131168688D01*
X150646056Y-131235127D01*
X150640502Y-131216820D01*
X150581537Y-131106506D01*
X150502185Y-131009815D01*
X150405494Y-130930463D01*
X150295180Y-130871498D01*
X150175482Y-130835188D01*
X150051000Y-130822928D01*
X148251000Y-130822928D01*
X148126518Y-130835188D01*
X148006820Y-130871498D01*
X147938251Y-130908150D01*
X147540104Y-130510002D01*
X147516301Y-130480999D01*
X147400576Y-130386026D01*
X147268547Y-130315454D01*
X147125286Y-130271997D01*
X147051250Y-130264705D01*
X146987962Y-130169987D01*
X146802013Y-129984038D01*
X146583359Y-129837939D01*
X146340405Y-129737304D01*
X146082486Y-129686000D01*
X145819514Y-129686000D01*
X145561595Y-129737304D01*
X145318641Y-129837939D01*
X145099987Y-129984038D01*
X144914038Y-130169987D01*
X144767939Y-130388641D01*
X144667304Y-130631595D01*
X144616000Y-130889514D01*
X144616000Y-131152486D01*
X144667304Y-131410405D01*
X144746251Y-131601000D01*
X142429313Y-131601000D01*
X142283312Y-131382495D01*
X142069505Y-131168688D01*
X141818095Y-131000701D01*
X141538743Y-130884989D01*
X141242184Y-130826000D01*
X140939816Y-130826000D01*
X140643257Y-130884989D01*
X140363905Y-131000701D01*
X140112495Y-131168688D01*
X140046056Y-131235127D01*
X140040502Y-131216820D01*
X139981537Y-131106506D01*
X139902185Y-131009815D01*
X139805494Y-130930463D01*
X139695180Y-130871498D01*
X139575482Y-130835188D01*
X139451000Y-130822928D01*
X137651000Y-130822928D01*
X137526518Y-130835188D01*
X137406820Y-130871498D01*
X137296506Y-130930463D01*
X137276765Y-130946664D01*
X136940104Y-130610002D01*
X136916301Y-130580999D01*
X136800576Y-130486026D01*
X136668547Y-130415454D01*
X136525286Y-130371997D01*
X136451250Y-130364705D01*
X136387962Y-130269987D01*
X136202013Y-130084038D01*
X135983359Y-129937939D01*
X135740405Y-129837304D01*
X135482486Y-129786000D01*
X135219514Y-129786000D01*
X134961595Y-129837304D01*
X134718641Y-129937939D01*
X134499987Y-130084038D01*
X134314038Y-130269987D01*
X134167939Y-130488641D01*
X134067304Y-130731595D01*
X134016000Y-130989514D01*
X134016000Y-131252486D01*
X134065433Y-131501000D01*
X131929313Y-131501000D01*
X131783312Y-131282495D01*
X131569505Y-131068688D01*
X131318095Y-130900701D01*
X131038743Y-130784989D01*
X130742184Y-130726000D01*
X130439816Y-130726000D01*
X130182070Y-130777269D01*
X122718804Y-123314003D01*
X122695001Y-123284999D01*
X122579276Y-123190026D01*
X122447247Y-123119454D01*
X122303986Y-123075997D01*
X122192333Y-123065000D01*
X122192322Y-123065000D01*
X122155000Y-123061324D01*
X122117678Y-123065000D01*
X118074072Y-123065000D01*
X118074072Y-122975000D01*
X118061812Y-122850518D01*
X118025502Y-122730820D01*
X117966537Y-122620506D01*
X117887185Y-122523815D01*
X117790494Y-122444463D01*
X117680180Y-122385498D01*
X117607620Y-122363487D01*
X117739475Y-122231632D01*
X117901990Y-121988411D01*
X118013932Y-121718158D01*
X118071000Y-121431260D01*
X118071000Y-121138740D01*
X118013932Y-120851842D01*
X117901990Y-120581589D01*
X117739475Y-120338368D01*
X117532632Y-120131525D01*
X117358240Y-120015000D01*
X117532632Y-119898475D01*
X117739475Y-119691632D01*
X117901990Y-119448411D01*
X118013932Y-119178158D01*
X118071000Y-118891260D01*
X118071000Y-118598740D01*
X118013932Y-118311842D01*
X117901990Y-118041589D01*
X117739475Y-117798368D01*
X117532632Y-117591525D01*
X117350466Y-117469805D01*
X117467355Y-117400178D01*
X117683588Y-117205269D01*
X117857641Y-116971920D01*
X117982825Y-116709099D01*
X118027476Y-116561890D01*
X117906155Y-116332000D01*
X116713000Y-116332000D01*
X116713000Y-116352000D01*
X116459000Y-116352000D01*
X116459000Y-116332000D01*
X114173000Y-116332000D01*
X114173000Y-116352000D01*
X113919000Y-116352000D01*
X113919000Y-116332000D01*
X113899000Y-116332000D01*
X113899000Y-116078000D01*
X113919000Y-116078000D01*
X113919000Y-113792000D01*
X114173000Y-113792000D01*
X114173000Y-116078000D01*
X116459000Y-116078000D01*
X116459000Y-113792000D01*
X116713000Y-113792000D01*
X116713000Y-116078000D01*
X117906155Y-116078000D01*
X118027476Y-115848110D01*
X117982825Y-115700901D01*
X117857641Y-115438080D01*
X117683588Y-115204731D01*
X117467355Y-115009822D01*
X117341745Y-114935000D01*
X117467355Y-114860178D01*
X117683588Y-114665269D01*
X117857641Y-114431920D01*
X117982825Y-114169099D01*
X118027476Y-114021890D01*
X117906155Y-113792000D01*
X116713000Y-113792000D01*
X116459000Y-113792000D01*
X114173000Y-113792000D01*
X113919000Y-113792000D01*
X113899000Y-113792000D01*
X113899000Y-113538000D01*
X113919000Y-113538000D01*
X113919000Y-113518000D01*
X114173000Y-113518000D01*
X114173000Y-113538000D01*
X116459000Y-113538000D01*
X116459000Y-113518000D01*
X116713000Y-113518000D01*
X116713000Y-113538000D01*
X117906155Y-113538000D01*
X118027476Y-113308110D01*
X117982825Y-113160901D01*
X117857641Y-112898080D01*
X117683588Y-112664731D01*
X117467355Y-112469822D01*
X117350466Y-112400195D01*
X117532632Y-112278475D01*
X117739475Y-112071632D01*
X117901990Y-111828411D01*
X118013932Y-111558158D01*
X118071000Y-111271260D01*
X118071000Y-110978740D01*
X118013932Y-110691842D01*
X117901990Y-110421589D01*
X117739475Y-110178368D01*
X117532632Y-109971525D01*
X117358240Y-109855000D01*
X117532632Y-109738475D01*
X117739475Y-109531632D01*
X117901990Y-109288411D01*
X118013932Y-109018158D01*
X118071000Y-108731260D01*
X118071000Y-108438740D01*
X118013932Y-108151842D01*
X117901990Y-107881589D01*
X117739475Y-107638368D01*
X117532632Y-107431525D01*
X117358240Y-107315000D01*
X117532632Y-107198475D01*
X117739475Y-106991632D01*
X117901990Y-106748411D01*
X118013932Y-106478158D01*
X118071000Y-106191260D01*
X118071000Y-105898740D01*
X118013932Y-105611842D01*
X117901990Y-105341589D01*
X117739475Y-105098368D01*
X117532632Y-104891525D01*
X117358240Y-104775000D01*
X117532632Y-104658475D01*
X117739475Y-104451632D01*
X117901990Y-104208411D01*
X118013932Y-103938158D01*
X118071000Y-103651260D01*
X118071000Y-103358740D01*
X118013932Y-103071842D01*
X117901990Y-102801589D01*
X117739475Y-102558368D01*
X117532632Y-102351525D01*
X117358240Y-102235000D01*
X117532632Y-102118475D01*
X117739475Y-101911632D01*
X117901990Y-101668411D01*
X118013932Y-101398158D01*
X118071000Y-101111260D01*
X118071000Y-100818740D01*
X118013932Y-100531842D01*
X117901990Y-100261589D01*
X117739475Y-100018368D01*
X117532632Y-99811525D01*
X117358240Y-99695000D01*
X117532632Y-99578475D01*
X117739475Y-99371632D01*
X117901990Y-99128411D01*
X118013932Y-98858158D01*
X118071000Y-98571260D01*
X118071000Y-98278740D01*
X118013932Y-97991842D01*
X117901990Y-97721589D01*
X117739475Y-97478368D01*
X117532632Y-97271525D01*
X117358240Y-97155000D01*
X117532632Y-97038475D01*
X117739475Y-96831632D01*
X117901990Y-96588411D01*
X118013932Y-96318158D01*
X118071000Y-96031260D01*
X118071000Y-95738740D01*
X118013932Y-95451842D01*
X117901990Y-95181589D01*
X117739475Y-94938368D01*
X117532632Y-94731525D01*
X117358240Y-94615000D01*
X117532632Y-94498475D01*
X117686303Y-94344804D01*
X125058500Y-101717002D01*
%TA.AperFunction,Conductor*%
D21*
G36*
X125058500Y-101717002D02*
G01*
X125082299Y-101746001D01*
X125198024Y-101840974D01*
X125330053Y-101911546D01*
X125473314Y-101955003D01*
X125584967Y-101966000D01*
X125584977Y-101966000D01*
X125622300Y-101969676D01*
X125659623Y-101966000D01*
X127320733Y-101966000D01*
X127291147Y-102037426D01*
X127236000Y-102314665D01*
X127236000Y-102597335D01*
X127291147Y-102874574D01*
X127399320Y-103135727D01*
X127556363Y-103370759D01*
X127756241Y-103570637D01*
X127958827Y-103706000D01*
X127756241Y-103841363D01*
X127556363Y-104041241D01*
X127399320Y-104276273D01*
X127291147Y-104537426D01*
X127236000Y-104814665D01*
X127236000Y-105097335D01*
X127291147Y-105374574D01*
X127399320Y-105635727D01*
X127556363Y-105870759D01*
X127756241Y-106070637D01*
X127958827Y-106206000D01*
X127756241Y-106341363D01*
X127556363Y-106541241D01*
X127399320Y-106776273D01*
X127291147Y-107037426D01*
X127236000Y-107314665D01*
X127236000Y-107597335D01*
X127291147Y-107874574D01*
X127399320Y-108135727D01*
X127556363Y-108370759D01*
X127756241Y-108570637D01*
X127958827Y-108706000D01*
X127756241Y-108841363D01*
X127556363Y-109041241D01*
X127399320Y-109276273D01*
X127291147Y-109537426D01*
X127236000Y-109814665D01*
X127236000Y-110097335D01*
X127291147Y-110374574D01*
X127399320Y-110635727D01*
X127556363Y-110870759D01*
X127756241Y-111070637D01*
X127991273Y-111227680D01*
X128252426Y-111335853D01*
X128529665Y-111391000D01*
X128812335Y-111391000D01*
X129089574Y-111335853D01*
X129350727Y-111227680D01*
X129585759Y-111070637D01*
X129771823Y-110884573D01*
X129736000Y-111064665D01*
X129736000Y-111347335D01*
X129791147Y-111624574D01*
X129899320Y-111885727D01*
X130056363Y-112120759D01*
X130256241Y-112320637D01*
X130491273Y-112477680D01*
X130752426Y-112585853D01*
X131029665Y-112641000D01*
X131312335Y-112641000D01*
X131589574Y-112585853D01*
X131850727Y-112477680D01*
X132085759Y-112320637D01*
X132285637Y-112120759D01*
X132442680Y-111885727D01*
X132550853Y-111624574D01*
X132606000Y-111347335D01*
X132606000Y-111064665D01*
X132550853Y-110787426D01*
X132442680Y-110526273D01*
X132285637Y-110291241D01*
X132085759Y-110091363D01*
X131883173Y-109956000D01*
X132085759Y-109820637D01*
X132285637Y-109620759D01*
X132442680Y-109385727D01*
X132550853Y-109124574D01*
X132606000Y-108847335D01*
X132606000Y-108564665D01*
X132550853Y-108287426D01*
X132442680Y-108026273D01*
X132285637Y-107791241D01*
X132085759Y-107591363D01*
X131883173Y-107456000D01*
X132085759Y-107320637D01*
X132285637Y-107120759D01*
X132442680Y-106885727D01*
X132550853Y-106624574D01*
X132606000Y-106347335D01*
X132606000Y-106064665D01*
X132550853Y-105787426D01*
X132442680Y-105526273D01*
X132285637Y-105291241D01*
X132224496Y-105230100D01*
X167915980Y-105230100D01*
X167863068Y-105357842D01*
X167806000Y-105644740D01*
X167806000Y-105937260D01*
X167863068Y-106224158D01*
X167975010Y-106494411D01*
X168137525Y-106737632D01*
X168344368Y-106944475D01*
X168518760Y-107061000D01*
X168344368Y-107177525D01*
X168137525Y-107384368D01*
X167975010Y-107627589D01*
X167863068Y-107897842D01*
X167806000Y-108184740D01*
X167806000Y-108477260D01*
X167863068Y-108764158D01*
X167975010Y-109034411D01*
X168137525Y-109277632D01*
X168344368Y-109484475D01*
X168518760Y-109601000D01*
X168344368Y-109717525D01*
X168137525Y-109924368D01*
X167975010Y-110167589D01*
X167863068Y-110437842D01*
X167806000Y-110724740D01*
X167806000Y-111017260D01*
X167863068Y-111304158D01*
X167975010Y-111574411D01*
X168137525Y-111817632D01*
X168344368Y-112024475D01*
X168518760Y-112141000D01*
X168344368Y-112257525D01*
X168137525Y-112464368D01*
X167975010Y-112707589D01*
X167863068Y-112977842D01*
X167806000Y-113264740D01*
X167806000Y-113557260D01*
X167863068Y-113844158D01*
X167975010Y-114114411D01*
X168137525Y-114357632D01*
X168344368Y-114564475D01*
X168587589Y-114726990D01*
X168857842Y-114838932D01*
X169144740Y-114896000D01*
X169437260Y-114896000D01*
X169724158Y-114838932D01*
X169994411Y-114726990D01*
X170237632Y-114564475D01*
X170444475Y-114357632D01*
X170561000Y-114183240D01*
X170677525Y-114357632D01*
X170884368Y-114564475D01*
X171127589Y-114726990D01*
X171397842Y-114838932D01*
X171684740Y-114896000D01*
X171977260Y-114896000D01*
X172264158Y-114838932D01*
X172534411Y-114726990D01*
X172777632Y-114564475D01*
X172984475Y-114357632D01*
X173146990Y-114114411D01*
X173258932Y-113844158D01*
X173316000Y-113557260D01*
X173316000Y-113264740D01*
X173258932Y-112977842D01*
X173146990Y-112707589D01*
X172984475Y-112464368D01*
X172777632Y-112257525D01*
X172603240Y-112141000D01*
X172777632Y-112024475D01*
X172984475Y-111817632D01*
X173146990Y-111574411D01*
X173258932Y-111304158D01*
X173316000Y-111017260D01*
X173316000Y-110724740D01*
X173258932Y-110437842D01*
X173146990Y-110167589D01*
X172984475Y-109924368D01*
X172777632Y-109717525D01*
X172603240Y-109601000D01*
X172777632Y-109484475D01*
X172984475Y-109277632D01*
X173146990Y-109034411D01*
X173258932Y-108764158D01*
X173316000Y-108477260D01*
X173316000Y-108184740D01*
X173258932Y-107897842D01*
X173146990Y-107627589D01*
X172984475Y-107384368D01*
X172777632Y-107177525D01*
X172603240Y-107061000D01*
X172777632Y-106944475D01*
X172984475Y-106737632D01*
X173086259Y-106585302D01*
X173198861Y-106607700D01*
X173260999Y-106607700D01*
X174420201Y-107766903D01*
X174443999Y-107795901D01*
X174559724Y-107890874D01*
X174691753Y-107961446D01*
X174835014Y-108004903D01*
X174946667Y-108015900D01*
X174946676Y-108015900D01*
X174983999Y-108019576D01*
X175021322Y-108015900D01*
X175519277Y-108015900D01*
X175466595Y-108094744D01*
X175388574Y-108283102D01*
X175348800Y-108483061D01*
X175348800Y-108686939D01*
X175388574Y-108886898D01*
X175466595Y-109075256D01*
X175579863Y-109244774D01*
X175724026Y-109388937D01*
X175893544Y-109502205D01*
X176081902Y-109580226D01*
X176281861Y-109620000D01*
X176485739Y-109620000D01*
X176685698Y-109580226D01*
X176874056Y-109502205D01*
X177043574Y-109388937D01*
X177087511Y-109345000D01*
X178807822Y-109345000D01*
X178932525Y-109531632D01*
X179139368Y-109738475D01*
X179313760Y-109855000D01*
X179139368Y-109971525D01*
X178932525Y-110178368D01*
X178770010Y-110421589D01*
X178658068Y-110691842D01*
X178601000Y-110978740D01*
X178601000Y-111271260D01*
X178658068Y-111558158D01*
X178770010Y-111828411D01*
X178932525Y-112071632D01*
X179139368Y-112278475D01*
X179321534Y-112400195D01*
X179204645Y-112469822D01*
X178988412Y-112664731D01*
X178814359Y-112898080D01*
X178689175Y-113160901D01*
X178644524Y-113308110D01*
X178765845Y-113538000D01*
X179959000Y-113538000D01*
X179959000Y-113518000D01*
X180213000Y-113518000D01*
X180213000Y-113538000D01*
X182499000Y-113538000D01*
X182499000Y-113518000D01*
X182753000Y-113518000D01*
X182753000Y-113538000D01*
X182773000Y-113538000D01*
X182773000Y-113792000D01*
X182753000Y-113792000D01*
X182753000Y-113812000D01*
X182499000Y-113812000D01*
X182499000Y-113792000D01*
X180213000Y-113792000D01*
X180213000Y-113812000D01*
X179959000Y-113812000D01*
X179959000Y-113792000D01*
X178765845Y-113792000D01*
X178644524Y-114021890D01*
X178689175Y-114169099D01*
X178814359Y-114431920D01*
X178988412Y-114665269D01*
X179204645Y-114860178D01*
X179321534Y-114929805D01*
X179139368Y-115051525D01*
X178932525Y-115258368D01*
X178770010Y-115501589D01*
X178658068Y-115771842D01*
X178601000Y-116058740D01*
X178601000Y-116351260D01*
X178658068Y-116638158D01*
X178689897Y-116715000D01*
X175472969Y-116715000D01*
X175409405Y-116561544D01*
X175296137Y-116392026D01*
X175151974Y-116247863D01*
X174982456Y-116134595D01*
X174794098Y-116056574D01*
X174594139Y-116016800D01*
X174390261Y-116016800D01*
X174190302Y-116056574D01*
X174001944Y-116134595D01*
X173832426Y-116247863D01*
X173688263Y-116392026D01*
X173574995Y-116561544D01*
X173496974Y-116749902D01*
X173457200Y-116949861D01*
X173457200Y-117153739D01*
X173496974Y-117353698D01*
X173574995Y-117542056D01*
X173688263Y-117711574D01*
X173832426Y-117855737D01*
X174001944Y-117969005D01*
X174190302Y-118047026D01*
X174390261Y-118086800D01*
X174462886Y-118086800D01*
X174491124Y-118109974D01*
X174623153Y-118180546D01*
X174766414Y-118224003D01*
X174878067Y-118235000D01*
X174878076Y-118235000D01*
X174915399Y-118238676D01*
X174952722Y-118235000D01*
X178689897Y-118235000D01*
X178658068Y-118311842D01*
X178601000Y-118598740D01*
X178601000Y-118891260D01*
X178658068Y-119178158D01*
X178770010Y-119448411D01*
X178908509Y-119655689D01*
X172080003Y-126484196D01*
X172050999Y-126507999D01*
X171995871Y-126575174D01*
X171956026Y-126623724D01*
X171885455Y-126755753D01*
X171885454Y-126755754D01*
X171841997Y-126899015D01*
X171831000Y-127010668D01*
X171831000Y-127010678D01*
X171827324Y-127048000D01*
X171831000Y-127085323D01*
X171831001Y-129307600D01*
X164621725Y-129307600D01*
X164584400Y-129303924D01*
X164547075Y-129307600D01*
X164547067Y-129307600D01*
X164435414Y-129318597D01*
X164292153Y-129362054D01*
X164160124Y-129432626D01*
X164044399Y-129527599D01*
X164020601Y-129556597D01*
X162599930Y-130977269D01*
X162342184Y-130926000D01*
X162039816Y-130926000D01*
X161743257Y-130984989D01*
X161463905Y-131100701D01*
X161212495Y-131268688D01*
X161146056Y-131335127D01*
X161140502Y-131316820D01*
X161081537Y-131206506D01*
X161002185Y-131109815D01*
X160905494Y-131030463D01*
X160795180Y-130971498D01*
X160675482Y-130935188D01*
X160551000Y-130922928D01*
X158751000Y-130922928D01*
X158626518Y-130935188D01*
X158506820Y-130971498D01*
X158396506Y-131030463D01*
X158376765Y-131046664D01*
X157940104Y-130610002D01*
X157916301Y-130580999D01*
X157800576Y-130486026D01*
X157668547Y-130415454D01*
X157525286Y-130371997D01*
X157451250Y-130364705D01*
X157387962Y-130269987D01*
X157202013Y-130084038D01*
X156983359Y-129937939D01*
X156740405Y-129837304D01*
X156482486Y-129786000D01*
X156219514Y-129786000D01*
X155961595Y-129837304D01*
X155718641Y-129937939D01*
X155499987Y-130084038D01*
X155314038Y-130269987D01*
X155167939Y-130488641D01*
X155067304Y-130731595D01*
X155016000Y-130989514D01*
X155016000Y-131252486D01*
X155067304Y-131510405D01*
X155104830Y-131601000D01*
X153029313Y-131601000D01*
X152883312Y-131382495D01*
X152669505Y-131168688D01*
X152418095Y-131000701D01*
X152138743Y-130884989D01*
X151842184Y-130826000D01*
X151539816Y-130826000D01*
X151243257Y-130884989D01*
X150963905Y-131000701D01*
X150712495Y-131168688D01*
X150646056Y-131235127D01*
X150640502Y-131216820D01*
X150581537Y-131106506D01*
X150502185Y-131009815D01*
X150405494Y-130930463D01*
X150295180Y-130871498D01*
X150175482Y-130835188D01*
X150051000Y-130822928D01*
X148251000Y-130822928D01*
X148126518Y-130835188D01*
X148006820Y-130871498D01*
X147938251Y-130908150D01*
X147540104Y-130510002D01*
X147516301Y-130480999D01*
X147400576Y-130386026D01*
X147268547Y-130315454D01*
X147125286Y-130271997D01*
X147051250Y-130264705D01*
X146987962Y-130169987D01*
X146802013Y-129984038D01*
X146583359Y-129837939D01*
X146340405Y-129737304D01*
X146082486Y-129686000D01*
X145819514Y-129686000D01*
X145561595Y-129737304D01*
X145318641Y-129837939D01*
X145099987Y-129984038D01*
X144914038Y-130169987D01*
X144767939Y-130388641D01*
X144667304Y-130631595D01*
X144616000Y-130889514D01*
X144616000Y-131152486D01*
X144667304Y-131410405D01*
X144746251Y-131601000D01*
X142429313Y-131601000D01*
X142283312Y-131382495D01*
X142069505Y-131168688D01*
X141818095Y-131000701D01*
X141538743Y-130884989D01*
X141242184Y-130826000D01*
X140939816Y-130826000D01*
X140643257Y-130884989D01*
X140363905Y-131000701D01*
X140112495Y-131168688D01*
X140046056Y-131235127D01*
X140040502Y-131216820D01*
X139981537Y-131106506D01*
X139902185Y-131009815D01*
X139805494Y-130930463D01*
X139695180Y-130871498D01*
X139575482Y-130835188D01*
X139451000Y-130822928D01*
X137651000Y-130822928D01*
X137526518Y-130835188D01*
X137406820Y-130871498D01*
X137296506Y-130930463D01*
X137276765Y-130946664D01*
X136940104Y-130610002D01*
X136916301Y-130580999D01*
X136800576Y-130486026D01*
X136668547Y-130415454D01*
X136525286Y-130371997D01*
X136451250Y-130364705D01*
X136387962Y-130269987D01*
X136202013Y-130084038D01*
X135983359Y-129937939D01*
X135740405Y-129837304D01*
X135482486Y-129786000D01*
X135219514Y-129786000D01*
X134961595Y-129837304D01*
X134718641Y-129937939D01*
X134499987Y-130084038D01*
X134314038Y-130269987D01*
X134167939Y-130488641D01*
X134067304Y-130731595D01*
X134016000Y-130989514D01*
X134016000Y-131252486D01*
X134065433Y-131501000D01*
X131929313Y-131501000D01*
X131783312Y-131282495D01*
X131569505Y-131068688D01*
X131318095Y-130900701D01*
X131038743Y-130784989D01*
X130742184Y-130726000D01*
X130439816Y-130726000D01*
X130182070Y-130777269D01*
X122718804Y-123314003D01*
X122695001Y-123284999D01*
X122579276Y-123190026D01*
X122447247Y-123119454D01*
X122303986Y-123075997D01*
X122192333Y-123065000D01*
X122192322Y-123065000D01*
X122155000Y-123061324D01*
X122117678Y-123065000D01*
X118074072Y-123065000D01*
X118074072Y-122975000D01*
X118061812Y-122850518D01*
X118025502Y-122730820D01*
X117966537Y-122620506D01*
X117887185Y-122523815D01*
X117790494Y-122444463D01*
X117680180Y-122385498D01*
X117607620Y-122363487D01*
X117739475Y-122231632D01*
X117901990Y-121988411D01*
X118013932Y-121718158D01*
X118071000Y-121431260D01*
X118071000Y-121138740D01*
X118013932Y-120851842D01*
X117901990Y-120581589D01*
X117739475Y-120338368D01*
X117532632Y-120131525D01*
X117358240Y-120015000D01*
X117532632Y-119898475D01*
X117739475Y-119691632D01*
X117901990Y-119448411D01*
X118013932Y-119178158D01*
X118071000Y-118891260D01*
X118071000Y-118598740D01*
X118013932Y-118311842D01*
X117901990Y-118041589D01*
X117739475Y-117798368D01*
X117532632Y-117591525D01*
X117350466Y-117469805D01*
X117467355Y-117400178D01*
X117683588Y-117205269D01*
X117857641Y-116971920D01*
X117982825Y-116709099D01*
X118027476Y-116561890D01*
X117906155Y-116332000D01*
X116713000Y-116332000D01*
X116713000Y-116352000D01*
X116459000Y-116352000D01*
X116459000Y-116332000D01*
X114173000Y-116332000D01*
X114173000Y-116352000D01*
X113919000Y-116352000D01*
X113919000Y-116332000D01*
X113899000Y-116332000D01*
X113899000Y-116078000D01*
X113919000Y-116078000D01*
X113919000Y-113792000D01*
X114173000Y-113792000D01*
X114173000Y-116078000D01*
X116459000Y-116078000D01*
X116459000Y-113792000D01*
X116713000Y-113792000D01*
X116713000Y-116078000D01*
X117906155Y-116078000D01*
X118027476Y-115848110D01*
X117982825Y-115700901D01*
X117857641Y-115438080D01*
X117683588Y-115204731D01*
X117467355Y-115009822D01*
X117341745Y-114935000D01*
X117467355Y-114860178D01*
X117683588Y-114665269D01*
X117857641Y-114431920D01*
X117982825Y-114169099D01*
X118027476Y-114021890D01*
X117906155Y-113792000D01*
X116713000Y-113792000D01*
X116459000Y-113792000D01*
X114173000Y-113792000D01*
X113919000Y-113792000D01*
X113899000Y-113792000D01*
X113899000Y-113538000D01*
X113919000Y-113538000D01*
X113919000Y-113518000D01*
X114173000Y-113518000D01*
X114173000Y-113538000D01*
X116459000Y-113538000D01*
X116459000Y-113518000D01*
X116713000Y-113518000D01*
X116713000Y-113538000D01*
X117906155Y-113538000D01*
X118027476Y-113308110D01*
X117982825Y-113160901D01*
X117857641Y-112898080D01*
X117683588Y-112664731D01*
X117467355Y-112469822D01*
X117350466Y-112400195D01*
X117532632Y-112278475D01*
X117739475Y-112071632D01*
X117901990Y-111828411D01*
X118013932Y-111558158D01*
X118071000Y-111271260D01*
X118071000Y-110978740D01*
X118013932Y-110691842D01*
X117901990Y-110421589D01*
X117739475Y-110178368D01*
X117532632Y-109971525D01*
X117358240Y-109855000D01*
X117532632Y-109738475D01*
X117739475Y-109531632D01*
X117901990Y-109288411D01*
X118013932Y-109018158D01*
X118071000Y-108731260D01*
X118071000Y-108438740D01*
X118013932Y-108151842D01*
X117901990Y-107881589D01*
X117739475Y-107638368D01*
X117532632Y-107431525D01*
X117358240Y-107315000D01*
X117532632Y-107198475D01*
X117739475Y-106991632D01*
X117901990Y-106748411D01*
X118013932Y-106478158D01*
X118071000Y-106191260D01*
X118071000Y-105898740D01*
X118013932Y-105611842D01*
X117901990Y-105341589D01*
X117739475Y-105098368D01*
X117532632Y-104891525D01*
X117358240Y-104775000D01*
X117532632Y-104658475D01*
X117739475Y-104451632D01*
X117901990Y-104208411D01*
X118013932Y-103938158D01*
X118071000Y-103651260D01*
X118071000Y-103358740D01*
X118013932Y-103071842D01*
X117901990Y-102801589D01*
X117739475Y-102558368D01*
X117532632Y-102351525D01*
X117358240Y-102235000D01*
X117532632Y-102118475D01*
X117739475Y-101911632D01*
X117901990Y-101668411D01*
X118013932Y-101398158D01*
X118071000Y-101111260D01*
X118071000Y-100818740D01*
X118013932Y-100531842D01*
X117901990Y-100261589D01*
X117739475Y-100018368D01*
X117532632Y-99811525D01*
X117358240Y-99695000D01*
X117532632Y-99578475D01*
X117739475Y-99371632D01*
X117901990Y-99128411D01*
X118013932Y-98858158D01*
X118071000Y-98571260D01*
X118071000Y-98278740D01*
X118013932Y-97991842D01*
X117901990Y-97721589D01*
X117739475Y-97478368D01*
X117532632Y-97271525D01*
X117358240Y-97155000D01*
X117532632Y-97038475D01*
X117739475Y-96831632D01*
X117901990Y-96588411D01*
X118013932Y-96318158D01*
X118071000Y-96031260D01*
X118071000Y-95738740D01*
X118013932Y-95451842D01*
X117901990Y-95181589D01*
X117739475Y-94938368D01*
X117532632Y-94731525D01*
X117358240Y-94615000D01*
X117532632Y-94498475D01*
X117686303Y-94344804D01*
X125058500Y-101717002D01*
G37*
%TD.AperFunction*%
D20*
X127878525Y-53155368D02*
X127716010Y-53398589D01*
X127604068Y-53668842D01*
X127547000Y-53955740D01*
X127547000Y-54248260D01*
X127604068Y-54535158D01*
X127716010Y-54805411D01*
X127878525Y-55048632D01*
X128010380Y-55180487D01*
X127937820Y-55202498D01*
X127827506Y-55261463D01*
X127730815Y-55340815D01*
X127651463Y-55437506D01*
X127592498Y-55547820D01*
X127556188Y-55667518D01*
X127543928Y-55792000D01*
X127547000Y-56356250D01*
X127705750Y-56515000D01*
X128905000Y-56515000D01*
X128905000Y-56495000D01*
X129159000Y-56495000D01*
X129159000Y-56515000D01*
X129179000Y-56515000D01*
X129179000Y-56769000D01*
X129159000Y-56769000D01*
X129159000Y-57968250D01*
X129317750Y-58127000D01*
X129882000Y-58130072D01*
X130006482Y-58117812D01*
X130126180Y-58081502D01*
X130236494Y-58022537D01*
X130333185Y-57943185D01*
X130412537Y-57846494D01*
X130471502Y-57736180D01*
X130493513Y-57663620D01*
X130625368Y-57795475D01*
X130868589Y-57957990D01*
X131138842Y-58069932D01*
X131425740Y-58127000D01*
X131718260Y-58127000D01*
X132005158Y-58069932D01*
X132275411Y-57957990D01*
X132518632Y-57795475D01*
X132725475Y-57588632D01*
X132842000Y-57414240D01*
X132958525Y-57588632D01*
X133165368Y-57795475D01*
X133408589Y-57957990D01*
X133678842Y-58069932D01*
X133965740Y-58127000D01*
X134258260Y-58127000D01*
X134545158Y-58069932D01*
X134815411Y-57957990D01*
X135058632Y-57795475D01*
X135265475Y-57588632D01*
X135382000Y-57414240D01*
X135498525Y-57588632D01*
X135705368Y-57795475D01*
X135948589Y-57957990D01*
X136218842Y-58069932D01*
X136505740Y-58127000D01*
X136798260Y-58127000D01*
X137085158Y-58069932D01*
X137355411Y-57957990D01*
X137598632Y-57795475D01*
X137805475Y-57588632D01*
X137922000Y-57414240D01*
X138038525Y-57588632D01*
X138245368Y-57795475D01*
X138488589Y-57957990D01*
X138758842Y-58069932D01*
X139045740Y-58127000D01*
X139338260Y-58127000D01*
X139625158Y-58069932D01*
X139895411Y-57957990D01*
X140138632Y-57795475D01*
X140345475Y-57588632D01*
X140462000Y-57414240D01*
X140578525Y-57588632D01*
X140785368Y-57795475D01*
X141028589Y-57957990D01*
X141298842Y-58069932D01*
X141585740Y-58127000D01*
X141878260Y-58127000D01*
X142165158Y-58069932D01*
X142435411Y-57957990D01*
X142678632Y-57795475D01*
X142885475Y-57588632D01*
X143002000Y-57414240D01*
X143118525Y-57588632D01*
X143325368Y-57795475D01*
X143568589Y-57957990D01*
X143838842Y-58069932D01*
X144125740Y-58127000D01*
X144418260Y-58127000D01*
X144705158Y-58069932D01*
X144975411Y-57957990D01*
X145218632Y-57795475D01*
X145425475Y-57588632D01*
X145542000Y-57414240D01*
X145658525Y-57588632D01*
X145865368Y-57795475D01*
X146108589Y-57957990D01*
X146378842Y-58069932D01*
X146665740Y-58127000D01*
X146958260Y-58127000D01*
X147245158Y-58069932D01*
X147515411Y-57957990D01*
X147758632Y-57795475D01*
X147965475Y-57588632D01*
X148082000Y-57414240D01*
X148198525Y-57588632D01*
X148405368Y-57795475D01*
X148648589Y-57957990D01*
X148918842Y-58069932D01*
X149205740Y-58127000D01*
X149498260Y-58127000D01*
X149785158Y-58069932D01*
X150055411Y-57957990D01*
X150298632Y-57795475D01*
X150505475Y-57588632D01*
X150622000Y-57414240D01*
X150738525Y-57588632D01*
X150945368Y-57795475D01*
X151188589Y-57957990D01*
X151458842Y-58069932D01*
X151745740Y-58127000D01*
X152038260Y-58127000D01*
X152325158Y-58069932D01*
X152595411Y-57957990D01*
X152838632Y-57795475D01*
X153045475Y-57588632D01*
X153162000Y-57414240D01*
X153278525Y-57588632D01*
X153485368Y-57795475D01*
X153728589Y-57957990D01*
X153998842Y-58069932D01*
X154285740Y-58127000D01*
X154578260Y-58127000D01*
X154865158Y-58069932D01*
X155135411Y-57957990D01*
X155378632Y-57795475D01*
X155585475Y-57588632D01*
X155702000Y-57414240D01*
X155818525Y-57588632D01*
X156025368Y-57795475D01*
X156268589Y-57957990D01*
X156538842Y-58069932D01*
X156825740Y-58127000D01*
X157118260Y-58127000D01*
X157405158Y-58069932D01*
X157675411Y-57957990D01*
X157918632Y-57795475D01*
X158125475Y-57588632D01*
X158242000Y-57414240D01*
X158358525Y-57588632D01*
X158565368Y-57795475D01*
X158808589Y-57957990D01*
X159078842Y-58069932D01*
X159365740Y-58127000D01*
X159658260Y-58127000D01*
X159945158Y-58069932D01*
X160215411Y-57957990D01*
X160458632Y-57795475D01*
X160665475Y-57588632D01*
X160782000Y-57414240D01*
X160898525Y-57588632D01*
X161105368Y-57795475D01*
X161348589Y-57957990D01*
X161618842Y-58069932D01*
X161905740Y-58127000D01*
X162198260Y-58127000D01*
X162485158Y-58069932D01*
X162755411Y-57957990D01*
X162998632Y-57795475D01*
X163205475Y-57588632D01*
X163322000Y-57414240D01*
X163438525Y-57588632D01*
X163645368Y-57795475D01*
X163888589Y-57957990D01*
X164158842Y-58069932D01*
X164445740Y-58127000D01*
X164738260Y-58127000D01*
X165025158Y-58069932D01*
X165295411Y-57957990D01*
X165538632Y-57795475D01*
X165745475Y-57588632D01*
X165862000Y-57414240D01*
X165978525Y-57588632D01*
X166185368Y-57795475D01*
X166428589Y-57957990D01*
X166698842Y-58069932D01*
X166985740Y-58127000D01*
X167278260Y-58127000D01*
X167565158Y-58069932D01*
X167835411Y-57957990D01*
X168078632Y-57795475D01*
X168285475Y-57588632D01*
X168447990Y-57345411D01*
X168559932Y-57075158D01*
X168617000Y-56788260D01*
X168617000Y-56495740D01*
X168559932Y-56208842D01*
X168447990Y-55938589D01*
X168372826Y-55826098D01*
X178366000Y-55826098D01*
X178366000Y-56295902D01*
X178457654Y-56756679D01*
X178637440Y-57190721D01*
X178898450Y-57581349D01*
X179230651Y-57913550D01*
X179621279Y-58174560D01*
X180055321Y-58354346D01*
X180516098Y-58446000D01*
X180985902Y-58446000D01*
X181446679Y-58354346D01*
X181880721Y-58174560D01*
X182271349Y-57913550D01*
X182603550Y-57581349D01*
X182864560Y-57190721D01*
X183044346Y-56756679D01*
X183136000Y-56295902D01*
X183136000Y-55826098D01*
X183044346Y-55365321D01*
X182864560Y-54931279D01*
X182603550Y-54540651D01*
X182271349Y-54208450D01*
X181880721Y-53947440D01*
X181446679Y-53767654D01*
X180985902Y-53676000D01*
X180516098Y-53676000D01*
X180055321Y-53767654D01*
X179621279Y-53947440D01*
X179230651Y-54208450D01*
X178898450Y-54540651D01*
X178637440Y-54931279D01*
X178457654Y-55365321D01*
X178366000Y-55826098D01*
X168372826Y-55826098D01*
X168285475Y-55695368D01*
X168078632Y-55488525D01*
X167902594Y-55370900D01*
X168132269Y-55199588D01*
X168327178Y-54983355D01*
X168476157Y-54733252D01*
X168573481Y-54458891D01*
X168452814Y-54229000D01*
X167259000Y-54229000D01*
X167259000Y-54249000D01*
X167005000Y-54249000D01*
X167005000Y-54229000D01*
X164719000Y-54229000D01*
X164719000Y-54249000D01*
X164465000Y-54249000D01*
X164465000Y-54229000D01*
X164445000Y-54229000D01*
X164445000Y-53975000D01*
X164465000Y-53975000D01*
X164465000Y-53955000D01*
X164719000Y-53955000D01*
X164719000Y-53975000D01*
X167005000Y-53975000D01*
X167005000Y-53955000D01*
X167259000Y-53955000D01*
X167259000Y-53975000D01*
X168452814Y-53975000D01*
X168573481Y-53745109D01*
X168476157Y-53470748D01*
X168327178Y-53220645D01*
X168132269Y-53004412D01*
X168074067Y-52961000D01*
X183861000Y-52961000D01*
X183861000Y-64580379D01*
X183779475Y-64458368D01*
X183572632Y-64251525D01*
X183329411Y-64089010D01*
X183059158Y-63977068D01*
X182772260Y-63920000D01*
X182479740Y-63920000D01*
X182192842Y-63977068D01*
X181922589Y-64089010D01*
X181679368Y-64251525D01*
X181472525Y-64458368D01*
X181356000Y-64632760D01*
X181239475Y-64458368D01*
X181032632Y-64251525D01*
X180789411Y-64089010D01*
X180519158Y-63977068D01*
X180232260Y-63920000D01*
X179939740Y-63920000D01*
X179652842Y-63977068D01*
X179382589Y-64089010D01*
X179139368Y-64251525D01*
X178932525Y-64458368D01*
X178770010Y-64701589D01*
X178658068Y-64971842D01*
X178601000Y-65258740D01*
X178601000Y-65551260D01*
X178658068Y-65838158D01*
X178770010Y-66108411D01*
X178932525Y-66351632D01*
X179139368Y-66558475D01*
X179313760Y-66675000D01*
X179139368Y-66791525D01*
X178932525Y-66998368D01*
X178770010Y-67241589D01*
X178658068Y-67511842D01*
X178601000Y-67798740D01*
X178601000Y-68091260D01*
X178658068Y-68378158D01*
X178770010Y-68648411D01*
X178932525Y-68891632D01*
X179139368Y-69098475D01*
X179313760Y-69215000D01*
X179139368Y-69331525D01*
X178932525Y-69538368D01*
X178770010Y-69781589D01*
X178658068Y-70051842D01*
X178601000Y-70338740D01*
X178601000Y-70631260D01*
X178658068Y-70918158D01*
X178770010Y-71188411D01*
X178932525Y-71431632D01*
X179139368Y-71638475D01*
X179313760Y-71755000D01*
X179139368Y-71871525D01*
X178932525Y-72078368D01*
X178770010Y-72321589D01*
X178658068Y-72591842D01*
X178601000Y-72878740D01*
X178601000Y-73171260D01*
X178658068Y-73458158D01*
X178770010Y-73728411D01*
X178932525Y-73971632D01*
X179139368Y-74178475D01*
X179313760Y-74295000D01*
X179139368Y-74411525D01*
X178932525Y-74618368D01*
X178770010Y-74861589D01*
X178658068Y-75131842D01*
X178601000Y-75418740D01*
X178601000Y-75711260D01*
X178658068Y-75998158D01*
X178686736Y-76067369D01*
X178615724Y-76105326D01*
X178499999Y-76200299D01*
X178476201Y-76229297D01*
X177017499Y-77688000D01*
X176955361Y-77688000D01*
X176755402Y-77727774D01*
X176567044Y-77805795D01*
X176397526Y-77919063D01*
X176253363Y-78063226D01*
X176140095Y-78232744D01*
X176062074Y-78421102D01*
X176022300Y-78621061D01*
X176022300Y-78709700D01*
X173043229Y-78709700D01*
X173146990Y-78554411D01*
X173258932Y-78284158D01*
X173316000Y-77997260D01*
X173316000Y-77704740D01*
X173258932Y-77417842D01*
X173146990Y-77147589D01*
X172984475Y-76904368D01*
X172777632Y-76697525D01*
X172603240Y-76581000D01*
X172777632Y-76464475D01*
X172984475Y-76257632D01*
X173146990Y-76014411D01*
X173258932Y-75744158D01*
X173316000Y-75457260D01*
X173316000Y-75164740D01*
X173258932Y-74877842D01*
X173146990Y-74607589D01*
X172984475Y-74364368D01*
X172777632Y-74157525D01*
X172603240Y-74041000D01*
X172777632Y-73924475D01*
X172984475Y-73717632D01*
X173146990Y-73474411D01*
X173258932Y-73204158D01*
X173316000Y-72917260D01*
X173316000Y-72624740D01*
X173258932Y-72337842D01*
X173146990Y-72067589D01*
X172984475Y-71824368D01*
X172777632Y-71617525D01*
X172534411Y-71455010D01*
X172264158Y-71343068D01*
X171977260Y-71286000D01*
X171684740Y-71286000D01*
X171464592Y-71329790D01*
X164884804Y-64750003D01*
X164861001Y-64720999D01*
X164745276Y-64626026D01*
X164613247Y-64555454D01*
X164469986Y-64511997D01*
X164358333Y-64501000D01*
X164358322Y-64501000D01*
X164321000Y-64497324D01*
X164283678Y-64501000D01*
X157929313Y-64501000D01*
X157783312Y-64282495D01*
X157569505Y-64068688D01*
X157318095Y-63900701D01*
X157038743Y-63784989D01*
X156742184Y-63726000D01*
X156439816Y-63726000D01*
X156143257Y-63784989D01*
X155863905Y-63900701D01*
X155612495Y-64068688D01*
X155546056Y-64135127D01*
X155540502Y-64116820D01*
X155481537Y-64006506D01*
X155402185Y-63909815D01*
X155305494Y-63830463D01*
X155195180Y-63771498D01*
X155075482Y-63735188D01*
X154951000Y-63722928D01*
X154336750Y-63726000D01*
X154178000Y-63884750D01*
X154178000Y-65134000D01*
X154198000Y-65134000D01*
X154198000Y-65388000D01*
X154178000Y-65388000D01*
X154178000Y-66637250D01*
X154336750Y-66796000D01*
X154951000Y-66799072D01*
X155075482Y-66786812D01*
X155195180Y-66750502D01*
X155305494Y-66691537D01*
X155402185Y-66612185D01*
X155481537Y-66515494D01*
X155540502Y-66405180D01*
X155546056Y-66386873D01*
X155612495Y-66453312D01*
X155863905Y-66621299D01*
X156143257Y-66737011D01*
X156439816Y-66796000D01*
X156742184Y-66796000D01*
X157038743Y-66737011D01*
X157318095Y-66621299D01*
X157569505Y-66453312D01*
X157783312Y-66239505D01*
X157929313Y-66021000D01*
X164006199Y-66021000D01*
X169268126Y-71282928D01*
X168691000Y-71282928D01*
X168517746Y-71299992D01*
X168351150Y-71350528D01*
X168197614Y-71432595D01*
X168063038Y-71543038D01*
X167952595Y-71677614D01*
X167870528Y-71831150D01*
X167819992Y-71997746D01*
X167818687Y-72011000D01*
X159201102Y-72011000D01*
X153875676Y-66685574D01*
X153924000Y-66637250D01*
X153924000Y-65388000D01*
X152674750Y-65388000D01*
X152626426Y-65436324D01*
X151551102Y-64361000D01*
X152512928Y-64361000D01*
X152516000Y-64975250D01*
X152674750Y-65134000D01*
X153924000Y-65134000D01*
X153924000Y-63884750D01*
X153765250Y-63726000D01*
X153151000Y-63722928D01*
X153026518Y-63735188D01*
X152906820Y-63771498D01*
X152796506Y-63830463D01*
X152699815Y-63909815D01*
X152620463Y-64006506D01*
X152561498Y-64116820D01*
X152525188Y-64236518D01*
X152512928Y-64361000D01*
X151551102Y-64361000D01*
X150560104Y-63370003D01*
X150536301Y-63340999D01*
X150420576Y-63246026D01*
X150288547Y-63175454D01*
X150145286Y-63131997D01*
X150071250Y-63124705D01*
X150007962Y-63029987D01*
X149822013Y-62844038D01*
X149603359Y-62697939D01*
X149360405Y-62597304D01*
X149102486Y-62546000D01*
X148839514Y-62546000D01*
X148581595Y-62597304D01*
X148338641Y-62697939D01*
X148119987Y-62844038D01*
X147934038Y-63029987D01*
X147873225Y-63121000D01*
X137283322Y-63121000D01*
X137245999Y-63117324D01*
X137208676Y-63121000D01*
X137208667Y-63121000D01*
X137097014Y-63131997D01*
X136953753Y-63175454D01*
X136821724Y-63246026D01*
X136705999Y-63340999D01*
X136682201Y-63369997D01*
X136566468Y-63485730D01*
X136558932Y-63447842D01*
X136446990Y-63177589D01*
X136284475Y-62934368D01*
X136077632Y-62727525D01*
X135834411Y-62565010D01*
X135564158Y-62453068D01*
X135277260Y-62396000D01*
X134984740Y-62396000D01*
X134697842Y-62453068D01*
X134427589Y-62565010D01*
X134184368Y-62727525D01*
X133977525Y-62934368D01*
X133861000Y-63108760D01*
X133744475Y-62934368D01*
X133537632Y-62727525D01*
X133294411Y-62565010D01*
X133024158Y-62453068D01*
X132737260Y-62396000D01*
X132444740Y-62396000D01*
X132157842Y-62453068D01*
X131887589Y-62565010D01*
X131644368Y-62727525D01*
X131512513Y-62859380D01*
X131490502Y-62786820D01*
X131431537Y-62676506D01*
X131352185Y-62579815D01*
X131255494Y-62500463D01*
X131145180Y-62441498D01*
X131025482Y-62405188D01*
X130901000Y-62392928D01*
X130336750Y-62396000D01*
X130178000Y-62554750D01*
X130178000Y-63754000D01*
X130198000Y-63754000D01*
X130198000Y-64008000D01*
X130178000Y-64008000D01*
X130178000Y-65207250D01*
X130336750Y-65366000D01*
X130901000Y-65369072D01*
X131025482Y-65356812D01*
X131145180Y-65320502D01*
X131255494Y-65261537D01*
X131352185Y-65182185D01*
X131431537Y-65085494D01*
X131490502Y-64975180D01*
X131512513Y-64902620D01*
X131644368Y-65034475D01*
X131887589Y-65196990D01*
X131919140Y-65210059D01*
X123509999Y-73619200D01*
X117947226Y-73619200D01*
X118013932Y-73458158D01*
X118071000Y-73171260D01*
X118071000Y-72878740D01*
X118013932Y-72591842D01*
X117901990Y-72321589D01*
X117739475Y-72078368D01*
X117532632Y-71871525D01*
X117358240Y-71755000D01*
X117532632Y-71638475D01*
X117739475Y-71431632D01*
X117901990Y-71188411D01*
X118013932Y-70918158D01*
X118071000Y-70631260D01*
X118071000Y-70338740D01*
X118013932Y-70051842D01*
X117901990Y-69781589D01*
X117739475Y-69538368D01*
X117532632Y-69331525D01*
X117358240Y-69215000D01*
X117532632Y-69098475D01*
X117739475Y-68891632D01*
X117901990Y-68648411D01*
X118013932Y-68378158D01*
X118071000Y-68091260D01*
X118071000Y-67798740D01*
X118013932Y-67511842D01*
X117901990Y-67241589D01*
X117739475Y-66998368D01*
X117532632Y-66791525D01*
X117358240Y-66675000D01*
X117532632Y-66558475D01*
X117739475Y-66351632D01*
X117901990Y-66108411D01*
X118013932Y-65838158D01*
X118071000Y-65551260D01*
X118071000Y-65258740D01*
X118013932Y-64971842D01*
X117914173Y-64731000D01*
X128562928Y-64731000D01*
X128575188Y-64855482D01*
X128611498Y-64975180D01*
X128670463Y-65085494D01*
X128749815Y-65182185D01*
X128846506Y-65261537D01*
X128956820Y-65320502D01*
X129076518Y-65356812D01*
X129201000Y-65369072D01*
X129765250Y-65366000D01*
X129924000Y-65207250D01*
X129924000Y-64008000D01*
X128724750Y-64008000D01*
X128566000Y-64166750D01*
X128562928Y-64731000D01*
X117914173Y-64731000D01*
X117901990Y-64701589D01*
X117739475Y-64458368D01*
X117532632Y-64251525D01*
X117289411Y-64089010D01*
X117019158Y-63977068D01*
X116732260Y-63920000D01*
X116439740Y-63920000D01*
X116152842Y-63977068D01*
X115882589Y-64089010D01*
X115639368Y-64251525D01*
X115432525Y-64458368D01*
X115316000Y-64632760D01*
X115199475Y-64458368D01*
X114992632Y-64251525D01*
X114749411Y-64089010D01*
X114479158Y-63977068D01*
X114192260Y-63920000D01*
X113899740Y-63920000D01*
X113612842Y-63977068D01*
X113342589Y-64089010D01*
X113099368Y-64251525D01*
X112892525Y-64458368D01*
X112771000Y-64640243D01*
X112771000Y-63031000D01*
X128562928Y-63031000D01*
X128566000Y-63595250D01*
X128724750Y-63754000D01*
X129924000Y-63754000D01*
X129924000Y-62554750D01*
X129765250Y-62396000D01*
X129201000Y-62392928D01*
X129076518Y-62405188D01*
X128956820Y-62441498D01*
X128846506Y-62500463D01*
X128749815Y-62579815D01*
X128670463Y-62676506D01*
X128611498Y-62786820D01*
X128575188Y-62906518D01*
X128562928Y-63031000D01*
X112771000Y-63031000D01*
X112771000Y-55826098D01*
X113466000Y-55826098D01*
X113466000Y-56295902D01*
X113557654Y-56756679D01*
X113737440Y-57190721D01*
X113998450Y-57581349D01*
X114330651Y-57913550D01*
X114721279Y-58174560D01*
X115155321Y-58354346D01*
X115616098Y-58446000D01*
X116085902Y-58446000D01*
X116546679Y-58354346D01*
X116980721Y-58174560D01*
X117371349Y-57913550D01*
X117703550Y-57581349D01*
X117763251Y-57492000D01*
X127543928Y-57492000D01*
X127556188Y-57616482D01*
X127592498Y-57736180D01*
X127651463Y-57846494D01*
X127730815Y-57943185D01*
X127827506Y-58022537D01*
X127937820Y-58081502D01*
X128057518Y-58117812D01*
X128182000Y-58130072D01*
X128746250Y-58127000D01*
X128905000Y-57968250D01*
X128905000Y-56769000D01*
X127705750Y-56769000D01*
X127547000Y-56927750D01*
X127543928Y-57492000D01*
X117763251Y-57492000D01*
X117964560Y-57190721D01*
X118144346Y-56756679D01*
X118236000Y-56295902D01*
X118236000Y-55826098D01*
X118144346Y-55365321D01*
X117964560Y-54931279D01*
X117703550Y-54540651D01*
X117371349Y-54208450D01*
X116980721Y-53947440D01*
X116546679Y-53767654D01*
X116085902Y-53676000D01*
X115616098Y-53676000D01*
X115155321Y-53767654D01*
X114721279Y-53947440D01*
X114330651Y-54208450D01*
X113998450Y-54540651D01*
X113737440Y-54931279D01*
X113557654Y-55365321D01*
X113466000Y-55826098D01*
X112771000Y-55826098D01*
X112771000Y-52961000D01*
X128072893Y-52961000D01*
X127878525Y-53155368D01*
%TA.AperFunction,Conductor*%
D21*
G36*
X127878525Y-53155368D02*
G01*
X127716010Y-53398589D01*
X127604068Y-53668842D01*
X127547000Y-53955740D01*
X127547000Y-54248260D01*
X127604068Y-54535158D01*
X127716010Y-54805411D01*
X127878525Y-55048632D01*
X128010380Y-55180487D01*
X127937820Y-55202498D01*
X127827506Y-55261463D01*
X127730815Y-55340815D01*
X127651463Y-55437506D01*
X127592498Y-55547820D01*
X127556188Y-55667518D01*
X127543928Y-55792000D01*
X127547000Y-56356250D01*
X127705750Y-56515000D01*
X128905000Y-56515000D01*
X128905000Y-56495000D01*
X129159000Y-56495000D01*
X129159000Y-56515000D01*
X129179000Y-56515000D01*
X129179000Y-56769000D01*
X129159000Y-56769000D01*
X129159000Y-57968250D01*
X129317750Y-58127000D01*
X129882000Y-58130072D01*
X130006482Y-58117812D01*
X130126180Y-58081502D01*
X130236494Y-58022537D01*
X130333185Y-57943185D01*
X130412537Y-57846494D01*
X130471502Y-57736180D01*
X130493513Y-57663620D01*
X130625368Y-57795475D01*
X130868589Y-57957990D01*
X131138842Y-58069932D01*
X131425740Y-58127000D01*
X131718260Y-58127000D01*
X132005158Y-58069932D01*
X132275411Y-57957990D01*
X132518632Y-57795475D01*
X132725475Y-57588632D01*
X132842000Y-57414240D01*
X132958525Y-57588632D01*
X133165368Y-57795475D01*
X133408589Y-57957990D01*
X133678842Y-58069932D01*
X133965740Y-58127000D01*
X134258260Y-58127000D01*
X134545158Y-58069932D01*
X134815411Y-57957990D01*
X135058632Y-57795475D01*
X135265475Y-57588632D01*
X135382000Y-57414240D01*
X135498525Y-57588632D01*
X135705368Y-57795475D01*
X135948589Y-57957990D01*
X136218842Y-58069932D01*
X136505740Y-58127000D01*
X136798260Y-58127000D01*
X137085158Y-58069932D01*
X137355411Y-57957990D01*
X137598632Y-57795475D01*
X137805475Y-57588632D01*
X137922000Y-57414240D01*
X138038525Y-57588632D01*
X138245368Y-57795475D01*
X138488589Y-57957990D01*
X138758842Y-58069932D01*
X139045740Y-58127000D01*
X139338260Y-58127000D01*
X139625158Y-58069932D01*
X139895411Y-57957990D01*
X140138632Y-57795475D01*
X140345475Y-57588632D01*
X140462000Y-57414240D01*
X140578525Y-57588632D01*
X140785368Y-57795475D01*
X141028589Y-57957990D01*
X141298842Y-58069932D01*
X141585740Y-58127000D01*
X141878260Y-58127000D01*
X142165158Y-58069932D01*
X142435411Y-57957990D01*
X142678632Y-57795475D01*
X142885475Y-57588632D01*
X143002000Y-57414240D01*
X143118525Y-57588632D01*
X143325368Y-57795475D01*
X143568589Y-57957990D01*
X143838842Y-58069932D01*
X144125740Y-58127000D01*
X144418260Y-58127000D01*
X144705158Y-58069932D01*
X144975411Y-57957990D01*
X145218632Y-57795475D01*
X145425475Y-57588632D01*
X145542000Y-57414240D01*
X145658525Y-57588632D01*
X145865368Y-57795475D01*
X146108589Y-57957990D01*
X146378842Y-58069932D01*
X146665740Y-58127000D01*
X146958260Y-58127000D01*
X147245158Y-58069932D01*
X147515411Y-57957990D01*
X147758632Y-57795475D01*
X147965475Y-57588632D01*
X148082000Y-57414240D01*
X148198525Y-57588632D01*
X148405368Y-57795475D01*
X148648589Y-57957990D01*
X148918842Y-58069932D01*
X149205740Y-58127000D01*
X149498260Y-58127000D01*
X149785158Y-58069932D01*
X150055411Y-57957990D01*
X150298632Y-57795475D01*
X150505475Y-57588632D01*
X150622000Y-57414240D01*
X150738525Y-57588632D01*
X150945368Y-57795475D01*
X151188589Y-57957990D01*
X151458842Y-58069932D01*
X151745740Y-58127000D01*
X152038260Y-58127000D01*
X152325158Y-58069932D01*
X152595411Y-57957990D01*
X152838632Y-57795475D01*
X153045475Y-57588632D01*
X153162000Y-57414240D01*
X153278525Y-57588632D01*
X153485368Y-57795475D01*
X153728589Y-57957990D01*
X153998842Y-58069932D01*
X154285740Y-58127000D01*
X154578260Y-58127000D01*
X154865158Y-58069932D01*
X155135411Y-57957990D01*
X155378632Y-57795475D01*
X155585475Y-57588632D01*
X155702000Y-57414240D01*
X155818525Y-57588632D01*
X156025368Y-57795475D01*
X156268589Y-57957990D01*
X156538842Y-58069932D01*
X156825740Y-58127000D01*
X157118260Y-58127000D01*
X157405158Y-58069932D01*
X157675411Y-57957990D01*
X157918632Y-57795475D01*
X158125475Y-57588632D01*
X158242000Y-57414240D01*
X158358525Y-57588632D01*
X158565368Y-57795475D01*
X158808589Y-57957990D01*
X159078842Y-58069932D01*
X159365740Y-58127000D01*
X159658260Y-58127000D01*
X159945158Y-58069932D01*
X160215411Y-57957990D01*
X160458632Y-57795475D01*
X160665475Y-57588632D01*
X160782000Y-57414240D01*
X160898525Y-57588632D01*
X161105368Y-57795475D01*
X161348589Y-57957990D01*
X161618842Y-58069932D01*
X161905740Y-58127000D01*
X162198260Y-58127000D01*
X162485158Y-58069932D01*
X162755411Y-57957990D01*
X162998632Y-57795475D01*
X163205475Y-57588632D01*
X163322000Y-57414240D01*
X163438525Y-57588632D01*
X163645368Y-57795475D01*
X163888589Y-57957990D01*
X164158842Y-58069932D01*
X164445740Y-58127000D01*
X164738260Y-58127000D01*
X165025158Y-58069932D01*
X165295411Y-57957990D01*
X165538632Y-57795475D01*
X165745475Y-57588632D01*
X165862000Y-57414240D01*
X165978525Y-57588632D01*
X166185368Y-57795475D01*
X166428589Y-57957990D01*
X166698842Y-58069932D01*
X166985740Y-58127000D01*
X167278260Y-58127000D01*
X167565158Y-58069932D01*
X167835411Y-57957990D01*
X168078632Y-57795475D01*
X168285475Y-57588632D01*
X168447990Y-57345411D01*
X168559932Y-57075158D01*
X168617000Y-56788260D01*
X168617000Y-56495740D01*
X168559932Y-56208842D01*
X168447990Y-55938589D01*
X168372826Y-55826098D01*
X178366000Y-55826098D01*
X178366000Y-56295902D01*
X178457654Y-56756679D01*
X178637440Y-57190721D01*
X178898450Y-57581349D01*
X179230651Y-57913550D01*
X179621279Y-58174560D01*
X180055321Y-58354346D01*
X180516098Y-58446000D01*
X180985902Y-58446000D01*
X181446679Y-58354346D01*
X181880721Y-58174560D01*
X182271349Y-57913550D01*
X182603550Y-57581349D01*
X182864560Y-57190721D01*
X183044346Y-56756679D01*
X183136000Y-56295902D01*
X183136000Y-55826098D01*
X183044346Y-55365321D01*
X182864560Y-54931279D01*
X182603550Y-54540651D01*
X182271349Y-54208450D01*
X181880721Y-53947440D01*
X181446679Y-53767654D01*
X180985902Y-53676000D01*
X180516098Y-53676000D01*
X180055321Y-53767654D01*
X179621279Y-53947440D01*
X179230651Y-54208450D01*
X178898450Y-54540651D01*
X178637440Y-54931279D01*
X178457654Y-55365321D01*
X178366000Y-55826098D01*
X168372826Y-55826098D01*
X168285475Y-55695368D01*
X168078632Y-55488525D01*
X167902594Y-55370900D01*
X168132269Y-55199588D01*
X168327178Y-54983355D01*
X168476157Y-54733252D01*
X168573481Y-54458891D01*
X168452814Y-54229000D01*
X167259000Y-54229000D01*
X167259000Y-54249000D01*
X167005000Y-54249000D01*
X167005000Y-54229000D01*
X164719000Y-54229000D01*
X164719000Y-54249000D01*
X164465000Y-54249000D01*
X164465000Y-54229000D01*
X164445000Y-54229000D01*
X164445000Y-53975000D01*
X164465000Y-53975000D01*
X164465000Y-53955000D01*
X164719000Y-53955000D01*
X164719000Y-53975000D01*
X167005000Y-53975000D01*
X167005000Y-53955000D01*
X167259000Y-53955000D01*
X167259000Y-53975000D01*
X168452814Y-53975000D01*
X168573481Y-53745109D01*
X168476157Y-53470748D01*
X168327178Y-53220645D01*
X168132269Y-53004412D01*
X168074067Y-52961000D01*
X183861000Y-52961000D01*
X183861000Y-64580379D01*
X183779475Y-64458368D01*
X183572632Y-64251525D01*
X183329411Y-64089010D01*
X183059158Y-63977068D01*
X182772260Y-63920000D01*
X182479740Y-63920000D01*
X182192842Y-63977068D01*
X181922589Y-64089010D01*
X181679368Y-64251525D01*
X181472525Y-64458368D01*
X181356000Y-64632760D01*
X181239475Y-64458368D01*
X181032632Y-64251525D01*
X180789411Y-64089010D01*
X180519158Y-63977068D01*
X180232260Y-63920000D01*
X179939740Y-63920000D01*
X179652842Y-63977068D01*
X179382589Y-64089010D01*
X179139368Y-64251525D01*
X178932525Y-64458368D01*
X178770010Y-64701589D01*
X178658068Y-64971842D01*
X178601000Y-65258740D01*
X178601000Y-65551260D01*
X178658068Y-65838158D01*
X178770010Y-66108411D01*
X178932525Y-66351632D01*
X179139368Y-66558475D01*
X179313760Y-66675000D01*
X179139368Y-66791525D01*
X178932525Y-66998368D01*
X178770010Y-67241589D01*
X178658068Y-67511842D01*
X178601000Y-67798740D01*
X178601000Y-68091260D01*
X178658068Y-68378158D01*
X178770010Y-68648411D01*
X178932525Y-68891632D01*
X179139368Y-69098475D01*
X179313760Y-69215000D01*
X179139368Y-69331525D01*
X178932525Y-69538368D01*
X178770010Y-69781589D01*
X178658068Y-70051842D01*
X178601000Y-70338740D01*
X178601000Y-70631260D01*
X178658068Y-70918158D01*
X178770010Y-71188411D01*
X178932525Y-71431632D01*
X179139368Y-71638475D01*
X179313760Y-71755000D01*
X179139368Y-71871525D01*
X178932525Y-72078368D01*
X178770010Y-72321589D01*
X178658068Y-72591842D01*
X178601000Y-72878740D01*
X178601000Y-73171260D01*
X178658068Y-73458158D01*
X178770010Y-73728411D01*
X178932525Y-73971632D01*
X179139368Y-74178475D01*
X179313760Y-74295000D01*
X179139368Y-74411525D01*
X178932525Y-74618368D01*
X178770010Y-74861589D01*
X178658068Y-75131842D01*
X178601000Y-75418740D01*
X178601000Y-75711260D01*
X178658068Y-75998158D01*
X178686736Y-76067369D01*
X178615724Y-76105326D01*
X178499999Y-76200299D01*
X178476201Y-76229297D01*
X177017499Y-77688000D01*
X176955361Y-77688000D01*
X176755402Y-77727774D01*
X176567044Y-77805795D01*
X176397526Y-77919063D01*
X176253363Y-78063226D01*
X176140095Y-78232744D01*
X176062074Y-78421102D01*
X176022300Y-78621061D01*
X176022300Y-78709700D01*
X173043229Y-78709700D01*
X173146990Y-78554411D01*
X173258932Y-78284158D01*
X173316000Y-77997260D01*
X173316000Y-77704740D01*
X173258932Y-77417842D01*
X173146990Y-77147589D01*
X172984475Y-76904368D01*
X172777632Y-76697525D01*
X172603240Y-76581000D01*
X172777632Y-76464475D01*
X172984475Y-76257632D01*
X173146990Y-76014411D01*
X173258932Y-75744158D01*
X173316000Y-75457260D01*
X173316000Y-75164740D01*
X173258932Y-74877842D01*
X173146990Y-74607589D01*
X172984475Y-74364368D01*
X172777632Y-74157525D01*
X172603240Y-74041000D01*
X172777632Y-73924475D01*
X172984475Y-73717632D01*
X173146990Y-73474411D01*
X173258932Y-73204158D01*
X173316000Y-72917260D01*
X173316000Y-72624740D01*
X173258932Y-72337842D01*
X173146990Y-72067589D01*
X172984475Y-71824368D01*
X172777632Y-71617525D01*
X172534411Y-71455010D01*
X172264158Y-71343068D01*
X171977260Y-71286000D01*
X171684740Y-71286000D01*
X171464592Y-71329790D01*
X164884804Y-64750003D01*
X164861001Y-64720999D01*
X164745276Y-64626026D01*
X164613247Y-64555454D01*
X164469986Y-64511997D01*
X164358333Y-64501000D01*
X164358322Y-64501000D01*
X164321000Y-64497324D01*
X164283678Y-64501000D01*
X157929313Y-64501000D01*
X157783312Y-64282495D01*
X157569505Y-64068688D01*
X157318095Y-63900701D01*
X157038743Y-63784989D01*
X156742184Y-63726000D01*
X156439816Y-63726000D01*
X156143257Y-63784989D01*
X155863905Y-63900701D01*
X155612495Y-64068688D01*
X155546056Y-64135127D01*
X155540502Y-64116820D01*
X155481537Y-64006506D01*
X155402185Y-63909815D01*
X155305494Y-63830463D01*
X155195180Y-63771498D01*
X155075482Y-63735188D01*
X154951000Y-63722928D01*
X154336750Y-63726000D01*
X154178000Y-63884750D01*
X154178000Y-65134000D01*
X154198000Y-65134000D01*
X154198000Y-65388000D01*
X154178000Y-65388000D01*
X154178000Y-66637250D01*
X154336750Y-66796000D01*
X154951000Y-66799072D01*
X155075482Y-66786812D01*
X155195180Y-66750502D01*
X155305494Y-66691537D01*
X155402185Y-66612185D01*
X155481537Y-66515494D01*
X155540502Y-66405180D01*
X155546056Y-66386873D01*
X155612495Y-66453312D01*
X155863905Y-66621299D01*
X156143257Y-66737011D01*
X156439816Y-66796000D01*
X156742184Y-66796000D01*
X157038743Y-66737011D01*
X157318095Y-66621299D01*
X157569505Y-66453312D01*
X157783312Y-66239505D01*
X157929313Y-66021000D01*
X164006199Y-66021000D01*
X169268126Y-71282928D01*
X168691000Y-71282928D01*
X168517746Y-71299992D01*
X168351150Y-71350528D01*
X168197614Y-71432595D01*
X168063038Y-71543038D01*
X167952595Y-71677614D01*
X167870528Y-71831150D01*
X167819992Y-71997746D01*
X167818687Y-72011000D01*
X159201102Y-72011000D01*
X153875676Y-66685574D01*
X153924000Y-66637250D01*
X153924000Y-65388000D01*
X152674750Y-65388000D01*
X152626426Y-65436324D01*
X151551102Y-64361000D01*
X152512928Y-64361000D01*
X152516000Y-64975250D01*
X152674750Y-65134000D01*
X153924000Y-65134000D01*
X153924000Y-63884750D01*
X153765250Y-63726000D01*
X153151000Y-63722928D01*
X153026518Y-63735188D01*
X152906820Y-63771498D01*
X152796506Y-63830463D01*
X152699815Y-63909815D01*
X152620463Y-64006506D01*
X152561498Y-64116820D01*
X152525188Y-64236518D01*
X152512928Y-64361000D01*
X151551102Y-64361000D01*
X150560104Y-63370003D01*
X150536301Y-63340999D01*
X150420576Y-63246026D01*
X150288547Y-63175454D01*
X150145286Y-63131997D01*
X150071250Y-63124705D01*
X150007962Y-63029987D01*
X149822013Y-62844038D01*
X149603359Y-62697939D01*
X149360405Y-62597304D01*
X149102486Y-62546000D01*
X148839514Y-62546000D01*
X148581595Y-62597304D01*
X148338641Y-62697939D01*
X148119987Y-62844038D01*
X147934038Y-63029987D01*
X147873225Y-63121000D01*
X137283322Y-63121000D01*
X137245999Y-63117324D01*
X137208676Y-63121000D01*
X137208667Y-63121000D01*
X137097014Y-63131997D01*
X136953753Y-63175454D01*
X136821724Y-63246026D01*
X136705999Y-63340999D01*
X136682201Y-63369997D01*
X136566468Y-63485730D01*
X136558932Y-63447842D01*
X136446990Y-63177589D01*
X136284475Y-62934368D01*
X136077632Y-62727525D01*
X135834411Y-62565010D01*
X135564158Y-62453068D01*
X135277260Y-62396000D01*
X134984740Y-62396000D01*
X134697842Y-62453068D01*
X134427589Y-62565010D01*
X134184368Y-62727525D01*
X133977525Y-62934368D01*
X133861000Y-63108760D01*
X133744475Y-62934368D01*
X133537632Y-62727525D01*
X133294411Y-62565010D01*
X133024158Y-62453068D01*
X132737260Y-62396000D01*
X132444740Y-62396000D01*
X132157842Y-62453068D01*
X131887589Y-62565010D01*
X131644368Y-62727525D01*
X131512513Y-62859380D01*
X131490502Y-62786820D01*
X131431537Y-62676506D01*
X131352185Y-62579815D01*
X131255494Y-62500463D01*
X131145180Y-62441498D01*
X131025482Y-62405188D01*
X130901000Y-62392928D01*
X130336750Y-62396000D01*
X130178000Y-62554750D01*
X130178000Y-63754000D01*
X130198000Y-63754000D01*
X130198000Y-64008000D01*
X130178000Y-64008000D01*
X130178000Y-65207250D01*
X130336750Y-65366000D01*
X130901000Y-65369072D01*
X131025482Y-65356812D01*
X131145180Y-65320502D01*
X131255494Y-65261537D01*
X131352185Y-65182185D01*
X131431537Y-65085494D01*
X131490502Y-64975180D01*
X131512513Y-64902620D01*
X131644368Y-65034475D01*
X131887589Y-65196990D01*
X131919140Y-65210059D01*
X123509999Y-73619200D01*
X117947226Y-73619200D01*
X118013932Y-73458158D01*
X118071000Y-73171260D01*
X118071000Y-72878740D01*
X118013932Y-72591842D01*
X117901990Y-72321589D01*
X117739475Y-72078368D01*
X117532632Y-71871525D01*
X117358240Y-71755000D01*
X117532632Y-71638475D01*
X117739475Y-71431632D01*
X117901990Y-71188411D01*
X118013932Y-70918158D01*
X118071000Y-70631260D01*
X118071000Y-70338740D01*
X118013932Y-70051842D01*
X117901990Y-69781589D01*
X117739475Y-69538368D01*
X117532632Y-69331525D01*
X117358240Y-69215000D01*
X117532632Y-69098475D01*
X117739475Y-68891632D01*
X117901990Y-68648411D01*
X118013932Y-68378158D01*
X118071000Y-68091260D01*
X118071000Y-67798740D01*
X118013932Y-67511842D01*
X117901990Y-67241589D01*
X117739475Y-66998368D01*
X117532632Y-66791525D01*
X117358240Y-66675000D01*
X117532632Y-66558475D01*
X117739475Y-66351632D01*
X117901990Y-66108411D01*
X118013932Y-65838158D01*
X118071000Y-65551260D01*
X118071000Y-65258740D01*
X118013932Y-64971842D01*
X117914173Y-64731000D01*
X128562928Y-64731000D01*
X128575188Y-64855482D01*
X128611498Y-64975180D01*
X128670463Y-65085494D01*
X128749815Y-65182185D01*
X128846506Y-65261537D01*
X128956820Y-65320502D01*
X129076518Y-65356812D01*
X129201000Y-65369072D01*
X129765250Y-65366000D01*
X129924000Y-65207250D01*
X129924000Y-64008000D01*
X128724750Y-64008000D01*
X128566000Y-64166750D01*
X128562928Y-64731000D01*
X117914173Y-64731000D01*
X117901990Y-64701589D01*
X117739475Y-64458368D01*
X117532632Y-64251525D01*
X117289411Y-64089010D01*
X117019158Y-63977068D01*
X116732260Y-63920000D01*
X116439740Y-63920000D01*
X116152842Y-63977068D01*
X115882589Y-64089010D01*
X115639368Y-64251525D01*
X115432525Y-64458368D01*
X115316000Y-64632760D01*
X115199475Y-64458368D01*
X114992632Y-64251525D01*
X114749411Y-64089010D01*
X114479158Y-63977068D01*
X114192260Y-63920000D01*
X113899740Y-63920000D01*
X113612842Y-63977068D01*
X113342589Y-64089010D01*
X113099368Y-64251525D01*
X112892525Y-64458368D01*
X112771000Y-64640243D01*
X112771000Y-63031000D01*
X128562928Y-63031000D01*
X128566000Y-63595250D01*
X128724750Y-63754000D01*
X129924000Y-63754000D01*
X129924000Y-62554750D01*
X129765250Y-62396000D01*
X129201000Y-62392928D01*
X129076518Y-62405188D01*
X128956820Y-62441498D01*
X128846506Y-62500463D01*
X128749815Y-62579815D01*
X128670463Y-62676506D01*
X128611498Y-62786820D01*
X128575188Y-62906518D01*
X128562928Y-63031000D01*
X112771000Y-63031000D01*
X112771000Y-55826098D01*
X113466000Y-55826098D01*
X113466000Y-56295902D01*
X113557654Y-56756679D01*
X113737440Y-57190721D01*
X113998450Y-57581349D01*
X114330651Y-57913550D01*
X114721279Y-58174560D01*
X115155321Y-58354346D01*
X115616098Y-58446000D01*
X116085902Y-58446000D01*
X116546679Y-58354346D01*
X116980721Y-58174560D01*
X117371349Y-57913550D01*
X117703550Y-57581349D01*
X117763251Y-57492000D01*
X127543928Y-57492000D01*
X127556188Y-57616482D01*
X127592498Y-57736180D01*
X127651463Y-57846494D01*
X127730815Y-57943185D01*
X127827506Y-58022537D01*
X127937820Y-58081502D01*
X128057518Y-58117812D01*
X128182000Y-58130072D01*
X128746250Y-58127000D01*
X128905000Y-57968250D01*
X128905000Y-56769000D01*
X127705750Y-56769000D01*
X127547000Y-56927750D01*
X127543928Y-57492000D01*
X117763251Y-57492000D01*
X117964560Y-57190721D01*
X118144346Y-56756679D01*
X118236000Y-56295902D01*
X118236000Y-55826098D01*
X118144346Y-55365321D01*
X117964560Y-54931279D01*
X117703550Y-54540651D01*
X117371349Y-54208450D01*
X116980721Y-53947440D01*
X116546679Y-53767654D01*
X116085902Y-53676000D01*
X115616098Y-53676000D01*
X115155321Y-53767654D01*
X114721279Y-53947440D01*
X114330651Y-54208450D01*
X113998450Y-54540651D01*
X113737440Y-54931279D01*
X113557654Y-55365321D01*
X113466000Y-55826098D01*
X112771000Y-55826098D01*
X112771000Y-52961000D01*
X128072893Y-52961000D01*
X127878525Y-53155368D01*
G37*
%TD.AperFunction*%
D20*
X167815661Y-75087411D02*
X167800389Y-75379531D01*
X167842401Y-75669019D01*
X167940081Y-75944747D01*
X168013528Y-76082157D01*
X168262603Y-76159792D01*
X169111395Y-75311000D01*
X169097253Y-75296858D01*
X169276858Y-75117253D01*
X169291000Y-75131395D01*
X169305143Y-75117253D01*
X169484748Y-75296858D01*
X169470605Y-75311000D01*
X170319397Y-76159792D01*
X170561689Y-76084271D01*
X170677525Y-76257632D01*
X170884368Y-76464475D01*
X171058760Y-76581000D01*
X170884368Y-76697525D01*
X170677525Y-76904368D01*
X170561000Y-77078760D01*
X170444475Y-76904368D01*
X170237632Y-76697525D01*
X170064271Y-76581689D01*
X170139792Y-76339397D01*
X169291000Y-75490605D01*
X168442208Y-76339397D01*
X168517729Y-76581689D01*
X168346650Y-76696000D01*
X132521267Y-76696000D01*
X132550853Y-76624574D01*
X132606000Y-76347335D01*
X132606000Y-76064665D01*
X132569688Y-75882114D01*
X133597702Y-74854100D01*
X167874882Y-74854100D01*
X167815661Y-75087411D01*
%TA.AperFunction,Conductor*%
D21*
G36*
X167815661Y-75087411D02*
G01*
X167800389Y-75379531D01*
X167842401Y-75669019D01*
X167940081Y-75944747D01*
X168013528Y-76082157D01*
X168262603Y-76159792D01*
X169111395Y-75311000D01*
X169097253Y-75296858D01*
X169276858Y-75117253D01*
X169291000Y-75131395D01*
X169305143Y-75117253D01*
X169484748Y-75296858D01*
X169470605Y-75311000D01*
X170319397Y-76159792D01*
X170561689Y-76084271D01*
X170677525Y-76257632D01*
X170884368Y-76464475D01*
X171058760Y-76581000D01*
X170884368Y-76697525D01*
X170677525Y-76904368D01*
X170561000Y-77078760D01*
X170444475Y-76904368D01*
X170237632Y-76697525D01*
X170064271Y-76581689D01*
X170139792Y-76339397D01*
X169291000Y-75490605D01*
X168442208Y-76339397D01*
X168517729Y-76581689D01*
X168346650Y-76696000D01*
X132521267Y-76696000D01*
X132550853Y-76624574D01*
X132606000Y-76347335D01*
X132606000Y-76064665D01*
X132569688Y-75882114D01*
X133597702Y-74854100D01*
X167874882Y-74854100D01*
X167815661Y-75087411D01*
G37*
%TD.AperFunction*%
D20*
X127291147Y-72037426D02*
X127236000Y-72314665D01*
X127236000Y-72597335D01*
X127291147Y-72874574D01*
X127399320Y-73135727D01*
X127556363Y-73370759D01*
X127756241Y-73570637D01*
X127956869Y-73704692D01*
X127929486Y-73719329D01*
X127857903Y-73963298D01*
X128671000Y-74776395D01*
X129484097Y-73963298D01*
X129412514Y-73719329D01*
X129383659Y-73705676D01*
X129585759Y-73570637D01*
X129771823Y-73384573D01*
X129736000Y-73564665D01*
X129736000Y-73847335D01*
X129791147Y-74124574D01*
X129817421Y-74188006D01*
X129663702Y-74142903D01*
X128850605Y-74956000D01*
X129663702Y-75769097D01*
X129817421Y-75723994D01*
X129791147Y-75787426D01*
X129736000Y-76064665D01*
X129736000Y-76347335D01*
X129771823Y-76527427D01*
X129585759Y-76341363D01*
X129385131Y-76207308D01*
X129412514Y-76192671D01*
X129484097Y-75948702D01*
X128671000Y-75135605D01*
X127857903Y-75948702D01*
X127929486Y-76192671D01*
X127958341Y-76206324D01*
X127756241Y-76341363D01*
X127556363Y-76541241D01*
X127452957Y-76696000D01*
X119967102Y-76696000D01*
X118410301Y-75139200D01*
X123787478Y-75139200D01*
X123824800Y-75142876D01*
X123862122Y-75139200D01*
X123862133Y-75139200D01*
X123973786Y-75128203D01*
X124117047Y-75084746D01*
X124225993Y-75026512D01*
X127230783Y-75026512D01*
X127272213Y-75306130D01*
X127367397Y-75572292D01*
X127434329Y-75697514D01*
X127678298Y-75769097D01*
X128491395Y-74956000D01*
X127678298Y-74142903D01*
X127434329Y-74214486D01*
X127313429Y-74469996D01*
X127244700Y-74744184D01*
X127230783Y-75026512D01*
X124225993Y-75026512D01*
X124249076Y-75014174D01*
X124364801Y-74919201D01*
X124388604Y-74890197D01*
X127326341Y-71952460D01*
X127291147Y-72037426D01*
%TA.AperFunction,Conductor*%
D21*
G36*
X127291147Y-72037426D02*
G01*
X127236000Y-72314665D01*
X127236000Y-72597335D01*
X127291147Y-72874574D01*
X127399320Y-73135727D01*
X127556363Y-73370759D01*
X127756241Y-73570637D01*
X127956869Y-73704692D01*
X127929486Y-73719329D01*
X127857903Y-73963298D01*
X128671000Y-74776395D01*
X129484097Y-73963298D01*
X129412514Y-73719329D01*
X129383659Y-73705676D01*
X129585759Y-73570637D01*
X129771823Y-73384573D01*
X129736000Y-73564665D01*
X129736000Y-73847335D01*
X129791147Y-74124574D01*
X129817421Y-74188006D01*
X129663702Y-74142903D01*
X128850605Y-74956000D01*
X129663702Y-75769097D01*
X129817421Y-75723994D01*
X129791147Y-75787426D01*
X129736000Y-76064665D01*
X129736000Y-76347335D01*
X129771823Y-76527427D01*
X129585759Y-76341363D01*
X129385131Y-76207308D01*
X129412514Y-76192671D01*
X129484097Y-75948702D01*
X128671000Y-75135605D01*
X127857903Y-75948702D01*
X127929486Y-76192671D01*
X127958341Y-76206324D01*
X127756241Y-76341363D01*
X127556363Y-76541241D01*
X127452957Y-76696000D01*
X119967102Y-76696000D01*
X118410301Y-75139200D01*
X123787478Y-75139200D01*
X123824800Y-75142876D01*
X123862122Y-75139200D01*
X123862133Y-75139200D01*
X123973786Y-75128203D01*
X124117047Y-75084746D01*
X124225993Y-75026512D01*
X127230783Y-75026512D01*
X127272213Y-75306130D01*
X127367397Y-75572292D01*
X127434329Y-75697514D01*
X127678298Y-75769097D01*
X128491395Y-74956000D01*
X127678298Y-74142903D01*
X127434329Y-74214486D01*
X127313429Y-74469996D01*
X127244700Y-74744184D01*
X127230783Y-75026512D01*
X124225993Y-75026512D01*
X124249076Y-75014174D01*
X124364801Y-74919201D01*
X124388604Y-74890197D01*
X127326341Y-71952460D01*
X127291147Y-72037426D01*
G37*
%TD.AperFunction*%
D20*
X163396822Y-54983355D02*
X163591731Y-55199588D01*
X163821406Y-55370900D01*
X163645368Y-55488525D01*
X163438525Y-55695368D01*
X163322000Y-55869760D01*
X163205475Y-55695368D01*
X162998632Y-55488525D01*
X162824240Y-55372000D01*
X162998632Y-55255475D01*
X163205475Y-55048632D01*
X163327195Y-54866466D01*
X163396822Y-54983355D01*
%TA.AperFunction,Conductor*%
D21*
G36*
X163396822Y-54983355D02*
G01*
X163591731Y-55199588D01*
X163821406Y-55370900D01*
X163645368Y-55488525D01*
X163438525Y-55695368D01*
X163322000Y-55869760D01*
X163205475Y-55695368D01*
X162998632Y-55488525D01*
X162824240Y-55372000D01*
X162998632Y-55255475D01*
X163205475Y-55048632D01*
X163327195Y-54866466D01*
X163396822Y-54983355D01*
G37*
%TD.AperFunction*%
%TD*%
M02*
