%TF.GenerationSoftware,KiCad,Pcbnew,5.1.9+dfsg1-1*%
%TF.CreationDate,2021-12-02T21:44:05+01:00*%
%TF.ProjectId,STM32F4XX_Hat,53544d33-3246-4345-9858-5f4861742e6b,rev?*%
%TF.SameCoordinates,Original*%
%TF.FileFunction,Soldermask,Bot*%
%TF.FilePolarity,Negative*%
%FSLAX46Y46*%
G04 Gerber Fmt 4.6, Leading zero omitted, Abs format (unit mm)*
G04 Created by KiCad (PCBNEW 5.1.9+dfsg1-1) date 2021-12-02 21:44:05*
%MOMM*%
%LPD*%
G01*
G04 APERTURE LIST*
%ADD10C,3.500000*%
%ADD11O,1.400000X1.400000*%
%ADD12C,1.400000*%
%ADD13O,1.700000X1.700000*%
%ADD14R,1.700000X1.700000*%
%ADD15C,1.800000*%
%ADD16R,1.800000X1.800000*%
%ADD17C,1.700000*%
%ADD18C,1.600000*%
%ADD19C,0.800000*%
G04 APERTURE END LIST*
D10*
%TO.C,H1*%
X115851000Y-56061000D03*
%TD*%
%TO.C,H4*%
X180751000Y-133761000D03*
%TD*%
%TO.C,H3*%
X115851000Y-133761000D03*
%TD*%
%TO.C,H2*%
X180751000Y-56061000D03*
%TD*%
D11*
%TO.C,R6*%
X166851000Y-131121000D03*
D12*
X166851000Y-133661000D03*
%TD*%
D11*
%TO.C,R5*%
X135351000Y-131121000D03*
D12*
X135351000Y-133661000D03*
%TD*%
D11*
%TO.C,R4*%
X156351000Y-131121000D03*
D12*
X156351000Y-133661000D03*
%TD*%
D11*
%TO.C,R3*%
X145951000Y-131021000D03*
D12*
X145951000Y-133561000D03*
%TD*%
D11*
%TO.C,R2*%
X124851000Y-131121000D03*
D12*
X124851000Y-133661000D03*
%TD*%
D13*
%TO.C,J6*%
X135131000Y-63881000D03*
X132591000Y-63881000D03*
D14*
X130051000Y-63881000D03*
%TD*%
D15*
%TO.C,D6*%
X172591000Y-132561000D03*
D16*
X170051000Y-132561000D03*
%TD*%
D15*
%TO.C,D5*%
X141091000Y-132361000D03*
D16*
X138551000Y-132361000D03*
%TD*%
D15*
%TO.C,D4*%
X162191000Y-132461000D03*
D16*
X159651000Y-132461000D03*
%TD*%
D15*
%TO.C,D3*%
X151691000Y-132361000D03*
D16*
X149151000Y-132361000D03*
%TD*%
D15*
%TO.C,D2*%
X130591000Y-132261000D03*
D16*
X128051000Y-132261000D03*
%TD*%
%TO.C,D1*%
X154051000Y-65261000D03*
D15*
X156591000Y-65261000D03*
%TD*%
D14*
%TO.C,J1*%
X129032000Y-56642000D03*
D13*
X129032000Y-54102000D03*
X131572000Y-56642000D03*
X131572000Y-54102000D03*
X134112000Y-56642000D03*
X134112000Y-54102000D03*
X136652000Y-56642000D03*
X136652000Y-54102000D03*
X139192000Y-56642000D03*
X139192000Y-54102000D03*
X141732000Y-56642000D03*
X141732000Y-54102000D03*
X144272000Y-56642000D03*
X144272000Y-54102000D03*
X146812000Y-56642000D03*
X146812000Y-54102000D03*
X149352000Y-56642000D03*
X149352000Y-54102000D03*
X151892000Y-56642000D03*
X151892000Y-54102000D03*
X154432000Y-56642000D03*
X154432000Y-54102000D03*
X156972000Y-56642000D03*
X156972000Y-54102000D03*
X159512000Y-56642000D03*
X159512000Y-54102000D03*
X162052000Y-56642000D03*
X162052000Y-54102000D03*
X164592000Y-56642000D03*
X164592000Y-54102000D03*
X167132000Y-56642000D03*
X167132000Y-54102000D03*
%TD*%
D14*
%TO.C,J2*%
X182626000Y-123825000D03*
D13*
X180086000Y-123825000D03*
X182626000Y-121285000D03*
X180086000Y-121285000D03*
X182626000Y-118745000D03*
X180086000Y-118745000D03*
X182626000Y-116205000D03*
X180086000Y-116205000D03*
X182626000Y-113665000D03*
X180086000Y-113665000D03*
X182626000Y-111125000D03*
X180086000Y-111125000D03*
X182626000Y-108585000D03*
X180086000Y-108585000D03*
X182626000Y-106045000D03*
X180086000Y-106045000D03*
X182626000Y-103505000D03*
X180086000Y-103505000D03*
X182626000Y-100965000D03*
X180086000Y-100965000D03*
X182626000Y-98425000D03*
X180086000Y-98425000D03*
X182626000Y-95885000D03*
X180086000Y-95885000D03*
X182626000Y-93345000D03*
X180086000Y-93345000D03*
X182626000Y-90805000D03*
X180086000Y-90805000D03*
X182626000Y-88265000D03*
X180086000Y-88265000D03*
X182626000Y-85725000D03*
X180086000Y-85725000D03*
X182626000Y-83185000D03*
X180086000Y-83185000D03*
X182626000Y-80645000D03*
X180086000Y-80645000D03*
X182626000Y-78105000D03*
X180086000Y-78105000D03*
X182626000Y-75565000D03*
X180086000Y-75565000D03*
X182626000Y-73025000D03*
X180086000Y-73025000D03*
X182626000Y-70485000D03*
X180086000Y-70485000D03*
X182626000Y-67945000D03*
X180086000Y-67945000D03*
X182626000Y-65405000D03*
X180086000Y-65405000D03*
%TD*%
%TO.C,J3*%
X114046000Y-65405000D03*
X116586000Y-65405000D03*
X114046000Y-67945000D03*
X116586000Y-67945000D03*
X114046000Y-70485000D03*
X116586000Y-70485000D03*
X114046000Y-73025000D03*
X116586000Y-73025000D03*
X114046000Y-75565000D03*
X116586000Y-75565000D03*
X114046000Y-78105000D03*
X116586000Y-78105000D03*
X114046000Y-80645000D03*
X116586000Y-80645000D03*
X114046000Y-83185000D03*
X116586000Y-83185000D03*
X114046000Y-85725000D03*
X116586000Y-85725000D03*
X114046000Y-88265000D03*
X116586000Y-88265000D03*
X114046000Y-90805000D03*
X116586000Y-90805000D03*
X114046000Y-93345000D03*
X116586000Y-93345000D03*
X114046000Y-95885000D03*
X116586000Y-95885000D03*
X114046000Y-98425000D03*
X116586000Y-98425000D03*
X114046000Y-100965000D03*
X116586000Y-100965000D03*
X114046000Y-103505000D03*
X116586000Y-103505000D03*
X114046000Y-106045000D03*
X116586000Y-106045000D03*
X114046000Y-108585000D03*
X116586000Y-108585000D03*
X114046000Y-111125000D03*
X116586000Y-111125000D03*
X114046000Y-113665000D03*
X116586000Y-113665000D03*
X114046000Y-116205000D03*
X116586000Y-116205000D03*
X114046000Y-118745000D03*
X116586000Y-118745000D03*
X114046000Y-121285000D03*
X116586000Y-121285000D03*
X114046000Y-123825000D03*
D14*
X116586000Y-123825000D03*
%TD*%
%TO.C,J4*%
G36*
G01*
X168441000Y-73371000D02*
X168441000Y-72171000D01*
G75*
G02*
X168691000Y-71921000I250000J0D01*
G01*
X169891000Y-71921000D01*
G75*
G02*
X170141000Y-72171000I0J-250000D01*
G01*
X170141000Y-73371000D01*
G75*
G02*
X169891000Y-73621000I-250000J0D01*
G01*
X168691000Y-73621000D01*
G75*
G02*
X168441000Y-73371000I0J250000D01*
G01*
G37*
D17*
X169291000Y-75311000D03*
X169291000Y-77851000D03*
X169291000Y-80391000D03*
X169291000Y-82931000D03*
X169291000Y-85471000D03*
X169291000Y-88011000D03*
X169291000Y-90551000D03*
X169291000Y-93091000D03*
X169291000Y-95631000D03*
X169291000Y-98171000D03*
X169291000Y-100711000D03*
X169291000Y-103251000D03*
X169291000Y-105791000D03*
X169291000Y-108331000D03*
X169291000Y-110871000D03*
X169291000Y-113411000D03*
X171831000Y-72771000D03*
X171831000Y-75311000D03*
X171831000Y-77851000D03*
X171831000Y-80391000D03*
X171831000Y-82931000D03*
X171831000Y-85471000D03*
X171831000Y-88011000D03*
X171831000Y-90551000D03*
X171831000Y-93091000D03*
X171831000Y-95631000D03*
X171831000Y-98171000D03*
X171831000Y-100711000D03*
X171831000Y-103251000D03*
X171831000Y-105791000D03*
X171831000Y-108331000D03*
X171831000Y-110871000D03*
X171831000Y-113411000D03*
%TD*%
D18*
%TO.C,J5*%
X128671000Y-72456000D03*
X131171000Y-73706000D03*
X128671000Y-74956000D03*
X131171000Y-76206000D03*
X128671000Y-77456000D03*
X131171000Y-78706000D03*
X128671000Y-79956000D03*
X131171000Y-81206000D03*
X128671000Y-82456000D03*
X131171000Y-83706000D03*
X128671000Y-84956000D03*
X131171000Y-86206000D03*
X128671000Y-87456000D03*
X131171000Y-88706000D03*
X128671000Y-89956000D03*
X131171000Y-91206000D03*
X128671000Y-92456000D03*
X131171000Y-93706000D03*
X128671000Y-94956000D03*
X131171000Y-96206000D03*
X128671000Y-97456000D03*
X131171000Y-98706000D03*
X128671000Y-99956000D03*
X131171000Y-101206000D03*
X128671000Y-102456000D03*
X131171000Y-103706000D03*
X128671000Y-104956000D03*
X131171000Y-106206000D03*
X128671000Y-107456000D03*
X131171000Y-108706000D03*
X128671000Y-109956000D03*
X131171000Y-111206000D03*
%TD*%
D12*
%TO.C,R1*%
X148971000Y-66421000D03*
D11*
X148971000Y-63881000D03*
%TD*%
D19*
X174492200Y-117051800D03*
X176383800Y-108585000D03*
X173300800Y-105572700D03*
X174591500Y-104721200D03*
X172644500Y-94388000D03*
X173976300Y-83502100D03*
X175908900Y-88898800D03*
X176412800Y-82754300D03*
X177057300Y-78723000D03*
M02*
