M48
; DRILL file {KiCad 5.1.9+dfsg1-1} date Thu Dec  2 21:43:54 2021
; FORMAT={-:-/ absolute / metric / decimal}
; #@! TF.CreationDate,2021-12-02T21:43:54+01:00
; #@! TF.GenerationSoftware,Kicad,Pcbnew,5.1.9+dfsg1-1
; #@! TF.FileFunction,Plated,1,2,PTH
FMAT,2
METRIC
T1C0.400
T2C0.700
T3C0.850
T4C0.900
T5C1.000
%
G90
G05
T1
X172.644Y-94.388
X173.301Y-105.573
X173.976Y-83.502
X174.492Y-117.052
X174.591Y-104.721
X175.909Y-88.899
X176.384Y-108.585
X176.413Y-82.754
X177.057Y-78.723
T2
X124.851Y-131.121
X124.851Y-133.661
X135.351Y-131.121
X135.351Y-133.661
X145.951Y-131.021
X145.951Y-133.561
X148.971Y-63.881
X148.971Y-66.421
X156.351Y-131.121
X156.351Y-133.661
X166.851Y-131.121
X166.851Y-133.661
T3
X128.671Y-72.456
X128.671Y-74.956
X128.671Y-77.456
X128.671Y-79.956
X128.671Y-82.456
X128.671Y-84.956
X128.671Y-87.456
X128.671Y-89.956
X128.671Y-92.456
X128.671Y-94.956
X128.671Y-97.456
X128.671Y-99.956
X128.671Y-102.456
X128.671Y-104.956
X128.671Y-107.456
X128.671Y-109.956
X131.171Y-73.706
X131.171Y-76.206
X131.171Y-78.706
X131.171Y-81.206
X131.171Y-83.706
X131.171Y-86.206
X131.171Y-88.706
X131.171Y-91.206
X131.171Y-93.706
X131.171Y-96.206
X131.171Y-98.706
X131.171Y-101.206
X131.171Y-103.706
X131.171Y-106.206
X131.171Y-108.706
X131.171Y-111.206
T4
X128.051Y-132.261
X130.591Y-132.261
X138.551Y-132.361
X141.091Y-132.361
X149.151Y-132.361
X151.691Y-132.361
X154.051Y-65.261
X156.591Y-65.261
X159.651Y-132.461
X162.191Y-132.461
X170.051Y-132.561
X172.591Y-132.561
T5
X114.046Y-65.405
X114.046Y-67.945
X114.046Y-70.485
X114.046Y-73.025
X114.046Y-75.565
X114.046Y-78.105
X114.046Y-80.645
X114.046Y-83.185
X114.046Y-85.725
X114.046Y-88.265
X114.046Y-90.805
X114.046Y-93.345
X114.046Y-95.885
X114.046Y-98.425
X114.046Y-100.965
X114.046Y-103.505
X114.046Y-106.045
X114.046Y-108.585
X114.046Y-111.125
X114.046Y-113.665
X114.046Y-116.205
X114.046Y-118.745
X114.046Y-121.285
X114.046Y-123.825
X116.586Y-65.405
X116.586Y-67.945
X116.586Y-70.485
X116.586Y-73.025
X116.586Y-75.565
X116.586Y-78.105
X116.586Y-80.645
X116.586Y-83.185
X116.586Y-85.725
X116.586Y-88.265
X116.586Y-90.805
X116.586Y-93.345
X116.586Y-95.885
X116.586Y-98.425
X116.586Y-100.965
X116.586Y-103.505
X116.586Y-106.045
X116.586Y-108.585
X116.586Y-111.125
X116.586Y-113.665
X116.586Y-116.205
X116.586Y-118.745
X116.586Y-121.285
X116.586Y-123.825
X129.032Y-54.102
X129.032Y-56.642
X130.051Y-63.881
X131.572Y-54.102
X131.572Y-56.642
X132.591Y-63.881
X134.112Y-54.102
X134.112Y-56.642
X135.131Y-63.881
X136.652Y-54.102
X136.652Y-56.642
X139.192Y-54.102
X139.192Y-56.642
X141.732Y-54.102
X141.732Y-56.642
X144.272Y-54.102
X144.272Y-56.642
X146.812Y-54.102
X146.812Y-56.642
X149.352Y-54.102
X149.352Y-56.642
X151.892Y-54.102
X151.892Y-56.642
X154.432Y-54.102
X154.432Y-56.642
X156.972Y-54.102
X156.972Y-56.642
X159.512Y-54.102
X159.512Y-56.642
X162.052Y-54.102
X162.052Y-56.642
X164.592Y-54.102
X164.592Y-56.642
X167.132Y-54.102
X167.132Y-56.642
X169.291Y-72.771
X169.291Y-75.311
X169.291Y-77.851
X169.291Y-80.391
X169.291Y-82.931
X169.291Y-85.471
X169.291Y-88.011
X169.291Y-90.551
X169.291Y-93.091
X169.291Y-95.631
X169.291Y-98.171
X169.291Y-100.711
X169.291Y-103.251
X169.291Y-105.791
X169.291Y-108.331
X169.291Y-110.871
X169.291Y-113.411
X171.831Y-72.771
X171.831Y-75.311
X171.831Y-77.851
X171.831Y-80.391
X171.831Y-82.931
X171.831Y-85.471
X171.831Y-88.011
X171.831Y-90.551
X171.831Y-93.091
X171.831Y-95.631
X171.831Y-98.171
X171.831Y-100.711
X171.831Y-103.251
X171.831Y-105.791
X171.831Y-108.331
X171.831Y-110.871
X171.831Y-113.411
X180.086Y-65.405
X180.086Y-67.945
X180.086Y-70.485
X180.086Y-73.025
X180.086Y-75.565
X180.086Y-78.105
X180.086Y-80.645
X180.086Y-83.185
X180.086Y-85.725
X180.086Y-88.265
X180.086Y-90.805
X180.086Y-93.345
X180.086Y-95.885
X180.086Y-98.425
X180.086Y-100.965
X180.086Y-103.505
X180.086Y-106.045
X180.086Y-108.585
X180.086Y-111.125
X180.086Y-113.665
X180.086Y-116.205
X180.086Y-118.745
X180.086Y-121.285
X180.086Y-123.825
X182.626Y-65.405
X182.626Y-67.945
X182.626Y-70.485
X182.626Y-73.025
X182.626Y-75.565
X182.626Y-78.105
X182.626Y-80.645
X182.626Y-83.185
X182.626Y-85.725
X182.626Y-88.265
X182.626Y-90.805
X182.626Y-93.345
X182.626Y-95.885
X182.626Y-98.425
X182.626Y-100.965
X182.626Y-103.505
X182.626Y-106.045
X182.626Y-108.585
X182.626Y-111.125
X182.626Y-113.665
X182.626Y-116.205
X182.626Y-118.745
X182.626Y-121.285
X182.626Y-123.825
T0
M30
