%TF.GenerationSoftware,KiCad,Pcbnew,5.1.9+dfsg1-1*%
%TF.CreationDate,2021-12-02T21:44:04+01:00*%
%TF.ProjectId,STM32F4XX_Hat,53544d33-3246-4345-9858-5f4861742e6b,rev?*%
%TF.SameCoordinates,Original*%
%TF.FileFunction,Copper,L1,Top*%
%TF.FilePolarity,Positive*%
%FSLAX46Y46*%
G04 Gerber Fmt 4.6, Leading zero omitted, Abs format (unit mm)*
G04 Created by KiCad (PCBNEW 5.1.9+dfsg1-1) date 2021-12-02 21:44:04*
%MOMM*%
%LPD*%
G01*
G04 APERTURE LIST*
%TA.AperFunction,ComponentPad*%
%ADD10O,1.400000X1.400000*%
%TD*%
%TA.AperFunction,ComponentPad*%
%ADD11C,1.400000*%
%TD*%
%TA.AperFunction,ComponentPad*%
%ADD12O,1.700000X1.700000*%
%TD*%
%TA.AperFunction,ComponentPad*%
%ADD13R,1.700000X1.700000*%
%TD*%
%TA.AperFunction,ComponentPad*%
%ADD14C,1.800000*%
%TD*%
%TA.AperFunction,ComponentPad*%
%ADD15R,1.800000X1.800000*%
%TD*%
%TA.AperFunction,ComponentPad*%
%ADD16C,1.700000*%
%TD*%
%TA.AperFunction,ComponentPad*%
%ADD17C,1.600000*%
%TD*%
%TA.AperFunction,ViaPad*%
%ADD18C,0.800000*%
%TD*%
%TA.AperFunction,Conductor*%
%ADD19C,0.250000*%
%TD*%
%TA.AperFunction,Conductor*%
%ADD20C,0.254000*%
%TD*%
%TA.AperFunction,Conductor*%
%ADD21C,0.100000*%
%TD*%
G04 APERTURE END LIST*
D10*
%TO.P,R6,2*%
%TO.N,Net-(D6-Pad1)*%
X166851000Y-131121000D03*
D11*
%TO.P,R6,1*%
%TO.N,/KANA*%
X166851000Y-133661000D03*
%TD*%
D10*
%TO.P,R5,2*%
%TO.N,Net-(D5-Pad1)*%
X135351000Y-131121000D03*
D11*
%TO.P,R5,1*%
%TO.N,/CAPSLK*%
X135351000Y-133661000D03*
%TD*%
D10*
%TO.P,R4,2*%
%TO.N,Net-(D4-Pad1)*%
X156351000Y-131121000D03*
D11*
%TO.P,R4,1*%
%TO.N,/COMPOSE*%
X156351000Y-133661000D03*
%TD*%
D10*
%TO.P,R3,2*%
%TO.N,Net-(D3-Pad1)*%
X145951000Y-131021000D03*
D11*
%TO.P,R3,1*%
%TO.N,/PA4*%
X145951000Y-133561000D03*
%TD*%
D10*
%TO.P,R2,2*%
%TO.N,Net-(D2-Pad1)*%
X124851000Y-131121000D03*
D11*
%TO.P,R2,1*%
%TO.N,/NUM_LK*%
X124851000Y-133661000D03*
%TD*%
D12*
%TO.P,J6,3*%
%TO.N,/PA9-TXD1*%
X135131000Y-63881000D03*
%TO.P,J6,2*%
%TO.N,/PA10-RXD1*%
X132591000Y-63881000D03*
D13*
%TO.P,J6,1*%
%TO.N,GND*%
X130051000Y-63881000D03*
%TD*%
D14*
%TO.P,D6,2*%
%TO.N,+3V3*%
X172591000Y-132561000D03*
D15*
%TO.P,D6,1*%
%TO.N,Net-(D6-Pad1)*%
X170051000Y-132561000D03*
%TD*%
D14*
%TO.P,D5,2*%
%TO.N,+3V3*%
X141091000Y-132361000D03*
D15*
%TO.P,D5,1*%
%TO.N,Net-(D5-Pad1)*%
X138551000Y-132361000D03*
%TD*%
D14*
%TO.P,D4,2*%
%TO.N,+3V3*%
X162191000Y-132461000D03*
D15*
%TO.P,D4,1*%
%TO.N,Net-(D4-Pad1)*%
X159651000Y-132461000D03*
%TD*%
D14*
%TO.P,D3,2*%
%TO.N,+3V3*%
X151691000Y-132361000D03*
D15*
%TO.P,D3,1*%
%TO.N,Net-(D3-Pad1)*%
X149151000Y-132361000D03*
%TD*%
D14*
%TO.P,D2,2*%
%TO.N,+3V3*%
X130591000Y-132261000D03*
D15*
%TO.P,D2,1*%
%TO.N,Net-(D2-Pad1)*%
X128051000Y-132261000D03*
%TD*%
%TO.P,D1,1*%
%TO.N,GND*%
X154051000Y-65261000D03*
D14*
%TO.P,D1,2*%
%TO.N,~LED*%
X156591000Y-65261000D03*
%TD*%
D13*
%TO.P,J1,1*%
%TO.N,GND*%
X129032000Y-56642000D03*
D12*
%TO.P,J1,2*%
%TO.N,Net-(J1-Pad2)*%
X129032000Y-54102000D03*
%TO.P,J1,3*%
%TO.N,Net-(J1-Pad3)*%
X131572000Y-56642000D03*
%TO.P,J1,4*%
%TO.N,Net-(J1-Pad4)*%
X131572000Y-54102000D03*
%TO.P,J1,5*%
%TO.N,Net-(J1-Pad5)*%
X134112000Y-56642000D03*
%TO.P,J1,6*%
%TO.N,Net-(J1-Pad6)*%
X134112000Y-54102000D03*
%TO.P,J1,7*%
%TO.N,Net-(J1-Pad7)*%
X136652000Y-56642000D03*
%TO.P,J1,8*%
%TO.N,Net-(J1-Pad8)*%
X136652000Y-54102000D03*
%TO.P,J1,9*%
%TO.N,Net-(J1-Pad9)*%
X139192000Y-56642000D03*
%TO.P,J1,10*%
%TO.N,Net-(J1-Pad10)*%
X139192000Y-54102000D03*
%TO.P,J1,11*%
%TO.N,Net-(J1-Pad11)*%
X141732000Y-56642000D03*
%TO.P,J1,12*%
%TO.N,Net-(J1-Pad12)*%
X141732000Y-54102000D03*
%TO.P,J1,13*%
%TO.N,Net-(J1-Pad13)*%
X144272000Y-56642000D03*
%TO.P,J1,14*%
%TO.N,Net-(J1-Pad14)*%
X144272000Y-54102000D03*
%TO.P,J1,15*%
%TO.N,Net-(J1-Pad15)*%
X146812000Y-56642000D03*
%TO.P,J1,16*%
%TO.N,Net-(J1-Pad16)*%
X146812000Y-54102000D03*
%TO.P,J1,17*%
%TO.N,Net-(J1-Pad17)*%
X149352000Y-56642000D03*
%TO.P,J1,18*%
%TO.N,Net-(J1-Pad18)*%
X149352000Y-54102000D03*
%TO.P,J1,19*%
%TO.N,Net-(J1-Pad19)*%
X151892000Y-56642000D03*
%TO.P,J1,20*%
%TO.N,Net-(J1-Pad20)*%
X151892000Y-54102000D03*
%TO.P,J1,21*%
%TO.N,Net-(J1-Pad21)*%
X154432000Y-56642000D03*
%TO.P,J1,22*%
%TO.N,Net-(J1-Pad22)*%
X154432000Y-54102000D03*
%TO.P,J1,23*%
%TO.N,Net-(J1-Pad23)*%
X156972000Y-56642000D03*
%TO.P,J1,24*%
%TO.N,Net-(J1-Pad24)*%
X156972000Y-54102000D03*
%TO.P,J1,25*%
%TO.N,Net-(J1-Pad25)*%
X159512000Y-56642000D03*
%TO.P,J1,26*%
%TO.N,Net-(J1-Pad26)*%
X159512000Y-54102000D03*
%TO.P,J1,27*%
%TO.N,Net-(J1-Pad27)*%
X162052000Y-56642000D03*
%TO.P,J1,28*%
%TO.N,Net-(J1-Pad28)*%
X162052000Y-54102000D03*
%TO.P,J1,29*%
%TO.N,Net-(J1-Pad29)*%
X164592000Y-56642000D03*
%TO.P,J1,30*%
%TO.N,GND*%
X164592000Y-54102000D03*
%TO.P,J1,31*%
%TO.N,+3V3*%
X167132000Y-56642000D03*
%TO.P,J1,32*%
%TO.N,GND*%
X167132000Y-54102000D03*
%TD*%
D13*
%TO.P,J2,1*%
%TO.N,+5V*%
X182626000Y-123825000D03*
D12*
%TO.P,J2,2*%
X180086000Y-123825000D03*
%TO.P,J2,3*%
X182626000Y-121285000D03*
%TO.P,J2,4*%
X180086000Y-121285000D03*
%TO.P,J2,5*%
%TO.N,+3V3*%
X182626000Y-118745000D03*
%TO.P,J2,6*%
X180086000Y-118745000D03*
%TO.P,J2,7*%
X182626000Y-116205000D03*
%TO.P,J2,8*%
X180086000Y-116205000D03*
%TO.P,J2,9*%
%TO.N,GND*%
X182626000Y-113665000D03*
%TO.P,J2,10*%
X180086000Y-113665000D03*
%TO.P,J2,11*%
%TO.N,/PE2*%
X182626000Y-111125000D03*
%TO.P,J2,12*%
%TO.N,/PE3*%
X180086000Y-111125000D03*
%TO.P,J2,13*%
%TO.N,/PE4*%
X182626000Y-108585000D03*
%TO.P,J2,14*%
%TO.N,IN_4*%
X180086000Y-108585000D03*
%TO.P,J2,15*%
%TO.N,IN_6*%
X182626000Y-106045000D03*
%TO.P,J2,16*%
%TO.N,/PC13*%
X180086000Y-106045000D03*
%TO.P,J2,17*%
%TO.N,OUT_1*%
X182626000Y-103505000D03*
%TO.P,J2,18*%
%TO.N,OUT_4*%
X180086000Y-103505000D03*
%TO.P,J2,19*%
%TO.N,OUT_6*%
X182626000Y-100965000D03*
%TO.P,J2,20*%
%TO.N,OUT_2*%
X180086000Y-100965000D03*
%TO.P,J2,21*%
%TO.N,/VREF-*%
X182626000Y-98425000D03*
%TO.P,J2,22*%
%TO.N,/VREF+*%
X180086000Y-98425000D03*
%TO.P,J2,23*%
%TO.N,/PA0-WK_UP*%
X182626000Y-95885000D03*
%TO.P,J2,24*%
%TO.N,/PA1*%
X180086000Y-95885000D03*
%TO.P,J2,25*%
%TO.N,/PA2*%
X182626000Y-93345000D03*
%TO.P,J2,26*%
%TO.N,/NUM_LK*%
X180086000Y-93345000D03*
%TO.P,J2,27*%
%TO.N,/PA4*%
X182626000Y-90805000D03*
%TO.P,J2,28*%
%TO.N,/COMPOSE*%
X180086000Y-90805000D03*
%TO.P,J2,29*%
%TO.N,/CAPSLK*%
X182626000Y-88265000D03*
%TO.P,J2,30*%
%TO.N,/KANA*%
X180086000Y-88265000D03*
%TO.P,J2,31*%
%TO.N,OUT_7*%
X182626000Y-85725000D03*
%TO.P,J2,32*%
%TO.N,OUT_0*%
X180086000Y-85725000D03*
%TO.P,J2,33*%
%TO.N,/PB0*%
X182626000Y-83185000D03*
%TO.P,J2,34*%
%TO.N,/PB1*%
X180086000Y-83185000D03*
%TO.P,J2,35*%
%TO.N,IN_2*%
X182626000Y-80645000D03*
%TO.P,J2,36*%
%TO.N,IN_7*%
X180086000Y-80645000D03*
%TO.P,J2,37*%
%TO.N,IN_5*%
X182626000Y-78105000D03*
%TO.P,J2,38*%
%TO.N,IN_1*%
X180086000Y-78105000D03*
%TO.P,J2,39*%
%TO.N,IN_0*%
X182626000Y-75565000D03*
%TO.P,J2,40*%
%TO.N,IN_3*%
X180086000Y-75565000D03*
%TO.P,J2,41*%
%TO.N,RSC*%
X182626000Y-73025000D03*
%TO.P,J2,42*%
%TO.N,START*%
X180086000Y-73025000D03*
%TO.P,J2,43*%
%TO.N,SELECT*%
X182626000Y-70485000D03*
%TO.P,J2,44*%
%TO.N,/PB10*%
X180086000Y-70485000D03*
%TO.P,J2,45*%
%TO.N,/PB11*%
X182626000Y-67945000D03*
%TO.P,J2,46*%
%TO.N,/PB12*%
X180086000Y-67945000D03*
%TO.P,J2,47*%
%TO.N,/PB13*%
X182626000Y-65405000D03*
%TO.P,J2,48*%
%TO.N,/PB14*%
X180086000Y-65405000D03*
%TD*%
%TO.P,J3,48*%
%TO.N,/PB15*%
X114046000Y-65405000D03*
%TO.P,J3,47*%
%TO.N,OUT_FN*%
X116586000Y-65405000D03*
%TO.P,J3,46*%
%TO.N,/PD9*%
X114046000Y-67945000D03*
%TO.P,J3,45*%
%TO.N,/PD10*%
X116586000Y-67945000D03*
%TO.P,J3,44*%
%TO.N,/PD11*%
X114046000Y-70485000D03*
%TO.P,J3,43*%
%TO.N,/PD12*%
X116586000Y-70485000D03*
%TO.P,J3,42*%
%TO.N,/PD13*%
X114046000Y-73025000D03*
%TO.P,J3,41*%
%TO.N,/PD14*%
X116586000Y-73025000D03*
%TO.P,J3,40*%
%TO.N,/PD15*%
X114046000Y-75565000D03*
%TO.P,J3,39*%
%TO.N,OUT_3*%
X116586000Y-75565000D03*
%TO.P,J3,38*%
%TO.N,OUT_5*%
X114046000Y-78105000D03*
%TO.P,J3,37*%
%TO.N,/PC8*%
X116586000Y-78105000D03*
%TO.P,J3,36*%
%TO.N,/PC9*%
X114046000Y-80645000D03*
%TO.P,J3,35*%
%TO.N,/PA8*%
X116586000Y-80645000D03*
%TO.P,J3,34*%
%TO.N,/PA9-TXD1*%
X114046000Y-83185000D03*
%TO.P,J3,33*%
%TO.N,/PA10-RXD1*%
X116586000Y-83185000D03*
%TO.P,J3,32*%
%TO.N,/PA11-USB_DM*%
X114046000Y-85725000D03*
%TO.P,J3,31*%
%TO.N,/PA12-USB_DP*%
X116586000Y-85725000D03*
%TO.P,J3,30*%
%TO.N,/PA15-TDI_SWD*%
X114046000Y-88265000D03*
%TO.P,J3,29*%
%TO.N,/PC10*%
X116586000Y-88265000D03*
%TO.P,J3,28*%
%TO.N,/PC11*%
X114046000Y-90805000D03*
%TO.P,J3,27*%
%TO.N,/PC12*%
X116586000Y-90805000D03*
%TO.P,J3,26*%
%TO.N,OPTION*%
X114046000Y-93345000D03*
%TO.P,J3,25*%
%TO.N,RESET*%
X116586000Y-93345000D03*
%TO.P,J3,24*%
%TO.N,/PD2*%
X114046000Y-95885000D03*
%TO.P,J3,23*%
%TO.N,/PD3*%
X116586000Y-95885000D03*
%TO.P,J3,22*%
%TO.N,/PD4*%
X114046000Y-98425000D03*
%TO.P,J3,21*%
%TO.N,/PD5*%
X116586000Y-98425000D03*
%TO.P,J3,20*%
%TO.N,/PD6*%
X114046000Y-100965000D03*
%TO.P,J3,19*%
%TO.N,/PD7*%
X116586000Y-100965000D03*
%TO.P,J3,18*%
%TO.N,/PB3-TDO_SWD*%
X114046000Y-103505000D03*
%TO.P,J3,17*%
%TO.N,/PB5*%
X116586000Y-103505000D03*
%TO.P,J3,16*%
%TO.N,/PB6*%
X114046000Y-106045000D03*
%TO.P,J3,15*%
%TO.N,/PB7*%
X116586000Y-106045000D03*
%TO.P,J3,14*%
%TO.N,/PB8*%
X114046000Y-108585000D03*
%TO.P,J3,13*%
%TO.N,/PB9*%
X116586000Y-108585000D03*
%TO.P,J3,12*%
%TO.N,/PE0*%
X114046000Y-111125000D03*
%TO.P,J3,11*%
%TO.N,/PE1*%
X116586000Y-111125000D03*
%TO.P,J3,10*%
%TO.N,GND*%
X114046000Y-113665000D03*
%TO.P,J3,9*%
X116586000Y-113665000D03*
%TO.P,J3,8*%
X114046000Y-116205000D03*
%TO.P,J3,7*%
X116586000Y-116205000D03*
%TO.P,J3,6*%
%TO.N,/PB2-BOOT1*%
X114046000Y-118745000D03*
%TO.P,J3,5*%
%TO.N,/BOOT0*%
X116586000Y-118745000D03*
%TO.P,J3,4*%
%TO.N,+3V3*%
X114046000Y-121285000D03*
%TO.P,J3,3*%
X116586000Y-121285000D03*
%TO.P,J3,2*%
X114046000Y-123825000D03*
D13*
%TO.P,J3,1*%
X116586000Y-123825000D03*
%TD*%
%TO.P,J4,1*%
%TO.N,+5V*%
%TA.AperFunction,ComponentPad*%
G36*
G01*
X168441000Y-73371000D02*
X168441000Y-72171000D01*
G75*
G02*
X168691000Y-71921000I250000J0D01*
G01*
X169891000Y-71921000D01*
G75*
G02*
X170141000Y-72171000I0J-250000D01*
G01*
X170141000Y-73371000D01*
G75*
G02*
X169891000Y-73621000I-250000J0D01*
G01*
X168691000Y-73621000D01*
G75*
G02*
X168441000Y-73371000I0J250000D01*
G01*
G37*
%TD.AperFunction*%
D16*
%TO.P,J4,3*%
%TO.N,GND*%
X169291000Y-75311000D03*
%TO.P,J4,5*%
%TO.N,OUT_3*%
X169291000Y-77851000D03*
%TO.P,J4,7*%
%TO.N,OUT_7*%
X169291000Y-80391000D03*
%TO.P,J4,9*%
%TO.N,IN_7*%
X169291000Y-82931000D03*
%TO.P,J4,11*%
%TO.N,IN_1*%
X169291000Y-85471000D03*
%TO.P,J4,13*%
%TO.N,OUT_1*%
X169291000Y-88011000D03*
%TO.P,J4,15*%
%TO.N,OUT_2*%
X169291000Y-90551000D03*
%TO.P,J4,17*%
%TO.N,IN_0*%
X169291000Y-93091000D03*
%TO.P,J4,19*%
%TO.N,IN_4*%
X169291000Y-95631000D03*
%TO.P,J4,21*%
%TO.N,START*%
X169291000Y-98171000D03*
%TO.P,J4,23*%
%TO.N,OPTION*%
X169291000Y-100711000D03*
%TO.P,J4,25*%
%TO.N,LSC*%
X169291000Y-103251000D03*
%TO.P,J4,27*%
%TO.N,Net-(J4-Pad27)*%
X169291000Y-105791000D03*
%TO.P,J4,29*%
%TO.N,Net-(J4-Pad29)*%
X169291000Y-108331000D03*
%TO.P,J4,31*%
%TO.N,Net-(J4-Pad31)*%
X169291000Y-110871000D03*
%TO.P,J4,33*%
%TO.N,Net-(J4-Pad33)*%
X169291000Y-113411000D03*
%TO.P,J4,2*%
%TO.N,~LED*%
X171831000Y-72771000D03*
%TO.P,J4,4*%
%TO.N,IN_6*%
X171831000Y-75311000D03*
%TO.P,J4,6*%
%TO.N,OUT_5*%
X171831000Y-77851000D03*
%TO.P,J4,8*%
%TO.N,IN_2*%
X171831000Y-80391000D03*
%TO.P,J4,10*%
%TO.N,IN_5*%
X171831000Y-82931000D03*
%TO.P,J4,12*%
%TO.N,OUT_6*%
X171831000Y-85471000D03*
%TO.P,J4,14*%
%TO.N,OUT_4*%
X171831000Y-88011000D03*
%TO.P,J4,16*%
%TO.N,IN_3*%
X171831000Y-90551000D03*
%TO.P,J4,18*%
%TO.N,OUT_0*%
X171831000Y-93091000D03*
%TO.P,J4,20*%
%TO.N,RSC*%
X171831000Y-95631000D03*
%TO.P,J4,22*%
%TO.N,SELECT*%
X171831000Y-98171000D03*
%TO.P,J4,24*%
%TO.N,RESET*%
X171831000Y-100711000D03*
%TO.P,J4,26*%
%TO.N,OUT_FN*%
X171831000Y-103251000D03*
%TO.P,J4,28*%
%TO.N,Net-(J4-Pad28)*%
X171831000Y-105791000D03*
%TO.P,J4,30*%
%TO.N,Net-(J4-Pad30)*%
X171831000Y-108331000D03*
%TO.P,J4,32*%
%TO.N,Net-(J4-Pad32)*%
X171831000Y-110871000D03*
%TO.P,J4,34*%
%TO.N,Net-(J4-Pad34)*%
X171831000Y-113411000D03*
%TD*%
D17*
%TO.P,J5,1*%
%TO.N,+5V*%
X128671000Y-72456000D03*
%TO.P,J5,2*%
%TO.N,~LED*%
X131171000Y-73706000D03*
%TO.P,J5,3*%
%TO.N,GND*%
X128671000Y-74956000D03*
%TO.P,J5,4*%
%TO.N,IN_6*%
X131171000Y-76206000D03*
%TO.P,J5,5*%
%TO.N,OUT_3*%
X128671000Y-77456000D03*
%TO.P,J5,6*%
%TO.N,OUT_5*%
X131171000Y-78706000D03*
%TO.P,J5,7*%
%TO.N,OUT_7*%
X128671000Y-79956000D03*
%TO.P,J5,8*%
%TO.N,IN_2*%
X131171000Y-81206000D03*
%TO.P,J5,9*%
%TO.N,IN_7*%
X128671000Y-82456000D03*
%TO.P,J5,10*%
%TO.N,IN_5*%
X131171000Y-83706000D03*
%TO.P,J5,11*%
%TO.N,IN_1*%
X128671000Y-84956000D03*
%TO.P,J5,12*%
%TO.N,OUT_6*%
X131171000Y-86206000D03*
%TO.P,J5,13*%
%TO.N,OUT_1*%
X128671000Y-87456000D03*
%TO.P,J5,14*%
%TO.N,OUT_4*%
X131171000Y-88706000D03*
%TO.P,J5,15*%
%TO.N,OUT_2*%
X128671000Y-89956000D03*
%TO.P,J5,16*%
%TO.N,IN_3*%
X131171000Y-91206000D03*
%TO.P,J5,17*%
%TO.N,IN_0*%
X128671000Y-92456000D03*
%TO.P,J5,18*%
%TO.N,OUT_0*%
X131171000Y-93706000D03*
%TO.P,J5,19*%
%TO.N,IN_4*%
X128671000Y-94956000D03*
%TO.P,J5,20*%
%TO.N,RSC*%
X131171000Y-96206000D03*
%TO.P,J5,21*%
%TO.N,START*%
X128671000Y-97456000D03*
%TO.P,J5,22*%
%TO.N,SELECT*%
X131171000Y-98706000D03*
%TO.P,J5,23*%
%TO.N,OPTION*%
X128671000Y-99956000D03*
%TO.P,J5,24*%
%TO.N,RESET*%
X131171000Y-101206000D03*
%TO.P,J5,25*%
%TO.N,LSC*%
X128671000Y-102456000D03*
%TO.P,J5,26*%
%TO.N,OUT_FN*%
X131171000Y-103706000D03*
%TO.P,J5,27*%
%TO.N,Net-(J5-Pad27)*%
X128671000Y-104956000D03*
%TO.P,J5,28*%
%TO.N,Net-(J5-Pad28)*%
X131171000Y-106206000D03*
%TO.P,J5,29*%
%TO.N,Net-(J5-Pad29)*%
X128671000Y-107456000D03*
%TO.P,J5,30*%
%TO.N,Net-(J5-Pad30)*%
X131171000Y-108706000D03*
%TO.P,J5,31*%
%TO.N,Net-(J5-Pad31)*%
X128671000Y-109956000D03*
%TO.P,J5,32*%
%TO.N,Net-(J5-Pad32)*%
X131171000Y-111206000D03*
%TD*%
D11*
%TO.P,R1,1*%
%TO.N,~LED*%
X148971000Y-66421000D03*
D10*
%TO.P,R1,2*%
%TO.N,+5V*%
X148971000Y-63881000D03*
%TD*%
D18*
%TO.N,+5V*%
X174492200Y-117051800D03*
%TO.N,IN_4*%
X176383800Y-108585000D03*
%TO.N,IN_6*%
X173300800Y-105572700D03*
%TO.N,OUT_1*%
X174591500Y-104721200D03*
%TO.N,OUT_2*%
X172644500Y-94388000D03*
%TO.N,OUT_7*%
X173976300Y-83502100D03*
%TO.N,OUT_0*%
X175908900Y-88898800D03*
%TO.N,IN_1*%
X176412800Y-82754300D03*
%TO.N,IN_0*%
X177057300Y-78723000D03*
%TD*%
D19*
%TO.N,GND*%
X128671000Y-74956000D02*
X128671000Y-75346700D01*
X128671000Y-75346700D02*
X130780300Y-77456000D01*
X130780300Y-77456000D02*
X131538400Y-77456000D01*
X131538400Y-77456000D02*
X132325200Y-78242800D01*
X132325200Y-78242800D02*
X132325200Y-104191100D01*
X132325200Y-104191100D02*
X131654700Y-104861600D01*
X131654700Y-104861600D02*
X130870600Y-104861600D01*
X130870600Y-104861600D02*
X129526200Y-106206000D01*
X129526200Y-106206000D02*
X123457300Y-106206000D01*
X123457300Y-106206000D02*
X116586000Y-113077300D01*
X130051000Y-65261000D02*
X130051000Y-73234500D01*
X130051000Y-73234500D02*
X128671000Y-74614500D01*
X128671000Y-74614500D02*
X128671000Y-74956000D01*
X114046000Y-113665000D02*
X115221300Y-113665000D01*
X116586000Y-113077300D02*
X115809000Y-113077300D01*
X115809000Y-113077300D02*
X115221300Y-113665000D01*
X116586000Y-113665000D02*
X116586000Y-113077300D01*
X130051000Y-63881000D02*
X130051000Y-65261000D01*
X154051000Y-65261000D02*
X130051000Y-65261000D01*
X167132000Y-54102000D02*
X167132000Y-55277300D01*
X167132000Y-55277300D02*
X167499300Y-55277300D01*
X167499300Y-55277300D02*
X170484100Y-58262100D01*
X170484100Y-58262100D02*
X170484100Y-74117900D01*
X170484100Y-74117900D02*
X169291000Y-75311000D01*
X116586000Y-116205000D02*
X116586000Y-113665000D01*
%TO.N,~LED*%
X148971000Y-66421000D02*
X149067000Y-66517000D01*
X149067000Y-66517000D02*
X155335000Y-66517000D01*
X155335000Y-66517000D02*
X156591000Y-65261000D01*
%TO.N,+3V3*%
X180086000Y-118745000D02*
X181450700Y-118745000D01*
X180086000Y-116205000D02*
X180086000Y-118745000D01*
X182626000Y-118745000D02*
X181450700Y-118745000D01*
X167132000Y-56642000D02*
X167132000Y-57817300D01*
X162191000Y-132461000D02*
X162191000Y-62758300D01*
X162191000Y-62758300D02*
X167132000Y-57817300D01*
X180086000Y-116205000D02*
X181450700Y-116205000D01*
X182626000Y-116205000D02*
X181450700Y-116205000D01*
X116586000Y-123825000D02*
X115221300Y-123825000D01*
X116586000Y-123825000D02*
X116586000Y-121285000D01*
X114046000Y-123825000D02*
X115221300Y-123825000D01*
X116586000Y-121285000D02*
X115221300Y-121285000D01*
X114046000Y-121285000D02*
X115221300Y-121285000D01*
%TO.N,+5V*%
X169291000Y-72771000D02*
X166260600Y-75801400D01*
X166260600Y-75801400D02*
X166260600Y-101882900D01*
X166260600Y-101882900D02*
X168916600Y-104538900D01*
X168916600Y-104538900D02*
X169730900Y-104538900D01*
X169730900Y-104538900D02*
X170655600Y-105463600D01*
X170655600Y-105463600D02*
X170655600Y-106280400D01*
X170655600Y-106280400D02*
X171341600Y-106966400D01*
X171341600Y-106966400D02*
X172139400Y-106966400D01*
X172139400Y-106966400D02*
X174492200Y-109319200D01*
X174492200Y-109319200D02*
X174492200Y-117051800D01*
X182626000Y-123825000D02*
X181261300Y-123825000D01*
X182626000Y-121285000D02*
X182626000Y-123825000D01*
X180086000Y-123825000D02*
X181261300Y-123825000D01*
%TO.N,IN_4*%
X169291000Y-95631000D02*
X170655600Y-96995600D01*
X170655600Y-96995600D02*
X170655600Y-98696600D01*
X170655600Y-98696600D02*
X171439700Y-99480700D01*
X171439700Y-99480700D02*
X172321500Y-99480700D01*
X172321500Y-99480700D02*
X176383800Y-103543000D01*
X176383800Y-103543000D02*
X176383800Y-108585000D01*
%TO.N,IN_6*%
X173300800Y-105572700D02*
X172249100Y-104521000D01*
X172249100Y-104521000D02*
X171400000Y-104521000D01*
X171400000Y-104521000D02*
X170655600Y-103776600D01*
X170655600Y-103776600D02*
X170655600Y-102915300D01*
X170655600Y-102915300D02*
X169721300Y-101981000D01*
X169721300Y-101981000D02*
X168871400Y-101981000D01*
X168871400Y-101981000D02*
X166711000Y-99820600D01*
X166711000Y-99820600D02*
X166711000Y-78688800D01*
X166711000Y-78688800D02*
X168818800Y-76581000D01*
X168818800Y-76581000D02*
X170561000Y-76581000D01*
X170561000Y-76581000D02*
X171831000Y-75311000D01*
%TO.N,OUT_1*%
X174591500Y-104721200D02*
X174591500Y-104288000D01*
X174591500Y-104288000D02*
X172284500Y-101981000D01*
X172284500Y-101981000D02*
X171400000Y-101981000D01*
X171400000Y-101981000D02*
X170655600Y-101236600D01*
X170655600Y-101236600D02*
X170655600Y-100383600D01*
X170655600Y-100383600D02*
X169730900Y-99458900D01*
X169730900Y-99458900D02*
X168861000Y-99458900D01*
X168861000Y-99458900D02*
X167161500Y-97759400D01*
X167161500Y-97759400D02*
X167161500Y-90140500D01*
X167161500Y-90140500D02*
X169291000Y-88011000D01*
%TO.N,OUT_2*%
X169291000Y-90551000D02*
X168104200Y-91737800D01*
X168104200Y-91737800D02*
X168104200Y-93605500D01*
X168104200Y-93605500D02*
X168886700Y-94388000D01*
X168886700Y-94388000D02*
X172644500Y-94388000D01*
%TO.N,OUT_7*%
X169291000Y-80391000D02*
X170561000Y-81661000D01*
X170561000Y-81661000D02*
X172247800Y-81661000D01*
X172247800Y-81661000D02*
X173976300Y-83389500D01*
X173976300Y-83389500D02*
X173976300Y-83502100D01*
%TO.N,OUT_0*%
X171831000Y-93091000D02*
X175908900Y-89013100D01*
X175908900Y-89013100D02*
X175908900Y-88898800D01*
%TO.N,IN_1*%
X176412800Y-82754300D02*
X176412800Y-81778200D01*
X176412800Y-81778200D02*
X180086000Y-78105000D01*
%TO.N,IN_0*%
X177057300Y-78723000D02*
X175152000Y-80628300D01*
X175152000Y-80628300D02*
X175152000Y-86368200D01*
X175152000Y-86368200D02*
X172239200Y-89281000D01*
X172239200Y-89281000D02*
X171406800Y-89281000D01*
X171406800Y-89281000D02*
X170574400Y-90113400D01*
X170574400Y-90113400D02*
X170574400Y-91807600D01*
X170574400Y-91807600D02*
X169291000Y-93091000D01*
%TO.N,IN_3*%
X180086000Y-76740300D02*
X179718600Y-76740300D01*
X179718600Y-76740300D02*
X178910700Y-77548200D01*
X178910700Y-77548200D02*
X178910700Y-78494700D01*
X178910700Y-78494700D02*
X175687500Y-81717900D01*
X175687500Y-81717900D02*
X175687500Y-86694500D01*
X175687500Y-86694500D02*
X171831000Y-90551000D01*
X180086000Y-75565000D02*
X180086000Y-76740300D01*
%TO.N,RSC*%
X182626000Y-74200300D02*
X182258600Y-74200300D01*
X182258600Y-74200300D02*
X181450700Y-75008200D01*
X181450700Y-75008200D02*
X181450700Y-78412200D01*
X181450700Y-78412200D02*
X180487900Y-79375000D01*
X180487900Y-79375000D02*
X179679200Y-79375000D01*
X179679200Y-79375000D02*
X177481600Y-81572600D01*
X177481600Y-81572600D02*
X177481600Y-90583200D01*
X177481600Y-90583200D02*
X172433800Y-95631000D01*
X172433800Y-95631000D02*
X171831000Y-95631000D01*
X182626000Y-73025000D02*
X182626000Y-74200300D01*
%TO.N,START*%
X180086000Y-74200300D02*
X179718700Y-74200300D01*
X179718700Y-74200300D02*
X174701600Y-79217400D01*
X174701600Y-79217400D02*
X174701600Y-84327600D01*
X174701600Y-84327600D02*
X172193600Y-86835600D01*
X172193600Y-86835600D02*
X171305400Y-86835600D01*
X171305400Y-86835600D02*
X170543100Y-87597900D01*
X170543100Y-87597900D02*
X170543100Y-88450900D01*
X170543100Y-88450900D02*
X169713000Y-89281000D01*
X169713000Y-89281000D02*
X168871500Y-89281000D01*
X168871500Y-89281000D02*
X167647000Y-90505500D01*
X167647000Y-90505500D02*
X167647000Y-96527000D01*
X167647000Y-96527000D02*
X169291000Y-98171000D01*
X180086000Y-73025000D02*
X180086000Y-74200300D01*
%TO.N,SELECT*%
X182626000Y-71660300D02*
X182993400Y-71660300D01*
X182993400Y-71660300D02*
X183801300Y-72468200D01*
X183801300Y-72468200D02*
X183801300Y-81166700D01*
X183801300Y-81166700D02*
X183053000Y-81915000D01*
X183053000Y-81915000D02*
X182195000Y-81915000D01*
X182195000Y-81915000D02*
X181450600Y-82659400D01*
X181450600Y-82659400D02*
X181450600Y-83484600D01*
X181450600Y-83484600D02*
X180385600Y-84549600D01*
X180385600Y-84549600D02*
X179586500Y-84549600D01*
X179586500Y-84549600D02*
X177931900Y-86204200D01*
X177931900Y-86204200D02*
X177931900Y-92070100D01*
X177931900Y-92070100D02*
X171831000Y-98171000D01*
X182626000Y-70485000D02*
X182626000Y-71660300D01*
%TO.N,OUT_FN*%
X116586000Y-65405000D02*
X116586000Y-66580300D01*
X131171000Y-103706000D02*
X131171000Y-103315300D01*
X131171000Y-103315300D02*
X129061700Y-101206000D01*
X129061700Y-101206000D02*
X128303600Y-101206000D01*
X128303600Y-101206000D02*
X117795300Y-90697700D01*
X117795300Y-90697700D02*
X117795300Y-85216400D01*
X117795300Y-85216400D02*
X116939300Y-84360400D01*
X116939300Y-84360400D02*
X116026100Y-84360400D01*
X116026100Y-84360400D02*
X115410700Y-83745000D01*
X115410700Y-83745000D02*
X115410700Y-67388200D01*
X115410700Y-67388200D02*
X116218600Y-66580300D01*
X116218600Y-66580300D02*
X116586000Y-66580300D01*
%TO.N,/PA10-RXD1*%
X132591000Y-63881000D02*
X131415700Y-63881000D01*
X116586000Y-83185000D02*
X116586000Y-82009700D01*
X116586000Y-82009700D02*
X116953400Y-82009700D01*
X116953400Y-82009700D02*
X117761300Y-81201800D01*
X117761300Y-81201800D02*
X117761300Y-74000200D01*
X117761300Y-74000200D02*
X129055800Y-62705700D01*
X129055800Y-62705700D02*
X131048500Y-62705700D01*
X131048500Y-62705700D02*
X131415700Y-63072900D01*
X131415700Y-63072900D02*
X131415700Y-63881000D01*
%TO.N,Net-(D2-Pad1)*%
X128051000Y-132261000D02*
X126825700Y-132261000D01*
X124851000Y-131121000D02*
X125876300Y-131121000D01*
X126825700Y-132261000D02*
X126825700Y-132070400D01*
X126825700Y-132070400D02*
X125876300Y-131121000D01*
%TO.N,/NUM_LK*%
X124851000Y-133661000D02*
X126304400Y-135114400D01*
X126304400Y-135114400D02*
X162623100Y-135114400D01*
X162623100Y-135114400D02*
X165638200Y-132099300D01*
X165638200Y-132099300D02*
X165638200Y-130701800D01*
X165638200Y-130701800D02*
X178460300Y-117879700D01*
X178460300Y-117879700D02*
X178460300Y-95778700D01*
X178460300Y-95778700D02*
X179718700Y-94520300D01*
X179718700Y-94520300D02*
X180086000Y-94520300D01*
X180086000Y-93345000D02*
X180086000Y-94520300D01*
%TO.N,/COMPOSE*%
X180086000Y-90805000D02*
X180086000Y-91980300D01*
X180086000Y-91980300D02*
X179690700Y-91980300D01*
X179690700Y-91980300D02*
X178009900Y-93661100D01*
X178009900Y-93661100D02*
X178009900Y-116631400D01*
X178009900Y-116631400D02*
X164671800Y-129969500D01*
X164671800Y-129969500D02*
X164671800Y-132428800D01*
X164671800Y-132428800D02*
X162934100Y-134166500D01*
X162934100Y-134166500D02*
X156856500Y-134166500D01*
X156856500Y-134166500D02*
X156351000Y-133661000D01*
%TO.N,/CAPSLK*%
X181450700Y-88265000D02*
X181450700Y-87897700D01*
X181450700Y-87897700D02*
X180641100Y-87088100D01*
X180641100Y-87088100D02*
X179562500Y-87088100D01*
X179562500Y-87088100D02*
X178724000Y-87926600D01*
X178724000Y-87926600D02*
X178724000Y-91914900D01*
X178724000Y-91914900D02*
X177109400Y-93529500D01*
X177109400Y-93529500D02*
X177109400Y-115833100D01*
X177109400Y-115833100D02*
X163837000Y-129105500D01*
X163837000Y-129105500D02*
X163837000Y-132579900D01*
X163837000Y-132579900D02*
X162730500Y-133686400D01*
X162730500Y-133686400D02*
X158425600Y-133686400D01*
X158425600Y-133686400D02*
X157365200Y-132626000D01*
X157365200Y-132626000D02*
X154406600Y-132626000D01*
X154406600Y-132626000D02*
X152411500Y-134621100D01*
X152411500Y-134621100D02*
X136311100Y-134621100D01*
X136311100Y-134621100D02*
X135351000Y-133661000D01*
X182626000Y-88265000D02*
X181450700Y-88265000D01*
%TO.N,/KANA*%
X180086000Y-88265000D02*
X180086000Y-89440300D01*
X180086000Y-89440300D02*
X180453300Y-89440300D01*
X180453300Y-89440300D02*
X181261400Y-90248400D01*
X181261400Y-90248400D02*
X181261400Y-96410600D01*
X181261400Y-96410600D02*
X180517000Y-97155000D01*
X180517000Y-97155000D02*
X179693800Y-97155000D01*
X179693800Y-97155000D02*
X178910700Y-97938100D01*
X178910700Y-97938100D02*
X178910700Y-120511400D01*
X178910700Y-120511400D02*
X166851000Y-132571100D01*
X166851000Y-132571100D02*
X166851000Y-133661000D01*
%TD*%
D20*
%TO.N,GND*%
X127878525Y-53155368D02*
X127716010Y-53398589D01*
X127604068Y-53668842D01*
X127547000Y-53955740D01*
X127547000Y-54248260D01*
X127604068Y-54535158D01*
X127716010Y-54805411D01*
X127878525Y-55048632D01*
X128010380Y-55180487D01*
X127937820Y-55202498D01*
X127827506Y-55261463D01*
X127730815Y-55340815D01*
X127651463Y-55437506D01*
X127592498Y-55547820D01*
X127556188Y-55667518D01*
X127543928Y-55792000D01*
X127547000Y-56356250D01*
X127705750Y-56515000D01*
X128905000Y-56515000D01*
X128905000Y-56495000D01*
X129159000Y-56495000D01*
X129159000Y-56515000D01*
X129179000Y-56515000D01*
X129179000Y-56769000D01*
X129159000Y-56769000D01*
X129159000Y-57968250D01*
X129317750Y-58127000D01*
X129882000Y-58130072D01*
X130006482Y-58117812D01*
X130126180Y-58081502D01*
X130236494Y-58022537D01*
X130333185Y-57943185D01*
X130412537Y-57846494D01*
X130471502Y-57736180D01*
X130493513Y-57663620D01*
X130625368Y-57795475D01*
X130868589Y-57957990D01*
X131138842Y-58069932D01*
X131425740Y-58127000D01*
X131718260Y-58127000D01*
X132005158Y-58069932D01*
X132275411Y-57957990D01*
X132518632Y-57795475D01*
X132725475Y-57588632D01*
X132842000Y-57414240D01*
X132958525Y-57588632D01*
X133165368Y-57795475D01*
X133408589Y-57957990D01*
X133678842Y-58069932D01*
X133965740Y-58127000D01*
X134258260Y-58127000D01*
X134545158Y-58069932D01*
X134815411Y-57957990D01*
X135058632Y-57795475D01*
X135265475Y-57588632D01*
X135382000Y-57414240D01*
X135498525Y-57588632D01*
X135705368Y-57795475D01*
X135948589Y-57957990D01*
X136218842Y-58069932D01*
X136505740Y-58127000D01*
X136798260Y-58127000D01*
X137085158Y-58069932D01*
X137355411Y-57957990D01*
X137598632Y-57795475D01*
X137805475Y-57588632D01*
X137922000Y-57414240D01*
X138038525Y-57588632D01*
X138245368Y-57795475D01*
X138488589Y-57957990D01*
X138758842Y-58069932D01*
X139045740Y-58127000D01*
X139338260Y-58127000D01*
X139625158Y-58069932D01*
X139895411Y-57957990D01*
X140138632Y-57795475D01*
X140345475Y-57588632D01*
X140462000Y-57414240D01*
X140578525Y-57588632D01*
X140785368Y-57795475D01*
X141028589Y-57957990D01*
X141298842Y-58069932D01*
X141585740Y-58127000D01*
X141878260Y-58127000D01*
X142165158Y-58069932D01*
X142435411Y-57957990D01*
X142678632Y-57795475D01*
X142885475Y-57588632D01*
X143002000Y-57414240D01*
X143118525Y-57588632D01*
X143325368Y-57795475D01*
X143568589Y-57957990D01*
X143838842Y-58069932D01*
X144125740Y-58127000D01*
X144418260Y-58127000D01*
X144705158Y-58069932D01*
X144975411Y-57957990D01*
X145218632Y-57795475D01*
X145425475Y-57588632D01*
X145542000Y-57414240D01*
X145658525Y-57588632D01*
X145865368Y-57795475D01*
X146108589Y-57957990D01*
X146378842Y-58069932D01*
X146665740Y-58127000D01*
X146958260Y-58127000D01*
X147245158Y-58069932D01*
X147515411Y-57957990D01*
X147758632Y-57795475D01*
X147965475Y-57588632D01*
X148082000Y-57414240D01*
X148198525Y-57588632D01*
X148405368Y-57795475D01*
X148648589Y-57957990D01*
X148918842Y-58069932D01*
X149205740Y-58127000D01*
X149498260Y-58127000D01*
X149785158Y-58069932D01*
X150055411Y-57957990D01*
X150298632Y-57795475D01*
X150505475Y-57588632D01*
X150622000Y-57414240D01*
X150738525Y-57588632D01*
X150945368Y-57795475D01*
X151188589Y-57957990D01*
X151458842Y-58069932D01*
X151745740Y-58127000D01*
X152038260Y-58127000D01*
X152325158Y-58069932D01*
X152595411Y-57957990D01*
X152838632Y-57795475D01*
X153045475Y-57588632D01*
X153162000Y-57414240D01*
X153278525Y-57588632D01*
X153485368Y-57795475D01*
X153728589Y-57957990D01*
X153998842Y-58069932D01*
X154285740Y-58127000D01*
X154578260Y-58127000D01*
X154865158Y-58069932D01*
X155135411Y-57957990D01*
X155378632Y-57795475D01*
X155585475Y-57588632D01*
X155702000Y-57414240D01*
X155818525Y-57588632D01*
X156025368Y-57795475D01*
X156268589Y-57957990D01*
X156538842Y-58069932D01*
X156825740Y-58127000D01*
X157118260Y-58127000D01*
X157405158Y-58069932D01*
X157675411Y-57957990D01*
X157918632Y-57795475D01*
X158125475Y-57588632D01*
X158242000Y-57414240D01*
X158358525Y-57588632D01*
X158565368Y-57795475D01*
X158808589Y-57957990D01*
X159078842Y-58069932D01*
X159365740Y-58127000D01*
X159658260Y-58127000D01*
X159945158Y-58069932D01*
X160215411Y-57957990D01*
X160458632Y-57795475D01*
X160665475Y-57588632D01*
X160782000Y-57414240D01*
X160898525Y-57588632D01*
X161105368Y-57795475D01*
X161348589Y-57957990D01*
X161618842Y-58069932D01*
X161905740Y-58127000D01*
X162198260Y-58127000D01*
X162485158Y-58069932D01*
X162755411Y-57957990D01*
X162998632Y-57795475D01*
X163205475Y-57588632D01*
X163322000Y-57414240D01*
X163438525Y-57588632D01*
X163645368Y-57795475D01*
X163888589Y-57957990D01*
X164158842Y-58069932D01*
X164445740Y-58127000D01*
X164738260Y-58127000D01*
X165025158Y-58069932D01*
X165295411Y-57957990D01*
X165538632Y-57795475D01*
X165745475Y-57588632D01*
X165862000Y-57414240D01*
X165978525Y-57588632D01*
X166132196Y-57742303D01*
X161679998Y-62194501D01*
X161651000Y-62218299D01*
X161627202Y-62247297D01*
X161627201Y-62247298D01*
X161556026Y-62334024D01*
X161485454Y-62466054D01*
X161441998Y-62609315D01*
X161427324Y-62758300D01*
X161431001Y-62795633D01*
X161431000Y-131122687D01*
X161212495Y-131268688D01*
X161146056Y-131335127D01*
X161140502Y-131316820D01*
X161081537Y-131206506D01*
X161002185Y-131109815D01*
X160905494Y-131030463D01*
X160795180Y-130971498D01*
X160675482Y-130935188D01*
X160551000Y-130922928D01*
X158751000Y-130922928D01*
X158626518Y-130935188D01*
X158506820Y-130971498D01*
X158396506Y-131030463D01*
X158299815Y-131109815D01*
X158220463Y-131206506D01*
X158161498Y-131316820D01*
X158125188Y-131436518D01*
X158112928Y-131561000D01*
X158112928Y-132298927D01*
X157929004Y-132115002D01*
X157905201Y-132085999D01*
X157789476Y-131991026D01*
X157657447Y-131920454D01*
X157514186Y-131876997D01*
X157455323Y-131871199D01*
X157534061Y-131753359D01*
X157634696Y-131510405D01*
X157686000Y-131252486D01*
X157686000Y-130989514D01*
X157634696Y-130731595D01*
X157534061Y-130488641D01*
X157387962Y-130269987D01*
X157202013Y-130084038D01*
X156983359Y-129937939D01*
X156740405Y-129837304D01*
X156482486Y-129786000D01*
X156219514Y-129786000D01*
X155961595Y-129837304D01*
X155718641Y-129937939D01*
X155499987Y-130084038D01*
X155314038Y-130269987D01*
X155167939Y-130488641D01*
X155067304Y-130731595D01*
X155016000Y-130989514D01*
X155016000Y-131252486D01*
X155067304Y-131510405D01*
X155167939Y-131753359D01*
X155243203Y-131866000D01*
X154443922Y-131866000D01*
X154406599Y-131862324D01*
X154369276Y-131866000D01*
X154369267Y-131866000D01*
X154257614Y-131876997D01*
X154114353Y-131920454D01*
X153982324Y-131991026D01*
X153982322Y-131991027D01*
X153982323Y-131991027D01*
X153895596Y-132062201D01*
X153895592Y-132062205D01*
X153866599Y-132085999D01*
X153842805Y-132114992D01*
X153171470Y-132786328D01*
X153226000Y-132512184D01*
X153226000Y-132209816D01*
X153167011Y-131913257D01*
X153051299Y-131633905D01*
X152883312Y-131382495D01*
X152669505Y-131168688D01*
X152418095Y-131000701D01*
X152138743Y-130884989D01*
X151842184Y-130826000D01*
X151539816Y-130826000D01*
X151243257Y-130884989D01*
X150963905Y-131000701D01*
X150712495Y-131168688D01*
X150646056Y-131235127D01*
X150640502Y-131216820D01*
X150581537Y-131106506D01*
X150502185Y-131009815D01*
X150405494Y-130930463D01*
X150295180Y-130871498D01*
X150175482Y-130835188D01*
X150051000Y-130822928D01*
X148251000Y-130822928D01*
X148126518Y-130835188D01*
X148006820Y-130871498D01*
X147896506Y-130930463D01*
X147799815Y-131009815D01*
X147720463Y-131106506D01*
X147661498Y-131216820D01*
X147625188Y-131336518D01*
X147612928Y-131461000D01*
X147612928Y-133261000D01*
X147625188Y-133385482D01*
X147661498Y-133505180D01*
X147720463Y-133615494D01*
X147799815Y-133712185D01*
X147896506Y-133791537D01*
X148006820Y-133850502D01*
X148041757Y-133861100D01*
X147252460Y-133861100D01*
X147286000Y-133692486D01*
X147286000Y-133429514D01*
X147234696Y-133171595D01*
X147134061Y-132928641D01*
X146987962Y-132709987D01*
X146802013Y-132524038D01*
X146583359Y-132377939D01*
X146373470Y-132291000D01*
X146583359Y-132204061D01*
X146802013Y-132057962D01*
X146987962Y-131872013D01*
X147134061Y-131653359D01*
X147234696Y-131410405D01*
X147286000Y-131152486D01*
X147286000Y-130889514D01*
X147234696Y-130631595D01*
X147134061Y-130388641D01*
X146987962Y-130169987D01*
X146802013Y-129984038D01*
X146583359Y-129837939D01*
X146340405Y-129737304D01*
X146082486Y-129686000D01*
X145819514Y-129686000D01*
X145561595Y-129737304D01*
X145318641Y-129837939D01*
X145099987Y-129984038D01*
X144914038Y-130169987D01*
X144767939Y-130388641D01*
X144667304Y-130631595D01*
X144616000Y-130889514D01*
X144616000Y-131152486D01*
X144667304Y-131410405D01*
X144767939Y-131653359D01*
X144914038Y-131872013D01*
X145099987Y-132057962D01*
X145318641Y-132204061D01*
X145528530Y-132291000D01*
X145318641Y-132377939D01*
X145099987Y-132524038D01*
X144914038Y-132709987D01*
X144767939Y-132928641D01*
X144667304Y-133171595D01*
X144616000Y-133429514D01*
X144616000Y-133692486D01*
X144649540Y-133861100D01*
X141417639Y-133861100D01*
X141538743Y-133837011D01*
X141818095Y-133721299D01*
X142069505Y-133553312D01*
X142283312Y-133339505D01*
X142451299Y-133088095D01*
X142567011Y-132808743D01*
X142626000Y-132512184D01*
X142626000Y-132209816D01*
X142567011Y-131913257D01*
X142451299Y-131633905D01*
X142283312Y-131382495D01*
X142069505Y-131168688D01*
X141818095Y-131000701D01*
X141538743Y-130884989D01*
X141242184Y-130826000D01*
X140939816Y-130826000D01*
X140643257Y-130884989D01*
X140363905Y-131000701D01*
X140112495Y-131168688D01*
X140046056Y-131235127D01*
X140040502Y-131216820D01*
X139981537Y-131106506D01*
X139902185Y-131009815D01*
X139805494Y-130930463D01*
X139695180Y-130871498D01*
X139575482Y-130835188D01*
X139451000Y-130822928D01*
X137651000Y-130822928D01*
X137526518Y-130835188D01*
X137406820Y-130871498D01*
X137296506Y-130930463D01*
X137199815Y-131009815D01*
X137120463Y-131106506D01*
X137061498Y-131216820D01*
X137025188Y-131336518D01*
X137012928Y-131461000D01*
X137012928Y-133261000D01*
X137025188Y-133385482D01*
X137061498Y-133505180D01*
X137120463Y-133615494D01*
X137199815Y-133712185D01*
X137296506Y-133791537D01*
X137406820Y-133850502D01*
X137441757Y-133861100D01*
X136672352Y-133861100D01*
X136686000Y-133792486D01*
X136686000Y-133529514D01*
X136634696Y-133271595D01*
X136534061Y-133028641D01*
X136387962Y-132809987D01*
X136202013Y-132624038D01*
X135983359Y-132477939D01*
X135773470Y-132391000D01*
X135983359Y-132304061D01*
X136202013Y-132157962D01*
X136387962Y-131972013D01*
X136534061Y-131753359D01*
X136634696Y-131510405D01*
X136686000Y-131252486D01*
X136686000Y-130989514D01*
X136634696Y-130731595D01*
X136534061Y-130488641D01*
X136387962Y-130269987D01*
X136202013Y-130084038D01*
X135983359Y-129937939D01*
X135740405Y-129837304D01*
X135482486Y-129786000D01*
X135219514Y-129786000D01*
X134961595Y-129837304D01*
X134718641Y-129937939D01*
X134499987Y-130084038D01*
X134314038Y-130269987D01*
X134167939Y-130488641D01*
X134067304Y-130731595D01*
X134016000Y-130989514D01*
X134016000Y-131252486D01*
X134067304Y-131510405D01*
X134167939Y-131753359D01*
X134314038Y-131972013D01*
X134499987Y-132157962D01*
X134718641Y-132304061D01*
X134928530Y-132391000D01*
X134718641Y-132477939D01*
X134499987Y-132624038D01*
X134314038Y-132809987D01*
X134167939Y-133028641D01*
X134067304Y-133271595D01*
X134016000Y-133529514D01*
X134016000Y-133792486D01*
X134067304Y-134050405D01*
X134167939Y-134293359D01*
X134208725Y-134354400D01*
X126619202Y-134354400D01*
X126164645Y-133899843D01*
X126186000Y-133792486D01*
X126186000Y-133529514D01*
X126134696Y-133271595D01*
X126034061Y-133028641D01*
X125887962Y-132809987D01*
X125702013Y-132624038D01*
X125483359Y-132477939D01*
X125273470Y-132391000D01*
X125483359Y-132304061D01*
X125702013Y-132157962D01*
X125770237Y-132089738D01*
X126075191Y-132394692D01*
X126076697Y-132409986D01*
X126120154Y-132553247D01*
X126190726Y-132685276D01*
X126264348Y-132774985D01*
X126285699Y-132801001D01*
X126401424Y-132895974D01*
X126512928Y-132955575D01*
X126512928Y-133161000D01*
X126525188Y-133285482D01*
X126561498Y-133405180D01*
X126620463Y-133515494D01*
X126699815Y-133612185D01*
X126796506Y-133691537D01*
X126906820Y-133750502D01*
X127026518Y-133786812D01*
X127151000Y-133799072D01*
X128951000Y-133799072D01*
X129075482Y-133786812D01*
X129195180Y-133750502D01*
X129305494Y-133691537D01*
X129402185Y-133612185D01*
X129481537Y-133515494D01*
X129540502Y-133405180D01*
X129546056Y-133386873D01*
X129612495Y-133453312D01*
X129863905Y-133621299D01*
X130143257Y-133737011D01*
X130439816Y-133796000D01*
X130742184Y-133796000D01*
X131038743Y-133737011D01*
X131318095Y-133621299D01*
X131569505Y-133453312D01*
X131783312Y-133239505D01*
X131951299Y-132988095D01*
X132067011Y-132708743D01*
X132126000Y-132412184D01*
X132126000Y-132109816D01*
X132067011Y-131813257D01*
X131951299Y-131533905D01*
X131783312Y-131282495D01*
X131569505Y-131068688D01*
X131318095Y-130900701D01*
X131038743Y-130784989D01*
X130742184Y-130726000D01*
X130439816Y-130726000D01*
X130143257Y-130784989D01*
X129863905Y-130900701D01*
X129612495Y-131068688D01*
X129546056Y-131135127D01*
X129540502Y-131116820D01*
X129481537Y-131006506D01*
X129402185Y-130909815D01*
X129305494Y-130830463D01*
X129195180Y-130771498D01*
X129075482Y-130735188D01*
X128951000Y-130722928D01*
X127151000Y-130722928D01*
X127026518Y-130735188D01*
X126906820Y-130771498D01*
X126796506Y-130830463D01*
X126721841Y-130891739D01*
X126440104Y-130610002D01*
X126416301Y-130580999D01*
X126300576Y-130486026D01*
X126168547Y-130415454D01*
X126025286Y-130371997D01*
X125951250Y-130364705D01*
X125887962Y-130269987D01*
X125702013Y-130084038D01*
X125483359Y-129937939D01*
X125240405Y-129837304D01*
X124982486Y-129786000D01*
X124719514Y-129786000D01*
X124461595Y-129837304D01*
X124218641Y-129937939D01*
X123999987Y-130084038D01*
X123814038Y-130269987D01*
X123667939Y-130488641D01*
X123567304Y-130731595D01*
X123516000Y-130989514D01*
X123516000Y-131252486D01*
X123567304Y-131510405D01*
X123667939Y-131753359D01*
X123814038Y-131972013D01*
X123999987Y-132157962D01*
X124218641Y-132304061D01*
X124428530Y-132391000D01*
X124218641Y-132477939D01*
X123999987Y-132624038D01*
X123814038Y-132809987D01*
X123667939Y-133028641D01*
X123567304Y-133271595D01*
X123516000Y-133529514D01*
X123516000Y-133792486D01*
X123567304Y-134050405D01*
X123667939Y-134293359D01*
X123814038Y-134512013D01*
X123999987Y-134697962D01*
X124218641Y-134844061D01*
X124461595Y-134944696D01*
X124719514Y-134996000D01*
X124982486Y-134996000D01*
X125089843Y-134974645D01*
X125740601Y-135625403D01*
X125764399Y-135654401D01*
X125793397Y-135678199D01*
X125880123Y-135749374D01*
X126012153Y-135819946D01*
X126155414Y-135863403D01*
X126267067Y-135874400D01*
X126267077Y-135874400D01*
X126304400Y-135878076D01*
X126341722Y-135874400D01*
X162585778Y-135874400D01*
X162623100Y-135878076D01*
X162660422Y-135874400D01*
X162660433Y-135874400D01*
X162772086Y-135863403D01*
X162915347Y-135819946D01*
X163047376Y-135749374D01*
X163163101Y-135654401D01*
X163186904Y-135625397D01*
X165586111Y-133226191D01*
X165567304Y-133271595D01*
X165516000Y-133529514D01*
X165516000Y-133792486D01*
X165567304Y-134050405D01*
X165667939Y-134293359D01*
X165814038Y-134512013D01*
X165999987Y-134697962D01*
X166218641Y-134844061D01*
X166461595Y-134944696D01*
X166719514Y-134996000D01*
X166982486Y-134996000D01*
X167240405Y-134944696D01*
X167483359Y-134844061D01*
X167702013Y-134697962D01*
X167887962Y-134512013D01*
X168034061Y-134293359D01*
X168134696Y-134050405D01*
X168186000Y-133792486D01*
X168186000Y-133529514D01*
X168134696Y-133271595D01*
X168034061Y-133028641D01*
X167887962Y-132809987D01*
X167787438Y-132709463D01*
X168512928Y-131983973D01*
X168512928Y-133461000D01*
X168525188Y-133585482D01*
X168561498Y-133705180D01*
X168620463Y-133815494D01*
X168699815Y-133912185D01*
X168796506Y-133991537D01*
X168906820Y-134050502D01*
X169026518Y-134086812D01*
X169151000Y-134099072D01*
X170951000Y-134099072D01*
X171075482Y-134086812D01*
X171195180Y-134050502D01*
X171305494Y-133991537D01*
X171402185Y-133912185D01*
X171481537Y-133815494D01*
X171540502Y-133705180D01*
X171546056Y-133686873D01*
X171612495Y-133753312D01*
X171863905Y-133921299D01*
X172143257Y-134037011D01*
X172439816Y-134096000D01*
X172742184Y-134096000D01*
X173038743Y-134037011D01*
X173318095Y-133921299D01*
X173569505Y-133753312D01*
X173783312Y-133539505D01*
X173792270Y-133526098D01*
X178366000Y-133526098D01*
X178366000Y-133995902D01*
X178457654Y-134456679D01*
X178637440Y-134890721D01*
X178898450Y-135281349D01*
X179230651Y-135613550D01*
X179621279Y-135874560D01*
X180055321Y-136054346D01*
X180516098Y-136146000D01*
X180985902Y-136146000D01*
X181446679Y-136054346D01*
X181880721Y-135874560D01*
X182271349Y-135613550D01*
X182603550Y-135281349D01*
X182864560Y-134890721D01*
X183044346Y-134456679D01*
X183136000Y-133995902D01*
X183136000Y-133526098D01*
X183044346Y-133065321D01*
X182864560Y-132631279D01*
X182603550Y-132240651D01*
X182271349Y-131908450D01*
X181880721Y-131647440D01*
X181446679Y-131467654D01*
X180985902Y-131376000D01*
X180516098Y-131376000D01*
X180055321Y-131467654D01*
X179621279Y-131647440D01*
X179230651Y-131908450D01*
X178898450Y-132240651D01*
X178637440Y-132631279D01*
X178457654Y-133065321D01*
X178366000Y-133526098D01*
X173792270Y-133526098D01*
X173951299Y-133288095D01*
X174067011Y-133008743D01*
X174126000Y-132712184D01*
X174126000Y-132409816D01*
X174067011Y-132113257D01*
X173951299Y-131833905D01*
X173783312Y-131582495D01*
X173569505Y-131368688D01*
X173318095Y-131200701D01*
X173038743Y-131084989D01*
X172742184Y-131026000D01*
X172439816Y-131026000D01*
X172143257Y-131084989D01*
X171863905Y-131200701D01*
X171612495Y-131368688D01*
X171546056Y-131435127D01*
X171540502Y-131416820D01*
X171481537Y-131306506D01*
X171402185Y-131209815D01*
X171305494Y-131130463D01*
X171195180Y-131071498D01*
X171075482Y-131035188D01*
X170951000Y-131022928D01*
X169473973Y-131022928D01*
X178693413Y-121803489D01*
X178770010Y-121988411D01*
X178932525Y-122231632D01*
X179139368Y-122438475D01*
X179313760Y-122555000D01*
X179139368Y-122671525D01*
X178932525Y-122878368D01*
X178770010Y-123121589D01*
X178658068Y-123391842D01*
X178601000Y-123678740D01*
X178601000Y-123971260D01*
X178658068Y-124258158D01*
X178770010Y-124528411D01*
X178932525Y-124771632D01*
X179139368Y-124978475D01*
X179382589Y-125140990D01*
X179652842Y-125252932D01*
X179939740Y-125310000D01*
X180232260Y-125310000D01*
X180519158Y-125252932D01*
X180789411Y-125140990D01*
X181032632Y-124978475D01*
X181164487Y-124846620D01*
X181186498Y-124919180D01*
X181245463Y-125029494D01*
X181324815Y-125126185D01*
X181421506Y-125205537D01*
X181531820Y-125264502D01*
X181651518Y-125300812D01*
X181776000Y-125313072D01*
X183476000Y-125313072D01*
X183600482Y-125300812D01*
X183720180Y-125264502D01*
X183830494Y-125205537D01*
X183861001Y-125180501D01*
X183861001Y-136841000D01*
X112771000Y-136841000D01*
X112771000Y-133526098D01*
X113466000Y-133526098D01*
X113466000Y-133995902D01*
X113557654Y-134456679D01*
X113737440Y-134890721D01*
X113998450Y-135281349D01*
X114330651Y-135613550D01*
X114721279Y-135874560D01*
X115155321Y-136054346D01*
X115616098Y-136146000D01*
X116085902Y-136146000D01*
X116546679Y-136054346D01*
X116980721Y-135874560D01*
X117371349Y-135613550D01*
X117703550Y-135281349D01*
X117964560Y-134890721D01*
X118144346Y-134456679D01*
X118236000Y-133995902D01*
X118236000Y-133526098D01*
X118144346Y-133065321D01*
X117964560Y-132631279D01*
X117703550Y-132240651D01*
X117371349Y-131908450D01*
X116980721Y-131647440D01*
X116546679Y-131467654D01*
X116085902Y-131376000D01*
X115616098Y-131376000D01*
X115155321Y-131467654D01*
X114721279Y-131647440D01*
X114330651Y-131908450D01*
X113998450Y-132240651D01*
X113737440Y-132631279D01*
X113557654Y-133065321D01*
X113466000Y-133526098D01*
X112771000Y-133526098D01*
X112771000Y-124589757D01*
X112892525Y-124771632D01*
X113099368Y-124978475D01*
X113342589Y-125140990D01*
X113612842Y-125252932D01*
X113899740Y-125310000D01*
X114192260Y-125310000D01*
X114479158Y-125252932D01*
X114749411Y-125140990D01*
X114992632Y-124978475D01*
X115124487Y-124846620D01*
X115146498Y-124919180D01*
X115205463Y-125029494D01*
X115284815Y-125126185D01*
X115381506Y-125205537D01*
X115491820Y-125264502D01*
X115611518Y-125300812D01*
X115736000Y-125313072D01*
X117436000Y-125313072D01*
X117560482Y-125300812D01*
X117680180Y-125264502D01*
X117790494Y-125205537D01*
X117887185Y-125126185D01*
X117966537Y-125029494D01*
X118025502Y-124919180D01*
X118061812Y-124799482D01*
X118074072Y-124675000D01*
X118074072Y-122975000D01*
X118061812Y-122850518D01*
X118025502Y-122730820D01*
X117966537Y-122620506D01*
X117887185Y-122523815D01*
X117790494Y-122444463D01*
X117680180Y-122385498D01*
X117607620Y-122363487D01*
X117739475Y-122231632D01*
X117901990Y-121988411D01*
X118013932Y-121718158D01*
X118071000Y-121431260D01*
X118071000Y-121138740D01*
X118013932Y-120851842D01*
X117901990Y-120581589D01*
X117739475Y-120338368D01*
X117532632Y-120131525D01*
X117358240Y-120015000D01*
X117532632Y-119898475D01*
X117739475Y-119691632D01*
X117901990Y-119448411D01*
X118013932Y-119178158D01*
X118071000Y-118891260D01*
X118071000Y-118598740D01*
X118013932Y-118311842D01*
X117901990Y-118041589D01*
X117739475Y-117798368D01*
X117532632Y-117591525D01*
X117350466Y-117469805D01*
X117467355Y-117400178D01*
X117683588Y-117205269D01*
X117857641Y-116971920D01*
X117982825Y-116709099D01*
X118027476Y-116561890D01*
X117906155Y-116332000D01*
X116713000Y-116332000D01*
X116713000Y-116352000D01*
X116459000Y-116352000D01*
X116459000Y-116332000D01*
X114173000Y-116332000D01*
X114173000Y-116352000D01*
X113919000Y-116352000D01*
X113919000Y-116332000D01*
X113899000Y-116332000D01*
X113899000Y-116078000D01*
X113919000Y-116078000D01*
X113919000Y-113792000D01*
X114173000Y-113792000D01*
X114173000Y-116078000D01*
X116459000Y-116078000D01*
X116459000Y-113792000D01*
X116713000Y-113792000D01*
X116713000Y-116078000D01*
X117906155Y-116078000D01*
X118027476Y-115848110D01*
X117982825Y-115700901D01*
X117857641Y-115438080D01*
X117683588Y-115204731D01*
X117467355Y-115009822D01*
X117341745Y-114935000D01*
X117467355Y-114860178D01*
X117683588Y-114665269D01*
X117857641Y-114431920D01*
X117982825Y-114169099D01*
X118027476Y-114021890D01*
X117906155Y-113792000D01*
X116713000Y-113792000D01*
X116459000Y-113792000D01*
X114173000Y-113792000D01*
X113919000Y-113792000D01*
X113899000Y-113792000D01*
X113899000Y-113538000D01*
X113919000Y-113538000D01*
X113919000Y-113518000D01*
X114173000Y-113518000D01*
X114173000Y-113538000D01*
X116459000Y-113538000D01*
X116459000Y-113518000D01*
X116713000Y-113518000D01*
X116713000Y-113538000D01*
X117906155Y-113538000D01*
X118027476Y-113308110D01*
X117982825Y-113160901D01*
X117857641Y-112898080D01*
X117683588Y-112664731D01*
X117467355Y-112469822D01*
X117350466Y-112400195D01*
X117532632Y-112278475D01*
X117739475Y-112071632D01*
X117901990Y-111828411D01*
X118013932Y-111558158D01*
X118071000Y-111271260D01*
X118071000Y-110978740D01*
X118013932Y-110691842D01*
X117901990Y-110421589D01*
X117739475Y-110178368D01*
X117532632Y-109971525D01*
X117358240Y-109855000D01*
X117532632Y-109738475D01*
X117739475Y-109531632D01*
X117901990Y-109288411D01*
X118013932Y-109018158D01*
X118071000Y-108731260D01*
X118071000Y-108438740D01*
X118013932Y-108151842D01*
X117901990Y-107881589D01*
X117739475Y-107638368D01*
X117532632Y-107431525D01*
X117358240Y-107315000D01*
X117532632Y-107198475D01*
X117739475Y-106991632D01*
X117901990Y-106748411D01*
X118013932Y-106478158D01*
X118071000Y-106191260D01*
X118071000Y-105898740D01*
X118013932Y-105611842D01*
X117901990Y-105341589D01*
X117739475Y-105098368D01*
X117532632Y-104891525D01*
X117358240Y-104775000D01*
X117532632Y-104658475D01*
X117739475Y-104451632D01*
X117901990Y-104208411D01*
X118013932Y-103938158D01*
X118071000Y-103651260D01*
X118071000Y-103358740D01*
X118013932Y-103071842D01*
X117901990Y-102801589D01*
X117739475Y-102558368D01*
X117532632Y-102351525D01*
X117358240Y-102235000D01*
X117532632Y-102118475D01*
X117739475Y-101911632D01*
X117901990Y-101668411D01*
X118013932Y-101398158D01*
X118071000Y-101111260D01*
X118071000Y-100818740D01*
X118013932Y-100531842D01*
X117901990Y-100261589D01*
X117739475Y-100018368D01*
X117532632Y-99811525D01*
X117358240Y-99695000D01*
X117532632Y-99578475D01*
X117739475Y-99371632D01*
X117901990Y-99128411D01*
X118013932Y-98858158D01*
X118071000Y-98571260D01*
X118071000Y-98278740D01*
X118013932Y-97991842D01*
X117901990Y-97721589D01*
X117739475Y-97478368D01*
X117532632Y-97271525D01*
X117358240Y-97155000D01*
X117532632Y-97038475D01*
X117739475Y-96831632D01*
X117901990Y-96588411D01*
X118013932Y-96318158D01*
X118071000Y-96031260D01*
X118071000Y-95738740D01*
X118013932Y-95451842D01*
X117901990Y-95181589D01*
X117739475Y-94938368D01*
X117532632Y-94731525D01*
X117358240Y-94615000D01*
X117532632Y-94498475D01*
X117739475Y-94291632D01*
X117901990Y-94048411D01*
X118013932Y-93778158D01*
X118071000Y-93491260D01*
X118071000Y-93198740D01*
X118013932Y-92911842D01*
X117901990Y-92641589D01*
X117739475Y-92398368D01*
X117532632Y-92191525D01*
X117358240Y-92075000D01*
X117532632Y-91958475D01*
X117739475Y-91751632D01*
X117753476Y-91730677D01*
X127560201Y-101537403D01*
X127556363Y-101541241D01*
X127399320Y-101776273D01*
X127291147Y-102037426D01*
X127236000Y-102314665D01*
X127236000Y-102597335D01*
X127291147Y-102874574D01*
X127399320Y-103135727D01*
X127556363Y-103370759D01*
X127756241Y-103570637D01*
X127958827Y-103706000D01*
X127756241Y-103841363D01*
X127556363Y-104041241D01*
X127399320Y-104276273D01*
X127291147Y-104537426D01*
X127236000Y-104814665D01*
X127236000Y-105097335D01*
X127291147Y-105374574D01*
X127399320Y-105635727D01*
X127556363Y-105870759D01*
X127756241Y-106070637D01*
X127958827Y-106206000D01*
X127756241Y-106341363D01*
X127556363Y-106541241D01*
X127399320Y-106776273D01*
X127291147Y-107037426D01*
X127236000Y-107314665D01*
X127236000Y-107597335D01*
X127291147Y-107874574D01*
X127399320Y-108135727D01*
X127556363Y-108370759D01*
X127756241Y-108570637D01*
X127958827Y-108706000D01*
X127756241Y-108841363D01*
X127556363Y-109041241D01*
X127399320Y-109276273D01*
X127291147Y-109537426D01*
X127236000Y-109814665D01*
X127236000Y-110097335D01*
X127291147Y-110374574D01*
X127399320Y-110635727D01*
X127556363Y-110870759D01*
X127756241Y-111070637D01*
X127991273Y-111227680D01*
X128252426Y-111335853D01*
X128529665Y-111391000D01*
X128812335Y-111391000D01*
X129089574Y-111335853D01*
X129350727Y-111227680D01*
X129585759Y-111070637D01*
X129771823Y-110884573D01*
X129736000Y-111064665D01*
X129736000Y-111347335D01*
X129791147Y-111624574D01*
X129899320Y-111885727D01*
X130056363Y-112120759D01*
X130256241Y-112320637D01*
X130491273Y-112477680D01*
X130752426Y-112585853D01*
X131029665Y-112641000D01*
X131312335Y-112641000D01*
X131589574Y-112585853D01*
X131850727Y-112477680D01*
X132085759Y-112320637D01*
X132285637Y-112120759D01*
X132442680Y-111885727D01*
X132550853Y-111624574D01*
X132606000Y-111347335D01*
X132606000Y-111064665D01*
X132550853Y-110787426D01*
X132442680Y-110526273D01*
X132285637Y-110291241D01*
X132085759Y-110091363D01*
X131883173Y-109956000D01*
X132085759Y-109820637D01*
X132285637Y-109620759D01*
X132442680Y-109385727D01*
X132550853Y-109124574D01*
X132606000Y-108847335D01*
X132606000Y-108564665D01*
X132550853Y-108287426D01*
X132442680Y-108026273D01*
X132285637Y-107791241D01*
X132085759Y-107591363D01*
X131883173Y-107456000D01*
X132085759Y-107320637D01*
X132285637Y-107120759D01*
X132442680Y-106885727D01*
X132550853Y-106624574D01*
X132606000Y-106347335D01*
X132606000Y-106064665D01*
X132550853Y-105787426D01*
X132442680Y-105526273D01*
X132285637Y-105291241D01*
X132085759Y-105091363D01*
X131883173Y-104956000D01*
X132085759Y-104820637D01*
X132285637Y-104620759D01*
X132442680Y-104385727D01*
X132550853Y-104124574D01*
X132606000Y-103847335D01*
X132606000Y-103564665D01*
X132550853Y-103287426D01*
X132442680Y-103026273D01*
X132285637Y-102791241D01*
X132085759Y-102591363D01*
X131883173Y-102456000D01*
X132085759Y-102320637D01*
X132285637Y-102120759D01*
X132442680Y-101885727D01*
X132550853Y-101624574D01*
X132606000Y-101347335D01*
X132606000Y-101064665D01*
X132550853Y-100787426D01*
X132442680Y-100526273D01*
X132285637Y-100291241D01*
X132085759Y-100091363D01*
X131883173Y-99956000D01*
X132085759Y-99820637D01*
X132285637Y-99620759D01*
X132442680Y-99385727D01*
X132550853Y-99124574D01*
X132606000Y-98847335D01*
X132606000Y-98564665D01*
X132550853Y-98287426D01*
X132442680Y-98026273D01*
X132285637Y-97791241D01*
X132085759Y-97591363D01*
X131883173Y-97456000D01*
X132085759Y-97320637D01*
X132285637Y-97120759D01*
X132442680Y-96885727D01*
X132550853Y-96624574D01*
X132606000Y-96347335D01*
X132606000Y-96064665D01*
X132550853Y-95787426D01*
X132442680Y-95526273D01*
X132285637Y-95291241D01*
X132085759Y-95091363D01*
X131883173Y-94956000D01*
X132085759Y-94820637D01*
X132285637Y-94620759D01*
X132442680Y-94385727D01*
X132550853Y-94124574D01*
X132606000Y-93847335D01*
X132606000Y-93564665D01*
X132550853Y-93287426D01*
X132442680Y-93026273D01*
X132285637Y-92791241D01*
X132085759Y-92591363D01*
X131883173Y-92456000D01*
X132085759Y-92320637D01*
X132285637Y-92120759D01*
X132442680Y-91885727D01*
X132550853Y-91624574D01*
X132606000Y-91347335D01*
X132606000Y-91064665D01*
X132550853Y-90787426D01*
X132442680Y-90526273D01*
X132285637Y-90291241D01*
X132085759Y-90091363D01*
X131883173Y-89956000D01*
X132085759Y-89820637D01*
X132285637Y-89620759D01*
X132442680Y-89385727D01*
X132550853Y-89124574D01*
X132606000Y-88847335D01*
X132606000Y-88564665D01*
X132550853Y-88287426D01*
X132442680Y-88026273D01*
X132285637Y-87791241D01*
X132085759Y-87591363D01*
X131883173Y-87456000D01*
X132085759Y-87320637D01*
X132285637Y-87120759D01*
X132442680Y-86885727D01*
X132550853Y-86624574D01*
X132606000Y-86347335D01*
X132606000Y-86064665D01*
X132550853Y-85787426D01*
X132442680Y-85526273D01*
X132285637Y-85291241D01*
X132085759Y-85091363D01*
X131883173Y-84956000D01*
X132085759Y-84820637D01*
X132285637Y-84620759D01*
X132442680Y-84385727D01*
X132550853Y-84124574D01*
X132606000Y-83847335D01*
X132606000Y-83564665D01*
X132550853Y-83287426D01*
X132442680Y-83026273D01*
X132285637Y-82791241D01*
X132085759Y-82591363D01*
X131883173Y-82456000D01*
X132085759Y-82320637D01*
X132285637Y-82120759D01*
X132442680Y-81885727D01*
X132550853Y-81624574D01*
X132606000Y-81347335D01*
X132606000Y-81064665D01*
X132550853Y-80787426D01*
X132442680Y-80526273D01*
X132285637Y-80291241D01*
X132085759Y-80091363D01*
X131883173Y-79956000D01*
X132085759Y-79820637D01*
X132285637Y-79620759D01*
X132442680Y-79385727D01*
X132550853Y-79124574D01*
X132606000Y-78847335D01*
X132606000Y-78564665D01*
X132550853Y-78287426D01*
X132442680Y-78026273D01*
X132285637Y-77791241D01*
X132085759Y-77591363D01*
X131883173Y-77456000D01*
X132085759Y-77320637D01*
X132285637Y-77120759D01*
X132442680Y-76885727D01*
X132550853Y-76624574D01*
X132606000Y-76347335D01*
X132606000Y-76064665D01*
X132550853Y-75787426D01*
X132442680Y-75526273D01*
X132285637Y-75291241D01*
X132085759Y-75091363D01*
X131883173Y-74956000D01*
X132085759Y-74820637D01*
X132285637Y-74620759D01*
X132442680Y-74385727D01*
X132550853Y-74124574D01*
X132606000Y-73847335D01*
X132606000Y-73564665D01*
X132550853Y-73287426D01*
X132442680Y-73026273D01*
X132285637Y-72791241D01*
X132085759Y-72591363D01*
X131850727Y-72434320D01*
X131589574Y-72326147D01*
X131312335Y-72271000D01*
X131029665Y-72271000D01*
X130752426Y-72326147D01*
X130491273Y-72434320D01*
X130256241Y-72591363D01*
X130070177Y-72777427D01*
X130106000Y-72597335D01*
X130106000Y-72314665D01*
X130050853Y-72037426D01*
X129942680Y-71776273D01*
X129785637Y-71541241D01*
X129585759Y-71341363D01*
X129350727Y-71184320D01*
X129089574Y-71076147D01*
X128812335Y-71021000D01*
X128529665Y-71021000D01*
X128252426Y-71076147D01*
X127991273Y-71184320D01*
X127756241Y-71341363D01*
X127556363Y-71541241D01*
X127399320Y-71776273D01*
X127291147Y-72037426D01*
X127236000Y-72314665D01*
X127236000Y-72597335D01*
X127291147Y-72874574D01*
X127399320Y-73135727D01*
X127556363Y-73370759D01*
X127756241Y-73570637D01*
X127956869Y-73704692D01*
X127929486Y-73719329D01*
X127857903Y-73963298D01*
X128671000Y-74776395D01*
X129484097Y-73963298D01*
X129412514Y-73719329D01*
X129383659Y-73705676D01*
X129585759Y-73570637D01*
X129771823Y-73384573D01*
X129736000Y-73564665D01*
X129736000Y-73847335D01*
X129791147Y-74124574D01*
X129817421Y-74188006D01*
X129663702Y-74142903D01*
X128850605Y-74956000D01*
X129663702Y-75769097D01*
X129817421Y-75723994D01*
X129791147Y-75787426D01*
X129736000Y-76064665D01*
X129736000Y-76347335D01*
X129771823Y-76527427D01*
X129585759Y-76341363D01*
X129385131Y-76207308D01*
X129412514Y-76192671D01*
X129484097Y-75948702D01*
X128671000Y-75135605D01*
X127857903Y-75948702D01*
X127929486Y-76192671D01*
X127958341Y-76206324D01*
X127756241Y-76341363D01*
X127556363Y-76541241D01*
X127399320Y-76776273D01*
X127291147Y-77037426D01*
X127236000Y-77314665D01*
X127236000Y-77597335D01*
X127291147Y-77874574D01*
X127399320Y-78135727D01*
X127556363Y-78370759D01*
X127756241Y-78570637D01*
X127958827Y-78706000D01*
X127756241Y-78841363D01*
X127556363Y-79041241D01*
X127399320Y-79276273D01*
X127291147Y-79537426D01*
X127236000Y-79814665D01*
X127236000Y-80097335D01*
X127291147Y-80374574D01*
X127399320Y-80635727D01*
X127556363Y-80870759D01*
X127756241Y-81070637D01*
X127958827Y-81206000D01*
X127756241Y-81341363D01*
X127556363Y-81541241D01*
X127399320Y-81776273D01*
X127291147Y-82037426D01*
X127236000Y-82314665D01*
X127236000Y-82597335D01*
X127291147Y-82874574D01*
X127399320Y-83135727D01*
X127556363Y-83370759D01*
X127756241Y-83570637D01*
X127958827Y-83706000D01*
X127756241Y-83841363D01*
X127556363Y-84041241D01*
X127399320Y-84276273D01*
X127291147Y-84537426D01*
X127236000Y-84814665D01*
X127236000Y-85097335D01*
X127291147Y-85374574D01*
X127399320Y-85635727D01*
X127556363Y-85870759D01*
X127756241Y-86070637D01*
X127958827Y-86206000D01*
X127756241Y-86341363D01*
X127556363Y-86541241D01*
X127399320Y-86776273D01*
X127291147Y-87037426D01*
X127236000Y-87314665D01*
X127236000Y-87597335D01*
X127291147Y-87874574D01*
X127399320Y-88135727D01*
X127556363Y-88370759D01*
X127756241Y-88570637D01*
X127958827Y-88706000D01*
X127756241Y-88841363D01*
X127556363Y-89041241D01*
X127399320Y-89276273D01*
X127291147Y-89537426D01*
X127236000Y-89814665D01*
X127236000Y-90097335D01*
X127291147Y-90374574D01*
X127399320Y-90635727D01*
X127556363Y-90870759D01*
X127756241Y-91070637D01*
X127958827Y-91206000D01*
X127756241Y-91341363D01*
X127556363Y-91541241D01*
X127399320Y-91776273D01*
X127291147Y-92037426D01*
X127236000Y-92314665D01*
X127236000Y-92597335D01*
X127291147Y-92874574D01*
X127399320Y-93135727D01*
X127556363Y-93370759D01*
X127756241Y-93570637D01*
X127958827Y-93706000D01*
X127756241Y-93841363D01*
X127556363Y-94041241D01*
X127399320Y-94276273D01*
X127291147Y-94537426D01*
X127236000Y-94814665D01*
X127236000Y-95097335D01*
X127291147Y-95374574D01*
X127399320Y-95635727D01*
X127556363Y-95870759D01*
X127756241Y-96070637D01*
X127958827Y-96206000D01*
X127756241Y-96341363D01*
X127556363Y-96541241D01*
X127399320Y-96776273D01*
X127291147Y-97037426D01*
X127236000Y-97314665D01*
X127236000Y-97597335D01*
X127291147Y-97874574D01*
X127399320Y-98135727D01*
X127556363Y-98370759D01*
X127756241Y-98570637D01*
X127958827Y-98706000D01*
X127756241Y-98841363D01*
X127556363Y-99041241D01*
X127419089Y-99246686D01*
X118555300Y-90382899D01*
X118555300Y-85253723D01*
X118558976Y-85216400D01*
X118555300Y-85179077D01*
X118555300Y-85179067D01*
X118544303Y-85067414D01*
X118500846Y-84924153D01*
X118430274Y-84792124D01*
X118335301Y-84676399D01*
X118306303Y-84652601D01*
X117757843Y-84104142D01*
X117901990Y-83888411D01*
X118013932Y-83618158D01*
X118071000Y-83331260D01*
X118071000Y-83038740D01*
X118013932Y-82751842D01*
X117901990Y-82481589D01*
X117763531Y-82274370D01*
X118272304Y-81765598D01*
X118301301Y-81741801D01*
X118351554Y-81680568D01*
X118396274Y-81626077D01*
X118466846Y-81494047D01*
X118477493Y-81458947D01*
X118510303Y-81350786D01*
X118521300Y-81239133D01*
X118521300Y-81239124D01*
X118524976Y-81201801D01*
X118521300Y-81164478D01*
X118521300Y-75026512D01*
X127230783Y-75026512D01*
X127272213Y-75306130D01*
X127367397Y-75572292D01*
X127434329Y-75697514D01*
X127678298Y-75769097D01*
X128491395Y-74956000D01*
X127678298Y-74142903D01*
X127434329Y-74214486D01*
X127313429Y-74469996D01*
X127244700Y-74744184D01*
X127230783Y-75026512D01*
X118521300Y-75026512D01*
X118521300Y-74315001D01*
X128565433Y-64270869D01*
X128562928Y-64731000D01*
X128575188Y-64855482D01*
X128611498Y-64975180D01*
X128670463Y-65085494D01*
X128749815Y-65182185D01*
X128846506Y-65261537D01*
X128956820Y-65320502D01*
X129076518Y-65356812D01*
X129201000Y-65369072D01*
X129765250Y-65366000D01*
X129924000Y-65207250D01*
X129924000Y-64008000D01*
X129904000Y-64008000D01*
X129904000Y-63754000D01*
X129924000Y-63754000D01*
X129924000Y-63734000D01*
X130178000Y-63734000D01*
X130178000Y-63754000D01*
X130198000Y-63754000D01*
X130198000Y-64008000D01*
X130178000Y-64008000D01*
X130178000Y-65207250D01*
X130336750Y-65366000D01*
X130901000Y-65369072D01*
X131025482Y-65356812D01*
X131145180Y-65320502D01*
X131255494Y-65261537D01*
X131352185Y-65182185D01*
X131431537Y-65085494D01*
X131490502Y-64975180D01*
X131512513Y-64902620D01*
X131644368Y-65034475D01*
X131887589Y-65196990D01*
X132157842Y-65308932D01*
X132444740Y-65366000D01*
X132737260Y-65366000D01*
X133024158Y-65308932D01*
X133294411Y-65196990D01*
X133537632Y-65034475D01*
X133744475Y-64827632D01*
X133861000Y-64653240D01*
X133977525Y-64827632D01*
X134184368Y-65034475D01*
X134427589Y-65196990D01*
X134697842Y-65308932D01*
X134984740Y-65366000D01*
X135277260Y-65366000D01*
X135564158Y-65308932D01*
X135834411Y-65196990D01*
X136077632Y-65034475D01*
X136284475Y-64827632D01*
X136446990Y-64584411D01*
X136558932Y-64314158D01*
X136616000Y-64027260D01*
X136616000Y-63749514D01*
X147636000Y-63749514D01*
X147636000Y-64012486D01*
X147687304Y-64270405D01*
X147787939Y-64513359D01*
X147934038Y-64732013D01*
X148119987Y-64917962D01*
X148338641Y-65064061D01*
X148548530Y-65151000D01*
X148338641Y-65237939D01*
X148119987Y-65384038D01*
X147934038Y-65569987D01*
X147787939Y-65788641D01*
X147687304Y-66031595D01*
X147636000Y-66289514D01*
X147636000Y-66552486D01*
X147687304Y-66810405D01*
X147787939Y-67053359D01*
X147934038Y-67272013D01*
X148119987Y-67457962D01*
X148338641Y-67604061D01*
X148581595Y-67704696D01*
X148839514Y-67756000D01*
X149102486Y-67756000D01*
X149360405Y-67704696D01*
X149603359Y-67604061D01*
X149822013Y-67457962D01*
X150002975Y-67277000D01*
X155297678Y-67277000D01*
X155335000Y-67280676D01*
X155372322Y-67277000D01*
X155372333Y-67277000D01*
X155483986Y-67266003D01*
X155627247Y-67222546D01*
X155759276Y-67151974D01*
X155875001Y-67057001D01*
X155898804Y-67027997D01*
X156182070Y-66744731D01*
X156439816Y-66796000D01*
X156742184Y-66796000D01*
X157038743Y-66737011D01*
X157318095Y-66621299D01*
X157569505Y-66453312D01*
X157783312Y-66239505D01*
X157951299Y-65988095D01*
X158067011Y-65708743D01*
X158126000Y-65412184D01*
X158126000Y-65109816D01*
X158067011Y-64813257D01*
X157951299Y-64533905D01*
X157783312Y-64282495D01*
X157569505Y-64068688D01*
X157318095Y-63900701D01*
X157038743Y-63784989D01*
X156742184Y-63726000D01*
X156439816Y-63726000D01*
X156143257Y-63784989D01*
X155863905Y-63900701D01*
X155612495Y-64068688D01*
X155546056Y-64135127D01*
X155540502Y-64116820D01*
X155481537Y-64006506D01*
X155402185Y-63909815D01*
X155305494Y-63830463D01*
X155195180Y-63771498D01*
X155075482Y-63735188D01*
X154951000Y-63722928D01*
X154336750Y-63726000D01*
X154178000Y-63884750D01*
X154178000Y-65134000D01*
X154198000Y-65134000D01*
X154198000Y-65388000D01*
X154178000Y-65388000D01*
X154178000Y-65408000D01*
X153924000Y-65408000D01*
X153924000Y-65388000D01*
X152674750Y-65388000D01*
X152516000Y-65546750D01*
X152514948Y-65757000D01*
X150132919Y-65757000D01*
X150007962Y-65569987D01*
X149822013Y-65384038D01*
X149603359Y-65237939D01*
X149393470Y-65151000D01*
X149603359Y-65064061D01*
X149822013Y-64917962D01*
X150007962Y-64732013D01*
X150154061Y-64513359D01*
X150217170Y-64361000D01*
X152512928Y-64361000D01*
X152516000Y-64975250D01*
X152674750Y-65134000D01*
X153924000Y-65134000D01*
X153924000Y-63884750D01*
X153765250Y-63726000D01*
X153151000Y-63722928D01*
X153026518Y-63735188D01*
X152906820Y-63771498D01*
X152796506Y-63830463D01*
X152699815Y-63909815D01*
X152620463Y-64006506D01*
X152561498Y-64116820D01*
X152525188Y-64236518D01*
X152512928Y-64361000D01*
X150217170Y-64361000D01*
X150254696Y-64270405D01*
X150306000Y-64012486D01*
X150306000Y-63749514D01*
X150254696Y-63491595D01*
X150154061Y-63248641D01*
X150007962Y-63029987D01*
X149822013Y-62844038D01*
X149603359Y-62697939D01*
X149360405Y-62597304D01*
X149102486Y-62546000D01*
X148839514Y-62546000D01*
X148581595Y-62597304D01*
X148338641Y-62697939D01*
X148119987Y-62844038D01*
X147934038Y-63029987D01*
X147787939Y-63248641D01*
X147687304Y-63491595D01*
X147636000Y-63749514D01*
X136616000Y-63749514D01*
X136616000Y-63734740D01*
X136558932Y-63447842D01*
X136446990Y-63177589D01*
X136284475Y-62934368D01*
X136077632Y-62727525D01*
X135834411Y-62565010D01*
X135564158Y-62453068D01*
X135277260Y-62396000D01*
X134984740Y-62396000D01*
X134697842Y-62453068D01*
X134427589Y-62565010D01*
X134184368Y-62727525D01*
X133977525Y-62934368D01*
X133861000Y-63108760D01*
X133744475Y-62934368D01*
X133537632Y-62727525D01*
X133294411Y-62565010D01*
X133024158Y-62453068D01*
X132737260Y-62396000D01*
X132444740Y-62396000D01*
X132157842Y-62453068D01*
X131958089Y-62535808D01*
X131955701Y-62532899D01*
X131926698Y-62509097D01*
X131612304Y-62194703D01*
X131588501Y-62165699D01*
X131472776Y-62070726D01*
X131340747Y-62000154D01*
X131197486Y-61956697D01*
X131085833Y-61945700D01*
X131085822Y-61945700D01*
X131048500Y-61942024D01*
X131011178Y-61945700D01*
X129093122Y-61945700D01*
X129055799Y-61942024D01*
X129018476Y-61945700D01*
X129018467Y-61945700D01*
X128906814Y-61956697D01*
X128781787Y-61994623D01*
X128763553Y-62000154D01*
X128631523Y-62070726D01*
X128547883Y-62139368D01*
X128515799Y-62165699D01*
X128492001Y-62194697D01*
X118027358Y-72659341D01*
X118013932Y-72591842D01*
X117901990Y-72321589D01*
X117739475Y-72078368D01*
X117532632Y-71871525D01*
X117358240Y-71755000D01*
X117532632Y-71638475D01*
X117739475Y-71431632D01*
X117901990Y-71188411D01*
X118013932Y-70918158D01*
X118071000Y-70631260D01*
X118071000Y-70338740D01*
X118013932Y-70051842D01*
X117901990Y-69781589D01*
X117739475Y-69538368D01*
X117532632Y-69331525D01*
X117358240Y-69215000D01*
X117532632Y-69098475D01*
X117739475Y-68891632D01*
X117901990Y-68648411D01*
X118013932Y-68378158D01*
X118071000Y-68091260D01*
X118071000Y-67798740D01*
X118013932Y-67511842D01*
X117901990Y-67241589D01*
X117739475Y-66998368D01*
X117532632Y-66791525D01*
X117358240Y-66675000D01*
X117532632Y-66558475D01*
X117739475Y-66351632D01*
X117901990Y-66108411D01*
X118013932Y-65838158D01*
X118071000Y-65551260D01*
X118071000Y-65258740D01*
X118013932Y-64971842D01*
X117901990Y-64701589D01*
X117739475Y-64458368D01*
X117532632Y-64251525D01*
X117289411Y-64089010D01*
X117019158Y-63977068D01*
X116732260Y-63920000D01*
X116439740Y-63920000D01*
X116152842Y-63977068D01*
X115882589Y-64089010D01*
X115639368Y-64251525D01*
X115432525Y-64458368D01*
X115316000Y-64632760D01*
X115199475Y-64458368D01*
X114992632Y-64251525D01*
X114749411Y-64089010D01*
X114479158Y-63977068D01*
X114192260Y-63920000D01*
X113899740Y-63920000D01*
X113612842Y-63977068D01*
X113342589Y-64089010D01*
X113099368Y-64251525D01*
X112892525Y-64458368D01*
X112771000Y-64640243D01*
X112771000Y-55826098D01*
X113466000Y-55826098D01*
X113466000Y-56295902D01*
X113557654Y-56756679D01*
X113737440Y-57190721D01*
X113998450Y-57581349D01*
X114330651Y-57913550D01*
X114721279Y-58174560D01*
X115155321Y-58354346D01*
X115616098Y-58446000D01*
X116085902Y-58446000D01*
X116546679Y-58354346D01*
X116980721Y-58174560D01*
X117371349Y-57913550D01*
X117703550Y-57581349D01*
X117763251Y-57492000D01*
X127543928Y-57492000D01*
X127556188Y-57616482D01*
X127592498Y-57736180D01*
X127651463Y-57846494D01*
X127730815Y-57943185D01*
X127827506Y-58022537D01*
X127937820Y-58081502D01*
X128057518Y-58117812D01*
X128182000Y-58130072D01*
X128746250Y-58127000D01*
X128905000Y-57968250D01*
X128905000Y-56769000D01*
X127705750Y-56769000D01*
X127547000Y-56927750D01*
X127543928Y-57492000D01*
X117763251Y-57492000D01*
X117964560Y-57190721D01*
X118144346Y-56756679D01*
X118236000Y-56295902D01*
X118236000Y-55826098D01*
X118144346Y-55365321D01*
X117964560Y-54931279D01*
X117703550Y-54540651D01*
X117371349Y-54208450D01*
X116980721Y-53947440D01*
X116546679Y-53767654D01*
X116085902Y-53676000D01*
X115616098Y-53676000D01*
X115155321Y-53767654D01*
X114721279Y-53947440D01*
X114330651Y-54208450D01*
X113998450Y-54540651D01*
X113737440Y-54931279D01*
X113557654Y-55365321D01*
X113466000Y-55826098D01*
X112771000Y-55826098D01*
X112771000Y-52961000D01*
X128072893Y-52961000D01*
X127878525Y-53155368D01*
%TA.AperFunction,Conductor*%
D21*
G36*
X127878525Y-53155368D02*
G01*
X127716010Y-53398589D01*
X127604068Y-53668842D01*
X127547000Y-53955740D01*
X127547000Y-54248260D01*
X127604068Y-54535158D01*
X127716010Y-54805411D01*
X127878525Y-55048632D01*
X128010380Y-55180487D01*
X127937820Y-55202498D01*
X127827506Y-55261463D01*
X127730815Y-55340815D01*
X127651463Y-55437506D01*
X127592498Y-55547820D01*
X127556188Y-55667518D01*
X127543928Y-55792000D01*
X127547000Y-56356250D01*
X127705750Y-56515000D01*
X128905000Y-56515000D01*
X128905000Y-56495000D01*
X129159000Y-56495000D01*
X129159000Y-56515000D01*
X129179000Y-56515000D01*
X129179000Y-56769000D01*
X129159000Y-56769000D01*
X129159000Y-57968250D01*
X129317750Y-58127000D01*
X129882000Y-58130072D01*
X130006482Y-58117812D01*
X130126180Y-58081502D01*
X130236494Y-58022537D01*
X130333185Y-57943185D01*
X130412537Y-57846494D01*
X130471502Y-57736180D01*
X130493513Y-57663620D01*
X130625368Y-57795475D01*
X130868589Y-57957990D01*
X131138842Y-58069932D01*
X131425740Y-58127000D01*
X131718260Y-58127000D01*
X132005158Y-58069932D01*
X132275411Y-57957990D01*
X132518632Y-57795475D01*
X132725475Y-57588632D01*
X132842000Y-57414240D01*
X132958525Y-57588632D01*
X133165368Y-57795475D01*
X133408589Y-57957990D01*
X133678842Y-58069932D01*
X133965740Y-58127000D01*
X134258260Y-58127000D01*
X134545158Y-58069932D01*
X134815411Y-57957990D01*
X135058632Y-57795475D01*
X135265475Y-57588632D01*
X135382000Y-57414240D01*
X135498525Y-57588632D01*
X135705368Y-57795475D01*
X135948589Y-57957990D01*
X136218842Y-58069932D01*
X136505740Y-58127000D01*
X136798260Y-58127000D01*
X137085158Y-58069932D01*
X137355411Y-57957990D01*
X137598632Y-57795475D01*
X137805475Y-57588632D01*
X137922000Y-57414240D01*
X138038525Y-57588632D01*
X138245368Y-57795475D01*
X138488589Y-57957990D01*
X138758842Y-58069932D01*
X139045740Y-58127000D01*
X139338260Y-58127000D01*
X139625158Y-58069932D01*
X139895411Y-57957990D01*
X140138632Y-57795475D01*
X140345475Y-57588632D01*
X140462000Y-57414240D01*
X140578525Y-57588632D01*
X140785368Y-57795475D01*
X141028589Y-57957990D01*
X141298842Y-58069932D01*
X141585740Y-58127000D01*
X141878260Y-58127000D01*
X142165158Y-58069932D01*
X142435411Y-57957990D01*
X142678632Y-57795475D01*
X142885475Y-57588632D01*
X143002000Y-57414240D01*
X143118525Y-57588632D01*
X143325368Y-57795475D01*
X143568589Y-57957990D01*
X143838842Y-58069932D01*
X144125740Y-58127000D01*
X144418260Y-58127000D01*
X144705158Y-58069932D01*
X144975411Y-57957990D01*
X145218632Y-57795475D01*
X145425475Y-57588632D01*
X145542000Y-57414240D01*
X145658525Y-57588632D01*
X145865368Y-57795475D01*
X146108589Y-57957990D01*
X146378842Y-58069932D01*
X146665740Y-58127000D01*
X146958260Y-58127000D01*
X147245158Y-58069932D01*
X147515411Y-57957990D01*
X147758632Y-57795475D01*
X147965475Y-57588632D01*
X148082000Y-57414240D01*
X148198525Y-57588632D01*
X148405368Y-57795475D01*
X148648589Y-57957990D01*
X148918842Y-58069932D01*
X149205740Y-58127000D01*
X149498260Y-58127000D01*
X149785158Y-58069932D01*
X150055411Y-57957990D01*
X150298632Y-57795475D01*
X150505475Y-57588632D01*
X150622000Y-57414240D01*
X150738525Y-57588632D01*
X150945368Y-57795475D01*
X151188589Y-57957990D01*
X151458842Y-58069932D01*
X151745740Y-58127000D01*
X152038260Y-58127000D01*
X152325158Y-58069932D01*
X152595411Y-57957990D01*
X152838632Y-57795475D01*
X153045475Y-57588632D01*
X153162000Y-57414240D01*
X153278525Y-57588632D01*
X153485368Y-57795475D01*
X153728589Y-57957990D01*
X153998842Y-58069932D01*
X154285740Y-58127000D01*
X154578260Y-58127000D01*
X154865158Y-58069932D01*
X155135411Y-57957990D01*
X155378632Y-57795475D01*
X155585475Y-57588632D01*
X155702000Y-57414240D01*
X155818525Y-57588632D01*
X156025368Y-57795475D01*
X156268589Y-57957990D01*
X156538842Y-58069932D01*
X156825740Y-58127000D01*
X157118260Y-58127000D01*
X157405158Y-58069932D01*
X157675411Y-57957990D01*
X157918632Y-57795475D01*
X158125475Y-57588632D01*
X158242000Y-57414240D01*
X158358525Y-57588632D01*
X158565368Y-57795475D01*
X158808589Y-57957990D01*
X159078842Y-58069932D01*
X159365740Y-58127000D01*
X159658260Y-58127000D01*
X159945158Y-58069932D01*
X160215411Y-57957990D01*
X160458632Y-57795475D01*
X160665475Y-57588632D01*
X160782000Y-57414240D01*
X160898525Y-57588632D01*
X161105368Y-57795475D01*
X161348589Y-57957990D01*
X161618842Y-58069932D01*
X161905740Y-58127000D01*
X162198260Y-58127000D01*
X162485158Y-58069932D01*
X162755411Y-57957990D01*
X162998632Y-57795475D01*
X163205475Y-57588632D01*
X163322000Y-57414240D01*
X163438525Y-57588632D01*
X163645368Y-57795475D01*
X163888589Y-57957990D01*
X164158842Y-58069932D01*
X164445740Y-58127000D01*
X164738260Y-58127000D01*
X165025158Y-58069932D01*
X165295411Y-57957990D01*
X165538632Y-57795475D01*
X165745475Y-57588632D01*
X165862000Y-57414240D01*
X165978525Y-57588632D01*
X166132196Y-57742303D01*
X161679998Y-62194501D01*
X161651000Y-62218299D01*
X161627202Y-62247297D01*
X161627201Y-62247298D01*
X161556026Y-62334024D01*
X161485454Y-62466054D01*
X161441998Y-62609315D01*
X161427324Y-62758300D01*
X161431001Y-62795633D01*
X161431000Y-131122687D01*
X161212495Y-131268688D01*
X161146056Y-131335127D01*
X161140502Y-131316820D01*
X161081537Y-131206506D01*
X161002185Y-131109815D01*
X160905494Y-131030463D01*
X160795180Y-130971498D01*
X160675482Y-130935188D01*
X160551000Y-130922928D01*
X158751000Y-130922928D01*
X158626518Y-130935188D01*
X158506820Y-130971498D01*
X158396506Y-131030463D01*
X158299815Y-131109815D01*
X158220463Y-131206506D01*
X158161498Y-131316820D01*
X158125188Y-131436518D01*
X158112928Y-131561000D01*
X158112928Y-132298927D01*
X157929004Y-132115002D01*
X157905201Y-132085999D01*
X157789476Y-131991026D01*
X157657447Y-131920454D01*
X157514186Y-131876997D01*
X157455323Y-131871199D01*
X157534061Y-131753359D01*
X157634696Y-131510405D01*
X157686000Y-131252486D01*
X157686000Y-130989514D01*
X157634696Y-130731595D01*
X157534061Y-130488641D01*
X157387962Y-130269987D01*
X157202013Y-130084038D01*
X156983359Y-129937939D01*
X156740405Y-129837304D01*
X156482486Y-129786000D01*
X156219514Y-129786000D01*
X155961595Y-129837304D01*
X155718641Y-129937939D01*
X155499987Y-130084038D01*
X155314038Y-130269987D01*
X155167939Y-130488641D01*
X155067304Y-130731595D01*
X155016000Y-130989514D01*
X155016000Y-131252486D01*
X155067304Y-131510405D01*
X155167939Y-131753359D01*
X155243203Y-131866000D01*
X154443922Y-131866000D01*
X154406599Y-131862324D01*
X154369276Y-131866000D01*
X154369267Y-131866000D01*
X154257614Y-131876997D01*
X154114353Y-131920454D01*
X153982324Y-131991026D01*
X153982322Y-131991027D01*
X153982323Y-131991027D01*
X153895596Y-132062201D01*
X153895592Y-132062205D01*
X153866599Y-132085999D01*
X153842805Y-132114992D01*
X153171470Y-132786328D01*
X153226000Y-132512184D01*
X153226000Y-132209816D01*
X153167011Y-131913257D01*
X153051299Y-131633905D01*
X152883312Y-131382495D01*
X152669505Y-131168688D01*
X152418095Y-131000701D01*
X152138743Y-130884989D01*
X151842184Y-130826000D01*
X151539816Y-130826000D01*
X151243257Y-130884989D01*
X150963905Y-131000701D01*
X150712495Y-131168688D01*
X150646056Y-131235127D01*
X150640502Y-131216820D01*
X150581537Y-131106506D01*
X150502185Y-131009815D01*
X150405494Y-130930463D01*
X150295180Y-130871498D01*
X150175482Y-130835188D01*
X150051000Y-130822928D01*
X148251000Y-130822928D01*
X148126518Y-130835188D01*
X148006820Y-130871498D01*
X147896506Y-130930463D01*
X147799815Y-131009815D01*
X147720463Y-131106506D01*
X147661498Y-131216820D01*
X147625188Y-131336518D01*
X147612928Y-131461000D01*
X147612928Y-133261000D01*
X147625188Y-133385482D01*
X147661498Y-133505180D01*
X147720463Y-133615494D01*
X147799815Y-133712185D01*
X147896506Y-133791537D01*
X148006820Y-133850502D01*
X148041757Y-133861100D01*
X147252460Y-133861100D01*
X147286000Y-133692486D01*
X147286000Y-133429514D01*
X147234696Y-133171595D01*
X147134061Y-132928641D01*
X146987962Y-132709987D01*
X146802013Y-132524038D01*
X146583359Y-132377939D01*
X146373470Y-132291000D01*
X146583359Y-132204061D01*
X146802013Y-132057962D01*
X146987962Y-131872013D01*
X147134061Y-131653359D01*
X147234696Y-131410405D01*
X147286000Y-131152486D01*
X147286000Y-130889514D01*
X147234696Y-130631595D01*
X147134061Y-130388641D01*
X146987962Y-130169987D01*
X146802013Y-129984038D01*
X146583359Y-129837939D01*
X146340405Y-129737304D01*
X146082486Y-129686000D01*
X145819514Y-129686000D01*
X145561595Y-129737304D01*
X145318641Y-129837939D01*
X145099987Y-129984038D01*
X144914038Y-130169987D01*
X144767939Y-130388641D01*
X144667304Y-130631595D01*
X144616000Y-130889514D01*
X144616000Y-131152486D01*
X144667304Y-131410405D01*
X144767939Y-131653359D01*
X144914038Y-131872013D01*
X145099987Y-132057962D01*
X145318641Y-132204061D01*
X145528530Y-132291000D01*
X145318641Y-132377939D01*
X145099987Y-132524038D01*
X144914038Y-132709987D01*
X144767939Y-132928641D01*
X144667304Y-133171595D01*
X144616000Y-133429514D01*
X144616000Y-133692486D01*
X144649540Y-133861100D01*
X141417639Y-133861100D01*
X141538743Y-133837011D01*
X141818095Y-133721299D01*
X142069505Y-133553312D01*
X142283312Y-133339505D01*
X142451299Y-133088095D01*
X142567011Y-132808743D01*
X142626000Y-132512184D01*
X142626000Y-132209816D01*
X142567011Y-131913257D01*
X142451299Y-131633905D01*
X142283312Y-131382495D01*
X142069505Y-131168688D01*
X141818095Y-131000701D01*
X141538743Y-130884989D01*
X141242184Y-130826000D01*
X140939816Y-130826000D01*
X140643257Y-130884989D01*
X140363905Y-131000701D01*
X140112495Y-131168688D01*
X140046056Y-131235127D01*
X140040502Y-131216820D01*
X139981537Y-131106506D01*
X139902185Y-131009815D01*
X139805494Y-130930463D01*
X139695180Y-130871498D01*
X139575482Y-130835188D01*
X139451000Y-130822928D01*
X137651000Y-130822928D01*
X137526518Y-130835188D01*
X137406820Y-130871498D01*
X137296506Y-130930463D01*
X137199815Y-131009815D01*
X137120463Y-131106506D01*
X137061498Y-131216820D01*
X137025188Y-131336518D01*
X137012928Y-131461000D01*
X137012928Y-133261000D01*
X137025188Y-133385482D01*
X137061498Y-133505180D01*
X137120463Y-133615494D01*
X137199815Y-133712185D01*
X137296506Y-133791537D01*
X137406820Y-133850502D01*
X137441757Y-133861100D01*
X136672352Y-133861100D01*
X136686000Y-133792486D01*
X136686000Y-133529514D01*
X136634696Y-133271595D01*
X136534061Y-133028641D01*
X136387962Y-132809987D01*
X136202013Y-132624038D01*
X135983359Y-132477939D01*
X135773470Y-132391000D01*
X135983359Y-132304061D01*
X136202013Y-132157962D01*
X136387962Y-131972013D01*
X136534061Y-131753359D01*
X136634696Y-131510405D01*
X136686000Y-131252486D01*
X136686000Y-130989514D01*
X136634696Y-130731595D01*
X136534061Y-130488641D01*
X136387962Y-130269987D01*
X136202013Y-130084038D01*
X135983359Y-129937939D01*
X135740405Y-129837304D01*
X135482486Y-129786000D01*
X135219514Y-129786000D01*
X134961595Y-129837304D01*
X134718641Y-129937939D01*
X134499987Y-130084038D01*
X134314038Y-130269987D01*
X134167939Y-130488641D01*
X134067304Y-130731595D01*
X134016000Y-130989514D01*
X134016000Y-131252486D01*
X134067304Y-131510405D01*
X134167939Y-131753359D01*
X134314038Y-131972013D01*
X134499987Y-132157962D01*
X134718641Y-132304061D01*
X134928530Y-132391000D01*
X134718641Y-132477939D01*
X134499987Y-132624038D01*
X134314038Y-132809987D01*
X134167939Y-133028641D01*
X134067304Y-133271595D01*
X134016000Y-133529514D01*
X134016000Y-133792486D01*
X134067304Y-134050405D01*
X134167939Y-134293359D01*
X134208725Y-134354400D01*
X126619202Y-134354400D01*
X126164645Y-133899843D01*
X126186000Y-133792486D01*
X126186000Y-133529514D01*
X126134696Y-133271595D01*
X126034061Y-133028641D01*
X125887962Y-132809987D01*
X125702013Y-132624038D01*
X125483359Y-132477939D01*
X125273470Y-132391000D01*
X125483359Y-132304061D01*
X125702013Y-132157962D01*
X125770237Y-132089738D01*
X126075191Y-132394692D01*
X126076697Y-132409986D01*
X126120154Y-132553247D01*
X126190726Y-132685276D01*
X126264348Y-132774985D01*
X126285699Y-132801001D01*
X126401424Y-132895974D01*
X126512928Y-132955575D01*
X126512928Y-133161000D01*
X126525188Y-133285482D01*
X126561498Y-133405180D01*
X126620463Y-133515494D01*
X126699815Y-133612185D01*
X126796506Y-133691537D01*
X126906820Y-133750502D01*
X127026518Y-133786812D01*
X127151000Y-133799072D01*
X128951000Y-133799072D01*
X129075482Y-133786812D01*
X129195180Y-133750502D01*
X129305494Y-133691537D01*
X129402185Y-133612185D01*
X129481537Y-133515494D01*
X129540502Y-133405180D01*
X129546056Y-133386873D01*
X129612495Y-133453312D01*
X129863905Y-133621299D01*
X130143257Y-133737011D01*
X130439816Y-133796000D01*
X130742184Y-133796000D01*
X131038743Y-133737011D01*
X131318095Y-133621299D01*
X131569505Y-133453312D01*
X131783312Y-133239505D01*
X131951299Y-132988095D01*
X132067011Y-132708743D01*
X132126000Y-132412184D01*
X132126000Y-132109816D01*
X132067011Y-131813257D01*
X131951299Y-131533905D01*
X131783312Y-131282495D01*
X131569505Y-131068688D01*
X131318095Y-130900701D01*
X131038743Y-130784989D01*
X130742184Y-130726000D01*
X130439816Y-130726000D01*
X130143257Y-130784989D01*
X129863905Y-130900701D01*
X129612495Y-131068688D01*
X129546056Y-131135127D01*
X129540502Y-131116820D01*
X129481537Y-131006506D01*
X129402185Y-130909815D01*
X129305494Y-130830463D01*
X129195180Y-130771498D01*
X129075482Y-130735188D01*
X128951000Y-130722928D01*
X127151000Y-130722928D01*
X127026518Y-130735188D01*
X126906820Y-130771498D01*
X126796506Y-130830463D01*
X126721841Y-130891739D01*
X126440104Y-130610002D01*
X126416301Y-130580999D01*
X126300576Y-130486026D01*
X126168547Y-130415454D01*
X126025286Y-130371997D01*
X125951250Y-130364705D01*
X125887962Y-130269987D01*
X125702013Y-130084038D01*
X125483359Y-129937939D01*
X125240405Y-129837304D01*
X124982486Y-129786000D01*
X124719514Y-129786000D01*
X124461595Y-129837304D01*
X124218641Y-129937939D01*
X123999987Y-130084038D01*
X123814038Y-130269987D01*
X123667939Y-130488641D01*
X123567304Y-130731595D01*
X123516000Y-130989514D01*
X123516000Y-131252486D01*
X123567304Y-131510405D01*
X123667939Y-131753359D01*
X123814038Y-131972013D01*
X123999987Y-132157962D01*
X124218641Y-132304061D01*
X124428530Y-132391000D01*
X124218641Y-132477939D01*
X123999987Y-132624038D01*
X123814038Y-132809987D01*
X123667939Y-133028641D01*
X123567304Y-133271595D01*
X123516000Y-133529514D01*
X123516000Y-133792486D01*
X123567304Y-134050405D01*
X123667939Y-134293359D01*
X123814038Y-134512013D01*
X123999987Y-134697962D01*
X124218641Y-134844061D01*
X124461595Y-134944696D01*
X124719514Y-134996000D01*
X124982486Y-134996000D01*
X125089843Y-134974645D01*
X125740601Y-135625403D01*
X125764399Y-135654401D01*
X125793397Y-135678199D01*
X125880123Y-135749374D01*
X126012153Y-135819946D01*
X126155414Y-135863403D01*
X126267067Y-135874400D01*
X126267077Y-135874400D01*
X126304400Y-135878076D01*
X126341722Y-135874400D01*
X162585778Y-135874400D01*
X162623100Y-135878076D01*
X162660422Y-135874400D01*
X162660433Y-135874400D01*
X162772086Y-135863403D01*
X162915347Y-135819946D01*
X163047376Y-135749374D01*
X163163101Y-135654401D01*
X163186904Y-135625397D01*
X165586111Y-133226191D01*
X165567304Y-133271595D01*
X165516000Y-133529514D01*
X165516000Y-133792486D01*
X165567304Y-134050405D01*
X165667939Y-134293359D01*
X165814038Y-134512013D01*
X165999987Y-134697962D01*
X166218641Y-134844061D01*
X166461595Y-134944696D01*
X166719514Y-134996000D01*
X166982486Y-134996000D01*
X167240405Y-134944696D01*
X167483359Y-134844061D01*
X167702013Y-134697962D01*
X167887962Y-134512013D01*
X168034061Y-134293359D01*
X168134696Y-134050405D01*
X168186000Y-133792486D01*
X168186000Y-133529514D01*
X168134696Y-133271595D01*
X168034061Y-133028641D01*
X167887962Y-132809987D01*
X167787438Y-132709463D01*
X168512928Y-131983973D01*
X168512928Y-133461000D01*
X168525188Y-133585482D01*
X168561498Y-133705180D01*
X168620463Y-133815494D01*
X168699815Y-133912185D01*
X168796506Y-133991537D01*
X168906820Y-134050502D01*
X169026518Y-134086812D01*
X169151000Y-134099072D01*
X170951000Y-134099072D01*
X171075482Y-134086812D01*
X171195180Y-134050502D01*
X171305494Y-133991537D01*
X171402185Y-133912185D01*
X171481537Y-133815494D01*
X171540502Y-133705180D01*
X171546056Y-133686873D01*
X171612495Y-133753312D01*
X171863905Y-133921299D01*
X172143257Y-134037011D01*
X172439816Y-134096000D01*
X172742184Y-134096000D01*
X173038743Y-134037011D01*
X173318095Y-133921299D01*
X173569505Y-133753312D01*
X173783312Y-133539505D01*
X173792270Y-133526098D01*
X178366000Y-133526098D01*
X178366000Y-133995902D01*
X178457654Y-134456679D01*
X178637440Y-134890721D01*
X178898450Y-135281349D01*
X179230651Y-135613550D01*
X179621279Y-135874560D01*
X180055321Y-136054346D01*
X180516098Y-136146000D01*
X180985902Y-136146000D01*
X181446679Y-136054346D01*
X181880721Y-135874560D01*
X182271349Y-135613550D01*
X182603550Y-135281349D01*
X182864560Y-134890721D01*
X183044346Y-134456679D01*
X183136000Y-133995902D01*
X183136000Y-133526098D01*
X183044346Y-133065321D01*
X182864560Y-132631279D01*
X182603550Y-132240651D01*
X182271349Y-131908450D01*
X181880721Y-131647440D01*
X181446679Y-131467654D01*
X180985902Y-131376000D01*
X180516098Y-131376000D01*
X180055321Y-131467654D01*
X179621279Y-131647440D01*
X179230651Y-131908450D01*
X178898450Y-132240651D01*
X178637440Y-132631279D01*
X178457654Y-133065321D01*
X178366000Y-133526098D01*
X173792270Y-133526098D01*
X173951299Y-133288095D01*
X174067011Y-133008743D01*
X174126000Y-132712184D01*
X174126000Y-132409816D01*
X174067011Y-132113257D01*
X173951299Y-131833905D01*
X173783312Y-131582495D01*
X173569505Y-131368688D01*
X173318095Y-131200701D01*
X173038743Y-131084989D01*
X172742184Y-131026000D01*
X172439816Y-131026000D01*
X172143257Y-131084989D01*
X171863905Y-131200701D01*
X171612495Y-131368688D01*
X171546056Y-131435127D01*
X171540502Y-131416820D01*
X171481537Y-131306506D01*
X171402185Y-131209815D01*
X171305494Y-131130463D01*
X171195180Y-131071498D01*
X171075482Y-131035188D01*
X170951000Y-131022928D01*
X169473973Y-131022928D01*
X178693413Y-121803489D01*
X178770010Y-121988411D01*
X178932525Y-122231632D01*
X179139368Y-122438475D01*
X179313760Y-122555000D01*
X179139368Y-122671525D01*
X178932525Y-122878368D01*
X178770010Y-123121589D01*
X178658068Y-123391842D01*
X178601000Y-123678740D01*
X178601000Y-123971260D01*
X178658068Y-124258158D01*
X178770010Y-124528411D01*
X178932525Y-124771632D01*
X179139368Y-124978475D01*
X179382589Y-125140990D01*
X179652842Y-125252932D01*
X179939740Y-125310000D01*
X180232260Y-125310000D01*
X180519158Y-125252932D01*
X180789411Y-125140990D01*
X181032632Y-124978475D01*
X181164487Y-124846620D01*
X181186498Y-124919180D01*
X181245463Y-125029494D01*
X181324815Y-125126185D01*
X181421506Y-125205537D01*
X181531820Y-125264502D01*
X181651518Y-125300812D01*
X181776000Y-125313072D01*
X183476000Y-125313072D01*
X183600482Y-125300812D01*
X183720180Y-125264502D01*
X183830494Y-125205537D01*
X183861001Y-125180501D01*
X183861001Y-136841000D01*
X112771000Y-136841000D01*
X112771000Y-133526098D01*
X113466000Y-133526098D01*
X113466000Y-133995902D01*
X113557654Y-134456679D01*
X113737440Y-134890721D01*
X113998450Y-135281349D01*
X114330651Y-135613550D01*
X114721279Y-135874560D01*
X115155321Y-136054346D01*
X115616098Y-136146000D01*
X116085902Y-136146000D01*
X116546679Y-136054346D01*
X116980721Y-135874560D01*
X117371349Y-135613550D01*
X117703550Y-135281349D01*
X117964560Y-134890721D01*
X118144346Y-134456679D01*
X118236000Y-133995902D01*
X118236000Y-133526098D01*
X118144346Y-133065321D01*
X117964560Y-132631279D01*
X117703550Y-132240651D01*
X117371349Y-131908450D01*
X116980721Y-131647440D01*
X116546679Y-131467654D01*
X116085902Y-131376000D01*
X115616098Y-131376000D01*
X115155321Y-131467654D01*
X114721279Y-131647440D01*
X114330651Y-131908450D01*
X113998450Y-132240651D01*
X113737440Y-132631279D01*
X113557654Y-133065321D01*
X113466000Y-133526098D01*
X112771000Y-133526098D01*
X112771000Y-124589757D01*
X112892525Y-124771632D01*
X113099368Y-124978475D01*
X113342589Y-125140990D01*
X113612842Y-125252932D01*
X113899740Y-125310000D01*
X114192260Y-125310000D01*
X114479158Y-125252932D01*
X114749411Y-125140990D01*
X114992632Y-124978475D01*
X115124487Y-124846620D01*
X115146498Y-124919180D01*
X115205463Y-125029494D01*
X115284815Y-125126185D01*
X115381506Y-125205537D01*
X115491820Y-125264502D01*
X115611518Y-125300812D01*
X115736000Y-125313072D01*
X117436000Y-125313072D01*
X117560482Y-125300812D01*
X117680180Y-125264502D01*
X117790494Y-125205537D01*
X117887185Y-125126185D01*
X117966537Y-125029494D01*
X118025502Y-124919180D01*
X118061812Y-124799482D01*
X118074072Y-124675000D01*
X118074072Y-122975000D01*
X118061812Y-122850518D01*
X118025502Y-122730820D01*
X117966537Y-122620506D01*
X117887185Y-122523815D01*
X117790494Y-122444463D01*
X117680180Y-122385498D01*
X117607620Y-122363487D01*
X117739475Y-122231632D01*
X117901990Y-121988411D01*
X118013932Y-121718158D01*
X118071000Y-121431260D01*
X118071000Y-121138740D01*
X118013932Y-120851842D01*
X117901990Y-120581589D01*
X117739475Y-120338368D01*
X117532632Y-120131525D01*
X117358240Y-120015000D01*
X117532632Y-119898475D01*
X117739475Y-119691632D01*
X117901990Y-119448411D01*
X118013932Y-119178158D01*
X118071000Y-118891260D01*
X118071000Y-118598740D01*
X118013932Y-118311842D01*
X117901990Y-118041589D01*
X117739475Y-117798368D01*
X117532632Y-117591525D01*
X117350466Y-117469805D01*
X117467355Y-117400178D01*
X117683588Y-117205269D01*
X117857641Y-116971920D01*
X117982825Y-116709099D01*
X118027476Y-116561890D01*
X117906155Y-116332000D01*
X116713000Y-116332000D01*
X116713000Y-116352000D01*
X116459000Y-116352000D01*
X116459000Y-116332000D01*
X114173000Y-116332000D01*
X114173000Y-116352000D01*
X113919000Y-116352000D01*
X113919000Y-116332000D01*
X113899000Y-116332000D01*
X113899000Y-116078000D01*
X113919000Y-116078000D01*
X113919000Y-113792000D01*
X114173000Y-113792000D01*
X114173000Y-116078000D01*
X116459000Y-116078000D01*
X116459000Y-113792000D01*
X116713000Y-113792000D01*
X116713000Y-116078000D01*
X117906155Y-116078000D01*
X118027476Y-115848110D01*
X117982825Y-115700901D01*
X117857641Y-115438080D01*
X117683588Y-115204731D01*
X117467355Y-115009822D01*
X117341745Y-114935000D01*
X117467355Y-114860178D01*
X117683588Y-114665269D01*
X117857641Y-114431920D01*
X117982825Y-114169099D01*
X118027476Y-114021890D01*
X117906155Y-113792000D01*
X116713000Y-113792000D01*
X116459000Y-113792000D01*
X114173000Y-113792000D01*
X113919000Y-113792000D01*
X113899000Y-113792000D01*
X113899000Y-113538000D01*
X113919000Y-113538000D01*
X113919000Y-113518000D01*
X114173000Y-113518000D01*
X114173000Y-113538000D01*
X116459000Y-113538000D01*
X116459000Y-113518000D01*
X116713000Y-113518000D01*
X116713000Y-113538000D01*
X117906155Y-113538000D01*
X118027476Y-113308110D01*
X117982825Y-113160901D01*
X117857641Y-112898080D01*
X117683588Y-112664731D01*
X117467355Y-112469822D01*
X117350466Y-112400195D01*
X117532632Y-112278475D01*
X117739475Y-112071632D01*
X117901990Y-111828411D01*
X118013932Y-111558158D01*
X118071000Y-111271260D01*
X118071000Y-110978740D01*
X118013932Y-110691842D01*
X117901990Y-110421589D01*
X117739475Y-110178368D01*
X117532632Y-109971525D01*
X117358240Y-109855000D01*
X117532632Y-109738475D01*
X117739475Y-109531632D01*
X117901990Y-109288411D01*
X118013932Y-109018158D01*
X118071000Y-108731260D01*
X118071000Y-108438740D01*
X118013932Y-108151842D01*
X117901990Y-107881589D01*
X117739475Y-107638368D01*
X117532632Y-107431525D01*
X117358240Y-107315000D01*
X117532632Y-107198475D01*
X117739475Y-106991632D01*
X117901990Y-106748411D01*
X118013932Y-106478158D01*
X118071000Y-106191260D01*
X118071000Y-105898740D01*
X118013932Y-105611842D01*
X117901990Y-105341589D01*
X117739475Y-105098368D01*
X117532632Y-104891525D01*
X117358240Y-104775000D01*
X117532632Y-104658475D01*
X117739475Y-104451632D01*
X117901990Y-104208411D01*
X118013932Y-103938158D01*
X118071000Y-103651260D01*
X118071000Y-103358740D01*
X118013932Y-103071842D01*
X117901990Y-102801589D01*
X117739475Y-102558368D01*
X117532632Y-102351525D01*
X117358240Y-102235000D01*
X117532632Y-102118475D01*
X117739475Y-101911632D01*
X117901990Y-101668411D01*
X118013932Y-101398158D01*
X118071000Y-101111260D01*
X118071000Y-100818740D01*
X118013932Y-100531842D01*
X117901990Y-100261589D01*
X117739475Y-100018368D01*
X117532632Y-99811525D01*
X117358240Y-99695000D01*
X117532632Y-99578475D01*
X117739475Y-99371632D01*
X117901990Y-99128411D01*
X118013932Y-98858158D01*
X118071000Y-98571260D01*
X118071000Y-98278740D01*
X118013932Y-97991842D01*
X117901990Y-97721589D01*
X117739475Y-97478368D01*
X117532632Y-97271525D01*
X117358240Y-97155000D01*
X117532632Y-97038475D01*
X117739475Y-96831632D01*
X117901990Y-96588411D01*
X118013932Y-96318158D01*
X118071000Y-96031260D01*
X118071000Y-95738740D01*
X118013932Y-95451842D01*
X117901990Y-95181589D01*
X117739475Y-94938368D01*
X117532632Y-94731525D01*
X117358240Y-94615000D01*
X117532632Y-94498475D01*
X117739475Y-94291632D01*
X117901990Y-94048411D01*
X118013932Y-93778158D01*
X118071000Y-93491260D01*
X118071000Y-93198740D01*
X118013932Y-92911842D01*
X117901990Y-92641589D01*
X117739475Y-92398368D01*
X117532632Y-92191525D01*
X117358240Y-92075000D01*
X117532632Y-91958475D01*
X117739475Y-91751632D01*
X117753476Y-91730677D01*
X127560201Y-101537403D01*
X127556363Y-101541241D01*
X127399320Y-101776273D01*
X127291147Y-102037426D01*
X127236000Y-102314665D01*
X127236000Y-102597335D01*
X127291147Y-102874574D01*
X127399320Y-103135727D01*
X127556363Y-103370759D01*
X127756241Y-103570637D01*
X127958827Y-103706000D01*
X127756241Y-103841363D01*
X127556363Y-104041241D01*
X127399320Y-104276273D01*
X127291147Y-104537426D01*
X127236000Y-104814665D01*
X127236000Y-105097335D01*
X127291147Y-105374574D01*
X127399320Y-105635727D01*
X127556363Y-105870759D01*
X127756241Y-106070637D01*
X127958827Y-106206000D01*
X127756241Y-106341363D01*
X127556363Y-106541241D01*
X127399320Y-106776273D01*
X127291147Y-107037426D01*
X127236000Y-107314665D01*
X127236000Y-107597335D01*
X127291147Y-107874574D01*
X127399320Y-108135727D01*
X127556363Y-108370759D01*
X127756241Y-108570637D01*
X127958827Y-108706000D01*
X127756241Y-108841363D01*
X127556363Y-109041241D01*
X127399320Y-109276273D01*
X127291147Y-109537426D01*
X127236000Y-109814665D01*
X127236000Y-110097335D01*
X127291147Y-110374574D01*
X127399320Y-110635727D01*
X127556363Y-110870759D01*
X127756241Y-111070637D01*
X127991273Y-111227680D01*
X128252426Y-111335853D01*
X128529665Y-111391000D01*
X128812335Y-111391000D01*
X129089574Y-111335853D01*
X129350727Y-111227680D01*
X129585759Y-111070637D01*
X129771823Y-110884573D01*
X129736000Y-111064665D01*
X129736000Y-111347335D01*
X129791147Y-111624574D01*
X129899320Y-111885727D01*
X130056363Y-112120759D01*
X130256241Y-112320637D01*
X130491273Y-112477680D01*
X130752426Y-112585853D01*
X131029665Y-112641000D01*
X131312335Y-112641000D01*
X131589574Y-112585853D01*
X131850727Y-112477680D01*
X132085759Y-112320637D01*
X132285637Y-112120759D01*
X132442680Y-111885727D01*
X132550853Y-111624574D01*
X132606000Y-111347335D01*
X132606000Y-111064665D01*
X132550853Y-110787426D01*
X132442680Y-110526273D01*
X132285637Y-110291241D01*
X132085759Y-110091363D01*
X131883173Y-109956000D01*
X132085759Y-109820637D01*
X132285637Y-109620759D01*
X132442680Y-109385727D01*
X132550853Y-109124574D01*
X132606000Y-108847335D01*
X132606000Y-108564665D01*
X132550853Y-108287426D01*
X132442680Y-108026273D01*
X132285637Y-107791241D01*
X132085759Y-107591363D01*
X131883173Y-107456000D01*
X132085759Y-107320637D01*
X132285637Y-107120759D01*
X132442680Y-106885727D01*
X132550853Y-106624574D01*
X132606000Y-106347335D01*
X132606000Y-106064665D01*
X132550853Y-105787426D01*
X132442680Y-105526273D01*
X132285637Y-105291241D01*
X132085759Y-105091363D01*
X131883173Y-104956000D01*
X132085759Y-104820637D01*
X132285637Y-104620759D01*
X132442680Y-104385727D01*
X132550853Y-104124574D01*
X132606000Y-103847335D01*
X132606000Y-103564665D01*
X132550853Y-103287426D01*
X132442680Y-103026273D01*
X132285637Y-102791241D01*
X132085759Y-102591363D01*
X131883173Y-102456000D01*
X132085759Y-102320637D01*
X132285637Y-102120759D01*
X132442680Y-101885727D01*
X132550853Y-101624574D01*
X132606000Y-101347335D01*
X132606000Y-101064665D01*
X132550853Y-100787426D01*
X132442680Y-100526273D01*
X132285637Y-100291241D01*
X132085759Y-100091363D01*
X131883173Y-99956000D01*
X132085759Y-99820637D01*
X132285637Y-99620759D01*
X132442680Y-99385727D01*
X132550853Y-99124574D01*
X132606000Y-98847335D01*
X132606000Y-98564665D01*
X132550853Y-98287426D01*
X132442680Y-98026273D01*
X132285637Y-97791241D01*
X132085759Y-97591363D01*
X131883173Y-97456000D01*
X132085759Y-97320637D01*
X132285637Y-97120759D01*
X132442680Y-96885727D01*
X132550853Y-96624574D01*
X132606000Y-96347335D01*
X132606000Y-96064665D01*
X132550853Y-95787426D01*
X132442680Y-95526273D01*
X132285637Y-95291241D01*
X132085759Y-95091363D01*
X131883173Y-94956000D01*
X132085759Y-94820637D01*
X132285637Y-94620759D01*
X132442680Y-94385727D01*
X132550853Y-94124574D01*
X132606000Y-93847335D01*
X132606000Y-93564665D01*
X132550853Y-93287426D01*
X132442680Y-93026273D01*
X132285637Y-92791241D01*
X132085759Y-92591363D01*
X131883173Y-92456000D01*
X132085759Y-92320637D01*
X132285637Y-92120759D01*
X132442680Y-91885727D01*
X132550853Y-91624574D01*
X132606000Y-91347335D01*
X132606000Y-91064665D01*
X132550853Y-90787426D01*
X132442680Y-90526273D01*
X132285637Y-90291241D01*
X132085759Y-90091363D01*
X131883173Y-89956000D01*
X132085759Y-89820637D01*
X132285637Y-89620759D01*
X132442680Y-89385727D01*
X132550853Y-89124574D01*
X132606000Y-88847335D01*
X132606000Y-88564665D01*
X132550853Y-88287426D01*
X132442680Y-88026273D01*
X132285637Y-87791241D01*
X132085759Y-87591363D01*
X131883173Y-87456000D01*
X132085759Y-87320637D01*
X132285637Y-87120759D01*
X132442680Y-86885727D01*
X132550853Y-86624574D01*
X132606000Y-86347335D01*
X132606000Y-86064665D01*
X132550853Y-85787426D01*
X132442680Y-85526273D01*
X132285637Y-85291241D01*
X132085759Y-85091363D01*
X131883173Y-84956000D01*
X132085759Y-84820637D01*
X132285637Y-84620759D01*
X132442680Y-84385727D01*
X132550853Y-84124574D01*
X132606000Y-83847335D01*
X132606000Y-83564665D01*
X132550853Y-83287426D01*
X132442680Y-83026273D01*
X132285637Y-82791241D01*
X132085759Y-82591363D01*
X131883173Y-82456000D01*
X132085759Y-82320637D01*
X132285637Y-82120759D01*
X132442680Y-81885727D01*
X132550853Y-81624574D01*
X132606000Y-81347335D01*
X132606000Y-81064665D01*
X132550853Y-80787426D01*
X132442680Y-80526273D01*
X132285637Y-80291241D01*
X132085759Y-80091363D01*
X131883173Y-79956000D01*
X132085759Y-79820637D01*
X132285637Y-79620759D01*
X132442680Y-79385727D01*
X132550853Y-79124574D01*
X132606000Y-78847335D01*
X132606000Y-78564665D01*
X132550853Y-78287426D01*
X132442680Y-78026273D01*
X132285637Y-77791241D01*
X132085759Y-77591363D01*
X131883173Y-77456000D01*
X132085759Y-77320637D01*
X132285637Y-77120759D01*
X132442680Y-76885727D01*
X132550853Y-76624574D01*
X132606000Y-76347335D01*
X132606000Y-76064665D01*
X132550853Y-75787426D01*
X132442680Y-75526273D01*
X132285637Y-75291241D01*
X132085759Y-75091363D01*
X131883173Y-74956000D01*
X132085759Y-74820637D01*
X132285637Y-74620759D01*
X132442680Y-74385727D01*
X132550853Y-74124574D01*
X132606000Y-73847335D01*
X132606000Y-73564665D01*
X132550853Y-73287426D01*
X132442680Y-73026273D01*
X132285637Y-72791241D01*
X132085759Y-72591363D01*
X131850727Y-72434320D01*
X131589574Y-72326147D01*
X131312335Y-72271000D01*
X131029665Y-72271000D01*
X130752426Y-72326147D01*
X130491273Y-72434320D01*
X130256241Y-72591363D01*
X130070177Y-72777427D01*
X130106000Y-72597335D01*
X130106000Y-72314665D01*
X130050853Y-72037426D01*
X129942680Y-71776273D01*
X129785637Y-71541241D01*
X129585759Y-71341363D01*
X129350727Y-71184320D01*
X129089574Y-71076147D01*
X128812335Y-71021000D01*
X128529665Y-71021000D01*
X128252426Y-71076147D01*
X127991273Y-71184320D01*
X127756241Y-71341363D01*
X127556363Y-71541241D01*
X127399320Y-71776273D01*
X127291147Y-72037426D01*
X127236000Y-72314665D01*
X127236000Y-72597335D01*
X127291147Y-72874574D01*
X127399320Y-73135727D01*
X127556363Y-73370759D01*
X127756241Y-73570637D01*
X127956869Y-73704692D01*
X127929486Y-73719329D01*
X127857903Y-73963298D01*
X128671000Y-74776395D01*
X129484097Y-73963298D01*
X129412514Y-73719329D01*
X129383659Y-73705676D01*
X129585759Y-73570637D01*
X129771823Y-73384573D01*
X129736000Y-73564665D01*
X129736000Y-73847335D01*
X129791147Y-74124574D01*
X129817421Y-74188006D01*
X129663702Y-74142903D01*
X128850605Y-74956000D01*
X129663702Y-75769097D01*
X129817421Y-75723994D01*
X129791147Y-75787426D01*
X129736000Y-76064665D01*
X129736000Y-76347335D01*
X129771823Y-76527427D01*
X129585759Y-76341363D01*
X129385131Y-76207308D01*
X129412514Y-76192671D01*
X129484097Y-75948702D01*
X128671000Y-75135605D01*
X127857903Y-75948702D01*
X127929486Y-76192671D01*
X127958341Y-76206324D01*
X127756241Y-76341363D01*
X127556363Y-76541241D01*
X127399320Y-76776273D01*
X127291147Y-77037426D01*
X127236000Y-77314665D01*
X127236000Y-77597335D01*
X127291147Y-77874574D01*
X127399320Y-78135727D01*
X127556363Y-78370759D01*
X127756241Y-78570637D01*
X127958827Y-78706000D01*
X127756241Y-78841363D01*
X127556363Y-79041241D01*
X127399320Y-79276273D01*
X127291147Y-79537426D01*
X127236000Y-79814665D01*
X127236000Y-80097335D01*
X127291147Y-80374574D01*
X127399320Y-80635727D01*
X127556363Y-80870759D01*
X127756241Y-81070637D01*
X127958827Y-81206000D01*
X127756241Y-81341363D01*
X127556363Y-81541241D01*
X127399320Y-81776273D01*
X127291147Y-82037426D01*
X127236000Y-82314665D01*
X127236000Y-82597335D01*
X127291147Y-82874574D01*
X127399320Y-83135727D01*
X127556363Y-83370759D01*
X127756241Y-83570637D01*
X127958827Y-83706000D01*
X127756241Y-83841363D01*
X127556363Y-84041241D01*
X127399320Y-84276273D01*
X127291147Y-84537426D01*
X127236000Y-84814665D01*
X127236000Y-85097335D01*
X127291147Y-85374574D01*
X127399320Y-85635727D01*
X127556363Y-85870759D01*
X127756241Y-86070637D01*
X127958827Y-86206000D01*
X127756241Y-86341363D01*
X127556363Y-86541241D01*
X127399320Y-86776273D01*
X127291147Y-87037426D01*
X127236000Y-87314665D01*
X127236000Y-87597335D01*
X127291147Y-87874574D01*
X127399320Y-88135727D01*
X127556363Y-88370759D01*
X127756241Y-88570637D01*
X127958827Y-88706000D01*
X127756241Y-88841363D01*
X127556363Y-89041241D01*
X127399320Y-89276273D01*
X127291147Y-89537426D01*
X127236000Y-89814665D01*
X127236000Y-90097335D01*
X127291147Y-90374574D01*
X127399320Y-90635727D01*
X127556363Y-90870759D01*
X127756241Y-91070637D01*
X127958827Y-91206000D01*
X127756241Y-91341363D01*
X127556363Y-91541241D01*
X127399320Y-91776273D01*
X127291147Y-92037426D01*
X127236000Y-92314665D01*
X127236000Y-92597335D01*
X127291147Y-92874574D01*
X127399320Y-93135727D01*
X127556363Y-93370759D01*
X127756241Y-93570637D01*
X127958827Y-93706000D01*
X127756241Y-93841363D01*
X127556363Y-94041241D01*
X127399320Y-94276273D01*
X127291147Y-94537426D01*
X127236000Y-94814665D01*
X127236000Y-95097335D01*
X127291147Y-95374574D01*
X127399320Y-95635727D01*
X127556363Y-95870759D01*
X127756241Y-96070637D01*
X127958827Y-96206000D01*
X127756241Y-96341363D01*
X127556363Y-96541241D01*
X127399320Y-96776273D01*
X127291147Y-97037426D01*
X127236000Y-97314665D01*
X127236000Y-97597335D01*
X127291147Y-97874574D01*
X127399320Y-98135727D01*
X127556363Y-98370759D01*
X127756241Y-98570637D01*
X127958827Y-98706000D01*
X127756241Y-98841363D01*
X127556363Y-99041241D01*
X127419089Y-99246686D01*
X118555300Y-90382899D01*
X118555300Y-85253723D01*
X118558976Y-85216400D01*
X118555300Y-85179077D01*
X118555300Y-85179067D01*
X118544303Y-85067414D01*
X118500846Y-84924153D01*
X118430274Y-84792124D01*
X118335301Y-84676399D01*
X118306303Y-84652601D01*
X117757843Y-84104142D01*
X117901990Y-83888411D01*
X118013932Y-83618158D01*
X118071000Y-83331260D01*
X118071000Y-83038740D01*
X118013932Y-82751842D01*
X117901990Y-82481589D01*
X117763531Y-82274370D01*
X118272304Y-81765598D01*
X118301301Y-81741801D01*
X118351554Y-81680568D01*
X118396274Y-81626077D01*
X118466846Y-81494047D01*
X118477493Y-81458947D01*
X118510303Y-81350786D01*
X118521300Y-81239133D01*
X118521300Y-81239124D01*
X118524976Y-81201801D01*
X118521300Y-81164478D01*
X118521300Y-75026512D01*
X127230783Y-75026512D01*
X127272213Y-75306130D01*
X127367397Y-75572292D01*
X127434329Y-75697514D01*
X127678298Y-75769097D01*
X128491395Y-74956000D01*
X127678298Y-74142903D01*
X127434329Y-74214486D01*
X127313429Y-74469996D01*
X127244700Y-74744184D01*
X127230783Y-75026512D01*
X118521300Y-75026512D01*
X118521300Y-74315001D01*
X128565433Y-64270869D01*
X128562928Y-64731000D01*
X128575188Y-64855482D01*
X128611498Y-64975180D01*
X128670463Y-65085494D01*
X128749815Y-65182185D01*
X128846506Y-65261537D01*
X128956820Y-65320502D01*
X129076518Y-65356812D01*
X129201000Y-65369072D01*
X129765250Y-65366000D01*
X129924000Y-65207250D01*
X129924000Y-64008000D01*
X129904000Y-64008000D01*
X129904000Y-63754000D01*
X129924000Y-63754000D01*
X129924000Y-63734000D01*
X130178000Y-63734000D01*
X130178000Y-63754000D01*
X130198000Y-63754000D01*
X130198000Y-64008000D01*
X130178000Y-64008000D01*
X130178000Y-65207250D01*
X130336750Y-65366000D01*
X130901000Y-65369072D01*
X131025482Y-65356812D01*
X131145180Y-65320502D01*
X131255494Y-65261537D01*
X131352185Y-65182185D01*
X131431537Y-65085494D01*
X131490502Y-64975180D01*
X131512513Y-64902620D01*
X131644368Y-65034475D01*
X131887589Y-65196990D01*
X132157842Y-65308932D01*
X132444740Y-65366000D01*
X132737260Y-65366000D01*
X133024158Y-65308932D01*
X133294411Y-65196990D01*
X133537632Y-65034475D01*
X133744475Y-64827632D01*
X133861000Y-64653240D01*
X133977525Y-64827632D01*
X134184368Y-65034475D01*
X134427589Y-65196990D01*
X134697842Y-65308932D01*
X134984740Y-65366000D01*
X135277260Y-65366000D01*
X135564158Y-65308932D01*
X135834411Y-65196990D01*
X136077632Y-65034475D01*
X136284475Y-64827632D01*
X136446990Y-64584411D01*
X136558932Y-64314158D01*
X136616000Y-64027260D01*
X136616000Y-63749514D01*
X147636000Y-63749514D01*
X147636000Y-64012486D01*
X147687304Y-64270405D01*
X147787939Y-64513359D01*
X147934038Y-64732013D01*
X148119987Y-64917962D01*
X148338641Y-65064061D01*
X148548530Y-65151000D01*
X148338641Y-65237939D01*
X148119987Y-65384038D01*
X147934038Y-65569987D01*
X147787939Y-65788641D01*
X147687304Y-66031595D01*
X147636000Y-66289514D01*
X147636000Y-66552486D01*
X147687304Y-66810405D01*
X147787939Y-67053359D01*
X147934038Y-67272013D01*
X148119987Y-67457962D01*
X148338641Y-67604061D01*
X148581595Y-67704696D01*
X148839514Y-67756000D01*
X149102486Y-67756000D01*
X149360405Y-67704696D01*
X149603359Y-67604061D01*
X149822013Y-67457962D01*
X150002975Y-67277000D01*
X155297678Y-67277000D01*
X155335000Y-67280676D01*
X155372322Y-67277000D01*
X155372333Y-67277000D01*
X155483986Y-67266003D01*
X155627247Y-67222546D01*
X155759276Y-67151974D01*
X155875001Y-67057001D01*
X155898804Y-67027997D01*
X156182070Y-66744731D01*
X156439816Y-66796000D01*
X156742184Y-66796000D01*
X157038743Y-66737011D01*
X157318095Y-66621299D01*
X157569505Y-66453312D01*
X157783312Y-66239505D01*
X157951299Y-65988095D01*
X158067011Y-65708743D01*
X158126000Y-65412184D01*
X158126000Y-65109816D01*
X158067011Y-64813257D01*
X157951299Y-64533905D01*
X157783312Y-64282495D01*
X157569505Y-64068688D01*
X157318095Y-63900701D01*
X157038743Y-63784989D01*
X156742184Y-63726000D01*
X156439816Y-63726000D01*
X156143257Y-63784989D01*
X155863905Y-63900701D01*
X155612495Y-64068688D01*
X155546056Y-64135127D01*
X155540502Y-64116820D01*
X155481537Y-64006506D01*
X155402185Y-63909815D01*
X155305494Y-63830463D01*
X155195180Y-63771498D01*
X155075482Y-63735188D01*
X154951000Y-63722928D01*
X154336750Y-63726000D01*
X154178000Y-63884750D01*
X154178000Y-65134000D01*
X154198000Y-65134000D01*
X154198000Y-65388000D01*
X154178000Y-65388000D01*
X154178000Y-65408000D01*
X153924000Y-65408000D01*
X153924000Y-65388000D01*
X152674750Y-65388000D01*
X152516000Y-65546750D01*
X152514948Y-65757000D01*
X150132919Y-65757000D01*
X150007962Y-65569987D01*
X149822013Y-65384038D01*
X149603359Y-65237939D01*
X149393470Y-65151000D01*
X149603359Y-65064061D01*
X149822013Y-64917962D01*
X150007962Y-64732013D01*
X150154061Y-64513359D01*
X150217170Y-64361000D01*
X152512928Y-64361000D01*
X152516000Y-64975250D01*
X152674750Y-65134000D01*
X153924000Y-65134000D01*
X153924000Y-63884750D01*
X153765250Y-63726000D01*
X153151000Y-63722928D01*
X153026518Y-63735188D01*
X152906820Y-63771498D01*
X152796506Y-63830463D01*
X152699815Y-63909815D01*
X152620463Y-64006506D01*
X152561498Y-64116820D01*
X152525188Y-64236518D01*
X152512928Y-64361000D01*
X150217170Y-64361000D01*
X150254696Y-64270405D01*
X150306000Y-64012486D01*
X150306000Y-63749514D01*
X150254696Y-63491595D01*
X150154061Y-63248641D01*
X150007962Y-63029987D01*
X149822013Y-62844038D01*
X149603359Y-62697939D01*
X149360405Y-62597304D01*
X149102486Y-62546000D01*
X148839514Y-62546000D01*
X148581595Y-62597304D01*
X148338641Y-62697939D01*
X148119987Y-62844038D01*
X147934038Y-63029987D01*
X147787939Y-63248641D01*
X147687304Y-63491595D01*
X147636000Y-63749514D01*
X136616000Y-63749514D01*
X136616000Y-63734740D01*
X136558932Y-63447842D01*
X136446990Y-63177589D01*
X136284475Y-62934368D01*
X136077632Y-62727525D01*
X135834411Y-62565010D01*
X135564158Y-62453068D01*
X135277260Y-62396000D01*
X134984740Y-62396000D01*
X134697842Y-62453068D01*
X134427589Y-62565010D01*
X134184368Y-62727525D01*
X133977525Y-62934368D01*
X133861000Y-63108760D01*
X133744475Y-62934368D01*
X133537632Y-62727525D01*
X133294411Y-62565010D01*
X133024158Y-62453068D01*
X132737260Y-62396000D01*
X132444740Y-62396000D01*
X132157842Y-62453068D01*
X131958089Y-62535808D01*
X131955701Y-62532899D01*
X131926698Y-62509097D01*
X131612304Y-62194703D01*
X131588501Y-62165699D01*
X131472776Y-62070726D01*
X131340747Y-62000154D01*
X131197486Y-61956697D01*
X131085833Y-61945700D01*
X131085822Y-61945700D01*
X131048500Y-61942024D01*
X131011178Y-61945700D01*
X129093122Y-61945700D01*
X129055799Y-61942024D01*
X129018476Y-61945700D01*
X129018467Y-61945700D01*
X128906814Y-61956697D01*
X128781787Y-61994623D01*
X128763553Y-62000154D01*
X128631523Y-62070726D01*
X128547883Y-62139368D01*
X128515799Y-62165699D01*
X128492001Y-62194697D01*
X118027358Y-72659341D01*
X118013932Y-72591842D01*
X117901990Y-72321589D01*
X117739475Y-72078368D01*
X117532632Y-71871525D01*
X117358240Y-71755000D01*
X117532632Y-71638475D01*
X117739475Y-71431632D01*
X117901990Y-71188411D01*
X118013932Y-70918158D01*
X118071000Y-70631260D01*
X118071000Y-70338740D01*
X118013932Y-70051842D01*
X117901990Y-69781589D01*
X117739475Y-69538368D01*
X117532632Y-69331525D01*
X117358240Y-69215000D01*
X117532632Y-69098475D01*
X117739475Y-68891632D01*
X117901990Y-68648411D01*
X118013932Y-68378158D01*
X118071000Y-68091260D01*
X118071000Y-67798740D01*
X118013932Y-67511842D01*
X117901990Y-67241589D01*
X117739475Y-66998368D01*
X117532632Y-66791525D01*
X117358240Y-66675000D01*
X117532632Y-66558475D01*
X117739475Y-66351632D01*
X117901990Y-66108411D01*
X118013932Y-65838158D01*
X118071000Y-65551260D01*
X118071000Y-65258740D01*
X118013932Y-64971842D01*
X117901990Y-64701589D01*
X117739475Y-64458368D01*
X117532632Y-64251525D01*
X117289411Y-64089010D01*
X117019158Y-63977068D01*
X116732260Y-63920000D01*
X116439740Y-63920000D01*
X116152842Y-63977068D01*
X115882589Y-64089010D01*
X115639368Y-64251525D01*
X115432525Y-64458368D01*
X115316000Y-64632760D01*
X115199475Y-64458368D01*
X114992632Y-64251525D01*
X114749411Y-64089010D01*
X114479158Y-63977068D01*
X114192260Y-63920000D01*
X113899740Y-63920000D01*
X113612842Y-63977068D01*
X113342589Y-64089010D01*
X113099368Y-64251525D01*
X112892525Y-64458368D01*
X112771000Y-64640243D01*
X112771000Y-55826098D01*
X113466000Y-55826098D01*
X113466000Y-56295902D01*
X113557654Y-56756679D01*
X113737440Y-57190721D01*
X113998450Y-57581349D01*
X114330651Y-57913550D01*
X114721279Y-58174560D01*
X115155321Y-58354346D01*
X115616098Y-58446000D01*
X116085902Y-58446000D01*
X116546679Y-58354346D01*
X116980721Y-58174560D01*
X117371349Y-57913550D01*
X117703550Y-57581349D01*
X117763251Y-57492000D01*
X127543928Y-57492000D01*
X127556188Y-57616482D01*
X127592498Y-57736180D01*
X127651463Y-57846494D01*
X127730815Y-57943185D01*
X127827506Y-58022537D01*
X127937820Y-58081502D01*
X128057518Y-58117812D01*
X128182000Y-58130072D01*
X128746250Y-58127000D01*
X128905000Y-57968250D01*
X128905000Y-56769000D01*
X127705750Y-56769000D01*
X127547000Y-56927750D01*
X127543928Y-57492000D01*
X117763251Y-57492000D01*
X117964560Y-57190721D01*
X118144346Y-56756679D01*
X118236000Y-56295902D01*
X118236000Y-55826098D01*
X118144346Y-55365321D01*
X117964560Y-54931279D01*
X117703550Y-54540651D01*
X117371349Y-54208450D01*
X116980721Y-53947440D01*
X116546679Y-53767654D01*
X116085902Y-53676000D01*
X115616098Y-53676000D01*
X115155321Y-53767654D01*
X114721279Y-53947440D01*
X114330651Y-54208450D01*
X113998450Y-54540651D01*
X113737440Y-54931279D01*
X113557654Y-55365321D01*
X113466000Y-55826098D01*
X112771000Y-55826098D01*
X112771000Y-52961000D01*
X128072893Y-52961000D01*
X127878525Y-53155368D01*
G37*
%TD.AperFunction*%
D20*
X183861000Y-64580379D02*
X183779475Y-64458368D01*
X183572632Y-64251525D01*
X183329411Y-64089010D01*
X183059158Y-63977068D01*
X182772260Y-63920000D01*
X182479740Y-63920000D01*
X182192842Y-63977068D01*
X181922589Y-64089010D01*
X181679368Y-64251525D01*
X181472525Y-64458368D01*
X181356000Y-64632760D01*
X181239475Y-64458368D01*
X181032632Y-64251525D01*
X180789411Y-64089010D01*
X180519158Y-63977068D01*
X180232260Y-63920000D01*
X179939740Y-63920000D01*
X179652842Y-63977068D01*
X179382589Y-64089010D01*
X179139368Y-64251525D01*
X178932525Y-64458368D01*
X178770010Y-64701589D01*
X178658068Y-64971842D01*
X178601000Y-65258740D01*
X178601000Y-65551260D01*
X178658068Y-65838158D01*
X178770010Y-66108411D01*
X178932525Y-66351632D01*
X179139368Y-66558475D01*
X179313760Y-66675000D01*
X179139368Y-66791525D01*
X178932525Y-66998368D01*
X178770010Y-67241589D01*
X178658068Y-67511842D01*
X178601000Y-67798740D01*
X178601000Y-68091260D01*
X178658068Y-68378158D01*
X178770010Y-68648411D01*
X178932525Y-68891632D01*
X179139368Y-69098475D01*
X179313760Y-69215000D01*
X179139368Y-69331525D01*
X178932525Y-69538368D01*
X178770010Y-69781589D01*
X178658068Y-70051842D01*
X178601000Y-70338740D01*
X178601000Y-70631260D01*
X178658068Y-70918158D01*
X178770010Y-71188411D01*
X178932525Y-71431632D01*
X179139368Y-71638475D01*
X179313760Y-71755000D01*
X179139368Y-71871525D01*
X178932525Y-72078368D01*
X178770010Y-72321589D01*
X178658068Y-72591842D01*
X178601000Y-72878740D01*
X178601000Y-73171260D01*
X178658068Y-73458158D01*
X178770010Y-73728411D01*
X178908509Y-73935689D01*
X174190603Y-78653596D01*
X174161599Y-78677399D01*
X174124175Y-78723001D01*
X174066626Y-78793124D01*
X174028743Y-78863998D01*
X173996054Y-78925154D01*
X173952597Y-79068415D01*
X173941600Y-79180068D01*
X173941600Y-79180078D01*
X173937924Y-79217400D01*
X173941600Y-79254723D01*
X173941601Y-82279999D01*
X172990386Y-81328785D01*
X173146990Y-81094411D01*
X173258932Y-80824158D01*
X173316000Y-80537260D01*
X173316000Y-80244740D01*
X173258932Y-79957842D01*
X173146990Y-79687589D01*
X172984475Y-79444368D01*
X172777632Y-79237525D01*
X172603240Y-79121000D01*
X172777632Y-79004475D01*
X172984475Y-78797632D01*
X173146990Y-78554411D01*
X173258932Y-78284158D01*
X173316000Y-77997260D01*
X173316000Y-77704740D01*
X173258932Y-77417842D01*
X173146990Y-77147589D01*
X172984475Y-76904368D01*
X172777632Y-76697525D01*
X172603240Y-76581000D01*
X172777632Y-76464475D01*
X172984475Y-76257632D01*
X173146990Y-76014411D01*
X173258932Y-75744158D01*
X173316000Y-75457260D01*
X173316000Y-75164740D01*
X173258932Y-74877842D01*
X173146990Y-74607589D01*
X172984475Y-74364368D01*
X172777632Y-74157525D01*
X172603240Y-74041000D01*
X172777632Y-73924475D01*
X172984475Y-73717632D01*
X173146990Y-73474411D01*
X173258932Y-73204158D01*
X173316000Y-72917260D01*
X173316000Y-72624740D01*
X173258932Y-72337842D01*
X173146990Y-72067589D01*
X172984475Y-71824368D01*
X172777632Y-71617525D01*
X172534411Y-71455010D01*
X172264158Y-71343068D01*
X171977260Y-71286000D01*
X171684740Y-71286000D01*
X171397842Y-71343068D01*
X171127589Y-71455010D01*
X170884368Y-71617525D01*
X170697285Y-71804608D01*
X170629405Y-71677614D01*
X170518962Y-71543038D01*
X170384386Y-71432595D01*
X170230850Y-71350528D01*
X170064254Y-71299992D01*
X169891000Y-71282928D01*
X168691000Y-71282928D01*
X168517746Y-71299992D01*
X168351150Y-71350528D01*
X168197614Y-71432595D01*
X168063038Y-71543038D01*
X167952595Y-71677614D01*
X167870528Y-71831150D01*
X167819992Y-71997746D01*
X167802928Y-72171000D01*
X167802928Y-73184270D01*
X165749603Y-75237596D01*
X165720599Y-75261399D01*
X165683890Y-75306130D01*
X165625626Y-75377124D01*
X165564969Y-75490605D01*
X165555054Y-75509154D01*
X165511597Y-75652415D01*
X165500600Y-75764068D01*
X165500600Y-75764078D01*
X165496924Y-75801400D01*
X165500600Y-75838722D01*
X165500601Y-101845567D01*
X165496924Y-101882900D01*
X165500601Y-101920233D01*
X165507040Y-101985603D01*
X165511598Y-102031885D01*
X165555054Y-102175146D01*
X165625626Y-102307176D01*
X165662023Y-102351525D01*
X165720600Y-102422901D01*
X165749598Y-102446699D01*
X168142396Y-104839497D01*
X168137525Y-104844368D01*
X167975010Y-105087589D01*
X167863068Y-105357842D01*
X167806000Y-105644740D01*
X167806000Y-105937260D01*
X167863068Y-106224158D01*
X167975010Y-106494411D01*
X168137525Y-106737632D01*
X168344368Y-106944475D01*
X168518760Y-107061000D01*
X168344368Y-107177525D01*
X168137525Y-107384368D01*
X167975010Y-107627589D01*
X167863068Y-107897842D01*
X167806000Y-108184740D01*
X167806000Y-108477260D01*
X167863068Y-108764158D01*
X167975010Y-109034411D01*
X168137525Y-109277632D01*
X168344368Y-109484475D01*
X168518760Y-109601000D01*
X168344368Y-109717525D01*
X168137525Y-109924368D01*
X167975010Y-110167589D01*
X167863068Y-110437842D01*
X167806000Y-110724740D01*
X167806000Y-111017260D01*
X167863068Y-111304158D01*
X167975010Y-111574411D01*
X168137525Y-111817632D01*
X168344368Y-112024475D01*
X168518760Y-112141000D01*
X168344368Y-112257525D01*
X168137525Y-112464368D01*
X167975010Y-112707589D01*
X167863068Y-112977842D01*
X167806000Y-113264740D01*
X167806000Y-113557260D01*
X167863068Y-113844158D01*
X167975010Y-114114411D01*
X168137525Y-114357632D01*
X168344368Y-114564475D01*
X168587589Y-114726990D01*
X168857842Y-114838932D01*
X169144740Y-114896000D01*
X169437260Y-114896000D01*
X169724158Y-114838932D01*
X169994411Y-114726990D01*
X170237632Y-114564475D01*
X170444475Y-114357632D01*
X170561000Y-114183240D01*
X170677525Y-114357632D01*
X170884368Y-114564475D01*
X171127589Y-114726990D01*
X171397842Y-114838932D01*
X171684740Y-114896000D01*
X171977260Y-114896000D01*
X172264158Y-114838932D01*
X172534411Y-114726990D01*
X172777632Y-114564475D01*
X172984475Y-114357632D01*
X173146990Y-114114411D01*
X173258932Y-113844158D01*
X173316000Y-113557260D01*
X173316000Y-113264740D01*
X173258932Y-112977842D01*
X173146990Y-112707589D01*
X172984475Y-112464368D01*
X172777632Y-112257525D01*
X172603240Y-112141000D01*
X172777632Y-112024475D01*
X172984475Y-111817632D01*
X173146990Y-111574411D01*
X173258932Y-111304158D01*
X173316000Y-111017260D01*
X173316000Y-110724740D01*
X173258932Y-110437842D01*
X173146990Y-110167589D01*
X172984475Y-109924368D01*
X172777632Y-109717525D01*
X172603240Y-109601000D01*
X172777632Y-109484475D01*
X172984475Y-109277632D01*
X173141230Y-109043032D01*
X173732200Y-109634002D01*
X173732201Y-116348088D01*
X173688263Y-116392026D01*
X173574995Y-116561544D01*
X173496974Y-116749902D01*
X173457200Y-116949861D01*
X173457200Y-117153739D01*
X173496974Y-117353698D01*
X173574995Y-117542056D01*
X173688263Y-117711574D01*
X173832426Y-117855737D01*
X173940050Y-117927649D01*
X163326003Y-128541696D01*
X163296999Y-128565499D01*
X163241871Y-128632674D01*
X163202026Y-128681224D01*
X163131455Y-128813253D01*
X163131454Y-128813254D01*
X163087997Y-128956515D01*
X163077000Y-129068168D01*
X163077000Y-129068178D01*
X163073324Y-129105500D01*
X163077000Y-129142823D01*
X163077001Y-131206878D01*
X162951000Y-131122687D01*
X162951000Y-63073101D01*
X167643003Y-58381099D01*
X167672001Y-58357301D01*
X167766974Y-58241576D01*
X167837546Y-58109547D01*
X167881003Y-57966286D01*
X167885089Y-57924796D01*
X168078632Y-57795475D01*
X168285475Y-57588632D01*
X168447990Y-57345411D01*
X168559932Y-57075158D01*
X168617000Y-56788260D01*
X168617000Y-56495740D01*
X168559932Y-56208842D01*
X168447990Y-55938589D01*
X168372826Y-55826098D01*
X178366000Y-55826098D01*
X178366000Y-56295902D01*
X178457654Y-56756679D01*
X178637440Y-57190721D01*
X178898450Y-57581349D01*
X179230651Y-57913550D01*
X179621279Y-58174560D01*
X180055321Y-58354346D01*
X180516098Y-58446000D01*
X180985902Y-58446000D01*
X181446679Y-58354346D01*
X181880721Y-58174560D01*
X182271349Y-57913550D01*
X182603550Y-57581349D01*
X182864560Y-57190721D01*
X183044346Y-56756679D01*
X183136000Y-56295902D01*
X183136000Y-55826098D01*
X183044346Y-55365321D01*
X182864560Y-54931279D01*
X182603550Y-54540651D01*
X182271349Y-54208450D01*
X181880721Y-53947440D01*
X181446679Y-53767654D01*
X180985902Y-53676000D01*
X180516098Y-53676000D01*
X180055321Y-53767654D01*
X179621279Y-53947440D01*
X179230651Y-54208450D01*
X178898450Y-54540651D01*
X178637440Y-54931279D01*
X178457654Y-55365321D01*
X178366000Y-55826098D01*
X168372826Y-55826098D01*
X168285475Y-55695368D01*
X168078632Y-55488525D01*
X167902594Y-55370900D01*
X168132269Y-55199588D01*
X168327178Y-54983355D01*
X168476157Y-54733252D01*
X168573481Y-54458891D01*
X168452814Y-54229000D01*
X167259000Y-54229000D01*
X167259000Y-54249000D01*
X167005000Y-54249000D01*
X167005000Y-54229000D01*
X164719000Y-54229000D01*
X164719000Y-54249000D01*
X164465000Y-54249000D01*
X164465000Y-54229000D01*
X164445000Y-54229000D01*
X164445000Y-53975000D01*
X164465000Y-53975000D01*
X164465000Y-53955000D01*
X164719000Y-53955000D01*
X164719000Y-53975000D01*
X167005000Y-53975000D01*
X167005000Y-53955000D01*
X167259000Y-53955000D01*
X167259000Y-53975000D01*
X168452814Y-53975000D01*
X168573481Y-53745109D01*
X168476157Y-53470748D01*
X168327178Y-53220645D01*
X168132269Y-53004412D01*
X168074067Y-52961000D01*
X183861000Y-52961000D01*
X183861000Y-64580379D01*
%TA.AperFunction,Conductor*%
D21*
G36*
X183861000Y-64580379D02*
G01*
X183779475Y-64458368D01*
X183572632Y-64251525D01*
X183329411Y-64089010D01*
X183059158Y-63977068D01*
X182772260Y-63920000D01*
X182479740Y-63920000D01*
X182192842Y-63977068D01*
X181922589Y-64089010D01*
X181679368Y-64251525D01*
X181472525Y-64458368D01*
X181356000Y-64632760D01*
X181239475Y-64458368D01*
X181032632Y-64251525D01*
X180789411Y-64089010D01*
X180519158Y-63977068D01*
X180232260Y-63920000D01*
X179939740Y-63920000D01*
X179652842Y-63977068D01*
X179382589Y-64089010D01*
X179139368Y-64251525D01*
X178932525Y-64458368D01*
X178770010Y-64701589D01*
X178658068Y-64971842D01*
X178601000Y-65258740D01*
X178601000Y-65551260D01*
X178658068Y-65838158D01*
X178770010Y-66108411D01*
X178932525Y-66351632D01*
X179139368Y-66558475D01*
X179313760Y-66675000D01*
X179139368Y-66791525D01*
X178932525Y-66998368D01*
X178770010Y-67241589D01*
X178658068Y-67511842D01*
X178601000Y-67798740D01*
X178601000Y-68091260D01*
X178658068Y-68378158D01*
X178770010Y-68648411D01*
X178932525Y-68891632D01*
X179139368Y-69098475D01*
X179313760Y-69215000D01*
X179139368Y-69331525D01*
X178932525Y-69538368D01*
X178770010Y-69781589D01*
X178658068Y-70051842D01*
X178601000Y-70338740D01*
X178601000Y-70631260D01*
X178658068Y-70918158D01*
X178770010Y-71188411D01*
X178932525Y-71431632D01*
X179139368Y-71638475D01*
X179313760Y-71755000D01*
X179139368Y-71871525D01*
X178932525Y-72078368D01*
X178770010Y-72321589D01*
X178658068Y-72591842D01*
X178601000Y-72878740D01*
X178601000Y-73171260D01*
X178658068Y-73458158D01*
X178770010Y-73728411D01*
X178908509Y-73935689D01*
X174190603Y-78653596D01*
X174161599Y-78677399D01*
X174124175Y-78723001D01*
X174066626Y-78793124D01*
X174028743Y-78863998D01*
X173996054Y-78925154D01*
X173952597Y-79068415D01*
X173941600Y-79180068D01*
X173941600Y-79180078D01*
X173937924Y-79217400D01*
X173941600Y-79254723D01*
X173941601Y-82279999D01*
X172990386Y-81328785D01*
X173146990Y-81094411D01*
X173258932Y-80824158D01*
X173316000Y-80537260D01*
X173316000Y-80244740D01*
X173258932Y-79957842D01*
X173146990Y-79687589D01*
X172984475Y-79444368D01*
X172777632Y-79237525D01*
X172603240Y-79121000D01*
X172777632Y-79004475D01*
X172984475Y-78797632D01*
X173146990Y-78554411D01*
X173258932Y-78284158D01*
X173316000Y-77997260D01*
X173316000Y-77704740D01*
X173258932Y-77417842D01*
X173146990Y-77147589D01*
X172984475Y-76904368D01*
X172777632Y-76697525D01*
X172603240Y-76581000D01*
X172777632Y-76464475D01*
X172984475Y-76257632D01*
X173146990Y-76014411D01*
X173258932Y-75744158D01*
X173316000Y-75457260D01*
X173316000Y-75164740D01*
X173258932Y-74877842D01*
X173146990Y-74607589D01*
X172984475Y-74364368D01*
X172777632Y-74157525D01*
X172603240Y-74041000D01*
X172777632Y-73924475D01*
X172984475Y-73717632D01*
X173146990Y-73474411D01*
X173258932Y-73204158D01*
X173316000Y-72917260D01*
X173316000Y-72624740D01*
X173258932Y-72337842D01*
X173146990Y-72067589D01*
X172984475Y-71824368D01*
X172777632Y-71617525D01*
X172534411Y-71455010D01*
X172264158Y-71343068D01*
X171977260Y-71286000D01*
X171684740Y-71286000D01*
X171397842Y-71343068D01*
X171127589Y-71455010D01*
X170884368Y-71617525D01*
X170697285Y-71804608D01*
X170629405Y-71677614D01*
X170518962Y-71543038D01*
X170384386Y-71432595D01*
X170230850Y-71350528D01*
X170064254Y-71299992D01*
X169891000Y-71282928D01*
X168691000Y-71282928D01*
X168517746Y-71299992D01*
X168351150Y-71350528D01*
X168197614Y-71432595D01*
X168063038Y-71543038D01*
X167952595Y-71677614D01*
X167870528Y-71831150D01*
X167819992Y-71997746D01*
X167802928Y-72171000D01*
X167802928Y-73184270D01*
X165749603Y-75237596D01*
X165720599Y-75261399D01*
X165683890Y-75306130D01*
X165625626Y-75377124D01*
X165564969Y-75490605D01*
X165555054Y-75509154D01*
X165511597Y-75652415D01*
X165500600Y-75764068D01*
X165500600Y-75764078D01*
X165496924Y-75801400D01*
X165500600Y-75838722D01*
X165500601Y-101845567D01*
X165496924Y-101882900D01*
X165500601Y-101920233D01*
X165507040Y-101985603D01*
X165511598Y-102031885D01*
X165555054Y-102175146D01*
X165625626Y-102307176D01*
X165662023Y-102351525D01*
X165720600Y-102422901D01*
X165749598Y-102446699D01*
X168142396Y-104839497D01*
X168137525Y-104844368D01*
X167975010Y-105087589D01*
X167863068Y-105357842D01*
X167806000Y-105644740D01*
X167806000Y-105937260D01*
X167863068Y-106224158D01*
X167975010Y-106494411D01*
X168137525Y-106737632D01*
X168344368Y-106944475D01*
X168518760Y-107061000D01*
X168344368Y-107177525D01*
X168137525Y-107384368D01*
X167975010Y-107627589D01*
X167863068Y-107897842D01*
X167806000Y-108184740D01*
X167806000Y-108477260D01*
X167863068Y-108764158D01*
X167975010Y-109034411D01*
X168137525Y-109277632D01*
X168344368Y-109484475D01*
X168518760Y-109601000D01*
X168344368Y-109717525D01*
X168137525Y-109924368D01*
X167975010Y-110167589D01*
X167863068Y-110437842D01*
X167806000Y-110724740D01*
X167806000Y-111017260D01*
X167863068Y-111304158D01*
X167975010Y-111574411D01*
X168137525Y-111817632D01*
X168344368Y-112024475D01*
X168518760Y-112141000D01*
X168344368Y-112257525D01*
X168137525Y-112464368D01*
X167975010Y-112707589D01*
X167863068Y-112977842D01*
X167806000Y-113264740D01*
X167806000Y-113557260D01*
X167863068Y-113844158D01*
X167975010Y-114114411D01*
X168137525Y-114357632D01*
X168344368Y-114564475D01*
X168587589Y-114726990D01*
X168857842Y-114838932D01*
X169144740Y-114896000D01*
X169437260Y-114896000D01*
X169724158Y-114838932D01*
X169994411Y-114726990D01*
X170237632Y-114564475D01*
X170444475Y-114357632D01*
X170561000Y-114183240D01*
X170677525Y-114357632D01*
X170884368Y-114564475D01*
X171127589Y-114726990D01*
X171397842Y-114838932D01*
X171684740Y-114896000D01*
X171977260Y-114896000D01*
X172264158Y-114838932D01*
X172534411Y-114726990D01*
X172777632Y-114564475D01*
X172984475Y-114357632D01*
X173146990Y-114114411D01*
X173258932Y-113844158D01*
X173316000Y-113557260D01*
X173316000Y-113264740D01*
X173258932Y-112977842D01*
X173146990Y-112707589D01*
X172984475Y-112464368D01*
X172777632Y-112257525D01*
X172603240Y-112141000D01*
X172777632Y-112024475D01*
X172984475Y-111817632D01*
X173146990Y-111574411D01*
X173258932Y-111304158D01*
X173316000Y-111017260D01*
X173316000Y-110724740D01*
X173258932Y-110437842D01*
X173146990Y-110167589D01*
X172984475Y-109924368D01*
X172777632Y-109717525D01*
X172603240Y-109601000D01*
X172777632Y-109484475D01*
X172984475Y-109277632D01*
X173141230Y-109043032D01*
X173732200Y-109634002D01*
X173732201Y-116348088D01*
X173688263Y-116392026D01*
X173574995Y-116561544D01*
X173496974Y-116749902D01*
X173457200Y-116949861D01*
X173457200Y-117153739D01*
X173496974Y-117353698D01*
X173574995Y-117542056D01*
X173688263Y-117711574D01*
X173832426Y-117855737D01*
X173940050Y-117927649D01*
X163326003Y-128541696D01*
X163296999Y-128565499D01*
X163241871Y-128632674D01*
X163202026Y-128681224D01*
X163131455Y-128813253D01*
X163131454Y-128813254D01*
X163087997Y-128956515D01*
X163077000Y-129068168D01*
X163077000Y-129068178D01*
X163073324Y-129105500D01*
X163077000Y-129142823D01*
X163077001Y-131206878D01*
X162951000Y-131122687D01*
X162951000Y-63073101D01*
X167643003Y-58381099D01*
X167672001Y-58357301D01*
X167766974Y-58241576D01*
X167837546Y-58109547D01*
X167881003Y-57966286D01*
X167885089Y-57924796D01*
X168078632Y-57795475D01*
X168285475Y-57588632D01*
X168447990Y-57345411D01*
X168559932Y-57075158D01*
X168617000Y-56788260D01*
X168617000Y-56495740D01*
X168559932Y-56208842D01*
X168447990Y-55938589D01*
X168372826Y-55826098D01*
X178366000Y-55826098D01*
X178366000Y-56295902D01*
X178457654Y-56756679D01*
X178637440Y-57190721D01*
X178898450Y-57581349D01*
X179230651Y-57913550D01*
X179621279Y-58174560D01*
X180055321Y-58354346D01*
X180516098Y-58446000D01*
X180985902Y-58446000D01*
X181446679Y-58354346D01*
X181880721Y-58174560D01*
X182271349Y-57913550D01*
X182603550Y-57581349D01*
X182864560Y-57190721D01*
X183044346Y-56756679D01*
X183136000Y-56295902D01*
X183136000Y-55826098D01*
X183044346Y-55365321D01*
X182864560Y-54931279D01*
X182603550Y-54540651D01*
X182271349Y-54208450D01*
X181880721Y-53947440D01*
X181446679Y-53767654D01*
X180985902Y-53676000D01*
X180516098Y-53676000D01*
X180055321Y-53767654D01*
X179621279Y-53947440D01*
X179230651Y-54208450D01*
X178898450Y-54540651D01*
X178637440Y-54931279D01*
X178457654Y-55365321D01*
X178366000Y-55826098D01*
X168372826Y-55826098D01*
X168285475Y-55695368D01*
X168078632Y-55488525D01*
X167902594Y-55370900D01*
X168132269Y-55199588D01*
X168327178Y-54983355D01*
X168476157Y-54733252D01*
X168573481Y-54458891D01*
X168452814Y-54229000D01*
X167259000Y-54229000D01*
X167259000Y-54249000D01*
X167005000Y-54249000D01*
X167005000Y-54229000D01*
X164719000Y-54229000D01*
X164719000Y-54249000D01*
X164465000Y-54249000D01*
X164465000Y-54229000D01*
X164445000Y-54229000D01*
X164445000Y-53975000D01*
X164465000Y-53975000D01*
X164465000Y-53955000D01*
X164719000Y-53955000D01*
X164719000Y-53975000D01*
X167005000Y-53975000D01*
X167005000Y-53955000D01*
X167259000Y-53955000D01*
X167259000Y-53975000D01*
X168452814Y-53975000D01*
X168573481Y-53745109D01*
X168476157Y-53470748D01*
X168327178Y-53220645D01*
X168132269Y-53004412D01*
X168074067Y-52961000D01*
X183861000Y-52961000D01*
X183861000Y-64580379D01*
G37*
%TD.AperFunction*%
D20*
X180213000Y-113538000D02*
X182499000Y-113538000D01*
X182499000Y-113518000D01*
X182753000Y-113518000D01*
X182753000Y-113538000D01*
X182773000Y-113538000D01*
X182773000Y-113792000D01*
X182753000Y-113792000D01*
X182753000Y-113812000D01*
X182499000Y-113812000D01*
X182499000Y-113792000D01*
X180213000Y-113792000D01*
X180213000Y-113812000D01*
X179959000Y-113812000D01*
X179959000Y-113792000D01*
X179939000Y-113792000D01*
X179939000Y-113538000D01*
X179959000Y-113538000D01*
X179959000Y-113518000D01*
X180213000Y-113518000D01*
X180213000Y-113538000D01*
%TA.AperFunction,Conductor*%
D21*
G36*
X180213000Y-113538000D02*
G01*
X182499000Y-113538000D01*
X182499000Y-113518000D01*
X182753000Y-113518000D01*
X182753000Y-113538000D01*
X182773000Y-113538000D01*
X182773000Y-113792000D01*
X182753000Y-113792000D01*
X182753000Y-113812000D01*
X182499000Y-113812000D01*
X182499000Y-113792000D01*
X180213000Y-113792000D01*
X180213000Y-113812000D01*
X179959000Y-113812000D01*
X179959000Y-113792000D01*
X179939000Y-113792000D01*
X179939000Y-113538000D01*
X179959000Y-113538000D01*
X179959000Y-113518000D01*
X180213000Y-113518000D01*
X180213000Y-113538000D01*
G37*
%TD.AperFunction*%
D20*
X129736000Y-106064665D02*
X129736000Y-106347335D01*
X129771823Y-106527427D01*
X129585759Y-106341363D01*
X129383173Y-106206000D01*
X129585759Y-106070637D01*
X129771823Y-105884573D01*
X129736000Y-106064665D01*
%TA.AperFunction,Conductor*%
D21*
G36*
X129736000Y-106064665D02*
G01*
X129736000Y-106347335D01*
X129771823Y-106527427D01*
X129585759Y-106341363D01*
X129383173Y-106206000D01*
X129585759Y-106070637D01*
X129771823Y-105884573D01*
X129736000Y-106064665D01*
G37*
%TD.AperFunction*%
D20*
X170884368Y-73924475D02*
X171058760Y-74041000D01*
X170884368Y-74157525D01*
X170677525Y-74364368D01*
X170561689Y-74537729D01*
X170319397Y-74462208D01*
X169470605Y-75311000D01*
X169484748Y-75325143D01*
X169305143Y-75504748D01*
X169291000Y-75490605D01*
X169276858Y-75504748D01*
X169097253Y-75325143D01*
X169111395Y-75311000D01*
X169097253Y-75296858D01*
X169276858Y-75117253D01*
X169291000Y-75131395D01*
X170139792Y-74282603D01*
X170121707Y-74224580D01*
X170230850Y-74191472D01*
X170384386Y-74109405D01*
X170518962Y-73998962D01*
X170629405Y-73864386D01*
X170697285Y-73737392D01*
X170884368Y-73924475D01*
%TA.AperFunction,Conductor*%
D21*
G36*
X170884368Y-73924475D02*
G01*
X171058760Y-74041000D01*
X170884368Y-74157525D01*
X170677525Y-74364368D01*
X170561689Y-74537729D01*
X170319397Y-74462208D01*
X169470605Y-75311000D01*
X169484748Y-75325143D01*
X169305143Y-75504748D01*
X169291000Y-75490605D01*
X169276858Y-75504748D01*
X169097253Y-75325143D01*
X169111395Y-75311000D01*
X169097253Y-75296858D01*
X169276858Y-75117253D01*
X169291000Y-75131395D01*
X170139792Y-74282603D01*
X170121707Y-74224580D01*
X170230850Y-74191472D01*
X170384386Y-74109405D01*
X170518962Y-73998962D01*
X170629405Y-73864386D01*
X170697285Y-73737392D01*
X170884368Y-73924475D01*
G37*
%TD.AperFunction*%
%TD*%
M02*
