G04 #@! TF.GenerationSoftware,KiCad,Pcbnew,5.1.9+dfsg1-1*
G04 #@! TF.CreationDate,2022-02-10T09:09:04+01:00*
G04 #@! TF.ProjectId,Atari130MX,41746172-6931-4333-904d-582e6b696361,Jan 2022*
G04 #@! TF.SameCoordinates,Original*
G04 #@! TF.FileFunction,Soldermask,Bot*
G04 #@! TF.FilePolarity,Negative*
%FSLAX46Y46*%
G04 Gerber Fmt 4.6, Leading zero omitted, Abs format (unit mm)*
G04 Created by KiCad (PCBNEW 5.1.9+dfsg1-1) date 2022-02-10 09:09:04*
%MOMM*%
%LPD*%
G01*
G04 APERTURE LIST*
%ADD10C,2.200000*%
%ADD11C,4.000000*%
%ADD12C,1.700000*%
%ADD13C,1.600000*%
%ADD14O,1.600000X1.600000*%
%ADD15R,1.700000X1.700000*%
%ADD16O,1.700000X1.700000*%
%ADD17C,1.800000*%
%ADD18R,1.800000X1.800000*%
%ADD19C,3.200000*%
%ADD20C,2.250000*%
%ADD21C,3.987800*%
%ADD22C,1.750000*%
%ADD23C,3.048000*%
%ADD24C,3.050000*%
%ADD25R,1.700000X3.500000*%
%ADD26R,3.500000X1.700000*%
%ADD27C,0.800000*%
G04 APERTURE END LIST*
D10*
X319950000Y-97150000D03*
D11*
X317410000Y-102230000D03*
D12*
X312330000Y-102230000D03*
X322490000Y-102230000D03*
D10*
X313600000Y-99690000D03*
D11*
X317400000Y-102230000D03*
D10*
X313590000Y-99690000D03*
X319940000Y-97150000D03*
X56300000Y-58990000D03*
D11*
X53760000Y-64070000D03*
D12*
X48680000Y-64070000D03*
X58840000Y-64070000D03*
D10*
X49950000Y-61530000D03*
D11*
X53760000Y-64060000D03*
D10*
X49950000Y-61520000D03*
X56300000Y-58980000D03*
X170300000Y-58990000D03*
D11*
X167760000Y-64070000D03*
D12*
X162680000Y-64070000D03*
X172840000Y-64070000D03*
D10*
X163950000Y-61530000D03*
D11*
X167760000Y-64060000D03*
D10*
X163950000Y-61520000D03*
X170300000Y-58980000D03*
X99000000Y-116260000D03*
D11*
X96460000Y-121340000D03*
D12*
X91380000Y-121340000D03*
X101540000Y-121340000D03*
D10*
X92650000Y-118800000D03*
D11*
X96460000Y-121330000D03*
D10*
X92650000Y-118790000D03*
X99000000Y-116250000D03*
X179760000Y-78090000D03*
D11*
X177220000Y-83170000D03*
D12*
X172140000Y-83170000D03*
X182300000Y-83170000D03*
D10*
X173410000Y-80630000D03*
D11*
X177220000Y-83160000D03*
D10*
X173410000Y-80620000D03*
X179760000Y-78080000D03*
X118000000Y-116260000D03*
D11*
X115460000Y-121340000D03*
D12*
X110380000Y-121340000D03*
X120540000Y-121340000D03*
D10*
X111650000Y-118800000D03*
D11*
X115460000Y-121330000D03*
D10*
X111650000Y-118790000D03*
X118000000Y-116250000D03*
X103760000Y-78090000D03*
D11*
X101220000Y-83170000D03*
D12*
X96140000Y-83170000D03*
X106300000Y-83170000D03*
D10*
X97410000Y-80630000D03*
D11*
X101220000Y-83160000D03*
D10*
X97410000Y-80620000D03*
X103760000Y-78080000D03*
X156000000Y-116260000D03*
D11*
X153460000Y-121340000D03*
D12*
X148380000Y-121340000D03*
X158540000Y-121340000D03*
D10*
X149650000Y-118800000D03*
D11*
X153460000Y-121330000D03*
D10*
X149650000Y-118790000D03*
X156000000Y-116250000D03*
X198760000Y-78090000D03*
D11*
X196220000Y-83170000D03*
D12*
X191140000Y-83170000D03*
X201300000Y-83170000D03*
D10*
X192410000Y-80630000D03*
D11*
X196220000Y-83160000D03*
D10*
X192410000Y-80620000D03*
X198760000Y-78080000D03*
X160760000Y-78090000D03*
D11*
X158220000Y-83170000D03*
D12*
X153140000Y-83170000D03*
X163300000Y-83170000D03*
D10*
X154410000Y-80630000D03*
D11*
X158220000Y-83160000D03*
D10*
X154410000Y-80620000D03*
X160760000Y-78080000D03*
X298540000Y-97160000D03*
D11*
X296000000Y-102240000D03*
D12*
X290920000Y-102240000D03*
X301080000Y-102240000D03*
D10*
X292190000Y-99700000D03*
D11*
X296000000Y-102230000D03*
D10*
X292190000Y-99690000D03*
X298540000Y-97150000D03*
X270000000Y-116260000D03*
D11*
X267460000Y-121340000D03*
D12*
X262380000Y-121340000D03*
X272540000Y-121340000D03*
D10*
X263650000Y-118800000D03*
D11*
X267460000Y-121330000D03*
D10*
X263650000Y-118790000D03*
X270000000Y-116250000D03*
X260540000Y-97160000D03*
D11*
X258000000Y-102240000D03*
D12*
X252920000Y-102240000D03*
X263080000Y-102240000D03*
D10*
X254190000Y-99700000D03*
D11*
X258000000Y-102230000D03*
D10*
X254190000Y-99690000D03*
X260540000Y-97150000D03*
X108540000Y-97160000D03*
D11*
X106000000Y-102240000D03*
D12*
X100920000Y-102240000D03*
X111080000Y-102240000D03*
D10*
X102190000Y-99700000D03*
D11*
X106000000Y-102230000D03*
D10*
X102190000Y-99690000D03*
X108540000Y-97150000D03*
X141760000Y-78090000D03*
D11*
X139220000Y-83170000D03*
D12*
X134140000Y-83170000D03*
X144300000Y-83170000D03*
D10*
X135410000Y-80630000D03*
D11*
X139220000Y-83160000D03*
D10*
X135410000Y-80620000D03*
X141760000Y-78080000D03*
X84760000Y-78090000D03*
D11*
X82220000Y-83170000D03*
D12*
X77140000Y-83170000D03*
X87300000Y-83170000D03*
D10*
X78410000Y-80630000D03*
D11*
X82220000Y-83160000D03*
D10*
X78410000Y-80620000D03*
X84760000Y-78080000D03*
X279540000Y-97160000D03*
D11*
X277000000Y-102240000D03*
D12*
X271920000Y-102240000D03*
X282080000Y-102240000D03*
D10*
X273190000Y-99700000D03*
D11*
X277000000Y-102230000D03*
D10*
X273190000Y-99690000D03*
X279540000Y-97150000D03*
X251000000Y-116260000D03*
D11*
X248460000Y-121340000D03*
D12*
X243380000Y-121340000D03*
X253540000Y-121340000D03*
D10*
X244650000Y-118800000D03*
D11*
X248460000Y-121330000D03*
D10*
X244650000Y-118790000D03*
X251000000Y-116250000D03*
X255760000Y-78090000D03*
D11*
X253220000Y-83170000D03*
D12*
X248140000Y-83170000D03*
X258300000Y-83170000D03*
D10*
X249410000Y-80630000D03*
D11*
X253220000Y-83160000D03*
D10*
X249410000Y-80620000D03*
X255760000Y-78080000D03*
X236760000Y-78090000D03*
D11*
X234220000Y-83170000D03*
D12*
X229140000Y-83170000D03*
X239300000Y-83170000D03*
D10*
X230410000Y-80630000D03*
D11*
X234220000Y-83160000D03*
D10*
X230410000Y-80620000D03*
X236760000Y-78080000D03*
X194000000Y-116260000D03*
D11*
X191460000Y-121340000D03*
D12*
X186380000Y-121340000D03*
X196540000Y-121340000D03*
D10*
X187650000Y-118800000D03*
D11*
X191460000Y-121330000D03*
D10*
X187650000Y-118790000D03*
X194000000Y-116250000D03*
X213000000Y-116260000D03*
D11*
X210460000Y-121340000D03*
D12*
X205380000Y-121340000D03*
X215540000Y-121340000D03*
D10*
X206650000Y-118800000D03*
D11*
X210460000Y-121330000D03*
D10*
X206650000Y-118790000D03*
X213000000Y-116250000D03*
X265300000Y-58990000D03*
D11*
X262760000Y-64070000D03*
D12*
X257680000Y-64070000D03*
X267840000Y-64070000D03*
D10*
X258950000Y-61530000D03*
D11*
X262760000Y-64060000D03*
D10*
X258950000Y-61520000D03*
X265300000Y-58980000D03*
X241540000Y-97160000D03*
D11*
X239000000Y-102240000D03*
D12*
X233920000Y-102240000D03*
X244080000Y-102240000D03*
D10*
X235190000Y-99700000D03*
D11*
X239000000Y-102230000D03*
D10*
X235190000Y-99690000D03*
X241540000Y-97150000D03*
X222540000Y-97160000D03*
D11*
X220000000Y-102240000D03*
D12*
X214920000Y-102240000D03*
X225080000Y-102240000D03*
D10*
X216190000Y-99700000D03*
D11*
X220000000Y-102230000D03*
D10*
X216190000Y-99690000D03*
X222540000Y-97150000D03*
X203540000Y-97160000D03*
D11*
X201000000Y-102240000D03*
D12*
X195920000Y-102240000D03*
X206080000Y-102240000D03*
D10*
X197190000Y-99700000D03*
D11*
X201000000Y-102230000D03*
D10*
X197190000Y-99690000D03*
X203540000Y-97150000D03*
X322300000Y-116260000D03*
D11*
X319760000Y-121340000D03*
D12*
X314680000Y-121340000D03*
X324840000Y-121340000D03*
D10*
X315950000Y-118800000D03*
D11*
X319760000Y-121330000D03*
D10*
X315950000Y-118790000D03*
X322300000Y-116250000D03*
X217760000Y-78090000D03*
D11*
X215220000Y-83170000D03*
D12*
X210140000Y-83170000D03*
X220300000Y-83170000D03*
D10*
X211410000Y-80630000D03*
D11*
X215220000Y-83160000D03*
D10*
X211410000Y-80620000D03*
X217760000Y-78080000D03*
X184540000Y-97160000D03*
D11*
X182000000Y-102240000D03*
D12*
X176920000Y-102240000D03*
X187080000Y-102240000D03*
D10*
X178190000Y-99700000D03*
D11*
X182000000Y-102230000D03*
D10*
X178190000Y-99690000D03*
X184540000Y-97150000D03*
X284300000Y-58990000D03*
D11*
X281760000Y-64070000D03*
D12*
X276680000Y-64070000D03*
X286840000Y-64070000D03*
D10*
X277950000Y-61530000D03*
D11*
X281760000Y-64060000D03*
D10*
X277950000Y-61520000D03*
X284300000Y-58980000D03*
X165540000Y-97160000D03*
D11*
X163000000Y-102240000D03*
D12*
X157920000Y-102240000D03*
X168080000Y-102240000D03*
D10*
X159190000Y-99700000D03*
D11*
X163000000Y-102230000D03*
D10*
X159190000Y-99690000D03*
X165540000Y-97150000D03*
X293760000Y-78090000D03*
D11*
X291220000Y-83170000D03*
D12*
X286140000Y-83170000D03*
X296300000Y-83170000D03*
D10*
X287410000Y-80630000D03*
D11*
X291220000Y-83160000D03*
D10*
X287410000Y-80620000D03*
X293760000Y-78080000D03*
X122760000Y-78090000D03*
D11*
X120220000Y-83170000D03*
D12*
X115140000Y-83170000D03*
X125300000Y-83170000D03*
D10*
X116410000Y-80630000D03*
D11*
X120220000Y-83160000D03*
D10*
X116410000Y-80620000D03*
X122760000Y-78080000D03*
X303300000Y-58990000D03*
D11*
X300760000Y-64070000D03*
D12*
X295680000Y-64070000D03*
X305840000Y-64070000D03*
D10*
X296950000Y-61530000D03*
D11*
X300760000Y-64060000D03*
D10*
X296950000Y-61520000D03*
X303300000Y-58980000D03*
X274760000Y-78090000D03*
D11*
X272220000Y-83170000D03*
D12*
X267140000Y-83170000D03*
X277300000Y-83170000D03*
D10*
X268410000Y-80630000D03*
D11*
X272220000Y-83160000D03*
D10*
X268410000Y-80620000D03*
X274760000Y-78080000D03*
X127540000Y-97160000D03*
D11*
X125000000Y-102240000D03*
D12*
X119920000Y-102240000D03*
X130080000Y-102240000D03*
D10*
X121190000Y-99700000D03*
D11*
X125000000Y-102230000D03*
D10*
X121190000Y-99690000D03*
X127540000Y-97150000D03*
X232000000Y-116260000D03*
D11*
X229460000Y-121340000D03*
D12*
X224380000Y-121340000D03*
X234540000Y-121340000D03*
D10*
X225650000Y-118800000D03*
D11*
X229460000Y-121330000D03*
D10*
X225650000Y-118790000D03*
X232000000Y-116250000D03*
X137000000Y-116260000D03*
D11*
X134460000Y-121340000D03*
D12*
X129380000Y-121340000D03*
X139540000Y-121340000D03*
D10*
X130650000Y-118800000D03*
D11*
X134460000Y-121330000D03*
D10*
X130650000Y-118790000D03*
X137000000Y-116250000D03*
X322300000Y-58990000D03*
D11*
X319760000Y-64070000D03*
D12*
X314680000Y-64070000D03*
X324840000Y-64070000D03*
D10*
X315950000Y-61530000D03*
D11*
X319760000Y-64060000D03*
D10*
X315950000Y-61520000D03*
X322300000Y-58980000D03*
X175000000Y-116260000D03*
D11*
X172460000Y-121340000D03*
D12*
X167380000Y-121340000D03*
X177540000Y-121340000D03*
D10*
X168650000Y-118800000D03*
D11*
X172460000Y-121330000D03*
D10*
X168650000Y-118790000D03*
X175000000Y-116250000D03*
X89540000Y-97160000D03*
D11*
X87000000Y-102240000D03*
D12*
X81920000Y-102240000D03*
X92080000Y-102240000D03*
D10*
X83190000Y-99700000D03*
D11*
X87000000Y-102230000D03*
D10*
X83190000Y-99690000D03*
X89540000Y-97150000D03*
X227300000Y-58990000D03*
D11*
X224760000Y-64070000D03*
D12*
X219680000Y-64070000D03*
X229840000Y-64070000D03*
D10*
X220950000Y-61530000D03*
D11*
X224760000Y-64060000D03*
D10*
X220950000Y-61520000D03*
X227300000Y-58980000D03*
X208300000Y-58990000D03*
D11*
X205760000Y-64070000D03*
D12*
X200680000Y-64070000D03*
X210840000Y-64070000D03*
D10*
X201950000Y-61530000D03*
D11*
X205760000Y-64060000D03*
D10*
X201950000Y-61520000D03*
X208300000Y-58980000D03*
X189300000Y-58990000D03*
D11*
X186760000Y-64070000D03*
D12*
X181680000Y-64070000D03*
X191840000Y-64070000D03*
D10*
X182950000Y-61530000D03*
D11*
X186760000Y-64060000D03*
D10*
X182950000Y-61520000D03*
X189300000Y-58980000D03*
X151300000Y-58990000D03*
D11*
X148760000Y-64070000D03*
D12*
X143680000Y-64070000D03*
X153840000Y-64070000D03*
D10*
X144950000Y-61530000D03*
D11*
X148760000Y-64060000D03*
D10*
X144950000Y-61520000D03*
X151300000Y-58980000D03*
X132300000Y-58990000D03*
D11*
X129760000Y-64070000D03*
D12*
X124680000Y-64070000D03*
X134840000Y-64070000D03*
D10*
X125950000Y-61530000D03*
D11*
X129760000Y-64060000D03*
D10*
X125950000Y-61520000D03*
X132300000Y-58980000D03*
X113300000Y-58990000D03*
D11*
X110760000Y-64070000D03*
D12*
X105680000Y-64070000D03*
X115840000Y-64070000D03*
D10*
X106950000Y-61530000D03*
D11*
X110760000Y-64060000D03*
D10*
X106950000Y-61520000D03*
X113300000Y-58980000D03*
X94300000Y-58990000D03*
D11*
X91760000Y-64070000D03*
D12*
X86680000Y-64070000D03*
X96840000Y-64070000D03*
D10*
X87950000Y-61530000D03*
D11*
X91760000Y-64060000D03*
D10*
X87950000Y-61520000D03*
X94300000Y-58980000D03*
X75300000Y-58990000D03*
D11*
X72760000Y-64070000D03*
D12*
X67680000Y-64070000D03*
X77840000Y-64070000D03*
D10*
X68950000Y-61530000D03*
D11*
X72760000Y-64060000D03*
D10*
X68950000Y-61520000D03*
X75300000Y-58980000D03*
X246300000Y-58990000D03*
D11*
X243760000Y-64070000D03*
D12*
X238680000Y-64070000D03*
X248840000Y-64070000D03*
D10*
X239950000Y-61530000D03*
D11*
X243760000Y-64060000D03*
D10*
X239950000Y-61520000D03*
X246300000Y-58980000D03*
X146540000Y-97160000D03*
D11*
X144000000Y-102240000D03*
D12*
X138920000Y-102240000D03*
X149080000Y-102240000D03*
D10*
X140190000Y-99700000D03*
D11*
X144000000Y-102230000D03*
D10*
X140190000Y-99690000D03*
X146540000Y-97150000D03*
D13*
X319910000Y-52860000D03*
X318660000Y-50360000D03*
X317410000Y-52860000D03*
X316160000Y-50360000D03*
X314910000Y-52860000D03*
X313660000Y-50360000D03*
X312410000Y-52860000D03*
X311160000Y-50360000D03*
X309910000Y-52860000D03*
X308660000Y-50360000D03*
X307410000Y-52860000D03*
X306160000Y-50360000D03*
X304910000Y-52860000D03*
X303660000Y-50360000D03*
X302410000Y-52860000D03*
X301160000Y-50360000D03*
X299910000Y-52860000D03*
X298660000Y-50360000D03*
X297410000Y-52860000D03*
X296160000Y-50360000D03*
X294910000Y-52860000D03*
X293660000Y-50360000D03*
X292410000Y-52860000D03*
X291160000Y-50360000D03*
X289910000Y-52860000D03*
X288660000Y-50360000D03*
X287410000Y-52860000D03*
X286160000Y-50360000D03*
X284910000Y-52860000D03*
X283660000Y-50360000D03*
X282410000Y-52860000D03*
X281160000Y-50360000D03*
D10*
X68150000Y-116250000D03*
D11*
X65610000Y-121330000D03*
D12*
X60530000Y-121330000D03*
X70690000Y-121330000D03*
D10*
X61800000Y-118790000D03*
D11*
X65610000Y-121330000D03*
D10*
X61800000Y-118790000D03*
X68150000Y-116250000D03*
X185135000Y-27520000D03*
D11*
X182595000Y-32600000D03*
D12*
X177515000Y-32600000D03*
X187675000Y-32600000D03*
D10*
X178785000Y-30060000D03*
X185125000Y-27530000D03*
D11*
X182585000Y-32610000D03*
D10*
X178775000Y-30070000D03*
X156560000Y-27520000D03*
D11*
X154020000Y-32600000D03*
D12*
X148940000Y-32600000D03*
X159100000Y-32600000D03*
D10*
X150210000Y-30060000D03*
X156550000Y-27530000D03*
D11*
X154010000Y-32610000D03*
D10*
X150200000Y-30070000D03*
X127985000Y-27520000D03*
D11*
X125445000Y-32600000D03*
D12*
X120365000Y-32600000D03*
X130525000Y-32600000D03*
D10*
X121635000Y-30060000D03*
X127975000Y-27530000D03*
D11*
X125435000Y-32610000D03*
D10*
X121625000Y-30070000D03*
X99410000Y-27520000D03*
D11*
X96870000Y-32600000D03*
D12*
X91790000Y-32600000D03*
X101950000Y-32600000D03*
D10*
X93060000Y-30060000D03*
X99400000Y-27530000D03*
D11*
X96860000Y-32610000D03*
D10*
X93050000Y-30070000D03*
D14*
X37220000Y-60425000D03*
D13*
X37220000Y-68045000D03*
D15*
X38440000Y-25500000D03*
D16*
X40980000Y-25500000D03*
X43520000Y-25500000D03*
X46060000Y-25500000D03*
X48600000Y-25500000D03*
X51140000Y-25500000D03*
X53680000Y-25500000D03*
X56220000Y-25500000D03*
X58760000Y-25500000D03*
X61300000Y-25500000D03*
X63840000Y-25500000D03*
X66380000Y-25500000D03*
X68920000Y-25500000D03*
X71460000Y-25500000D03*
D10*
X296125000Y-116240000D03*
D11*
X293585000Y-121320000D03*
D12*
X288505000Y-121320000D03*
X298665000Y-121320000D03*
D10*
X289775000Y-118780000D03*
D11*
X293585000Y-121330000D03*
D10*
X289775000Y-118790000D03*
X296125000Y-116250000D03*
X63340000Y-97140000D03*
D11*
X60800000Y-102220000D03*
D12*
X55720000Y-102220000D03*
X65880000Y-102220000D03*
D10*
X56990000Y-99680000D03*
D11*
X60800000Y-102230000D03*
D10*
X56990000Y-99690000D03*
X63340000Y-97150000D03*
X242210000Y-27520000D03*
D11*
X239670000Y-32600000D03*
D12*
X234590000Y-32600000D03*
X244750000Y-32600000D03*
D10*
X235860000Y-30060000D03*
X242200000Y-27530000D03*
D11*
X239660000Y-32610000D03*
D10*
X235850000Y-30070000D03*
X270710000Y-27520000D03*
D11*
X268170000Y-32600000D03*
D12*
X263090000Y-32600000D03*
X273250000Y-32600000D03*
D10*
X264360000Y-30060000D03*
X270700000Y-27530000D03*
D11*
X268160000Y-32610000D03*
D10*
X264350000Y-30070000D03*
X327710000Y-27520000D03*
D11*
X325170000Y-32600000D03*
D12*
X320090000Y-32600000D03*
X330250000Y-32600000D03*
D10*
X321360000Y-30060000D03*
X327700000Y-27530000D03*
D11*
X325160000Y-32610000D03*
D10*
X321350000Y-30070000D03*
X299210000Y-27520000D03*
D11*
X296670000Y-32600000D03*
D12*
X291590000Y-32600000D03*
X301750000Y-32600000D03*
D10*
X292860000Y-30060000D03*
X299200000Y-27530000D03*
D11*
X296660000Y-32610000D03*
D10*
X292850000Y-30070000D03*
X213710000Y-27520000D03*
D11*
X211170000Y-32600000D03*
D12*
X206090000Y-32600000D03*
X216250000Y-32600000D03*
D10*
X207360000Y-30060000D03*
X213700000Y-27530000D03*
D11*
X211160000Y-32610000D03*
D10*
X207350000Y-30070000D03*
D17*
X27700000Y-144610000D03*
D18*
X25160000Y-144610000D03*
D10*
X61050000Y-78060000D03*
D11*
X58510000Y-83140000D03*
D12*
X53430000Y-83140000D03*
X63590000Y-83140000D03*
D10*
X54700000Y-80600000D03*
D11*
X58520000Y-83160000D03*
D10*
X54710000Y-80620000D03*
X61060000Y-78080000D03*
X317550000Y-78060000D03*
D11*
X315010000Y-83140000D03*
D12*
X309930000Y-83140000D03*
X320090000Y-83140000D03*
D10*
X311200000Y-80600000D03*
D11*
X315020000Y-83160000D03*
D10*
X311210000Y-80620000D03*
X317560000Y-78080000D03*
D19*
X185810000Y-44550000D03*
X336940000Y-40740000D03*
X336940000Y-139800000D03*
X37220000Y-139800000D03*
X27010000Y-138020000D03*
X27010000Y-27530000D03*
X348320000Y-27530000D03*
X348320000Y-148180000D03*
D20*
X192030000Y-135300000D03*
D21*
X189490000Y-140380000D03*
D20*
X185680000Y-137840000D03*
D22*
X184410000Y-140380000D03*
X194570000Y-140380000D03*
D23*
X132340000Y-133395000D03*
X246640000Y-133395000D03*
D21*
X132340000Y-148635000D03*
X246640000Y-148635000D03*
D10*
X115700000Y-135270000D03*
D11*
X113160000Y-140350000D03*
D12*
X108080000Y-140350000D03*
X118240000Y-140350000D03*
D10*
X109350000Y-137810000D03*
D11*
X113160000Y-140340000D03*
D10*
X109350000Y-137800000D03*
X115700000Y-135260000D03*
X268300000Y-135300000D03*
D11*
X265760000Y-140380000D03*
D12*
X260680000Y-140380000D03*
X270840000Y-140380000D03*
D10*
X261950000Y-137840000D03*
D11*
X265760000Y-140370000D03*
D10*
X261950000Y-137830000D03*
X268300000Y-135290000D03*
D11*
X252030000Y-148600000D03*
D24*
X252030000Y-133360000D03*
X127030000Y-133360000D03*
D11*
X127030000Y-148600000D03*
D12*
X194570000Y-140360000D03*
X184410000Y-140360000D03*
D11*
X189490000Y-140360000D03*
D16*
X78290000Y-51000000D03*
X75750000Y-51000000D03*
D15*
X73210000Y-51000000D03*
D16*
X70670000Y-51000000D03*
X68130000Y-51000000D03*
X65590000Y-51000000D03*
X63050000Y-51000000D03*
D15*
X60510000Y-51000000D03*
D16*
X57970000Y-51000000D03*
X55430000Y-51000000D03*
X52890000Y-51000000D03*
X50350000Y-51000000D03*
D15*
X47810000Y-51000000D03*
D16*
X45270000Y-51000000D03*
X42730000Y-51000000D03*
X40190000Y-51000000D03*
X37650000Y-51000000D03*
D15*
X35110000Y-51000000D03*
D16*
X32570000Y-51000000D03*
X30030000Y-51000000D03*
X30030000Y-33220000D03*
X32570000Y-33220000D03*
D15*
X35110000Y-33220000D03*
D16*
X37650000Y-33220000D03*
X40190000Y-33220000D03*
X42730000Y-33220000D03*
X45270000Y-33220000D03*
D15*
X47810000Y-33220000D03*
D16*
X50350000Y-33220000D03*
X52890000Y-33220000D03*
X55430000Y-33220000D03*
X57970000Y-33220000D03*
D15*
X60510000Y-33220000D03*
D16*
X63050000Y-33220000D03*
X65590000Y-33220000D03*
X68130000Y-33220000D03*
X70670000Y-33220000D03*
D15*
X73210000Y-33220000D03*
D16*
X75750000Y-33220000D03*
X78290000Y-33220000D03*
D25*
X78290000Y-51900000D03*
X75750000Y-51900000D03*
X73210000Y-51900000D03*
X70670000Y-51900000D03*
X68130000Y-51900000D03*
X65590000Y-51900000D03*
X63050000Y-51900000D03*
X60510000Y-51900000D03*
X57970000Y-51900000D03*
X55430000Y-51900000D03*
X52890000Y-51900000D03*
X50350000Y-51900000D03*
X47810000Y-51900000D03*
X45270000Y-51900000D03*
X42730000Y-51900000D03*
X40190000Y-51900000D03*
X37650000Y-51900000D03*
X35110000Y-51900000D03*
X32570000Y-51900000D03*
X30030000Y-51900000D03*
X78290000Y-32320000D03*
X75750000Y-32320000D03*
X73210000Y-32320000D03*
X70670000Y-32320000D03*
X68130000Y-32320000D03*
X65590000Y-32320000D03*
X63050000Y-32320000D03*
X60510000Y-32320000D03*
X57970000Y-32320000D03*
X55430000Y-32320000D03*
X52890000Y-32320000D03*
X50350000Y-32320000D03*
X47810000Y-32320000D03*
X45270000Y-32320000D03*
X42730000Y-32320000D03*
X40190000Y-32320000D03*
X37650000Y-32320000D03*
X35110000Y-32320000D03*
X32570000Y-32320000D03*
X30030000Y-32320000D03*
D26*
X29360000Y-44650000D03*
D16*
X30260000Y-44650000D03*
D26*
X29360000Y-42110000D03*
D15*
X30260000Y-42110000D03*
D26*
X29360000Y-39570000D03*
D16*
X30260000Y-39570000D03*
D27*
X213913000Y-34940900D03*
X152949500Y-48782100D03*
X62329500Y-79800000D03*
X46828100Y-39057900D03*
X283720500Y-74759900D03*
X54289600Y-39962800D03*
X50803600Y-58097900D03*
X91384000Y-57215900D03*
X305203300Y-59700400D03*
X27069400Y-90165600D03*
X40291700Y-75736100D03*
X282193000Y-54578200D03*
X228753800Y-55404300D03*
X170121100Y-82193800D03*
X69511800Y-49552900D03*
X286650200Y-114979100D03*
X66181400Y-81221300D03*
X65102400Y-37497900D03*
X44000000Y-28563800D03*
X49655500Y-40994100D03*
X180948000Y-61483100D03*
X33488900Y-83698800D03*
M02*
