M48
; DRILL file {KiCad 5.1.9+dfsg1-1} date Fri Jan 21 12:18:06 2022
; FORMAT={-:-/ absolute / metric / decimal}
; #@! TF.CreationDate,2022-01-21T12:18:06+01:00
; #@! TF.GenerationSoftware,Kicad,Pcbnew,5.1.9+dfsg1-1
; #@! TF.FileFunction,Plated,1,2,PTH
FMAT,2
METRIC
T1C0.400
T2C0.800
T3C0.850
T4C0.900
T5C1.000
T6C1.020
T7C1.470
T8C1.500
%
G90
G05
T1
X27.069Y-90.166
X33.489Y-83.699
X40.292Y-75.736
X44.0Y-28.564
X46.828Y-39.058
X49.655Y-40.994
X50.804Y-58.098
X54.29Y-39.963
X62.329Y-79.8
X65.102Y-37.498
X66.181Y-81.221
X69.512Y-49.553
X91.384Y-57.216
X152.95Y-48.782
X170.121Y-82.194
X180.948Y-61.483
X213.913Y-34.941
X228.754Y-55.404
X282.193Y-54.578
X283.721Y-74.76
X286.65Y-114.979
X305.203Y-59.7
T2
X37.22Y-60.425
X37.22Y-68.045
T3
X281.16Y-50.36
X282.41Y-52.86
X283.66Y-50.36
X284.91Y-52.86
X286.16Y-50.36
X287.41Y-52.86
X288.66Y-50.36
X289.91Y-52.86
X291.16Y-50.36
X292.41Y-52.86
X293.66Y-50.36
X294.91Y-52.86
X296.16Y-50.36
X297.41Y-52.86
X298.66Y-50.36
X299.91Y-52.86
X301.16Y-50.36
X302.41Y-52.86
X303.66Y-50.36
X304.91Y-52.86
X306.16Y-50.36
X307.41Y-52.86
X308.66Y-50.36
X309.91Y-52.86
X311.16Y-50.36
X312.41Y-52.86
X313.66Y-50.36
X314.91Y-52.86
X316.16Y-50.36
X317.41Y-52.86
X318.66Y-50.36
X319.91Y-52.86
T4
X25.16Y-144.61
X27.7Y-144.61
T5
X38.44Y-25.5
X40.98Y-25.5
X43.52Y-25.5
X46.06Y-25.5
X48.6Y-25.5
X51.14Y-25.5
X53.68Y-25.5
X56.22Y-25.5
X58.76Y-25.5
X61.3Y-25.5
X63.84Y-25.5
X66.38Y-25.5
X68.92Y-25.5
X71.46Y-25.5
T6
X30.03Y-33.22
X30.03Y-51.0
X30.26Y-39.57
X30.26Y-42.11
X30.26Y-44.65
X32.57Y-33.22
X32.57Y-51.0
X35.11Y-33.22
X35.11Y-51.0
X37.65Y-33.22
X37.65Y-51.0
X40.19Y-33.22
X40.19Y-51.0
X42.73Y-33.22
X42.73Y-51.0
X45.27Y-33.22
X45.27Y-51.0
X47.81Y-33.22
X47.81Y-51.0
X50.35Y-33.22
X50.35Y-51.0
X52.89Y-33.22
X52.89Y-51.0
X55.43Y-33.22
X55.43Y-51.0
X57.97Y-33.22
X57.97Y-51.0
X60.51Y-33.22
X60.51Y-51.0
X63.05Y-33.22
X63.05Y-51.0
X65.59Y-33.22
X65.59Y-51.0
X68.13Y-33.22
X68.13Y-51.0
X70.67Y-33.22
X70.67Y-51.0
X73.21Y-33.22
X73.21Y-51.0
X75.75Y-33.22
X75.75Y-51.0
X78.29Y-33.22
X78.29Y-51.0
T7
X185.68Y-137.84
X192.03Y-135.3
T8
X49.95Y-61.52
X49.95Y-61.53
X54.7Y-80.6
X54.71Y-80.62
X56.3Y-58.98
X56.3Y-58.99
X56.99Y-99.68
X56.99Y-99.69
X61.05Y-78.06
X61.06Y-78.08
X61.8Y-118.79
X61.8Y-118.79
X63.34Y-97.14
X63.34Y-97.15
X68.15Y-116.25
X68.15Y-116.25
X68.95Y-61.52
X68.95Y-61.53
X75.3Y-58.98
X75.3Y-58.99
X78.41Y-80.62
X78.41Y-80.63
X83.19Y-99.69
X83.19Y-99.7
X84.76Y-78.08
X84.76Y-78.09
X87.95Y-61.52
X87.95Y-61.53
X89.54Y-97.15
X89.54Y-97.16
X92.65Y-118.79
X92.65Y-118.8
X93.05Y-30.07
X93.06Y-30.06
X94.3Y-58.98
X94.3Y-58.99
X97.41Y-80.62
X97.41Y-80.63
X99.0Y-116.25
X99.0Y-116.26
X99.4Y-27.53
X99.41Y-27.52
X102.19Y-99.69
X102.19Y-99.7
X103.76Y-78.08
X103.76Y-78.09
X106.95Y-61.52
X106.95Y-61.53
X108.54Y-97.15
X108.54Y-97.16
X109.35Y-137.8
X109.35Y-137.81
X111.65Y-118.79
X111.65Y-118.8
X113.3Y-58.98
X113.3Y-58.99
X115.7Y-135.26
X115.7Y-135.27
X116.41Y-80.62
X116.41Y-80.63
X118.0Y-116.25
X118.0Y-116.26
X121.19Y-99.69
X121.19Y-99.7
X121.625Y-30.07
X121.635Y-30.06
X122.76Y-78.08
X122.76Y-78.09
X125.95Y-61.52
X125.95Y-61.53
X127.54Y-97.15
X127.54Y-97.16
X127.975Y-27.53
X127.985Y-27.52
X130.65Y-118.79
X130.65Y-118.8
X132.3Y-58.98
X132.3Y-58.99
X135.41Y-80.62
X135.41Y-80.63
X137.0Y-116.25
X137.0Y-116.26
X140.19Y-99.69
X140.19Y-99.7
X141.76Y-78.08
X141.76Y-78.09
X144.95Y-61.52
X144.95Y-61.53
X146.54Y-97.15
X146.54Y-97.16
X149.65Y-118.79
X149.65Y-118.8
X150.2Y-30.07
X150.21Y-30.06
X151.3Y-58.98
X151.3Y-58.99
X154.41Y-80.62
X154.41Y-80.63
X156.0Y-116.25
X156.0Y-116.26
X156.55Y-27.53
X156.56Y-27.52
X159.19Y-99.69
X159.19Y-99.7
X160.76Y-78.08
X160.76Y-78.09
X163.95Y-61.52
X163.95Y-61.53
X165.54Y-97.15
X165.54Y-97.16
X168.65Y-118.79
X168.65Y-118.8
X170.3Y-58.98
X170.3Y-58.99
X173.41Y-80.62
X173.41Y-80.63
X175.0Y-116.25
X175.0Y-116.26
X178.19Y-99.69
X178.19Y-99.7
X178.775Y-30.07
X178.785Y-30.06
X179.76Y-78.08
X179.76Y-78.09
X182.95Y-61.52
X182.95Y-61.53
X184.54Y-97.15
X184.54Y-97.16
X185.125Y-27.53
X185.135Y-27.52
X187.65Y-118.79
X187.65Y-118.8
X189.3Y-58.98
X189.3Y-58.99
X192.41Y-80.62
X192.41Y-80.63
X194.0Y-116.25
X194.0Y-116.26
X197.19Y-99.69
X197.19Y-99.7
X198.76Y-78.08
X198.76Y-78.09
X201.95Y-61.52
X201.95Y-61.53
X203.54Y-97.15
X203.54Y-97.16
X206.65Y-118.79
X206.65Y-118.8
X207.35Y-30.07
X207.36Y-30.06
X208.3Y-58.98
X208.3Y-58.99
X211.41Y-80.62
X211.41Y-80.63
X213.0Y-116.25
X213.0Y-116.26
X213.7Y-27.53
X213.71Y-27.52
X216.19Y-99.69
X216.19Y-99.7
X217.76Y-78.08
X217.76Y-78.09
X220.95Y-61.52
X220.95Y-61.53
X222.54Y-97.15
X222.54Y-97.16
X225.65Y-118.79
X225.65Y-118.8
X227.3Y-58.98
X227.3Y-58.99
X230.41Y-80.62
X230.41Y-80.63
X232.0Y-116.25
X232.0Y-116.26
X235.19Y-99.69
X235.19Y-99.7
X235.85Y-30.07
X235.86Y-30.06
X236.76Y-78.08
X236.76Y-78.09
X239.95Y-61.52
X239.95Y-61.53
X241.54Y-97.15
X241.54Y-97.16
X242.2Y-27.53
X242.21Y-27.52
X244.65Y-118.79
X244.65Y-118.8
X246.3Y-58.98
X246.3Y-58.99
X249.41Y-80.62
X249.41Y-80.63
X251.0Y-116.25
X251.0Y-116.26
X254.19Y-99.69
X254.19Y-99.7
X255.76Y-78.08
X255.76Y-78.09
X258.95Y-61.52
X258.95Y-61.53
X260.54Y-97.15
X260.54Y-97.16
X261.95Y-137.83
X261.95Y-137.84
X263.65Y-118.79
X263.65Y-118.8
X264.35Y-30.07
X264.36Y-30.06
X265.3Y-58.98
X265.3Y-58.99
X268.3Y-135.29
X268.3Y-135.3
X268.41Y-80.62
X268.41Y-80.63
X270.0Y-116.25
X270.0Y-116.26
X270.7Y-27.53
X270.71Y-27.52
X273.19Y-99.69
X273.19Y-99.7
X274.76Y-78.08
X274.76Y-78.09
X277.95Y-61.52
X277.95Y-61.53
X279.54Y-97.15
X279.54Y-97.16
X284.3Y-58.98
X284.3Y-58.99
X287.41Y-80.62
X287.41Y-80.63
X289.775Y-118.78
X289.775Y-118.79
X292.19Y-99.69
X292.19Y-99.7
X292.85Y-30.07
X292.86Y-30.06
X293.76Y-78.08
X293.76Y-78.09
X296.125Y-116.24
X296.125Y-116.25
X296.95Y-61.52
X296.95Y-61.53
X298.54Y-97.15
X298.54Y-97.16
X299.2Y-27.53
X299.21Y-27.52
X303.3Y-58.98
X303.3Y-58.99
X311.2Y-80.6
X311.21Y-80.62
X313.59Y-99.69
X313.6Y-99.69
X315.95Y-61.52
X315.95Y-61.53
X315.95Y-118.79
X315.95Y-118.8
X317.55Y-78.06
X317.56Y-78.08
X319.94Y-97.15
X319.95Y-97.15
X321.35Y-30.07
X321.36Y-30.06
X322.3Y-58.98
X322.3Y-58.99
X322.3Y-116.25
X322.3Y-116.26
X327.7Y-27.53
X327.71Y-27.52
T0
M30
