M48
; DRILL file {KiCad 5.1.9+dfsg1-1} date Thu Feb 10 09:09:03 2022
; FORMAT={-:-/ absolute / metric / decimal}
; #@! TF.CreationDate,2022-02-10T09:09:03+01:00
; #@! TF.GenerationSoftware,Kicad,Pcbnew,5.1.9+dfsg1-1
; #@! TF.FileFunction,NonPlated,1,2,NPTH
FMAT,2
METRIC
T1C1.700
T2C1.750
T3C3.048
T4C3.050
T5C3.200
T6C3.988
T7C4.000
%
G90
G05
T1
X48.68Y-64.07
X53.43Y-83.14
X55.72Y-102.22
X58.84Y-64.07
X60.53Y-121.33
X63.59Y-83.14
X65.88Y-102.22
X67.68Y-64.07
X70.69Y-121.33
X77.14Y-83.17
X77.84Y-64.07
X81.92Y-102.24
X86.68Y-64.07
X87.3Y-83.17
X91.38Y-121.34
X91.79Y-32.6
X92.08Y-102.24
X96.14Y-83.17
X96.84Y-64.07
X100.92Y-102.24
X101.54Y-121.34
X101.95Y-32.6
X105.68Y-64.07
X106.3Y-83.17
X108.08Y-140.35
X110.38Y-121.34
X111.08Y-102.24
X115.14Y-83.17
X115.84Y-64.07
X118.24Y-140.35
X119.92Y-102.24
X120.365Y-32.6
X120.54Y-121.34
X124.68Y-64.07
X125.3Y-83.17
X129.38Y-121.34
X130.08Y-102.24
X130.525Y-32.6
X134.14Y-83.17
X134.84Y-64.07
X138.92Y-102.24
X139.54Y-121.34
X143.68Y-64.07
X144.3Y-83.17
X148.38Y-121.34
X148.94Y-32.6
X149.08Y-102.24
X153.14Y-83.17
X153.84Y-64.07
X157.92Y-102.24
X158.54Y-121.34
X159.1Y-32.6
X162.68Y-64.07
X163.3Y-83.17
X167.38Y-121.34
X168.08Y-102.24
X172.14Y-83.17
X172.84Y-64.07
X176.92Y-102.24
X177.515Y-32.6
X177.54Y-121.34
X181.68Y-64.07
X182.3Y-83.17
X184.41Y-140.36
X186.38Y-121.34
X187.08Y-102.24
X187.675Y-32.6
X191.14Y-83.17
X191.84Y-64.07
X194.57Y-140.36
X195.92Y-102.24
X196.54Y-121.34
X200.68Y-64.07
X201.3Y-83.17
X205.38Y-121.34
X206.08Y-102.24
X206.09Y-32.6
X210.14Y-83.17
X210.84Y-64.07
X214.92Y-102.24
X215.54Y-121.34
X216.25Y-32.6
X219.68Y-64.07
X220.3Y-83.17
X224.38Y-121.34
X225.08Y-102.24
X229.14Y-83.17
X229.84Y-64.07
X233.92Y-102.24
X234.54Y-121.34
X234.59Y-32.6
X238.68Y-64.07
X239.3Y-83.17
X243.38Y-121.34
X244.08Y-102.24
X244.75Y-32.6
X248.14Y-83.17
X248.84Y-64.07
X252.92Y-102.24
X253.54Y-121.34
X257.68Y-64.07
X258.3Y-83.17
X260.68Y-140.38
X262.38Y-121.34
X263.08Y-102.24
X263.09Y-32.6
X267.14Y-83.17
X267.84Y-64.07
X270.84Y-140.38
X271.92Y-102.24
X272.54Y-121.34
X273.25Y-32.6
X276.68Y-64.07
X277.3Y-83.17
X282.08Y-102.24
X286.14Y-83.17
X286.84Y-64.07
X288.505Y-121.32
X290.92Y-102.24
X291.59Y-32.6
X295.68Y-64.07
X296.3Y-83.17
X298.665Y-121.32
X301.08Y-102.24
X301.75Y-32.6
X305.84Y-64.07
X309.93Y-83.14
X312.33Y-102.23
X314.68Y-64.07
X314.68Y-121.34
X320.09Y-32.6
X320.09Y-83.14
X322.49Y-102.23
X324.84Y-64.07
X324.84Y-121.34
X330.25Y-32.6
T2
X184.41Y-140.38
X194.57Y-140.38
T3
X132.34Y-133.395
X246.64Y-133.395
T4
X127.03Y-133.36
X252.03Y-133.36
T5
X27.01Y-27.53
X27.01Y-138.02
X37.22Y-139.8
X185.81Y-44.55
X336.94Y-40.74
X336.94Y-139.8
X348.32Y-27.53
X348.32Y-148.18
T6
X132.34Y-148.635
X189.49Y-140.38
X246.64Y-148.635
T7
X53.76Y-64.06
X53.76Y-64.07
X58.51Y-83.14
X58.52Y-83.16
X60.8Y-102.22
X60.8Y-102.23
X65.61Y-121.33
X65.61Y-121.33
X72.76Y-64.06
X72.76Y-64.07
X82.22Y-83.16
X82.22Y-83.17
X87.0Y-102.23
X87.0Y-102.24
X91.76Y-64.06
X91.76Y-64.07
X96.46Y-121.33
X96.46Y-121.34
X96.86Y-32.61
X96.87Y-32.6
X101.22Y-83.16
X101.22Y-83.17
X106.0Y-102.23
X106.0Y-102.24
X110.76Y-64.06
X110.76Y-64.07
X113.16Y-140.34
X113.16Y-140.35
X115.46Y-121.33
X115.46Y-121.34
X120.22Y-83.16
X120.22Y-83.17
X125.0Y-102.23
X125.0Y-102.24
X125.435Y-32.61
X125.445Y-32.6
X127.03Y-148.6
X129.76Y-64.06
X129.76Y-64.07
X134.46Y-121.33
X134.46Y-121.34
X139.22Y-83.16
X139.22Y-83.17
X144.0Y-102.23
X144.0Y-102.24
X148.76Y-64.06
X148.76Y-64.07
X153.46Y-121.33
X153.46Y-121.34
X154.01Y-32.61
X154.02Y-32.6
X158.22Y-83.16
X158.22Y-83.17
X163.0Y-102.23
X163.0Y-102.24
X167.76Y-64.06
X167.76Y-64.07
X172.46Y-121.33
X172.46Y-121.34
X177.22Y-83.16
X177.22Y-83.17
X182.0Y-102.23
X182.0Y-102.24
X182.585Y-32.61
X182.595Y-32.6
X186.76Y-64.06
X186.76Y-64.07
X189.49Y-140.36
X191.46Y-121.33
X191.46Y-121.34
X196.22Y-83.16
X196.22Y-83.17
X201.0Y-102.23
X201.0Y-102.24
X205.76Y-64.06
X205.76Y-64.07
X210.46Y-121.33
X210.46Y-121.34
X211.16Y-32.61
X211.17Y-32.6
X215.22Y-83.16
X215.22Y-83.17
X220.0Y-102.23
X220.0Y-102.24
X224.76Y-64.06
X224.76Y-64.07
X229.46Y-121.33
X229.46Y-121.34
X234.22Y-83.16
X234.22Y-83.17
X239.0Y-102.23
X239.0Y-102.24
X239.66Y-32.61
X239.67Y-32.6
X243.76Y-64.06
X243.76Y-64.07
X248.46Y-121.33
X248.46Y-121.34
X252.03Y-148.6
X253.22Y-83.16
X253.22Y-83.17
X258.0Y-102.23
X258.0Y-102.24
X262.76Y-64.06
X262.76Y-64.07
X265.76Y-140.37
X265.76Y-140.38
X267.46Y-121.33
X267.46Y-121.34
X268.16Y-32.61
X268.17Y-32.6
X272.22Y-83.16
X272.22Y-83.17
X277.0Y-102.23
X277.0Y-102.24
X281.76Y-64.06
X281.76Y-64.07
X291.22Y-83.16
X291.22Y-83.17
X293.585Y-121.32
X293.585Y-121.33
X296.0Y-102.23
X296.0Y-102.24
X296.66Y-32.61
X296.67Y-32.6
X300.76Y-64.06
X300.76Y-64.07
X315.01Y-83.14
X315.02Y-83.16
X317.4Y-102.23
X317.41Y-102.23
X319.76Y-64.06
X319.76Y-64.07
X319.76Y-121.33
X319.76Y-121.34
X325.16Y-32.61
X325.17Y-32.6
T0
M30
