G04 #@! TF.GenerationSoftware,KiCad,Pcbnew,5.1.9+dfsg1-1*
G04 #@! TF.CreationDate,2022-01-21T12:18:13+01:00*
G04 #@! TF.ProjectId,Atari130MX,41746172-6931-4333-904d-582e6b696361,Jan 2022*
G04 #@! TF.SameCoordinates,Original*
G04 #@! TF.FileFunction,Soldermask,Top*
G04 #@! TF.FilePolarity,Negative*
%FSLAX46Y46*%
G04 Gerber Fmt 4.6, Leading zero omitted, Abs format (unit mm)*
G04 Created by KiCad (PCBNEW 5.1.9+dfsg1-1) date 2022-01-21 12:18:13*
%MOMM*%
%LPD*%
G01*
G04 APERTURE LIST*
%ADD10O,1.700000X1.700000*%
%ADD11R,1.700000X1.700000*%
%ADD12C,2.200000*%
%ADD13C,4.000000*%
%ADD14C,1.700000*%
%ADD15R,1.000000X1.500000*%
%ADD16C,0.100000*%
%ADD17C,1.600000*%
%ADD18O,1.600000X1.600000*%
%ADD19C,1.800000*%
%ADD20R,1.800000X1.800000*%
%ADD21C,3.200000*%
%ADD22C,3.987800*%
%ADD23C,1.750000*%
%ADD24C,3.048000*%
%ADD25C,3.050000*%
%ADD26C,0.800000*%
G04 APERTURE END LIST*
D10*
X78290000Y-51000000D03*
X75750000Y-51000000D03*
D11*
X73210000Y-51000000D03*
D10*
X70670000Y-51000000D03*
X68130000Y-51000000D03*
X65590000Y-51000000D03*
X63050000Y-51000000D03*
D11*
X60510000Y-51000000D03*
D10*
X57970000Y-51000000D03*
X55430000Y-51000000D03*
X52890000Y-51000000D03*
X50350000Y-51000000D03*
D11*
X47810000Y-51000000D03*
D10*
X45270000Y-51000000D03*
X42730000Y-51000000D03*
X40190000Y-51000000D03*
X37650000Y-51000000D03*
D11*
X35110000Y-51000000D03*
D10*
X32570000Y-51000000D03*
X30030000Y-51000000D03*
X30030000Y-33220000D03*
X32570000Y-33220000D03*
D11*
X35110000Y-33220000D03*
D10*
X37650000Y-33220000D03*
X40190000Y-33220000D03*
X42730000Y-33220000D03*
X45270000Y-33220000D03*
D11*
X47810000Y-33220000D03*
D10*
X50350000Y-33220000D03*
X52890000Y-33220000D03*
X55430000Y-33220000D03*
X57970000Y-33220000D03*
D11*
X60510000Y-33220000D03*
D10*
X63050000Y-33220000D03*
X65590000Y-33220000D03*
X68130000Y-33220000D03*
X70670000Y-33220000D03*
D11*
X73210000Y-33220000D03*
D10*
X75750000Y-33220000D03*
X78290000Y-33220000D03*
X30260000Y-44650000D03*
D11*
X30260000Y-42110000D03*
D10*
X30260000Y-39570000D03*
D12*
X319950000Y-97150000D03*
D13*
X317410000Y-102230000D03*
D14*
X312330000Y-102230000D03*
X322490000Y-102230000D03*
D12*
X313600000Y-99690000D03*
D13*
X317400000Y-102230000D03*
D12*
X313590000Y-99690000D03*
X319940000Y-97150000D03*
X56300000Y-58990000D03*
D13*
X53760000Y-64070000D03*
D14*
X48680000Y-64070000D03*
X58840000Y-64070000D03*
D12*
X49950000Y-61530000D03*
D13*
X53760000Y-64060000D03*
D12*
X49950000Y-61520000D03*
X56300000Y-58980000D03*
X170300000Y-58990000D03*
D13*
X167760000Y-64070000D03*
D14*
X162680000Y-64070000D03*
X172840000Y-64070000D03*
D12*
X163950000Y-61530000D03*
D13*
X167760000Y-64060000D03*
D12*
X163950000Y-61520000D03*
X170300000Y-58980000D03*
X99000000Y-116260000D03*
D13*
X96460000Y-121340000D03*
D14*
X91380000Y-121340000D03*
X101540000Y-121340000D03*
D12*
X92650000Y-118800000D03*
D13*
X96460000Y-121330000D03*
D12*
X92650000Y-118790000D03*
X99000000Y-116250000D03*
X179760000Y-78090000D03*
D13*
X177220000Y-83170000D03*
D14*
X172140000Y-83170000D03*
X182300000Y-83170000D03*
D12*
X173410000Y-80630000D03*
D13*
X177220000Y-83160000D03*
D12*
X173410000Y-80620000D03*
X179760000Y-78080000D03*
X118000000Y-116260000D03*
D13*
X115460000Y-121340000D03*
D14*
X110380000Y-121340000D03*
X120540000Y-121340000D03*
D12*
X111650000Y-118800000D03*
D13*
X115460000Y-121330000D03*
D12*
X111650000Y-118790000D03*
X118000000Y-116250000D03*
X103760000Y-78090000D03*
D13*
X101220000Y-83170000D03*
D14*
X96140000Y-83170000D03*
X106300000Y-83170000D03*
D12*
X97410000Y-80630000D03*
D13*
X101220000Y-83160000D03*
D12*
X97410000Y-80620000D03*
X103760000Y-78080000D03*
X156000000Y-116260000D03*
D13*
X153460000Y-121340000D03*
D14*
X148380000Y-121340000D03*
X158540000Y-121340000D03*
D12*
X149650000Y-118800000D03*
D13*
X153460000Y-121330000D03*
D12*
X149650000Y-118790000D03*
X156000000Y-116250000D03*
X198760000Y-78090000D03*
D13*
X196220000Y-83170000D03*
D14*
X191140000Y-83170000D03*
X201300000Y-83170000D03*
D12*
X192410000Y-80630000D03*
D13*
X196220000Y-83160000D03*
D12*
X192410000Y-80620000D03*
X198760000Y-78080000D03*
X160760000Y-78090000D03*
D13*
X158220000Y-83170000D03*
D14*
X153140000Y-83170000D03*
X163300000Y-83170000D03*
D12*
X154410000Y-80630000D03*
D13*
X158220000Y-83160000D03*
D12*
X154410000Y-80620000D03*
X160760000Y-78080000D03*
X298540000Y-97160000D03*
D13*
X296000000Y-102240000D03*
D14*
X290920000Y-102240000D03*
X301080000Y-102240000D03*
D12*
X292190000Y-99700000D03*
D13*
X296000000Y-102230000D03*
D12*
X292190000Y-99690000D03*
X298540000Y-97150000D03*
X270000000Y-116260000D03*
D13*
X267460000Y-121340000D03*
D14*
X262380000Y-121340000D03*
X272540000Y-121340000D03*
D12*
X263650000Y-118800000D03*
D13*
X267460000Y-121330000D03*
D12*
X263650000Y-118790000D03*
X270000000Y-116250000D03*
X260540000Y-97160000D03*
D13*
X258000000Y-102240000D03*
D14*
X252920000Y-102240000D03*
X263080000Y-102240000D03*
D12*
X254190000Y-99700000D03*
D13*
X258000000Y-102230000D03*
D12*
X254190000Y-99690000D03*
X260540000Y-97150000D03*
X108540000Y-97160000D03*
D13*
X106000000Y-102240000D03*
D14*
X100920000Y-102240000D03*
X111080000Y-102240000D03*
D12*
X102190000Y-99700000D03*
D13*
X106000000Y-102230000D03*
D12*
X102190000Y-99690000D03*
X108540000Y-97150000D03*
X141760000Y-78090000D03*
D13*
X139220000Y-83170000D03*
D14*
X134140000Y-83170000D03*
X144300000Y-83170000D03*
D12*
X135410000Y-80630000D03*
D13*
X139220000Y-83160000D03*
D12*
X135410000Y-80620000D03*
X141760000Y-78080000D03*
X84760000Y-78090000D03*
D13*
X82220000Y-83170000D03*
D14*
X77140000Y-83170000D03*
X87300000Y-83170000D03*
D12*
X78410000Y-80630000D03*
D13*
X82220000Y-83160000D03*
D12*
X78410000Y-80620000D03*
X84760000Y-78080000D03*
X279540000Y-97160000D03*
D13*
X277000000Y-102240000D03*
D14*
X271920000Y-102240000D03*
X282080000Y-102240000D03*
D12*
X273190000Y-99700000D03*
D13*
X277000000Y-102230000D03*
D12*
X273190000Y-99690000D03*
X279540000Y-97150000D03*
X251000000Y-116260000D03*
D13*
X248460000Y-121340000D03*
D14*
X243380000Y-121340000D03*
X253540000Y-121340000D03*
D12*
X244650000Y-118800000D03*
D13*
X248460000Y-121330000D03*
D12*
X244650000Y-118790000D03*
X251000000Y-116250000D03*
X255760000Y-78090000D03*
D13*
X253220000Y-83170000D03*
D14*
X248140000Y-83170000D03*
X258300000Y-83170000D03*
D12*
X249410000Y-80630000D03*
D13*
X253220000Y-83160000D03*
D12*
X249410000Y-80620000D03*
X255760000Y-78080000D03*
X236760000Y-78090000D03*
D13*
X234220000Y-83170000D03*
D14*
X229140000Y-83170000D03*
X239300000Y-83170000D03*
D12*
X230410000Y-80630000D03*
D13*
X234220000Y-83160000D03*
D12*
X230410000Y-80620000D03*
X236760000Y-78080000D03*
X194000000Y-116260000D03*
D13*
X191460000Y-121340000D03*
D14*
X186380000Y-121340000D03*
X196540000Y-121340000D03*
D12*
X187650000Y-118800000D03*
D13*
X191460000Y-121330000D03*
D12*
X187650000Y-118790000D03*
X194000000Y-116250000D03*
X213000000Y-116260000D03*
D13*
X210460000Y-121340000D03*
D14*
X205380000Y-121340000D03*
X215540000Y-121340000D03*
D12*
X206650000Y-118800000D03*
D13*
X210460000Y-121330000D03*
D12*
X206650000Y-118790000D03*
X213000000Y-116250000D03*
X265300000Y-58990000D03*
D13*
X262760000Y-64070000D03*
D14*
X257680000Y-64070000D03*
X267840000Y-64070000D03*
D12*
X258950000Y-61530000D03*
D13*
X262760000Y-64060000D03*
D12*
X258950000Y-61520000D03*
X265300000Y-58980000D03*
X241540000Y-97160000D03*
D13*
X239000000Y-102240000D03*
D14*
X233920000Y-102240000D03*
X244080000Y-102240000D03*
D12*
X235190000Y-99700000D03*
D13*
X239000000Y-102230000D03*
D12*
X235190000Y-99690000D03*
X241540000Y-97150000D03*
X222540000Y-97160000D03*
D13*
X220000000Y-102240000D03*
D14*
X214920000Y-102240000D03*
X225080000Y-102240000D03*
D12*
X216190000Y-99700000D03*
D13*
X220000000Y-102230000D03*
D12*
X216190000Y-99690000D03*
X222540000Y-97150000D03*
X203540000Y-97160000D03*
D13*
X201000000Y-102240000D03*
D14*
X195920000Y-102240000D03*
X206080000Y-102240000D03*
D12*
X197190000Y-99700000D03*
D13*
X201000000Y-102230000D03*
D12*
X197190000Y-99690000D03*
X203540000Y-97150000D03*
X322300000Y-116260000D03*
D13*
X319760000Y-121340000D03*
D14*
X314680000Y-121340000D03*
X324840000Y-121340000D03*
D12*
X315950000Y-118800000D03*
D13*
X319760000Y-121330000D03*
D12*
X315950000Y-118790000D03*
X322300000Y-116250000D03*
X217760000Y-78090000D03*
D13*
X215220000Y-83170000D03*
D14*
X210140000Y-83170000D03*
X220300000Y-83170000D03*
D12*
X211410000Y-80630000D03*
D13*
X215220000Y-83160000D03*
D12*
X211410000Y-80620000D03*
X217760000Y-78080000D03*
X184540000Y-97160000D03*
D13*
X182000000Y-102240000D03*
D14*
X176920000Y-102240000D03*
X187080000Y-102240000D03*
D12*
X178190000Y-99700000D03*
D13*
X182000000Y-102230000D03*
D12*
X178190000Y-99690000D03*
X184540000Y-97150000D03*
X284300000Y-58990000D03*
D13*
X281760000Y-64070000D03*
D14*
X276680000Y-64070000D03*
X286840000Y-64070000D03*
D12*
X277950000Y-61530000D03*
D13*
X281760000Y-64060000D03*
D12*
X277950000Y-61520000D03*
X284300000Y-58980000D03*
X165540000Y-97160000D03*
D13*
X163000000Y-102240000D03*
D14*
X157920000Y-102240000D03*
X168080000Y-102240000D03*
D12*
X159190000Y-99700000D03*
D13*
X163000000Y-102230000D03*
D12*
X159190000Y-99690000D03*
X165540000Y-97150000D03*
X293760000Y-78090000D03*
D13*
X291220000Y-83170000D03*
D14*
X286140000Y-83170000D03*
X296300000Y-83170000D03*
D12*
X287410000Y-80630000D03*
D13*
X291220000Y-83160000D03*
D12*
X287410000Y-80620000D03*
X293760000Y-78080000D03*
X122760000Y-78090000D03*
D13*
X120220000Y-83170000D03*
D14*
X115140000Y-83170000D03*
X125300000Y-83170000D03*
D12*
X116410000Y-80630000D03*
D13*
X120220000Y-83160000D03*
D12*
X116410000Y-80620000D03*
X122760000Y-78080000D03*
X303300000Y-58990000D03*
D13*
X300760000Y-64070000D03*
D14*
X295680000Y-64070000D03*
X305840000Y-64070000D03*
D12*
X296950000Y-61530000D03*
D13*
X300760000Y-64060000D03*
D12*
X296950000Y-61520000D03*
X303300000Y-58980000D03*
X274760000Y-78090000D03*
D13*
X272220000Y-83170000D03*
D14*
X267140000Y-83170000D03*
X277300000Y-83170000D03*
D12*
X268410000Y-80630000D03*
D13*
X272220000Y-83160000D03*
D12*
X268410000Y-80620000D03*
X274760000Y-78080000D03*
X127540000Y-97160000D03*
D13*
X125000000Y-102240000D03*
D14*
X119920000Y-102240000D03*
X130080000Y-102240000D03*
D12*
X121190000Y-99700000D03*
D13*
X125000000Y-102230000D03*
D12*
X121190000Y-99690000D03*
X127540000Y-97150000D03*
X232000000Y-116260000D03*
D13*
X229460000Y-121340000D03*
D14*
X224380000Y-121340000D03*
X234540000Y-121340000D03*
D12*
X225650000Y-118800000D03*
D13*
X229460000Y-121330000D03*
D12*
X225650000Y-118790000D03*
X232000000Y-116250000D03*
X137000000Y-116260000D03*
D13*
X134460000Y-121340000D03*
D14*
X129380000Y-121340000D03*
X139540000Y-121340000D03*
D12*
X130650000Y-118800000D03*
D13*
X134460000Y-121330000D03*
D12*
X130650000Y-118790000D03*
X137000000Y-116250000D03*
X322300000Y-58990000D03*
D13*
X319760000Y-64070000D03*
D14*
X314680000Y-64070000D03*
X324840000Y-64070000D03*
D12*
X315950000Y-61530000D03*
D13*
X319760000Y-64060000D03*
D12*
X315950000Y-61520000D03*
X322300000Y-58980000D03*
X175000000Y-116260000D03*
D13*
X172460000Y-121340000D03*
D14*
X167380000Y-121340000D03*
X177540000Y-121340000D03*
D12*
X168650000Y-118800000D03*
D13*
X172460000Y-121330000D03*
D12*
X168650000Y-118790000D03*
X175000000Y-116250000D03*
X89540000Y-97160000D03*
D13*
X87000000Y-102240000D03*
D14*
X81920000Y-102240000D03*
X92080000Y-102240000D03*
D12*
X83190000Y-99700000D03*
D13*
X87000000Y-102230000D03*
D12*
X83190000Y-99690000D03*
X89540000Y-97150000D03*
X227300000Y-58990000D03*
D13*
X224760000Y-64070000D03*
D14*
X219680000Y-64070000D03*
X229840000Y-64070000D03*
D12*
X220950000Y-61530000D03*
D13*
X224760000Y-64060000D03*
D12*
X220950000Y-61520000D03*
X227300000Y-58980000D03*
X208300000Y-58990000D03*
D13*
X205760000Y-64070000D03*
D14*
X200680000Y-64070000D03*
X210840000Y-64070000D03*
D12*
X201950000Y-61530000D03*
D13*
X205760000Y-64060000D03*
D12*
X201950000Y-61520000D03*
X208300000Y-58980000D03*
X189300000Y-58990000D03*
D13*
X186760000Y-64070000D03*
D14*
X181680000Y-64070000D03*
X191840000Y-64070000D03*
D12*
X182950000Y-61530000D03*
D13*
X186760000Y-64060000D03*
D12*
X182950000Y-61520000D03*
X189300000Y-58980000D03*
X151300000Y-58990000D03*
D13*
X148760000Y-64070000D03*
D14*
X143680000Y-64070000D03*
X153840000Y-64070000D03*
D12*
X144950000Y-61530000D03*
D13*
X148760000Y-64060000D03*
D12*
X144950000Y-61520000D03*
X151300000Y-58980000D03*
X132300000Y-58990000D03*
D13*
X129760000Y-64070000D03*
D14*
X124680000Y-64070000D03*
X134840000Y-64070000D03*
D12*
X125950000Y-61530000D03*
D13*
X129760000Y-64060000D03*
D12*
X125950000Y-61520000D03*
X132300000Y-58980000D03*
X113300000Y-58990000D03*
D13*
X110760000Y-64070000D03*
D14*
X105680000Y-64070000D03*
X115840000Y-64070000D03*
D12*
X106950000Y-61530000D03*
D13*
X110760000Y-64060000D03*
D12*
X106950000Y-61520000D03*
X113300000Y-58980000D03*
X94300000Y-58990000D03*
D13*
X91760000Y-64070000D03*
D14*
X86680000Y-64070000D03*
X96840000Y-64070000D03*
D12*
X87950000Y-61530000D03*
D13*
X91760000Y-64060000D03*
D12*
X87950000Y-61520000D03*
X94300000Y-58980000D03*
X75300000Y-58990000D03*
D13*
X72760000Y-64070000D03*
D14*
X67680000Y-64070000D03*
X77840000Y-64070000D03*
D12*
X68950000Y-61530000D03*
D13*
X72760000Y-64060000D03*
D12*
X68950000Y-61520000D03*
X75300000Y-58980000D03*
X246300000Y-58990000D03*
D13*
X243760000Y-64070000D03*
D14*
X238680000Y-64070000D03*
X248840000Y-64070000D03*
D12*
X239950000Y-61530000D03*
D13*
X243760000Y-64060000D03*
D12*
X239950000Y-61520000D03*
X246300000Y-58980000D03*
X146540000Y-97160000D03*
D13*
X144000000Y-102240000D03*
D14*
X138920000Y-102240000D03*
X149080000Y-102240000D03*
D12*
X140190000Y-99700000D03*
D13*
X144000000Y-102230000D03*
D12*
X140190000Y-99690000D03*
X146540000Y-97150000D03*
D15*
X28160000Y-76610000D03*
D16*
G36*
X29460000Y-75860602D02*
G01*
X29484534Y-75860602D01*
X29533365Y-75865412D01*
X29581490Y-75874984D01*
X29628445Y-75889228D01*
X29673778Y-75908005D01*
X29717051Y-75931136D01*
X29757850Y-75958396D01*
X29795779Y-75989524D01*
X29830476Y-76024221D01*
X29861604Y-76062150D01*
X29888864Y-76102949D01*
X29911995Y-76146222D01*
X29930772Y-76191555D01*
X29945016Y-76238510D01*
X29954588Y-76286635D01*
X29959398Y-76335466D01*
X29959398Y-76360000D01*
X29960000Y-76360000D01*
X29960000Y-76860000D01*
X29959398Y-76860000D01*
X29959398Y-76884534D01*
X29954588Y-76933365D01*
X29945016Y-76981490D01*
X29930772Y-77028445D01*
X29911995Y-77073778D01*
X29888864Y-77117051D01*
X29861604Y-77157850D01*
X29830476Y-77195779D01*
X29795779Y-77230476D01*
X29757850Y-77261604D01*
X29717051Y-77288864D01*
X29673778Y-77311995D01*
X29628445Y-77330772D01*
X29581490Y-77345016D01*
X29533365Y-77354588D01*
X29484534Y-77359398D01*
X29460000Y-77359398D01*
X29460000Y-77360000D01*
X28910000Y-77360000D01*
X28910000Y-75860000D01*
X29460000Y-75860000D01*
X29460000Y-75860602D01*
G37*
G36*
X27410000Y-77360000D02*
G01*
X26860000Y-77360000D01*
X26860000Y-77359398D01*
X26835466Y-77359398D01*
X26786635Y-77354588D01*
X26738510Y-77345016D01*
X26691555Y-77330772D01*
X26646222Y-77311995D01*
X26602949Y-77288864D01*
X26562150Y-77261604D01*
X26524221Y-77230476D01*
X26489524Y-77195779D01*
X26458396Y-77157850D01*
X26431136Y-77117051D01*
X26408005Y-77073778D01*
X26389228Y-77028445D01*
X26374984Y-76981490D01*
X26365412Y-76933365D01*
X26360602Y-76884534D01*
X26360602Y-76860000D01*
X26360000Y-76860000D01*
X26360000Y-76360000D01*
X26360602Y-76360000D01*
X26360602Y-76335466D01*
X26365412Y-76286635D01*
X26374984Y-76238510D01*
X26389228Y-76191555D01*
X26408005Y-76146222D01*
X26431136Y-76102949D01*
X26458396Y-76062150D01*
X26489524Y-76024221D01*
X26524221Y-75989524D01*
X26562150Y-75958396D01*
X26602949Y-75931136D01*
X26646222Y-75908005D01*
X26691555Y-75889228D01*
X26738510Y-75874984D01*
X26786635Y-75865412D01*
X26835466Y-75860602D01*
X26860000Y-75860602D01*
X26860000Y-75860000D01*
X27410000Y-75860000D01*
X27410000Y-77360000D01*
G37*
D15*
X28160000Y-81610000D03*
D16*
G36*
X29460000Y-80860602D02*
G01*
X29484534Y-80860602D01*
X29533365Y-80865412D01*
X29581490Y-80874984D01*
X29628445Y-80889228D01*
X29673778Y-80908005D01*
X29717051Y-80931136D01*
X29757850Y-80958396D01*
X29795779Y-80989524D01*
X29830476Y-81024221D01*
X29861604Y-81062150D01*
X29888864Y-81102949D01*
X29911995Y-81146222D01*
X29930772Y-81191555D01*
X29945016Y-81238510D01*
X29954588Y-81286635D01*
X29959398Y-81335466D01*
X29959398Y-81360000D01*
X29960000Y-81360000D01*
X29960000Y-81860000D01*
X29959398Y-81860000D01*
X29959398Y-81884534D01*
X29954588Y-81933365D01*
X29945016Y-81981490D01*
X29930772Y-82028445D01*
X29911995Y-82073778D01*
X29888864Y-82117051D01*
X29861604Y-82157850D01*
X29830476Y-82195779D01*
X29795779Y-82230476D01*
X29757850Y-82261604D01*
X29717051Y-82288864D01*
X29673778Y-82311995D01*
X29628445Y-82330772D01*
X29581490Y-82345016D01*
X29533365Y-82354588D01*
X29484534Y-82359398D01*
X29460000Y-82359398D01*
X29460000Y-82360000D01*
X28910000Y-82360000D01*
X28910000Y-80860000D01*
X29460000Y-80860000D01*
X29460000Y-80860602D01*
G37*
G36*
X27410000Y-82360000D02*
G01*
X26860000Y-82360000D01*
X26860000Y-82359398D01*
X26835466Y-82359398D01*
X26786635Y-82354588D01*
X26738510Y-82345016D01*
X26691555Y-82330772D01*
X26646222Y-82311995D01*
X26602949Y-82288864D01*
X26562150Y-82261604D01*
X26524221Y-82230476D01*
X26489524Y-82195779D01*
X26458396Y-82157850D01*
X26431136Y-82117051D01*
X26408005Y-82073778D01*
X26389228Y-82028445D01*
X26374984Y-81981490D01*
X26365412Y-81933365D01*
X26360602Y-81884534D01*
X26360602Y-81860000D01*
X26360000Y-81860000D01*
X26360000Y-81360000D01*
X26360602Y-81360000D01*
X26360602Y-81335466D01*
X26365412Y-81286635D01*
X26374984Y-81238510D01*
X26389228Y-81191555D01*
X26408005Y-81146222D01*
X26431136Y-81102949D01*
X26458396Y-81062150D01*
X26489524Y-81024221D01*
X26524221Y-80989524D01*
X26562150Y-80958396D01*
X26602949Y-80931136D01*
X26646222Y-80908005D01*
X26691555Y-80889228D01*
X26738510Y-80874984D01*
X26786635Y-80865412D01*
X26835466Y-80860602D01*
X26860000Y-80860602D01*
X26860000Y-80860000D01*
X27410000Y-80860000D01*
X27410000Y-82360000D01*
G37*
D15*
X28160000Y-91610000D03*
D16*
G36*
X29460000Y-90860602D02*
G01*
X29484534Y-90860602D01*
X29533365Y-90865412D01*
X29581490Y-90874984D01*
X29628445Y-90889228D01*
X29673778Y-90908005D01*
X29717051Y-90931136D01*
X29757850Y-90958396D01*
X29795779Y-90989524D01*
X29830476Y-91024221D01*
X29861604Y-91062150D01*
X29888864Y-91102949D01*
X29911995Y-91146222D01*
X29930772Y-91191555D01*
X29945016Y-91238510D01*
X29954588Y-91286635D01*
X29959398Y-91335466D01*
X29959398Y-91360000D01*
X29960000Y-91360000D01*
X29960000Y-91860000D01*
X29959398Y-91860000D01*
X29959398Y-91884534D01*
X29954588Y-91933365D01*
X29945016Y-91981490D01*
X29930772Y-92028445D01*
X29911995Y-92073778D01*
X29888864Y-92117051D01*
X29861604Y-92157850D01*
X29830476Y-92195779D01*
X29795779Y-92230476D01*
X29757850Y-92261604D01*
X29717051Y-92288864D01*
X29673778Y-92311995D01*
X29628445Y-92330772D01*
X29581490Y-92345016D01*
X29533365Y-92354588D01*
X29484534Y-92359398D01*
X29460000Y-92359398D01*
X29460000Y-92360000D01*
X28910000Y-92360000D01*
X28910000Y-90860000D01*
X29460000Y-90860000D01*
X29460000Y-90860602D01*
G37*
G36*
X27410000Y-92360000D02*
G01*
X26860000Y-92360000D01*
X26860000Y-92359398D01*
X26835466Y-92359398D01*
X26786635Y-92354588D01*
X26738510Y-92345016D01*
X26691555Y-92330772D01*
X26646222Y-92311995D01*
X26602949Y-92288864D01*
X26562150Y-92261604D01*
X26524221Y-92230476D01*
X26489524Y-92195779D01*
X26458396Y-92157850D01*
X26431136Y-92117051D01*
X26408005Y-92073778D01*
X26389228Y-92028445D01*
X26374984Y-91981490D01*
X26365412Y-91933365D01*
X26360602Y-91884534D01*
X26360602Y-91860000D01*
X26360000Y-91860000D01*
X26360000Y-91360000D01*
X26360602Y-91360000D01*
X26360602Y-91335466D01*
X26365412Y-91286635D01*
X26374984Y-91238510D01*
X26389228Y-91191555D01*
X26408005Y-91146222D01*
X26431136Y-91102949D01*
X26458396Y-91062150D01*
X26489524Y-91024221D01*
X26524221Y-90989524D01*
X26562150Y-90958396D01*
X26602949Y-90931136D01*
X26646222Y-90908005D01*
X26691555Y-90889228D01*
X26738510Y-90874984D01*
X26786635Y-90865412D01*
X26835466Y-90860602D01*
X26860000Y-90860602D01*
X26860000Y-90860000D01*
X27410000Y-90860000D01*
X27410000Y-92360000D01*
G37*
D15*
X28160000Y-86610000D03*
D16*
G36*
X29460000Y-85860602D02*
G01*
X29484534Y-85860602D01*
X29533365Y-85865412D01*
X29581490Y-85874984D01*
X29628445Y-85889228D01*
X29673778Y-85908005D01*
X29717051Y-85931136D01*
X29757850Y-85958396D01*
X29795779Y-85989524D01*
X29830476Y-86024221D01*
X29861604Y-86062150D01*
X29888864Y-86102949D01*
X29911995Y-86146222D01*
X29930772Y-86191555D01*
X29945016Y-86238510D01*
X29954588Y-86286635D01*
X29959398Y-86335466D01*
X29959398Y-86360000D01*
X29960000Y-86360000D01*
X29960000Y-86860000D01*
X29959398Y-86860000D01*
X29959398Y-86884534D01*
X29954588Y-86933365D01*
X29945016Y-86981490D01*
X29930772Y-87028445D01*
X29911995Y-87073778D01*
X29888864Y-87117051D01*
X29861604Y-87157850D01*
X29830476Y-87195779D01*
X29795779Y-87230476D01*
X29757850Y-87261604D01*
X29717051Y-87288864D01*
X29673778Y-87311995D01*
X29628445Y-87330772D01*
X29581490Y-87345016D01*
X29533365Y-87354588D01*
X29484534Y-87359398D01*
X29460000Y-87359398D01*
X29460000Y-87360000D01*
X28910000Y-87360000D01*
X28910000Y-85860000D01*
X29460000Y-85860000D01*
X29460000Y-85860602D01*
G37*
G36*
X27410000Y-87360000D02*
G01*
X26860000Y-87360000D01*
X26860000Y-87359398D01*
X26835466Y-87359398D01*
X26786635Y-87354588D01*
X26738510Y-87345016D01*
X26691555Y-87330772D01*
X26646222Y-87311995D01*
X26602949Y-87288864D01*
X26562150Y-87261604D01*
X26524221Y-87230476D01*
X26489524Y-87195779D01*
X26458396Y-87157850D01*
X26431136Y-87117051D01*
X26408005Y-87073778D01*
X26389228Y-87028445D01*
X26374984Y-86981490D01*
X26365412Y-86933365D01*
X26360602Y-86884534D01*
X26360602Y-86860000D01*
X26360000Y-86860000D01*
X26360000Y-86360000D01*
X26360602Y-86360000D01*
X26360602Y-86335466D01*
X26365412Y-86286635D01*
X26374984Y-86238510D01*
X26389228Y-86191555D01*
X26408005Y-86146222D01*
X26431136Y-86102949D01*
X26458396Y-86062150D01*
X26489524Y-86024221D01*
X26524221Y-85989524D01*
X26562150Y-85958396D01*
X26602949Y-85931136D01*
X26646222Y-85908005D01*
X26691555Y-85889228D01*
X26738510Y-85874984D01*
X26786635Y-85865412D01*
X26835466Y-85860602D01*
X26860000Y-85860602D01*
X26860000Y-85860000D01*
X27410000Y-85860000D01*
X27410000Y-87360000D01*
G37*
D17*
X319910000Y-52860000D03*
X318660000Y-50360000D03*
X317410000Y-52860000D03*
X316160000Y-50360000D03*
X314910000Y-52860000D03*
X313660000Y-50360000D03*
X312410000Y-52860000D03*
X311160000Y-50360000D03*
X309910000Y-52860000D03*
X308660000Y-50360000D03*
X307410000Y-52860000D03*
X306160000Y-50360000D03*
X304910000Y-52860000D03*
X303660000Y-50360000D03*
X302410000Y-52860000D03*
X301160000Y-50360000D03*
X299910000Y-52860000D03*
X298660000Y-50360000D03*
X297410000Y-52860000D03*
X296160000Y-50360000D03*
X294910000Y-52860000D03*
X293660000Y-50360000D03*
X292410000Y-52860000D03*
X291160000Y-50360000D03*
X289910000Y-52860000D03*
X288660000Y-50360000D03*
X287410000Y-52860000D03*
X286160000Y-50360000D03*
X284910000Y-52860000D03*
X283660000Y-50360000D03*
X282410000Y-52860000D03*
X281160000Y-50360000D03*
D12*
X68150000Y-116250000D03*
D13*
X65610000Y-121330000D03*
D14*
X60530000Y-121330000D03*
X70690000Y-121330000D03*
D12*
X61800000Y-118790000D03*
D13*
X65610000Y-121330000D03*
D12*
X61800000Y-118790000D03*
X68150000Y-116250000D03*
X185135000Y-27520000D03*
D13*
X182595000Y-32600000D03*
D14*
X177515000Y-32600000D03*
X187675000Y-32600000D03*
D12*
X178785000Y-30060000D03*
X185125000Y-27530000D03*
D13*
X182585000Y-32610000D03*
D12*
X178775000Y-30070000D03*
X156560000Y-27520000D03*
D13*
X154020000Y-32600000D03*
D14*
X148940000Y-32600000D03*
X159100000Y-32600000D03*
D12*
X150210000Y-30060000D03*
X156550000Y-27530000D03*
D13*
X154010000Y-32610000D03*
D12*
X150200000Y-30070000D03*
X127985000Y-27520000D03*
D13*
X125445000Y-32600000D03*
D14*
X120365000Y-32600000D03*
X130525000Y-32600000D03*
D12*
X121635000Y-30060000D03*
X127975000Y-27530000D03*
D13*
X125435000Y-32610000D03*
D12*
X121625000Y-30070000D03*
X99410000Y-27520000D03*
D13*
X96870000Y-32600000D03*
D14*
X91790000Y-32600000D03*
X101950000Y-32600000D03*
D12*
X93060000Y-30060000D03*
X99400000Y-27530000D03*
D13*
X96860000Y-32610000D03*
D12*
X93050000Y-30070000D03*
D18*
X37220000Y-60425000D03*
D17*
X37220000Y-68045000D03*
D11*
X38440000Y-25500000D03*
D10*
X40980000Y-25500000D03*
X43520000Y-25500000D03*
X46060000Y-25500000D03*
X48600000Y-25500000D03*
X51140000Y-25500000D03*
X53680000Y-25500000D03*
X56220000Y-25500000D03*
X58760000Y-25500000D03*
X61300000Y-25500000D03*
X63840000Y-25500000D03*
X66380000Y-25500000D03*
X68920000Y-25500000D03*
X71460000Y-25500000D03*
D12*
X296125000Y-116240000D03*
D13*
X293585000Y-121320000D03*
D14*
X288505000Y-121320000D03*
X298665000Y-121320000D03*
D12*
X289775000Y-118780000D03*
D13*
X293585000Y-121330000D03*
D12*
X289775000Y-118790000D03*
X296125000Y-116250000D03*
X63340000Y-97140000D03*
D13*
X60800000Y-102220000D03*
D14*
X55720000Y-102220000D03*
X65880000Y-102220000D03*
D12*
X56990000Y-99680000D03*
D13*
X60800000Y-102230000D03*
D12*
X56990000Y-99690000D03*
X63340000Y-97150000D03*
X242210000Y-27520000D03*
D13*
X239670000Y-32600000D03*
D14*
X234590000Y-32600000D03*
X244750000Y-32600000D03*
D12*
X235860000Y-30060000D03*
X242200000Y-27530000D03*
D13*
X239660000Y-32610000D03*
D12*
X235850000Y-30070000D03*
X270710000Y-27520000D03*
D13*
X268170000Y-32600000D03*
D14*
X263090000Y-32600000D03*
X273250000Y-32600000D03*
D12*
X264360000Y-30060000D03*
X270700000Y-27530000D03*
D13*
X268160000Y-32610000D03*
D12*
X264350000Y-30070000D03*
X327710000Y-27520000D03*
D13*
X325170000Y-32600000D03*
D14*
X320090000Y-32600000D03*
X330250000Y-32600000D03*
D12*
X321360000Y-30060000D03*
X327700000Y-27530000D03*
D13*
X325160000Y-32610000D03*
D12*
X321350000Y-30070000D03*
X299210000Y-27520000D03*
D13*
X296670000Y-32600000D03*
D14*
X291590000Y-32600000D03*
X301750000Y-32600000D03*
D12*
X292860000Y-30060000D03*
X299200000Y-27530000D03*
D13*
X296660000Y-32610000D03*
D12*
X292850000Y-30070000D03*
X213710000Y-27520000D03*
D13*
X211170000Y-32600000D03*
D14*
X206090000Y-32600000D03*
X216250000Y-32600000D03*
D12*
X207360000Y-30060000D03*
X213700000Y-27530000D03*
D13*
X211160000Y-32610000D03*
D12*
X207350000Y-30070000D03*
D19*
X27700000Y-144610000D03*
D20*
X25160000Y-144610000D03*
D12*
X61050000Y-78060000D03*
D13*
X58510000Y-83140000D03*
D14*
X53430000Y-83140000D03*
X63590000Y-83140000D03*
D12*
X54700000Y-80600000D03*
D13*
X58520000Y-83160000D03*
D12*
X54710000Y-80620000D03*
X61060000Y-78080000D03*
X317550000Y-78060000D03*
D13*
X315010000Y-83140000D03*
D14*
X309930000Y-83140000D03*
X320090000Y-83140000D03*
D12*
X311200000Y-80600000D03*
D13*
X315020000Y-83160000D03*
D12*
X311210000Y-80620000D03*
X317560000Y-78080000D03*
D21*
X185810000Y-44550000D03*
X336940000Y-40740000D03*
X336940000Y-139800000D03*
X37220000Y-139800000D03*
X27010000Y-138020000D03*
X27010000Y-27530000D03*
X348320000Y-27530000D03*
X348320000Y-148180000D03*
D22*
X189490000Y-140380000D03*
D23*
X184410000Y-140380000D03*
X194570000Y-140380000D03*
D24*
X132340000Y-133395000D03*
X246640000Y-133395000D03*
D22*
X132340000Y-148635000D03*
X246640000Y-148635000D03*
D12*
X115700000Y-135270000D03*
D13*
X113160000Y-140350000D03*
D14*
X108080000Y-140350000D03*
X118240000Y-140350000D03*
D12*
X109350000Y-137810000D03*
D13*
X113160000Y-140340000D03*
D12*
X109350000Y-137800000D03*
X115700000Y-135260000D03*
X268300000Y-135300000D03*
D13*
X265760000Y-140380000D03*
D14*
X260680000Y-140380000D03*
X270840000Y-140380000D03*
D12*
X261950000Y-137840000D03*
D13*
X265760000Y-140370000D03*
D12*
X261950000Y-137830000D03*
X268300000Y-135290000D03*
D13*
X189490000Y-140360000D03*
D14*
X184410000Y-140360000D03*
X194570000Y-140360000D03*
D13*
X127030000Y-148600000D03*
D25*
X127030000Y-133360000D03*
X252030000Y-133360000D03*
D13*
X252030000Y-148600000D03*
D26*
X213913000Y-34940900D03*
X152949500Y-48782100D03*
X62329500Y-79800000D03*
X46828100Y-39057900D03*
X283720500Y-74759900D03*
X54289600Y-39962800D03*
X50803600Y-58097900D03*
X91384000Y-57215900D03*
X305203300Y-59700400D03*
X27069400Y-90165600D03*
X40291700Y-75736100D03*
X282193000Y-54578200D03*
X228753800Y-55404300D03*
X170121100Y-82193800D03*
X69511800Y-49552900D03*
X286650200Y-114979100D03*
X66181400Y-81221300D03*
X65102400Y-37497900D03*
X44000000Y-28563800D03*
X49655500Y-40994100D03*
X180948000Y-61483100D03*
X33488900Y-83698800D03*
M02*
