G04 #@! TF.GenerationSoftware,KiCad,Pcbnew,5.1.9+dfsg1-1*
G04 #@! TF.CreationDate,2022-01-12T18:23:12+01:00*
G04 #@! TF.ProjectId,Atari130MX,41746172-6931-4333-904d-582e6b696361,E*
G04 #@! TF.SameCoordinates,Original*
G04 #@! TF.FileFunction,Soldermask,Top*
G04 #@! TF.FilePolarity,Negative*
%FSLAX46Y46*%
G04 Gerber Fmt 4.6, Leading zero omitted, Abs format (unit mm)*
G04 Created by KiCad (PCBNEW 5.1.9+dfsg1-1) date 2022-01-12 18:23:12*
%MOMM*%
%LPD*%
G01*
G04 APERTURE LIST*
%ADD10O,1.700000X1.700000*%
%ADD11R,1.700000X1.700000*%
%ADD12C,2.200000*%
%ADD13C,4.000000*%
%ADD14C,1.700000*%
%ADD15R,1.000000X1.500000*%
%ADD16C,0.100000*%
%ADD17C,1.600000*%
%ADD18O,1.600000X1.600000*%
%ADD19C,1.800000*%
%ADD20R,1.800000X1.800000*%
%ADD21C,3.200000*%
%ADD22C,3.987800*%
%ADD23C,1.750000*%
%ADD24C,3.048000*%
%ADD25C,3.050000*%
%ADD26C,0.800000*%
G04 APERTURE END LIST*
D10*
X78290000Y-51000000D03*
X75750000Y-51000000D03*
D11*
X73210000Y-51000000D03*
D10*
X70670000Y-51000000D03*
X68130000Y-51000000D03*
X65590000Y-51000000D03*
X63050000Y-51000000D03*
D11*
X60510000Y-51000000D03*
D10*
X57970000Y-51000000D03*
X55430000Y-51000000D03*
X52890000Y-51000000D03*
X50350000Y-51000000D03*
D11*
X47810000Y-51000000D03*
D10*
X45270000Y-51000000D03*
X42730000Y-51000000D03*
X40190000Y-51000000D03*
X37650000Y-51000000D03*
D11*
X35110000Y-51000000D03*
D10*
X32570000Y-51000000D03*
X30030000Y-51000000D03*
X30030000Y-33220000D03*
X32570000Y-33220000D03*
D11*
X35110000Y-33220000D03*
D10*
X37650000Y-33220000D03*
X40190000Y-33220000D03*
X42730000Y-33220000D03*
X45270000Y-33220000D03*
D11*
X47810000Y-33220000D03*
D10*
X50350000Y-33220000D03*
X52890000Y-33220000D03*
X55430000Y-33220000D03*
X57970000Y-33220000D03*
D11*
X60510000Y-33220000D03*
D10*
X63050000Y-33220000D03*
X65590000Y-33220000D03*
X68130000Y-33220000D03*
X70670000Y-33220000D03*
D11*
X73210000Y-33220000D03*
D10*
X75750000Y-33220000D03*
X78290000Y-33220000D03*
X30260000Y-44650000D03*
D11*
X30260000Y-42110000D03*
D10*
X30260000Y-39570000D03*
D12*
X319950000Y-97150000D03*
D13*
X317410000Y-102230000D03*
D14*
X312330000Y-102230000D03*
X322490000Y-102230000D03*
D12*
X313600000Y-99690000D03*
D13*
X317400000Y-102230000D03*
D12*
X313590000Y-99690000D03*
X319940000Y-97150000D03*
X56300000Y-58990000D03*
D13*
X53760000Y-64070000D03*
D14*
X48680000Y-64070000D03*
X58840000Y-64070000D03*
D12*
X49950000Y-61530000D03*
D13*
X53760000Y-64060000D03*
D12*
X49950000Y-61520000D03*
X56300000Y-58980000D03*
X170300000Y-58990000D03*
D13*
X167760000Y-64070000D03*
D14*
X162680000Y-64070000D03*
X172840000Y-64070000D03*
D12*
X163950000Y-61530000D03*
D13*
X167760000Y-64060000D03*
D12*
X163950000Y-61520000D03*
X170300000Y-58980000D03*
X99000000Y-116260000D03*
D13*
X96460000Y-121340000D03*
D14*
X91380000Y-121340000D03*
X101540000Y-121340000D03*
D12*
X92650000Y-118800000D03*
D13*
X96460000Y-121330000D03*
D12*
X92650000Y-118790000D03*
X99000000Y-116250000D03*
X179760000Y-78090000D03*
D13*
X177220000Y-83170000D03*
D14*
X172140000Y-83170000D03*
X182300000Y-83170000D03*
D12*
X173410000Y-80630000D03*
D13*
X177220000Y-83160000D03*
D12*
X173410000Y-80620000D03*
X179760000Y-78080000D03*
X118000000Y-116260000D03*
D13*
X115460000Y-121340000D03*
D14*
X110380000Y-121340000D03*
X120540000Y-121340000D03*
D12*
X111650000Y-118800000D03*
D13*
X115460000Y-121330000D03*
D12*
X111650000Y-118790000D03*
X118000000Y-116250000D03*
X103760000Y-78090000D03*
D13*
X101220000Y-83170000D03*
D14*
X96140000Y-83170000D03*
X106300000Y-83170000D03*
D12*
X97410000Y-80630000D03*
D13*
X101220000Y-83160000D03*
D12*
X97410000Y-80620000D03*
X103760000Y-78080000D03*
X156000000Y-116260000D03*
D13*
X153460000Y-121340000D03*
D14*
X148380000Y-121340000D03*
X158540000Y-121340000D03*
D12*
X149650000Y-118800000D03*
D13*
X153460000Y-121330000D03*
D12*
X149650000Y-118790000D03*
X156000000Y-116250000D03*
X198760000Y-78090000D03*
D13*
X196220000Y-83170000D03*
D14*
X191140000Y-83170000D03*
X201300000Y-83170000D03*
D12*
X192410000Y-80630000D03*
D13*
X196220000Y-83160000D03*
D12*
X192410000Y-80620000D03*
X198760000Y-78080000D03*
X160760000Y-78090000D03*
D13*
X158220000Y-83170000D03*
D14*
X153140000Y-83170000D03*
X163300000Y-83170000D03*
D12*
X154410000Y-80630000D03*
D13*
X158220000Y-83160000D03*
D12*
X154410000Y-80620000D03*
X160760000Y-78080000D03*
X298540000Y-97160000D03*
D13*
X296000000Y-102240000D03*
D14*
X290920000Y-102240000D03*
X301080000Y-102240000D03*
D12*
X292190000Y-99700000D03*
D13*
X296000000Y-102230000D03*
D12*
X292190000Y-99690000D03*
X298540000Y-97150000D03*
X270000000Y-116260000D03*
D13*
X267460000Y-121340000D03*
D14*
X262380000Y-121340000D03*
X272540000Y-121340000D03*
D12*
X263650000Y-118800000D03*
D13*
X267460000Y-121330000D03*
D12*
X263650000Y-118790000D03*
X270000000Y-116250000D03*
X260540000Y-97160000D03*
D13*
X258000000Y-102240000D03*
D14*
X252920000Y-102240000D03*
X263080000Y-102240000D03*
D12*
X254190000Y-99700000D03*
D13*
X258000000Y-102230000D03*
D12*
X254190000Y-99690000D03*
X260540000Y-97150000D03*
X108540000Y-97160000D03*
D13*
X106000000Y-102240000D03*
D14*
X100920000Y-102240000D03*
X111080000Y-102240000D03*
D12*
X102190000Y-99700000D03*
D13*
X106000000Y-102230000D03*
D12*
X102190000Y-99690000D03*
X108540000Y-97150000D03*
X141760000Y-78090000D03*
D13*
X139220000Y-83170000D03*
D14*
X134140000Y-83170000D03*
X144300000Y-83170000D03*
D12*
X135410000Y-80630000D03*
D13*
X139220000Y-83160000D03*
D12*
X135410000Y-80620000D03*
X141760000Y-78080000D03*
X84760000Y-78090000D03*
D13*
X82220000Y-83170000D03*
D14*
X77140000Y-83170000D03*
X87300000Y-83170000D03*
D12*
X78410000Y-80630000D03*
D13*
X82220000Y-83160000D03*
D12*
X78410000Y-80620000D03*
X84760000Y-78080000D03*
X279540000Y-97160000D03*
D13*
X277000000Y-102240000D03*
D14*
X271920000Y-102240000D03*
X282080000Y-102240000D03*
D12*
X273190000Y-99700000D03*
D13*
X277000000Y-102230000D03*
D12*
X273190000Y-99690000D03*
X279540000Y-97150000D03*
X251000000Y-116260000D03*
D13*
X248460000Y-121340000D03*
D14*
X243380000Y-121340000D03*
X253540000Y-121340000D03*
D12*
X244650000Y-118800000D03*
D13*
X248460000Y-121330000D03*
D12*
X244650000Y-118790000D03*
X251000000Y-116250000D03*
X255760000Y-78090000D03*
D13*
X253220000Y-83170000D03*
D14*
X248140000Y-83170000D03*
X258300000Y-83170000D03*
D12*
X249410000Y-80630000D03*
D13*
X253220000Y-83160000D03*
D12*
X249410000Y-80620000D03*
X255760000Y-78080000D03*
X236760000Y-78090000D03*
D13*
X234220000Y-83170000D03*
D14*
X229140000Y-83170000D03*
X239300000Y-83170000D03*
D12*
X230410000Y-80630000D03*
D13*
X234220000Y-83160000D03*
D12*
X230410000Y-80620000D03*
X236760000Y-78080000D03*
X194000000Y-116260000D03*
D13*
X191460000Y-121340000D03*
D14*
X186380000Y-121340000D03*
X196540000Y-121340000D03*
D12*
X187650000Y-118800000D03*
D13*
X191460000Y-121330000D03*
D12*
X187650000Y-118790000D03*
X194000000Y-116250000D03*
X213000000Y-116260000D03*
D13*
X210460000Y-121340000D03*
D14*
X205380000Y-121340000D03*
X215540000Y-121340000D03*
D12*
X206650000Y-118800000D03*
D13*
X210460000Y-121330000D03*
D12*
X206650000Y-118790000D03*
X213000000Y-116250000D03*
X265300000Y-58990000D03*
D13*
X262760000Y-64070000D03*
D14*
X257680000Y-64070000D03*
X267840000Y-64070000D03*
D12*
X258950000Y-61530000D03*
D13*
X262760000Y-64060000D03*
D12*
X258950000Y-61520000D03*
X265300000Y-58980000D03*
X241540000Y-97160000D03*
D13*
X239000000Y-102240000D03*
D14*
X233920000Y-102240000D03*
X244080000Y-102240000D03*
D12*
X235190000Y-99700000D03*
D13*
X239000000Y-102230000D03*
D12*
X235190000Y-99690000D03*
X241540000Y-97150000D03*
X222540000Y-97160000D03*
D13*
X220000000Y-102240000D03*
D14*
X214920000Y-102240000D03*
X225080000Y-102240000D03*
D12*
X216190000Y-99700000D03*
D13*
X220000000Y-102230000D03*
D12*
X216190000Y-99690000D03*
X222540000Y-97150000D03*
X203540000Y-97160000D03*
D13*
X201000000Y-102240000D03*
D14*
X195920000Y-102240000D03*
X206080000Y-102240000D03*
D12*
X197190000Y-99700000D03*
D13*
X201000000Y-102230000D03*
D12*
X197190000Y-99690000D03*
X203540000Y-97150000D03*
X322300000Y-116260000D03*
D13*
X319760000Y-121340000D03*
D14*
X314680000Y-121340000D03*
X324840000Y-121340000D03*
D12*
X315950000Y-118800000D03*
D13*
X319760000Y-121330000D03*
D12*
X315950000Y-118790000D03*
X322300000Y-116250000D03*
X217760000Y-78090000D03*
D13*
X215220000Y-83170000D03*
D14*
X210140000Y-83170000D03*
X220300000Y-83170000D03*
D12*
X211410000Y-80630000D03*
D13*
X215220000Y-83160000D03*
D12*
X211410000Y-80620000D03*
X217760000Y-78080000D03*
X184540000Y-97160000D03*
D13*
X182000000Y-102240000D03*
D14*
X176920000Y-102240000D03*
X187080000Y-102240000D03*
D12*
X178190000Y-99700000D03*
D13*
X182000000Y-102230000D03*
D12*
X178190000Y-99690000D03*
X184540000Y-97150000D03*
X284300000Y-58990000D03*
D13*
X281760000Y-64070000D03*
D14*
X276680000Y-64070000D03*
X286840000Y-64070000D03*
D12*
X277950000Y-61530000D03*
D13*
X281760000Y-64060000D03*
D12*
X277950000Y-61520000D03*
X284300000Y-58980000D03*
X165540000Y-97160000D03*
D13*
X163000000Y-102240000D03*
D14*
X157920000Y-102240000D03*
X168080000Y-102240000D03*
D12*
X159190000Y-99700000D03*
D13*
X163000000Y-102230000D03*
D12*
X159190000Y-99690000D03*
X165540000Y-97150000D03*
X293760000Y-78090000D03*
D13*
X291220000Y-83170000D03*
D14*
X286140000Y-83170000D03*
X296300000Y-83170000D03*
D12*
X287410000Y-80630000D03*
D13*
X291220000Y-83160000D03*
D12*
X287410000Y-80620000D03*
X293760000Y-78080000D03*
X122760000Y-78090000D03*
D13*
X120220000Y-83170000D03*
D14*
X115140000Y-83170000D03*
X125300000Y-83170000D03*
D12*
X116410000Y-80630000D03*
D13*
X120220000Y-83160000D03*
D12*
X116410000Y-80620000D03*
X122760000Y-78080000D03*
X303300000Y-58990000D03*
D13*
X300760000Y-64070000D03*
D14*
X295680000Y-64070000D03*
X305840000Y-64070000D03*
D12*
X296950000Y-61530000D03*
D13*
X300760000Y-64060000D03*
D12*
X296950000Y-61520000D03*
X303300000Y-58980000D03*
X274760000Y-78090000D03*
D13*
X272220000Y-83170000D03*
D14*
X267140000Y-83170000D03*
X277300000Y-83170000D03*
D12*
X268410000Y-80630000D03*
D13*
X272220000Y-83160000D03*
D12*
X268410000Y-80620000D03*
X274760000Y-78080000D03*
X127540000Y-97160000D03*
D13*
X125000000Y-102240000D03*
D14*
X119920000Y-102240000D03*
X130080000Y-102240000D03*
D12*
X121190000Y-99700000D03*
D13*
X125000000Y-102230000D03*
D12*
X121190000Y-99690000D03*
X127540000Y-97150000D03*
X232000000Y-116260000D03*
D13*
X229460000Y-121340000D03*
D14*
X224380000Y-121340000D03*
X234540000Y-121340000D03*
D12*
X225650000Y-118800000D03*
D13*
X229460000Y-121330000D03*
D12*
X225650000Y-118790000D03*
X232000000Y-116250000D03*
X137000000Y-116260000D03*
D13*
X134460000Y-121340000D03*
D14*
X129380000Y-121340000D03*
X139540000Y-121340000D03*
D12*
X130650000Y-118800000D03*
D13*
X134460000Y-121330000D03*
D12*
X130650000Y-118790000D03*
X137000000Y-116250000D03*
X322300000Y-58990000D03*
D13*
X319760000Y-64070000D03*
D14*
X314680000Y-64070000D03*
X324840000Y-64070000D03*
D12*
X315950000Y-61530000D03*
D13*
X319760000Y-64060000D03*
D12*
X315950000Y-61520000D03*
X322300000Y-58980000D03*
X175000000Y-116260000D03*
D13*
X172460000Y-121340000D03*
D14*
X167380000Y-121340000D03*
X177540000Y-121340000D03*
D12*
X168650000Y-118800000D03*
D13*
X172460000Y-121330000D03*
D12*
X168650000Y-118790000D03*
X175000000Y-116250000D03*
X89540000Y-97160000D03*
D13*
X87000000Y-102240000D03*
D14*
X81920000Y-102240000D03*
X92080000Y-102240000D03*
D12*
X83190000Y-99700000D03*
D13*
X87000000Y-102230000D03*
D12*
X83190000Y-99690000D03*
X89540000Y-97150000D03*
X227300000Y-58990000D03*
D13*
X224760000Y-64070000D03*
D14*
X219680000Y-64070000D03*
X229840000Y-64070000D03*
D12*
X220950000Y-61530000D03*
D13*
X224760000Y-64060000D03*
D12*
X220950000Y-61520000D03*
X227300000Y-58980000D03*
X208300000Y-58990000D03*
D13*
X205760000Y-64070000D03*
D14*
X200680000Y-64070000D03*
X210840000Y-64070000D03*
D12*
X201950000Y-61530000D03*
D13*
X205760000Y-64060000D03*
D12*
X201950000Y-61520000D03*
X208300000Y-58980000D03*
X189300000Y-58990000D03*
D13*
X186760000Y-64070000D03*
D14*
X181680000Y-64070000D03*
X191840000Y-64070000D03*
D12*
X182950000Y-61530000D03*
D13*
X186760000Y-64060000D03*
D12*
X182950000Y-61520000D03*
X189300000Y-58980000D03*
X151300000Y-58990000D03*
D13*
X148760000Y-64070000D03*
D14*
X143680000Y-64070000D03*
X153840000Y-64070000D03*
D12*
X144950000Y-61530000D03*
D13*
X148760000Y-64060000D03*
D12*
X144950000Y-61520000D03*
X151300000Y-58980000D03*
X132300000Y-58990000D03*
D13*
X129760000Y-64070000D03*
D14*
X124680000Y-64070000D03*
X134840000Y-64070000D03*
D12*
X125950000Y-61530000D03*
D13*
X129760000Y-64060000D03*
D12*
X125950000Y-61520000D03*
X132300000Y-58980000D03*
X113300000Y-58990000D03*
D13*
X110760000Y-64070000D03*
D14*
X105680000Y-64070000D03*
X115840000Y-64070000D03*
D12*
X106950000Y-61530000D03*
D13*
X110760000Y-64060000D03*
D12*
X106950000Y-61520000D03*
X113300000Y-58980000D03*
X94300000Y-58990000D03*
D13*
X91760000Y-64070000D03*
D14*
X86680000Y-64070000D03*
X96840000Y-64070000D03*
D12*
X87950000Y-61530000D03*
D13*
X91760000Y-64060000D03*
D12*
X87950000Y-61520000D03*
X94300000Y-58980000D03*
X75300000Y-58990000D03*
D13*
X72760000Y-64070000D03*
D14*
X67680000Y-64070000D03*
X77840000Y-64070000D03*
D12*
X68950000Y-61530000D03*
D13*
X72760000Y-64060000D03*
D12*
X68950000Y-61520000D03*
X75300000Y-58980000D03*
X246300000Y-58990000D03*
D13*
X243760000Y-64070000D03*
D14*
X238680000Y-64070000D03*
X248840000Y-64070000D03*
D12*
X239950000Y-61530000D03*
D13*
X243760000Y-64060000D03*
D12*
X239950000Y-61520000D03*
X246300000Y-58980000D03*
X146540000Y-97160000D03*
D13*
X144000000Y-102240000D03*
D14*
X138920000Y-102240000D03*
X149080000Y-102240000D03*
D12*
X140190000Y-99700000D03*
D13*
X144000000Y-102230000D03*
D12*
X140190000Y-99690000D03*
X146540000Y-97150000D03*
D15*
X33360000Y-96110000D03*
D16*
G36*
X34660000Y-95360602D02*
G01*
X34684534Y-95360602D01*
X34733365Y-95365412D01*
X34781490Y-95374984D01*
X34828445Y-95389228D01*
X34873778Y-95408005D01*
X34917051Y-95431136D01*
X34957850Y-95458396D01*
X34995779Y-95489524D01*
X35030476Y-95524221D01*
X35061604Y-95562150D01*
X35088864Y-95602949D01*
X35111995Y-95646222D01*
X35130772Y-95691555D01*
X35145016Y-95738510D01*
X35154588Y-95786635D01*
X35159398Y-95835466D01*
X35159398Y-95860000D01*
X35160000Y-95860000D01*
X35160000Y-96360000D01*
X35159398Y-96360000D01*
X35159398Y-96384534D01*
X35154588Y-96433365D01*
X35145016Y-96481490D01*
X35130772Y-96528445D01*
X35111995Y-96573778D01*
X35088864Y-96617051D01*
X35061604Y-96657850D01*
X35030476Y-96695779D01*
X34995779Y-96730476D01*
X34957850Y-96761604D01*
X34917051Y-96788864D01*
X34873778Y-96811995D01*
X34828445Y-96830772D01*
X34781490Y-96845016D01*
X34733365Y-96854588D01*
X34684534Y-96859398D01*
X34660000Y-96859398D01*
X34660000Y-96860000D01*
X34110000Y-96860000D01*
X34110000Y-95360000D01*
X34660000Y-95360000D01*
X34660000Y-95360602D01*
G37*
G36*
X32610000Y-96860000D02*
G01*
X32060000Y-96860000D01*
X32060000Y-96859398D01*
X32035466Y-96859398D01*
X31986635Y-96854588D01*
X31938510Y-96845016D01*
X31891555Y-96830772D01*
X31846222Y-96811995D01*
X31802949Y-96788864D01*
X31762150Y-96761604D01*
X31724221Y-96730476D01*
X31689524Y-96695779D01*
X31658396Y-96657850D01*
X31631136Y-96617051D01*
X31608005Y-96573778D01*
X31589228Y-96528445D01*
X31574984Y-96481490D01*
X31565412Y-96433365D01*
X31560602Y-96384534D01*
X31560602Y-96360000D01*
X31560000Y-96360000D01*
X31560000Y-95860000D01*
X31560602Y-95860000D01*
X31560602Y-95835466D01*
X31565412Y-95786635D01*
X31574984Y-95738510D01*
X31589228Y-95691555D01*
X31608005Y-95646222D01*
X31631136Y-95602949D01*
X31658396Y-95562150D01*
X31689524Y-95524221D01*
X31724221Y-95489524D01*
X31762150Y-95458396D01*
X31802949Y-95431136D01*
X31846222Y-95408005D01*
X31891555Y-95389228D01*
X31938510Y-95374984D01*
X31986635Y-95365412D01*
X32035466Y-95360602D01*
X32060000Y-95360602D01*
X32060000Y-95360000D01*
X32610000Y-95360000D01*
X32610000Y-96860000D01*
G37*
D15*
X33360000Y-89760000D03*
D16*
G36*
X34660000Y-89010602D02*
G01*
X34684534Y-89010602D01*
X34733365Y-89015412D01*
X34781490Y-89024984D01*
X34828445Y-89039228D01*
X34873778Y-89058005D01*
X34917051Y-89081136D01*
X34957850Y-89108396D01*
X34995779Y-89139524D01*
X35030476Y-89174221D01*
X35061604Y-89212150D01*
X35088864Y-89252949D01*
X35111995Y-89296222D01*
X35130772Y-89341555D01*
X35145016Y-89388510D01*
X35154588Y-89436635D01*
X35159398Y-89485466D01*
X35159398Y-89510000D01*
X35160000Y-89510000D01*
X35160000Y-90010000D01*
X35159398Y-90010000D01*
X35159398Y-90034534D01*
X35154588Y-90083365D01*
X35145016Y-90131490D01*
X35130772Y-90178445D01*
X35111995Y-90223778D01*
X35088864Y-90267051D01*
X35061604Y-90307850D01*
X35030476Y-90345779D01*
X34995779Y-90380476D01*
X34957850Y-90411604D01*
X34917051Y-90438864D01*
X34873778Y-90461995D01*
X34828445Y-90480772D01*
X34781490Y-90495016D01*
X34733365Y-90504588D01*
X34684534Y-90509398D01*
X34660000Y-90509398D01*
X34660000Y-90510000D01*
X34110000Y-90510000D01*
X34110000Y-89010000D01*
X34660000Y-89010000D01*
X34660000Y-89010602D01*
G37*
G36*
X32610000Y-90510000D02*
G01*
X32060000Y-90510000D01*
X32060000Y-90509398D01*
X32035466Y-90509398D01*
X31986635Y-90504588D01*
X31938510Y-90495016D01*
X31891555Y-90480772D01*
X31846222Y-90461995D01*
X31802949Y-90438864D01*
X31762150Y-90411604D01*
X31724221Y-90380476D01*
X31689524Y-90345779D01*
X31658396Y-90307850D01*
X31631136Y-90267051D01*
X31608005Y-90223778D01*
X31589228Y-90178445D01*
X31574984Y-90131490D01*
X31565412Y-90083365D01*
X31560602Y-90034534D01*
X31560602Y-90010000D01*
X31560000Y-90010000D01*
X31560000Y-89510000D01*
X31560602Y-89510000D01*
X31560602Y-89485466D01*
X31565412Y-89436635D01*
X31574984Y-89388510D01*
X31589228Y-89341555D01*
X31608005Y-89296222D01*
X31631136Y-89252949D01*
X31658396Y-89212150D01*
X31689524Y-89174221D01*
X31724221Y-89139524D01*
X31762150Y-89108396D01*
X31802949Y-89081136D01*
X31846222Y-89058005D01*
X31891555Y-89039228D01*
X31938510Y-89024984D01*
X31986635Y-89015412D01*
X32035466Y-89010602D01*
X32060000Y-89010602D01*
X32060000Y-89010000D01*
X32610000Y-89010000D01*
X32610000Y-90510000D01*
G37*
D15*
X33610000Y-83410000D03*
D16*
G36*
X34910000Y-82660602D02*
G01*
X34934534Y-82660602D01*
X34983365Y-82665412D01*
X35031490Y-82674984D01*
X35078445Y-82689228D01*
X35123778Y-82708005D01*
X35167051Y-82731136D01*
X35207850Y-82758396D01*
X35245779Y-82789524D01*
X35280476Y-82824221D01*
X35311604Y-82862150D01*
X35338864Y-82902949D01*
X35361995Y-82946222D01*
X35380772Y-82991555D01*
X35395016Y-83038510D01*
X35404588Y-83086635D01*
X35409398Y-83135466D01*
X35409398Y-83160000D01*
X35410000Y-83160000D01*
X35410000Y-83660000D01*
X35409398Y-83660000D01*
X35409398Y-83684534D01*
X35404588Y-83733365D01*
X35395016Y-83781490D01*
X35380772Y-83828445D01*
X35361995Y-83873778D01*
X35338864Y-83917051D01*
X35311604Y-83957850D01*
X35280476Y-83995779D01*
X35245779Y-84030476D01*
X35207850Y-84061604D01*
X35167051Y-84088864D01*
X35123778Y-84111995D01*
X35078445Y-84130772D01*
X35031490Y-84145016D01*
X34983365Y-84154588D01*
X34934534Y-84159398D01*
X34910000Y-84159398D01*
X34910000Y-84160000D01*
X34360000Y-84160000D01*
X34360000Y-82660000D01*
X34910000Y-82660000D01*
X34910000Y-82660602D01*
G37*
G36*
X32860000Y-84160000D02*
G01*
X32310000Y-84160000D01*
X32310000Y-84159398D01*
X32285466Y-84159398D01*
X32236635Y-84154588D01*
X32188510Y-84145016D01*
X32141555Y-84130772D01*
X32096222Y-84111995D01*
X32052949Y-84088864D01*
X32012150Y-84061604D01*
X31974221Y-84030476D01*
X31939524Y-83995779D01*
X31908396Y-83957850D01*
X31881136Y-83917051D01*
X31858005Y-83873778D01*
X31839228Y-83828445D01*
X31824984Y-83781490D01*
X31815412Y-83733365D01*
X31810602Y-83684534D01*
X31810602Y-83660000D01*
X31810000Y-83660000D01*
X31810000Y-83160000D01*
X31810602Y-83160000D01*
X31810602Y-83135466D01*
X31815412Y-83086635D01*
X31824984Y-83038510D01*
X31839228Y-82991555D01*
X31858005Y-82946222D01*
X31881136Y-82902949D01*
X31908396Y-82862150D01*
X31939524Y-82824221D01*
X31974221Y-82789524D01*
X32012150Y-82758396D01*
X32052949Y-82731136D01*
X32096222Y-82708005D01*
X32141555Y-82689228D01*
X32188510Y-82674984D01*
X32236635Y-82665412D01*
X32285466Y-82660602D01*
X32310000Y-82660602D01*
X32310000Y-82660000D01*
X32860000Y-82660000D01*
X32860000Y-84160000D01*
G37*
D15*
X33660000Y-77060000D03*
D16*
G36*
X34960000Y-76310602D02*
G01*
X34984534Y-76310602D01*
X35033365Y-76315412D01*
X35081490Y-76324984D01*
X35128445Y-76339228D01*
X35173778Y-76358005D01*
X35217051Y-76381136D01*
X35257850Y-76408396D01*
X35295779Y-76439524D01*
X35330476Y-76474221D01*
X35361604Y-76512150D01*
X35388864Y-76552949D01*
X35411995Y-76596222D01*
X35430772Y-76641555D01*
X35445016Y-76688510D01*
X35454588Y-76736635D01*
X35459398Y-76785466D01*
X35459398Y-76810000D01*
X35460000Y-76810000D01*
X35460000Y-77310000D01*
X35459398Y-77310000D01*
X35459398Y-77334534D01*
X35454588Y-77383365D01*
X35445016Y-77431490D01*
X35430772Y-77478445D01*
X35411995Y-77523778D01*
X35388864Y-77567051D01*
X35361604Y-77607850D01*
X35330476Y-77645779D01*
X35295779Y-77680476D01*
X35257850Y-77711604D01*
X35217051Y-77738864D01*
X35173778Y-77761995D01*
X35128445Y-77780772D01*
X35081490Y-77795016D01*
X35033365Y-77804588D01*
X34984534Y-77809398D01*
X34960000Y-77809398D01*
X34960000Y-77810000D01*
X34410000Y-77810000D01*
X34410000Y-76310000D01*
X34960000Y-76310000D01*
X34960000Y-76310602D01*
G37*
G36*
X32910000Y-77810000D02*
G01*
X32360000Y-77810000D01*
X32360000Y-77809398D01*
X32335466Y-77809398D01*
X32286635Y-77804588D01*
X32238510Y-77795016D01*
X32191555Y-77780772D01*
X32146222Y-77761995D01*
X32102949Y-77738864D01*
X32062150Y-77711604D01*
X32024221Y-77680476D01*
X31989524Y-77645779D01*
X31958396Y-77607850D01*
X31931136Y-77567051D01*
X31908005Y-77523778D01*
X31889228Y-77478445D01*
X31874984Y-77431490D01*
X31865412Y-77383365D01*
X31860602Y-77334534D01*
X31860602Y-77310000D01*
X31860000Y-77310000D01*
X31860000Y-76810000D01*
X31860602Y-76810000D01*
X31860602Y-76785466D01*
X31865412Y-76736635D01*
X31874984Y-76688510D01*
X31889228Y-76641555D01*
X31908005Y-76596222D01*
X31931136Y-76552949D01*
X31958396Y-76512150D01*
X31989524Y-76474221D01*
X32024221Y-76439524D01*
X32062150Y-76408396D01*
X32102949Y-76381136D01*
X32146222Y-76358005D01*
X32191555Y-76339228D01*
X32238510Y-76324984D01*
X32286635Y-76315412D01*
X32335466Y-76310602D01*
X32360000Y-76310602D01*
X32360000Y-76310000D01*
X32910000Y-76310000D01*
X32910000Y-77810000D01*
G37*
D17*
X340720000Y-95510000D03*
X343220000Y-94260000D03*
X340720000Y-93010000D03*
X343220000Y-91760000D03*
X340720000Y-90510000D03*
X343220000Y-89260000D03*
X340720000Y-88010000D03*
X343220000Y-86760000D03*
X340720000Y-85510000D03*
X343220000Y-84260000D03*
X340720000Y-83010000D03*
X343220000Y-81760000D03*
X340720000Y-80510000D03*
X343220000Y-79260000D03*
X340720000Y-78010000D03*
X343220000Y-76760000D03*
X340720000Y-75510000D03*
X343220000Y-74260000D03*
X340720000Y-73010000D03*
X343220000Y-71760000D03*
X340720000Y-70510000D03*
X343220000Y-69260000D03*
X340720000Y-68010000D03*
X343220000Y-66760000D03*
X340720000Y-65510000D03*
X343220000Y-64260000D03*
X340720000Y-63010000D03*
X343220000Y-61760000D03*
X340720000Y-60510000D03*
X343220000Y-59260000D03*
X340720000Y-58010000D03*
X343220000Y-56760000D03*
D12*
X68150000Y-116250000D03*
D13*
X65610000Y-121330000D03*
D14*
X60530000Y-121330000D03*
X70690000Y-121330000D03*
D12*
X61800000Y-118790000D03*
D13*
X65610000Y-121330000D03*
D12*
X61800000Y-118790000D03*
X68150000Y-116250000D03*
X185135000Y-27520000D03*
D13*
X182595000Y-32600000D03*
D14*
X177515000Y-32600000D03*
X187675000Y-32600000D03*
D12*
X178785000Y-30060000D03*
X185125000Y-27530000D03*
D13*
X182585000Y-32610000D03*
D12*
X178775000Y-30070000D03*
X156560000Y-27520000D03*
D13*
X154020000Y-32600000D03*
D14*
X148940000Y-32600000D03*
X159100000Y-32600000D03*
D12*
X150210000Y-30060000D03*
X156550000Y-27530000D03*
D13*
X154010000Y-32610000D03*
D12*
X150200000Y-30070000D03*
X127985000Y-27520000D03*
D13*
X125445000Y-32600000D03*
D14*
X120365000Y-32600000D03*
X130525000Y-32600000D03*
D12*
X121635000Y-30060000D03*
X127975000Y-27530000D03*
D13*
X125435000Y-32610000D03*
D12*
X121625000Y-30070000D03*
X99410000Y-27520000D03*
D13*
X96870000Y-32600000D03*
D14*
X91790000Y-32600000D03*
X101950000Y-32600000D03*
D12*
X93060000Y-30060000D03*
X99400000Y-27530000D03*
D13*
X96860000Y-32610000D03*
D12*
X93050000Y-30070000D03*
D18*
X37220000Y-60425000D03*
D17*
X37220000Y-68045000D03*
D11*
X38440000Y-25500000D03*
D10*
X40980000Y-25500000D03*
X43520000Y-25500000D03*
X46060000Y-25500000D03*
X48600000Y-25500000D03*
X51140000Y-25500000D03*
X53680000Y-25500000D03*
X56220000Y-25500000D03*
X58760000Y-25500000D03*
X61300000Y-25500000D03*
X63840000Y-25500000D03*
X66380000Y-25500000D03*
X68920000Y-25500000D03*
X71460000Y-25500000D03*
D12*
X296125000Y-116240000D03*
D13*
X293585000Y-121320000D03*
D14*
X288505000Y-121320000D03*
X298665000Y-121320000D03*
D12*
X289775000Y-118780000D03*
D13*
X293585000Y-121330000D03*
D12*
X289775000Y-118790000D03*
X296125000Y-116250000D03*
X63340000Y-97140000D03*
D13*
X60800000Y-102220000D03*
D14*
X55720000Y-102220000D03*
X65880000Y-102220000D03*
D12*
X56990000Y-99680000D03*
D13*
X60800000Y-102230000D03*
D12*
X56990000Y-99690000D03*
X63340000Y-97150000D03*
X242210000Y-27520000D03*
D13*
X239670000Y-32600000D03*
D14*
X234590000Y-32600000D03*
X244750000Y-32600000D03*
D12*
X235860000Y-30060000D03*
X242200000Y-27530000D03*
D13*
X239660000Y-32610000D03*
D12*
X235850000Y-30070000D03*
X270710000Y-27520000D03*
D13*
X268170000Y-32600000D03*
D14*
X263090000Y-32600000D03*
X273250000Y-32600000D03*
D12*
X264360000Y-30060000D03*
X270700000Y-27530000D03*
D13*
X268160000Y-32610000D03*
D12*
X264350000Y-30070000D03*
X327710000Y-27520000D03*
D13*
X325170000Y-32600000D03*
D14*
X320090000Y-32600000D03*
X330250000Y-32600000D03*
D12*
X321360000Y-30060000D03*
X327700000Y-27530000D03*
D13*
X325160000Y-32610000D03*
D12*
X321350000Y-30070000D03*
X299210000Y-27520000D03*
D13*
X296670000Y-32600000D03*
D14*
X291590000Y-32600000D03*
X301750000Y-32600000D03*
D12*
X292860000Y-30060000D03*
X299200000Y-27530000D03*
D13*
X296660000Y-32610000D03*
D12*
X292850000Y-30070000D03*
X213710000Y-27520000D03*
D13*
X211170000Y-32600000D03*
D14*
X206090000Y-32600000D03*
X216250000Y-32600000D03*
D12*
X207360000Y-30060000D03*
X213700000Y-27530000D03*
D13*
X211160000Y-32610000D03*
D12*
X207350000Y-30070000D03*
D19*
X31900000Y-143200000D03*
D20*
X29360000Y-143200000D03*
D12*
X61050000Y-78060000D03*
D13*
X58510000Y-83140000D03*
D14*
X53430000Y-83140000D03*
X63590000Y-83140000D03*
D12*
X54700000Y-80600000D03*
D13*
X58520000Y-83160000D03*
D12*
X54710000Y-80620000D03*
X61060000Y-78080000D03*
X317550000Y-78060000D03*
D13*
X315010000Y-83140000D03*
D14*
X309930000Y-83140000D03*
X320090000Y-83140000D03*
D12*
X311200000Y-80600000D03*
D13*
X315020000Y-83160000D03*
D12*
X311210000Y-80620000D03*
X317560000Y-78080000D03*
D21*
X185810000Y-44550000D03*
X336940000Y-40740000D03*
X336940000Y-139800000D03*
X37220000Y-139800000D03*
X27010000Y-138020000D03*
X27010000Y-27530000D03*
X348320000Y-27530000D03*
X348320000Y-148180000D03*
D22*
X189490000Y-140380000D03*
D23*
X184410000Y-140380000D03*
X194570000Y-140380000D03*
D24*
X132340000Y-133395000D03*
X246640000Y-133395000D03*
D22*
X132340000Y-148635000D03*
X246640000Y-148635000D03*
D12*
X115700000Y-135270000D03*
D13*
X113160000Y-140350000D03*
D14*
X108080000Y-140350000D03*
X118240000Y-140350000D03*
D12*
X109350000Y-137810000D03*
D13*
X113160000Y-140340000D03*
D12*
X109350000Y-137800000D03*
X115700000Y-135260000D03*
X268300000Y-135300000D03*
D13*
X265760000Y-140380000D03*
D14*
X260680000Y-140380000D03*
X270840000Y-140380000D03*
D12*
X261950000Y-137840000D03*
D13*
X265760000Y-140370000D03*
D12*
X261950000Y-137830000D03*
X268300000Y-135290000D03*
D13*
X189490000Y-140360000D03*
D14*
X184410000Y-140360000D03*
X194570000Y-140360000D03*
D13*
X127030000Y-148600000D03*
D25*
X127030000Y-133360000D03*
X252030000Y-133360000D03*
D13*
X252030000Y-148600000D03*
D26*
X318060000Y-55823500D03*
X243967700Y-25871100D03*
X311495000Y-48053300D03*
X312019200Y-44029800D03*
X301870900Y-29030300D03*
X299276000Y-25287900D03*
X68212800Y-100005800D03*
X327035500Y-58990000D03*
X328726300Y-67558800D03*
X333293300Y-70161100D03*
X88765000Y-57424100D03*
X331127500Y-65185100D03*
X324461800Y-49838100D03*
X164535400Y-59785800D03*
X32747600Y-81660300D03*
X297470200Y-86316400D03*
X70592800Y-48525300D03*
X65166900Y-84934200D03*
X60462700Y-37475300D03*
X63165600Y-85267300D03*
X60633500Y-49493600D03*
X204436000Y-88840600D03*
X33618000Y-91123100D03*
X176155500Y-86634000D03*
M02*
