G04 #@! TF.GenerationSoftware,KiCad,Pcbnew,5.1.9+dfsg1-1*
G04 #@! TF.CreationDate,2021-12-31T17:37:14+01:00*
G04 #@! TF.ProjectId,Atari130MXPlate,41746172-6931-4333-904d-58506c617465,C.5*
G04 #@! TF.SameCoordinates,Original*
G04 #@! TF.FileFunction,Profile,NP*
%FSLAX46Y46*%
G04 Gerber Fmt 4.6, Leading zero omitted, Abs format (unit mm)*
G04 Created by KiCad (PCBNEW 5.1.9+dfsg1-1) date 2021-12-31 17:37:14*
%MOMM*%
%LPD*%
G01*
G04 APERTURE LIST*
G04 #@! TA.AperFunction,Profile*
%ADD10C,0.100000*%
G04 #@! TD*
G04 #@! TA.AperFunction,Profile*
%ADD11C,0.050000*%
G04 #@! TD*
G04 #@! TA.AperFunction,Profile*
%ADD12C,0.120000*%
G04 #@! TD*
G04 APERTURE END LIST*
D10*
X115734300Y-146916400D02*
X119036100Y-146916400D01*
X126901200Y-136853710D02*
X133067300Y-136853710D01*
X133067400Y-141455400D02*
X126901200Y-141453580D01*
X121876600Y-145938500D02*
X121876600Y-146903700D01*
X125175700Y-146903700D02*
X125175700Y-145887700D01*
X125175800Y-145887700D02*
X126901300Y-145887700D01*
X125175800Y-132666770D02*
X121876700Y-132666770D01*
X126901200Y-136853710D02*
X126901200Y-133623510D01*
X119623200Y-145935240D02*
X121876600Y-145938500D01*
X125175700Y-133623510D02*
X125175800Y-132666770D01*
X126901200Y-133623510D02*
X125175700Y-133623510D01*
X121876600Y-146903700D02*
X125175700Y-146903700D01*
X121873800Y-132667000D02*
X121873800Y-133636210D01*
X126901300Y-145887700D02*
X126901200Y-141453580D01*
X134792500Y-145935240D02*
X134792500Y-146916400D01*
X252385500Y-146165370D02*
X264879500Y-146165370D01*
X176260400Y-145565930D02*
X177061200Y-145565930D01*
X105623660Y-132765310D02*
X104823030Y-132765310D01*
X177061200Y-145565930D02*
X177061300Y-146130530D01*
X119036100Y-146916400D02*
X119036100Y-146165370D01*
X264879500Y-132165910D02*
X250878500Y-132165910D01*
X138091600Y-146916400D02*
X138091600Y-145900400D01*
X193441800Y-132765310D02*
X193441900Y-132131070D01*
X194242600Y-132765310D02*
X193441800Y-132765310D01*
X233067500Y-145935240D02*
X234791500Y-145935240D01*
X252385600Y-146881560D02*
X252385500Y-146165370D01*
X238091500Y-145935240D02*
X239816500Y-145935240D01*
X194242600Y-141466280D02*
X233067500Y-141466280D01*
X119623200Y-132165910D02*
X105623660Y-132165910D01*
X233067500Y-141466280D02*
X233067500Y-145935240D01*
X120422400Y-133636210D02*
X120422400Y-132765310D01*
X121873800Y-133636210D02*
X120422400Y-133636210D01*
X105623660Y-145565930D02*
X105623660Y-146165370D01*
X247360500Y-141466280D02*
X247360500Y-145935240D01*
X139817100Y-141466280D02*
X176260400Y-141466280D01*
X115734300Y-146165370D02*
X115734300Y-146916400D01*
X119623200Y-132765310D02*
X119623200Y-132165910D01*
X120422400Y-132765310D02*
X119623200Y-132765310D01*
X176260400Y-141466280D02*
X176260400Y-145565930D01*
X264879500Y-132765310D02*
X264879500Y-132165910D01*
X265678500Y-132765310D02*
X264879500Y-132765310D01*
X139817200Y-136831570D02*
X139817100Y-133636210D01*
X265678600Y-145531090D02*
X265678500Y-132765310D01*
X133067400Y-133601370D02*
X133067300Y-136853710D01*
X193441800Y-145565930D02*
X194242600Y-145565930D01*
X119623200Y-146165370D02*
X119623200Y-145935240D01*
X133067300Y-145935240D02*
X134792500Y-145935240D01*
X239816500Y-141466280D02*
X247360500Y-141466280D01*
X104823030Y-145565930D02*
X105623660Y-145565930D01*
X194242600Y-145565930D02*
X194242600Y-141466280D01*
X247360500Y-145935240D02*
X249085500Y-145935240D01*
X139817100Y-133636210D02*
X138091600Y-133636210D01*
X104823030Y-132765310D02*
X104823030Y-145565930D01*
X249085500Y-132714310D02*
X249085600Y-133601370D01*
X250878500Y-132714310D02*
X249085500Y-132714310D01*
X264879500Y-146165370D02*
X264879600Y-145531090D01*
X239816500Y-145935240D02*
X239816500Y-141466280D01*
X250878500Y-132165910D02*
X250878500Y-132714310D01*
X134792500Y-146916400D02*
X138091600Y-146916400D01*
X119036100Y-146165370D02*
X119623200Y-146165370D01*
X234791500Y-145935240D02*
X234791600Y-146881560D01*
X249085500Y-145935240D02*
X249085600Y-146881560D01*
X105623660Y-132165910D02*
X105623660Y-132765310D01*
X105623660Y-146165370D02*
X115734300Y-146165370D01*
X238091600Y-133601370D02*
X238091600Y-132679470D01*
X239816600Y-133601370D02*
X238091600Y-133601370D01*
X234791600Y-132679470D02*
X234791600Y-133601370D01*
X238091600Y-132679470D02*
X234791600Y-132679470D01*
X193441900Y-146130530D02*
X193441800Y-145565930D01*
X238091600Y-146881560D02*
X238091500Y-145935240D01*
X249085600Y-133601370D02*
X247360600Y-133601370D01*
X134792600Y-132679470D02*
X134792600Y-133601370D01*
X138091700Y-132679470D02*
X134792600Y-132679470D01*
X264879600Y-145531090D02*
X265678600Y-145531090D01*
X233067600Y-133601370D02*
X233067600Y-136831570D01*
X234791600Y-133601370D02*
X233067600Y-133601370D01*
X138091700Y-133632200D02*
X138091700Y-132679470D01*
X133067400Y-141455400D02*
X133067300Y-145935240D01*
X247360600Y-133601370D02*
X247360600Y-136831570D01*
X176260500Y-132730470D02*
X176260500Y-136831570D01*
X177061300Y-132730470D02*
X176260500Y-132730470D01*
X134792600Y-133601370D02*
X133067400Y-133601370D01*
X177061300Y-132131070D02*
X177061300Y-132730470D01*
X193441900Y-132131070D02*
X177061300Y-132131070D01*
X234791600Y-146881560D02*
X238091600Y-146881560D01*
X177061300Y-146130530D02*
X193441900Y-146130530D01*
X249085600Y-146881560D02*
X252385600Y-146881560D01*
X176260500Y-136831570D02*
X139817200Y-136831570D01*
X239816600Y-136831570D02*
X239816600Y-133601370D01*
X247360600Y-136831570D02*
X239816600Y-136831570D01*
X194242700Y-136831570D02*
X194242600Y-132765310D01*
X233067600Y-136831570D02*
X194242700Y-136831570D01*
X139817200Y-145900400D02*
X139817100Y-141466280D01*
X138091700Y-145900400D02*
X139817200Y-145900400D01*
D11*
X85401918Y-23152338D02*
G75*
G02*
X88902060Y-21690000I3530622J-3530622D01*
G01*
X63432540Y-45218494D02*
G75*
G02*
X59897006Y-46682960I-3535534J3535534D01*
G01*
X32370000Y-51690000D02*
G75*
G02*
X37370000Y-46690000I5000000J0D01*
G01*
X37370000Y-142690000D02*
G75*
G02*
X32370000Y-137690000I0J5000000D01*
G01*
X93977645Y-142706976D02*
X37370000Y-142690000D01*
X99720157Y-146884367D02*
G75*
G03*
X93977645Y-142706976I-5742512J-1858319D01*
G01*
X99720157Y-146884367D02*
G75*
G03*
X104418620Y-150174266I4698463J1710101D01*
G01*
X278089444Y-146906806D02*
G75*
G02*
X283838715Y-142708398I5749271J-1837302D01*
G01*
X278089444Y-146906806D02*
G75*
G02*
X273390981Y-150196705I-4698463J1710101D01*
G01*
X340370000Y-137690000D02*
G75*
G02*
X335370000Y-142690000I-5000000J0D01*
G01*
X335370000Y-21690000D02*
G75*
G02*
X340370000Y-26690000I0J-5000000D01*
G01*
X63432540Y-45218494D02*
X85401918Y-23152338D01*
X37370000Y-46690000D02*
X59897006Y-46682960D01*
X32370000Y-137690000D02*
X32370000Y-51690000D01*
X273390981Y-150196705D02*
X104418620Y-150174266D01*
X335370000Y-21690000D02*
X88902060Y-21690000D01*
X340370000Y-137690000D02*
X340370000Y-26690000D01*
X283838715Y-142708398D02*
X335370000Y-142690000D01*
D12*
X89470000Y-38240000D02*
X103470000Y-38240000D01*
X89470000Y-24240000D02*
X103470000Y-24240000D01*
X89470000Y-25240000D02*
X89470000Y-37240000D01*
X103470000Y-25240000D02*
X103470000Y-37240000D01*
X103470000Y-24240000D02*
G75*
G02*
X103470000Y-25240000I0J-500000D01*
G01*
X89470000Y-25240000D02*
G75*
G02*
X89470000Y-24240000I0J500000D01*
G01*
X103470000Y-37240000D02*
G75*
G02*
X103470000Y-38240000I0J-500000D01*
G01*
X89470000Y-38240000D02*
G75*
G02*
X89470000Y-37240000I0J500000D01*
G01*
X118045000Y-38240000D02*
X132045000Y-38240000D01*
X118045000Y-24240000D02*
X132045000Y-24240000D01*
X118045000Y-25240000D02*
X118045000Y-37240000D01*
X132045000Y-25240000D02*
X132045000Y-37240000D01*
X132045000Y-24240000D02*
G75*
G02*
X132045000Y-25240000I0J-500000D01*
G01*
X118045000Y-25240000D02*
G75*
G02*
X118045000Y-24240000I0J500000D01*
G01*
X132045000Y-37240000D02*
G75*
G02*
X132045000Y-38240000I0J-500000D01*
G01*
X118045000Y-38240000D02*
G75*
G02*
X118045000Y-37240000I0J500000D01*
G01*
X146620000Y-38240000D02*
X160620000Y-38240000D01*
X146620000Y-24240000D02*
X160620000Y-24240000D01*
X146620000Y-25240000D02*
X146620000Y-37240000D01*
X160620000Y-25240000D02*
X160620000Y-37240000D01*
X160620000Y-24240000D02*
G75*
G02*
X160620000Y-25240000I0J-500000D01*
G01*
X146620000Y-25240000D02*
G75*
G02*
X146620000Y-24240000I0J500000D01*
G01*
X160620000Y-37240000D02*
G75*
G02*
X160620000Y-38240000I0J-500000D01*
G01*
X146620000Y-38240000D02*
G75*
G02*
X146620000Y-37240000I0J500000D01*
G01*
X175195000Y-38240000D02*
X189195000Y-38240000D01*
X175195000Y-24240000D02*
X189195000Y-24240000D01*
X175195000Y-25240000D02*
X175195000Y-37240000D01*
X189195000Y-25240000D02*
X189195000Y-37240000D01*
X189195000Y-24240000D02*
G75*
G02*
X189195000Y-25240000I0J-500000D01*
G01*
X175195000Y-25240000D02*
G75*
G02*
X175195000Y-24240000I0J500000D01*
G01*
X189195000Y-37240000D02*
G75*
G02*
X189195000Y-38240000I0J-500000D01*
G01*
X175195000Y-38240000D02*
G75*
G02*
X175195000Y-37240000I0J500000D01*
G01*
X289270000Y-38240000D02*
X303270000Y-38240000D01*
X289270000Y-24240000D02*
X303270000Y-24240000D01*
X289270000Y-25240000D02*
X289270000Y-37240000D01*
X303270000Y-25240000D02*
X303270000Y-37240000D01*
X303270000Y-24240000D02*
G75*
G02*
X303270000Y-25240000I0J-500000D01*
G01*
X289270000Y-25240000D02*
G75*
G02*
X289270000Y-24240000I0J500000D01*
G01*
X303270000Y-37240000D02*
G75*
G02*
X303270000Y-38240000I0J-500000D01*
G01*
X289270000Y-38240000D02*
G75*
G02*
X289270000Y-37240000I0J500000D01*
G01*
X232270000Y-38240000D02*
X246270000Y-38240000D01*
X232270000Y-24240000D02*
X246270000Y-24240000D01*
X232270000Y-25240000D02*
X232270000Y-37240000D01*
X246270000Y-25240000D02*
X246270000Y-37240000D01*
X246270000Y-24240000D02*
G75*
G02*
X246270000Y-25240000I0J-500000D01*
G01*
X232270000Y-25240000D02*
G75*
G02*
X232270000Y-24240000I0J500000D01*
G01*
X246270000Y-37240000D02*
G75*
G02*
X246270000Y-38240000I0J-500000D01*
G01*
X232270000Y-38240000D02*
G75*
G02*
X232270000Y-37240000I0J500000D01*
G01*
X203770000Y-38240000D02*
X217770000Y-38240000D01*
X203770000Y-24240000D02*
X217770000Y-24240000D01*
X203770000Y-25240000D02*
X203770000Y-37240000D01*
X217770000Y-25240000D02*
X217770000Y-37240000D01*
X217770000Y-24240000D02*
G75*
G02*
X217770000Y-25240000I0J-500000D01*
G01*
X203770000Y-25240000D02*
G75*
G02*
X203770000Y-24240000I0J500000D01*
G01*
X217770000Y-37240000D02*
G75*
G02*
X217770000Y-38240000I0J-500000D01*
G01*
X203770000Y-38240000D02*
G75*
G02*
X203770000Y-37240000I0J500000D01*
G01*
X317770000Y-38240000D02*
X331770000Y-38240000D01*
X317770000Y-24240000D02*
X331770000Y-24240000D01*
X317770000Y-25240000D02*
X317770000Y-37240000D01*
X331770000Y-25240000D02*
X331770000Y-37240000D01*
X331770000Y-24240000D02*
G75*
G02*
X331770000Y-25240000I0J-500000D01*
G01*
X317770000Y-25240000D02*
G75*
G02*
X317770000Y-24240000I0J500000D01*
G01*
X331770000Y-37240000D02*
G75*
G02*
X331770000Y-38240000I0J-500000D01*
G01*
X317770000Y-38240000D02*
G75*
G02*
X317770000Y-37240000I0J500000D01*
G01*
X260770000Y-38240000D02*
X274770000Y-38240000D01*
X260770000Y-24240000D02*
X274770000Y-24240000D01*
X260770000Y-25240000D02*
X260770000Y-37240000D01*
X274770000Y-25240000D02*
X274770000Y-37240000D01*
X274770000Y-24240000D02*
G75*
G02*
X274770000Y-25240000I0J-500000D01*
G01*
X260770000Y-25240000D02*
G75*
G02*
X260770000Y-24240000I0J500000D01*
G01*
X274770000Y-37240000D02*
G75*
G02*
X274770000Y-38240000I0J-500000D01*
G01*
X260770000Y-38240000D02*
G75*
G02*
X260770000Y-37240000I0J500000D01*
G01*
X82920000Y-128460000D02*
X82920000Y-123960000D01*
X78220000Y-123960000D02*
X78920000Y-123960000D01*
X82920000Y-114260000D02*
X82920000Y-119060000D01*
X82920000Y-123960000D02*
X85220000Y-123960000D01*
X85220000Y-123960000D02*
X85220000Y-119060000D01*
X78920000Y-128460000D02*
X82920000Y-128460000D01*
X78920000Y-123960000D02*
X78920000Y-128460000D01*
X85220000Y-119060000D02*
X82920000Y-119060000D01*
X78220000Y-114260000D02*
X82920000Y-114260000D01*
X78220000Y-124760000D02*
X78220000Y-123960000D01*
X74920000Y-124760000D02*
X78220000Y-124760000D01*
X74920000Y-110560000D02*
X74920000Y-124760000D01*
X78220000Y-110560000D02*
X78220000Y-114260000D01*
X74920000Y-110560000D02*
X78220000Y-110560000D01*
X72220000Y-113960000D02*
X72220000Y-125960000D01*
X58220000Y-126960000D02*
X72220000Y-126960000D01*
X58220000Y-112960000D02*
X72220000Y-112960000D01*
X58220000Y-113960000D02*
X58220000Y-125960000D01*
X47520000Y-114260000D02*
X47520000Y-119060000D01*
X45220000Y-119060000D02*
X47520000Y-119060000D01*
X45220000Y-123960000D02*
X45220000Y-119060000D01*
X47520000Y-123960000D02*
X45220000Y-123960000D01*
X47520000Y-128460000D02*
X47520000Y-123960000D01*
X51520000Y-128460000D02*
X47520000Y-128460000D01*
X51520000Y-123960000D02*
X51520000Y-128460000D01*
X52220000Y-123960000D02*
X51520000Y-123960000D01*
X52220000Y-124760000D02*
X52220000Y-123960000D01*
X55520000Y-124760000D02*
X52220000Y-124760000D01*
X55520000Y-110560000D02*
X55520000Y-124760000D01*
X55520000Y-110560000D02*
X52220000Y-110560000D01*
X52220000Y-110560000D02*
X52220000Y-114260000D01*
X52220000Y-114260000D02*
X47520000Y-114260000D01*
X58220000Y-126960000D02*
G75*
G02*
X58220000Y-125960000I0J500000D01*
G01*
X72220000Y-112960000D02*
G75*
G02*
X72220000Y-113960000I0J-500000D01*
G01*
X58220000Y-113960000D02*
G75*
G02*
X58220000Y-112960000I0J500000D01*
G01*
X72220000Y-125960000D02*
G75*
G02*
X72220000Y-126960000I0J-500000D01*
G01*
X324010000Y-94860000D02*
X324010000Y-106860000D01*
X310010000Y-93860000D02*
X324010000Y-93860000D01*
X310010000Y-107860000D02*
X324010000Y-107860000D01*
X310010000Y-94860000D02*
X310010000Y-106860000D01*
X310010000Y-107860000D02*
G75*
G02*
X310010000Y-106860000I0J500000D01*
G01*
X324010000Y-106860000D02*
G75*
G02*
X324010000Y-107860000I0J-500000D01*
G01*
X310010000Y-94860000D02*
G75*
G02*
X310010000Y-93860000I0J500000D01*
G01*
X324010000Y-93860000D02*
G75*
G02*
X324010000Y-94860000I0J-500000D01*
G01*
X67410000Y-94860000D02*
X67410000Y-106860000D01*
X53410000Y-94860000D02*
X53410000Y-106860000D01*
X53410000Y-93860000D02*
X67410000Y-93860000D01*
X53410000Y-107860000D02*
X67410000Y-107860000D01*
X67410000Y-93860000D02*
G75*
G02*
X67410000Y-94860000I0J-500000D01*
G01*
X53410000Y-94860000D02*
G75*
G02*
X53410000Y-93860000I0J500000D01*
G01*
X67410000Y-106860000D02*
G75*
G02*
X67410000Y-107860000I0J-500000D01*
G01*
X53410000Y-107860000D02*
G75*
G02*
X53410000Y-106860000I0J500000D01*
G01*
X300195000Y-113960000D02*
X300195000Y-125960000D01*
X286195000Y-113960000D02*
X286195000Y-125960000D01*
X286195000Y-112960000D02*
X300195000Y-112960000D01*
X286195000Y-126960000D02*
X300195000Y-126960000D01*
X300195000Y-112960000D02*
G75*
G02*
X300195000Y-113960000I0J-500000D01*
G01*
X286195000Y-113960000D02*
G75*
G02*
X286195000Y-112960000I0J500000D01*
G01*
X300195000Y-125960000D02*
G75*
G02*
X300195000Y-126960000I0J-500000D01*
G01*
X286195000Y-126960000D02*
G75*
G02*
X286195000Y-125960000I0J500000D01*
G01*
X51130000Y-88790000D02*
X65130000Y-88790000D01*
X51130000Y-74790000D02*
X65130000Y-74790000D01*
X51130000Y-75790000D02*
X51130000Y-87790000D01*
X65130000Y-75790000D02*
X65130000Y-87790000D01*
X65130000Y-74790000D02*
G75*
G02*
X65130000Y-75790000I0J-500000D01*
G01*
X51130000Y-75790000D02*
G75*
G02*
X51130000Y-74790000I0J500000D01*
G01*
X65130000Y-87790000D02*
G75*
G02*
X65130000Y-88790000I0J-500000D01*
G01*
X51130000Y-88790000D02*
G75*
G02*
X51130000Y-87790000I0J500000D01*
G01*
X307630000Y-88790000D02*
X321630000Y-88790000D01*
X307630000Y-74790000D02*
X321630000Y-74790000D01*
X307630000Y-75790000D02*
X307630000Y-87790000D01*
X321630000Y-75790000D02*
X321630000Y-87790000D01*
X321630000Y-74790000D02*
G75*
G02*
X321630000Y-75790000I0J-500000D01*
G01*
X307630000Y-75790000D02*
G75*
G02*
X307630000Y-74790000I0J500000D01*
G01*
X321630000Y-87790000D02*
G75*
G02*
X321630000Y-88790000I0J-500000D01*
G01*
X307630000Y-88790000D02*
G75*
G02*
X307630000Y-87790000I0J500000D01*
G01*
X60370000Y-56690000D02*
X60370000Y-68690000D01*
X46370000Y-55690000D02*
X60370000Y-55690000D01*
X46370000Y-69690000D02*
X60370000Y-69690000D01*
X46370000Y-56690000D02*
X46370000Y-68690000D01*
X46370000Y-69690000D02*
G75*
G02*
X46370000Y-68690000I0J500000D01*
G01*
X60370000Y-68690000D02*
G75*
G02*
X60370000Y-69690000I0J-500000D01*
G01*
X46370000Y-56690000D02*
G75*
G02*
X46370000Y-55690000I0J500000D01*
G01*
X60370000Y-55690000D02*
G75*
G02*
X60370000Y-56690000I0J-500000D01*
G01*
X207610000Y-94860000D02*
X207610000Y-106860000D01*
X193610000Y-93860000D02*
X207610000Y-93860000D01*
X193610000Y-107860000D02*
X207610000Y-107860000D01*
X193610000Y-94860000D02*
X193610000Y-106860000D01*
X193610000Y-107860000D02*
G75*
G02*
X193610000Y-106860000I0J500000D01*
G01*
X207610000Y-106860000D02*
G75*
G02*
X207610000Y-107860000I0J-500000D01*
G01*
X193610000Y-94860000D02*
G75*
G02*
X193610000Y-93860000I0J500000D01*
G01*
X207610000Y-93860000D02*
G75*
G02*
X207610000Y-94860000I0J-500000D01*
G01*
X150610000Y-94860000D02*
X150610000Y-106860000D01*
X136610000Y-93860000D02*
X150610000Y-93860000D01*
X136610000Y-107860000D02*
X150610000Y-107860000D01*
X136610000Y-94860000D02*
X136610000Y-106860000D01*
X136610000Y-107860000D02*
G75*
G02*
X136610000Y-106860000I0J500000D01*
G01*
X150610000Y-106860000D02*
G75*
G02*
X150610000Y-107860000I0J-500000D01*
G01*
X136610000Y-94860000D02*
G75*
G02*
X136610000Y-93860000I0J500000D01*
G01*
X150610000Y-93860000D02*
G75*
G02*
X150610000Y-94860000I0J-500000D01*
G01*
X141070000Y-113960000D02*
X141070000Y-125960000D01*
X127070000Y-112960000D02*
X141070000Y-112960000D01*
X127070000Y-126960000D02*
X141070000Y-126960000D01*
X127070000Y-113960000D02*
X127070000Y-125960000D01*
X127070000Y-126960000D02*
G75*
G02*
X127070000Y-125960000I0J500000D01*
G01*
X141070000Y-125960000D02*
G75*
G02*
X141070000Y-126960000I0J-500000D01*
G01*
X127070000Y-113960000D02*
G75*
G02*
X127070000Y-112960000I0J500000D01*
G01*
X141070000Y-112960000D02*
G75*
G02*
X141070000Y-113960000I0J-500000D01*
G01*
X236070000Y-113960000D02*
X236070000Y-125960000D01*
X222070000Y-112960000D02*
X236070000Y-112960000D01*
X222070000Y-126960000D02*
X236070000Y-126960000D01*
X222070000Y-113960000D02*
X222070000Y-125960000D01*
X222070000Y-126960000D02*
G75*
G02*
X222070000Y-125960000I0J500000D01*
G01*
X236070000Y-125960000D02*
G75*
G02*
X236070000Y-126960000I0J-500000D01*
G01*
X222070000Y-113960000D02*
G75*
G02*
X222070000Y-112960000I0J500000D01*
G01*
X236070000Y-112960000D02*
G75*
G02*
X236070000Y-113960000I0J-500000D01*
G01*
X131610000Y-94860000D02*
X131610000Y-106860000D01*
X117610000Y-93860000D02*
X131610000Y-93860000D01*
X117610000Y-107860000D02*
X131610000Y-107860000D01*
X117610000Y-94860000D02*
X117610000Y-106860000D01*
X117610000Y-107860000D02*
G75*
G02*
X117610000Y-106860000I0J500000D01*
G01*
X131610000Y-106860000D02*
G75*
G02*
X131610000Y-107860000I0J-500000D01*
G01*
X117610000Y-94860000D02*
G75*
G02*
X117610000Y-93860000I0J500000D01*
G01*
X131610000Y-93860000D02*
G75*
G02*
X131610000Y-94860000I0J-500000D01*
G01*
X297830000Y-75790000D02*
X297830000Y-87790000D01*
X283830000Y-74790000D02*
X297830000Y-74790000D01*
X283830000Y-88790000D02*
X297830000Y-88790000D01*
X283830000Y-75790000D02*
X283830000Y-87790000D01*
X283830000Y-88790000D02*
G75*
G02*
X283830000Y-87790000I0J500000D01*
G01*
X297830000Y-87790000D02*
G75*
G02*
X297830000Y-88790000I0J-500000D01*
G01*
X283830000Y-75790000D02*
G75*
G02*
X283830000Y-74790000I0J500000D01*
G01*
X297830000Y-74790000D02*
G75*
G02*
X297830000Y-75790000I0J-500000D01*
G01*
X169610000Y-94860000D02*
X169610000Y-106860000D01*
X155610000Y-93860000D02*
X169610000Y-93860000D01*
X155610000Y-107860000D02*
X169610000Y-107860000D01*
X155610000Y-94860000D02*
X155610000Y-106860000D01*
X155610000Y-107860000D02*
G75*
G02*
X155610000Y-106860000I0J500000D01*
G01*
X169610000Y-106860000D02*
G75*
G02*
X169610000Y-107860000I0J-500000D01*
G01*
X155610000Y-94860000D02*
G75*
G02*
X155610000Y-93860000I0J500000D01*
G01*
X169610000Y-93860000D02*
G75*
G02*
X169610000Y-94860000I0J-500000D01*
G01*
X221830000Y-75790000D02*
X221830000Y-87790000D01*
X207830000Y-74790000D02*
X221830000Y-74790000D01*
X207830000Y-88790000D02*
X221830000Y-88790000D01*
X207830000Y-75790000D02*
X207830000Y-87790000D01*
X207830000Y-88790000D02*
G75*
G02*
X207830000Y-87790000I0J500000D01*
G01*
X221830000Y-87790000D02*
G75*
G02*
X221830000Y-88790000I0J-500000D01*
G01*
X207830000Y-75790000D02*
G75*
G02*
X207830000Y-74790000I0J500000D01*
G01*
X221830000Y-74790000D02*
G75*
G02*
X221830000Y-75790000I0J-500000D01*
G01*
X179070000Y-113960000D02*
X179070000Y-125960000D01*
X165070000Y-112960000D02*
X179070000Y-112960000D01*
X165070000Y-126960000D02*
X179070000Y-126960000D01*
X165070000Y-113960000D02*
X165070000Y-125960000D01*
X165070000Y-126960000D02*
G75*
G02*
X165070000Y-125960000I0J500000D01*
G01*
X179070000Y-125960000D02*
G75*
G02*
X179070000Y-126960000I0J-500000D01*
G01*
X165070000Y-113960000D02*
G75*
G02*
X165070000Y-112960000I0J500000D01*
G01*
X179070000Y-112960000D02*
G75*
G02*
X179070000Y-113960000I0J-500000D01*
G01*
X326370000Y-56690000D02*
X326370000Y-68690000D01*
X312370000Y-55690000D02*
X326370000Y-55690000D01*
X312370000Y-69690000D02*
X326370000Y-69690000D01*
X312370000Y-56690000D02*
X312370000Y-68690000D01*
X312370000Y-69690000D02*
G75*
G02*
X312370000Y-68690000I0J500000D01*
G01*
X326370000Y-68690000D02*
G75*
G02*
X326370000Y-69690000I0J-500000D01*
G01*
X312370000Y-56690000D02*
G75*
G02*
X312370000Y-55690000I0J500000D01*
G01*
X326370000Y-55690000D02*
G75*
G02*
X326370000Y-56690000I0J-500000D01*
G01*
X126830000Y-75790000D02*
X126830000Y-87790000D01*
X112830000Y-74790000D02*
X126830000Y-74790000D01*
X112830000Y-88790000D02*
X126830000Y-88790000D01*
X112830000Y-75790000D02*
X112830000Y-87790000D01*
X112830000Y-88790000D02*
G75*
G02*
X112830000Y-87790000I0J500000D01*
G01*
X126830000Y-87790000D02*
G75*
G02*
X126830000Y-88790000I0J-500000D01*
G01*
X112830000Y-75790000D02*
G75*
G02*
X112830000Y-74790000I0J500000D01*
G01*
X126830000Y-74790000D02*
G75*
G02*
X126830000Y-75790000I0J-500000D01*
G01*
X326370000Y-113960000D02*
X326370000Y-125960000D01*
X312370000Y-112960000D02*
X326370000Y-112960000D01*
X312370000Y-126960000D02*
X326370000Y-126960000D01*
X312370000Y-113960000D02*
X312370000Y-125960000D01*
X312370000Y-126960000D02*
G75*
G02*
X312370000Y-125960000I0J500000D01*
G01*
X326370000Y-125960000D02*
G75*
G02*
X326370000Y-126960000I0J-500000D01*
G01*
X312370000Y-113960000D02*
G75*
G02*
X312370000Y-112960000I0J500000D01*
G01*
X326370000Y-112960000D02*
G75*
G02*
X326370000Y-113960000I0J-500000D01*
G01*
X278830000Y-75790000D02*
X278830000Y-87790000D01*
X264830000Y-74790000D02*
X278830000Y-74790000D01*
X264830000Y-88790000D02*
X278830000Y-88790000D01*
X264830000Y-75790000D02*
X264830000Y-87790000D01*
X264830000Y-88790000D02*
G75*
G02*
X264830000Y-87790000I0J500000D01*
G01*
X278830000Y-87790000D02*
G75*
G02*
X278830000Y-88790000I0J-500000D01*
G01*
X264830000Y-75790000D02*
G75*
G02*
X264830000Y-74790000I0J500000D01*
G01*
X278830000Y-74790000D02*
G75*
G02*
X278830000Y-75790000I0J-500000D01*
G01*
X307370000Y-56690000D02*
X307370000Y-68690000D01*
X293370000Y-55690000D02*
X307370000Y-55690000D01*
X293370000Y-69690000D02*
X307370000Y-69690000D01*
X293370000Y-56690000D02*
X293370000Y-68690000D01*
X293370000Y-69690000D02*
G75*
G02*
X293370000Y-68690000I0J500000D01*
G01*
X307370000Y-68690000D02*
G75*
G02*
X307370000Y-69690000I0J-500000D01*
G01*
X293370000Y-56690000D02*
G75*
G02*
X293370000Y-55690000I0J500000D01*
G01*
X307370000Y-55690000D02*
G75*
G02*
X307370000Y-56690000I0J-500000D01*
G01*
X288370000Y-56690000D02*
X288370000Y-68690000D01*
X274370000Y-55690000D02*
X288370000Y-55690000D01*
X274370000Y-69690000D02*
X288370000Y-69690000D01*
X274370000Y-56690000D02*
X274370000Y-68690000D01*
X274370000Y-69690000D02*
G75*
G02*
X274370000Y-68690000I0J500000D01*
G01*
X288370000Y-68690000D02*
G75*
G02*
X288370000Y-69690000I0J-500000D01*
G01*
X274370000Y-56690000D02*
G75*
G02*
X274370000Y-55690000I0J500000D01*
G01*
X288370000Y-55690000D02*
G75*
G02*
X288370000Y-56690000I0J-500000D01*
G01*
X188610000Y-94860000D02*
X188610000Y-106860000D01*
X174610000Y-93860000D02*
X188610000Y-93860000D01*
X174610000Y-107860000D02*
X188610000Y-107860000D01*
X174610000Y-94860000D02*
X174610000Y-106860000D01*
X174610000Y-107860000D02*
G75*
G02*
X174610000Y-106860000I0J500000D01*
G01*
X188610000Y-106860000D02*
G75*
G02*
X188610000Y-107860000I0J-500000D01*
G01*
X174610000Y-94860000D02*
G75*
G02*
X174610000Y-93860000I0J500000D01*
G01*
X188610000Y-93860000D02*
G75*
G02*
X188610000Y-94860000I0J-500000D01*
G01*
X259830000Y-75790000D02*
X259830000Y-87790000D01*
X245830000Y-74790000D02*
X259830000Y-74790000D01*
X245830000Y-88790000D02*
X259830000Y-88790000D01*
X245830000Y-75790000D02*
X245830000Y-87790000D01*
X245830000Y-88790000D02*
G75*
G02*
X245830000Y-87790000I0J500000D01*
G01*
X259830000Y-87790000D02*
G75*
G02*
X259830000Y-88790000I0J-500000D01*
G01*
X245830000Y-75790000D02*
G75*
G02*
X245830000Y-74790000I0J500000D01*
G01*
X259830000Y-74790000D02*
G75*
G02*
X259830000Y-75790000I0J-500000D01*
G01*
X274070000Y-113960000D02*
X274070000Y-125960000D01*
X260070000Y-112960000D02*
X274070000Y-112960000D01*
X260070000Y-126960000D02*
X274070000Y-126960000D01*
X260070000Y-113960000D02*
X260070000Y-125960000D01*
X260070000Y-126960000D02*
G75*
G02*
X260070000Y-125960000I0J500000D01*
G01*
X274070000Y-125960000D02*
G75*
G02*
X274070000Y-126960000I0J-500000D01*
G01*
X260070000Y-113960000D02*
G75*
G02*
X260070000Y-112960000I0J500000D01*
G01*
X274070000Y-112960000D02*
G75*
G02*
X274070000Y-113960000I0J-500000D01*
G01*
X264610000Y-94860000D02*
X264610000Y-106860000D01*
X250610000Y-93860000D02*
X264610000Y-93860000D01*
X250610000Y-107860000D02*
X264610000Y-107860000D01*
X250610000Y-94860000D02*
X250610000Y-106860000D01*
X250610000Y-107860000D02*
G75*
G02*
X250610000Y-106860000I0J500000D01*
G01*
X264610000Y-106860000D02*
G75*
G02*
X264610000Y-107860000I0J-500000D01*
G01*
X250610000Y-94860000D02*
G75*
G02*
X250610000Y-93860000I0J500000D01*
G01*
X264610000Y-93860000D02*
G75*
G02*
X264610000Y-94860000I0J-500000D01*
G01*
X269370000Y-56690000D02*
X269370000Y-68690000D01*
X255370000Y-55690000D02*
X269370000Y-55690000D01*
X255370000Y-69690000D02*
X269370000Y-69690000D01*
X255370000Y-56690000D02*
X255370000Y-68690000D01*
X255370000Y-69690000D02*
G75*
G02*
X255370000Y-68690000I0J500000D01*
G01*
X269370000Y-68690000D02*
G75*
G02*
X269370000Y-69690000I0J-500000D01*
G01*
X255370000Y-56690000D02*
G75*
G02*
X255370000Y-55690000I0J500000D01*
G01*
X269370000Y-55690000D02*
G75*
G02*
X269370000Y-56690000I0J-500000D01*
G01*
X198070000Y-113960000D02*
X198070000Y-125960000D01*
X184070000Y-112960000D02*
X198070000Y-112960000D01*
X184070000Y-126960000D02*
X198070000Y-126960000D01*
X184070000Y-113960000D02*
X184070000Y-125960000D01*
X184070000Y-126960000D02*
G75*
G02*
X184070000Y-125960000I0J500000D01*
G01*
X198070000Y-125960000D02*
G75*
G02*
X198070000Y-126960000I0J-500000D01*
G01*
X184070000Y-113960000D02*
G75*
G02*
X184070000Y-112960000I0J500000D01*
G01*
X198070000Y-112960000D02*
G75*
G02*
X198070000Y-113960000I0J-500000D01*
G01*
X164830000Y-75790000D02*
X164830000Y-87790000D01*
X150830000Y-74790000D02*
X164830000Y-74790000D01*
X150830000Y-88790000D02*
X164830000Y-88790000D01*
X150830000Y-75790000D02*
X150830000Y-87790000D01*
X150830000Y-88790000D02*
G75*
G02*
X150830000Y-87790000I0J500000D01*
G01*
X164830000Y-87790000D02*
G75*
G02*
X164830000Y-88790000I0J-500000D01*
G01*
X150830000Y-75790000D02*
G75*
G02*
X150830000Y-74790000I0J500000D01*
G01*
X164830000Y-74790000D02*
G75*
G02*
X164830000Y-75790000I0J-500000D01*
G01*
X217070000Y-113960000D02*
X217070000Y-125960000D01*
X203070000Y-112960000D02*
X217070000Y-112960000D01*
X203070000Y-126960000D02*
X217070000Y-126960000D01*
X203070000Y-113960000D02*
X203070000Y-125960000D01*
X203070000Y-126960000D02*
G75*
G02*
X203070000Y-125960000I0J500000D01*
G01*
X217070000Y-125960000D02*
G75*
G02*
X217070000Y-126960000I0J-500000D01*
G01*
X203070000Y-113960000D02*
G75*
G02*
X203070000Y-112960000I0J500000D01*
G01*
X217070000Y-112960000D02*
G75*
G02*
X217070000Y-113960000I0J-500000D01*
G01*
X112610000Y-94860000D02*
X112610000Y-106860000D01*
X98610000Y-93860000D02*
X112610000Y-93860000D01*
X98610000Y-107860000D02*
X112610000Y-107860000D01*
X98610000Y-94860000D02*
X98610000Y-106860000D01*
X98610000Y-107860000D02*
G75*
G02*
X98610000Y-106860000I0J500000D01*
G01*
X112610000Y-106860000D02*
G75*
G02*
X112610000Y-107860000I0J-500000D01*
G01*
X98610000Y-94860000D02*
G75*
G02*
X98610000Y-93860000I0J500000D01*
G01*
X112610000Y-93860000D02*
G75*
G02*
X112610000Y-94860000I0J-500000D01*
G01*
X145830000Y-75790000D02*
X145830000Y-87790000D01*
X131830000Y-74790000D02*
X145830000Y-74790000D01*
X131830000Y-88790000D02*
X145830000Y-88790000D01*
X131830000Y-75790000D02*
X131830000Y-87790000D01*
X131830000Y-88790000D02*
G75*
G02*
X131830000Y-87790000I0J500000D01*
G01*
X145830000Y-87790000D02*
G75*
G02*
X145830000Y-88790000I0J-500000D01*
G01*
X131830000Y-75790000D02*
G75*
G02*
X131830000Y-74790000I0J500000D01*
G01*
X145830000Y-74790000D02*
G75*
G02*
X145830000Y-75790000I0J-500000D01*
G01*
X88830000Y-75790000D02*
X88830000Y-87790000D01*
X74830000Y-74790000D02*
X88830000Y-74790000D01*
X74830000Y-88790000D02*
X88830000Y-88790000D01*
X74830000Y-75790000D02*
X74830000Y-87790000D01*
X74830000Y-88790000D02*
G75*
G02*
X74830000Y-87790000I0J500000D01*
G01*
X88830000Y-87790000D02*
G75*
G02*
X88830000Y-88790000I0J-500000D01*
G01*
X74830000Y-75790000D02*
G75*
G02*
X74830000Y-74790000I0J500000D01*
G01*
X88830000Y-74790000D02*
G75*
G02*
X88830000Y-75790000I0J-500000D01*
G01*
X226610000Y-94860000D02*
X226610000Y-106860000D01*
X212610000Y-93860000D02*
X226610000Y-93860000D01*
X212610000Y-107860000D02*
X226610000Y-107860000D01*
X212610000Y-94860000D02*
X212610000Y-106860000D01*
X212610000Y-107860000D02*
G75*
G02*
X212610000Y-106860000I0J500000D01*
G01*
X226610000Y-106860000D02*
G75*
G02*
X226610000Y-107860000I0J-500000D01*
G01*
X212610000Y-94860000D02*
G75*
G02*
X212610000Y-93860000I0J500000D01*
G01*
X226610000Y-93860000D02*
G75*
G02*
X226610000Y-94860000I0J-500000D01*
G01*
X302610000Y-94860000D02*
X302610000Y-106860000D01*
X288610000Y-93860000D02*
X302610000Y-93860000D01*
X288610000Y-107860000D02*
X302610000Y-107860000D01*
X288610000Y-94860000D02*
X288610000Y-106860000D01*
X288610000Y-107860000D02*
G75*
G02*
X288610000Y-106860000I0J500000D01*
G01*
X302610000Y-106860000D02*
G75*
G02*
X302610000Y-107860000I0J-500000D01*
G01*
X288610000Y-94860000D02*
G75*
G02*
X288610000Y-93860000I0J500000D01*
G01*
X302610000Y-93860000D02*
G75*
G02*
X302610000Y-94860000I0J-500000D01*
G01*
X255070000Y-113960000D02*
X255070000Y-125960000D01*
X241070000Y-112960000D02*
X255070000Y-112960000D01*
X241070000Y-126960000D02*
X255070000Y-126960000D01*
X241070000Y-113960000D02*
X241070000Y-125960000D01*
X241070000Y-126960000D02*
G75*
G02*
X241070000Y-125960000I0J500000D01*
G01*
X255070000Y-125960000D02*
G75*
G02*
X255070000Y-126960000I0J-500000D01*
G01*
X241070000Y-113960000D02*
G75*
G02*
X241070000Y-112960000I0J500000D01*
G01*
X255070000Y-112960000D02*
G75*
G02*
X255070000Y-113960000I0J-500000D01*
G01*
X283610000Y-94860000D02*
X283610000Y-106860000D01*
X269610000Y-93860000D02*
X283610000Y-93860000D01*
X269610000Y-107860000D02*
X283610000Y-107860000D01*
X269610000Y-94860000D02*
X269610000Y-106860000D01*
X269610000Y-107860000D02*
G75*
G02*
X269610000Y-106860000I0J500000D01*
G01*
X283610000Y-106860000D02*
G75*
G02*
X283610000Y-107860000I0J-500000D01*
G01*
X269610000Y-94860000D02*
G75*
G02*
X269610000Y-93860000I0J500000D01*
G01*
X283610000Y-93860000D02*
G75*
G02*
X283610000Y-94860000I0J-500000D01*
G01*
X245610000Y-94860000D02*
X245610000Y-106860000D01*
X231610000Y-93860000D02*
X245610000Y-93860000D01*
X231610000Y-107860000D02*
X245610000Y-107860000D01*
X231610000Y-94860000D02*
X231610000Y-106860000D01*
X231610000Y-107860000D02*
G75*
G02*
X231610000Y-106860000I0J500000D01*
G01*
X245610000Y-106860000D02*
G75*
G02*
X245610000Y-107860000I0J-500000D01*
G01*
X231610000Y-94860000D02*
G75*
G02*
X231610000Y-93860000I0J500000D01*
G01*
X245610000Y-93860000D02*
G75*
G02*
X245610000Y-94860000I0J-500000D01*
G01*
X240830000Y-75790000D02*
X240830000Y-87790000D01*
X226830000Y-74790000D02*
X240830000Y-74790000D01*
X226830000Y-88790000D02*
X240830000Y-88790000D01*
X226830000Y-75790000D02*
X226830000Y-87790000D01*
X226830000Y-88790000D02*
G75*
G02*
X226830000Y-87790000I0J500000D01*
G01*
X240830000Y-87790000D02*
G75*
G02*
X240830000Y-88790000I0J-500000D01*
G01*
X226830000Y-75790000D02*
G75*
G02*
X226830000Y-74790000I0J500000D01*
G01*
X240830000Y-74790000D02*
G75*
G02*
X240830000Y-75790000I0J-500000D01*
G01*
X202830000Y-75790000D02*
X202830000Y-87790000D01*
X188830000Y-74790000D02*
X202830000Y-74790000D01*
X188830000Y-88790000D02*
X202830000Y-88790000D01*
X188830000Y-75790000D02*
X188830000Y-87790000D01*
X188830000Y-88790000D02*
G75*
G02*
X188830000Y-87790000I0J500000D01*
G01*
X202830000Y-87790000D02*
G75*
G02*
X202830000Y-88790000I0J-500000D01*
G01*
X188830000Y-75790000D02*
G75*
G02*
X188830000Y-74790000I0J500000D01*
G01*
X202830000Y-74790000D02*
G75*
G02*
X202830000Y-75790000I0J-500000D01*
G01*
X160070000Y-113960000D02*
X160070000Y-125960000D01*
X146070000Y-112960000D02*
X160070000Y-112960000D01*
X146070000Y-126960000D02*
X160070000Y-126960000D01*
X146070000Y-113960000D02*
X146070000Y-125960000D01*
X146070000Y-126960000D02*
G75*
G02*
X146070000Y-125960000I0J500000D01*
G01*
X160070000Y-125960000D02*
G75*
G02*
X160070000Y-126960000I0J-500000D01*
G01*
X146070000Y-113960000D02*
G75*
G02*
X146070000Y-112960000I0J500000D01*
G01*
X160070000Y-112960000D02*
G75*
G02*
X160070000Y-113960000I0J-500000D01*
G01*
X122070000Y-113960000D02*
X122070000Y-125960000D01*
X108070000Y-112960000D02*
X122070000Y-112960000D01*
X108070000Y-126960000D02*
X122070000Y-126960000D01*
X108070000Y-113960000D02*
X108070000Y-125960000D01*
X108070000Y-126960000D02*
G75*
G02*
X108070000Y-125960000I0J500000D01*
G01*
X122070000Y-125960000D02*
G75*
G02*
X122070000Y-126960000I0J-500000D01*
G01*
X108070000Y-113960000D02*
G75*
G02*
X108070000Y-112960000I0J500000D01*
G01*
X122070000Y-112960000D02*
G75*
G02*
X122070000Y-113960000I0J-500000D01*
G01*
X183830000Y-75790000D02*
X183830000Y-87790000D01*
X169830000Y-74790000D02*
X183830000Y-74790000D01*
X169830000Y-88790000D02*
X183830000Y-88790000D01*
X169830000Y-75790000D02*
X169830000Y-87790000D01*
X169830000Y-88790000D02*
G75*
G02*
X169830000Y-87790000I0J500000D01*
G01*
X183830000Y-87790000D02*
G75*
G02*
X183830000Y-88790000I0J-500000D01*
G01*
X169830000Y-75790000D02*
G75*
G02*
X169830000Y-74790000I0J500000D01*
G01*
X183830000Y-74790000D02*
G75*
G02*
X183830000Y-75790000I0J-500000D01*
G01*
X103070000Y-113960000D02*
X103070000Y-125960000D01*
X89070000Y-112960000D02*
X103070000Y-112960000D01*
X89070000Y-126960000D02*
X103070000Y-126960000D01*
X89070000Y-113960000D02*
X89070000Y-125960000D01*
X89070000Y-126960000D02*
G75*
G02*
X89070000Y-125960000I0J500000D01*
G01*
X103070000Y-125960000D02*
G75*
G02*
X103070000Y-126960000I0J-500000D01*
G01*
X89070000Y-113960000D02*
G75*
G02*
X89070000Y-112960000I0J500000D01*
G01*
X103070000Y-112960000D02*
G75*
G02*
X103070000Y-113960000I0J-500000D01*
G01*
X107830000Y-75790000D02*
X107830000Y-87790000D01*
X93830000Y-74790000D02*
X107830000Y-74790000D01*
X93830000Y-88790000D02*
X107830000Y-88790000D01*
X93830000Y-75790000D02*
X93830000Y-87790000D01*
X93830000Y-88790000D02*
G75*
G02*
X93830000Y-87790000I0J500000D01*
G01*
X107830000Y-87790000D02*
G75*
G02*
X107830000Y-88790000I0J-500000D01*
G01*
X93830000Y-75790000D02*
G75*
G02*
X93830000Y-74790000I0J500000D01*
G01*
X107830000Y-74790000D02*
G75*
G02*
X107830000Y-75790000I0J-500000D01*
G01*
X98370000Y-56690000D02*
X98370000Y-68690000D01*
X84370000Y-55690000D02*
X98370000Y-55690000D01*
X84370000Y-69690000D02*
X98370000Y-69690000D01*
X84370000Y-56690000D02*
X84370000Y-68690000D01*
X84370000Y-69690000D02*
G75*
G02*
X84370000Y-68690000I0J500000D01*
G01*
X98370000Y-68690000D02*
G75*
G02*
X98370000Y-69690000I0J-500000D01*
G01*
X84370000Y-56690000D02*
G75*
G02*
X84370000Y-55690000I0J500000D01*
G01*
X98370000Y-55690000D02*
G75*
G02*
X98370000Y-56690000I0J-500000D01*
G01*
X79370000Y-56690000D02*
X79370000Y-68690000D01*
X65370000Y-55690000D02*
X79370000Y-55690000D01*
X65370000Y-69690000D02*
X79370000Y-69690000D01*
X65370000Y-56690000D02*
X65370000Y-68690000D01*
X65370000Y-69690000D02*
G75*
G02*
X65370000Y-68690000I0J500000D01*
G01*
X79370000Y-68690000D02*
G75*
G02*
X79370000Y-69690000I0J-500000D01*
G01*
X65370000Y-56690000D02*
G75*
G02*
X65370000Y-55690000I0J500000D01*
G01*
X79370000Y-55690000D02*
G75*
G02*
X79370000Y-56690000I0J-500000D01*
G01*
X117370000Y-56690000D02*
X117370000Y-68690000D01*
X103370000Y-55690000D02*
X117370000Y-55690000D01*
X103370000Y-69690000D02*
X117370000Y-69690000D01*
X103370000Y-56690000D02*
X103370000Y-68690000D01*
X103370000Y-69690000D02*
G75*
G02*
X103370000Y-68690000I0J500000D01*
G01*
X117370000Y-68690000D02*
G75*
G02*
X117370000Y-69690000I0J-500000D01*
G01*
X103370000Y-56690000D02*
G75*
G02*
X103370000Y-55690000I0J500000D01*
G01*
X117370000Y-55690000D02*
G75*
G02*
X117370000Y-56690000I0J-500000D01*
G01*
X155370000Y-56690000D02*
X155370000Y-68690000D01*
X141370000Y-55690000D02*
X155370000Y-55690000D01*
X141370000Y-69690000D02*
X155370000Y-69690000D01*
X141370000Y-56690000D02*
X141370000Y-68690000D01*
X141370000Y-69690000D02*
G75*
G02*
X141370000Y-68690000I0J500000D01*
G01*
X155370000Y-68690000D02*
G75*
G02*
X155370000Y-69690000I0J-500000D01*
G01*
X141370000Y-56690000D02*
G75*
G02*
X141370000Y-55690000I0J500000D01*
G01*
X155370000Y-55690000D02*
G75*
G02*
X155370000Y-56690000I0J-500000D01*
G01*
X93610000Y-94860000D02*
X93610000Y-106860000D01*
X79610000Y-93860000D02*
X93610000Y-93860000D01*
X79610000Y-107860000D02*
X93610000Y-107860000D01*
X79610000Y-94860000D02*
X79610000Y-106860000D01*
X79610000Y-107860000D02*
G75*
G02*
X79610000Y-106860000I0J500000D01*
G01*
X93610000Y-106860000D02*
G75*
G02*
X93610000Y-107860000I0J-500000D01*
G01*
X79610000Y-94860000D02*
G75*
G02*
X79610000Y-93860000I0J500000D01*
G01*
X93610000Y-93860000D02*
G75*
G02*
X93610000Y-94860000I0J-500000D01*
G01*
X174370000Y-56690000D02*
X174370000Y-68690000D01*
X160370000Y-55690000D02*
X174370000Y-55690000D01*
X160370000Y-69690000D02*
X174370000Y-69690000D01*
X160370000Y-56690000D02*
X160370000Y-68690000D01*
X160370000Y-69690000D02*
G75*
G02*
X160370000Y-68690000I0J500000D01*
G01*
X174370000Y-68690000D02*
G75*
G02*
X174370000Y-69690000I0J-500000D01*
G01*
X160370000Y-56690000D02*
G75*
G02*
X160370000Y-55690000I0J500000D01*
G01*
X174370000Y-55690000D02*
G75*
G02*
X174370000Y-56690000I0J-500000D01*
G01*
X193370000Y-56690000D02*
X193370000Y-68690000D01*
X179370000Y-55690000D02*
X193370000Y-55690000D01*
X179370000Y-69690000D02*
X193370000Y-69690000D01*
X179370000Y-56690000D02*
X179370000Y-68690000D01*
X179370000Y-69690000D02*
G75*
G02*
X179370000Y-68690000I0J500000D01*
G01*
X193370000Y-68690000D02*
G75*
G02*
X193370000Y-69690000I0J-500000D01*
G01*
X179370000Y-56690000D02*
G75*
G02*
X179370000Y-55690000I0J500000D01*
G01*
X193370000Y-55690000D02*
G75*
G02*
X193370000Y-56690000I0J-500000D01*
G01*
X231370000Y-56690000D02*
X231370000Y-68690000D01*
X217370000Y-55690000D02*
X231370000Y-55690000D01*
X217370000Y-69690000D02*
X231370000Y-69690000D01*
X217370000Y-56690000D02*
X217370000Y-68690000D01*
X217370000Y-69690000D02*
G75*
G02*
X217370000Y-68690000I0J500000D01*
G01*
X231370000Y-68690000D02*
G75*
G02*
X231370000Y-69690000I0J-500000D01*
G01*
X217370000Y-56690000D02*
G75*
G02*
X217370000Y-55690000I0J500000D01*
G01*
X231370000Y-55690000D02*
G75*
G02*
X231370000Y-56690000I0J-500000D01*
G01*
X212370000Y-56690000D02*
X212370000Y-68690000D01*
X198370000Y-55690000D02*
X212370000Y-55690000D01*
X198370000Y-69690000D02*
X212370000Y-69690000D01*
X198370000Y-56690000D02*
X198370000Y-68690000D01*
X198370000Y-69690000D02*
G75*
G02*
X198370000Y-68690000I0J500000D01*
G01*
X212370000Y-68690000D02*
G75*
G02*
X212370000Y-69690000I0J-500000D01*
G01*
X198370000Y-56690000D02*
G75*
G02*
X198370000Y-55690000I0J500000D01*
G01*
X212370000Y-55690000D02*
G75*
G02*
X212370000Y-56690000I0J-500000D01*
G01*
X136370000Y-56690000D02*
X136370000Y-68690000D01*
X122370000Y-55690000D02*
X136370000Y-55690000D01*
X122370000Y-69690000D02*
X136370000Y-69690000D01*
X122370000Y-56690000D02*
X122370000Y-68690000D01*
X122370000Y-69690000D02*
G75*
G02*
X122370000Y-68690000I0J500000D01*
G01*
X136370000Y-68690000D02*
G75*
G02*
X136370000Y-69690000I0J-500000D01*
G01*
X122370000Y-56690000D02*
G75*
G02*
X122370000Y-55690000I0J500000D01*
G01*
X136370000Y-55690000D02*
G75*
G02*
X136370000Y-56690000I0J-500000D01*
G01*
X250370000Y-56690000D02*
X250370000Y-68690000D01*
X236370000Y-55690000D02*
X250370000Y-55690000D01*
X236370000Y-69690000D02*
X250370000Y-69690000D01*
X236370000Y-56690000D02*
X236370000Y-68690000D01*
X236370000Y-69690000D02*
G75*
G02*
X236370000Y-68690000I0J500000D01*
G01*
X250370000Y-68690000D02*
G75*
G02*
X250370000Y-69690000I0J-500000D01*
G01*
X236370000Y-56690000D02*
G75*
G02*
X236370000Y-55690000I0J500000D01*
G01*
X250370000Y-55690000D02*
G75*
G02*
X250370000Y-56690000I0J-500000D01*
G01*
M02*
