G04 #@! TF.GenerationSoftware,KiCad,Pcbnew,5.1.9+dfsg1-1*
G04 #@! TF.CreationDate,2022-03-13T19:21:44+01:00*
G04 #@! TF.ProjectId,KBD_ADAPTER_XE,4b42445f-4144-4415-9054-45525f58452e,1.0*
G04 #@! TF.SameCoordinates,Original*
G04 #@! TF.FileFunction,Copper,L2,Bot*
G04 #@! TF.FilePolarity,Positive*
%FSLAX46Y46*%
G04 Gerber Fmt 4.6, Leading zero omitted, Abs format (unit mm)*
G04 Created by KiCad (PCBNEW 5.1.9+dfsg1-1) date 2022-03-13 19:21:44*
%MOMM*%
%LPD*%
G01*
G04 APERTURE LIST*
G04 #@! TA.AperFunction,ComponentPad*
%ADD10C,1.600000*%
G04 #@! TD*
G04 #@! TA.AperFunction,ComponentPad*
%ADD11R,1.600000X1.600000*%
G04 #@! TD*
G04 #@! TA.AperFunction,ViaPad*
%ADD12C,0.800000*%
G04 #@! TD*
G04 #@! TA.AperFunction,Conductor*
%ADD13C,0.250000*%
G04 #@! TD*
G04 #@! TA.AperFunction,Conductor*
%ADD14C,0.254000*%
G04 #@! TD*
G04 #@! TA.AperFunction,Conductor*
%ADD15C,0.100000*%
G04 #@! TD*
G04 APERTURE END LIST*
D10*
X156500000Y-105000000D03*
X155250000Y-102500000D03*
X154000000Y-105000000D03*
X152750000Y-102500000D03*
X151500000Y-105000000D03*
X150250000Y-102500000D03*
X149000000Y-105000000D03*
X147750000Y-102500000D03*
X146500000Y-105000000D03*
X145250000Y-102500000D03*
X144000000Y-105000000D03*
X142750000Y-102500000D03*
X141500000Y-105000000D03*
X140250000Y-102500000D03*
X139000000Y-105000000D03*
X137750000Y-102500000D03*
X136500000Y-105000000D03*
X135250000Y-102500000D03*
X134000000Y-105000000D03*
X132750000Y-102500000D03*
X131500000Y-105000000D03*
X130250000Y-102500000D03*
X129000000Y-105000000D03*
X127750000Y-102500000D03*
X126500000Y-105000000D03*
X125250000Y-102500000D03*
X124000000Y-105000000D03*
X122750000Y-102500000D03*
X121500000Y-105000000D03*
X120250000Y-102500000D03*
X119000000Y-105000000D03*
D11*
X117750000Y-102500000D03*
D12*
X140250000Y-107250000D03*
X145145700Y-107245300D03*
X146622300Y-107483800D03*
X149194300Y-107443100D03*
X143062300Y-106309300D03*
X131261000Y-103589300D03*
X154225400Y-107470800D03*
X155440952Y-100649600D03*
X165650000Y-106488700D03*
X160190000Y-105486700D03*
X144160000Y-100648000D03*
X166900600Y-106475400D03*
X170000300Y-106488300D03*
X173275000Y-107213700D03*
D13*
X131750000Y-101000000D02*
X141000000Y-101000000D01*
X130250000Y-102500000D02*
X131750000Y-101000000D01*
X140375000Y-107125000D02*
X140250000Y-107250000D01*
X140375000Y-104040000D02*
X140375000Y-107125000D01*
X141500000Y-102915000D02*
X140375000Y-104040000D01*
X141500000Y-101500000D02*
X141500000Y-102915000D01*
X141000000Y-101000000D02*
X141500000Y-101500000D01*
X142974100Y-109416900D02*
X145145700Y-107245300D01*
X136812900Y-109416900D02*
X142974100Y-109416900D01*
X132750000Y-105354000D02*
X136812900Y-109416900D01*
X132750000Y-102500000D02*
X132750000Y-105354000D01*
X146622300Y-107483700D02*
X146622300Y-107483800D01*
X146410100Y-107483700D02*
X146622300Y-107483700D01*
X145434700Y-106508300D02*
X146410100Y-107483700D01*
X144856800Y-106508300D02*
X145434700Y-106508300D01*
X142443300Y-108921800D02*
X144856800Y-106508300D01*
X137921800Y-108921800D02*
X142443300Y-108921800D01*
X134000000Y-105000000D02*
X137921800Y-108921800D01*
X148413300Y-106662100D02*
X149194300Y-107443100D01*
X146225400Y-106662100D02*
X148413300Y-106662100D01*
X145591000Y-106027700D02*
X146225400Y-106662100D01*
X144563900Y-106027700D02*
X145591000Y-106027700D01*
X142124900Y-108466700D02*
X144563900Y-106027700D01*
X138355700Y-108466700D02*
X142124900Y-108466700D01*
X135250000Y-105361000D02*
X138355700Y-108466700D01*
X135250000Y-102500000D02*
X135250000Y-105361000D01*
X139487000Y-107987000D02*
X136500000Y-105000000D01*
X141384600Y-107987000D02*
X139487000Y-107987000D01*
X143062300Y-106309300D02*
X141384600Y-107987000D01*
X151826800Y-109869400D02*
X154225400Y-107470800D01*
X134756500Y-109869400D02*
X151826800Y-109869400D01*
X130345300Y-105458200D02*
X134756500Y-109869400D01*
X130345300Y-104505000D02*
X130345300Y-105458200D01*
X131261000Y-103589300D02*
X130345300Y-104505000D01*
X155440952Y-100649600D02*
X145435398Y-100649600D01*
X145435398Y-100649600D02*
X144040000Y-102044998D01*
X144040000Y-102044998D02*
X144040000Y-103380000D01*
X144040000Y-103380000D02*
X143545001Y-103874999D01*
X143545001Y-103874999D02*
X142625001Y-103874999D01*
X142625001Y-103874999D02*
X141500000Y-105000000D01*
X141500000Y-105000000D02*
X141869600Y-105000000D01*
X163266700Y-105486700D02*
X164268700Y-106488700D01*
X164268700Y-106488700D02*
X165650000Y-106488700D01*
X160190000Y-105486700D02*
X163266700Y-105486700D01*
X142750000Y-102500000D02*
X142750000Y-102058000D01*
X142750000Y-102058000D02*
X144160000Y-100648000D01*
X164274400Y-103849200D02*
X166900600Y-106475400D01*
X145150800Y-103849200D02*
X164274400Y-103849200D01*
X144000000Y-105000000D02*
X145150800Y-103849200D01*
X145250000Y-102500000D02*
X146375400Y-101374600D01*
X146375400Y-101374600D02*
X162944600Y-101374600D01*
X162944600Y-101374600D02*
X168058300Y-106488300D01*
X168058300Y-106488300D02*
X170000300Y-106488300D01*
X163755800Y-107213700D02*
X173275000Y-107213700D01*
X162753800Y-106211700D02*
X163755800Y-107213700D01*
X147711700Y-106211700D02*
X162753800Y-106211700D01*
X146500000Y-105000000D02*
X147711700Y-106211700D01*
D14*
X130573886Y-101101312D02*
X130391335Y-101065000D01*
X130108665Y-101065000D01*
X129831426Y-101120147D01*
X129570273Y-101228320D01*
X129335241Y-101385363D01*
X129135363Y-101585241D01*
X129000000Y-101787827D01*
X128864637Y-101585241D01*
X128664759Y-101385363D01*
X128429727Y-101228320D01*
X128168574Y-101120147D01*
X127891335Y-101065000D01*
X127608665Y-101065000D01*
X127331426Y-101120147D01*
X127070273Y-101228320D01*
X126835241Y-101385363D01*
X126635363Y-101585241D01*
X126500000Y-101787827D01*
X126364637Y-101585241D01*
X126164759Y-101385363D01*
X125929727Y-101228320D01*
X125668574Y-101120147D01*
X125391335Y-101065000D01*
X125108665Y-101065000D01*
X124831426Y-101120147D01*
X124570273Y-101228320D01*
X124335241Y-101385363D01*
X124135363Y-101585241D01*
X124000000Y-101787827D01*
X123864637Y-101585241D01*
X123664759Y-101385363D01*
X123429727Y-101228320D01*
X123168574Y-101120147D01*
X122891335Y-101065000D01*
X122608665Y-101065000D01*
X122331426Y-101120147D01*
X122070273Y-101228320D01*
X121835241Y-101385363D01*
X121635363Y-101585241D01*
X121501308Y-101785869D01*
X121486671Y-101758486D01*
X121242702Y-101686903D01*
X120429605Y-102500000D01*
X121242702Y-103313097D01*
X121486671Y-103241514D01*
X121500324Y-103212659D01*
X121635363Y-103414759D01*
X121821427Y-103600823D01*
X121641335Y-103565000D01*
X121358665Y-103565000D01*
X121081426Y-103620147D01*
X121017994Y-103646421D01*
X121063097Y-103492702D01*
X120250000Y-102679605D01*
X119436903Y-103492702D01*
X119482006Y-103646421D01*
X119418574Y-103620147D01*
X119141335Y-103565000D01*
X119128373Y-103565000D01*
X119139502Y-103544180D01*
X119175812Y-103424482D01*
X119188072Y-103300000D01*
X119188072Y-103292785D01*
X119257298Y-103313097D01*
X120070395Y-102500000D01*
X119257298Y-101686903D01*
X119188072Y-101707215D01*
X119188072Y-101700000D01*
X119175812Y-101575518D01*
X119155118Y-101507298D01*
X119436903Y-101507298D01*
X120250000Y-102320395D01*
X121063097Y-101507298D01*
X120991514Y-101263329D01*
X120736004Y-101142429D01*
X120461816Y-101073700D01*
X120179488Y-101059783D01*
X119899870Y-101101213D01*
X119633708Y-101196397D01*
X119508486Y-101263329D01*
X119436903Y-101507298D01*
X119155118Y-101507298D01*
X119139502Y-101455820D01*
X119080537Y-101345506D01*
X119001185Y-101248815D01*
X118904494Y-101169463D01*
X118794180Y-101110498D01*
X118674482Y-101074188D01*
X118550000Y-101061928D01*
X116950000Y-101061928D01*
X116825518Y-101074188D01*
X116705820Y-101110498D01*
X116595506Y-101169463D01*
X116498815Y-101248815D01*
X116419463Y-101345506D01*
X116360498Y-101455820D01*
X116324188Y-101575518D01*
X116311928Y-101700000D01*
X116311928Y-103300000D01*
X116324188Y-103424482D01*
X116360498Y-103544180D01*
X116419463Y-103654494D01*
X116498815Y-103751185D01*
X116595506Y-103830537D01*
X116705820Y-103889502D01*
X116825518Y-103925812D01*
X116950000Y-103938072D01*
X118032532Y-103938072D01*
X117885363Y-104085241D01*
X117728320Y-104320273D01*
X117620147Y-104581426D01*
X117565000Y-104858665D01*
X117565000Y-105141335D01*
X117620147Y-105418574D01*
X117728320Y-105679727D01*
X117885363Y-105914759D01*
X118085241Y-106114637D01*
X118320273Y-106271680D01*
X118581426Y-106379853D01*
X118858665Y-106435000D01*
X119141335Y-106435000D01*
X119418574Y-106379853D01*
X119679727Y-106271680D01*
X119914759Y-106114637D01*
X120114637Y-105914759D01*
X120250000Y-105712173D01*
X120385363Y-105914759D01*
X120585241Y-106114637D01*
X120820273Y-106271680D01*
X121081426Y-106379853D01*
X121358665Y-106435000D01*
X121641335Y-106435000D01*
X121918574Y-106379853D01*
X122179727Y-106271680D01*
X122414759Y-106114637D01*
X122614637Y-105914759D01*
X122750000Y-105712173D01*
X122885363Y-105914759D01*
X123085241Y-106114637D01*
X123320273Y-106271680D01*
X123581426Y-106379853D01*
X123858665Y-106435000D01*
X124141335Y-106435000D01*
X124418574Y-106379853D01*
X124679727Y-106271680D01*
X124914759Y-106114637D01*
X125114637Y-105914759D01*
X125250000Y-105712173D01*
X125385363Y-105914759D01*
X125585241Y-106114637D01*
X125820273Y-106271680D01*
X126081426Y-106379853D01*
X126358665Y-106435000D01*
X126641335Y-106435000D01*
X126918574Y-106379853D01*
X127179727Y-106271680D01*
X127414759Y-106114637D01*
X127614637Y-105914759D01*
X127750000Y-105712173D01*
X127885363Y-105914759D01*
X128085241Y-106114637D01*
X128320273Y-106271680D01*
X128581426Y-106379853D01*
X128858665Y-106435000D01*
X129141335Y-106435000D01*
X129418574Y-106379853D01*
X129679727Y-106271680D01*
X129914759Y-106114637D01*
X129920847Y-106108549D01*
X134192701Y-110380403D01*
X134216499Y-110409401D01*
X134332224Y-110504374D01*
X134464253Y-110574946D01*
X134607514Y-110618403D01*
X134719167Y-110629400D01*
X134719177Y-110629400D01*
X134756500Y-110633076D01*
X134793823Y-110629400D01*
X151789478Y-110629400D01*
X151826800Y-110633076D01*
X151864122Y-110629400D01*
X151864133Y-110629400D01*
X151975786Y-110618403D01*
X152119047Y-110574946D01*
X152251076Y-110504374D01*
X152366801Y-110409401D01*
X152390604Y-110380397D01*
X154265202Y-108505800D01*
X154327339Y-108505800D01*
X154527298Y-108466026D01*
X154715656Y-108388005D01*
X154885174Y-108274737D01*
X155029337Y-108130574D01*
X155142605Y-107961056D01*
X155220626Y-107772698D01*
X155260400Y-107572739D01*
X155260400Y-107368861D01*
X155220626Y-107168902D01*
X155142605Y-106980544D01*
X155136696Y-106971700D01*
X162438999Y-106971700D01*
X163192001Y-107724703D01*
X163215799Y-107753701D01*
X163244797Y-107777499D01*
X163331523Y-107848674D01*
X163442654Y-107908075D01*
X163463553Y-107919246D01*
X163606814Y-107962703D01*
X163718467Y-107973700D01*
X163718477Y-107973700D01*
X163755800Y-107977376D01*
X163793122Y-107973700D01*
X172571289Y-107973700D01*
X172615226Y-108017637D01*
X172784744Y-108130905D01*
X172973102Y-108208926D01*
X173173061Y-108248700D01*
X173376939Y-108248700D01*
X173576898Y-108208926D01*
X173765256Y-108130905D01*
X173934774Y-108017637D01*
X174078937Y-107873474D01*
X174192205Y-107703956D01*
X174270226Y-107515598D01*
X174290001Y-107416183D01*
X174290000Y-111290000D01*
X113701790Y-111290000D01*
X113701790Y-101051908D01*
X113709505Y-100927027D01*
X113729195Y-100852159D01*
X113763049Y-100782546D01*
X113809785Y-100720829D01*
X113867614Y-100669368D01*
X113934342Y-100630118D01*
X114007416Y-100604577D01*
X114110290Y-100590000D01*
X131085198Y-100590000D01*
X130573886Y-101101312D01*
G04 #@! TA.AperFunction,Conductor*
D15*
G36*
X130573886Y-101101312D02*
G01*
X130391335Y-101065000D01*
X130108665Y-101065000D01*
X129831426Y-101120147D01*
X129570273Y-101228320D01*
X129335241Y-101385363D01*
X129135363Y-101585241D01*
X129000000Y-101787827D01*
X128864637Y-101585241D01*
X128664759Y-101385363D01*
X128429727Y-101228320D01*
X128168574Y-101120147D01*
X127891335Y-101065000D01*
X127608665Y-101065000D01*
X127331426Y-101120147D01*
X127070273Y-101228320D01*
X126835241Y-101385363D01*
X126635363Y-101585241D01*
X126500000Y-101787827D01*
X126364637Y-101585241D01*
X126164759Y-101385363D01*
X125929727Y-101228320D01*
X125668574Y-101120147D01*
X125391335Y-101065000D01*
X125108665Y-101065000D01*
X124831426Y-101120147D01*
X124570273Y-101228320D01*
X124335241Y-101385363D01*
X124135363Y-101585241D01*
X124000000Y-101787827D01*
X123864637Y-101585241D01*
X123664759Y-101385363D01*
X123429727Y-101228320D01*
X123168574Y-101120147D01*
X122891335Y-101065000D01*
X122608665Y-101065000D01*
X122331426Y-101120147D01*
X122070273Y-101228320D01*
X121835241Y-101385363D01*
X121635363Y-101585241D01*
X121501308Y-101785869D01*
X121486671Y-101758486D01*
X121242702Y-101686903D01*
X120429605Y-102500000D01*
X121242702Y-103313097D01*
X121486671Y-103241514D01*
X121500324Y-103212659D01*
X121635363Y-103414759D01*
X121821427Y-103600823D01*
X121641335Y-103565000D01*
X121358665Y-103565000D01*
X121081426Y-103620147D01*
X121017994Y-103646421D01*
X121063097Y-103492702D01*
X120250000Y-102679605D01*
X119436903Y-103492702D01*
X119482006Y-103646421D01*
X119418574Y-103620147D01*
X119141335Y-103565000D01*
X119128373Y-103565000D01*
X119139502Y-103544180D01*
X119175812Y-103424482D01*
X119188072Y-103300000D01*
X119188072Y-103292785D01*
X119257298Y-103313097D01*
X120070395Y-102500000D01*
X119257298Y-101686903D01*
X119188072Y-101707215D01*
X119188072Y-101700000D01*
X119175812Y-101575518D01*
X119155118Y-101507298D01*
X119436903Y-101507298D01*
X120250000Y-102320395D01*
X121063097Y-101507298D01*
X120991514Y-101263329D01*
X120736004Y-101142429D01*
X120461816Y-101073700D01*
X120179488Y-101059783D01*
X119899870Y-101101213D01*
X119633708Y-101196397D01*
X119508486Y-101263329D01*
X119436903Y-101507298D01*
X119155118Y-101507298D01*
X119139502Y-101455820D01*
X119080537Y-101345506D01*
X119001185Y-101248815D01*
X118904494Y-101169463D01*
X118794180Y-101110498D01*
X118674482Y-101074188D01*
X118550000Y-101061928D01*
X116950000Y-101061928D01*
X116825518Y-101074188D01*
X116705820Y-101110498D01*
X116595506Y-101169463D01*
X116498815Y-101248815D01*
X116419463Y-101345506D01*
X116360498Y-101455820D01*
X116324188Y-101575518D01*
X116311928Y-101700000D01*
X116311928Y-103300000D01*
X116324188Y-103424482D01*
X116360498Y-103544180D01*
X116419463Y-103654494D01*
X116498815Y-103751185D01*
X116595506Y-103830537D01*
X116705820Y-103889502D01*
X116825518Y-103925812D01*
X116950000Y-103938072D01*
X118032532Y-103938072D01*
X117885363Y-104085241D01*
X117728320Y-104320273D01*
X117620147Y-104581426D01*
X117565000Y-104858665D01*
X117565000Y-105141335D01*
X117620147Y-105418574D01*
X117728320Y-105679727D01*
X117885363Y-105914759D01*
X118085241Y-106114637D01*
X118320273Y-106271680D01*
X118581426Y-106379853D01*
X118858665Y-106435000D01*
X119141335Y-106435000D01*
X119418574Y-106379853D01*
X119679727Y-106271680D01*
X119914759Y-106114637D01*
X120114637Y-105914759D01*
X120250000Y-105712173D01*
X120385363Y-105914759D01*
X120585241Y-106114637D01*
X120820273Y-106271680D01*
X121081426Y-106379853D01*
X121358665Y-106435000D01*
X121641335Y-106435000D01*
X121918574Y-106379853D01*
X122179727Y-106271680D01*
X122414759Y-106114637D01*
X122614637Y-105914759D01*
X122750000Y-105712173D01*
X122885363Y-105914759D01*
X123085241Y-106114637D01*
X123320273Y-106271680D01*
X123581426Y-106379853D01*
X123858665Y-106435000D01*
X124141335Y-106435000D01*
X124418574Y-106379853D01*
X124679727Y-106271680D01*
X124914759Y-106114637D01*
X125114637Y-105914759D01*
X125250000Y-105712173D01*
X125385363Y-105914759D01*
X125585241Y-106114637D01*
X125820273Y-106271680D01*
X126081426Y-106379853D01*
X126358665Y-106435000D01*
X126641335Y-106435000D01*
X126918574Y-106379853D01*
X127179727Y-106271680D01*
X127414759Y-106114637D01*
X127614637Y-105914759D01*
X127750000Y-105712173D01*
X127885363Y-105914759D01*
X128085241Y-106114637D01*
X128320273Y-106271680D01*
X128581426Y-106379853D01*
X128858665Y-106435000D01*
X129141335Y-106435000D01*
X129418574Y-106379853D01*
X129679727Y-106271680D01*
X129914759Y-106114637D01*
X129920847Y-106108549D01*
X134192701Y-110380403D01*
X134216499Y-110409401D01*
X134332224Y-110504374D01*
X134464253Y-110574946D01*
X134607514Y-110618403D01*
X134719167Y-110629400D01*
X134719177Y-110629400D01*
X134756500Y-110633076D01*
X134793823Y-110629400D01*
X151789478Y-110629400D01*
X151826800Y-110633076D01*
X151864122Y-110629400D01*
X151864133Y-110629400D01*
X151975786Y-110618403D01*
X152119047Y-110574946D01*
X152251076Y-110504374D01*
X152366801Y-110409401D01*
X152390604Y-110380397D01*
X154265202Y-108505800D01*
X154327339Y-108505800D01*
X154527298Y-108466026D01*
X154715656Y-108388005D01*
X154885174Y-108274737D01*
X155029337Y-108130574D01*
X155142605Y-107961056D01*
X155220626Y-107772698D01*
X155260400Y-107572739D01*
X155260400Y-107368861D01*
X155220626Y-107168902D01*
X155142605Y-106980544D01*
X155136696Y-106971700D01*
X162438999Y-106971700D01*
X163192001Y-107724703D01*
X163215799Y-107753701D01*
X163244797Y-107777499D01*
X163331523Y-107848674D01*
X163442654Y-107908075D01*
X163463553Y-107919246D01*
X163606814Y-107962703D01*
X163718467Y-107973700D01*
X163718477Y-107973700D01*
X163755800Y-107977376D01*
X163793122Y-107973700D01*
X172571289Y-107973700D01*
X172615226Y-108017637D01*
X172784744Y-108130905D01*
X172973102Y-108208926D01*
X173173061Y-108248700D01*
X173376939Y-108248700D01*
X173576898Y-108208926D01*
X173765256Y-108130905D01*
X173934774Y-108017637D01*
X174078937Y-107873474D01*
X174192205Y-107703956D01*
X174270226Y-107515598D01*
X174290001Y-107416183D01*
X174290000Y-111290000D01*
X113701790Y-111290000D01*
X113701790Y-101051908D01*
X113709505Y-100927027D01*
X113729195Y-100852159D01*
X113763049Y-100782546D01*
X113809785Y-100720829D01*
X113867614Y-100669368D01*
X113934342Y-100630118D01*
X114007416Y-100604577D01*
X114110290Y-100590000D01*
X131085198Y-100590000D01*
X130573886Y-101101312D01*
G37*
G04 #@! TD.AperFunction*
M02*
