M48
; DRILL file {KiCad 5.1.9+dfsg1-1} date Sun Mar 13 19:21:38 2022
; FORMAT={-:-/ absolute / metric / decimal}
; #@! TF.CreationDate,2022-03-13T19:21:38+01:00
; #@! TF.GenerationSoftware,Kicad,Pcbnew,5.1.9+dfsg1-1
; #@! TF.FileFunction,Plated,1,2,PTH
FMAT,2
METRIC
T1C0.400
T2C0.850
%
G90
G05
T1
X131.261Y-103.589
X140.25Y-107.25
X143.062Y-106.309
X144.16Y-100.648
X145.146Y-107.245
X146.622Y-107.484
X149.194Y-107.443
X154.225Y-107.471
X155.441Y-100.65
X160.19Y-105.487
X165.65Y-106.489
X166.901Y-106.475
X170.0Y-106.488
X173.275Y-107.214
T2
X117.75Y-102.5
X119.0Y-105.0
X120.25Y-102.5
X121.5Y-105.0
X122.75Y-102.5
X124.0Y-105.0
X125.25Y-102.5
X126.5Y-105.0
X127.75Y-102.5
X129.0Y-105.0
X130.25Y-102.5
X131.5Y-105.0
X132.75Y-102.5
X134.0Y-105.0
X135.25Y-102.5
X136.5Y-105.0
X137.75Y-102.5
X139.0Y-105.0
X140.25Y-102.5
X141.5Y-105.0
X142.75Y-102.5
X144.0Y-105.0
X145.25Y-102.5
X146.5Y-105.0
X147.75Y-102.5
X149.0Y-105.0
X150.25Y-102.5
X151.5Y-105.0
X152.75Y-102.5
X154.0Y-105.0
X155.25Y-102.5
X156.5Y-105.0
T0
M30
