M48
; DRILL file {KiCad 5.1.9+dfsg1-1~bpo10+1} date Sun Feb  7 01:31:36 2021
; FORMAT={-:-/ absolute / inch / decimal}
; #@! TF.CreationDate,2021-02-07T01:31:36+01:00
; #@! TF.GenerationSoftware,Kicad,Pcbnew,5.1.9+dfsg1-1~bpo10+1
; #@! TF.FileFunction,Plated,1,2,PTH
FMAT,2
INCH
T1C0.0157
T2C0.0335
%
G90
G05
T1
X5.1678Y-4.0783
X5.5217Y-4.2224
X5.6324Y-4.1854
X5.7144Y-4.2223
X5.7725Y-4.2316
X5.8738Y-4.23
X5.949Y-3.9625
X6.0719Y-4.2311
X6.0744Y-3.9342
X6.5709Y-4.1919
X6.6929Y-4.1925
X6.8219Y-4.221
T2
X4.6358Y-4.0354
X4.685Y-4.1339
X4.7343Y-4.0354
X4.7835Y-4.1339
X4.8327Y-4.0354
X4.8819Y-4.1339
X4.9311Y-4.0354
X4.9803Y-4.1339
X5.0295Y-4.0354
X5.0787Y-4.1339
X5.128Y-4.0354
X5.1772Y-4.1339
X5.2264Y-4.0354
X5.2756Y-4.1339
X5.3248Y-4.0354
X5.374Y-4.1339
X5.4232Y-4.0354
X5.4724Y-4.1339
X5.5217Y-4.0354
X5.5709Y-4.1339
X5.6201Y-4.0354
X5.6693Y-4.1339
X5.7185Y-4.0354
X5.7677Y-4.1339
X5.8169Y-4.0354
X5.8661Y-4.1339
X5.9154Y-4.0354
X5.9646Y-4.1339
X6.0138Y-4.0354
X6.063Y-4.1339
X6.1122Y-4.0354
X6.1614Y-4.1339
T0
M30
