G04 #@! TF.GenerationSoftware,KiCad,Pcbnew,5.0.2+dfsg1-1*
G04 #@! TF.CreationDate,2020-12-29T17:43:56+01:00*
G04 #@! TF.ProjectId,KBD_ADAPTER_XE,4b42445f-4144-4415-9054-45525f58452e,1.0*
G04 #@! TF.SameCoordinates,Original*
G04 #@! TF.FileFunction,Soldermask,Top*
G04 #@! TF.FilePolarity,Negative*
%FSLAX46Y46*%
G04 Gerber Fmt 4.6, Leading zero omitted, Abs format (unit mm)*
G04 Created by KiCad (PCBNEW 5.0.2+dfsg1-1) date Tue 29 Dec 2020 05:43:56 PM CET*
%MOMM*%
%LPD*%
G01*
G04 APERTURE LIST*
%ADD10C,0.100000*%
G04 APERTURE END LIST*
D10*
G36*
X173406552Y-106780031D02*
X173488625Y-106814027D01*
X173488626Y-106814028D01*
X173488629Y-106814029D01*
X173562496Y-106863386D01*
X173562500Y-106863389D01*
X173625311Y-106926200D01*
X173625313Y-106926203D01*
X173625314Y-106926204D01*
X173674671Y-107000071D01*
X173674672Y-107000074D01*
X173674673Y-107000075D01*
X173708669Y-107082148D01*
X173726000Y-107169279D01*
X173726000Y-107258121D01*
X173708669Y-107345252D01*
X173674673Y-107427325D01*
X173674671Y-107427329D01*
X173625314Y-107501196D01*
X173625311Y-107501200D01*
X173562497Y-107564014D01*
X173553438Y-107570067D01*
X173534496Y-107585612D01*
X173518951Y-107604554D01*
X173507400Y-107626165D01*
X173500287Y-107649614D01*
X173497885Y-107674001D01*
X173500287Y-107698387D01*
X173507400Y-107721836D01*
X173518952Y-107743447D01*
X173534497Y-107762389D01*
X173553439Y-107777934D01*
X173575050Y-107789485D01*
X173598499Y-107796598D01*
X173622885Y-107799000D01*
X174088000Y-107799000D01*
X174088000Y-111901000D01*
X172462000Y-111901000D01*
X172462000Y-107799000D01*
X172927115Y-107799000D01*
X172951501Y-107796598D01*
X172974950Y-107789485D01*
X172996561Y-107777934D01*
X173015503Y-107762388D01*
X173031049Y-107743446D01*
X173042600Y-107721835D01*
X173049713Y-107698386D01*
X173052115Y-107674000D01*
X173049713Y-107649614D01*
X173042600Y-107626165D01*
X173031049Y-107604554D01*
X173015503Y-107585612D01*
X172996562Y-107570067D01*
X172987503Y-107564014D01*
X172924689Y-107501200D01*
X172924686Y-107501196D01*
X172875329Y-107427329D01*
X172875327Y-107427325D01*
X172841331Y-107345252D01*
X172824000Y-107258121D01*
X172824000Y-107169279D01*
X172841331Y-107082148D01*
X172875327Y-107000075D01*
X172875328Y-107000074D01*
X172875329Y-107000071D01*
X172924686Y-106926204D01*
X172924687Y-106926203D01*
X172924689Y-106926200D01*
X172987500Y-106863389D01*
X172987504Y-106863386D01*
X173061371Y-106814029D01*
X173061374Y-106814028D01*
X173061375Y-106814027D01*
X173143448Y-106780031D01*
X173230579Y-106762700D01*
X173319421Y-106762700D01*
X173406552Y-106780031D01*
X173406552Y-106780031D01*
G37*
G36*
X143608000Y-111901000D02*
X141982000Y-111901000D01*
X141982000Y-107799000D01*
X143608000Y-107799000D01*
X143608000Y-111901000D01*
X143608000Y-111901000D01*
G37*
G36*
X115668000Y-111901000D02*
X114042000Y-111901000D01*
X114042000Y-107799000D01*
X115668000Y-107799000D01*
X115668000Y-111901000D01*
X115668000Y-111901000D01*
G37*
G36*
X118208000Y-111901000D02*
X116582000Y-111901000D01*
X116582000Y-107799000D01*
X118208000Y-107799000D01*
X118208000Y-111901000D01*
X118208000Y-111901000D01*
G37*
G36*
X120748000Y-111901000D02*
X119122000Y-111901000D01*
X119122000Y-107799000D01*
X120748000Y-107799000D01*
X120748000Y-111901000D01*
X120748000Y-111901000D01*
G37*
G36*
X123288000Y-111901000D02*
X121662000Y-111901000D01*
X121662000Y-107799000D01*
X123288000Y-107799000D01*
X123288000Y-111901000D01*
X123288000Y-111901000D01*
G37*
G36*
X125828000Y-111901000D02*
X124202000Y-111901000D01*
X124202000Y-107799000D01*
X125828000Y-107799000D01*
X125828000Y-111901000D01*
X125828000Y-111901000D01*
G37*
G36*
X128368000Y-111901000D02*
X126742000Y-111901000D01*
X126742000Y-107799000D01*
X128368000Y-107799000D01*
X128368000Y-111901000D01*
X128368000Y-111901000D01*
G37*
G36*
X130908000Y-111901000D02*
X129282000Y-111901000D01*
X129282000Y-107799000D01*
X130908000Y-107799000D01*
X130908000Y-111901000D01*
X130908000Y-111901000D01*
G37*
G36*
X133448000Y-111901000D02*
X131822000Y-111901000D01*
X131822000Y-107799000D01*
X133448000Y-107799000D01*
X133448000Y-111901000D01*
X133448000Y-111901000D01*
G37*
G36*
X135988000Y-111901000D02*
X134362000Y-111901000D01*
X134362000Y-107799000D01*
X135988000Y-107799000D01*
X135988000Y-111901000D01*
X135988000Y-111901000D01*
G37*
G36*
X138528000Y-111901000D02*
X136902000Y-111901000D01*
X136902000Y-107799000D01*
X138528000Y-107799000D01*
X138528000Y-111901000D01*
X138528000Y-111901000D01*
G37*
G36*
X141068000Y-111901000D02*
X139442000Y-111901000D01*
X139442000Y-107799000D01*
X141068000Y-107799000D01*
X141068000Y-111901000D01*
X141068000Y-111901000D01*
G37*
G36*
X148688000Y-111901000D02*
X147062000Y-111901000D01*
X147062000Y-107799000D01*
X148688000Y-107799000D01*
X148688000Y-111901000D01*
X148688000Y-111901000D01*
G37*
G36*
X171548000Y-111901000D02*
X169922000Y-111901000D01*
X169922000Y-107799000D01*
X171548000Y-107799000D01*
X171548000Y-111901000D01*
X171548000Y-111901000D01*
G37*
G36*
X167213552Y-106864831D02*
X167295625Y-106898827D01*
X167295626Y-106898828D01*
X167295629Y-106898829D01*
X167369496Y-106948186D01*
X167369500Y-106948189D01*
X167432311Y-107011000D01*
X167432313Y-107011003D01*
X167432314Y-107011004D01*
X167481671Y-107084871D01*
X167481672Y-107084874D01*
X167481673Y-107084875D01*
X167515669Y-107166948D01*
X167533000Y-107254079D01*
X167533000Y-107342921D01*
X167515669Y-107430052D01*
X167486200Y-107501196D01*
X167481671Y-107512129D01*
X167432314Y-107585996D01*
X167432311Y-107585999D01*
X167432005Y-107586457D01*
X167417153Y-107604554D01*
X167405602Y-107626165D01*
X167398489Y-107649614D01*
X167396087Y-107674000D01*
X167398489Y-107698386D01*
X167405602Y-107721835D01*
X167417153Y-107743446D01*
X167432699Y-107762388D01*
X167451641Y-107777934D01*
X167473252Y-107789485D01*
X167496701Y-107796598D01*
X167521087Y-107799000D01*
X169008000Y-107799000D01*
X169008000Y-111901000D01*
X167382000Y-111901000D01*
X167382000Y-107849471D01*
X167379598Y-107825085D01*
X167372485Y-107801636D01*
X167360934Y-107780025D01*
X167345388Y-107761083D01*
X167326446Y-107745537D01*
X167304835Y-107733986D01*
X167281386Y-107726873D01*
X167257000Y-107724471D01*
X167232614Y-107726873D01*
X167218206Y-107731243D01*
X167126421Y-107749500D01*
X167037579Y-107749500D01*
X166950448Y-107732169D01*
X166868375Y-107698173D01*
X166868374Y-107698172D01*
X166868371Y-107698171D01*
X166794504Y-107648814D01*
X166794503Y-107648813D01*
X166794500Y-107648811D01*
X166731689Y-107586000D01*
X166731686Y-107585996D01*
X166682329Y-107512129D01*
X166677800Y-107501196D01*
X166648331Y-107430052D01*
X166631000Y-107342921D01*
X166631000Y-107254079D01*
X166648331Y-107166948D01*
X166682327Y-107084875D01*
X166682328Y-107084874D01*
X166682329Y-107084871D01*
X166731686Y-107011004D01*
X166731687Y-107011003D01*
X166731689Y-107011000D01*
X166794500Y-106948189D01*
X166794504Y-106948186D01*
X166868371Y-106898829D01*
X166868374Y-106898828D01*
X166868375Y-106898827D01*
X166950448Y-106864831D01*
X167037579Y-106847500D01*
X167126421Y-106847500D01*
X167213552Y-106864831D01*
X167213552Y-106864831D01*
G37*
G36*
X166468000Y-111901000D02*
X164842000Y-111901000D01*
X164842000Y-107799000D01*
X166468000Y-107799000D01*
X166468000Y-111901000D01*
X166468000Y-111901000D01*
G37*
G36*
X163928000Y-111901000D02*
X162302000Y-111901000D01*
X162302000Y-107799000D01*
X163928000Y-107799000D01*
X163928000Y-111901000D01*
X163928000Y-111901000D01*
G37*
G36*
X161388000Y-111901000D02*
X159762000Y-111901000D01*
X159762000Y-107799000D01*
X161388000Y-107799000D01*
X161388000Y-111901000D01*
X161388000Y-111901000D01*
G37*
G36*
X158848000Y-111901000D02*
X157222000Y-111901000D01*
X157222000Y-107799000D01*
X158848000Y-107799000D01*
X158848000Y-111901000D01*
X158848000Y-111901000D01*
G37*
G36*
X156308000Y-111901000D02*
X154682000Y-111901000D01*
X154682000Y-107799000D01*
X156308000Y-107799000D01*
X156308000Y-111901000D01*
X156308000Y-111901000D01*
G37*
G36*
X153768000Y-111901000D02*
X152142000Y-111901000D01*
X152142000Y-107799000D01*
X153768000Y-107799000D01*
X153768000Y-111901000D01*
X153768000Y-111901000D01*
G37*
G36*
X151228000Y-111901000D02*
X149602000Y-111901000D01*
X149602000Y-107799000D01*
X151228000Y-107799000D01*
X151228000Y-111901000D01*
X151228000Y-111901000D01*
G37*
G36*
X146148000Y-111901000D02*
X144522000Y-111901000D01*
X144522000Y-107799000D01*
X146148000Y-107799000D01*
X146148000Y-111901000D01*
X146148000Y-111901000D01*
G37*
G36*
X130131552Y-106316331D02*
X130213625Y-106350327D01*
X130213626Y-106350328D01*
X130213629Y-106350329D01*
X130287496Y-106399686D01*
X130287500Y-106399689D01*
X130350311Y-106462500D01*
X130350313Y-106462503D01*
X130350314Y-106462504D01*
X130399671Y-106536371D01*
X130399672Y-106536374D01*
X130399673Y-106536375D01*
X130433669Y-106618448D01*
X130451000Y-106705579D01*
X130451000Y-106794421D01*
X130433669Y-106881552D01*
X130404902Y-106951000D01*
X130399671Y-106963629D01*
X130350314Y-107037496D01*
X130350311Y-107037500D01*
X130287500Y-107100311D01*
X130287497Y-107100313D01*
X130287496Y-107100314D01*
X130213629Y-107149671D01*
X130213626Y-107149672D01*
X130213625Y-107149673D01*
X130131552Y-107183669D01*
X130044421Y-107201000D01*
X129955579Y-107201000D01*
X129868448Y-107183669D01*
X129786375Y-107149673D01*
X129786374Y-107149672D01*
X129786371Y-107149671D01*
X129712504Y-107100314D01*
X129712503Y-107100313D01*
X129712500Y-107100311D01*
X129649689Y-107037500D01*
X129649686Y-107037496D01*
X129600329Y-106963629D01*
X129595098Y-106951000D01*
X129566331Y-106881552D01*
X129549000Y-106794421D01*
X129549000Y-106705579D01*
X129566331Y-106618448D01*
X129600327Y-106536375D01*
X129600328Y-106536374D01*
X129600329Y-106536371D01*
X129649686Y-106462504D01*
X129649687Y-106462503D01*
X129649689Y-106462500D01*
X129712500Y-106399689D01*
X129712504Y-106399686D01*
X129786371Y-106350329D01*
X129786374Y-106350328D01*
X129786375Y-106350327D01*
X129868448Y-106316331D01*
X129955579Y-106299000D01*
X130044421Y-106299000D01*
X130131552Y-106316331D01*
X130131552Y-106316331D01*
G37*
G36*
X150381552Y-106066331D02*
X150463625Y-106100327D01*
X150463626Y-106100328D01*
X150463629Y-106100329D01*
X150489497Y-106117614D01*
X150537500Y-106149689D01*
X150600311Y-106212500D01*
X150600313Y-106212503D01*
X150600314Y-106212504D01*
X150649671Y-106286371D01*
X150649672Y-106286374D01*
X150649673Y-106286375D01*
X150683669Y-106368448D01*
X150701000Y-106455579D01*
X150701000Y-106544421D01*
X150683669Y-106631552D01*
X150653005Y-106705580D01*
X150649671Y-106713629D01*
X150616882Y-106762700D01*
X150600311Y-106787500D01*
X150537500Y-106850311D01*
X150537497Y-106850313D01*
X150537496Y-106850314D01*
X150463629Y-106899671D01*
X150463626Y-106899672D01*
X150463625Y-106899673D01*
X150381552Y-106933669D01*
X150294421Y-106951000D01*
X150205579Y-106951000D01*
X150118448Y-106933669D01*
X150036375Y-106899673D01*
X150036374Y-106899672D01*
X150036371Y-106899671D01*
X149962504Y-106850314D01*
X149962503Y-106850313D01*
X149962500Y-106850311D01*
X149899689Y-106787500D01*
X149883118Y-106762700D01*
X149850329Y-106713629D01*
X149846995Y-106705580D01*
X149816331Y-106631552D01*
X149799000Y-106544421D01*
X149799000Y-106455579D01*
X149816331Y-106368448D01*
X149850327Y-106286375D01*
X149850328Y-106286374D01*
X149850329Y-106286371D01*
X149899686Y-106212504D01*
X149899687Y-106212503D01*
X149899689Y-106212500D01*
X149962500Y-106149689D01*
X150010503Y-106117614D01*
X150036371Y-106100329D01*
X150036374Y-106100328D01*
X150036375Y-106100327D01*
X150118448Y-106066331D01*
X150205579Y-106049000D01*
X150294421Y-106049000D01*
X150381552Y-106066331D01*
X150381552Y-106066331D01*
G37*
G36*
X135131552Y-106066331D02*
X135213625Y-106100327D01*
X135213626Y-106100328D01*
X135213629Y-106100329D01*
X135239497Y-106117614D01*
X135287500Y-106149689D01*
X135350311Y-106212500D01*
X135350313Y-106212503D01*
X135350314Y-106212504D01*
X135399671Y-106286371D01*
X135399672Y-106286374D01*
X135399673Y-106286375D01*
X135433669Y-106368448D01*
X135451000Y-106455579D01*
X135451000Y-106544421D01*
X135433669Y-106631552D01*
X135403005Y-106705580D01*
X135399671Y-106713629D01*
X135366882Y-106762700D01*
X135350311Y-106787500D01*
X135287500Y-106850311D01*
X135287497Y-106850313D01*
X135287496Y-106850314D01*
X135213629Y-106899671D01*
X135213626Y-106899672D01*
X135213625Y-106899673D01*
X135131552Y-106933669D01*
X135044421Y-106951000D01*
X134955579Y-106951000D01*
X134868448Y-106933669D01*
X134786375Y-106899673D01*
X134786374Y-106899672D01*
X134786371Y-106899671D01*
X134712504Y-106850314D01*
X134712503Y-106850313D01*
X134712500Y-106850311D01*
X134649689Y-106787500D01*
X134633118Y-106762700D01*
X134600329Y-106713629D01*
X134596995Y-106705580D01*
X134566331Y-106631552D01*
X134549000Y-106544421D01*
X134549000Y-106455579D01*
X134566331Y-106368448D01*
X134600327Y-106286375D01*
X134600328Y-106286374D01*
X134600329Y-106286371D01*
X134649686Y-106212504D01*
X134649687Y-106212503D01*
X134649689Y-106212500D01*
X134712500Y-106149689D01*
X134760503Y-106117614D01*
X134786371Y-106100329D01*
X134786374Y-106100328D01*
X134786375Y-106100327D01*
X134868448Y-106066331D01*
X134955579Y-106049000D01*
X135044421Y-106049000D01*
X135131552Y-106066331D01*
X135131552Y-106066331D01*
G37*
G36*
X140381552Y-106066331D02*
X140463625Y-106100327D01*
X140463626Y-106100328D01*
X140463629Y-106100329D01*
X140489497Y-106117614D01*
X140537500Y-106149689D01*
X140600311Y-106212500D01*
X140600313Y-106212503D01*
X140600314Y-106212504D01*
X140649671Y-106286371D01*
X140649672Y-106286374D01*
X140649673Y-106286375D01*
X140683669Y-106368448D01*
X140701000Y-106455579D01*
X140701000Y-106544421D01*
X140683669Y-106631552D01*
X140653005Y-106705580D01*
X140649671Y-106713629D01*
X140616882Y-106762700D01*
X140600311Y-106787500D01*
X140537500Y-106850311D01*
X140537497Y-106850313D01*
X140537496Y-106850314D01*
X140463629Y-106899671D01*
X140463626Y-106899672D01*
X140463625Y-106899673D01*
X140381552Y-106933669D01*
X140294421Y-106951000D01*
X140205579Y-106951000D01*
X140118448Y-106933669D01*
X140036375Y-106899673D01*
X140036374Y-106899672D01*
X140036371Y-106899671D01*
X139962504Y-106850314D01*
X139962503Y-106850313D01*
X139962500Y-106850311D01*
X139899689Y-106787500D01*
X139883118Y-106762700D01*
X139850329Y-106713629D01*
X139846995Y-106705580D01*
X139816331Y-106631552D01*
X139799000Y-106544421D01*
X139799000Y-106455579D01*
X139816331Y-106368448D01*
X139850327Y-106286375D01*
X139850328Y-106286374D01*
X139850329Y-106286371D01*
X139899686Y-106212504D01*
X139899687Y-106212503D01*
X139899689Y-106212500D01*
X139962500Y-106149689D01*
X140010503Y-106117614D01*
X140036371Y-106100329D01*
X140036374Y-106100328D01*
X140036375Y-106100327D01*
X140118448Y-106066331D01*
X140205579Y-106049000D01*
X140294421Y-106049000D01*
X140381552Y-106066331D01*
X140381552Y-106066331D01*
G37*
G36*
X145381552Y-106066331D02*
X145463625Y-106100327D01*
X145463626Y-106100328D01*
X145463629Y-106100329D01*
X145489497Y-106117614D01*
X145537500Y-106149689D01*
X145600311Y-106212500D01*
X145600313Y-106212503D01*
X145600314Y-106212504D01*
X145649671Y-106286371D01*
X145649672Y-106286374D01*
X145649673Y-106286375D01*
X145683669Y-106368448D01*
X145701000Y-106455579D01*
X145701000Y-106544421D01*
X145683669Y-106631552D01*
X145653005Y-106705580D01*
X145649671Y-106713629D01*
X145616882Y-106762700D01*
X145600311Y-106787500D01*
X145537500Y-106850311D01*
X145537497Y-106850313D01*
X145537496Y-106850314D01*
X145463629Y-106899671D01*
X145463626Y-106899672D01*
X145463625Y-106899673D01*
X145381552Y-106933669D01*
X145294421Y-106951000D01*
X145205579Y-106951000D01*
X145118448Y-106933669D01*
X145036375Y-106899673D01*
X145036374Y-106899672D01*
X145036371Y-106899671D01*
X144962504Y-106850314D01*
X144962503Y-106850313D01*
X144962500Y-106850311D01*
X144899689Y-106787500D01*
X144883118Y-106762700D01*
X144850329Y-106713629D01*
X144846995Y-106705580D01*
X144816331Y-106631552D01*
X144799000Y-106544421D01*
X144799000Y-106455579D01*
X144816331Y-106368448D01*
X144850327Y-106286375D01*
X144850328Y-106286374D01*
X144850329Y-106286371D01*
X144899686Y-106212504D01*
X144899687Y-106212503D01*
X144899689Y-106212500D01*
X144962500Y-106149689D01*
X145010503Y-106117614D01*
X145036371Y-106100329D01*
X145036374Y-106100328D01*
X145036375Y-106100327D01*
X145118448Y-106066331D01*
X145205579Y-106049000D01*
X145294421Y-106049000D01*
X145381552Y-106066331D01*
X145381552Y-106066331D01*
G37*
G36*
X159646852Y-105783931D02*
X159728925Y-105817927D01*
X159728926Y-105817928D01*
X159728929Y-105817929D01*
X159802796Y-105867286D01*
X159802800Y-105867289D01*
X159865611Y-105930100D01*
X159865613Y-105930103D01*
X159865614Y-105930104D01*
X159914971Y-106003971D01*
X159914972Y-106003974D01*
X159914973Y-106003975D01*
X159948969Y-106086048D01*
X159966300Y-106173179D01*
X159966300Y-106262021D01*
X159948969Y-106349152D01*
X159914973Y-106431225D01*
X159914971Y-106431229D01*
X159894076Y-106462500D01*
X159865611Y-106505100D01*
X159802800Y-106567911D01*
X159802797Y-106567913D01*
X159802796Y-106567914D01*
X159728929Y-106617271D01*
X159728926Y-106617272D01*
X159728925Y-106617273D01*
X159646852Y-106651269D01*
X159559721Y-106668600D01*
X159470879Y-106668600D01*
X159383748Y-106651269D01*
X159301675Y-106617273D01*
X159301674Y-106617272D01*
X159301671Y-106617271D01*
X159227804Y-106567914D01*
X159227803Y-106567913D01*
X159227800Y-106567911D01*
X159164989Y-106505100D01*
X159136524Y-106462500D01*
X159115629Y-106431229D01*
X159115627Y-106431225D01*
X159081631Y-106349152D01*
X159064300Y-106262021D01*
X159064300Y-106173179D01*
X159081631Y-106086048D01*
X159115627Y-106003975D01*
X159115628Y-106003974D01*
X159115629Y-106003971D01*
X159164986Y-105930104D01*
X159164987Y-105930103D01*
X159164989Y-105930100D01*
X159227800Y-105867289D01*
X159227804Y-105867286D01*
X159301671Y-105817929D01*
X159301674Y-105817928D01*
X159301675Y-105817927D01*
X159383748Y-105783931D01*
X159470879Y-105766600D01*
X159559721Y-105766600D01*
X159646852Y-105783931D01*
X159646852Y-105783931D01*
G37*
G36*
X152916452Y-105463531D02*
X152998525Y-105497527D01*
X152998526Y-105497528D01*
X152998529Y-105497529D01*
X153072396Y-105546886D01*
X153072400Y-105546889D01*
X153135211Y-105609700D01*
X153135213Y-105609703D01*
X153135214Y-105609704D01*
X153184571Y-105683571D01*
X153184572Y-105683574D01*
X153184573Y-105683575D01*
X153218569Y-105765648D01*
X153235900Y-105852779D01*
X153235900Y-105941621D01*
X153218569Y-106028752D01*
X153184573Y-106110825D01*
X153184571Y-106110829D01*
X153135214Y-106184696D01*
X153135211Y-106184700D01*
X153072400Y-106247511D01*
X153072397Y-106247513D01*
X153072396Y-106247514D01*
X152998529Y-106296871D01*
X152998526Y-106296872D01*
X152998525Y-106296873D01*
X152916452Y-106330869D01*
X152829321Y-106348200D01*
X152740479Y-106348200D01*
X152653348Y-106330869D01*
X152571275Y-106296873D01*
X152571274Y-106296872D01*
X152571271Y-106296871D01*
X152497404Y-106247514D01*
X152497403Y-106247513D01*
X152497400Y-106247511D01*
X152434589Y-106184700D01*
X152434586Y-106184696D01*
X152385229Y-106110829D01*
X152385227Y-106110825D01*
X152351231Y-106028752D01*
X152333900Y-105941621D01*
X152333900Y-105852779D01*
X152351231Y-105765648D01*
X152385227Y-105683575D01*
X152385228Y-105683574D01*
X152385229Y-105683571D01*
X152434586Y-105609704D01*
X152434587Y-105609703D01*
X152434589Y-105609700D01*
X152497400Y-105546889D01*
X152497404Y-105546886D01*
X152571271Y-105497529D01*
X152571274Y-105497528D01*
X152571275Y-105497527D01*
X152653348Y-105463531D01*
X152740479Y-105446200D01*
X152829321Y-105446200D01*
X152916452Y-105463531D01*
X152916452Y-105463531D01*
G37*
G36*
X157185652Y-104939031D02*
X157267725Y-104973027D01*
X157267726Y-104973028D01*
X157267729Y-104973029D01*
X157341596Y-105022386D01*
X157341600Y-105022389D01*
X157404411Y-105085200D01*
X157404413Y-105085203D01*
X157404414Y-105085204D01*
X157453771Y-105159071D01*
X157453772Y-105159074D01*
X157453773Y-105159075D01*
X157487769Y-105241148D01*
X157505100Y-105328279D01*
X157505100Y-105417121D01*
X157487769Y-105504252D01*
X157467297Y-105553675D01*
X157453771Y-105586329D01*
X157404414Y-105660196D01*
X157404411Y-105660200D01*
X157341600Y-105723011D01*
X157341597Y-105723013D01*
X157341596Y-105723014D01*
X157267729Y-105772371D01*
X157267726Y-105772372D01*
X157267725Y-105772373D01*
X157185652Y-105806369D01*
X157098521Y-105823700D01*
X157009679Y-105823700D01*
X156922548Y-105806369D01*
X156840475Y-105772373D01*
X156840474Y-105772372D01*
X156840471Y-105772371D01*
X156766604Y-105723014D01*
X156766603Y-105723013D01*
X156766600Y-105723011D01*
X156718088Y-105674499D01*
X156699146Y-105658953D01*
X156677535Y-105647402D01*
X156654086Y-105640289D01*
X156629700Y-105637887D01*
X156605314Y-105640289D01*
X156581865Y-105647402D01*
X156560254Y-105658953D01*
X156541312Y-105674499D01*
X156525766Y-105693441D01*
X156514215Y-105715052D01*
X156507102Y-105738501D01*
X156504700Y-105762887D01*
X156504700Y-105811721D01*
X156487369Y-105898852D01*
X156469653Y-105941621D01*
X156453371Y-105980929D01*
X156404014Y-106054796D01*
X156404011Y-106054800D01*
X156341200Y-106117611D01*
X156341197Y-106117613D01*
X156341196Y-106117614D01*
X156267329Y-106166971D01*
X156267326Y-106166972D01*
X156267325Y-106166973D01*
X156185252Y-106200969D01*
X156098121Y-106218300D01*
X156009279Y-106218300D01*
X155922148Y-106200969D01*
X155840075Y-106166973D01*
X155840074Y-106166972D01*
X155840071Y-106166971D01*
X155766204Y-106117614D01*
X155766203Y-106117613D01*
X155766200Y-106117611D01*
X155703389Y-106054800D01*
X155703386Y-106054796D01*
X155654029Y-105980929D01*
X155637747Y-105941621D01*
X155620031Y-105898852D01*
X155602700Y-105811721D01*
X155602700Y-105722879D01*
X155620031Y-105635748D01*
X155654027Y-105553675D01*
X155654028Y-105553674D01*
X155654029Y-105553671D01*
X155703386Y-105479804D01*
X155703387Y-105479803D01*
X155703389Y-105479800D01*
X155766200Y-105416989D01*
X155789382Y-105401499D01*
X155840071Y-105367629D01*
X155840074Y-105367628D01*
X155840075Y-105367627D01*
X155922148Y-105333631D01*
X156009279Y-105316300D01*
X156098121Y-105316300D01*
X156185252Y-105333631D01*
X156267325Y-105367627D01*
X156267326Y-105367628D01*
X156267329Y-105367629D01*
X156318018Y-105401499D01*
X156341200Y-105416989D01*
X156389712Y-105465501D01*
X156408654Y-105481047D01*
X156430265Y-105492598D01*
X156453714Y-105499711D01*
X156478100Y-105502113D01*
X156502486Y-105499711D01*
X156525935Y-105492598D01*
X156547546Y-105481047D01*
X156566488Y-105465501D01*
X156582034Y-105446559D01*
X156593585Y-105424948D01*
X156600698Y-105401499D01*
X156603100Y-105377113D01*
X156603100Y-105328279D01*
X156620431Y-105241148D01*
X156654427Y-105159075D01*
X156654428Y-105159074D01*
X156654429Y-105159071D01*
X156703786Y-105085204D01*
X156703787Y-105085203D01*
X156703789Y-105085200D01*
X156766600Y-105022389D01*
X156766604Y-105022386D01*
X156840471Y-104973029D01*
X156840474Y-104973028D01*
X156840475Y-104973027D01*
X156922548Y-104939031D01*
X157009679Y-104921700D01*
X157098521Y-104921700D01*
X157185652Y-104939031D01*
X157185652Y-104939031D01*
G37*
G36*
X123331552Y-104816331D02*
X123413625Y-104850327D01*
X123413626Y-104850328D01*
X123413629Y-104850329D01*
X123487496Y-104899686D01*
X123487500Y-104899689D01*
X123550311Y-104962500D01*
X123550313Y-104962503D01*
X123550314Y-104962504D01*
X123599671Y-105036371D01*
X123599672Y-105036374D01*
X123599673Y-105036375D01*
X123633669Y-105118448D01*
X123651000Y-105205579D01*
X123651000Y-105294421D01*
X123633669Y-105381552D01*
X123599673Y-105463625D01*
X123599671Y-105463629D01*
X123577019Y-105497529D01*
X123550311Y-105537500D01*
X123487500Y-105600311D01*
X123487497Y-105600313D01*
X123487496Y-105600314D01*
X123413629Y-105649671D01*
X123413626Y-105649672D01*
X123413625Y-105649673D01*
X123331552Y-105683669D01*
X123244421Y-105701000D01*
X123155579Y-105701000D01*
X123068448Y-105683669D01*
X122986375Y-105649673D01*
X122986374Y-105649672D01*
X122986371Y-105649671D01*
X122912504Y-105600314D01*
X122912503Y-105600313D01*
X122912500Y-105600311D01*
X122849689Y-105537500D01*
X122822981Y-105497529D01*
X122800329Y-105463629D01*
X122800327Y-105463625D01*
X122766331Y-105381552D01*
X122749000Y-105294421D01*
X122749000Y-105205579D01*
X122766331Y-105118448D01*
X122800327Y-105036375D01*
X122800328Y-105036374D01*
X122800329Y-105036371D01*
X122849686Y-104962504D01*
X122849687Y-104962503D01*
X122849689Y-104962500D01*
X122912500Y-104899689D01*
X122912504Y-104899686D01*
X122986371Y-104850329D01*
X122986374Y-104850328D01*
X122986375Y-104850327D01*
X123068448Y-104816331D01*
X123155579Y-104799000D01*
X123244421Y-104799000D01*
X123331552Y-104816331D01*
X123331552Y-104816331D01*
G37*
G36*
X137644552Y-103803331D02*
X137726625Y-103837327D01*
X137726626Y-103837328D01*
X137726629Y-103837329D01*
X137800496Y-103886686D01*
X137800500Y-103886689D01*
X137863311Y-103949500D01*
X137863313Y-103949503D01*
X137863314Y-103949504D01*
X137912671Y-104023371D01*
X137912672Y-104023374D01*
X137912673Y-104023375D01*
X137946669Y-104105448D01*
X137964000Y-104192579D01*
X137964000Y-104281421D01*
X137946669Y-104368552D01*
X137912673Y-104450625D01*
X137912671Y-104450629D01*
X137863314Y-104524496D01*
X137863311Y-104524500D01*
X137800500Y-104587311D01*
X137800497Y-104587313D01*
X137800496Y-104587314D01*
X137726629Y-104636671D01*
X137726626Y-104636672D01*
X137726625Y-104636673D01*
X137644552Y-104670669D01*
X137557421Y-104688000D01*
X137468579Y-104688000D01*
X137381448Y-104670669D01*
X137299375Y-104636673D01*
X137299374Y-104636672D01*
X137299371Y-104636671D01*
X137225504Y-104587314D01*
X137225503Y-104587313D01*
X137225500Y-104587311D01*
X137162689Y-104524500D01*
X137162686Y-104524496D01*
X137113329Y-104450629D01*
X137113327Y-104450625D01*
X137079331Y-104368552D01*
X137062000Y-104281421D01*
X137062000Y-104192579D01*
X137079331Y-104105448D01*
X137113327Y-104023375D01*
X137113328Y-104023374D01*
X137113329Y-104023371D01*
X137162686Y-103949504D01*
X137162687Y-103949503D01*
X137162689Y-103949500D01*
X137225500Y-103886689D01*
X137225504Y-103886686D01*
X137299371Y-103837329D01*
X137299374Y-103837328D01*
X137299375Y-103837327D01*
X137381448Y-103803331D01*
X137468579Y-103786000D01*
X137557421Y-103786000D01*
X137644552Y-103803331D01*
X137644552Y-103803331D01*
G37*
G36*
X159876560Y-102010166D02*
X160024153Y-102071301D01*
X160155213Y-102158873D01*
X160156985Y-102160057D01*
X160269943Y-102273015D01*
X160358700Y-102405849D01*
X160419834Y-102553440D01*
X160451000Y-102710122D01*
X160451000Y-102869878D01*
X160419834Y-103026560D01*
X160358700Y-103174151D01*
X160269943Y-103306985D01*
X160156985Y-103419943D01*
X160156982Y-103419945D01*
X160024153Y-103508699D01*
X160024152Y-103508700D01*
X160024151Y-103508700D01*
X159876560Y-103569834D01*
X159719878Y-103601000D01*
X159560122Y-103601000D01*
X159403440Y-103569834D01*
X159255849Y-103508700D01*
X159255848Y-103508700D01*
X159255847Y-103508699D01*
X159123018Y-103419945D01*
X159123015Y-103419943D01*
X159010057Y-103306985D01*
X158921300Y-103174151D01*
X158860166Y-103026560D01*
X158829000Y-102869878D01*
X158829000Y-102710122D01*
X158860166Y-102553440D01*
X158921300Y-102405849D01*
X159010057Y-102273015D01*
X159123015Y-102160057D01*
X159124787Y-102158873D01*
X159255847Y-102071301D01*
X159403440Y-102010166D01*
X159560122Y-101979000D01*
X159719878Y-101979000D01*
X159876560Y-102010166D01*
X159876560Y-102010166D01*
G37*
G36*
X157336560Y-102010166D02*
X157484153Y-102071301D01*
X157615213Y-102158873D01*
X157616985Y-102160057D01*
X157729943Y-102273015D01*
X157818700Y-102405849D01*
X157879834Y-102553440D01*
X157911000Y-102710122D01*
X157911000Y-102869878D01*
X157879834Y-103026560D01*
X157818700Y-103174151D01*
X157729943Y-103306985D01*
X157616985Y-103419943D01*
X157616982Y-103419945D01*
X157484153Y-103508699D01*
X157484152Y-103508700D01*
X157484151Y-103508700D01*
X157336560Y-103569834D01*
X157179878Y-103601000D01*
X157020122Y-103601000D01*
X156863440Y-103569834D01*
X156715849Y-103508700D01*
X156715848Y-103508700D01*
X156715847Y-103508699D01*
X156583018Y-103419945D01*
X156583015Y-103419943D01*
X156470057Y-103306985D01*
X156381300Y-103174151D01*
X156320166Y-103026560D01*
X156289000Y-102869878D01*
X156289000Y-102710122D01*
X156320166Y-102553440D01*
X156381300Y-102405849D01*
X156470057Y-102273015D01*
X156583015Y-102160057D01*
X156584787Y-102158873D01*
X156715847Y-102071301D01*
X156863440Y-102010166D01*
X157020122Y-101979000D01*
X157179878Y-101979000D01*
X157336560Y-102010166D01*
X157336560Y-102010166D01*
G37*
G36*
X154796560Y-102010166D02*
X154944153Y-102071301D01*
X155075213Y-102158873D01*
X155076985Y-102160057D01*
X155189943Y-102273015D01*
X155278700Y-102405849D01*
X155339834Y-102553440D01*
X155371000Y-102710122D01*
X155371000Y-102869878D01*
X155339834Y-103026560D01*
X155278700Y-103174151D01*
X155189943Y-103306985D01*
X155076985Y-103419943D01*
X155076982Y-103419945D01*
X154944153Y-103508699D01*
X154944152Y-103508700D01*
X154944151Y-103508700D01*
X154796560Y-103569834D01*
X154639878Y-103601000D01*
X154480122Y-103601000D01*
X154323440Y-103569834D01*
X154175849Y-103508700D01*
X154175848Y-103508700D01*
X154175847Y-103508699D01*
X154043018Y-103419945D01*
X154043015Y-103419943D01*
X153930057Y-103306985D01*
X153841300Y-103174151D01*
X153780166Y-103026560D01*
X153749000Y-102869878D01*
X153749000Y-102710122D01*
X153780166Y-102553440D01*
X153841300Y-102405849D01*
X153930057Y-102273015D01*
X154043015Y-102160057D01*
X154044787Y-102158873D01*
X154175847Y-102071301D01*
X154323440Y-102010166D01*
X154480122Y-101979000D01*
X154639878Y-101979000D01*
X154796560Y-102010166D01*
X154796560Y-102010166D01*
G37*
G36*
X152256560Y-102010166D02*
X152404153Y-102071301D01*
X152535213Y-102158873D01*
X152536985Y-102160057D01*
X152649943Y-102273015D01*
X152738700Y-102405849D01*
X152799834Y-102553440D01*
X152831000Y-102710122D01*
X152831000Y-102869878D01*
X152799834Y-103026560D01*
X152738700Y-103174151D01*
X152649943Y-103306985D01*
X152536985Y-103419943D01*
X152536982Y-103419945D01*
X152404153Y-103508699D01*
X152404152Y-103508700D01*
X152404151Y-103508700D01*
X152256560Y-103569834D01*
X152099878Y-103601000D01*
X151940122Y-103601000D01*
X151783440Y-103569834D01*
X151635849Y-103508700D01*
X151635848Y-103508700D01*
X151635847Y-103508699D01*
X151503018Y-103419945D01*
X151503015Y-103419943D01*
X151390057Y-103306985D01*
X151301300Y-103174151D01*
X151240166Y-103026560D01*
X151209000Y-102869878D01*
X151209000Y-102710122D01*
X151240166Y-102553440D01*
X151301300Y-102405849D01*
X151390057Y-102273015D01*
X151503015Y-102160057D01*
X151504787Y-102158873D01*
X151635847Y-102071301D01*
X151783440Y-102010166D01*
X151940122Y-101979000D01*
X152099878Y-101979000D01*
X152256560Y-102010166D01*
X152256560Y-102010166D01*
G37*
G36*
X149716560Y-102010166D02*
X149864153Y-102071301D01*
X149995213Y-102158873D01*
X149996985Y-102160057D01*
X150109943Y-102273015D01*
X150198700Y-102405849D01*
X150259834Y-102553440D01*
X150291000Y-102710122D01*
X150291000Y-102869878D01*
X150259834Y-103026560D01*
X150198700Y-103174151D01*
X150109943Y-103306985D01*
X149996985Y-103419943D01*
X149996982Y-103419945D01*
X149864153Y-103508699D01*
X149864152Y-103508700D01*
X149864151Y-103508700D01*
X149716560Y-103569834D01*
X149559878Y-103601000D01*
X149400122Y-103601000D01*
X149243440Y-103569834D01*
X149095849Y-103508700D01*
X149095848Y-103508700D01*
X149095847Y-103508699D01*
X148963018Y-103419945D01*
X148963015Y-103419943D01*
X148850057Y-103306985D01*
X148761300Y-103174151D01*
X148700166Y-103026560D01*
X148669000Y-102869878D01*
X148669000Y-102710122D01*
X148700166Y-102553440D01*
X148761300Y-102405849D01*
X148850057Y-102273015D01*
X148963015Y-102160057D01*
X148964787Y-102158873D01*
X149095847Y-102071301D01*
X149243440Y-102010166D01*
X149400122Y-101979000D01*
X149559878Y-101979000D01*
X149716560Y-102010166D01*
X149716560Y-102010166D01*
G37*
G36*
X147176560Y-102010166D02*
X147324153Y-102071301D01*
X147455213Y-102158873D01*
X147456985Y-102160057D01*
X147569943Y-102273015D01*
X147658700Y-102405849D01*
X147719834Y-102553440D01*
X147751000Y-102710122D01*
X147751000Y-102869878D01*
X147719834Y-103026560D01*
X147658700Y-103174151D01*
X147569943Y-103306985D01*
X147456985Y-103419943D01*
X147456982Y-103419945D01*
X147324153Y-103508699D01*
X147324152Y-103508700D01*
X147324151Y-103508700D01*
X147176560Y-103569834D01*
X147019878Y-103601000D01*
X146860122Y-103601000D01*
X146703440Y-103569834D01*
X146555849Y-103508700D01*
X146555848Y-103508700D01*
X146555847Y-103508699D01*
X146423018Y-103419945D01*
X146423015Y-103419943D01*
X146310057Y-103306985D01*
X146221300Y-103174151D01*
X146160166Y-103026560D01*
X146129000Y-102869878D01*
X146129000Y-102710122D01*
X146160166Y-102553440D01*
X146221300Y-102405849D01*
X146310057Y-102273015D01*
X146423015Y-102160057D01*
X146424787Y-102158873D01*
X146555847Y-102071301D01*
X146703440Y-102010166D01*
X146860122Y-101979000D01*
X147019878Y-101979000D01*
X147176560Y-102010166D01*
X147176560Y-102010166D01*
G37*
G36*
X144636560Y-102010166D02*
X144784153Y-102071301D01*
X144915213Y-102158873D01*
X144916985Y-102160057D01*
X145029943Y-102273015D01*
X145118700Y-102405849D01*
X145179834Y-102553440D01*
X145211000Y-102710122D01*
X145211000Y-102869878D01*
X145179834Y-103026560D01*
X145118700Y-103174151D01*
X145029943Y-103306985D01*
X144916985Y-103419943D01*
X144916982Y-103419945D01*
X144784153Y-103508699D01*
X144784152Y-103508700D01*
X144784151Y-103508700D01*
X144636560Y-103569834D01*
X144479878Y-103601000D01*
X144320122Y-103601000D01*
X144163440Y-103569834D01*
X144015849Y-103508700D01*
X144015848Y-103508700D01*
X144015847Y-103508699D01*
X143883018Y-103419945D01*
X143883015Y-103419943D01*
X143770057Y-103306985D01*
X143681300Y-103174151D01*
X143620166Y-103026560D01*
X143589000Y-102869878D01*
X143589000Y-102710122D01*
X143620166Y-102553440D01*
X143681300Y-102405849D01*
X143770057Y-102273015D01*
X143883015Y-102160057D01*
X143884787Y-102158873D01*
X144015847Y-102071301D01*
X144163440Y-102010166D01*
X144320122Y-101979000D01*
X144479878Y-101979000D01*
X144636560Y-102010166D01*
X144636560Y-102010166D01*
G37*
G36*
X142096560Y-102010166D02*
X142244153Y-102071301D01*
X142375213Y-102158873D01*
X142376985Y-102160057D01*
X142489943Y-102273015D01*
X142578700Y-102405849D01*
X142639834Y-102553440D01*
X142671000Y-102710122D01*
X142671000Y-102869878D01*
X142639834Y-103026560D01*
X142578700Y-103174151D01*
X142489943Y-103306985D01*
X142376985Y-103419943D01*
X142376982Y-103419945D01*
X142244153Y-103508699D01*
X142244152Y-103508700D01*
X142244151Y-103508700D01*
X142096560Y-103569834D01*
X141939878Y-103601000D01*
X141780122Y-103601000D01*
X141623440Y-103569834D01*
X141475849Y-103508700D01*
X141475848Y-103508700D01*
X141475847Y-103508699D01*
X141343018Y-103419945D01*
X141343015Y-103419943D01*
X141230057Y-103306985D01*
X141141300Y-103174151D01*
X141080166Y-103026560D01*
X141049000Y-102869878D01*
X141049000Y-102710122D01*
X141080166Y-102553440D01*
X141141300Y-102405849D01*
X141230057Y-102273015D01*
X141343015Y-102160057D01*
X141344787Y-102158873D01*
X141475847Y-102071301D01*
X141623440Y-102010166D01*
X141780122Y-101979000D01*
X141939878Y-101979000D01*
X142096560Y-102010166D01*
X142096560Y-102010166D01*
G37*
G36*
X137016560Y-102010166D02*
X137164153Y-102071301D01*
X137295213Y-102158873D01*
X137296985Y-102160057D01*
X137409943Y-102273015D01*
X137498700Y-102405849D01*
X137559834Y-102553440D01*
X137591000Y-102710122D01*
X137591000Y-102869878D01*
X137559834Y-103026560D01*
X137498700Y-103174151D01*
X137409943Y-103306985D01*
X137296985Y-103419943D01*
X137296982Y-103419945D01*
X137164153Y-103508699D01*
X137164152Y-103508700D01*
X137164151Y-103508700D01*
X137016560Y-103569834D01*
X136859878Y-103601000D01*
X136700122Y-103601000D01*
X136543440Y-103569834D01*
X136395849Y-103508700D01*
X136395848Y-103508700D01*
X136395847Y-103508699D01*
X136263018Y-103419945D01*
X136263015Y-103419943D01*
X136150057Y-103306985D01*
X136061300Y-103174151D01*
X136000166Y-103026560D01*
X135969000Y-102869878D01*
X135969000Y-102710122D01*
X136000166Y-102553440D01*
X136061300Y-102405849D01*
X136150057Y-102273015D01*
X136263015Y-102160057D01*
X136264787Y-102158873D01*
X136395847Y-102071301D01*
X136543440Y-102010166D01*
X136700122Y-101979000D01*
X136859878Y-101979000D01*
X137016560Y-102010166D01*
X137016560Y-102010166D01*
G37*
G36*
X139556560Y-102010166D02*
X139704153Y-102071301D01*
X139835213Y-102158873D01*
X139836985Y-102160057D01*
X139949943Y-102273015D01*
X140038700Y-102405849D01*
X140099834Y-102553440D01*
X140131000Y-102710122D01*
X140131000Y-102869878D01*
X140099834Y-103026560D01*
X140038700Y-103174151D01*
X139949943Y-103306985D01*
X139836985Y-103419943D01*
X139836982Y-103419945D01*
X139704153Y-103508699D01*
X139704152Y-103508700D01*
X139704151Y-103508700D01*
X139556560Y-103569834D01*
X139399878Y-103601000D01*
X139240122Y-103601000D01*
X139083440Y-103569834D01*
X138935849Y-103508700D01*
X138935848Y-103508700D01*
X138935847Y-103508699D01*
X138803018Y-103419945D01*
X138803015Y-103419943D01*
X138690057Y-103306985D01*
X138601300Y-103174151D01*
X138540166Y-103026560D01*
X138509000Y-102869878D01*
X138509000Y-102710122D01*
X138540166Y-102553440D01*
X138601300Y-102405849D01*
X138690057Y-102273015D01*
X138803015Y-102160057D01*
X138804787Y-102158873D01*
X138935847Y-102071301D01*
X139083440Y-102010166D01*
X139240122Y-101979000D01*
X139399878Y-101979000D01*
X139556560Y-102010166D01*
X139556560Y-102010166D01*
G37*
G36*
X119236560Y-102010166D02*
X119384153Y-102071301D01*
X119515213Y-102158873D01*
X119516985Y-102160057D01*
X119629943Y-102273015D01*
X119718700Y-102405849D01*
X119779834Y-102553440D01*
X119811000Y-102710122D01*
X119811000Y-102869878D01*
X119779834Y-103026560D01*
X119718700Y-103174151D01*
X119629943Y-103306985D01*
X119516985Y-103419943D01*
X119516982Y-103419945D01*
X119384153Y-103508699D01*
X119384152Y-103508700D01*
X119384151Y-103508700D01*
X119236560Y-103569834D01*
X119079878Y-103601000D01*
X118920122Y-103601000D01*
X118763440Y-103569834D01*
X118615849Y-103508700D01*
X118615848Y-103508700D01*
X118615847Y-103508699D01*
X118483018Y-103419945D01*
X118483015Y-103419943D01*
X118370057Y-103306985D01*
X118281300Y-103174151D01*
X118220166Y-103026560D01*
X118189000Y-102869878D01*
X118189000Y-102710122D01*
X118220166Y-102553440D01*
X118281300Y-102405849D01*
X118370057Y-102273015D01*
X118483015Y-102160057D01*
X118484787Y-102158873D01*
X118615847Y-102071301D01*
X118763440Y-102010166D01*
X118920122Y-101979000D01*
X119079878Y-101979000D01*
X119236560Y-102010166D01*
X119236560Y-102010166D01*
G37*
G36*
X124316560Y-102010166D02*
X124464153Y-102071301D01*
X124595213Y-102158873D01*
X124596985Y-102160057D01*
X124709943Y-102273015D01*
X124798700Y-102405849D01*
X124859834Y-102553440D01*
X124891000Y-102710122D01*
X124891000Y-102869878D01*
X124859834Y-103026560D01*
X124798700Y-103174151D01*
X124709943Y-103306985D01*
X124596985Y-103419943D01*
X124596982Y-103419945D01*
X124464153Y-103508699D01*
X124464152Y-103508700D01*
X124464151Y-103508700D01*
X124316560Y-103569834D01*
X124159878Y-103601000D01*
X124000122Y-103601000D01*
X123843440Y-103569834D01*
X123695849Y-103508700D01*
X123695848Y-103508700D01*
X123695847Y-103508699D01*
X123563018Y-103419945D01*
X123563015Y-103419943D01*
X123450057Y-103306985D01*
X123361300Y-103174151D01*
X123300166Y-103026560D01*
X123269000Y-102869878D01*
X123269000Y-102710122D01*
X123300166Y-102553440D01*
X123361300Y-102405849D01*
X123450057Y-102273015D01*
X123563015Y-102160057D01*
X123564787Y-102158873D01*
X123695847Y-102071301D01*
X123843440Y-102010166D01*
X124000122Y-101979000D01*
X124159878Y-101979000D01*
X124316560Y-102010166D01*
X124316560Y-102010166D01*
G37*
G36*
X121776560Y-102010166D02*
X121924153Y-102071301D01*
X122055213Y-102158873D01*
X122056985Y-102160057D01*
X122169943Y-102273015D01*
X122258700Y-102405849D01*
X122319834Y-102553440D01*
X122351000Y-102710122D01*
X122351000Y-102869878D01*
X122319834Y-103026560D01*
X122258700Y-103174151D01*
X122169943Y-103306985D01*
X122056985Y-103419943D01*
X122056982Y-103419945D01*
X121924153Y-103508699D01*
X121924152Y-103508700D01*
X121924151Y-103508700D01*
X121776560Y-103569834D01*
X121619878Y-103601000D01*
X121460122Y-103601000D01*
X121303440Y-103569834D01*
X121155849Y-103508700D01*
X121155848Y-103508700D01*
X121155847Y-103508699D01*
X121023018Y-103419945D01*
X121023015Y-103419943D01*
X120910057Y-103306985D01*
X120821300Y-103174151D01*
X120760166Y-103026560D01*
X120729000Y-102869878D01*
X120729000Y-102710122D01*
X120760166Y-102553440D01*
X120821300Y-102405849D01*
X120910057Y-102273015D01*
X121023015Y-102160057D01*
X121024787Y-102158873D01*
X121155847Y-102071301D01*
X121303440Y-102010166D01*
X121460122Y-101979000D01*
X121619878Y-101979000D01*
X121776560Y-102010166D01*
X121776560Y-102010166D01*
G37*
G36*
X126856560Y-102010166D02*
X127004153Y-102071301D01*
X127135213Y-102158873D01*
X127136985Y-102160057D01*
X127249943Y-102273015D01*
X127338700Y-102405849D01*
X127399834Y-102553440D01*
X127431000Y-102710122D01*
X127431000Y-102869878D01*
X127399834Y-103026560D01*
X127338700Y-103174151D01*
X127249943Y-103306985D01*
X127136985Y-103419943D01*
X127136982Y-103419945D01*
X127004153Y-103508699D01*
X127004152Y-103508700D01*
X127004151Y-103508700D01*
X126856560Y-103569834D01*
X126699878Y-103601000D01*
X126540122Y-103601000D01*
X126383440Y-103569834D01*
X126235849Y-103508700D01*
X126235848Y-103508700D01*
X126235847Y-103508699D01*
X126103018Y-103419945D01*
X126103015Y-103419943D01*
X125990057Y-103306985D01*
X125901300Y-103174151D01*
X125840166Y-103026560D01*
X125809000Y-102869878D01*
X125809000Y-102710122D01*
X125840166Y-102553440D01*
X125901300Y-102405849D01*
X125990057Y-102273015D01*
X126103015Y-102160057D01*
X126104787Y-102158873D01*
X126235847Y-102071301D01*
X126383440Y-102010166D01*
X126540122Y-101979000D01*
X126699878Y-101979000D01*
X126856560Y-102010166D01*
X126856560Y-102010166D01*
G37*
G36*
X129396560Y-102010166D02*
X129544153Y-102071301D01*
X129675213Y-102158873D01*
X129676985Y-102160057D01*
X129789943Y-102273015D01*
X129878700Y-102405849D01*
X129939834Y-102553440D01*
X129971000Y-102710122D01*
X129971000Y-102869878D01*
X129939834Y-103026560D01*
X129878700Y-103174151D01*
X129789943Y-103306985D01*
X129676985Y-103419943D01*
X129676982Y-103419945D01*
X129544153Y-103508699D01*
X129544152Y-103508700D01*
X129544151Y-103508700D01*
X129396560Y-103569834D01*
X129239878Y-103601000D01*
X129080122Y-103601000D01*
X128923440Y-103569834D01*
X128775849Y-103508700D01*
X128775848Y-103508700D01*
X128775847Y-103508699D01*
X128643018Y-103419945D01*
X128643015Y-103419943D01*
X128530057Y-103306985D01*
X128441300Y-103174151D01*
X128380166Y-103026560D01*
X128349000Y-102869878D01*
X128349000Y-102710122D01*
X128380166Y-102553440D01*
X128441300Y-102405849D01*
X128530057Y-102273015D01*
X128643015Y-102160057D01*
X128644787Y-102158873D01*
X128775847Y-102071301D01*
X128923440Y-102010166D01*
X129080122Y-101979000D01*
X129239878Y-101979000D01*
X129396560Y-102010166D01*
X129396560Y-102010166D01*
G37*
G36*
X131936560Y-102010166D02*
X132084153Y-102071301D01*
X132215213Y-102158873D01*
X132216985Y-102160057D01*
X132329943Y-102273015D01*
X132418700Y-102405849D01*
X132479834Y-102553440D01*
X132511000Y-102710122D01*
X132511000Y-102869878D01*
X132479834Y-103026560D01*
X132418700Y-103174151D01*
X132329943Y-103306985D01*
X132216985Y-103419943D01*
X132216982Y-103419945D01*
X132084153Y-103508699D01*
X132084152Y-103508700D01*
X132084151Y-103508700D01*
X131936560Y-103569834D01*
X131779878Y-103601000D01*
X131620122Y-103601000D01*
X131463440Y-103569834D01*
X131315849Y-103508700D01*
X131315848Y-103508700D01*
X131315847Y-103508699D01*
X131183018Y-103419945D01*
X131183015Y-103419943D01*
X131070057Y-103306985D01*
X130981300Y-103174151D01*
X130920166Y-103026560D01*
X130889000Y-102869878D01*
X130889000Y-102710122D01*
X130920166Y-102553440D01*
X130981300Y-102405849D01*
X131070057Y-102273015D01*
X131183015Y-102160057D01*
X131184787Y-102158873D01*
X131315847Y-102071301D01*
X131463440Y-102010166D01*
X131620122Y-101979000D01*
X131779878Y-101979000D01*
X131936560Y-102010166D01*
X131936560Y-102010166D01*
G37*
G36*
X134476560Y-102010166D02*
X134624153Y-102071301D01*
X134755213Y-102158873D01*
X134756985Y-102160057D01*
X134869943Y-102273015D01*
X134958700Y-102405849D01*
X135019834Y-102553440D01*
X135051000Y-102710122D01*
X135051000Y-102869878D01*
X135019834Y-103026560D01*
X134958700Y-103174151D01*
X134869943Y-103306985D01*
X134756985Y-103419943D01*
X134756982Y-103419945D01*
X134624153Y-103508699D01*
X134624152Y-103508700D01*
X134624151Y-103508700D01*
X134476560Y-103569834D01*
X134319878Y-103601000D01*
X134160122Y-103601000D01*
X134003440Y-103569834D01*
X133855849Y-103508700D01*
X133855848Y-103508700D01*
X133855847Y-103508699D01*
X133723018Y-103419945D01*
X133723015Y-103419943D01*
X133610057Y-103306985D01*
X133521300Y-103174151D01*
X133460166Y-103026560D01*
X133429000Y-102869878D01*
X133429000Y-102710122D01*
X133460166Y-102553440D01*
X133521300Y-102405849D01*
X133610057Y-102273015D01*
X133723015Y-102160057D01*
X133724787Y-102158873D01*
X133855847Y-102071301D01*
X134003440Y-102010166D01*
X134160122Y-101979000D01*
X134319878Y-101979000D01*
X134476560Y-102010166D01*
X134476560Y-102010166D01*
G37*
G36*
X119811000Y-101061000D02*
X118189000Y-101061000D01*
X118189000Y-99439000D01*
X119811000Y-99439000D01*
X119811000Y-101061000D01*
X119811000Y-101061000D01*
G37*
G36*
X121776560Y-99470166D02*
X121924153Y-99531301D01*
X122055213Y-99618873D01*
X122056985Y-99620057D01*
X122169943Y-99733015D01*
X122258700Y-99865849D01*
X122319834Y-100013440D01*
X122351000Y-100170122D01*
X122351000Y-100329878D01*
X122319834Y-100486560D01*
X122258700Y-100634151D01*
X122169943Y-100766985D01*
X122056985Y-100879943D01*
X122056982Y-100879945D01*
X121924153Y-100968699D01*
X121924152Y-100968700D01*
X121924151Y-100968700D01*
X121776560Y-101029834D01*
X121619878Y-101061000D01*
X121460122Y-101061000D01*
X121303440Y-101029834D01*
X121155849Y-100968700D01*
X121155848Y-100968700D01*
X121155847Y-100968699D01*
X121023018Y-100879945D01*
X121023015Y-100879943D01*
X120910057Y-100766985D01*
X120821300Y-100634151D01*
X120760166Y-100486560D01*
X120729000Y-100329878D01*
X120729000Y-100170122D01*
X120760166Y-100013440D01*
X120821300Y-99865849D01*
X120910057Y-99733015D01*
X121023015Y-99620057D01*
X121024787Y-99618873D01*
X121155847Y-99531301D01*
X121303440Y-99470166D01*
X121460122Y-99439000D01*
X121619878Y-99439000D01*
X121776560Y-99470166D01*
X121776560Y-99470166D01*
G37*
G36*
X126856560Y-99470166D02*
X127004153Y-99531301D01*
X127135213Y-99618873D01*
X127136985Y-99620057D01*
X127249943Y-99733015D01*
X127338700Y-99865849D01*
X127399834Y-100013440D01*
X127431000Y-100170122D01*
X127431000Y-100329878D01*
X127399834Y-100486560D01*
X127338700Y-100634151D01*
X127249943Y-100766985D01*
X127136985Y-100879943D01*
X127136982Y-100879945D01*
X127004153Y-100968699D01*
X127004152Y-100968700D01*
X127004151Y-100968700D01*
X126856560Y-101029834D01*
X126699878Y-101061000D01*
X126540122Y-101061000D01*
X126383440Y-101029834D01*
X126235849Y-100968700D01*
X126235848Y-100968700D01*
X126235847Y-100968699D01*
X126103018Y-100879945D01*
X126103015Y-100879943D01*
X125990057Y-100766985D01*
X125901300Y-100634151D01*
X125840166Y-100486560D01*
X125809000Y-100329878D01*
X125809000Y-100170122D01*
X125840166Y-100013440D01*
X125901300Y-99865849D01*
X125990057Y-99733015D01*
X126103015Y-99620057D01*
X126104787Y-99618873D01*
X126235847Y-99531301D01*
X126383440Y-99470166D01*
X126540122Y-99439000D01*
X126699878Y-99439000D01*
X126856560Y-99470166D01*
X126856560Y-99470166D01*
G37*
G36*
X154796560Y-99470166D02*
X154944153Y-99531301D01*
X155075213Y-99618873D01*
X155076985Y-99620057D01*
X155189943Y-99733015D01*
X155278700Y-99865849D01*
X155339834Y-100013440D01*
X155371000Y-100170122D01*
X155371000Y-100329878D01*
X155339834Y-100486560D01*
X155278700Y-100634151D01*
X155189943Y-100766985D01*
X155076985Y-100879943D01*
X155076982Y-100879945D01*
X154944153Y-100968699D01*
X154944152Y-100968700D01*
X154944151Y-100968700D01*
X154796560Y-101029834D01*
X154639878Y-101061000D01*
X154480122Y-101061000D01*
X154323440Y-101029834D01*
X154175849Y-100968700D01*
X154175848Y-100968700D01*
X154175847Y-100968699D01*
X154043018Y-100879945D01*
X154043015Y-100879943D01*
X153930057Y-100766985D01*
X153841300Y-100634151D01*
X153780166Y-100486560D01*
X153749000Y-100329878D01*
X153749000Y-100170122D01*
X153780166Y-100013440D01*
X153841300Y-99865849D01*
X153930057Y-99733015D01*
X154043015Y-99620057D01*
X154044787Y-99618873D01*
X154175847Y-99531301D01*
X154323440Y-99470166D01*
X154480122Y-99439000D01*
X154639878Y-99439000D01*
X154796560Y-99470166D01*
X154796560Y-99470166D01*
G37*
G36*
X152256560Y-99470166D02*
X152404153Y-99531301D01*
X152535213Y-99618873D01*
X152536985Y-99620057D01*
X152649943Y-99733015D01*
X152738700Y-99865849D01*
X152799834Y-100013440D01*
X152831000Y-100170122D01*
X152831000Y-100329878D01*
X152799834Y-100486560D01*
X152738700Y-100634151D01*
X152649943Y-100766985D01*
X152536985Y-100879943D01*
X152536982Y-100879945D01*
X152404153Y-100968699D01*
X152404152Y-100968700D01*
X152404151Y-100968700D01*
X152256560Y-101029834D01*
X152099878Y-101061000D01*
X151940122Y-101061000D01*
X151783440Y-101029834D01*
X151635849Y-100968700D01*
X151635848Y-100968700D01*
X151635847Y-100968699D01*
X151503018Y-100879945D01*
X151503015Y-100879943D01*
X151390057Y-100766985D01*
X151301300Y-100634151D01*
X151240166Y-100486560D01*
X151209000Y-100329878D01*
X151209000Y-100170122D01*
X151240166Y-100013440D01*
X151301300Y-99865849D01*
X151390057Y-99733015D01*
X151503015Y-99620057D01*
X151504787Y-99618873D01*
X151635847Y-99531301D01*
X151783440Y-99470166D01*
X151940122Y-99439000D01*
X152099878Y-99439000D01*
X152256560Y-99470166D01*
X152256560Y-99470166D01*
G37*
G36*
X149716560Y-99470166D02*
X149864153Y-99531301D01*
X149995213Y-99618873D01*
X149996985Y-99620057D01*
X150109943Y-99733015D01*
X150198700Y-99865849D01*
X150259834Y-100013440D01*
X150291000Y-100170122D01*
X150291000Y-100329878D01*
X150259834Y-100486560D01*
X150198700Y-100634151D01*
X150109943Y-100766985D01*
X149996985Y-100879943D01*
X149996982Y-100879945D01*
X149864153Y-100968699D01*
X149864152Y-100968700D01*
X149864151Y-100968700D01*
X149716560Y-101029834D01*
X149559878Y-101061000D01*
X149400122Y-101061000D01*
X149243440Y-101029834D01*
X149095849Y-100968700D01*
X149095848Y-100968700D01*
X149095847Y-100968699D01*
X148963018Y-100879945D01*
X148963015Y-100879943D01*
X148850057Y-100766985D01*
X148761300Y-100634151D01*
X148700166Y-100486560D01*
X148669000Y-100329878D01*
X148669000Y-100170122D01*
X148700166Y-100013440D01*
X148761300Y-99865849D01*
X148850057Y-99733015D01*
X148963015Y-99620057D01*
X148964787Y-99618873D01*
X149095847Y-99531301D01*
X149243440Y-99470166D01*
X149400122Y-99439000D01*
X149559878Y-99439000D01*
X149716560Y-99470166D01*
X149716560Y-99470166D01*
G37*
G36*
X147176560Y-99470166D02*
X147324153Y-99531301D01*
X147455213Y-99618873D01*
X147456985Y-99620057D01*
X147569943Y-99733015D01*
X147658700Y-99865849D01*
X147719834Y-100013440D01*
X147751000Y-100170122D01*
X147751000Y-100329878D01*
X147719834Y-100486560D01*
X147658700Y-100634151D01*
X147569943Y-100766985D01*
X147456985Y-100879943D01*
X147456982Y-100879945D01*
X147324153Y-100968699D01*
X147324152Y-100968700D01*
X147324151Y-100968700D01*
X147176560Y-101029834D01*
X147019878Y-101061000D01*
X146860122Y-101061000D01*
X146703440Y-101029834D01*
X146555849Y-100968700D01*
X146555848Y-100968700D01*
X146555847Y-100968699D01*
X146423018Y-100879945D01*
X146423015Y-100879943D01*
X146310057Y-100766985D01*
X146221300Y-100634151D01*
X146160166Y-100486560D01*
X146129000Y-100329878D01*
X146129000Y-100170122D01*
X146160166Y-100013440D01*
X146221300Y-99865849D01*
X146310057Y-99733015D01*
X146423015Y-99620057D01*
X146424787Y-99618873D01*
X146555847Y-99531301D01*
X146703440Y-99470166D01*
X146860122Y-99439000D01*
X147019878Y-99439000D01*
X147176560Y-99470166D01*
X147176560Y-99470166D01*
G37*
G36*
X144636560Y-99470166D02*
X144784153Y-99531301D01*
X144915213Y-99618873D01*
X144916985Y-99620057D01*
X145029943Y-99733015D01*
X145118700Y-99865849D01*
X145179834Y-100013440D01*
X145211000Y-100170122D01*
X145211000Y-100329878D01*
X145179834Y-100486560D01*
X145118700Y-100634151D01*
X145029943Y-100766985D01*
X144916985Y-100879943D01*
X144916982Y-100879945D01*
X144784153Y-100968699D01*
X144784152Y-100968700D01*
X144784151Y-100968700D01*
X144636560Y-101029834D01*
X144479878Y-101061000D01*
X144320122Y-101061000D01*
X144163440Y-101029834D01*
X144015849Y-100968700D01*
X144015848Y-100968700D01*
X144015847Y-100968699D01*
X143883018Y-100879945D01*
X143883015Y-100879943D01*
X143770057Y-100766985D01*
X143681300Y-100634151D01*
X143620166Y-100486560D01*
X143589000Y-100329878D01*
X143589000Y-100170122D01*
X143620166Y-100013440D01*
X143681300Y-99865849D01*
X143770057Y-99733015D01*
X143883015Y-99620057D01*
X143884787Y-99618873D01*
X144015847Y-99531301D01*
X144163440Y-99470166D01*
X144320122Y-99439000D01*
X144479878Y-99439000D01*
X144636560Y-99470166D01*
X144636560Y-99470166D01*
G37*
G36*
X142096560Y-99470166D02*
X142244153Y-99531301D01*
X142375213Y-99618873D01*
X142376985Y-99620057D01*
X142489943Y-99733015D01*
X142578700Y-99865849D01*
X142639834Y-100013440D01*
X142671000Y-100170122D01*
X142671000Y-100329878D01*
X142639834Y-100486560D01*
X142578700Y-100634151D01*
X142489943Y-100766985D01*
X142376985Y-100879943D01*
X142376982Y-100879945D01*
X142244153Y-100968699D01*
X142244152Y-100968700D01*
X142244151Y-100968700D01*
X142096560Y-101029834D01*
X141939878Y-101061000D01*
X141780122Y-101061000D01*
X141623440Y-101029834D01*
X141475849Y-100968700D01*
X141475848Y-100968700D01*
X141475847Y-100968699D01*
X141343018Y-100879945D01*
X141343015Y-100879943D01*
X141230057Y-100766985D01*
X141141300Y-100634151D01*
X141080166Y-100486560D01*
X141049000Y-100329878D01*
X141049000Y-100170122D01*
X141080166Y-100013440D01*
X141141300Y-99865849D01*
X141230057Y-99733015D01*
X141343015Y-99620057D01*
X141344787Y-99618873D01*
X141475847Y-99531301D01*
X141623440Y-99470166D01*
X141780122Y-99439000D01*
X141939878Y-99439000D01*
X142096560Y-99470166D01*
X142096560Y-99470166D01*
G37*
G36*
X139556560Y-99470166D02*
X139704153Y-99531301D01*
X139835213Y-99618873D01*
X139836985Y-99620057D01*
X139949943Y-99733015D01*
X140038700Y-99865849D01*
X140099834Y-100013440D01*
X140131000Y-100170122D01*
X140131000Y-100329878D01*
X140099834Y-100486560D01*
X140038700Y-100634151D01*
X139949943Y-100766985D01*
X139836985Y-100879943D01*
X139836982Y-100879945D01*
X139704153Y-100968699D01*
X139704152Y-100968700D01*
X139704151Y-100968700D01*
X139556560Y-101029834D01*
X139399878Y-101061000D01*
X139240122Y-101061000D01*
X139083440Y-101029834D01*
X138935849Y-100968700D01*
X138935848Y-100968700D01*
X138935847Y-100968699D01*
X138803018Y-100879945D01*
X138803015Y-100879943D01*
X138690057Y-100766985D01*
X138601300Y-100634151D01*
X138540166Y-100486560D01*
X138509000Y-100329878D01*
X138509000Y-100170122D01*
X138540166Y-100013440D01*
X138601300Y-99865849D01*
X138690057Y-99733015D01*
X138803015Y-99620057D01*
X138804787Y-99618873D01*
X138935847Y-99531301D01*
X139083440Y-99470166D01*
X139240122Y-99439000D01*
X139399878Y-99439000D01*
X139556560Y-99470166D01*
X139556560Y-99470166D01*
G37*
G36*
X137016560Y-99470166D02*
X137164153Y-99531301D01*
X137295213Y-99618873D01*
X137296985Y-99620057D01*
X137409943Y-99733015D01*
X137498700Y-99865849D01*
X137559834Y-100013440D01*
X137591000Y-100170122D01*
X137591000Y-100329878D01*
X137559834Y-100486560D01*
X137498700Y-100634151D01*
X137409943Y-100766985D01*
X137296985Y-100879943D01*
X137296982Y-100879945D01*
X137164153Y-100968699D01*
X137164152Y-100968700D01*
X137164151Y-100968700D01*
X137016560Y-101029834D01*
X136859878Y-101061000D01*
X136700122Y-101061000D01*
X136543440Y-101029834D01*
X136395849Y-100968700D01*
X136395848Y-100968700D01*
X136395847Y-100968699D01*
X136263018Y-100879945D01*
X136263015Y-100879943D01*
X136150057Y-100766985D01*
X136061300Y-100634151D01*
X136000166Y-100486560D01*
X135969000Y-100329878D01*
X135969000Y-100170122D01*
X136000166Y-100013440D01*
X136061300Y-99865849D01*
X136150057Y-99733015D01*
X136263015Y-99620057D01*
X136264787Y-99618873D01*
X136395847Y-99531301D01*
X136543440Y-99470166D01*
X136700122Y-99439000D01*
X136859878Y-99439000D01*
X137016560Y-99470166D01*
X137016560Y-99470166D01*
G37*
G36*
X134476560Y-99470166D02*
X134624153Y-99531301D01*
X134755213Y-99618873D01*
X134756985Y-99620057D01*
X134869943Y-99733015D01*
X134958700Y-99865849D01*
X135019834Y-100013440D01*
X135051000Y-100170122D01*
X135051000Y-100329878D01*
X135019834Y-100486560D01*
X134958700Y-100634151D01*
X134869943Y-100766985D01*
X134756985Y-100879943D01*
X134756982Y-100879945D01*
X134624153Y-100968699D01*
X134624152Y-100968700D01*
X134624151Y-100968700D01*
X134476560Y-101029834D01*
X134319878Y-101061000D01*
X134160122Y-101061000D01*
X134003440Y-101029834D01*
X133855849Y-100968700D01*
X133855848Y-100968700D01*
X133855847Y-100968699D01*
X133723018Y-100879945D01*
X133723015Y-100879943D01*
X133610057Y-100766985D01*
X133521300Y-100634151D01*
X133460166Y-100486560D01*
X133429000Y-100329878D01*
X133429000Y-100170122D01*
X133460166Y-100013440D01*
X133521300Y-99865849D01*
X133610057Y-99733015D01*
X133723015Y-99620057D01*
X133724787Y-99618873D01*
X133855847Y-99531301D01*
X134003440Y-99470166D01*
X134160122Y-99439000D01*
X134319878Y-99439000D01*
X134476560Y-99470166D01*
X134476560Y-99470166D01*
G37*
G36*
X131936560Y-99470166D02*
X132084153Y-99531301D01*
X132215213Y-99618873D01*
X132216985Y-99620057D01*
X132329943Y-99733015D01*
X132418700Y-99865849D01*
X132479834Y-100013440D01*
X132511000Y-100170122D01*
X132511000Y-100329878D01*
X132479834Y-100486560D01*
X132418700Y-100634151D01*
X132329943Y-100766985D01*
X132216985Y-100879943D01*
X132216982Y-100879945D01*
X132084153Y-100968699D01*
X132084152Y-100968700D01*
X132084151Y-100968700D01*
X131936560Y-101029834D01*
X131779878Y-101061000D01*
X131620122Y-101061000D01*
X131463440Y-101029834D01*
X131315849Y-100968700D01*
X131315848Y-100968700D01*
X131315847Y-100968699D01*
X131183018Y-100879945D01*
X131183015Y-100879943D01*
X131070057Y-100766985D01*
X130981300Y-100634151D01*
X130920166Y-100486560D01*
X130889000Y-100329878D01*
X130889000Y-100170122D01*
X130920166Y-100013440D01*
X130981300Y-99865849D01*
X131070057Y-99733015D01*
X131183015Y-99620057D01*
X131184787Y-99618873D01*
X131315847Y-99531301D01*
X131463440Y-99470166D01*
X131620122Y-99439000D01*
X131779878Y-99439000D01*
X131936560Y-99470166D01*
X131936560Y-99470166D01*
G37*
G36*
X159876560Y-99470166D02*
X160024153Y-99531301D01*
X160155213Y-99618873D01*
X160156985Y-99620057D01*
X160269943Y-99733015D01*
X160358700Y-99865849D01*
X160419834Y-100013440D01*
X160451000Y-100170122D01*
X160451000Y-100329878D01*
X160419834Y-100486560D01*
X160358700Y-100634151D01*
X160269943Y-100766985D01*
X160156985Y-100879943D01*
X160156982Y-100879945D01*
X160024153Y-100968699D01*
X160024152Y-100968700D01*
X160024151Y-100968700D01*
X159876560Y-101029834D01*
X159719878Y-101061000D01*
X159560122Y-101061000D01*
X159403440Y-101029834D01*
X159255849Y-100968700D01*
X159255848Y-100968700D01*
X159255847Y-100968699D01*
X159123018Y-100879945D01*
X159123015Y-100879943D01*
X159010057Y-100766985D01*
X158921300Y-100634151D01*
X158860166Y-100486560D01*
X158829000Y-100329878D01*
X158829000Y-100170122D01*
X158860166Y-100013440D01*
X158921300Y-99865849D01*
X159010057Y-99733015D01*
X159123015Y-99620057D01*
X159124787Y-99618873D01*
X159255847Y-99531301D01*
X159403440Y-99470166D01*
X159560122Y-99439000D01*
X159719878Y-99439000D01*
X159876560Y-99470166D01*
X159876560Y-99470166D01*
G37*
G36*
X129396560Y-99470166D02*
X129544153Y-99531301D01*
X129675213Y-99618873D01*
X129676985Y-99620057D01*
X129789943Y-99733015D01*
X129878700Y-99865849D01*
X129939834Y-100013440D01*
X129971000Y-100170122D01*
X129971000Y-100329878D01*
X129939834Y-100486560D01*
X129878700Y-100634151D01*
X129789943Y-100766985D01*
X129676985Y-100879943D01*
X129676982Y-100879945D01*
X129544153Y-100968699D01*
X129544152Y-100968700D01*
X129544151Y-100968700D01*
X129396560Y-101029834D01*
X129239878Y-101061000D01*
X129080122Y-101061000D01*
X128923440Y-101029834D01*
X128775849Y-100968700D01*
X128775848Y-100968700D01*
X128775847Y-100968699D01*
X128643018Y-100879945D01*
X128643015Y-100879943D01*
X128530057Y-100766985D01*
X128441300Y-100634151D01*
X128380166Y-100486560D01*
X128349000Y-100329878D01*
X128349000Y-100170122D01*
X128380166Y-100013440D01*
X128441300Y-99865849D01*
X128530057Y-99733015D01*
X128643015Y-99620057D01*
X128644787Y-99618873D01*
X128775847Y-99531301D01*
X128923440Y-99470166D01*
X129080122Y-99439000D01*
X129239878Y-99439000D01*
X129396560Y-99470166D01*
X129396560Y-99470166D01*
G37*
G36*
X124316560Y-99470166D02*
X124464153Y-99531301D01*
X124595213Y-99618873D01*
X124596985Y-99620057D01*
X124709943Y-99733015D01*
X124798700Y-99865849D01*
X124859834Y-100013440D01*
X124891000Y-100170122D01*
X124891000Y-100329878D01*
X124859834Y-100486560D01*
X124798700Y-100634151D01*
X124709943Y-100766985D01*
X124596985Y-100879943D01*
X124596982Y-100879945D01*
X124464153Y-100968699D01*
X124464152Y-100968700D01*
X124464151Y-100968700D01*
X124316560Y-101029834D01*
X124159878Y-101061000D01*
X124000122Y-101061000D01*
X123843440Y-101029834D01*
X123695849Y-100968700D01*
X123695848Y-100968700D01*
X123695847Y-100968699D01*
X123563018Y-100879945D01*
X123563015Y-100879943D01*
X123450057Y-100766985D01*
X123361300Y-100634151D01*
X123300166Y-100486560D01*
X123269000Y-100329878D01*
X123269000Y-100170122D01*
X123300166Y-100013440D01*
X123361300Y-99865849D01*
X123450057Y-99733015D01*
X123563015Y-99620057D01*
X123564787Y-99618873D01*
X123695847Y-99531301D01*
X123843440Y-99470166D01*
X124000122Y-99439000D01*
X124159878Y-99439000D01*
X124316560Y-99470166D01*
X124316560Y-99470166D01*
G37*
G36*
X157336560Y-99470166D02*
X157484153Y-99531301D01*
X157615213Y-99618873D01*
X157616985Y-99620057D01*
X157729943Y-99733015D01*
X157818700Y-99865849D01*
X157879834Y-100013440D01*
X157911000Y-100170122D01*
X157911000Y-100329878D01*
X157879834Y-100486560D01*
X157818700Y-100634151D01*
X157729943Y-100766985D01*
X157616985Y-100879943D01*
X157616982Y-100879945D01*
X157484153Y-100968699D01*
X157484152Y-100968700D01*
X157484151Y-100968700D01*
X157336560Y-101029834D01*
X157179878Y-101061000D01*
X157020122Y-101061000D01*
X156863440Y-101029834D01*
X156715849Y-100968700D01*
X156715848Y-100968700D01*
X156715847Y-100968699D01*
X156583018Y-100879945D01*
X156583015Y-100879943D01*
X156470057Y-100766985D01*
X156381300Y-100634151D01*
X156320166Y-100486560D01*
X156289000Y-100329878D01*
X156289000Y-100170122D01*
X156320166Y-100013440D01*
X156381300Y-99865849D01*
X156470057Y-99733015D01*
X156583015Y-99620057D01*
X156584787Y-99618873D01*
X156715847Y-99531301D01*
X156863440Y-99470166D01*
X157020122Y-99439000D01*
X157179878Y-99439000D01*
X157336560Y-99470166D01*
X157336560Y-99470166D01*
G37*
M02*
