G04 #@! TF.GenerationSoftware,KiCad,Pcbnew,5.0.2+dfsg1-1*
G04 #@! TF.CreationDate,2020-11-21T11:39:02+01:00*
G04 #@! TF.ProjectId,KBD_ADAPTER_XE,4b42445f-4144-4415-9054-45525f58452e,1.0*
G04 #@! TF.SameCoordinates,Original*
G04 #@! TF.FileFunction,Legend,Top*
G04 #@! TF.FilePolarity,Positive*
%FSLAX46Y46*%
G04 Gerber Fmt 4.6, Leading zero omitted, Abs format (unit mm)*
G04 Created by KiCad (PCBNEW 5.0.2+dfsg1-1) date Sat 21 Nov 2020 11:39:02 AM CET*
%MOMM*%
%LPD*%
G01*
G04 APERTURE LIST*
%ADD10C,0.200000*%
%ADD11C,0.150000*%
G04 APERTURE END LIST*
D10*
X114214285Y-106047619D02*
X114785714Y-106047619D01*
X114500000Y-106047619D02*
X114500000Y-107047619D01*
X114595238Y-106904761D01*
X114690476Y-106809523D01*
X114785714Y-106761904D01*
X173761904Y-106452380D02*
X173714285Y-106500000D01*
X173619047Y-106547619D01*
X173380952Y-106547619D01*
X173285714Y-106500000D01*
X173238095Y-106452380D01*
X173190476Y-106357142D01*
X173190476Y-106261904D01*
X173238095Y-106119047D01*
X173809523Y-105547619D01*
X173190476Y-105547619D01*
X172333333Y-106214285D02*
X172333333Y-105547619D01*
X172571428Y-106595238D02*
X172809523Y-105880952D01*
X172190476Y-105880952D01*
X114666666Y-97452380D02*
X114666666Y-96785714D01*
X114666666Y-96452380D02*
X114619047Y-96500000D01*
X114666666Y-96547619D01*
X114714285Y-96500000D01*
X114666666Y-96452380D01*
X114666666Y-96547619D01*
X115142857Y-96785714D02*
X115142857Y-97452380D01*
X115142857Y-96880952D02*
X115190476Y-96833333D01*
X115285714Y-96785714D01*
X115428571Y-96785714D01*
X115523809Y-96833333D01*
X115571428Y-96928571D01*
X115571428Y-97452380D01*
X116809523Y-97452380D02*
X116809523Y-96785714D01*
X116809523Y-96880952D02*
X116857142Y-96833333D01*
X116952380Y-96785714D01*
X117095238Y-96785714D01*
X117190476Y-96833333D01*
X117238095Y-96928571D01*
X117238095Y-97452380D01*
X117238095Y-96928571D02*
X117285714Y-96833333D01*
X117380952Y-96785714D01*
X117523809Y-96785714D01*
X117619047Y-96833333D01*
X117666666Y-96928571D01*
X117666666Y-97452380D01*
X118523809Y-97404761D02*
X118428571Y-97452380D01*
X118238095Y-97452380D01*
X118142857Y-97404761D01*
X118095238Y-97309523D01*
X118095238Y-96928571D01*
X118142857Y-96833333D01*
X118238095Y-96785714D01*
X118428571Y-96785714D01*
X118523809Y-96833333D01*
X118571428Y-96928571D01*
X118571428Y-97023809D01*
X118095238Y-97119047D01*
X119000000Y-97452380D02*
X119000000Y-96785714D01*
X119000000Y-96880952D02*
X119047619Y-96833333D01*
X119142857Y-96785714D01*
X119285714Y-96785714D01*
X119380952Y-96833333D01*
X119428571Y-96928571D01*
X119428571Y-97452380D01*
X119428571Y-96928571D02*
X119476190Y-96833333D01*
X119571428Y-96785714D01*
X119714285Y-96785714D01*
X119809523Y-96833333D01*
X119857142Y-96928571D01*
X119857142Y-97452380D01*
X120476190Y-97452380D02*
X120380952Y-97404761D01*
X120333333Y-97357142D01*
X120285714Y-97261904D01*
X120285714Y-96976190D01*
X120333333Y-96880952D01*
X120380952Y-96833333D01*
X120476190Y-96785714D01*
X120619047Y-96785714D01*
X120714285Y-96833333D01*
X120761904Y-96880952D01*
X120809523Y-96976190D01*
X120809523Y-97261904D01*
X120761904Y-97357142D01*
X120714285Y-97404761D01*
X120619047Y-97452380D01*
X120476190Y-97452380D01*
X121238095Y-97452380D02*
X121238095Y-96785714D01*
X121238095Y-96976190D02*
X121285714Y-96880952D01*
X121333333Y-96833333D01*
X121428571Y-96785714D01*
X121523809Y-96785714D01*
X121857142Y-97452380D02*
X121857142Y-96785714D01*
X121857142Y-96452380D02*
X121809523Y-96500000D01*
X121857142Y-96547619D01*
X121904761Y-96500000D01*
X121857142Y-96452380D01*
X121857142Y-96547619D01*
X122761904Y-97452380D02*
X122761904Y-96928571D01*
X122714285Y-96833333D01*
X122619047Y-96785714D01*
X122428571Y-96785714D01*
X122333333Y-96833333D01*
X122761904Y-97404761D02*
X122666666Y-97452380D01*
X122428571Y-97452380D01*
X122333333Y-97404761D01*
X122285714Y-97309523D01*
X122285714Y-97214285D01*
X122333333Y-97119047D01*
X122428571Y-97071428D01*
X122666666Y-97071428D01*
X122761904Y-97023809D01*
X123238095Y-97452380D02*
X123238095Y-96785714D01*
X123238095Y-96880952D02*
X123285714Y-96833333D01*
X123380952Y-96785714D01*
X123523809Y-96785714D01*
X123619047Y-96833333D01*
X123666666Y-96928571D01*
X123666666Y-97452380D01*
X123666666Y-96928571D02*
X123714285Y-96833333D01*
X123809523Y-96785714D01*
X123952380Y-96785714D01*
X124047619Y-96833333D01*
X124095238Y-96928571D01*
X124095238Y-97452380D01*
X125285714Y-97166666D02*
X125761904Y-97166666D01*
X125190476Y-97452380D02*
X125523809Y-96452380D01*
X125857142Y-97452380D01*
X126190476Y-97357142D02*
X126238095Y-97404761D01*
X126190476Y-97452380D01*
X126142857Y-97404761D01*
X126190476Y-97357142D01*
X126190476Y-97452380D01*
X126619047Y-97404761D02*
X126761904Y-97452380D01*
X127000000Y-97452380D01*
X127095238Y-97404761D01*
X127142857Y-97357142D01*
X127190476Y-97261904D01*
X127190476Y-97166666D01*
X127142857Y-97071428D01*
X127095238Y-97023809D01*
X127000000Y-96976190D01*
X126809523Y-96928571D01*
X126714285Y-96880952D01*
X126666666Y-96833333D01*
X126619047Y-96738095D01*
X126619047Y-96642857D01*
X126666666Y-96547619D01*
X126714285Y-96500000D01*
X126809523Y-96452380D01*
X127047619Y-96452380D01*
X127190476Y-96500000D01*
X127619047Y-97357142D02*
X127666666Y-97404761D01*
X127619047Y-97452380D01*
X127571428Y-97404761D01*
X127619047Y-97357142D01*
X127619047Y-97452380D01*
X128857142Y-97071428D02*
X129619047Y-97071428D01*
X131380952Y-96500000D02*
X131285714Y-96452380D01*
X131142857Y-96452380D01*
X131000000Y-96500000D01*
X130904761Y-96595238D01*
X130857142Y-96690476D01*
X130809523Y-96880952D01*
X130809523Y-97023809D01*
X130857142Y-97214285D01*
X130904761Y-97309523D01*
X131000000Y-97404761D01*
X131142857Y-97452380D01*
X131238095Y-97452380D01*
X131380952Y-97404761D01*
X131428571Y-97357142D01*
X131428571Y-97023809D01*
X131238095Y-97023809D01*
X131857142Y-97357142D02*
X131904761Y-97404761D01*
X131857142Y-97452380D01*
X131809523Y-97404761D01*
X131857142Y-97357142D01*
X131857142Y-97452380D01*
X132333333Y-97452380D02*
X132333333Y-96452380D01*
X132571428Y-96452380D01*
X132714285Y-96500000D01*
X132809523Y-96595238D01*
X132857142Y-96690476D01*
X132904761Y-96880952D01*
X132904761Y-97023809D01*
X132857142Y-97214285D01*
X132809523Y-97309523D01*
X132714285Y-97404761D01*
X132571428Y-97452380D01*
X132333333Y-97452380D01*
X133333333Y-97357142D02*
X133380952Y-97404761D01*
X133333333Y-97452380D01*
X133285714Y-97404761D01*
X133333333Y-97357142D01*
X133333333Y-97452380D01*
G04 #@! TO.C,J1*
D11*
X173166666Y-102452380D02*
X173166666Y-103166666D01*
X173119047Y-103309523D01*
X173023809Y-103404761D01*
X172880952Y-103452380D01*
X172785714Y-103452380D01*
X174166666Y-103452380D02*
X173595238Y-103452380D01*
X173880952Y-103452380D02*
X173880952Y-102452380D01*
X173785714Y-102595238D01*
X173690476Y-102690476D01*
X173595238Y-102738095D01*
G04 #@! TD*
M02*
