G04 #@! TF.GenerationSoftware,KiCad,Pcbnew,5.0.2+dfsg1-1*
G04 #@! TF.CreationDate,2020-10-11T22:03:41+02:00*
G04 #@! TF.ProjectId,KBD_ADAPTER_XE,4b42445f-4144-4415-9054-45525f58452e,1.0*
G04 #@! TF.SameCoordinates,Original*
G04 #@! TF.FileFunction,Legend,Top*
G04 #@! TF.FilePolarity,Positive*
%FSLAX46Y46*%
G04 Gerber Fmt 4.6, Leading zero omitted, Abs format (unit mm)*
G04 Created by KiCad (PCBNEW 5.0.2+dfsg1-1) date Sun 11 Oct 2020 10:03:41 PM CEST*
%MOMM*%
%LPD*%
G01*
G04 APERTURE LIST*
%ADD10C,0.200000*%
%ADD11C,0.150000*%
G04 APERTURE END LIST*
D10*
X114666666Y-95452380D02*
X114666666Y-94785714D01*
X114666666Y-94452380D02*
X114619047Y-94500000D01*
X114666666Y-94547619D01*
X114714285Y-94500000D01*
X114666666Y-94452380D01*
X114666666Y-94547619D01*
X115142857Y-94785714D02*
X115142857Y-95452380D01*
X115142857Y-94880952D02*
X115190476Y-94833333D01*
X115285714Y-94785714D01*
X115428571Y-94785714D01*
X115523809Y-94833333D01*
X115571428Y-94928571D01*
X115571428Y-95452380D01*
X116809523Y-95452380D02*
X116809523Y-94785714D01*
X116809523Y-94880952D02*
X116857142Y-94833333D01*
X116952380Y-94785714D01*
X117095238Y-94785714D01*
X117190476Y-94833333D01*
X117238095Y-94928571D01*
X117238095Y-95452380D01*
X117238095Y-94928571D02*
X117285714Y-94833333D01*
X117380952Y-94785714D01*
X117523809Y-94785714D01*
X117619047Y-94833333D01*
X117666666Y-94928571D01*
X117666666Y-95452380D01*
X118523809Y-95404761D02*
X118428571Y-95452380D01*
X118238095Y-95452380D01*
X118142857Y-95404761D01*
X118095238Y-95309523D01*
X118095238Y-94928571D01*
X118142857Y-94833333D01*
X118238095Y-94785714D01*
X118428571Y-94785714D01*
X118523809Y-94833333D01*
X118571428Y-94928571D01*
X118571428Y-95023809D01*
X118095238Y-95119047D01*
X119000000Y-95452380D02*
X119000000Y-94785714D01*
X119000000Y-94880952D02*
X119047619Y-94833333D01*
X119142857Y-94785714D01*
X119285714Y-94785714D01*
X119380952Y-94833333D01*
X119428571Y-94928571D01*
X119428571Y-95452380D01*
X119428571Y-94928571D02*
X119476190Y-94833333D01*
X119571428Y-94785714D01*
X119714285Y-94785714D01*
X119809523Y-94833333D01*
X119857142Y-94928571D01*
X119857142Y-95452380D01*
X120476190Y-95452380D02*
X120380952Y-95404761D01*
X120333333Y-95357142D01*
X120285714Y-95261904D01*
X120285714Y-94976190D01*
X120333333Y-94880952D01*
X120380952Y-94833333D01*
X120476190Y-94785714D01*
X120619047Y-94785714D01*
X120714285Y-94833333D01*
X120761904Y-94880952D01*
X120809523Y-94976190D01*
X120809523Y-95261904D01*
X120761904Y-95357142D01*
X120714285Y-95404761D01*
X120619047Y-95452380D01*
X120476190Y-95452380D01*
X121238095Y-95452380D02*
X121238095Y-94785714D01*
X121238095Y-94976190D02*
X121285714Y-94880952D01*
X121333333Y-94833333D01*
X121428571Y-94785714D01*
X121523809Y-94785714D01*
X121857142Y-95452380D02*
X121857142Y-94785714D01*
X121857142Y-94452380D02*
X121809523Y-94500000D01*
X121857142Y-94547619D01*
X121904761Y-94500000D01*
X121857142Y-94452380D01*
X121857142Y-94547619D01*
X122761904Y-95452380D02*
X122761904Y-94928571D01*
X122714285Y-94833333D01*
X122619047Y-94785714D01*
X122428571Y-94785714D01*
X122333333Y-94833333D01*
X122761904Y-95404761D02*
X122666666Y-95452380D01*
X122428571Y-95452380D01*
X122333333Y-95404761D01*
X122285714Y-95309523D01*
X122285714Y-95214285D01*
X122333333Y-95119047D01*
X122428571Y-95071428D01*
X122666666Y-95071428D01*
X122761904Y-95023809D01*
X123238095Y-95452380D02*
X123238095Y-94785714D01*
X123238095Y-94880952D02*
X123285714Y-94833333D01*
X123380952Y-94785714D01*
X123523809Y-94785714D01*
X123619047Y-94833333D01*
X123666666Y-94928571D01*
X123666666Y-95452380D01*
X123666666Y-94928571D02*
X123714285Y-94833333D01*
X123809523Y-94785714D01*
X123952380Y-94785714D01*
X124047619Y-94833333D01*
X124095238Y-94928571D01*
X124095238Y-95452380D01*
X125285714Y-95166666D02*
X125761904Y-95166666D01*
X125190476Y-95452380D02*
X125523809Y-94452380D01*
X125857142Y-95452380D01*
X126190476Y-95357142D02*
X126238095Y-95404761D01*
X126190476Y-95452380D01*
X126142857Y-95404761D01*
X126190476Y-95357142D01*
X126190476Y-95452380D01*
X126619047Y-95404761D02*
X126761904Y-95452380D01*
X127000000Y-95452380D01*
X127095238Y-95404761D01*
X127142857Y-95357142D01*
X127190476Y-95261904D01*
X127190476Y-95166666D01*
X127142857Y-95071428D01*
X127095238Y-95023809D01*
X127000000Y-94976190D01*
X126809523Y-94928571D01*
X126714285Y-94880952D01*
X126666666Y-94833333D01*
X126619047Y-94738095D01*
X126619047Y-94642857D01*
X126666666Y-94547619D01*
X126714285Y-94500000D01*
X126809523Y-94452380D01*
X127047619Y-94452380D01*
X127190476Y-94500000D01*
X127619047Y-95357142D02*
X127666666Y-95404761D01*
X127619047Y-95452380D01*
X127571428Y-95404761D01*
X127619047Y-95357142D01*
X127619047Y-95452380D01*
X128857142Y-95071428D02*
X129619047Y-95071428D01*
X131380952Y-94500000D02*
X131285714Y-94452380D01*
X131142857Y-94452380D01*
X131000000Y-94500000D01*
X130904761Y-94595238D01*
X130857142Y-94690476D01*
X130809523Y-94880952D01*
X130809523Y-95023809D01*
X130857142Y-95214285D01*
X130904761Y-95309523D01*
X131000000Y-95404761D01*
X131142857Y-95452380D01*
X131238095Y-95452380D01*
X131380952Y-95404761D01*
X131428571Y-95357142D01*
X131428571Y-95023809D01*
X131238095Y-95023809D01*
X131857142Y-95357142D02*
X131904761Y-95404761D01*
X131857142Y-95452380D01*
X131809523Y-95404761D01*
X131857142Y-95357142D01*
X131857142Y-95452380D01*
X132333333Y-95452380D02*
X132333333Y-94452380D01*
X132571428Y-94452380D01*
X132714285Y-94500000D01*
X132809523Y-94595238D01*
X132857142Y-94690476D01*
X132904761Y-94880952D01*
X132904761Y-95023809D01*
X132857142Y-95214285D01*
X132809523Y-95309523D01*
X132714285Y-95404761D01*
X132571428Y-95452380D01*
X132333333Y-95452380D01*
X133333333Y-95357142D02*
X133380952Y-95404761D01*
X133333333Y-95452380D01*
X133285714Y-95404761D01*
X133333333Y-95357142D01*
X133333333Y-95452380D01*
G04 #@! TO.C,J1*
D11*
X142461667Y-95452380D02*
X142461667Y-96166666D01*
X142414048Y-96309523D01*
X142318810Y-96404761D01*
X142175953Y-96452380D01*
X142080715Y-96452380D01*
X143461667Y-96452380D02*
X142890239Y-96452380D01*
X143175953Y-96452380D02*
X143175953Y-95452380D01*
X143080715Y-95595238D01*
X142985477Y-95690476D01*
X142890239Y-95738095D01*
G04 #@! TD*
M02*
