G04 #@! TF.GenerationSoftware,KiCad,Pcbnew,5.0.2+dfsg1-1*
G04 #@! TF.CreationDate,2020-10-11T22:03:41+02:00*
G04 #@! TF.ProjectId,KBD_ADAPTER_XE,4b42445f-4144-4415-9054-45525f58452e,1.0*
G04 #@! TF.SameCoordinates,Original*
G04 #@! TF.FileFunction,Copper,L2,Bot*
G04 #@! TF.FilePolarity,Positive*
%FSLAX46Y46*%
G04 Gerber Fmt 4.6, Leading zero omitted, Abs format (unit mm)*
G04 Created by KiCad (PCBNEW 5.0.2+dfsg1-1) date Sun 11 Oct 2020 10:03:41 PM CEST*
%MOMM*%
%LPD*%
G01*
G04 APERTURE LIST*
G04 #@! TA.AperFunction,ComponentPad*
%ADD10R,1.520000X1.520000*%
G04 #@! TD*
G04 #@! TA.AperFunction,ComponentPad*
%ADD11C,1.520000*%
G04 #@! TD*
G04 #@! TA.AperFunction,ViaPad*
%ADD12C,0.800000*%
G04 #@! TD*
G04 #@! TA.AperFunction,Conductor*
%ADD13C,0.250000*%
G04 #@! TD*
G04 #@! TA.AperFunction,Conductor*
%ADD14C,0.254000*%
G04 #@! TD*
G04 APERTURE END LIST*
D10*
G04 #@! TO.P,J2,1*
G04 #@! TO.N,VCC*
X123524000Y-97912000D03*
D11*
G04 #@! TO.P,J2,2*
G04 #@! TO.N,J_LED*
X123524000Y-100452000D03*
G04 #@! TO.P,J2,3*
G04 #@! TO.N,GND*
X126064000Y-97912000D03*
G04 #@! TO.P,J2,4*
G04 #@! TO.N,IN_6*
X126064000Y-100452000D03*
G04 #@! TO.P,J2,5*
G04 #@! TO.N,OUT_3*
X128604000Y-97912000D03*
G04 #@! TO.P,J2,6*
G04 #@! TO.N,OUT_5*
X128604000Y-100452000D03*
G04 #@! TO.P,J2,7*
G04 #@! TO.N,OUT_7*
X131144000Y-97912000D03*
G04 #@! TO.P,J2,8*
G04 #@! TO.N,IN_2*
X131144000Y-100452000D03*
G04 #@! TO.P,J2,9*
G04 #@! TO.N,IN_7*
X133684000Y-97912000D03*
G04 #@! TO.P,J2,10*
G04 #@! TO.N,IN_5*
X133684000Y-100452000D03*
G04 #@! TO.P,J2,11*
G04 #@! TO.N,IN_1*
X136224000Y-97912000D03*
G04 #@! TO.P,J2,12*
G04 #@! TO.N,OUT_6*
X136224000Y-100452000D03*
G04 #@! TO.P,J2,13*
G04 #@! TO.N,OUT_1*
X138764000Y-97912000D03*
G04 #@! TO.P,J2,14*
G04 #@! TO.N,OUT_4*
X138764000Y-100452000D03*
G04 #@! TO.P,J2,15*
G04 #@! TO.N,OUT_2*
X141304000Y-97912000D03*
G04 #@! TO.P,J2,16*
G04 #@! TO.N,IN_3*
X141304000Y-100452000D03*
G04 #@! TO.P,J2,17*
G04 #@! TO.N,IN_0*
X143844000Y-97912000D03*
G04 #@! TO.P,J2,18*
G04 #@! TO.N,OUT_0*
X143844000Y-100452000D03*
G04 #@! TO.P,J2,19*
G04 #@! TO.N,IN_4*
X146384000Y-97912000D03*
G04 #@! TO.P,J2,20*
G04 #@! TO.N,RSC*
X146384000Y-100452000D03*
G04 #@! TO.P,J2,21*
G04 #@! TO.N,START*
X148924000Y-97912000D03*
G04 #@! TO.P,J2,22*
G04 #@! TO.N,SELECT*
X148924000Y-100452000D03*
G04 #@! TO.P,J2,23*
G04 #@! TO.N,OPTION*
X151464000Y-97912000D03*
G04 #@! TO.P,J2,24*
G04 #@! TO.N,RESET*
X151464000Y-100452000D03*
G04 #@! TO.P,J2,25*
G04 #@! TO.N,Net-(J2-Pad25)*
X154004000Y-97912000D03*
G04 #@! TO.P,J2,26*
G04 #@! TO.N,Net-(J2-Pad26)*
X154004000Y-100452000D03*
G04 #@! TO.P,J2,27*
G04 #@! TO.N,Net-(J2-Pad27)*
X156544000Y-97912000D03*
G04 #@! TO.P,J2,28*
G04 #@! TO.N,Net-(J2-Pad28)*
X156544000Y-100452000D03*
G04 #@! TO.P,J2,29*
G04 #@! TO.N,Net-(J2-Pad29)*
X159084000Y-97912000D03*
G04 #@! TO.P,J2,30*
G04 #@! TO.N,Net-(J2-Pad30)*
X159084000Y-100452000D03*
G04 #@! TO.P,J2,31*
G04 #@! TO.N,Net-(J2-Pad31)*
X161624000Y-97912000D03*
G04 #@! TO.P,J2,32*
G04 #@! TO.N,Net-(J2-Pad32)*
X161624000Y-100452000D03*
G04 #@! TO.P,J2,33*
G04 #@! TO.N,Net-(J2-Pad33)*
X164164000Y-97912000D03*
G04 #@! TO.P,J2,34*
G04 #@! TO.N,Net-(J2-Pad34)*
X164164000Y-100452000D03*
G04 #@! TD*
D12*
G04 #@! TO.N,IN_5*
X135900000Y-102514999D03*
G04 #@! TO.N,OUT_6*
X140125153Y-103174847D03*
G04 #@! TO.N,OUT_1*
X145200000Y-103500000D03*
G04 #@! TO.N,OUT_4*
X147800000Y-103600000D03*
G04 #@! TO.N,OUT_2*
X150400000Y-103500000D03*
G04 #@! TO.N,OUT_0*
X155700000Y-103500000D03*
G04 #@! TO.N,IN_4*
X154600000Y-102400000D03*
G04 #@! TO.N,START*
X165900000Y-99300000D03*
G04 #@! TO.N,SELECT*
X166700000Y-102100000D03*
X147600000Y-96800000D03*
G04 #@! TD*
D13*
G04 #@! TO.N,IN_5*
X135334315Y-102514999D02*
X134919316Y-102100000D01*
X135900000Y-102514999D02*
X135334315Y-102514999D01*
X134919316Y-101687316D02*
X133684000Y-100452000D01*
X134919316Y-102100000D02*
X134919316Y-101687316D01*
G04 #@! TO.N,OUT_6*
X139559468Y-103174847D02*
X138884621Y-102500000D01*
X140125153Y-103174847D02*
X139559468Y-103174847D01*
X138272000Y-102500000D02*
X136224000Y-100452000D01*
X138884621Y-102500000D02*
X138272000Y-102500000D01*
G04 #@! TO.N,OUT_1*
X144634315Y-103500000D02*
X143334315Y-102200000D01*
X145200000Y-103500000D02*
X144634315Y-103500000D01*
X143334315Y-102200000D02*
X141200000Y-102200000D01*
X141200000Y-102200000D02*
X140000000Y-101000000D01*
X140000000Y-99148000D02*
X138764000Y-97912000D01*
X140000000Y-101000000D02*
X140000000Y-99148000D01*
G04 #@! TO.N,OUT_4*
X147800000Y-103600000D02*
X147100000Y-103600000D01*
X147100000Y-103600000D02*
X146200000Y-104500000D01*
X146200000Y-104500000D02*
X144300000Y-104500000D01*
X144300000Y-104500000D02*
X142700000Y-102900000D01*
X141212000Y-102900000D02*
X138764000Y-100452000D01*
X142700000Y-102900000D02*
X141212000Y-102900000D01*
G04 #@! TO.N,OUT_2*
X149834315Y-103500000D02*
X148634315Y-102300000D01*
X150400000Y-103500000D02*
X149834315Y-103500000D01*
X148634315Y-102300000D02*
X144200000Y-102300000D01*
X144200000Y-102300000D02*
X143500000Y-101600000D01*
X143500000Y-101600000D02*
X142800000Y-101600000D01*
X142800000Y-101600000D02*
X142500000Y-101300000D01*
X142500000Y-99108000D02*
X141304000Y-97912000D01*
X142500000Y-101300000D02*
X142500000Y-99108000D01*
G04 #@! TO.N,OUT_0*
X155700000Y-103500000D02*
X151900000Y-103500000D01*
X151900000Y-103500000D02*
X150500000Y-102100000D01*
X150500000Y-102100000D02*
X149200000Y-102100000D01*
X144603999Y-101211999D02*
X143844000Y-100452000D01*
X145241990Y-101849990D02*
X144603999Y-101211999D01*
X148949990Y-101849990D02*
X145241990Y-101849990D01*
X149200000Y-102100000D02*
X148949990Y-101849990D01*
G04 #@! TO.N,IN_4*
X153849991Y-101649991D02*
X150849991Y-101649991D01*
X154600000Y-102400000D02*
X153849991Y-101649991D01*
X150849991Y-101649991D02*
X150200000Y-101000000D01*
X150200000Y-101000000D02*
X150200000Y-99800000D01*
X150200000Y-99800000D02*
X149600000Y-99200000D01*
X147672000Y-99200000D02*
X146384000Y-97912000D01*
X149600000Y-99200000D02*
X147672000Y-99200000D01*
G04 #@! TO.N,START*
X165900000Y-98734315D02*
X166100000Y-98534315D01*
X165900000Y-99300000D02*
X165900000Y-98734315D01*
X166100000Y-98534315D02*
X166100000Y-97700000D01*
X166100000Y-97700000D02*
X164600000Y-96200000D01*
X150636000Y-96200000D02*
X148924000Y-97912000D01*
X164600000Y-96200000D02*
X150636000Y-96200000D01*
G04 #@! TO.N,SELECT*
X166700000Y-101534315D02*
X170100000Y-98134315D01*
X166700000Y-102100000D02*
X166700000Y-101534315D01*
X170100000Y-98134315D02*
X170100000Y-97100000D01*
X168749990Y-95749990D02*
X148249990Y-95749990D01*
X170100000Y-97100000D02*
X168749990Y-95749990D01*
X148249990Y-95749990D02*
X147600000Y-96399980D01*
X147600000Y-96399980D02*
X147600000Y-96800000D01*
G04 #@! TD*
D14*
G04 #@! TO.N,GND*
G36*
X173873000Y-111873000D02*
X114127000Y-111873000D01*
X114127000Y-97152000D01*
X122116560Y-97152000D01*
X122116560Y-98672000D01*
X122165843Y-98919765D01*
X122306191Y-99129809D01*
X122516235Y-99270157D01*
X122697049Y-99306123D01*
X122341376Y-99661796D01*
X122129000Y-100174517D01*
X122129000Y-100729483D01*
X122341376Y-101242204D01*
X122733796Y-101634624D01*
X123246517Y-101847000D01*
X123801483Y-101847000D01*
X124314204Y-101634624D01*
X124706624Y-101242204D01*
X124794000Y-101031260D01*
X124881376Y-101242204D01*
X125273796Y-101634624D01*
X125786517Y-101847000D01*
X126341483Y-101847000D01*
X126854204Y-101634624D01*
X127246624Y-101242204D01*
X127334000Y-101031260D01*
X127421376Y-101242204D01*
X127813796Y-101634624D01*
X128326517Y-101847000D01*
X128881483Y-101847000D01*
X129394204Y-101634624D01*
X129786624Y-101242204D01*
X129874000Y-101031260D01*
X129961376Y-101242204D01*
X130353796Y-101634624D01*
X130866517Y-101847000D01*
X131421483Y-101847000D01*
X131934204Y-101634624D01*
X132326624Y-101242204D01*
X132414000Y-101031260D01*
X132501376Y-101242204D01*
X132893796Y-101634624D01*
X133406517Y-101847000D01*
X133961483Y-101847000D01*
X133991687Y-101834489D01*
X134159316Y-102002118D01*
X134159316Y-102025153D01*
X134144428Y-102100000D01*
X134159316Y-102174847D01*
X134159316Y-102174851D01*
X134203412Y-102396536D01*
X134371387Y-102647929D01*
X134434846Y-102690331D01*
X134743984Y-102999469D01*
X134786386Y-103062928D01*
X135037778Y-103230903D01*
X135180603Y-103259313D01*
X135313720Y-103392430D01*
X135694126Y-103549999D01*
X136105874Y-103549999D01*
X136486280Y-103392430D01*
X136777431Y-103101279D01*
X136935000Y-102720873D01*
X136935000Y-102309125D01*
X136884567Y-102187369D01*
X137681673Y-102984476D01*
X137724071Y-103047929D01*
X137787524Y-103090327D01*
X137787526Y-103090329D01*
X137912902Y-103174102D01*
X137975463Y-103215904D01*
X138197148Y-103260000D01*
X138197152Y-103260000D01*
X138271999Y-103274888D01*
X138346846Y-103260000D01*
X138569820Y-103260000D01*
X138969139Y-103659320D01*
X139011539Y-103722776D01*
X139074995Y-103765176D01*
X139262930Y-103890751D01*
X139292019Y-103896537D01*
X139405756Y-103919161D01*
X139538873Y-104052278D01*
X139919279Y-104209847D01*
X140331027Y-104209847D01*
X140711433Y-104052278D01*
X141002584Y-103761127D01*
X141051527Y-103642969D01*
X141137148Y-103660000D01*
X141137152Y-103660000D01*
X141212000Y-103674888D01*
X141286848Y-103660000D01*
X142385199Y-103660000D01*
X143709671Y-104984473D01*
X143752071Y-105047929D01*
X143815527Y-105090329D01*
X144003462Y-105215904D01*
X144051605Y-105225480D01*
X144225148Y-105260000D01*
X144225152Y-105260000D01*
X144300000Y-105274888D01*
X144374848Y-105260000D01*
X146125153Y-105260000D01*
X146200000Y-105274888D01*
X146274847Y-105260000D01*
X146274852Y-105260000D01*
X146496537Y-105215904D01*
X146747929Y-105047929D01*
X146790331Y-104984470D01*
X147272870Y-104501932D01*
X147594126Y-104635000D01*
X148005874Y-104635000D01*
X148386280Y-104477431D01*
X148677431Y-104186280D01*
X148835000Y-103805874D01*
X148835000Y-103575487D01*
X149243986Y-103984473D01*
X149286386Y-104047929D01*
X149537778Y-104215904D01*
X149680603Y-104244314D01*
X149813720Y-104377431D01*
X150194126Y-104535000D01*
X150605874Y-104535000D01*
X150986280Y-104377431D01*
X151277431Y-104086280D01*
X151315801Y-103993647D01*
X151352071Y-104047929D01*
X151603463Y-104215904D01*
X151825148Y-104260000D01*
X151825153Y-104260000D01*
X151900000Y-104274888D01*
X151974847Y-104260000D01*
X154996289Y-104260000D01*
X155113720Y-104377431D01*
X155494126Y-104535000D01*
X155905874Y-104535000D01*
X156286280Y-104377431D01*
X156577431Y-104086280D01*
X156735000Y-103705874D01*
X156735000Y-103294126D01*
X156577431Y-102913720D01*
X156286280Y-102622569D01*
X155905874Y-102465000D01*
X155635000Y-102465000D01*
X155635000Y-102194126D01*
X155477431Y-101813720D01*
X155186280Y-101522569D01*
X154988275Y-101440553D01*
X155186624Y-101242204D01*
X155274000Y-101031260D01*
X155361376Y-101242204D01*
X155753796Y-101634624D01*
X156266517Y-101847000D01*
X156821483Y-101847000D01*
X157334204Y-101634624D01*
X157726624Y-101242204D01*
X157814000Y-101031260D01*
X157901376Y-101242204D01*
X158293796Y-101634624D01*
X158806517Y-101847000D01*
X159361483Y-101847000D01*
X159874204Y-101634624D01*
X160266624Y-101242204D01*
X160354000Y-101031260D01*
X160441376Y-101242204D01*
X160833796Y-101634624D01*
X161346517Y-101847000D01*
X161901483Y-101847000D01*
X162414204Y-101634624D01*
X162806624Y-101242204D01*
X162894000Y-101031260D01*
X162981376Y-101242204D01*
X163373796Y-101634624D01*
X163886517Y-101847000D01*
X164441483Y-101847000D01*
X164954204Y-101634624D01*
X165346624Y-101242204D01*
X165559000Y-100729483D01*
X165559000Y-100279029D01*
X165694126Y-100335000D01*
X166105874Y-100335000D01*
X166486280Y-100177431D01*
X166777431Y-99886280D01*
X166935000Y-99505874D01*
X166935000Y-99094126D01*
X166819163Y-98814469D01*
X166860000Y-98609167D01*
X166860000Y-98609163D01*
X166874888Y-98534315D01*
X166860000Y-98459467D01*
X166860000Y-97774846D01*
X166874888Y-97699999D01*
X166860000Y-97625152D01*
X166860000Y-97625148D01*
X166815904Y-97403463D01*
X166761252Y-97321671D01*
X166690329Y-97215526D01*
X166690327Y-97215524D01*
X166647929Y-97152071D01*
X166584476Y-97109673D01*
X165984792Y-96509990D01*
X168435189Y-96509990D01*
X169340001Y-97414803D01*
X169340000Y-97819513D01*
X166215528Y-100943986D01*
X166152072Y-100986386D01*
X165984096Y-101237778D01*
X165955686Y-101380603D01*
X165822569Y-101513720D01*
X165665000Y-101894126D01*
X165665000Y-102305874D01*
X165822569Y-102686280D01*
X166113720Y-102977431D01*
X166494126Y-103135000D01*
X166905874Y-103135000D01*
X167286280Y-102977431D01*
X167577431Y-102686280D01*
X167735000Y-102305874D01*
X167735000Y-101894126D01*
X167641271Y-101667845D01*
X170584473Y-98724644D01*
X170647929Y-98682244D01*
X170815904Y-98430852D01*
X170860000Y-98209167D01*
X170860000Y-98209163D01*
X170874888Y-98134316D01*
X170860000Y-98059469D01*
X170860000Y-97174846D01*
X170874888Y-97099999D01*
X170860000Y-97025152D01*
X170860000Y-97025148D01*
X170815904Y-96803463D01*
X170740931Y-96691258D01*
X170690329Y-96615526D01*
X170690327Y-96615524D01*
X170647929Y-96552071D01*
X170584476Y-96509673D01*
X169340321Y-95265520D01*
X169297919Y-95202061D01*
X169046527Y-95034086D01*
X168824842Y-94989990D01*
X168824837Y-94989990D01*
X168749990Y-94975102D01*
X168675143Y-94989990D01*
X148324838Y-94989990D01*
X148249990Y-94975102D01*
X148175142Y-94989990D01*
X148175138Y-94989990D01*
X148001595Y-95024510D01*
X147953452Y-95034086D01*
X147766408Y-95159066D01*
X147702061Y-95202061D01*
X147659661Y-95265517D01*
X147115530Y-95809649D01*
X147052071Y-95852051D01*
X146987298Y-95948991D01*
X146722569Y-96213720D01*
X146596947Y-96517000D01*
X146106517Y-96517000D01*
X145593796Y-96729376D01*
X145201376Y-97121796D01*
X145114000Y-97332740D01*
X145026624Y-97121796D01*
X144634204Y-96729376D01*
X144121483Y-96517000D01*
X143566517Y-96517000D01*
X143053796Y-96729376D01*
X142661376Y-97121796D01*
X142574000Y-97332740D01*
X142486624Y-97121796D01*
X142094204Y-96729376D01*
X141581483Y-96517000D01*
X141026517Y-96517000D01*
X140513796Y-96729376D01*
X140121376Y-97121796D01*
X140034000Y-97332740D01*
X139946624Y-97121796D01*
X139554204Y-96729376D01*
X139041483Y-96517000D01*
X138486517Y-96517000D01*
X137973796Y-96729376D01*
X137581376Y-97121796D01*
X137494000Y-97332740D01*
X137406624Y-97121796D01*
X137014204Y-96729376D01*
X136501483Y-96517000D01*
X135946517Y-96517000D01*
X135433796Y-96729376D01*
X135041376Y-97121796D01*
X134954000Y-97332740D01*
X134866624Y-97121796D01*
X134474204Y-96729376D01*
X133961483Y-96517000D01*
X133406517Y-96517000D01*
X132893796Y-96729376D01*
X132501376Y-97121796D01*
X132414000Y-97332740D01*
X132326624Y-97121796D01*
X131934204Y-96729376D01*
X131421483Y-96517000D01*
X130866517Y-96517000D01*
X130353796Y-96729376D01*
X129961376Y-97121796D01*
X129874000Y-97332740D01*
X129786624Y-97121796D01*
X129394204Y-96729376D01*
X128881483Y-96517000D01*
X128326517Y-96517000D01*
X127813796Y-96729376D01*
X127421376Y-97121796D01*
X127340578Y-97316859D01*
X127284742Y-97182059D01*
X127042764Y-97112841D01*
X126243605Y-97912000D01*
X127042764Y-98711159D01*
X127284742Y-98641941D01*
X127336406Y-98497069D01*
X127421376Y-98702204D01*
X127813796Y-99094624D01*
X128024740Y-99182000D01*
X127813796Y-99269376D01*
X127421376Y-99661796D01*
X127334000Y-99872740D01*
X127246624Y-99661796D01*
X126854204Y-99269376D01*
X126659141Y-99188578D01*
X126793941Y-99132742D01*
X126863159Y-98890764D01*
X126064000Y-98091605D01*
X125264841Y-98890764D01*
X125334059Y-99132742D01*
X125478931Y-99184406D01*
X125273796Y-99269376D01*
X124881376Y-99661796D01*
X124794000Y-99872740D01*
X124706624Y-99661796D01*
X124350951Y-99306123D01*
X124531765Y-99270157D01*
X124741809Y-99129809D01*
X124882157Y-98919765D01*
X124931440Y-98672000D01*
X124931440Y-98667166D01*
X125085236Y-98711159D01*
X125884395Y-97912000D01*
X125085236Y-97112841D01*
X124931440Y-97156834D01*
X124931440Y-97152000D01*
X124887926Y-96933236D01*
X125264841Y-96933236D01*
X126064000Y-97732395D01*
X126863159Y-96933236D01*
X126793941Y-96691258D01*
X126271220Y-96504845D01*
X125716951Y-96532659D01*
X125334059Y-96691258D01*
X125264841Y-96933236D01*
X124887926Y-96933236D01*
X124882157Y-96904235D01*
X124741809Y-96694191D01*
X124531765Y-96553843D01*
X124284000Y-96504560D01*
X122764000Y-96504560D01*
X122516235Y-96553843D01*
X122306191Y-96694191D01*
X122165843Y-96904235D01*
X122116560Y-97152000D01*
X114127000Y-97152000D01*
X114127000Y-94127000D01*
X173873000Y-94127000D01*
X173873000Y-111873000D01*
X173873000Y-111873000D01*
G37*
X173873000Y-111873000D02*
X114127000Y-111873000D01*
X114127000Y-97152000D01*
X122116560Y-97152000D01*
X122116560Y-98672000D01*
X122165843Y-98919765D01*
X122306191Y-99129809D01*
X122516235Y-99270157D01*
X122697049Y-99306123D01*
X122341376Y-99661796D01*
X122129000Y-100174517D01*
X122129000Y-100729483D01*
X122341376Y-101242204D01*
X122733796Y-101634624D01*
X123246517Y-101847000D01*
X123801483Y-101847000D01*
X124314204Y-101634624D01*
X124706624Y-101242204D01*
X124794000Y-101031260D01*
X124881376Y-101242204D01*
X125273796Y-101634624D01*
X125786517Y-101847000D01*
X126341483Y-101847000D01*
X126854204Y-101634624D01*
X127246624Y-101242204D01*
X127334000Y-101031260D01*
X127421376Y-101242204D01*
X127813796Y-101634624D01*
X128326517Y-101847000D01*
X128881483Y-101847000D01*
X129394204Y-101634624D01*
X129786624Y-101242204D01*
X129874000Y-101031260D01*
X129961376Y-101242204D01*
X130353796Y-101634624D01*
X130866517Y-101847000D01*
X131421483Y-101847000D01*
X131934204Y-101634624D01*
X132326624Y-101242204D01*
X132414000Y-101031260D01*
X132501376Y-101242204D01*
X132893796Y-101634624D01*
X133406517Y-101847000D01*
X133961483Y-101847000D01*
X133991687Y-101834489D01*
X134159316Y-102002118D01*
X134159316Y-102025153D01*
X134144428Y-102100000D01*
X134159316Y-102174847D01*
X134159316Y-102174851D01*
X134203412Y-102396536D01*
X134371387Y-102647929D01*
X134434846Y-102690331D01*
X134743984Y-102999469D01*
X134786386Y-103062928D01*
X135037778Y-103230903D01*
X135180603Y-103259313D01*
X135313720Y-103392430D01*
X135694126Y-103549999D01*
X136105874Y-103549999D01*
X136486280Y-103392430D01*
X136777431Y-103101279D01*
X136935000Y-102720873D01*
X136935000Y-102309125D01*
X136884567Y-102187369D01*
X137681673Y-102984476D01*
X137724071Y-103047929D01*
X137787524Y-103090327D01*
X137787526Y-103090329D01*
X137912902Y-103174102D01*
X137975463Y-103215904D01*
X138197148Y-103260000D01*
X138197152Y-103260000D01*
X138271999Y-103274888D01*
X138346846Y-103260000D01*
X138569820Y-103260000D01*
X138969139Y-103659320D01*
X139011539Y-103722776D01*
X139074995Y-103765176D01*
X139262930Y-103890751D01*
X139292019Y-103896537D01*
X139405756Y-103919161D01*
X139538873Y-104052278D01*
X139919279Y-104209847D01*
X140331027Y-104209847D01*
X140711433Y-104052278D01*
X141002584Y-103761127D01*
X141051527Y-103642969D01*
X141137148Y-103660000D01*
X141137152Y-103660000D01*
X141212000Y-103674888D01*
X141286848Y-103660000D01*
X142385199Y-103660000D01*
X143709671Y-104984473D01*
X143752071Y-105047929D01*
X143815527Y-105090329D01*
X144003462Y-105215904D01*
X144051605Y-105225480D01*
X144225148Y-105260000D01*
X144225152Y-105260000D01*
X144300000Y-105274888D01*
X144374848Y-105260000D01*
X146125153Y-105260000D01*
X146200000Y-105274888D01*
X146274847Y-105260000D01*
X146274852Y-105260000D01*
X146496537Y-105215904D01*
X146747929Y-105047929D01*
X146790331Y-104984470D01*
X147272870Y-104501932D01*
X147594126Y-104635000D01*
X148005874Y-104635000D01*
X148386280Y-104477431D01*
X148677431Y-104186280D01*
X148835000Y-103805874D01*
X148835000Y-103575487D01*
X149243986Y-103984473D01*
X149286386Y-104047929D01*
X149537778Y-104215904D01*
X149680603Y-104244314D01*
X149813720Y-104377431D01*
X150194126Y-104535000D01*
X150605874Y-104535000D01*
X150986280Y-104377431D01*
X151277431Y-104086280D01*
X151315801Y-103993647D01*
X151352071Y-104047929D01*
X151603463Y-104215904D01*
X151825148Y-104260000D01*
X151825153Y-104260000D01*
X151900000Y-104274888D01*
X151974847Y-104260000D01*
X154996289Y-104260000D01*
X155113720Y-104377431D01*
X155494126Y-104535000D01*
X155905874Y-104535000D01*
X156286280Y-104377431D01*
X156577431Y-104086280D01*
X156735000Y-103705874D01*
X156735000Y-103294126D01*
X156577431Y-102913720D01*
X156286280Y-102622569D01*
X155905874Y-102465000D01*
X155635000Y-102465000D01*
X155635000Y-102194126D01*
X155477431Y-101813720D01*
X155186280Y-101522569D01*
X154988275Y-101440553D01*
X155186624Y-101242204D01*
X155274000Y-101031260D01*
X155361376Y-101242204D01*
X155753796Y-101634624D01*
X156266517Y-101847000D01*
X156821483Y-101847000D01*
X157334204Y-101634624D01*
X157726624Y-101242204D01*
X157814000Y-101031260D01*
X157901376Y-101242204D01*
X158293796Y-101634624D01*
X158806517Y-101847000D01*
X159361483Y-101847000D01*
X159874204Y-101634624D01*
X160266624Y-101242204D01*
X160354000Y-101031260D01*
X160441376Y-101242204D01*
X160833796Y-101634624D01*
X161346517Y-101847000D01*
X161901483Y-101847000D01*
X162414204Y-101634624D01*
X162806624Y-101242204D01*
X162894000Y-101031260D01*
X162981376Y-101242204D01*
X163373796Y-101634624D01*
X163886517Y-101847000D01*
X164441483Y-101847000D01*
X164954204Y-101634624D01*
X165346624Y-101242204D01*
X165559000Y-100729483D01*
X165559000Y-100279029D01*
X165694126Y-100335000D01*
X166105874Y-100335000D01*
X166486280Y-100177431D01*
X166777431Y-99886280D01*
X166935000Y-99505874D01*
X166935000Y-99094126D01*
X166819163Y-98814469D01*
X166860000Y-98609167D01*
X166860000Y-98609163D01*
X166874888Y-98534315D01*
X166860000Y-98459467D01*
X166860000Y-97774846D01*
X166874888Y-97699999D01*
X166860000Y-97625152D01*
X166860000Y-97625148D01*
X166815904Y-97403463D01*
X166761252Y-97321671D01*
X166690329Y-97215526D01*
X166690327Y-97215524D01*
X166647929Y-97152071D01*
X166584476Y-97109673D01*
X165984792Y-96509990D01*
X168435189Y-96509990D01*
X169340001Y-97414803D01*
X169340000Y-97819513D01*
X166215528Y-100943986D01*
X166152072Y-100986386D01*
X165984096Y-101237778D01*
X165955686Y-101380603D01*
X165822569Y-101513720D01*
X165665000Y-101894126D01*
X165665000Y-102305874D01*
X165822569Y-102686280D01*
X166113720Y-102977431D01*
X166494126Y-103135000D01*
X166905874Y-103135000D01*
X167286280Y-102977431D01*
X167577431Y-102686280D01*
X167735000Y-102305874D01*
X167735000Y-101894126D01*
X167641271Y-101667845D01*
X170584473Y-98724644D01*
X170647929Y-98682244D01*
X170815904Y-98430852D01*
X170860000Y-98209167D01*
X170860000Y-98209163D01*
X170874888Y-98134316D01*
X170860000Y-98059469D01*
X170860000Y-97174846D01*
X170874888Y-97099999D01*
X170860000Y-97025152D01*
X170860000Y-97025148D01*
X170815904Y-96803463D01*
X170740931Y-96691258D01*
X170690329Y-96615526D01*
X170690327Y-96615524D01*
X170647929Y-96552071D01*
X170584476Y-96509673D01*
X169340321Y-95265520D01*
X169297919Y-95202061D01*
X169046527Y-95034086D01*
X168824842Y-94989990D01*
X168824837Y-94989990D01*
X168749990Y-94975102D01*
X168675143Y-94989990D01*
X148324838Y-94989990D01*
X148249990Y-94975102D01*
X148175142Y-94989990D01*
X148175138Y-94989990D01*
X148001595Y-95024510D01*
X147953452Y-95034086D01*
X147766408Y-95159066D01*
X147702061Y-95202061D01*
X147659661Y-95265517D01*
X147115530Y-95809649D01*
X147052071Y-95852051D01*
X146987298Y-95948991D01*
X146722569Y-96213720D01*
X146596947Y-96517000D01*
X146106517Y-96517000D01*
X145593796Y-96729376D01*
X145201376Y-97121796D01*
X145114000Y-97332740D01*
X145026624Y-97121796D01*
X144634204Y-96729376D01*
X144121483Y-96517000D01*
X143566517Y-96517000D01*
X143053796Y-96729376D01*
X142661376Y-97121796D01*
X142574000Y-97332740D01*
X142486624Y-97121796D01*
X142094204Y-96729376D01*
X141581483Y-96517000D01*
X141026517Y-96517000D01*
X140513796Y-96729376D01*
X140121376Y-97121796D01*
X140034000Y-97332740D01*
X139946624Y-97121796D01*
X139554204Y-96729376D01*
X139041483Y-96517000D01*
X138486517Y-96517000D01*
X137973796Y-96729376D01*
X137581376Y-97121796D01*
X137494000Y-97332740D01*
X137406624Y-97121796D01*
X137014204Y-96729376D01*
X136501483Y-96517000D01*
X135946517Y-96517000D01*
X135433796Y-96729376D01*
X135041376Y-97121796D01*
X134954000Y-97332740D01*
X134866624Y-97121796D01*
X134474204Y-96729376D01*
X133961483Y-96517000D01*
X133406517Y-96517000D01*
X132893796Y-96729376D01*
X132501376Y-97121796D01*
X132414000Y-97332740D01*
X132326624Y-97121796D01*
X131934204Y-96729376D01*
X131421483Y-96517000D01*
X130866517Y-96517000D01*
X130353796Y-96729376D01*
X129961376Y-97121796D01*
X129874000Y-97332740D01*
X129786624Y-97121796D01*
X129394204Y-96729376D01*
X128881483Y-96517000D01*
X128326517Y-96517000D01*
X127813796Y-96729376D01*
X127421376Y-97121796D01*
X127340578Y-97316859D01*
X127284742Y-97182059D01*
X127042764Y-97112841D01*
X126243605Y-97912000D01*
X127042764Y-98711159D01*
X127284742Y-98641941D01*
X127336406Y-98497069D01*
X127421376Y-98702204D01*
X127813796Y-99094624D01*
X128024740Y-99182000D01*
X127813796Y-99269376D01*
X127421376Y-99661796D01*
X127334000Y-99872740D01*
X127246624Y-99661796D01*
X126854204Y-99269376D01*
X126659141Y-99188578D01*
X126793941Y-99132742D01*
X126863159Y-98890764D01*
X126064000Y-98091605D01*
X125264841Y-98890764D01*
X125334059Y-99132742D01*
X125478931Y-99184406D01*
X125273796Y-99269376D01*
X124881376Y-99661796D01*
X124794000Y-99872740D01*
X124706624Y-99661796D01*
X124350951Y-99306123D01*
X124531765Y-99270157D01*
X124741809Y-99129809D01*
X124882157Y-98919765D01*
X124931440Y-98672000D01*
X124931440Y-98667166D01*
X125085236Y-98711159D01*
X125884395Y-97912000D01*
X125085236Y-97112841D01*
X124931440Y-97156834D01*
X124931440Y-97152000D01*
X124887926Y-96933236D01*
X125264841Y-96933236D01*
X126064000Y-97732395D01*
X126863159Y-96933236D01*
X126793941Y-96691258D01*
X126271220Y-96504845D01*
X125716951Y-96532659D01*
X125334059Y-96691258D01*
X125264841Y-96933236D01*
X124887926Y-96933236D01*
X124882157Y-96904235D01*
X124741809Y-96694191D01*
X124531765Y-96553843D01*
X124284000Y-96504560D01*
X122764000Y-96504560D01*
X122516235Y-96553843D01*
X122306191Y-96694191D01*
X122165843Y-96904235D01*
X122116560Y-97152000D01*
X114127000Y-97152000D01*
X114127000Y-94127000D01*
X173873000Y-94127000D01*
X173873000Y-111873000D01*
G04 #@! TD*
M02*
