G04 #@! TF.GenerationSoftware,KiCad,Pcbnew,5.1.9+dfsg1-1*
G04 #@! TF.CreationDate,2022-03-13T19:21:44+01:00*
G04 #@! TF.ProjectId,KBD_ADAPTER_XE,4b42445f-4144-4415-9054-45525f58452e,1.0*
G04 #@! TF.SameCoordinates,Original*
G04 #@! TF.FileFunction,Copper,L1,Top*
G04 #@! TF.FilePolarity,Positive*
%FSLAX46Y46*%
G04 Gerber Fmt 4.6, Leading zero omitted, Abs format (unit mm)*
G04 Created by KiCad (PCBNEW 5.1.9+dfsg1-1) date 2022-03-13 19:21:44*
%MOMM*%
%LPD*%
G01*
G04 APERTURE LIST*
G04 #@! TA.AperFunction,ConnectorPad*
%ADD10R,1.524000X4.000000*%
G04 #@! TD*
G04 #@! TA.AperFunction,ComponentPad*
%ADD11C,1.600000*%
G04 #@! TD*
G04 #@! TA.AperFunction,ComponentPad*
%ADD12R,1.600000X1.600000*%
G04 #@! TD*
G04 #@! TA.AperFunction,ViaPad*
%ADD13C,0.800000*%
G04 #@! TD*
G04 #@! TA.AperFunction,Conductor*
%ADD14C,0.250000*%
G04 #@! TD*
G04 #@! TA.AperFunction,Conductor*
%ADD15C,0.254000*%
G04 #@! TD*
G04 #@! TA.AperFunction,Conductor*
%ADD16C,0.100000*%
G04 #@! TD*
G04 APERTURE END LIST*
D10*
X173275000Y-109850000D03*
X170735000Y-109850000D03*
X168195000Y-109850000D03*
X165655000Y-109850000D03*
X163115000Y-109850000D03*
X160575000Y-109850000D03*
X158035000Y-109850000D03*
X155495000Y-109850000D03*
X152955000Y-109850000D03*
X150415000Y-109850000D03*
X147875000Y-109850000D03*
X145335000Y-109850000D03*
X142795000Y-109850000D03*
X140255000Y-109850000D03*
X137715000Y-109850000D03*
X135175000Y-109850000D03*
X132635000Y-109850000D03*
X130095000Y-109850000D03*
X127555000Y-109850000D03*
X125015000Y-109850000D03*
X122475000Y-109850000D03*
X119935000Y-109850000D03*
X117395000Y-109850000D03*
X114855000Y-109850000D03*
D11*
X156500000Y-105000000D03*
X155250000Y-102500000D03*
X154000000Y-105000000D03*
X152750000Y-102500000D03*
X151500000Y-105000000D03*
X150250000Y-102500000D03*
X149000000Y-105000000D03*
X147750000Y-102500000D03*
X146500000Y-105000000D03*
X145250000Y-102500000D03*
X144000000Y-105000000D03*
X142750000Y-102500000D03*
X141500000Y-105000000D03*
X140250000Y-102500000D03*
X139000000Y-105000000D03*
X137750000Y-102500000D03*
X136500000Y-105000000D03*
X135250000Y-102500000D03*
X134000000Y-105000000D03*
X132750000Y-102500000D03*
X131500000Y-105000000D03*
X130250000Y-102500000D03*
X129000000Y-105000000D03*
X127750000Y-102500000D03*
X126500000Y-105000000D03*
X125250000Y-102500000D03*
X124000000Y-105000000D03*
X122750000Y-102500000D03*
X121500000Y-105000000D03*
X120250000Y-102500000D03*
X119000000Y-105000000D03*
D12*
X117750000Y-102500000D03*
D13*
X140250000Y-107250000D03*
X145145700Y-107245300D03*
X146622300Y-107483800D03*
X149194300Y-107443100D03*
X143062300Y-106309300D03*
X131261000Y-103589300D03*
X154225400Y-107470800D03*
X155440952Y-100649600D03*
X165650000Y-106488700D03*
X160190000Y-105486700D03*
X144160000Y-100648000D03*
X166900600Y-106475400D03*
X170000300Y-106488300D03*
X173275000Y-107213700D03*
D14*
X114855000Y-105395000D02*
X114855000Y-109850000D01*
X117750000Y-102500000D02*
X114855000Y-105395000D01*
X117395000Y-106605000D02*
X117395000Y-109850000D01*
X119000000Y-105000000D02*
X117395000Y-106605000D01*
X120250000Y-107209700D02*
X119935000Y-107524700D01*
X120250000Y-102500000D02*
X120250000Y-107209700D01*
X119935000Y-109850000D02*
X119935000Y-107524700D01*
X122475000Y-105975000D02*
X122475000Y-109850000D01*
X121500000Y-105000000D02*
X122475000Y-105975000D01*
X124933200Y-107524700D02*
X125015000Y-107524700D01*
X122750000Y-105341500D02*
X124933200Y-107524700D01*
X122750000Y-102500000D02*
X122750000Y-105341500D01*
X125015000Y-109850000D02*
X125015000Y-107524700D01*
X126524700Y-107524700D02*
X127555000Y-107524700D01*
X124000000Y-105000000D02*
X126524700Y-107524700D01*
X127555000Y-109850000D02*
X127555000Y-107524700D01*
X130095000Y-109138600D02*
X130095000Y-109850000D01*
X127081800Y-106125400D02*
X130095000Y-109138600D01*
X126009700Y-106125400D02*
X127081800Y-106125400D01*
X125250000Y-105365700D02*
X126009700Y-106125400D01*
X125250000Y-102500000D02*
X125250000Y-105365700D01*
X129118100Y-107524700D02*
X132635000Y-107524700D01*
X126593400Y-105000000D02*
X129118100Y-107524700D01*
X126500000Y-105000000D02*
X126593400Y-105000000D01*
X132635000Y-109850000D02*
X132635000Y-107524700D01*
X135175000Y-109850000D02*
X135175000Y-107524700D01*
X127750000Y-105353500D02*
X127750000Y-102500000D01*
X129470900Y-107074400D02*
X127750000Y-105353500D01*
X134724700Y-107074400D02*
X129470900Y-107074400D01*
X135175000Y-107524700D02*
X134724700Y-107074400D01*
X136766000Y-106575700D02*
X137715000Y-107524700D01*
X130575700Y-106575700D02*
X136766000Y-106575700D01*
X129000000Y-105000000D02*
X130575700Y-106575700D01*
X137715000Y-109850000D02*
X137715000Y-107524700D01*
X140250000Y-109845000D02*
X140255000Y-109850000D01*
X140250000Y-107250000D02*
X140250000Y-109845000D01*
X141395600Y-106125300D02*
X142795000Y-107524700D01*
X132625300Y-106125300D02*
X141395600Y-106125300D01*
X131500000Y-105000000D02*
X132625300Y-106125300D01*
X142795000Y-109850000D02*
X142795000Y-107524700D01*
X145335000Y-107434600D02*
X145145700Y-107245300D01*
X145335000Y-109850000D02*
X145335000Y-107434600D01*
X147875000Y-109850000D02*
X147875000Y-107524700D01*
X146663200Y-107524700D02*
X146622300Y-107483800D01*
X147875000Y-107524700D02*
X146663200Y-107524700D01*
X150415000Y-109850000D02*
X150415000Y-107524700D01*
X149275900Y-107524700D02*
X150415000Y-107524700D01*
X149194300Y-107443100D02*
X149275900Y-107524700D01*
X152955000Y-109850000D02*
X152955000Y-107524700D01*
X152189900Y-106759600D02*
X152955000Y-107524700D01*
X150063500Y-106759600D02*
X152189900Y-106759600D01*
X149613200Y-106309300D02*
X150063500Y-106759600D01*
X143062300Y-106309300D02*
X149613200Y-106309300D01*
X155495000Y-109850000D02*
X155495000Y-107524700D01*
X154279300Y-107524700D02*
X155495000Y-107524700D01*
X154225400Y-107470800D02*
X154279300Y-107524700D01*
X131320000Y-103648300D02*
X131261000Y-103589300D01*
X136601700Y-103648300D02*
X131320000Y-103648300D01*
X137750000Y-102500000D02*
X136601700Y-103648300D01*
X158035000Y-109850000D02*
X158035000Y-107524700D01*
X157158000Y-106647700D02*
X158035000Y-107524700D01*
X152963800Y-106647700D02*
X157158000Y-106647700D01*
X152513500Y-106197400D02*
X152963800Y-106647700D01*
X151069000Y-106197400D02*
X152513500Y-106197400D01*
X150250100Y-105378500D02*
X151069000Y-106197400D01*
X150250100Y-104613600D02*
X150250100Y-105378500D01*
X149494400Y-103857900D02*
X150250100Y-104613600D01*
X140142100Y-103857900D02*
X149494400Y-103857900D01*
X139000000Y-105000000D02*
X140142100Y-103857900D01*
X159211500Y-106161200D02*
X160575000Y-107524700D01*
X156041700Y-106161200D02*
X159211500Y-106161200D01*
X155285900Y-105405400D02*
X156041700Y-106161200D01*
X155285900Y-104649400D02*
X155285900Y-105405400D01*
X154386500Y-103750000D02*
X155285900Y-104649400D01*
X152353900Y-103750000D02*
X154386500Y-103750000D01*
X151500000Y-102896100D02*
X152353900Y-103750000D01*
X151500000Y-102089900D02*
X151500000Y-102896100D01*
X150783100Y-101373000D02*
X151500000Y-102089900D01*
X141377000Y-101373000D02*
X150783100Y-101373000D01*
X140250000Y-102500000D02*
X141377000Y-101373000D01*
X160575000Y-109850000D02*
X160575000Y-107524700D01*
X155440952Y-100649600D02*
X156469600Y-100649600D01*
X156469600Y-100649600D02*
X163115000Y-107295000D01*
X163115000Y-107295000D02*
X163115000Y-107524700D01*
X163115000Y-107524700D02*
X163115000Y-109850000D01*
X165655000Y-109850000D02*
X165655000Y-107705000D01*
X165655000Y-107705000D02*
X165655000Y-107524700D01*
X165650000Y-106488700D02*
X165650000Y-107700000D01*
X165650000Y-107700000D02*
X165655000Y-107705000D01*
X156077901Y-101374601D02*
X160190000Y-105486700D01*
X155092951Y-101374601D02*
X156077901Y-101374601D01*
X154638350Y-100920000D02*
X155092951Y-101374601D01*
X144432000Y-100920000D02*
X154638350Y-100920000D01*
X144160000Y-100648000D02*
X144432000Y-100920000D01*
X168195000Y-109850000D02*
X168195000Y-107524700D01*
X167949900Y-107524700D02*
X168195000Y-107524700D01*
X166900600Y-106475400D02*
X167949900Y-107524700D01*
X170735000Y-107223000D02*
X170735000Y-109850000D01*
X170000300Y-106488300D02*
X170735000Y-107223000D01*
X173275000Y-107213700D02*
X173275000Y-109850000D01*
D15*
X120385363Y-105914759D02*
X120585241Y-106114637D01*
X120820273Y-106271680D01*
X121081426Y-106379853D01*
X121358665Y-106435000D01*
X121641335Y-106435000D01*
X121715000Y-106420347D01*
X121715000Y-107211928D01*
X121713000Y-107211928D01*
X121588518Y-107224188D01*
X121468820Y-107260498D01*
X121358506Y-107319463D01*
X121261815Y-107398815D01*
X121205000Y-107468044D01*
X121148185Y-107398815D01*
X121051494Y-107319463D01*
X120941180Y-107260498D01*
X120821482Y-107224188D01*
X120697000Y-107211928D01*
X120220750Y-107215000D01*
X120062000Y-107373750D01*
X120062000Y-109723000D01*
X120082000Y-109723000D01*
X120082000Y-109977000D01*
X120062000Y-109977000D01*
X120062000Y-109997000D01*
X119808000Y-109997000D01*
X119808000Y-109977000D01*
X119788000Y-109977000D01*
X119788000Y-109723000D01*
X119808000Y-109723000D01*
X119808000Y-107373750D01*
X119649250Y-107215000D01*
X119173000Y-107211928D01*
X119048518Y-107224188D01*
X118928820Y-107260498D01*
X118818506Y-107319463D01*
X118721815Y-107398815D01*
X118665000Y-107468044D01*
X118608185Y-107398815D01*
X118511494Y-107319463D01*
X118401180Y-107260498D01*
X118281482Y-107224188D01*
X118157000Y-107211928D01*
X118155000Y-107211928D01*
X118155000Y-106919801D01*
X118676114Y-106398688D01*
X118858665Y-106435000D01*
X119141335Y-106435000D01*
X119418574Y-106379853D01*
X119679727Y-106271680D01*
X119914759Y-106114637D01*
X120114637Y-105914759D01*
X120250000Y-105712173D01*
X120385363Y-105914759D01*
G04 #@! TA.AperFunction,Conductor*
D16*
G36*
X120385363Y-105914759D02*
G01*
X120585241Y-106114637D01*
X120820273Y-106271680D01*
X121081426Y-106379853D01*
X121358665Y-106435000D01*
X121641335Y-106435000D01*
X121715000Y-106420347D01*
X121715000Y-107211928D01*
X121713000Y-107211928D01*
X121588518Y-107224188D01*
X121468820Y-107260498D01*
X121358506Y-107319463D01*
X121261815Y-107398815D01*
X121205000Y-107468044D01*
X121148185Y-107398815D01*
X121051494Y-107319463D01*
X120941180Y-107260498D01*
X120821482Y-107224188D01*
X120697000Y-107211928D01*
X120220750Y-107215000D01*
X120062000Y-107373750D01*
X120062000Y-109723000D01*
X120082000Y-109723000D01*
X120082000Y-109977000D01*
X120062000Y-109977000D01*
X120062000Y-109997000D01*
X119808000Y-109997000D01*
X119808000Y-109977000D01*
X119788000Y-109977000D01*
X119788000Y-109723000D01*
X119808000Y-109723000D01*
X119808000Y-107373750D01*
X119649250Y-107215000D01*
X119173000Y-107211928D01*
X119048518Y-107224188D01*
X118928820Y-107260498D01*
X118818506Y-107319463D01*
X118721815Y-107398815D01*
X118665000Y-107468044D01*
X118608185Y-107398815D01*
X118511494Y-107319463D01*
X118401180Y-107260498D01*
X118281482Y-107224188D01*
X118157000Y-107211928D01*
X118155000Y-107211928D01*
X118155000Y-106919801D01*
X118676114Y-106398688D01*
X118858665Y-106435000D01*
X119141335Y-106435000D01*
X119418574Y-106379853D01*
X119679727Y-106271680D01*
X119914759Y-106114637D01*
X120114637Y-105914759D01*
X120250000Y-105712173D01*
X120385363Y-105914759D01*
G37*
G04 #@! TD.AperFunction*
D15*
X143125000Y-100613000D02*
X141414325Y-100613000D01*
X141377000Y-100609324D01*
X141339675Y-100613000D01*
X141339667Y-100613000D01*
X141228014Y-100623997D01*
X141084753Y-100667454D01*
X140952724Y-100738026D01*
X140836999Y-100832999D01*
X140813201Y-100861997D01*
X140573886Y-101101312D01*
X140391335Y-101065000D01*
X140108665Y-101065000D01*
X139831426Y-101120147D01*
X139570273Y-101228320D01*
X139335241Y-101385363D01*
X139135363Y-101585241D01*
X139000000Y-101787827D01*
X138864637Y-101585241D01*
X138664759Y-101385363D01*
X138429727Y-101228320D01*
X138168574Y-101120147D01*
X137891335Y-101065000D01*
X137608665Y-101065000D01*
X137331426Y-101120147D01*
X137070273Y-101228320D01*
X136835241Y-101385363D01*
X136635363Y-101585241D01*
X136500000Y-101787827D01*
X136364637Y-101585241D01*
X136164759Y-101385363D01*
X135929727Y-101228320D01*
X135668574Y-101120147D01*
X135391335Y-101065000D01*
X135108665Y-101065000D01*
X134831426Y-101120147D01*
X134570273Y-101228320D01*
X134335241Y-101385363D01*
X134135363Y-101585241D01*
X134000000Y-101787827D01*
X133864637Y-101585241D01*
X133664759Y-101385363D01*
X133429727Y-101228320D01*
X133168574Y-101120147D01*
X132891335Y-101065000D01*
X132608665Y-101065000D01*
X132331426Y-101120147D01*
X132070273Y-101228320D01*
X131835241Y-101385363D01*
X131635363Y-101585241D01*
X131500000Y-101787827D01*
X131364637Y-101585241D01*
X131164759Y-101385363D01*
X130929727Y-101228320D01*
X130668574Y-101120147D01*
X130391335Y-101065000D01*
X130108665Y-101065000D01*
X129831426Y-101120147D01*
X129570273Y-101228320D01*
X129335241Y-101385363D01*
X129135363Y-101585241D01*
X129000000Y-101787827D01*
X128864637Y-101585241D01*
X128664759Y-101385363D01*
X128429727Y-101228320D01*
X128168574Y-101120147D01*
X127891335Y-101065000D01*
X127608665Y-101065000D01*
X127331426Y-101120147D01*
X127070273Y-101228320D01*
X126835241Y-101385363D01*
X126635363Y-101585241D01*
X126500000Y-101787827D01*
X126364637Y-101585241D01*
X126164759Y-101385363D01*
X125929727Y-101228320D01*
X125668574Y-101120147D01*
X125391335Y-101065000D01*
X125108665Y-101065000D01*
X124831426Y-101120147D01*
X124570273Y-101228320D01*
X124335241Y-101385363D01*
X124135363Y-101585241D01*
X124000000Y-101787827D01*
X123864637Y-101585241D01*
X123664759Y-101385363D01*
X123429727Y-101228320D01*
X123168574Y-101120147D01*
X122891335Y-101065000D01*
X122608665Y-101065000D01*
X122331426Y-101120147D01*
X122070273Y-101228320D01*
X121835241Y-101385363D01*
X121635363Y-101585241D01*
X121501308Y-101785869D01*
X121486671Y-101758486D01*
X121242702Y-101686903D01*
X120429605Y-102500000D01*
X121242702Y-103313097D01*
X121486671Y-103241514D01*
X121500324Y-103212659D01*
X121635363Y-103414759D01*
X121821427Y-103600823D01*
X121641335Y-103565000D01*
X121358665Y-103565000D01*
X121081426Y-103620147D01*
X121017994Y-103646421D01*
X121063097Y-103492702D01*
X120250000Y-102679605D01*
X119436903Y-103492702D01*
X119482006Y-103646421D01*
X119418574Y-103620147D01*
X119141335Y-103565000D01*
X119128373Y-103565000D01*
X119139502Y-103544180D01*
X119175812Y-103424482D01*
X119188072Y-103300000D01*
X119188072Y-103292785D01*
X119257298Y-103313097D01*
X120070395Y-102500000D01*
X119257298Y-101686903D01*
X119188072Y-101707215D01*
X119188072Y-101700000D01*
X119175812Y-101575518D01*
X119155118Y-101507298D01*
X119436903Y-101507298D01*
X120250000Y-102320395D01*
X121063097Y-101507298D01*
X120991514Y-101263329D01*
X120736004Y-101142429D01*
X120461816Y-101073700D01*
X120179488Y-101059783D01*
X119899870Y-101101213D01*
X119633708Y-101196397D01*
X119508486Y-101263329D01*
X119436903Y-101507298D01*
X119155118Y-101507298D01*
X119139502Y-101455820D01*
X119080537Y-101345506D01*
X119001185Y-101248815D01*
X118904494Y-101169463D01*
X118794180Y-101110498D01*
X118674482Y-101074188D01*
X118550000Y-101061928D01*
X116950000Y-101061928D01*
X116825518Y-101074188D01*
X116705820Y-101110498D01*
X116595506Y-101169463D01*
X116498815Y-101248815D01*
X116419463Y-101345506D01*
X116360498Y-101455820D01*
X116324188Y-101575518D01*
X116311928Y-101700000D01*
X116311928Y-102863270D01*
X114344003Y-104831196D01*
X114314999Y-104854999D01*
X114263933Y-104917224D01*
X114220026Y-104970724D01*
X114149455Y-105102753D01*
X114149454Y-105102754D01*
X114105997Y-105246015D01*
X114095000Y-105357668D01*
X114095000Y-105357678D01*
X114091324Y-105395000D01*
X114095000Y-105432323D01*
X114095000Y-107211928D01*
X114093000Y-107211928D01*
X113968518Y-107224188D01*
X113848820Y-107260498D01*
X113738506Y-107319463D01*
X113701790Y-107349595D01*
X113701790Y-101051908D01*
X113709505Y-100927027D01*
X113729195Y-100852159D01*
X113763049Y-100782546D01*
X113809785Y-100720829D01*
X113867614Y-100669368D01*
X113934342Y-100630118D01*
X114007416Y-100604577D01*
X114110290Y-100590000D01*
X143125000Y-100590000D01*
X143125000Y-100613000D01*
G04 #@! TA.AperFunction,Conductor*
D16*
G36*
X143125000Y-100613000D02*
G01*
X141414325Y-100613000D01*
X141377000Y-100609324D01*
X141339675Y-100613000D01*
X141339667Y-100613000D01*
X141228014Y-100623997D01*
X141084753Y-100667454D01*
X140952724Y-100738026D01*
X140836999Y-100832999D01*
X140813201Y-100861997D01*
X140573886Y-101101312D01*
X140391335Y-101065000D01*
X140108665Y-101065000D01*
X139831426Y-101120147D01*
X139570273Y-101228320D01*
X139335241Y-101385363D01*
X139135363Y-101585241D01*
X139000000Y-101787827D01*
X138864637Y-101585241D01*
X138664759Y-101385363D01*
X138429727Y-101228320D01*
X138168574Y-101120147D01*
X137891335Y-101065000D01*
X137608665Y-101065000D01*
X137331426Y-101120147D01*
X137070273Y-101228320D01*
X136835241Y-101385363D01*
X136635363Y-101585241D01*
X136500000Y-101787827D01*
X136364637Y-101585241D01*
X136164759Y-101385363D01*
X135929727Y-101228320D01*
X135668574Y-101120147D01*
X135391335Y-101065000D01*
X135108665Y-101065000D01*
X134831426Y-101120147D01*
X134570273Y-101228320D01*
X134335241Y-101385363D01*
X134135363Y-101585241D01*
X134000000Y-101787827D01*
X133864637Y-101585241D01*
X133664759Y-101385363D01*
X133429727Y-101228320D01*
X133168574Y-101120147D01*
X132891335Y-101065000D01*
X132608665Y-101065000D01*
X132331426Y-101120147D01*
X132070273Y-101228320D01*
X131835241Y-101385363D01*
X131635363Y-101585241D01*
X131500000Y-101787827D01*
X131364637Y-101585241D01*
X131164759Y-101385363D01*
X130929727Y-101228320D01*
X130668574Y-101120147D01*
X130391335Y-101065000D01*
X130108665Y-101065000D01*
X129831426Y-101120147D01*
X129570273Y-101228320D01*
X129335241Y-101385363D01*
X129135363Y-101585241D01*
X129000000Y-101787827D01*
X128864637Y-101585241D01*
X128664759Y-101385363D01*
X128429727Y-101228320D01*
X128168574Y-101120147D01*
X127891335Y-101065000D01*
X127608665Y-101065000D01*
X127331426Y-101120147D01*
X127070273Y-101228320D01*
X126835241Y-101385363D01*
X126635363Y-101585241D01*
X126500000Y-101787827D01*
X126364637Y-101585241D01*
X126164759Y-101385363D01*
X125929727Y-101228320D01*
X125668574Y-101120147D01*
X125391335Y-101065000D01*
X125108665Y-101065000D01*
X124831426Y-101120147D01*
X124570273Y-101228320D01*
X124335241Y-101385363D01*
X124135363Y-101585241D01*
X124000000Y-101787827D01*
X123864637Y-101585241D01*
X123664759Y-101385363D01*
X123429727Y-101228320D01*
X123168574Y-101120147D01*
X122891335Y-101065000D01*
X122608665Y-101065000D01*
X122331426Y-101120147D01*
X122070273Y-101228320D01*
X121835241Y-101385363D01*
X121635363Y-101585241D01*
X121501308Y-101785869D01*
X121486671Y-101758486D01*
X121242702Y-101686903D01*
X120429605Y-102500000D01*
X121242702Y-103313097D01*
X121486671Y-103241514D01*
X121500324Y-103212659D01*
X121635363Y-103414759D01*
X121821427Y-103600823D01*
X121641335Y-103565000D01*
X121358665Y-103565000D01*
X121081426Y-103620147D01*
X121017994Y-103646421D01*
X121063097Y-103492702D01*
X120250000Y-102679605D01*
X119436903Y-103492702D01*
X119482006Y-103646421D01*
X119418574Y-103620147D01*
X119141335Y-103565000D01*
X119128373Y-103565000D01*
X119139502Y-103544180D01*
X119175812Y-103424482D01*
X119188072Y-103300000D01*
X119188072Y-103292785D01*
X119257298Y-103313097D01*
X120070395Y-102500000D01*
X119257298Y-101686903D01*
X119188072Y-101707215D01*
X119188072Y-101700000D01*
X119175812Y-101575518D01*
X119155118Y-101507298D01*
X119436903Y-101507298D01*
X120250000Y-102320395D01*
X121063097Y-101507298D01*
X120991514Y-101263329D01*
X120736004Y-101142429D01*
X120461816Y-101073700D01*
X120179488Y-101059783D01*
X119899870Y-101101213D01*
X119633708Y-101196397D01*
X119508486Y-101263329D01*
X119436903Y-101507298D01*
X119155118Y-101507298D01*
X119139502Y-101455820D01*
X119080537Y-101345506D01*
X119001185Y-101248815D01*
X118904494Y-101169463D01*
X118794180Y-101110498D01*
X118674482Y-101074188D01*
X118550000Y-101061928D01*
X116950000Y-101061928D01*
X116825518Y-101074188D01*
X116705820Y-101110498D01*
X116595506Y-101169463D01*
X116498815Y-101248815D01*
X116419463Y-101345506D01*
X116360498Y-101455820D01*
X116324188Y-101575518D01*
X116311928Y-101700000D01*
X116311928Y-102863270D01*
X114344003Y-104831196D01*
X114314999Y-104854999D01*
X114263933Y-104917224D01*
X114220026Y-104970724D01*
X114149455Y-105102753D01*
X114149454Y-105102754D01*
X114105997Y-105246015D01*
X114095000Y-105357668D01*
X114095000Y-105357678D01*
X114091324Y-105395000D01*
X114095000Y-105432323D01*
X114095000Y-107211928D01*
X114093000Y-107211928D01*
X113968518Y-107224188D01*
X113848820Y-107260498D01*
X113738506Y-107319463D01*
X113701790Y-107349595D01*
X113701790Y-101051908D01*
X113709505Y-100927027D01*
X113729195Y-100852159D01*
X113763049Y-100782546D01*
X113809785Y-100720829D01*
X113867614Y-100669368D01*
X113934342Y-100630118D01*
X114007416Y-100604577D01*
X114110290Y-100590000D01*
X143125000Y-100590000D01*
X143125000Y-100613000D01*
G37*
G04 #@! TD.AperFunction*
M02*
