G04 #@! TF.GenerationSoftware,KiCad,Pcbnew,5.1.9+dfsg1-1*
G04 #@! TF.CreationDate,2022-03-13T19:21:44+01:00*
G04 #@! TF.ProjectId,KBD_ADAPTER_XE,4b42445f-4144-4415-9054-45525f58452e,1.0*
G04 #@! TF.SameCoordinates,Original*
G04 #@! TF.FileFunction,Legend,Top*
G04 #@! TF.FilePolarity,Positive*
%FSLAX46Y46*%
G04 Gerber Fmt 4.6, Leading zero omitted, Abs format (unit mm)*
G04 Created by KiCad (PCBNEW 5.1.9+dfsg1-1) date 2022-03-13 19:21:44*
%MOMM*%
%LPD*%
G01*
G04 APERTURE LIST*
%ADD10C,0.200000*%
%ADD11C,0.100000*%
%ADD12C,0.010000*%
%ADD13C,0.150000*%
G04 APERTURE END LIST*
D10*
X114628571Y-106561904D02*
X114171428Y-106561904D01*
X114400000Y-106561904D02*
X114400000Y-105761904D01*
X114323809Y-105876190D01*
X114247619Y-105952380D01*
X114171428Y-105990476D01*
X171500476Y-105988095D02*
X171538571Y-105950000D01*
X171614761Y-105911904D01*
X171805238Y-105911904D01*
X171881428Y-105950000D01*
X171919523Y-105988095D01*
X171957619Y-106064285D01*
X171957619Y-106140476D01*
X171919523Y-106254761D01*
X171462380Y-106711904D01*
X171957619Y-106711904D01*
X172643333Y-106178571D02*
X172643333Y-106711904D01*
X172452857Y-105873809D02*
X172262380Y-106445238D01*
X172757619Y-106445238D01*
D11*
X113780000Y-101129285D02*
X113780000Y-100629285D01*
X113780000Y-100379285D02*
X113744285Y-100415000D01*
X113780000Y-100450714D01*
X113815714Y-100415000D01*
X113780000Y-100379285D01*
X113780000Y-100450714D01*
X114137142Y-100629285D02*
X114137142Y-101129285D01*
X114137142Y-100700714D02*
X114172857Y-100665000D01*
X114244285Y-100629285D01*
X114351428Y-100629285D01*
X114422857Y-100665000D01*
X114458571Y-100736428D01*
X114458571Y-101129285D01*
X115387142Y-101129285D02*
X115387142Y-100629285D01*
X115387142Y-100700714D02*
X115422857Y-100665000D01*
X115494285Y-100629285D01*
X115601428Y-100629285D01*
X115672857Y-100665000D01*
X115708571Y-100736428D01*
X115708571Y-101129285D01*
X115708571Y-100736428D02*
X115744285Y-100665000D01*
X115815714Y-100629285D01*
X115922857Y-100629285D01*
X115994285Y-100665000D01*
X116030000Y-100736428D01*
X116030000Y-101129285D01*
X116672857Y-101093571D02*
X116601428Y-101129285D01*
X116458571Y-101129285D01*
X116387142Y-101093571D01*
X116351428Y-101022142D01*
X116351428Y-100736428D01*
X116387142Y-100665000D01*
X116458571Y-100629285D01*
X116601428Y-100629285D01*
X116672857Y-100665000D01*
X116708571Y-100736428D01*
X116708571Y-100807857D01*
X116351428Y-100879285D01*
X117030000Y-101129285D02*
X117030000Y-100629285D01*
X117030000Y-100700714D02*
X117065714Y-100665000D01*
X117137142Y-100629285D01*
X117244285Y-100629285D01*
X117315714Y-100665000D01*
X117351428Y-100736428D01*
X117351428Y-101129285D01*
X117351428Y-100736428D02*
X117387142Y-100665000D01*
X117458571Y-100629285D01*
X117565714Y-100629285D01*
X117637142Y-100665000D01*
X117672857Y-100736428D01*
X117672857Y-101129285D01*
X118137142Y-101129285D02*
X118065714Y-101093571D01*
X118030000Y-101057857D01*
X117994285Y-100986428D01*
X117994285Y-100772142D01*
X118030000Y-100700714D01*
X118065714Y-100665000D01*
X118137142Y-100629285D01*
X118244285Y-100629285D01*
X118315714Y-100665000D01*
X118351428Y-100700714D01*
X118387142Y-100772142D01*
X118387142Y-100986428D01*
X118351428Y-101057857D01*
X118315714Y-101093571D01*
X118244285Y-101129285D01*
X118137142Y-101129285D01*
X118708571Y-101129285D02*
X118708571Y-100629285D01*
X118708571Y-100772142D02*
X118744285Y-100700714D01*
X118780000Y-100665000D01*
X118851428Y-100629285D01*
X118922857Y-100629285D01*
X119172857Y-101129285D02*
X119172857Y-100629285D01*
X119172857Y-100379285D02*
X119137142Y-100415000D01*
X119172857Y-100450714D01*
X119208571Y-100415000D01*
X119172857Y-100379285D01*
X119172857Y-100450714D01*
X119851428Y-101129285D02*
X119851428Y-100736428D01*
X119815714Y-100665000D01*
X119744285Y-100629285D01*
X119601428Y-100629285D01*
X119530000Y-100665000D01*
X119851428Y-101093571D02*
X119780000Y-101129285D01*
X119601428Y-101129285D01*
X119530000Y-101093571D01*
X119494285Y-101022142D01*
X119494285Y-100950714D01*
X119530000Y-100879285D01*
X119601428Y-100843571D01*
X119780000Y-100843571D01*
X119851428Y-100807857D01*
X120208571Y-101129285D02*
X120208571Y-100629285D01*
X120208571Y-100700714D02*
X120244285Y-100665000D01*
X120315714Y-100629285D01*
X120422857Y-100629285D01*
X120494285Y-100665000D01*
X120530000Y-100736428D01*
X120530000Y-101129285D01*
X120530000Y-100736428D02*
X120565714Y-100665000D01*
X120637142Y-100629285D01*
X120744285Y-100629285D01*
X120815714Y-100665000D01*
X120851428Y-100736428D01*
X120851428Y-101129285D01*
X121744285Y-100915000D02*
X122101428Y-100915000D01*
X121672857Y-101129285D02*
X121922857Y-100379285D01*
X122172857Y-101129285D01*
X122422857Y-101057857D02*
X122458571Y-101093571D01*
X122422857Y-101129285D01*
X122387142Y-101093571D01*
X122422857Y-101057857D01*
X122422857Y-101129285D01*
X122744285Y-101093571D02*
X122851428Y-101129285D01*
X123030000Y-101129285D01*
X123101428Y-101093571D01*
X123137142Y-101057857D01*
X123172857Y-100986428D01*
X123172857Y-100915000D01*
X123137142Y-100843571D01*
X123101428Y-100807857D01*
X123030000Y-100772142D01*
X122887142Y-100736428D01*
X122815714Y-100700714D01*
X122780000Y-100665000D01*
X122744285Y-100593571D01*
X122744285Y-100522142D01*
X122780000Y-100450714D01*
X122815714Y-100415000D01*
X122887142Y-100379285D01*
X123065714Y-100379285D01*
X123172857Y-100415000D01*
X123494285Y-101057857D02*
X123530000Y-101093571D01*
X123494285Y-101129285D01*
X123458571Y-101093571D01*
X123494285Y-101057857D01*
X123494285Y-101129285D01*
X124422857Y-100843571D02*
X124994285Y-100843571D01*
X126315714Y-100415000D02*
X126244285Y-100379285D01*
X126137142Y-100379285D01*
X126030000Y-100415000D01*
X125958571Y-100486428D01*
X125922857Y-100557857D01*
X125887142Y-100700714D01*
X125887142Y-100807857D01*
X125922857Y-100950714D01*
X125958571Y-101022142D01*
X126030000Y-101093571D01*
X126137142Y-101129285D01*
X126208571Y-101129285D01*
X126315714Y-101093571D01*
X126351428Y-101057857D01*
X126351428Y-100807857D01*
X126208571Y-100807857D01*
X126672857Y-101057857D02*
X126708571Y-101093571D01*
X126672857Y-101129285D01*
X126637142Y-101093571D01*
X126672857Y-101057857D01*
X126672857Y-101129285D01*
X127030000Y-101129285D02*
X127030000Y-100379285D01*
X127208571Y-100379285D01*
X127315714Y-100415000D01*
X127387142Y-100486428D01*
X127422857Y-100557857D01*
X127458571Y-100700714D01*
X127458571Y-100807857D01*
X127422857Y-100950714D01*
X127387142Y-101022142D01*
X127315714Y-101093571D01*
X127208571Y-101129285D01*
X127030000Y-101129285D01*
X127780000Y-101057857D02*
X127815714Y-101093571D01*
X127780000Y-101129285D01*
X127744285Y-101093571D01*
X127780000Y-101057857D01*
X127780000Y-101129285D01*
D12*
G36*
X158599744Y-105919918D02*
G01*
X158655201Y-105947568D01*
X158704148Y-105998480D01*
X158717629Y-106017338D01*
X158732314Y-106042015D01*
X158741842Y-106068816D01*
X158747293Y-106104587D01*
X158749747Y-106156169D01*
X158750286Y-106224267D01*
X158747852Y-106317588D01*
X158739394Y-106387657D01*
X158723174Y-106439931D01*
X158697454Y-106479869D01*
X158660497Y-106512929D01*
X158657782Y-106514886D01*
X158621360Y-106534908D01*
X158577502Y-106544815D01*
X158521724Y-106547257D01*
X158431048Y-106547257D01*
X158431010Y-106635283D01*
X158430166Y-106684308D01*
X158425024Y-106713065D01*
X158411587Y-106730311D01*
X158385858Y-106744808D01*
X158379679Y-106747769D01*
X158350764Y-106761648D01*
X158328376Y-106770414D01*
X158311729Y-106771171D01*
X158300036Y-106761023D01*
X158292510Y-106737073D01*
X158288366Y-106696426D01*
X158286815Y-106636186D01*
X158287071Y-106553455D01*
X158288349Y-106445339D01*
X158288748Y-106413000D01*
X158290185Y-106301524D01*
X158291472Y-106228603D01*
X158430971Y-106228603D01*
X158431755Y-106290499D01*
X158435240Y-106330997D01*
X158443124Y-106357708D01*
X158457105Y-106378244D01*
X158466597Y-106388260D01*
X158505404Y-106417567D01*
X158539763Y-106419952D01*
X158575216Y-106395750D01*
X158576114Y-106394857D01*
X158590539Y-106376153D01*
X158599313Y-106350732D01*
X158603739Y-106311584D01*
X158605118Y-106251697D01*
X158605143Y-106238430D01*
X158601812Y-106155901D01*
X158590969Y-106098691D01*
X158571340Y-106063766D01*
X158541650Y-106048094D01*
X158524491Y-106046514D01*
X158483766Y-106053926D01*
X158455832Y-106078330D01*
X158439017Y-106122980D01*
X158431650Y-106191130D01*
X158430971Y-106228603D01*
X158291472Y-106228603D01*
X158291708Y-106215245D01*
X158293677Y-106150333D01*
X158296450Y-106102958D01*
X158300388Y-106069290D01*
X158305849Y-106045498D01*
X158313192Y-106027753D01*
X158322777Y-106012224D01*
X158326887Y-106006381D01*
X158381405Y-105951185D01*
X158450336Y-105919890D01*
X158530072Y-105911165D01*
X158599744Y-105919918D01*
G37*
X158599744Y-105919918D02*
X158655201Y-105947568D01*
X158704148Y-105998480D01*
X158717629Y-106017338D01*
X158732314Y-106042015D01*
X158741842Y-106068816D01*
X158747293Y-106104587D01*
X158749747Y-106156169D01*
X158750286Y-106224267D01*
X158747852Y-106317588D01*
X158739394Y-106387657D01*
X158723174Y-106439931D01*
X158697454Y-106479869D01*
X158660497Y-106512929D01*
X158657782Y-106514886D01*
X158621360Y-106534908D01*
X158577502Y-106544815D01*
X158521724Y-106547257D01*
X158431048Y-106547257D01*
X158431010Y-106635283D01*
X158430166Y-106684308D01*
X158425024Y-106713065D01*
X158411587Y-106730311D01*
X158385858Y-106744808D01*
X158379679Y-106747769D01*
X158350764Y-106761648D01*
X158328376Y-106770414D01*
X158311729Y-106771171D01*
X158300036Y-106761023D01*
X158292510Y-106737073D01*
X158288366Y-106696426D01*
X158286815Y-106636186D01*
X158287071Y-106553455D01*
X158288349Y-106445339D01*
X158288748Y-106413000D01*
X158290185Y-106301524D01*
X158291472Y-106228603D01*
X158430971Y-106228603D01*
X158431755Y-106290499D01*
X158435240Y-106330997D01*
X158443124Y-106357708D01*
X158457105Y-106378244D01*
X158466597Y-106388260D01*
X158505404Y-106417567D01*
X158539763Y-106419952D01*
X158575216Y-106395750D01*
X158576114Y-106394857D01*
X158590539Y-106376153D01*
X158599313Y-106350732D01*
X158603739Y-106311584D01*
X158605118Y-106251697D01*
X158605143Y-106238430D01*
X158601812Y-106155901D01*
X158590969Y-106098691D01*
X158571340Y-106063766D01*
X158541650Y-106048094D01*
X158524491Y-106046514D01*
X158483766Y-106053926D01*
X158455832Y-106078330D01*
X158439017Y-106122980D01*
X158431650Y-106191130D01*
X158430971Y-106228603D01*
X158291472Y-106228603D01*
X158291708Y-106215245D01*
X158293677Y-106150333D01*
X158296450Y-106102958D01*
X158300388Y-106069290D01*
X158305849Y-106045498D01*
X158313192Y-106027753D01*
X158322777Y-106012224D01*
X158326887Y-106006381D01*
X158381405Y-105951185D01*
X158450336Y-105919890D01*
X158530072Y-105911165D01*
X158599744Y-105919918D01*
G36*
X159716093Y-105927780D02*
G01*
X159762672Y-105954723D01*
X159795057Y-105981466D01*
X159818742Y-106009484D01*
X159835059Y-106043748D01*
X159845339Y-106089227D01*
X159850914Y-106150892D01*
X159853116Y-106233711D01*
X159853371Y-106293246D01*
X159853371Y-106512391D01*
X159791686Y-106540044D01*
X159730000Y-106567697D01*
X159722743Y-106327670D01*
X159719744Y-106238028D01*
X159716598Y-106172962D01*
X159712701Y-106128026D01*
X159707447Y-106098770D01*
X159700231Y-106080748D01*
X159690450Y-106069511D01*
X159687312Y-106067079D01*
X159639761Y-106048083D01*
X159591697Y-106055600D01*
X159563086Y-106075543D01*
X159551447Y-106089675D01*
X159543391Y-106108220D01*
X159538271Y-106136334D01*
X159535441Y-106179173D01*
X159534256Y-106241895D01*
X159534057Y-106307261D01*
X159534018Y-106389268D01*
X159532614Y-106447316D01*
X159527914Y-106486465D01*
X159517987Y-106511780D01*
X159500903Y-106528323D01*
X159474732Y-106541156D01*
X159439775Y-106554491D01*
X159401596Y-106569007D01*
X159406141Y-106311389D01*
X159407971Y-106218519D01*
X159410112Y-106149889D01*
X159413181Y-106100711D01*
X159417794Y-106066198D01*
X159424568Y-106041562D01*
X159434119Y-106022016D01*
X159445634Y-106004770D01*
X159501190Y-105949680D01*
X159568980Y-105917822D01*
X159642713Y-105910191D01*
X159716093Y-105927780D01*
G37*
X159716093Y-105927780D02*
X159762672Y-105954723D01*
X159795057Y-105981466D01*
X159818742Y-106009484D01*
X159835059Y-106043748D01*
X159845339Y-106089227D01*
X159850914Y-106150892D01*
X159853116Y-106233711D01*
X159853371Y-106293246D01*
X159853371Y-106512391D01*
X159791686Y-106540044D01*
X159730000Y-106567697D01*
X159722743Y-106327670D01*
X159719744Y-106238028D01*
X159716598Y-106172962D01*
X159712701Y-106128026D01*
X159707447Y-106098770D01*
X159700231Y-106080748D01*
X159690450Y-106069511D01*
X159687312Y-106067079D01*
X159639761Y-106048083D01*
X159591697Y-106055600D01*
X159563086Y-106075543D01*
X159551447Y-106089675D01*
X159543391Y-106108220D01*
X159538271Y-106136334D01*
X159535441Y-106179173D01*
X159534256Y-106241895D01*
X159534057Y-106307261D01*
X159534018Y-106389268D01*
X159532614Y-106447316D01*
X159527914Y-106486465D01*
X159517987Y-106511780D01*
X159500903Y-106528323D01*
X159474732Y-106541156D01*
X159439775Y-106554491D01*
X159401596Y-106569007D01*
X159406141Y-106311389D01*
X159407971Y-106218519D01*
X159410112Y-106149889D01*
X159413181Y-106100711D01*
X159417794Y-106066198D01*
X159424568Y-106041562D01*
X159434119Y-106022016D01*
X159445634Y-106004770D01*
X159501190Y-105949680D01*
X159568980Y-105917822D01*
X159642713Y-105910191D01*
X159716093Y-105927780D01*
G36*
X158041115Y-105921962D02*
G01*
X158109145Y-105957733D01*
X158159351Y-106015301D01*
X158177185Y-106052312D01*
X158191063Y-106107882D01*
X158198167Y-106178096D01*
X158198840Y-106254727D01*
X158193427Y-106329552D01*
X158182270Y-106394342D01*
X158165714Y-106440873D01*
X158160626Y-106448887D01*
X158100355Y-106508707D01*
X158028769Y-106544535D01*
X157951092Y-106555020D01*
X157872548Y-106538810D01*
X157850689Y-106529092D01*
X157808122Y-106499143D01*
X157770763Y-106459433D01*
X157767232Y-106454397D01*
X157752881Y-106430124D01*
X157743394Y-106404178D01*
X157737790Y-106370022D01*
X157735086Y-106321119D01*
X157734299Y-106250935D01*
X157734286Y-106235200D01*
X157734322Y-106230192D01*
X157879429Y-106230192D01*
X157880273Y-106296430D01*
X157883596Y-106340386D01*
X157890583Y-106368779D01*
X157902416Y-106388325D01*
X157908457Y-106394857D01*
X157943186Y-106419680D01*
X157976903Y-106418548D01*
X158010995Y-106397016D01*
X158031329Y-106374029D01*
X158043371Y-106340478D01*
X158050134Y-106287569D01*
X158050598Y-106281399D01*
X158051752Y-106185513D01*
X158039688Y-106114299D01*
X158014570Y-106068194D01*
X157976560Y-106047635D01*
X157962992Y-106046514D01*
X157927364Y-106052152D01*
X157902994Y-106071686D01*
X157888093Y-106109042D01*
X157880875Y-106168150D01*
X157879429Y-106230192D01*
X157734322Y-106230192D01*
X157734826Y-106160413D01*
X157737096Y-106108159D01*
X157742068Y-106071949D01*
X157750713Y-106045299D01*
X157764005Y-106021722D01*
X157766943Y-106017338D01*
X157816313Y-105958249D01*
X157870109Y-105923947D01*
X157935602Y-105910331D01*
X157957842Y-105909665D01*
X158041115Y-105921962D01*
G37*
X158041115Y-105921962D02*
X158109145Y-105957733D01*
X158159351Y-106015301D01*
X158177185Y-106052312D01*
X158191063Y-106107882D01*
X158198167Y-106178096D01*
X158198840Y-106254727D01*
X158193427Y-106329552D01*
X158182270Y-106394342D01*
X158165714Y-106440873D01*
X158160626Y-106448887D01*
X158100355Y-106508707D01*
X158028769Y-106544535D01*
X157951092Y-106555020D01*
X157872548Y-106538810D01*
X157850689Y-106529092D01*
X157808122Y-106499143D01*
X157770763Y-106459433D01*
X157767232Y-106454397D01*
X157752881Y-106430124D01*
X157743394Y-106404178D01*
X157737790Y-106370022D01*
X157735086Y-106321119D01*
X157734299Y-106250935D01*
X157734286Y-106235200D01*
X157734322Y-106230192D01*
X157879429Y-106230192D01*
X157880273Y-106296430D01*
X157883596Y-106340386D01*
X157890583Y-106368779D01*
X157902416Y-106388325D01*
X157908457Y-106394857D01*
X157943186Y-106419680D01*
X157976903Y-106418548D01*
X158010995Y-106397016D01*
X158031329Y-106374029D01*
X158043371Y-106340478D01*
X158050134Y-106287569D01*
X158050598Y-106281399D01*
X158051752Y-106185513D01*
X158039688Y-106114299D01*
X158014570Y-106068194D01*
X157976560Y-106047635D01*
X157962992Y-106046514D01*
X157927364Y-106052152D01*
X157902994Y-106071686D01*
X157888093Y-106109042D01*
X157880875Y-106168150D01*
X157879429Y-106230192D01*
X157734322Y-106230192D01*
X157734826Y-106160413D01*
X157737096Y-106108159D01*
X157742068Y-106071949D01*
X157750713Y-106045299D01*
X157764005Y-106021722D01*
X157766943Y-106017338D01*
X157816313Y-105958249D01*
X157870109Y-105923947D01*
X157935602Y-105910331D01*
X157957842Y-105909665D01*
X158041115Y-105921962D01*
G36*
X159168303Y-105931239D02*
G01*
X159225527Y-105969735D01*
X159269749Y-106025335D01*
X159296167Y-106096086D01*
X159301510Y-106148162D01*
X159300903Y-106169893D01*
X159295822Y-106186531D01*
X159281855Y-106201437D01*
X159254589Y-106217973D01*
X159209612Y-106239498D01*
X159142511Y-106269374D01*
X159142171Y-106269524D01*
X159080407Y-106297813D01*
X159029759Y-106322933D01*
X158995404Y-106342179D01*
X158982518Y-106352848D01*
X158982514Y-106352934D01*
X158993872Y-106376166D01*
X159020431Y-106401774D01*
X159050923Y-106420221D01*
X159066370Y-106423886D01*
X159108515Y-106411212D01*
X159144808Y-106379471D01*
X159162517Y-106344572D01*
X159179552Y-106318845D01*
X159212922Y-106289546D01*
X159252149Y-106264235D01*
X159286756Y-106250471D01*
X159293993Y-106249714D01*
X159302139Y-106262160D01*
X159302630Y-106293972D01*
X159296643Y-106336866D01*
X159285357Y-106382558D01*
X159269950Y-106422761D01*
X159269171Y-106424322D01*
X159222804Y-106489062D01*
X159162711Y-106533097D01*
X159094465Y-106554711D01*
X159023638Y-106552185D01*
X158955804Y-106523804D01*
X158952788Y-106521808D01*
X158899427Y-106473448D01*
X158864340Y-106410352D01*
X158844922Y-106327387D01*
X158842316Y-106304078D01*
X158837701Y-106194055D01*
X158843233Y-106142748D01*
X158982514Y-106142748D01*
X158984324Y-106174753D01*
X158994222Y-106184093D01*
X159018898Y-106177105D01*
X159057795Y-106160587D01*
X159101275Y-106139881D01*
X159102356Y-106139333D01*
X159139209Y-106119949D01*
X159154000Y-106107013D01*
X159150353Y-106093451D01*
X159134995Y-106075632D01*
X159095923Y-106049845D01*
X159053846Y-106047950D01*
X159016103Y-106066717D01*
X158990034Y-106102915D01*
X158982514Y-106142748D01*
X158843233Y-106142748D01*
X158847194Y-106106027D01*
X158871550Y-106036212D01*
X158905456Y-105987302D01*
X158966653Y-105937878D01*
X159034063Y-105913359D01*
X159102880Y-105911797D01*
X159168303Y-105931239D01*
G37*
X159168303Y-105931239D02*
X159225527Y-105969735D01*
X159269749Y-106025335D01*
X159296167Y-106096086D01*
X159301510Y-106148162D01*
X159300903Y-106169893D01*
X159295822Y-106186531D01*
X159281855Y-106201437D01*
X159254589Y-106217973D01*
X159209612Y-106239498D01*
X159142511Y-106269374D01*
X159142171Y-106269524D01*
X159080407Y-106297813D01*
X159029759Y-106322933D01*
X158995404Y-106342179D01*
X158982518Y-106352848D01*
X158982514Y-106352934D01*
X158993872Y-106376166D01*
X159020431Y-106401774D01*
X159050923Y-106420221D01*
X159066370Y-106423886D01*
X159108515Y-106411212D01*
X159144808Y-106379471D01*
X159162517Y-106344572D01*
X159179552Y-106318845D01*
X159212922Y-106289546D01*
X159252149Y-106264235D01*
X159286756Y-106250471D01*
X159293993Y-106249714D01*
X159302139Y-106262160D01*
X159302630Y-106293972D01*
X159296643Y-106336866D01*
X159285357Y-106382558D01*
X159269950Y-106422761D01*
X159269171Y-106424322D01*
X159222804Y-106489062D01*
X159162711Y-106533097D01*
X159094465Y-106554711D01*
X159023638Y-106552185D01*
X158955804Y-106523804D01*
X158952788Y-106521808D01*
X158899427Y-106473448D01*
X158864340Y-106410352D01*
X158844922Y-106327387D01*
X158842316Y-106304078D01*
X158837701Y-106194055D01*
X158843233Y-106142748D01*
X158982514Y-106142748D01*
X158984324Y-106174753D01*
X158994222Y-106184093D01*
X159018898Y-106177105D01*
X159057795Y-106160587D01*
X159101275Y-106139881D01*
X159102356Y-106139333D01*
X159139209Y-106119949D01*
X159154000Y-106107013D01*
X159150353Y-106093451D01*
X159134995Y-106075632D01*
X159095923Y-106049845D01*
X159053846Y-106047950D01*
X159016103Y-106066717D01*
X158990034Y-106102915D01*
X158982514Y-106142748D01*
X158843233Y-106142748D01*
X158847194Y-106106027D01*
X158871550Y-106036212D01*
X158905456Y-105987302D01*
X158966653Y-105937878D01*
X159034063Y-105913359D01*
X159102880Y-105911797D01*
X159168303Y-105931239D01*
G36*
X160375886Y-105851289D02*
G01*
X160380139Y-105910613D01*
X160385025Y-105945572D01*
X160391795Y-105960820D01*
X160401702Y-105961015D01*
X160404914Y-105959195D01*
X160447644Y-105946015D01*
X160503227Y-105946785D01*
X160559737Y-105960333D01*
X160595082Y-105977861D01*
X160631321Y-106005861D01*
X160657813Y-106037549D01*
X160675999Y-106077813D01*
X160687322Y-106131543D01*
X160693222Y-106203626D01*
X160695143Y-106298951D01*
X160695177Y-106317237D01*
X160695200Y-106522646D01*
X160649491Y-106538580D01*
X160617027Y-106549420D01*
X160599215Y-106554468D01*
X160598691Y-106554514D01*
X160596937Y-106540828D01*
X160595444Y-106503076D01*
X160594326Y-106446224D01*
X160593697Y-106375234D01*
X160593600Y-106332073D01*
X160593398Y-106246973D01*
X160592358Y-106185981D01*
X160589831Y-106144177D01*
X160585164Y-106116642D01*
X160577707Y-106098456D01*
X160566811Y-106084698D01*
X160560007Y-106078073D01*
X160513272Y-106051375D01*
X160462272Y-106049375D01*
X160416001Y-106071955D01*
X160407444Y-106080107D01*
X160394893Y-106095436D01*
X160386188Y-106113618D01*
X160380631Y-106139909D01*
X160377526Y-106179562D01*
X160376176Y-106237832D01*
X160375886Y-106318173D01*
X160375886Y-106522646D01*
X160330177Y-106538580D01*
X160297713Y-106549420D01*
X160279901Y-106554468D01*
X160279377Y-106554514D01*
X160278037Y-106540623D01*
X160276828Y-106501439D01*
X160275801Y-106440700D01*
X160275002Y-106362141D01*
X160274481Y-106269498D01*
X160274286Y-106166509D01*
X160274286Y-105769342D01*
X160321457Y-105749444D01*
X160368629Y-105729547D01*
X160375886Y-105851289D01*
G37*
X160375886Y-105851289D02*
X160380139Y-105910613D01*
X160385025Y-105945572D01*
X160391795Y-105960820D01*
X160401702Y-105961015D01*
X160404914Y-105959195D01*
X160447644Y-105946015D01*
X160503227Y-105946785D01*
X160559737Y-105960333D01*
X160595082Y-105977861D01*
X160631321Y-106005861D01*
X160657813Y-106037549D01*
X160675999Y-106077813D01*
X160687322Y-106131543D01*
X160693222Y-106203626D01*
X160695143Y-106298951D01*
X160695177Y-106317237D01*
X160695200Y-106522646D01*
X160649491Y-106538580D01*
X160617027Y-106549420D01*
X160599215Y-106554468D01*
X160598691Y-106554514D01*
X160596937Y-106540828D01*
X160595444Y-106503076D01*
X160594326Y-106446224D01*
X160593697Y-106375234D01*
X160593600Y-106332073D01*
X160593398Y-106246973D01*
X160592358Y-106185981D01*
X160589831Y-106144177D01*
X160585164Y-106116642D01*
X160577707Y-106098456D01*
X160566811Y-106084698D01*
X160560007Y-106078073D01*
X160513272Y-106051375D01*
X160462272Y-106049375D01*
X160416001Y-106071955D01*
X160407444Y-106080107D01*
X160394893Y-106095436D01*
X160386188Y-106113618D01*
X160380631Y-106139909D01*
X160377526Y-106179562D01*
X160376176Y-106237832D01*
X160375886Y-106318173D01*
X160375886Y-106522646D01*
X160330177Y-106538580D01*
X160297713Y-106549420D01*
X160279901Y-106554468D01*
X160279377Y-106554514D01*
X160278037Y-106540623D01*
X160276828Y-106501439D01*
X160275801Y-106440700D01*
X160275002Y-106362141D01*
X160274481Y-106269498D01*
X160274286Y-106166509D01*
X160274286Y-105769342D01*
X160321457Y-105749444D01*
X160368629Y-105729547D01*
X160375886Y-105851289D01*
G36*
X161039744Y-105950968D02*
G01*
X161096616Y-105972087D01*
X161097267Y-105972493D01*
X161132440Y-105998380D01*
X161158407Y-106028633D01*
X161176670Y-106068058D01*
X161188732Y-106121462D01*
X161196096Y-106193651D01*
X161200264Y-106289432D01*
X161200629Y-106303078D01*
X161205876Y-106508842D01*
X161161716Y-106531678D01*
X161129763Y-106547110D01*
X161110470Y-106554423D01*
X161109578Y-106554514D01*
X161106239Y-106541022D01*
X161103587Y-106504626D01*
X161101956Y-106451452D01*
X161101600Y-106408393D01*
X161101592Y-106338641D01*
X161098403Y-106294837D01*
X161087288Y-106273944D01*
X161063501Y-106272925D01*
X161022296Y-106288741D01*
X160960086Y-106317815D01*
X160914341Y-106341963D01*
X160890813Y-106362913D01*
X160883896Y-106385747D01*
X160883886Y-106386877D01*
X160895299Y-106426212D01*
X160929092Y-106447462D01*
X160980809Y-106450539D01*
X161018061Y-106450006D01*
X161037703Y-106460735D01*
X161049952Y-106486505D01*
X161057002Y-106519337D01*
X161046842Y-106537966D01*
X161043017Y-106540632D01*
X161007001Y-106551340D01*
X160956566Y-106552856D01*
X160904626Y-106545759D01*
X160867822Y-106532788D01*
X160816938Y-106489585D01*
X160788014Y-106429446D01*
X160782286Y-106382462D01*
X160786657Y-106340082D01*
X160802475Y-106305488D01*
X160833797Y-106274763D01*
X160884678Y-106243990D01*
X160959176Y-106209252D01*
X160963714Y-106207288D01*
X161030821Y-106176287D01*
X161072232Y-106150862D01*
X161089981Y-106128014D01*
X161086107Y-106104745D01*
X161062643Y-106078056D01*
X161055627Y-106071914D01*
X161008630Y-106048100D01*
X160959933Y-106049103D01*
X160917522Y-106072451D01*
X160889384Y-106115675D01*
X160886769Y-106124160D01*
X160861308Y-106165308D01*
X160829001Y-106185128D01*
X160782286Y-106204770D01*
X160782286Y-106153950D01*
X160796496Y-106080082D01*
X160838675Y-106012327D01*
X160860624Y-105989661D01*
X160910517Y-105960569D01*
X160973967Y-105947400D01*
X161039744Y-105950968D01*
G37*
X161039744Y-105950968D02*
X161096616Y-105972087D01*
X161097267Y-105972493D01*
X161132440Y-105998380D01*
X161158407Y-106028633D01*
X161176670Y-106068058D01*
X161188732Y-106121462D01*
X161196096Y-106193651D01*
X161200264Y-106289432D01*
X161200629Y-106303078D01*
X161205876Y-106508842D01*
X161161716Y-106531678D01*
X161129763Y-106547110D01*
X161110470Y-106554423D01*
X161109578Y-106554514D01*
X161106239Y-106541022D01*
X161103587Y-106504626D01*
X161101956Y-106451452D01*
X161101600Y-106408393D01*
X161101592Y-106338641D01*
X161098403Y-106294837D01*
X161087288Y-106273944D01*
X161063501Y-106272925D01*
X161022296Y-106288741D01*
X160960086Y-106317815D01*
X160914341Y-106341963D01*
X160890813Y-106362913D01*
X160883896Y-106385747D01*
X160883886Y-106386877D01*
X160895299Y-106426212D01*
X160929092Y-106447462D01*
X160980809Y-106450539D01*
X161018061Y-106450006D01*
X161037703Y-106460735D01*
X161049952Y-106486505D01*
X161057002Y-106519337D01*
X161046842Y-106537966D01*
X161043017Y-106540632D01*
X161007001Y-106551340D01*
X160956566Y-106552856D01*
X160904626Y-106545759D01*
X160867822Y-106532788D01*
X160816938Y-106489585D01*
X160788014Y-106429446D01*
X160782286Y-106382462D01*
X160786657Y-106340082D01*
X160802475Y-106305488D01*
X160833797Y-106274763D01*
X160884678Y-106243990D01*
X160959176Y-106209252D01*
X160963714Y-106207288D01*
X161030821Y-106176287D01*
X161072232Y-106150862D01*
X161089981Y-106128014D01*
X161086107Y-106104745D01*
X161062643Y-106078056D01*
X161055627Y-106071914D01*
X161008630Y-106048100D01*
X160959933Y-106049103D01*
X160917522Y-106072451D01*
X160889384Y-106115675D01*
X160886769Y-106124160D01*
X160861308Y-106165308D01*
X160829001Y-106185128D01*
X160782286Y-106204770D01*
X160782286Y-106153950D01*
X160796496Y-106080082D01*
X160838675Y-106012327D01*
X160860624Y-105989661D01*
X160910517Y-105960569D01*
X160973967Y-105947400D01*
X161039744Y-105950968D01*
G36*
X161529926Y-105949755D02*
G01*
X161595858Y-105974084D01*
X161649273Y-106017117D01*
X161670164Y-106047409D01*
X161692939Y-106102994D01*
X161692466Y-106143186D01*
X161668562Y-106170217D01*
X161659717Y-106174813D01*
X161621530Y-106189144D01*
X161602028Y-106185472D01*
X161595422Y-106161407D01*
X161595086Y-106148114D01*
X161582992Y-106099210D01*
X161551471Y-106064999D01*
X161507659Y-106048476D01*
X161458695Y-106052634D01*
X161418894Y-106074227D01*
X161405450Y-106086544D01*
X161395921Y-106101487D01*
X161389485Y-106124075D01*
X161385317Y-106159328D01*
X161382597Y-106212266D01*
X161380502Y-106287907D01*
X161379960Y-106311857D01*
X161377981Y-106393790D01*
X161375731Y-106451455D01*
X161372357Y-106489608D01*
X161367006Y-106513004D01*
X161358824Y-106526398D01*
X161346959Y-106534545D01*
X161339362Y-106538144D01*
X161307102Y-106550452D01*
X161288111Y-106554514D01*
X161281836Y-106540948D01*
X161278006Y-106499934D01*
X161276600Y-106430999D01*
X161277598Y-106333669D01*
X161277908Y-106318657D01*
X161280101Y-106229859D01*
X161282693Y-106165019D01*
X161286382Y-106119067D01*
X161291864Y-106086935D01*
X161299835Y-106063553D01*
X161310993Y-106043852D01*
X161316830Y-106035410D01*
X161350296Y-105998057D01*
X161387727Y-105969003D01*
X161392309Y-105966467D01*
X161459426Y-105946443D01*
X161529926Y-105949755D01*
G37*
X161529926Y-105949755D02*
X161595858Y-105974084D01*
X161649273Y-106017117D01*
X161670164Y-106047409D01*
X161692939Y-106102994D01*
X161692466Y-106143186D01*
X161668562Y-106170217D01*
X161659717Y-106174813D01*
X161621530Y-106189144D01*
X161602028Y-106185472D01*
X161595422Y-106161407D01*
X161595086Y-106148114D01*
X161582992Y-106099210D01*
X161551471Y-106064999D01*
X161507659Y-106048476D01*
X161458695Y-106052634D01*
X161418894Y-106074227D01*
X161405450Y-106086544D01*
X161395921Y-106101487D01*
X161389485Y-106124075D01*
X161385317Y-106159328D01*
X161382597Y-106212266D01*
X161380502Y-106287907D01*
X161379960Y-106311857D01*
X161377981Y-106393790D01*
X161375731Y-106451455D01*
X161372357Y-106489608D01*
X161367006Y-106513004D01*
X161358824Y-106526398D01*
X161346959Y-106534545D01*
X161339362Y-106538144D01*
X161307102Y-106550452D01*
X161288111Y-106554514D01*
X161281836Y-106540948D01*
X161278006Y-106499934D01*
X161276600Y-106430999D01*
X161277598Y-106333669D01*
X161277908Y-106318657D01*
X161280101Y-106229859D01*
X161282693Y-106165019D01*
X161286382Y-106119067D01*
X161291864Y-106086935D01*
X161299835Y-106063553D01*
X161310993Y-106043852D01*
X161316830Y-106035410D01*
X161350296Y-105998057D01*
X161387727Y-105969003D01*
X161392309Y-105966467D01*
X161459426Y-105946443D01*
X161529926Y-105949755D01*
G36*
X162190117Y-106065358D02*
G01*
X162189933Y-106173837D01*
X162189219Y-106257287D01*
X162187675Y-106319704D01*
X162185001Y-106365085D01*
X162180894Y-106397429D01*
X162175055Y-106420733D01*
X162167182Y-106438995D01*
X162161221Y-106449418D01*
X162111855Y-106505945D01*
X162049264Y-106541377D01*
X161980013Y-106554090D01*
X161910668Y-106542463D01*
X161869375Y-106521568D01*
X161826025Y-106485422D01*
X161796481Y-106441276D01*
X161778655Y-106383462D01*
X161770463Y-106306313D01*
X161769302Y-106249714D01*
X161769458Y-106245647D01*
X161870857Y-106245647D01*
X161871476Y-106310550D01*
X161874314Y-106353514D01*
X161880840Y-106381622D01*
X161892523Y-106401953D01*
X161906483Y-106417288D01*
X161953365Y-106446890D01*
X162003701Y-106449419D01*
X162051276Y-106424705D01*
X162054979Y-106421356D01*
X162070783Y-106403935D01*
X162080693Y-106383209D01*
X162086058Y-106352362D01*
X162088228Y-106304577D01*
X162088571Y-106251748D01*
X162087827Y-106185381D01*
X162084748Y-106141106D01*
X162078061Y-106112009D01*
X162066496Y-106091173D01*
X162057013Y-106080107D01*
X162012960Y-106052198D01*
X161962224Y-106048843D01*
X161913796Y-106070159D01*
X161904450Y-106078073D01*
X161888540Y-106095647D01*
X161878610Y-106116587D01*
X161873278Y-106147782D01*
X161871163Y-106196122D01*
X161870857Y-106245647D01*
X161769458Y-106245647D01*
X161772810Y-106158568D01*
X161784726Y-106090086D01*
X161807135Y-106038600D01*
X161842124Y-105998443D01*
X161869375Y-105977861D01*
X161918907Y-105955625D01*
X161976316Y-105945304D01*
X162029682Y-105948067D01*
X162059543Y-105959212D01*
X162071261Y-105962383D01*
X162079037Y-105950557D01*
X162084465Y-105918866D01*
X162088571Y-105870593D01*
X162093067Y-105816829D01*
X162099313Y-105784482D01*
X162110676Y-105765985D01*
X162130528Y-105753770D01*
X162143000Y-105748362D01*
X162190171Y-105728601D01*
X162190117Y-106065358D01*
G37*
X162190117Y-106065358D02*
X162189933Y-106173837D01*
X162189219Y-106257287D01*
X162187675Y-106319704D01*
X162185001Y-106365085D01*
X162180894Y-106397429D01*
X162175055Y-106420733D01*
X162167182Y-106438995D01*
X162161221Y-106449418D01*
X162111855Y-106505945D01*
X162049264Y-106541377D01*
X161980013Y-106554090D01*
X161910668Y-106542463D01*
X161869375Y-106521568D01*
X161826025Y-106485422D01*
X161796481Y-106441276D01*
X161778655Y-106383462D01*
X161770463Y-106306313D01*
X161769302Y-106249714D01*
X161769458Y-106245647D01*
X161870857Y-106245647D01*
X161871476Y-106310550D01*
X161874314Y-106353514D01*
X161880840Y-106381622D01*
X161892523Y-106401953D01*
X161906483Y-106417288D01*
X161953365Y-106446890D01*
X162003701Y-106449419D01*
X162051276Y-106424705D01*
X162054979Y-106421356D01*
X162070783Y-106403935D01*
X162080693Y-106383209D01*
X162086058Y-106352362D01*
X162088228Y-106304577D01*
X162088571Y-106251748D01*
X162087827Y-106185381D01*
X162084748Y-106141106D01*
X162078061Y-106112009D01*
X162066496Y-106091173D01*
X162057013Y-106080107D01*
X162012960Y-106052198D01*
X161962224Y-106048843D01*
X161913796Y-106070159D01*
X161904450Y-106078073D01*
X161888540Y-106095647D01*
X161878610Y-106116587D01*
X161873278Y-106147782D01*
X161871163Y-106196122D01*
X161870857Y-106245647D01*
X161769458Y-106245647D01*
X161772810Y-106158568D01*
X161784726Y-106090086D01*
X161807135Y-106038600D01*
X161842124Y-105998443D01*
X161869375Y-105977861D01*
X161918907Y-105955625D01*
X161976316Y-105945304D01*
X162029682Y-105948067D01*
X162059543Y-105959212D01*
X162071261Y-105962383D01*
X162079037Y-105950557D01*
X162084465Y-105918866D01*
X162088571Y-105870593D01*
X162093067Y-105816829D01*
X162099313Y-105784482D01*
X162110676Y-105765985D01*
X162130528Y-105753770D01*
X162143000Y-105748362D01*
X162190171Y-105728601D01*
X162190117Y-106065358D01*
G36*
X162779833Y-105958663D02*
G01*
X162782048Y-105996850D01*
X162783784Y-106054886D01*
X162784899Y-106128180D01*
X162785257Y-106205055D01*
X162785257Y-106465196D01*
X162739326Y-106511127D01*
X162707675Y-106539429D01*
X162679890Y-106550893D01*
X162641915Y-106550168D01*
X162626840Y-106548321D01*
X162579726Y-106542948D01*
X162540756Y-106539869D01*
X162531257Y-106539585D01*
X162499233Y-106541445D01*
X162453432Y-106546114D01*
X162435674Y-106548321D01*
X162392057Y-106551735D01*
X162362745Y-106544320D01*
X162333680Y-106521427D01*
X162323188Y-106511127D01*
X162277257Y-106465196D01*
X162277257Y-105978602D01*
X162314226Y-105961758D01*
X162346059Y-105949282D01*
X162364683Y-105944914D01*
X162369458Y-105958718D01*
X162373921Y-105997286D01*
X162377775Y-106056356D01*
X162380722Y-106131663D01*
X162382143Y-106195286D01*
X162386114Y-106445657D01*
X162420759Y-106450556D01*
X162452268Y-106447131D01*
X162467708Y-106436041D01*
X162472023Y-106415308D01*
X162475708Y-106371145D01*
X162478469Y-106309146D01*
X162480012Y-106234909D01*
X162480235Y-106196706D01*
X162480457Y-105976783D01*
X162526166Y-105960849D01*
X162558518Y-105950015D01*
X162576115Y-105944962D01*
X162576623Y-105944914D01*
X162578388Y-105958648D01*
X162580329Y-105996730D01*
X162582282Y-106054482D01*
X162584084Y-106127227D01*
X162585343Y-106195286D01*
X162589314Y-106445657D01*
X162676400Y-106445657D01*
X162680396Y-106217240D01*
X162684392Y-105988822D01*
X162726847Y-105966868D01*
X162758192Y-105951793D01*
X162776744Y-105944951D01*
X162777279Y-105944914D01*
X162779833Y-105958663D01*
G37*
X162779833Y-105958663D02*
X162782048Y-105996850D01*
X162783784Y-106054886D01*
X162784899Y-106128180D01*
X162785257Y-106205055D01*
X162785257Y-106465196D01*
X162739326Y-106511127D01*
X162707675Y-106539429D01*
X162679890Y-106550893D01*
X162641915Y-106550168D01*
X162626840Y-106548321D01*
X162579726Y-106542948D01*
X162540756Y-106539869D01*
X162531257Y-106539585D01*
X162499233Y-106541445D01*
X162453432Y-106546114D01*
X162435674Y-106548321D01*
X162392057Y-106551735D01*
X162362745Y-106544320D01*
X162333680Y-106521427D01*
X162323188Y-106511127D01*
X162277257Y-106465196D01*
X162277257Y-105978602D01*
X162314226Y-105961758D01*
X162346059Y-105949282D01*
X162364683Y-105944914D01*
X162369458Y-105958718D01*
X162373921Y-105997286D01*
X162377775Y-106056356D01*
X162380722Y-106131663D01*
X162382143Y-106195286D01*
X162386114Y-106445657D01*
X162420759Y-106450556D01*
X162452268Y-106447131D01*
X162467708Y-106436041D01*
X162472023Y-106415308D01*
X162475708Y-106371145D01*
X162478469Y-106309146D01*
X162480012Y-106234909D01*
X162480235Y-106196706D01*
X162480457Y-105976783D01*
X162526166Y-105960849D01*
X162558518Y-105950015D01*
X162576115Y-105944962D01*
X162576623Y-105944914D01*
X162578388Y-105958648D01*
X162580329Y-105996730D01*
X162582282Y-106054482D01*
X162584084Y-106127227D01*
X162585343Y-106195286D01*
X162589314Y-106445657D01*
X162676400Y-106445657D01*
X162680396Y-106217240D01*
X162684392Y-105988822D01*
X162726847Y-105966868D01*
X162758192Y-105951793D01*
X162776744Y-105944951D01*
X162777279Y-105944914D01*
X162779833Y-105958663D01*
G36*
X163144876Y-105956335D02*
G01*
X163186667Y-105975344D01*
X163219469Y-105998378D01*
X163243503Y-106024133D01*
X163260097Y-106057358D01*
X163270577Y-106102800D01*
X163276271Y-106165207D01*
X163278507Y-106249327D01*
X163278743Y-106304721D01*
X163278743Y-106520826D01*
X163241774Y-106537670D01*
X163212656Y-106549981D01*
X163198231Y-106554514D01*
X163195472Y-106541025D01*
X163193282Y-106504653D01*
X163191942Y-106451542D01*
X163191657Y-106409372D01*
X163190434Y-106348447D01*
X163187136Y-106300115D01*
X163182321Y-106270518D01*
X163178496Y-106264229D01*
X163152783Y-106270652D01*
X163112418Y-106287125D01*
X163065679Y-106309458D01*
X163020845Y-106333457D01*
X162986193Y-106354930D01*
X162970002Y-106369685D01*
X162969938Y-106369845D01*
X162971330Y-106397152D01*
X162983818Y-106423219D01*
X163005743Y-106444392D01*
X163037743Y-106451474D01*
X163065092Y-106450649D01*
X163103826Y-106450042D01*
X163124158Y-106459116D01*
X163136369Y-106483092D01*
X163137909Y-106487613D01*
X163143203Y-106521806D01*
X163129047Y-106542568D01*
X163092148Y-106552462D01*
X163052289Y-106554292D01*
X162980562Y-106540727D01*
X162943432Y-106521355D01*
X162897576Y-106475845D01*
X162873256Y-106419983D01*
X162871073Y-106360957D01*
X162891629Y-106305953D01*
X162922549Y-106271486D01*
X162953420Y-106252189D01*
X163001942Y-106227759D01*
X163058485Y-106202985D01*
X163067910Y-106199199D01*
X163130019Y-106171791D01*
X163165822Y-106147634D01*
X163177337Y-106123619D01*
X163166580Y-106096635D01*
X163148114Y-106075543D01*
X163104469Y-106049572D01*
X163056446Y-106047624D01*
X163012406Y-106067637D01*
X162980709Y-106107551D01*
X162976549Y-106117848D01*
X162952327Y-106155724D01*
X162916965Y-106183842D01*
X162872343Y-106206917D01*
X162872343Y-106141485D01*
X162874969Y-106101506D01*
X162886230Y-106069997D01*
X162911199Y-106036378D01*
X162935169Y-106010484D01*
X162972441Y-105973817D01*
X163001401Y-105954121D01*
X163032505Y-105946220D01*
X163067713Y-105944914D01*
X163144876Y-105956335D01*
G37*
X163144876Y-105956335D02*
X163186667Y-105975344D01*
X163219469Y-105998378D01*
X163243503Y-106024133D01*
X163260097Y-106057358D01*
X163270577Y-106102800D01*
X163276271Y-106165207D01*
X163278507Y-106249327D01*
X163278743Y-106304721D01*
X163278743Y-106520826D01*
X163241774Y-106537670D01*
X163212656Y-106549981D01*
X163198231Y-106554514D01*
X163195472Y-106541025D01*
X163193282Y-106504653D01*
X163191942Y-106451542D01*
X163191657Y-106409372D01*
X163190434Y-106348447D01*
X163187136Y-106300115D01*
X163182321Y-106270518D01*
X163178496Y-106264229D01*
X163152783Y-106270652D01*
X163112418Y-106287125D01*
X163065679Y-106309458D01*
X163020845Y-106333457D01*
X162986193Y-106354930D01*
X162970002Y-106369685D01*
X162969938Y-106369845D01*
X162971330Y-106397152D01*
X162983818Y-106423219D01*
X163005743Y-106444392D01*
X163037743Y-106451474D01*
X163065092Y-106450649D01*
X163103826Y-106450042D01*
X163124158Y-106459116D01*
X163136369Y-106483092D01*
X163137909Y-106487613D01*
X163143203Y-106521806D01*
X163129047Y-106542568D01*
X163092148Y-106552462D01*
X163052289Y-106554292D01*
X162980562Y-106540727D01*
X162943432Y-106521355D01*
X162897576Y-106475845D01*
X162873256Y-106419983D01*
X162871073Y-106360957D01*
X162891629Y-106305953D01*
X162922549Y-106271486D01*
X162953420Y-106252189D01*
X163001942Y-106227759D01*
X163058485Y-106202985D01*
X163067910Y-106199199D01*
X163130019Y-106171791D01*
X163165822Y-106147634D01*
X163177337Y-106123619D01*
X163166580Y-106096635D01*
X163148114Y-106075543D01*
X163104469Y-106049572D01*
X163056446Y-106047624D01*
X163012406Y-106067637D01*
X162980709Y-106107551D01*
X162976549Y-106117848D01*
X162952327Y-106155724D01*
X162916965Y-106183842D01*
X162872343Y-106206917D01*
X162872343Y-106141485D01*
X162874969Y-106101506D01*
X162886230Y-106069997D01*
X162911199Y-106036378D01*
X162935169Y-106010484D01*
X162972441Y-105973817D01*
X163001401Y-105954121D01*
X163032505Y-105946220D01*
X163067713Y-105944914D01*
X163144876Y-105956335D01*
G36*
X163652600Y-105958752D02*
G01*
X163669948Y-105966334D01*
X163711356Y-105999128D01*
X163746765Y-106046547D01*
X163768664Y-106097151D01*
X163772229Y-106122098D01*
X163760279Y-106156927D01*
X163734067Y-106175357D01*
X163705964Y-106186516D01*
X163693095Y-106188572D01*
X163686829Y-106173649D01*
X163674456Y-106141175D01*
X163669028Y-106126502D01*
X163638590Y-106075744D01*
X163594520Y-106050427D01*
X163538010Y-106051206D01*
X163533825Y-106052203D01*
X163503655Y-106066507D01*
X163481476Y-106094393D01*
X163466327Y-106139287D01*
X163457250Y-106204615D01*
X163453286Y-106293804D01*
X163452914Y-106341261D01*
X163452730Y-106416071D01*
X163451522Y-106467069D01*
X163448309Y-106499471D01*
X163442109Y-106518495D01*
X163431940Y-106529356D01*
X163416819Y-106537272D01*
X163415946Y-106537670D01*
X163386828Y-106549981D01*
X163372403Y-106554514D01*
X163370186Y-106540809D01*
X163368289Y-106502925D01*
X163366847Y-106445715D01*
X163365998Y-106374027D01*
X163365829Y-106321565D01*
X163366692Y-106220047D01*
X163370070Y-106143032D01*
X163377142Y-106086023D01*
X163389088Y-106044526D01*
X163407090Y-106014043D01*
X163432327Y-105990080D01*
X163457247Y-105973355D01*
X163517171Y-105951097D01*
X163586911Y-105946076D01*
X163652600Y-105958752D01*
G37*
X163652600Y-105958752D02*
X163669948Y-105966334D01*
X163711356Y-105999128D01*
X163746765Y-106046547D01*
X163768664Y-106097151D01*
X163772229Y-106122098D01*
X163760279Y-106156927D01*
X163734067Y-106175357D01*
X163705964Y-106186516D01*
X163693095Y-106188572D01*
X163686829Y-106173649D01*
X163674456Y-106141175D01*
X163669028Y-106126502D01*
X163638590Y-106075744D01*
X163594520Y-106050427D01*
X163538010Y-106051206D01*
X163533825Y-106052203D01*
X163503655Y-106066507D01*
X163481476Y-106094393D01*
X163466327Y-106139287D01*
X163457250Y-106204615D01*
X163453286Y-106293804D01*
X163452914Y-106341261D01*
X163452730Y-106416071D01*
X163451522Y-106467069D01*
X163448309Y-106499471D01*
X163442109Y-106518495D01*
X163431940Y-106529356D01*
X163416819Y-106537272D01*
X163415946Y-106537670D01*
X163386828Y-106549981D01*
X163372403Y-106554514D01*
X163370186Y-106540809D01*
X163368289Y-106502925D01*
X163366847Y-106445715D01*
X163365998Y-106374027D01*
X163365829Y-106321565D01*
X163366692Y-106220047D01*
X163370070Y-106143032D01*
X163377142Y-106086023D01*
X163389088Y-106044526D01*
X163407090Y-106014043D01*
X163432327Y-105990080D01*
X163457247Y-105973355D01*
X163517171Y-105951097D01*
X163586911Y-105946076D01*
X163652600Y-105958752D01*
G36*
X164153595Y-105966966D02*
G01*
X164211021Y-106004497D01*
X164238719Y-106038096D01*
X164260662Y-106099064D01*
X164262405Y-106147308D01*
X164258457Y-106211816D01*
X164109686Y-106276934D01*
X164037349Y-106310202D01*
X163990084Y-106336964D01*
X163965507Y-106360144D01*
X163961237Y-106382667D01*
X163974889Y-106407455D01*
X163989943Y-106423886D01*
X164033746Y-106450235D01*
X164081389Y-106452081D01*
X164125145Y-106431546D01*
X164157289Y-106390752D01*
X164163038Y-106376347D01*
X164190576Y-106331356D01*
X164222258Y-106312182D01*
X164265714Y-106295779D01*
X164265714Y-106357966D01*
X164261872Y-106400283D01*
X164246823Y-106435969D01*
X164215280Y-106476943D01*
X164210592Y-106482267D01*
X164175506Y-106518720D01*
X164145347Y-106538283D01*
X164107615Y-106547283D01*
X164076335Y-106550230D01*
X164020385Y-106550965D01*
X163980555Y-106541660D01*
X163955708Y-106527846D01*
X163916656Y-106497467D01*
X163889625Y-106464613D01*
X163872517Y-106423294D01*
X163863238Y-106367521D01*
X163859693Y-106291305D01*
X163859410Y-106252622D01*
X163860372Y-106206247D01*
X163948007Y-106206247D01*
X163949023Y-106231126D01*
X163951556Y-106235200D01*
X163968274Y-106229665D01*
X164004249Y-106215017D01*
X164052331Y-106194190D01*
X164062386Y-106189714D01*
X164123152Y-106158814D01*
X164156632Y-106131657D01*
X164163990Y-106106220D01*
X164146391Y-106080481D01*
X164131856Y-106069109D01*
X164079410Y-106046364D01*
X164030322Y-106050122D01*
X163989227Y-106077884D01*
X163960758Y-106127152D01*
X163951631Y-106166257D01*
X163948007Y-106206247D01*
X163860372Y-106206247D01*
X163861285Y-106162249D01*
X163868196Y-106095384D01*
X163881884Y-106046695D01*
X163904096Y-106010849D01*
X163936574Y-105982513D01*
X163950733Y-105973355D01*
X164015053Y-105949507D01*
X164085473Y-105948006D01*
X164153595Y-105966966D01*
G37*
X164153595Y-105966966D02*
X164211021Y-106004497D01*
X164238719Y-106038096D01*
X164260662Y-106099064D01*
X164262405Y-106147308D01*
X164258457Y-106211816D01*
X164109686Y-106276934D01*
X164037349Y-106310202D01*
X163990084Y-106336964D01*
X163965507Y-106360144D01*
X163961237Y-106382667D01*
X163974889Y-106407455D01*
X163989943Y-106423886D01*
X164033746Y-106450235D01*
X164081389Y-106452081D01*
X164125145Y-106431546D01*
X164157289Y-106390752D01*
X164163038Y-106376347D01*
X164190576Y-106331356D01*
X164222258Y-106312182D01*
X164265714Y-106295779D01*
X164265714Y-106357966D01*
X164261872Y-106400283D01*
X164246823Y-106435969D01*
X164215280Y-106476943D01*
X164210592Y-106482267D01*
X164175506Y-106518720D01*
X164145347Y-106538283D01*
X164107615Y-106547283D01*
X164076335Y-106550230D01*
X164020385Y-106550965D01*
X163980555Y-106541660D01*
X163955708Y-106527846D01*
X163916656Y-106497467D01*
X163889625Y-106464613D01*
X163872517Y-106423294D01*
X163863238Y-106367521D01*
X163859693Y-106291305D01*
X163859410Y-106252622D01*
X163860372Y-106206247D01*
X163948007Y-106206247D01*
X163949023Y-106231126D01*
X163951556Y-106235200D01*
X163968274Y-106229665D01*
X164004249Y-106215017D01*
X164052331Y-106194190D01*
X164062386Y-106189714D01*
X164123152Y-106158814D01*
X164156632Y-106131657D01*
X164163990Y-106106220D01*
X164146391Y-106080481D01*
X164131856Y-106069109D01*
X164079410Y-106046364D01*
X164030322Y-106050122D01*
X163989227Y-106077884D01*
X163960758Y-106127152D01*
X163951631Y-106166257D01*
X163948007Y-106206247D01*
X163860372Y-106206247D01*
X163861285Y-106162249D01*
X163868196Y-106095384D01*
X163881884Y-106046695D01*
X163904096Y-106010849D01*
X163936574Y-105982513D01*
X163950733Y-105973355D01*
X164015053Y-105949507D01*
X164085473Y-105948006D01*
X164153595Y-105966966D01*
G36*
X161103910Y-101242348D02*
G01*
X161182454Y-101242778D01*
X161239298Y-101243942D01*
X161278105Y-101246207D01*
X161302538Y-101249940D01*
X161316262Y-101255506D01*
X161322940Y-101263273D01*
X161326236Y-101273605D01*
X161326556Y-101274943D01*
X161331562Y-101299079D01*
X161340829Y-101346701D01*
X161353392Y-101412741D01*
X161368287Y-101492128D01*
X161384551Y-101579796D01*
X161385119Y-101582875D01*
X161401410Y-101668789D01*
X161416652Y-101744696D01*
X161429861Y-101806045D01*
X161440054Y-101848282D01*
X161446248Y-101866855D01*
X161446543Y-101867184D01*
X161464788Y-101876253D01*
X161502405Y-101891367D01*
X161551271Y-101909262D01*
X161551543Y-101909358D01*
X161613093Y-101932493D01*
X161685657Y-101961965D01*
X161754057Y-101991597D01*
X161757294Y-101993062D01*
X161868702Y-102043626D01*
X162115399Y-101875160D01*
X162191077Y-101823803D01*
X162259631Y-101777889D01*
X162317088Y-101740030D01*
X162359476Y-101712837D01*
X162382825Y-101698921D01*
X162385042Y-101697889D01*
X162402010Y-101702484D01*
X162433701Y-101724655D01*
X162481352Y-101765447D01*
X162546198Y-101825905D01*
X162612397Y-101890227D01*
X162676214Y-101953612D01*
X162733329Y-102011451D01*
X162780305Y-102060175D01*
X162813703Y-102096210D01*
X162830085Y-102115984D01*
X162830694Y-102117002D01*
X162832505Y-102130572D01*
X162825683Y-102152733D01*
X162808540Y-102186478D01*
X162779393Y-102234800D01*
X162736555Y-102300692D01*
X162679448Y-102385517D01*
X162628766Y-102460177D01*
X162583461Y-102527140D01*
X162546150Y-102582516D01*
X162519452Y-102622420D01*
X162505985Y-102642962D01*
X162505137Y-102644356D01*
X162506781Y-102664038D01*
X162519245Y-102702293D01*
X162540048Y-102751889D01*
X162547462Y-102767728D01*
X162579814Y-102838290D01*
X162614328Y-102918353D01*
X162642365Y-102987629D01*
X162662568Y-103039045D01*
X162678615Y-103078119D01*
X162687888Y-103098541D01*
X162689041Y-103100114D01*
X162706096Y-103102721D01*
X162746298Y-103109863D01*
X162804302Y-103120523D01*
X162874763Y-103133685D01*
X162952335Y-103148333D01*
X163031672Y-103163449D01*
X163107431Y-103178018D01*
X163174264Y-103191022D01*
X163226828Y-103201445D01*
X163259776Y-103208270D01*
X163267857Y-103210199D01*
X163276205Y-103214962D01*
X163282506Y-103225718D01*
X163287045Y-103246098D01*
X163290104Y-103279734D01*
X163291967Y-103330255D01*
X163292918Y-103401292D01*
X163293240Y-103496476D01*
X163293257Y-103535492D01*
X163293257Y-103852799D01*
X163217057Y-103867839D01*
X163174663Y-103875995D01*
X163111400Y-103887899D01*
X163034962Y-103902116D01*
X162953043Y-103917210D01*
X162930400Y-103921355D01*
X162854806Y-103936053D01*
X162788953Y-103950505D01*
X162738366Y-103963375D01*
X162708574Y-103973322D01*
X162703612Y-103976287D01*
X162691426Y-103997283D01*
X162673953Y-104037967D01*
X162654577Y-104090322D01*
X162650734Y-104101600D01*
X162625339Y-104171523D01*
X162593817Y-104250418D01*
X162562969Y-104321266D01*
X162562817Y-104321595D01*
X162511447Y-104432733D01*
X162680399Y-104681253D01*
X162849352Y-104929772D01*
X162632429Y-105147058D01*
X162566819Y-105211726D01*
X162506979Y-105268733D01*
X162456267Y-105315033D01*
X162418046Y-105347584D01*
X162395675Y-105363343D01*
X162392466Y-105364343D01*
X162373626Y-105356469D01*
X162335180Y-105334578D01*
X162281330Y-105301267D01*
X162216276Y-105259131D01*
X162145940Y-105211943D01*
X162074555Y-105163810D01*
X162010908Y-105121928D01*
X161959041Y-105088871D01*
X161922995Y-105067218D01*
X161906867Y-105059543D01*
X161887189Y-105066037D01*
X161849875Y-105083150D01*
X161802621Y-105107326D01*
X161797612Y-105110013D01*
X161733977Y-105141927D01*
X161690341Y-105157579D01*
X161663202Y-105157745D01*
X161649057Y-105143204D01*
X161648975Y-105143000D01*
X161641905Y-105125779D01*
X161625042Y-105084899D01*
X161599695Y-105023525D01*
X161567171Y-104944819D01*
X161528778Y-104851947D01*
X161485822Y-104748072D01*
X161444222Y-104647502D01*
X161398504Y-104536516D01*
X161356526Y-104433703D01*
X161319548Y-104342215D01*
X161288827Y-104265201D01*
X161265622Y-104205815D01*
X161251190Y-104167209D01*
X161246743Y-104152800D01*
X161257896Y-104136272D01*
X161287069Y-104109930D01*
X161325971Y-104080887D01*
X161436757Y-103989039D01*
X161523351Y-103883759D01*
X161584716Y-103767266D01*
X161619815Y-103641776D01*
X161627608Y-103509507D01*
X161621943Y-103448457D01*
X161591078Y-103321795D01*
X161537920Y-103209941D01*
X161465767Y-103114001D01*
X161377917Y-103035076D01*
X161277665Y-102974270D01*
X161168310Y-102932687D01*
X161053147Y-102911428D01*
X160935475Y-102911599D01*
X160818590Y-102934301D01*
X160705789Y-102980638D01*
X160600369Y-103051713D01*
X160556368Y-103091911D01*
X160471979Y-103195129D01*
X160413222Y-103307925D01*
X160379704Y-103427010D01*
X160371035Y-103549095D01*
X160386823Y-103670893D01*
X160426678Y-103789116D01*
X160490207Y-103900475D01*
X160577021Y-104001684D01*
X160674029Y-104080887D01*
X160714437Y-104111162D01*
X160742982Y-104137219D01*
X160753257Y-104152825D01*
X160747877Y-104169843D01*
X160732575Y-104210500D01*
X160708612Y-104271642D01*
X160677244Y-104350119D01*
X160639732Y-104442780D01*
X160597333Y-104546472D01*
X160555663Y-104647526D01*
X160509690Y-104758607D01*
X160467107Y-104861541D01*
X160429221Y-104953165D01*
X160397340Y-105030316D01*
X160372771Y-105089831D01*
X160356820Y-105128544D01*
X160350910Y-105143000D01*
X160336948Y-105157685D01*
X160309940Y-105157642D01*
X160266413Y-105142099D01*
X160202890Y-105110284D01*
X160202388Y-105110013D01*
X160154560Y-105085323D01*
X160115897Y-105067338D01*
X160094095Y-105059614D01*
X160093133Y-105059543D01*
X160076721Y-105067378D01*
X160040487Y-105089165D01*
X159988474Y-105122328D01*
X159924725Y-105164291D01*
X159854060Y-105211943D01*
X159782116Y-105260191D01*
X159717274Y-105302151D01*
X159663735Y-105335227D01*
X159625697Y-105356821D01*
X159607533Y-105364343D01*
X159590808Y-105354457D01*
X159557180Y-105326826D01*
X159510010Y-105284495D01*
X159452658Y-105230505D01*
X159388484Y-105167899D01*
X159367497Y-105146983D01*
X159150499Y-104929623D01*
X159315668Y-104687220D01*
X159365864Y-104612781D01*
X159409919Y-104545972D01*
X159445362Y-104490665D01*
X159469719Y-104450729D01*
X159480522Y-104430036D01*
X159480838Y-104428563D01*
X159475143Y-104409058D01*
X159459826Y-104369822D01*
X159437537Y-104317430D01*
X159421893Y-104282355D01*
X159392641Y-104215201D01*
X159365094Y-104147358D01*
X159343737Y-104090034D01*
X159337935Y-104072572D01*
X159321452Y-104025938D01*
X159305340Y-103989905D01*
X159296490Y-103976287D01*
X159276960Y-103967952D01*
X159234334Y-103956137D01*
X159174145Y-103942181D01*
X159101922Y-103927422D01*
X159069600Y-103921355D01*
X158987522Y-103906273D01*
X158908795Y-103891669D01*
X158841109Y-103878980D01*
X158792160Y-103869642D01*
X158782943Y-103867839D01*
X158706743Y-103852799D01*
X158706743Y-103535492D01*
X158706914Y-103431154D01*
X158707616Y-103352213D01*
X158709134Y-103295038D01*
X158711749Y-103255999D01*
X158715746Y-103231465D01*
X158721409Y-103217805D01*
X158729020Y-103211389D01*
X158732143Y-103210199D01*
X158750978Y-103205980D01*
X158792588Y-103197562D01*
X158851630Y-103185961D01*
X158922757Y-103172195D01*
X159000625Y-103157280D01*
X159079887Y-103142232D01*
X159155198Y-103128069D01*
X159221213Y-103115806D01*
X159272587Y-103106461D01*
X159303975Y-103101050D01*
X159310959Y-103100114D01*
X159317285Y-103087596D01*
X159331290Y-103054246D01*
X159350355Y-103006377D01*
X159357634Y-102987629D01*
X159386996Y-102915195D01*
X159421571Y-102835170D01*
X159452537Y-102767728D01*
X159475323Y-102716159D01*
X159490482Y-102673785D01*
X159495542Y-102647834D01*
X159494736Y-102644356D01*
X159484041Y-102627936D01*
X159459620Y-102591417D01*
X159424095Y-102538687D01*
X159380087Y-102473635D01*
X159330217Y-102400151D01*
X159320356Y-102385645D01*
X159262492Y-102299704D01*
X159219956Y-102234261D01*
X159191054Y-102186304D01*
X159174090Y-102152820D01*
X159167367Y-102130795D01*
X159169190Y-102117217D01*
X159169236Y-102117131D01*
X159183586Y-102099297D01*
X159215323Y-102064817D01*
X159261010Y-102017268D01*
X159317204Y-101960222D01*
X159380468Y-101897255D01*
X159387602Y-101890227D01*
X159467330Y-101813020D01*
X159528857Y-101756330D01*
X159573421Y-101719110D01*
X159602257Y-101700315D01*
X159614958Y-101697889D01*
X159633494Y-101708471D01*
X159671961Y-101732916D01*
X159726386Y-101768612D01*
X159792798Y-101812947D01*
X159867225Y-101863311D01*
X159884601Y-101875160D01*
X160131297Y-102043626D01*
X160242706Y-101993062D01*
X160310457Y-101963595D01*
X160383183Y-101933959D01*
X160445703Y-101910330D01*
X160448457Y-101909358D01*
X160497360Y-101891457D01*
X160535057Y-101876320D01*
X160553425Y-101867210D01*
X160553456Y-101867184D01*
X160559285Y-101850717D01*
X160569192Y-101810219D01*
X160582195Y-101750242D01*
X160597309Y-101675340D01*
X160613552Y-101590064D01*
X160614881Y-101582875D01*
X160631175Y-101495014D01*
X160646133Y-101415260D01*
X160658791Y-101348681D01*
X160668186Y-101300347D01*
X160673354Y-101275325D01*
X160673444Y-101274943D01*
X160676589Y-101264299D01*
X160682704Y-101256262D01*
X160695453Y-101250467D01*
X160718500Y-101246547D01*
X160755509Y-101244135D01*
X160810144Y-101242865D01*
X160886067Y-101242371D01*
X160986944Y-101242286D01*
X161000000Y-101242286D01*
X161103910Y-101242348D01*
G37*
X161103910Y-101242348D02*
X161182454Y-101242778D01*
X161239298Y-101243942D01*
X161278105Y-101246207D01*
X161302538Y-101249940D01*
X161316262Y-101255506D01*
X161322940Y-101263273D01*
X161326236Y-101273605D01*
X161326556Y-101274943D01*
X161331562Y-101299079D01*
X161340829Y-101346701D01*
X161353392Y-101412741D01*
X161368287Y-101492128D01*
X161384551Y-101579796D01*
X161385119Y-101582875D01*
X161401410Y-101668789D01*
X161416652Y-101744696D01*
X161429861Y-101806045D01*
X161440054Y-101848282D01*
X161446248Y-101866855D01*
X161446543Y-101867184D01*
X161464788Y-101876253D01*
X161502405Y-101891367D01*
X161551271Y-101909262D01*
X161551543Y-101909358D01*
X161613093Y-101932493D01*
X161685657Y-101961965D01*
X161754057Y-101991597D01*
X161757294Y-101993062D01*
X161868702Y-102043626D01*
X162115399Y-101875160D01*
X162191077Y-101823803D01*
X162259631Y-101777889D01*
X162317088Y-101740030D01*
X162359476Y-101712837D01*
X162382825Y-101698921D01*
X162385042Y-101697889D01*
X162402010Y-101702484D01*
X162433701Y-101724655D01*
X162481352Y-101765447D01*
X162546198Y-101825905D01*
X162612397Y-101890227D01*
X162676214Y-101953612D01*
X162733329Y-102011451D01*
X162780305Y-102060175D01*
X162813703Y-102096210D01*
X162830085Y-102115984D01*
X162830694Y-102117002D01*
X162832505Y-102130572D01*
X162825683Y-102152733D01*
X162808540Y-102186478D01*
X162779393Y-102234800D01*
X162736555Y-102300692D01*
X162679448Y-102385517D01*
X162628766Y-102460177D01*
X162583461Y-102527140D01*
X162546150Y-102582516D01*
X162519452Y-102622420D01*
X162505985Y-102642962D01*
X162505137Y-102644356D01*
X162506781Y-102664038D01*
X162519245Y-102702293D01*
X162540048Y-102751889D01*
X162547462Y-102767728D01*
X162579814Y-102838290D01*
X162614328Y-102918353D01*
X162642365Y-102987629D01*
X162662568Y-103039045D01*
X162678615Y-103078119D01*
X162687888Y-103098541D01*
X162689041Y-103100114D01*
X162706096Y-103102721D01*
X162746298Y-103109863D01*
X162804302Y-103120523D01*
X162874763Y-103133685D01*
X162952335Y-103148333D01*
X163031672Y-103163449D01*
X163107431Y-103178018D01*
X163174264Y-103191022D01*
X163226828Y-103201445D01*
X163259776Y-103208270D01*
X163267857Y-103210199D01*
X163276205Y-103214962D01*
X163282506Y-103225718D01*
X163287045Y-103246098D01*
X163290104Y-103279734D01*
X163291967Y-103330255D01*
X163292918Y-103401292D01*
X163293240Y-103496476D01*
X163293257Y-103535492D01*
X163293257Y-103852799D01*
X163217057Y-103867839D01*
X163174663Y-103875995D01*
X163111400Y-103887899D01*
X163034962Y-103902116D01*
X162953043Y-103917210D01*
X162930400Y-103921355D01*
X162854806Y-103936053D01*
X162788953Y-103950505D01*
X162738366Y-103963375D01*
X162708574Y-103973322D01*
X162703612Y-103976287D01*
X162691426Y-103997283D01*
X162673953Y-104037967D01*
X162654577Y-104090322D01*
X162650734Y-104101600D01*
X162625339Y-104171523D01*
X162593817Y-104250418D01*
X162562969Y-104321266D01*
X162562817Y-104321595D01*
X162511447Y-104432733D01*
X162680399Y-104681253D01*
X162849352Y-104929772D01*
X162632429Y-105147058D01*
X162566819Y-105211726D01*
X162506979Y-105268733D01*
X162456267Y-105315033D01*
X162418046Y-105347584D01*
X162395675Y-105363343D01*
X162392466Y-105364343D01*
X162373626Y-105356469D01*
X162335180Y-105334578D01*
X162281330Y-105301267D01*
X162216276Y-105259131D01*
X162145940Y-105211943D01*
X162074555Y-105163810D01*
X162010908Y-105121928D01*
X161959041Y-105088871D01*
X161922995Y-105067218D01*
X161906867Y-105059543D01*
X161887189Y-105066037D01*
X161849875Y-105083150D01*
X161802621Y-105107326D01*
X161797612Y-105110013D01*
X161733977Y-105141927D01*
X161690341Y-105157579D01*
X161663202Y-105157745D01*
X161649057Y-105143204D01*
X161648975Y-105143000D01*
X161641905Y-105125779D01*
X161625042Y-105084899D01*
X161599695Y-105023525D01*
X161567171Y-104944819D01*
X161528778Y-104851947D01*
X161485822Y-104748072D01*
X161444222Y-104647502D01*
X161398504Y-104536516D01*
X161356526Y-104433703D01*
X161319548Y-104342215D01*
X161288827Y-104265201D01*
X161265622Y-104205815D01*
X161251190Y-104167209D01*
X161246743Y-104152800D01*
X161257896Y-104136272D01*
X161287069Y-104109930D01*
X161325971Y-104080887D01*
X161436757Y-103989039D01*
X161523351Y-103883759D01*
X161584716Y-103767266D01*
X161619815Y-103641776D01*
X161627608Y-103509507D01*
X161621943Y-103448457D01*
X161591078Y-103321795D01*
X161537920Y-103209941D01*
X161465767Y-103114001D01*
X161377917Y-103035076D01*
X161277665Y-102974270D01*
X161168310Y-102932687D01*
X161053147Y-102911428D01*
X160935475Y-102911599D01*
X160818590Y-102934301D01*
X160705789Y-102980638D01*
X160600369Y-103051713D01*
X160556368Y-103091911D01*
X160471979Y-103195129D01*
X160413222Y-103307925D01*
X160379704Y-103427010D01*
X160371035Y-103549095D01*
X160386823Y-103670893D01*
X160426678Y-103789116D01*
X160490207Y-103900475D01*
X160577021Y-104001684D01*
X160674029Y-104080887D01*
X160714437Y-104111162D01*
X160742982Y-104137219D01*
X160753257Y-104152825D01*
X160747877Y-104169843D01*
X160732575Y-104210500D01*
X160708612Y-104271642D01*
X160677244Y-104350119D01*
X160639732Y-104442780D01*
X160597333Y-104546472D01*
X160555663Y-104647526D01*
X160509690Y-104758607D01*
X160467107Y-104861541D01*
X160429221Y-104953165D01*
X160397340Y-105030316D01*
X160372771Y-105089831D01*
X160356820Y-105128544D01*
X160350910Y-105143000D01*
X160336948Y-105157685D01*
X160309940Y-105157642D01*
X160266413Y-105142099D01*
X160202890Y-105110284D01*
X160202388Y-105110013D01*
X160154560Y-105085323D01*
X160115897Y-105067338D01*
X160094095Y-105059614D01*
X160093133Y-105059543D01*
X160076721Y-105067378D01*
X160040487Y-105089165D01*
X159988474Y-105122328D01*
X159924725Y-105164291D01*
X159854060Y-105211943D01*
X159782116Y-105260191D01*
X159717274Y-105302151D01*
X159663735Y-105335227D01*
X159625697Y-105356821D01*
X159607533Y-105364343D01*
X159590808Y-105354457D01*
X159557180Y-105326826D01*
X159510010Y-105284495D01*
X159452658Y-105230505D01*
X159388484Y-105167899D01*
X159367497Y-105146983D01*
X159150499Y-104929623D01*
X159315668Y-104687220D01*
X159365864Y-104612781D01*
X159409919Y-104545972D01*
X159445362Y-104490665D01*
X159469719Y-104450729D01*
X159480522Y-104430036D01*
X159480838Y-104428563D01*
X159475143Y-104409058D01*
X159459826Y-104369822D01*
X159437537Y-104317430D01*
X159421893Y-104282355D01*
X159392641Y-104215201D01*
X159365094Y-104147358D01*
X159343737Y-104090034D01*
X159337935Y-104072572D01*
X159321452Y-104025938D01*
X159305340Y-103989905D01*
X159296490Y-103976287D01*
X159276960Y-103967952D01*
X159234334Y-103956137D01*
X159174145Y-103942181D01*
X159101922Y-103927422D01*
X159069600Y-103921355D01*
X158987522Y-103906273D01*
X158908795Y-103891669D01*
X158841109Y-103878980D01*
X158792160Y-103869642D01*
X158782943Y-103867839D01*
X158706743Y-103852799D01*
X158706743Y-103535492D01*
X158706914Y-103431154D01*
X158707616Y-103352213D01*
X158709134Y-103295038D01*
X158711749Y-103255999D01*
X158715746Y-103231465D01*
X158721409Y-103217805D01*
X158729020Y-103211389D01*
X158732143Y-103210199D01*
X158750978Y-103205980D01*
X158792588Y-103197562D01*
X158851630Y-103185961D01*
X158922757Y-103172195D01*
X159000625Y-103157280D01*
X159079887Y-103142232D01*
X159155198Y-103128069D01*
X159221213Y-103115806D01*
X159272587Y-103106461D01*
X159303975Y-103101050D01*
X159310959Y-103100114D01*
X159317285Y-103087596D01*
X159331290Y-103054246D01*
X159350355Y-103006377D01*
X159357634Y-102987629D01*
X159386996Y-102915195D01*
X159421571Y-102835170D01*
X159452537Y-102767728D01*
X159475323Y-102716159D01*
X159490482Y-102673785D01*
X159495542Y-102647834D01*
X159494736Y-102644356D01*
X159484041Y-102627936D01*
X159459620Y-102591417D01*
X159424095Y-102538687D01*
X159380087Y-102473635D01*
X159330217Y-102400151D01*
X159320356Y-102385645D01*
X159262492Y-102299704D01*
X159219956Y-102234261D01*
X159191054Y-102186304D01*
X159174090Y-102152820D01*
X159167367Y-102130795D01*
X159169190Y-102117217D01*
X159169236Y-102117131D01*
X159183586Y-102099297D01*
X159215323Y-102064817D01*
X159261010Y-102017268D01*
X159317204Y-101960222D01*
X159380468Y-101897255D01*
X159387602Y-101890227D01*
X159467330Y-101813020D01*
X159528857Y-101756330D01*
X159573421Y-101719110D01*
X159602257Y-101700315D01*
X159614958Y-101697889D01*
X159633494Y-101708471D01*
X159671961Y-101732916D01*
X159726386Y-101768612D01*
X159792798Y-101812947D01*
X159867225Y-101863311D01*
X159884601Y-101875160D01*
X160131297Y-102043626D01*
X160242706Y-101993062D01*
X160310457Y-101963595D01*
X160383183Y-101933959D01*
X160445703Y-101910330D01*
X160448457Y-101909358D01*
X160497360Y-101891457D01*
X160535057Y-101876320D01*
X160553425Y-101867210D01*
X160553456Y-101867184D01*
X160559285Y-101850717D01*
X160569192Y-101810219D01*
X160582195Y-101750242D01*
X160597309Y-101675340D01*
X160613552Y-101590064D01*
X160614881Y-101582875D01*
X160631175Y-101495014D01*
X160646133Y-101415260D01*
X160658791Y-101348681D01*
X160668186Y-101300347D01*
X160673354Y-101275325D01*
X160673444Y-101274943D01*
X160676589Y-101264299D01*
X160682704Y-101256262D01*
X160695453Y-101250467D01*
X160718500Y-101246547D01*
X160755509Y-101244135D01*
X160810144Y-101242865D01*
X160886067Y-101242371D01*
X160986944Y-101242286D01*
X161000000Y-101242286D01*
X161103910Y-101242348D01*
D13*
X168666666Y-104452380D02*
X168666666Y-105166666D01*
X168619047Y-105309523D01*
X168523809Y-105404761D01*
X168380952Y-105452380D01*
X168285714Y-105452380D01*
X169666666Y-105452380D02*
X169095238Y-105452380D01*
X169380952Y-105452380D02*
X169380952Y-104452380D01*
X169285714Y-104595238D01*
X169190476Y-104690476D01*
X169095238Y-104738095D01*
M02*
