G04 #@! TF.GenerationSoftware,KiCad,Pcbnew,5.0.2+dfsg1-1*
G04 #@! TF.CreationDate,2020-10-11T22:03:41+02:00*
G04 #@! TF.ProjectId,KBD_ADAPTER_XE,4b42445f-4144-4415-9054-45525f58452e,1.0*
G04 #@! TF.SameCoordinates,Original*
G04 #@! TF.FileFunction,Legend,Bot*
G04 #@! TF.FilePolarity,Positive*
%FSLAX46Y46*%
G04 Gerber Fmt 4.6, Leading zero omitted, Abs format (unit mm)*
G04 Created by KiCad (PCBNEW 5.0.2+dfsg1-1) date Sun 11 Oct 2020 10:03:41 PM CEST*
%MOMM*%
%LPD*%
G01*
G04 APERTURE LIST*
%ADD10C,0.300000*%
%ADD11C,0.150000*%
%ADD12C,0.120000*%
G04 APERTURE END LIST*
D10*
X173571428Y-108250000D02*
X172857142Y-108250000D01*
X173714285Y-108678571D02*
X173214285Y-107178571D01*
X172714285Y-108678571D01*
X172428571Y-107178571D02*
X171571428Y-107178571D01*
X172000000Y-108678571D02*
X172000000Y-107178571D01*
X171142857Y-108250000D02*
X170428571Y-108250000D01*
X171285714Y-108678571D02*
X170785714Y-107178571D01*
X170285714Y-108678571D01*
X168928571Y-108678571D02*
X169428571Y-107964285D01*
X169785714Y-108678571D02*
X169785714Y-107178571D01*
X169214285Y-107178571D01*
X169071428Y-107250000D01*
X169000000Y-107321428D01*
X168928571Y-107464285D01*
X168928571Y-107678571D01*
X169000000Y-107821428D01*
X169071428Y-107892857D01*
X169214285Y-107964285D01*
X169785714Y-107964285D01*
X168285714Y-108678571D02*
X168285714Y-107178571D01*
X166571428Y-107178571D02*
X165571428Y-108678571D01*
X165571428Y-107178571D02*
X166571428Y-108678571D01*
X165000000Y-107892857D02*
X164500000Y-107892857D01*
X164285714Y-108678571D02*
X165000000Y-108678571D01*
X165000000Y-107178571D01*
X164285714Y-107178571D01*
X162500000Y-108678571D02*
X162500000Y-107178571D01*
X162357142Y-108107142D02*
X161928571Y-108678571D01*
X161928571Y-107678571D02*
X162500000Y-108250000D01*
X160714285Y-108607142D02*
X160857142Y-108678571D01*
X161142857Y-108678571D01*
X161285714Y-108607142D01*
X161357142Y-108464285D01*
X161357142Y-107892857D01*
X161285714Y-107750000D01*
X161142857Y-107678571D01*
X160857142Y-107678571D01*
X160714285Y-107750000D01*
X160642857Y-107892857D01*
X160642857Y-108035714D01*
X161357142Y-108178571D01*
X160142857Y-107678571D02*
X159785714Y-108678571D01*
X159428571Y-107678571D02*
X159785714Y-108678571D01*
X159928571Y-109035714D01*
X160000000Y-109107142D01*
X160142857Y-109178571D01*
X158857142Y-108678571D02*
X158857142Y-107178571D01*
X158857142Y-107750000D02*
X158714285Y-107678571D01*
X158428571Y-107678571D01*
X158285714Y-107750000D01*
X158214285Y-107821428D01*
X158142857Y-107964285D01*
X158142857Y-108392857D01*
X158214285Y-108535714D01*
X158285714Y-108607142D01*
X158428571Y-108678571D01*
X158714285Y-108678571D01*
X158857142Y-108607142D01*
X157285714Y-108678571D02*
X157428571Y-108607142D01*
X157500000Y-108535714D01*
X157571428Y-108392857D01*
X157571428Y-107964285D01*
X157500000Y-107821428D01*
X157428571Y-107750000D01*
X157285714Y-107678571D01*
X157071428Y-107678571D01*
X156928571Y-107750000D01*
X156857142Y-107821428D01*
X156785714Y-107964285D01*
X156785714Y-108392857D01*
X156857142Y-108535714D01*
X156928571Y-108607142D01*
X157071428Y-108678571D01*
X157285714Y-108678571D01*
X155500000Y-108678571D02*
X155500000Y-107892857D01*
X155571428Y-107750000D01*
X155714285Y-107678571D01*
X156000000Y-107678571D01*
X156142857Y-107750000D01*
X155500000Y-108607142D02*
X155642857Y-108678571D01*
X156000000Y-108678571D01*
X156142857Y-108607142D01*
X156214285Y-108464285D01*
X156214285Y-108321428D01*
X156142857Y-108178571D01*
X156000000Y-108107142D01*
X155642857Y-108107142D01*
X155500000Y-108035714D01*
X154785714Y-108678571D02*
X154785714Y-107678571D01*
X154785714Y-107964285D02*
X154714285Y-107821428D01*
X154642857Y-107750000D01*
X154500000Y-107678571D01*
X154357142Y-107678571D01*
X153214285Y-108678571D02*
X153214285Y-107178571D01*
X153214285Y-108607142D02*
X153357142Y-108678571D01*
X153642857Y-108678571D01*
X153785714Y-108607142D01*
X153857142Y-108535714D01*
X153928571Y-108392857D01*
X153928571Y-107964285D01*
X153857142Y-107821428D01*
X153785714Y-107750000D01*
X153642857Y-107678571D01*
X153357142Y-107678571D01*
X153214285Y-107750000D01*
X150714285Y-108678571D02*
X150714285Y-107892857D01*
X150785714Y-107750000D01*
X150928571Y-107678571D01*
X151214285Y-107678571D01*
X151357142Y-107750000D01*
X150714285Y-108607142D02*
X150857142Y-108678571D01*
X151214285Y-108678571D01*
X151357142Y-108607142D01*
X151428571Y-108464285D01*
X151428571Y-108321428D01*
X151357142Y-108178571D01*
X151214285Y-108107142D01*
X150857142Y-108107142D01*
X150714285Y-108035714D01*
X149357142Y-108678571D02*
X149357142Y-107178571D01*
X149357142Y-108607142D02*
X149500000Y-108678571D01*
X149785714Y-108678571D01*
X149928571Y-108607142D01*
X150000000Y-108535714D01*
X150071428Y-108392857D01*
X150071428Y-107964285D01*
X150000000Y-107821428D01*
X149928571Y-107750000D01*
X149785714Y-107678571D01*
X149500000Y-107678571D01*
X149357142Y-107750000D01*
X148000000Y-108678571D02*
X148000000Y-107892857D01*
X148071428Y-107750000D01*
X148214285Y-107678571D01*
X148500000Y-107678571D01*
X148642857Y-107750000D01*
X148000000Y-108607142D02*
X148142857Y-108678571D01*
X148500000Y-108678571D01*
X148642857Y-108607142D01*
X148714285Y-108464285D01*
X148714285Y-108321428D01*
X148642857Y-108178571D01*
X148500000Y-108107142D01*
X148142857Y-108107142D01*
X148000000Y-108035714D01*
X147285714Y-107678571D02*
X147285714Y-109178571D01*
X147285714Y-107750000D02*
X147142857Y-107678571D01*
X146857142Y-107678571D01*
X146714285Y-107750000D01*
X146642857Y-107821428D01*
X146571428Y-107964285D01*
X146571428Y-108392857D01*
X146642857Y-108535714D01*
X146714285Y-108607142D01*
X146857142Y-108678571D01*
X147142857Y-108678571D01*
X147285714Y-108607142D01*
X146142857Y-107678571D02*
X145571428Y-107678571D01*
X145928571Y-107178571D02*
X145928571Y-108464285D01*
X145857142Y-108607142D01*
X145714285Y-108678571D01*
X145571428Y-108678571D01*
X144500000Y-108607142D02*
X144642857Y-108678571D01*
X144928571Y-108678571D01*
X145071428Y-108607142D01*
X145142857Y-108464285D01*
X145142857Y-107892857D01*
X145071428Y-107750000D01*
X144928571Y-107678571D01*
X144642857Y-107678571D01*
X144500000Y-107750000D01*
X144428571Y-107892857D01*
X144428571Y-108035714D01*
X145142857Y-108178571D01*
X143785714Y-108678571D02*
X143785714Y-107678571D01*
X143785714Y-107964285D02*
X143714285Y-107821428D01*
X143642857Y-107750000D01*
X143500000Y-107678571D01*
X143357142Y-107678571D01*
X141714285Y-108678571D02*
X141714285Y-107178571D01*
X141714285Y-107750000D02*
X141571428Y-107678571D01*
X141285714Y-107678571D01*
X141142857Y-107750000D01*
X141071428Y-107821428D01*
X141000000Y-107964285D01*
X141000000Y-108392857D01*
X141071428Y-108535714D01*
X141142857Y-108607142D01*
X141285714Y-108678571D01*
X141571428Y-108678571D01*
X141714285Y-108607142D01*
X140500000Y-107678571D02*
X140142857Y-108678571D01*
X139785714Y-107678571D02*
X140142857Y-108678571D01*
X140285714Y-109035714D01*
X140357142Y-109107142D01*
X140500000Y-109178571D01*
X137214285Y-108678571D02*
X137714285Y-107964285D01*
X138071428Y-108678571D02*
X138071428Y-107178571D01*
X137500000Y-107178571D01*
X137357142Y-107250000D01*
X137285714Y-107321428D01*
X137214285Y-107464285D01*
X137214285Y-107678571D01*
X137285714Y-107821428D01*
X137357142Y-107892857D01*
X137500000Y-107964285D01*
X138071428Y-107964285D01*
X136000000Y-108607142D02*
X136142857Y-108678571D01*
X136428571Y-108678571D01*
X136571428Y-108607142D01*
X136642857Y-108464285D01*
X136642857Y-107892857D01*
X136571428Y-107750000D01*
X136428571Y-107678571D01*
X136142857Y-107678571D01*
X136000000Y-107750000D01*
X135928571Y-107892857D01*
X135928571Y-108035714D01*
X136642857Y-108178571D01*
X135500000Y-107678571D02*
X134928571Y-107678571D01*
X135285714Y-107178571D02*
X135285714Y-108464285D01*
X135214285Y-108607142D01*
X135071428Y-108678571D01*
X134928571Y-108678571D01*
X134428571Y-108678571D02*
X134428571Y-107678571D01*
X134428571Y-107964285D02*
X134357142Y-107821428D01*
X134285714Y-107750000D01*
X134142857Y-107678571D01*
X134000000Y-107678571D01*
X133285714Y-108678571D02*
X133428571Y-108607142D01*
X133500000Y-108535714D01*
X133571428Y-108392857D01*
X133571428Y-107964285D01*
X133500000Y-107821428D01*
X133428571Y-107750000D01*
X133285714Y-107678571D01*
X133071428Y-107678571D01*
X132928571Y-107750000D01*
X132857142Y-107821428D01*
X132785714Y-107964285D01*
X132785714Y-108392857D01*
X132857142Y-108535714D01*
X132928571Y-108607142D01*
X133071428Y-108678571D01*
X133285714Y-108678571D01*
X131642857Y-107892857D02*
X131428571Y-107964285D01*
X131357142Y-108035714D01*
X131285714Y-108178571D01*
X131285714Y-108392857D01*
X131357142Y-108535714D01*
X131428571Y-108607142D01*
X131571428Y-108678571D01*
X132142857Y-108678571D01*
X132142857Y-107178571D01*
X131642857Y-107178571D01*
X131500000Y-107250000D01*
X131428571Y-107321428D01*
X131357142Y-107464285D01*
X131357142Y-107607142D01*
X131428571Y-107750000D01*
X131500000Y-107821428D01*
X131642857Y-107892857D01*
X132142857Y-107892857D01*
X130642857Y-108678571D02*
X130642857Y-107678571D01*
X130642857Y-107178571D02*
X130714285Y-107250000D01*
X130642857Y-107321428D01*
X130571428Y-107250000D01*
X130642857Y-107178571D01*
X130642857Y-107321428D01*
X130142857Y-107678571D02*
X129571428Y-107678571D01*
X129928571Y-107178571D02*
X129928571Y-108464285D01*
X129857142Y-108607142D01*
X129714285Y-108678571D01*
X129571428Y-108678571D01*
X128357142Y-108678571D02*
X129071428Y-108678571D01*
X129071428Y-107178571D01*
X127214285Y-108678571D02*
X127214285Y-107892857D01*
X127285714Y-107750000D01*
X127428571Y-107678571D01*
X127714285Y-107678571D01*
X127857142Y-107750000D01*
X127214285Y-108607142D02*
X127357142Y-108678571D01*
X127714285Y-108678571D01*
X127857142Y-108607142D01*
X127928571Y-108464285D01*
X127928571Y-108321428D01*
X127857142Y-108178571D01*
X127714285Y-108107142D01*
X127357142Y-108107142D01*
X127214285Y-108035714D01*
X126500000Y-108678571D02*
X126500000Y-107178571D01*
X126500000Y-107750000D02*
X126357142Y-107678571D01*
X126071428Y-107678571D01*
X125928571Y-107750000D01*
X125857142Y-107821428D01*
X125785714Y-107964285D01*
X125785714Y-108392857D01*
X125857142Y-108535714D01*
X125928571Y-108607142D01*
X126071428Y-108678571D01*
X126357142Y-108678571D01*
X126500000Y-108607142D01*
X124214285Y-107178571D02*
X123357142Y-107178571D01*
X123785714Y-108678571D02*
X123785714Y-107178571D01*
X122285714Y-108607142D02*
X122428571Y-108678571D01*
X122714285Y-108678571D01*
X122857142Y-108607142D01*
X122928571Y-108464285D01*
X122928571Y-107892857D01*
X122857142Y-107750000D01*
X122714285Y-107678571D01*
X122428571Y-107678571D01*
X122285714Y-107750000D01*
X122214285Y-107892857D01*
X122214285Y-108035714D01*
X122928571Y-108178571D01*
X120928571Y-108607142D02*
X121071428Y-108678571D01*
X121357142Y-108678571D01*
X121500000Y-108607142D01*
X121571428Y-108535714D01*
X121642857Y-108392857D01*
X121642857Y-107964285D01*
X121571428Y-107821428D01*
X121500000Y-107750000D01*
X121357142Y-107678571D01*
X121071428Y-107678571D01*
X120928571Y-107750000D01*
X120285714Y-108678571D02*
X120285714Y-107178571D01*
X119642857Y-108678571D02*
X119642857Y-107892857D01*
X119714285Y-107750000D01*
X119857142Y-107678571D01*
X120071428Y-107678571D01*
X120214285Y-107750000D01*
X120285714Y-107821428D01*
X117000000Y-107250000D02*
X117142857Y-107178571D01*
X117357142Y-107178571D01*
X117571428Y-107250000D01*
X117714285Y-107392857D01*
X117785714Y-107535714D01*
X117857142Y-107821428D01*
X117857142Y-108035714D01*
X117785714Y-108321428D01*
X117714285Y-108464285D01*
X117571428Y-108607142D01*
X117357142Y-108678571D01*
X117214285Y-108678571D01*
X117000000Y-108607142D01*
X116928571Y-108535714D01*
X116928571Y-108035714D01*
X117214285Y-108035714D01*
X115642857Y-107678571D02*
X115642857Y-108678571D01*
X116285714Y-107678571D02*
X116285714Y-108464285D01*
X116214285Y-108607142D01*
X116071428Y-108678571D01*
X115857142Y-108678571D01*
X115714285Y-108607142D01*
X115642857Y-108535714D01*
X115071428Y-107678571D02*
X114714285Y-108678571D01*
X114357142Y-107678571D02*
X114714285Y-108678571D01*
X114857142Y-109035714D01*
X114928571Y-109107142D01*
X115071428Y-109178571D01*
D11*
G04 #@! TO.C,J2*
X118444000Y-95372000D02*
X118444000Y-102992000D01*
X118444000Y-102992000D02*
X169244000Y-102992000D01*
X169244000Y-102992000D02*
X169244000Y-95372000D01*
X169244000Y-95372000D02*
X118444000Y-95372000D01*
D12*
X123778000Y-93594000D02*
X123524000Y-94102000D01*
X123270000Y-93594000D02*
X123778000Y-93594000D01*
X123524000Y-94102000D02*
X123270000Y-93594000D01*
D11*
X144177333Y-104474380D02*
X144177333Y-105188666D01*
X144224952Y-105331523D01*
X144320190Y-105426761D01*
X144463047Y-105474380D01*
X144558285Y-105474380D01*
X143748761Y-104569619D02*
X143701142Y-104522000D01*
X143605904Y-104474380D01*
X143367809Y-104474380D01*
X143272571Y-104522000D01*
X143224952Y-104569619D01*
X143177333Y-104664857D01*
X143177333Y-104760095D01*
X143224952Y-104902952D01*
X143796380Y-105474380D01*
X143177333Y-105474380D01*
G04 #@! TD*
M02*
