M48
;DRILL file {KiCad 5.0.2+dfsg1-1} date Sat 21 Nov 2020 11:39:05 AM CET
;FORMAT={-:-/ absolute / inch / decimal}
FMAT,2
INCH,TZ
T1C0.0157
T2C0.0358
%
G90
G05
T1
X4.8504Y-4.1437
X5.1181Y-4.2028
X5.315Y-4.1929
X5.4139Y-4.1038
X5.5217Y-4.1929
X5.7185Y-4.1929
X5.9154Y-4.1929
X6.0152Y-4.1692
X6.1438Y-4.1641
X6.1832Y-4.1485
X6.2801Y-4.1818
X6.578Y-4.2244
X6.8219Y-4.221
T2
X4.685Y-3.9469
X4.685Y-4.0469
X4.785Y-3.9469
X4.785Y-4.0469
X4.885Y-3.9469
X4.885Y-4.0469
X4.985Y-3.9469
X4.985Y-4.0469
X5.085Y-3.9469
X5.085Y-4.0469
X5.185Y-3.9469
X5.185Y-4.0469
X5.285Y-3.9469
X5.285Y-4.0469
X5.385Y-3.9469
X5.385Y-4.0469
X5.485Y-3.9469
X5.485Y-4.0469
X5.585Y-3.9469
X5.585Y-4.0469
X5.685Y-3.9469
X5.685Y-4.0469
X5.785Y-3.9469
X5.785Y-4.0469
X5.885Y-3.9469
X5.885Y-4.0469
X5.985Y-3.9469
X5.985Y-4.0469
X6.085Y-3.9469
X6.085Y-4.0469
X6.185Y-3.9469
X6.185Y-4.0469
X6.285Y-3.9469
X6.285Y-4.0469
T0
M30
