G04 #@! TF.GenerationSoftware,KiCad,Pcbnew,5.0.2+dfsg1-1*
G04 #@! TF.CreationDate,2020-11-21T11:39:02+01:00*
G04 #@! TF.ProjectId,KBD_ADAPTER_XE,4b42445f-4144-4415-9054-45525f58452e,1.0*
G04 #@! TF.SameCoordinates,Original*
G04 #@! TF.FileFunction,Legend,Bot*
G04 #@! TF.FilePolarity,Positive*
%FSLAX46Y46*%
G04 Gerber Fmt 4.6, Leading zero omitted, Abs format (unit mm)*
G04 Created by KiCad (PCBNEW 5.0.2+dfsg1-1) date Sat 21 Nov 2020 11:39:02 AM CET*
%MOMM*%
%LPD*%
G01*
G04 APERTURE LIST*
%ADD10C,0.200000*%
%ADD11C,0.150000*%
%ADD12C,0.120000*%
G04 APERTURE END LIST*
D10*
X168898809Y-109708333D02*
X168303571Y-109708333D01*
X169017857Y-110065476D02*
X168601190Y-108815476D01*
X168184523Y-110065476D01*
X167946428Y-108815476D02*
X167232142Y-108815476D01*
X167589285Y-110065476D02*
X167589285Y-108815476D01*
X166875000Y-109708333D02*
X166279761Y-109708333D01*
X166994047Y-110065476D02*
X166577380Y-108815476D01*
X166160714Y-110065476D01*
X165029761Y-110065476D02*
X165446428Y-109470238D01*
X165744047Y-110065476D02*
X165744047Y-108815476D01*
X165267857Y-108815476D01*
X165148809Y-108875000D01*
X165089285Y-108934523D01*
X165029761Y-109053571D01*
X165029761Y-109232142D01*
X165089285Y-109351190D01*
X165148809Y-109410714D01*
X165267857Y-109470238D01*
X165744047Y-109470238D01*
X164494047Y-110065476D02*
X164494047Y-108815476D01*
X163065476Y-108815476D02*
X162232142Y-110065476D01*
X162232142Y-108815476D02*
X163065476Y-110065476D01*
X161160714Y-110065476D02*
X161755952Y-110065476D01*
X161755952Y-108815476D01*
X159851190Y-108755952D02*
X160922619Y-110363095D01*
X159553571Y-108815476D02*
X158720238Y-110065476D01*
X158720238Y-108815476D02*
X159553571Y-110065476D01*
X158244047Y-109410714D02*
X157827380Y-109410714D01*
X157648809Y-110065476D02*
X158244047Y-110065476D01*
X158244047Y-108815476D01*
X157648809Y-108815476D01*
X156160714Y-110065476D02*
X156160714Y-108815476D01*
X156041666Y-109589285D02*
X155684523Y-110065476D01*
X155684523Y-109232142D02*
X156160714Y-109708333D01*
X154672619Y-110005952D02*
X154791666Y-110065476D01*
X155029761Y-110065476D01*
X155148809Y-110005952D01*
X155208333Y-109886904D01*
X155208333Y-109410714D01*
X155148809Y-109291666D01*
X155029761Y-109232142D01*
X154791666Y-109232142D01*
X154672619Y-109291666D01*
X154613095Y-109410714D01*
X154613095Y-109529761D01*
X155208333Y-109648809D01*
X154196428Y-109232142D02*
X153898809Y-110065476D01*
X153601190Y-109232142D02*
X153898809Y-110065476D01*
X154017857Y-110363095D01*
X154077380Y-110422619D01*
X154196428Y-110482142D01*
X153124999Y-110065476D02*
X153124999Y-108815476D01*
X153124999Y-109291666D02*
X153005952Y-109232142D01*
X152767857Y-109232142D01*
X152648809Y-109291666D01*
X152589285Y-109351190D01*
X152529761Y-109470238D01*
X152529761Y-109827380D01*
X152589285Y-109946428D01*
X152648809Y-110005952D01*
X152767857Y-110065476D01*
X153005952Y-110065476D01*
X153124999Y-110005952D01*
X151815476Y-110065476D02*
X151934523Y-110005952D01*
X151994047Y-109946428D01*
X152053571Y-109827380D01*
X152053571Y-109470238D01*
X151994047Y-109351190D01*
X151934523Y-109291666D01*
X151815476Y-109232142D01*
X151636904Y-109232142D01*
X151517857Y-109291666D01*
X151458333Y-109351190D01*
X151398809Y-109470238D01*
X151398809Y-109827380D01*
X151458333Y-109946428D01*
X151517857Y-110005952D01*
X151636904Y-110065476D01*
X151815476Y-110065476D01*
X150327380Y-110065476D02*
X150327380Y-109410714D01*
X150386904Y-109291666D01*
X150505952Y-109232142D01*
X150744047Y-109232142D01*
X150863095Y-109291666D01*
X150327380Y-110005952D02*
X150446428Y-110065476D01*
X150744047Y-110065476D01*
X150863095Y-110005952D01*
X150922619Y-109886904D01*
X150922619Y-109767857D01*
X150863095Y-109648809D01*
X150744047Y-109589285D01*
X150446428Y-109589285D01*
X150327380Y-109529761D01*
X149732142Y-110065476D02*
X149732142Y-109232142D01*
X149732142Y-109470238D02*
X149672619Y-109351190D01*
X149613095Y-109291666D01*
X149494047Y-109232142D01*
X149374999Y-109232142D01*
X148422619Y-110065476D02*
X148422619Y-108815476D01*
X148422619Y-110005952D02*
X148541666Y-110065476D01*
X148779761Y-110065476D01*
X148898809Y-110005952D01*
X148958333Y-109946428D01*
X149017857Y-109827380D01*
X149017857Y-109470238D01*
X148958333Y-109351190D01*
X148898809Y-109291666D01*
X148779761Y-109232142D01*
X148541666Y-109232142D01*
X148422619Y-109291666D01*
X146339285Y-110065476D02*
X146339285Y-109410714D01*
X146398809Y-109291666D01*
X146517857Y-109232142D01*
X146755952Y-109232142D01*
X146874999Y-109291666D01*
X146339285Y-110005952D02*
X146458333Y-110065476D01*
X146755952Y-110065476D01*
X146874999Y-110005952D01*
X146934523Y-109886904D01*
X146934523Y-109767857D01*
X146874999Y-109648809D01*
X146755952Y-109589285D01*
X146458333Y-109589285D01*
X146339285Y-109529761D01*
X145208333Y-110065476D02*
X145208333Y-108815476D01*
X145208333Y-110005952D02*
X145327380Y-110065476D01*
X145565476Y-110065476D01*
X145684523Y-110005952D01*
X145744047Y-109946428D01*
X145803571Y-109827380D01*
X145803571Y-109470238D01*
X145744047Y-109351190D01*
X145684523Y-109291666D01*
X145565476Y-109232142D01*
X145327380Y-109232142D01*
X145208333Y-109291666D01*
X144077380Y-110065476D02*
X144077380Y-109410714D01*
X144136904Y-109291666D01*
X144255952Y-109232142D01*
X144494047Y-109232142D01*
X144613095Y-109291666D01*
X144077380Y-110005952D02*
X144196428Y-110065476D01*
X144494047Y-110065476D01*
X144613095Y-110005952D01*
X144672619Y-109886904D01*
X144672619Y-109767857D01*
X144613095Y-109648809D01*
X144494047Y-109589285D01*
X144196428Y-109589285D01*
X144077380Y-109529761D01*
X143482142Y-109232142D02*
X143482142Y-110482142D01*
X143482142Y-109291666D02*
X143363095Y-109232142D01*
X143124999Y-109232142D01*
X143005952Y-109291666D01*
X142946428Y-109351190D01*
X142886904Y-109470238D01*
X142886904Y-109827380D01*
X142946428Y-109946428D01*
X143005952Y-110005952D01*
X143124999Y-110065476D01*
X143363095Y-110065476D01*
X143482142Y-110005952D01*
X142529761Y-109232142D02*
X142053571Y-109232142D01*
X142351190Y-108815476D02*
X142351190Y-109886904D01*
X142291666Y-110005952D01*
X142172619Y-110065476D01*
X142053571Y-110065476D01*
X141160714Y-110005952D02*
X141279761Y-110065476D01*
X141517857Y-110065476D01*
X141636904Y-110005952D01*
X141696428Y-109886904D01*
X141696428Y-109410714D01*
X141636904Y-109291666D01*
X141517857Y-109232142D01*
X141279761Y-109232142D01*
X141160714Y-109291666D01*
X141101190Y-109410714D01*
X141101190Y-109529761D01*
X141696428Y-109648809D01*
X140565476Y-110065476D02*
X140565476Y-109232142D01*
X140565476Y-109470238D02*
X140505952Y-109351190D01*
X140446428Y-109291666D01*
X140327380Y-109232142D01*
X140208333Y-109232142D01*
X138839285Y-110065476D02*
X138839285Y-108815476D01*
X138839285Y-109291666D02*
X138720238Y-109232142D01*
X138482142Y-109232142D01*
X138363095Y-109291666D01*
X138303571Y-109351190D01*
X138244047Y-109470238D01*
X138244047Y-109827380D01*
X138303571Y-109946428D01*
X138363095Y-110005952D01*
X138482142Y-110065476D01*
X138720238Y-110065476D01*
X138839285Y-110005952D01*
X137827380Y-109232142D02*
X137529761Y-110065476D01*
X137232142Y-109232142D02*
X137529761Y-110065476D01*
X137648809Y-110363095D01*
X137708333Y-110422619D01*
X137827380Y-110482142D01*
X135089285Y-110065476D02*
X135505952Y-109470238D01*
X135803571Y-110065476D02*
X135803571Y-108815476D01*
X135327380Y-108815476D01*
X135208333Y-108875000D01*
X135148809Y-108934523D01*
X135089285Y-109053571D01*
X135089285Y-109232142D01*
X135148809Y-109351190D01*
X135208333Y-109410714D01*
X135327380Y-109470238D01*
X135803571Y-109470238D01*
X134077380Y-110005952D02*
X134196428Y-110065476D01*
X134434523Y-110065476D01*
X134553571Y-110005952D01*
X134613095Y-109886904D01*
X134613095Y-109410714D01*
X134553571Y-109291666D01*
X134434523Y-109232142D01*
X134196428Y-109232142D01*
X134077380Y-109291666D01*
X134017857Y-109410714D01*
X134017857Y-109529761D01*
X134613095Y-109648809D01*
X133660714Y-109232142D02*
X133184523Y-109232142D01*
X133482142Y-108815476D02*
X133482142Y-109886904D01*
X133422619Y-110005952D01*
X133303571Y-110065476D01*
X133184523Y-110065476D01*
X132767857Y-110065476D02*
X132767857Y-109232142D01*
X132767857Y-109470238D02*
X132708333Y-109351190D01*
X132648809Y-109291666D01*
X132529761Y-109232142D01*
X132410714Y-109232142D01*
X131815476Y-110065476D02*
X131934523Y-110005952D01*
X131994047Y-109946428D01*
X132053571Y-109827380D01*
X132053571Y-109470238D01*
X131994047Y-109351190D01*
X131934523Y-109291666D01*
X131815476Y-109232142D01*
X131636904Y-109232142D01*
X131517857Y-109291666D01*
X131458333Y-109351190D01*
X131398809Y-109470238D01*
X131398809Y-109827380D01*
X131458333Y-109946428D01*
X131517857Y-110005952D01*
X131636904Y-110065476D01*
X131815476Y-110065476D01*
X130446428Y-109410714D02*
X130267857Y-109470238D01*
X130208333Y-109529761D01*
X130148809Y-109648809D01*
X130148809Y-109827380D01*
X130208333Y-109946428D01*
X130267857Y-110005952D01*
X130386904Y-110065476D01*
X130863095Y-110065476D01*
X130863095Y-108815476D01*
X130446428Y-108815476D01*
X130327380Y-108875000D01*
X130267857Y-108934523D01*
X130208333Y-109053571D01*
X130208333Y-109172619D01*
X130267857Y-109291666D01*
X130327380Y-109351190D01*
X130446428Y-109410714D01*
X130863095Y-109410714D01*
X129613095Y-110065476D02*
X129613095Y-109232142D01*
X129613095Y-108815476D02*
X129672619Y-108875000D01*
X129613095Y-108934523D01*
X129553571Y-108875000D01*
X129613095Y-108815476D01*
X129613095Y-108934523D01*
X129196428Y-109232142D02*
X128720238Y-109232142D01*
X129017857Y-108815476D02*
X129017857Y-109886904D01*
X128958333Y-110005952D01*
X128839285Y-110065476D01*
X128720238Y-110065476D01*
X127708333Y-110065476D02*
X128303571Y-110065476D01*
X128303571Y-108815476D01*
X126755952Y-110065476D02*
X126755952Y-109410714D01*
X126815476Y-109291666D01*
X126934523Y-109232142D01*
X127172619Y-109232142D01*
X127291666Y-109291666D01*
X126755952Y-110005952D02*
X126874999Y-110065476D01*
X127172619Y-110065476D01*
X127291666Y-110005952D01*
X127351190Y-109886904D01*
X127351190Y-109767857D01*
X127291666Y-109648809D01*
X127172619Y-109589285D01*
X126874999Y-109589285D01*
X126755952Y-109529761D01*
X126160714Y-110065476D02*
X126160714Y-108815476D01*
X126160714Y-109291666D02*
X126041666Y-109232142D01*
X125803571Y-109232142D01*
X125684523Y-109291666D01*
X125624999Y-109351190D01*
X125565476Y-109470238D01*
X125565476Y-109827380D01*
X125624999Y-109946428D01*
X125684523Y-110005952D01*
X125803571Y-110065476D01*
X126041666Y-110065476D01*
X126160714Y-110005952D01*
X124255952Y-108815476D02*
X123541666Y-108815476D01*
X123898809Y-110065476D02*
X123898809Y-108815476D01*
X122648809Y-110005952D02*
X122767857Y-110065476D01*
X123005952Y-110065476D01*
X123124999Y-110005952D01*
X123184523Y-109886904D01*
X123184523Y-109410714D01*
X123124999Y-109291666D01*
X123005952Y-109232142D01*
X122767857Y-109232142D01*
X122648809Y-109291666D01*
X122589285Y-109410714D01*
X122589285Y-109529761D01*
X123184523Y-109648809D01*
X121517857Y-110005952D02*
X121636904Y-110065476D01*
X121874999Y-110065476D01*
X121994047Y-110005952D01*
X122053571Y-109946428D01*
X122113095Y-109827380D01*
X122113095Y-109470238D01*
X122053571Y-109351190D01*
X121994047Y-109291666D01*
X121874999Y-109232142D01*
X121636904Y-109232142D01*
X121517857Y-109291666D01*
X120982142Y-110065476D02*
X120982142Y-108815476D01*
X120446428Y-110065476D02*
X120446428Y-109410714D01*
X120505952Y-109291666D01*
X120624999Y-109232142D01*
X120803571Y-109232142D01*
X120922619Y-109291666D01*
X120982142Y-109351190D01*
X118244047Y-108875000D02*
X118363095Y-108815476D01*
X118541666Y-108815476D01*
X118720238Y-108875000D01*
X118839285Y-108994047D01*
X118898809Y-109113095D01*
X118958333Y-109351190D01*
X118958333Y-109529761D01*
X118898809Y-109767857D01*
X118839285Y-109886904D01*
X118720238Y-110005952D01*
X118541666Y-110065476D01*
X118422619Y-110065476D01*
X118244047Y-110005952D01*
X118184523Y-109946428D01*
X118184523Y-109529761D01*
X118422619Y-109529761D01*
X117113095Y-109232142D02*
X117113095Y-110065476D01*
X117648809Y-109232142D02*
X117648809Y-109886904D01*
X117589285Y-110005952D01*
X117470238Y-110065476D01*
X117291666Y-110065476D01*
X117172619Y-110005952D01*
X117113095Y-109946428D01*
X116636904Y-109232142D02*
X116339285Y-110065476D01*
X116041666Y-109232142D02*
X116339285Y-110065476D01*
X116458333Y-110363095D01*
X116517857Y-110422619D01*
X116636904Y-110482142D01*
D11*
G04 #@! TO.C,J2*
X113920000Y-97710000D02*
X113920000Y-105330000D01*
X113920000Y-105330000D02*
X164720000Y-105330000D01*
X164720000Y-105330000D02*
X164720000Y-97710000D01*
X164720000Y-97710000D02*
X113920000Y-97710000D01*
D12*
X119254000Y-95932000D02*
X119000000Y-96440000D01*
X118746000Y-95932000D02*
X119254000Y-95932000D01*
X119000000Y-96440000D02*
X118746000Y-95932000D01*
D11*
X166833333Y-101242380D02*
X166833333Y-101956666D01*
X166880952Y-102099523D01*
X166976190Y-102194761D01*
X167119047Y-102242380D01*
X167214285Y-102242380D01*
X166404761Y-101337619D02*
X166357142Y-101290000D01*
X166261904Y-101242380D01*
X166023809Y-101242380D01*
X165928571Y-101290000D01*
X165880952Y-101337619D01*
X165833333Y-101432857D01*
X165833333Y-101528095D01*
X165880952Y-101670952D01*
X166452380Y-102242380D01*
X165833333Y-102242380D01*
G04 #@! TD*
M02*
