M48
;DRILL file {KiCad 5.0.2+dfsg1-1} date Sun 11 Oct 2020 10:03:44 PM CEST
;FORMAT={-:-/ absolute / inch / decimal}
FMAT,2
INCH,TZ
T1C0.0157
T2C0.0358
%
G90
G05
T1
X5.3504Y-4.036
X5.5167Y-4.062
X5.7165Y-4.0748
X5.811Y-3.811
X5.8189Y-4.0787
X5.9213Y-4.0748
X6.0866Y-4.0315
X6.1299Y-4.0748
X6.5315Y-3.9094
X6.563Y-4.0197
T2
X4.8631Y-3.8548
X4.8631Y-3.9548
X4.9631Y-3.8548
X4.9631Y-3.9548
X5.0631Y-3.8548
X5.0631Y-3.9548
X5.1631Y-3.8548
X5.1631Y-3.9548
X5.2631Y-3.8548
X5.2631Y-3.9548
X5.3631Y-3.8548
X5.3631Y-3.9548
X5.4631Y-3.8548
X5.4631Y-3.9548
X5.5631Y-3.8548
X5.5631Y-3.9548
X5.6631Y-3.8548
X5.6631Y-3.9548
X5.7631Y-3.8548
X5.7631Y-3.9548
X5.8631Y-3.8548
X5.8631Y-3.9548
X5.9631Y-3.8548
X5.9631Y-3.9548
X6.0631Y-3.8548
X6.0631Y-3.9548
X6.1631Y-3.8548
X6.1631Y-3.9548
X6.2631Y-3.8548
X6.2631Y-3.9548
X6.3631Y-3.8548
X6.3631Y-3.9548
X6.4631Y-3.8548
X6.4631Y-3.9548
T0
M30
