  0
SECTION
  2
HEADER
  9
$ACADVER
  1
AC1009
  9
$EXTMIN
 10
0.0
 20
0.0
 30
0.0
  9
$EXTMAX
 10
1000.0
 20
1000.0
 30
0.0
  9
$FILLMODE
 70
 0
  9
$SPLFRAME
 70
 1
  0
ENDSEC
  0
SECTION
  2
TABLES
  0
TABLE
  2
LAYER
 70
1
  0
LAYER
  2
0
 70
     0
 62
     7
  6
CONTINUOUS
  0
ENDTAB
  0
ENDSEC
  0
SECTION
  2
ENTITIES
  0
LINE
  8
0
 62
     0
 10
81.2959
 20
105.385
 30
0.0
 11
81.6889
 21
105.37
 31
0.0
  0
LINE
  8
0
 62
     0
 10
81.6889
 20
105.37
 30
0.0
 11
82.0787
 21
105.324
 31
0.0
  0
LINE
  8
0
 62
     0
 10
82.0787
 20
105.324
 30
0.0
 11
82.4632
 21
105.248
 31
0.0
  0
LINE
  8
0
 62
     0
 10
82.4632
 20
105.248
 30
0.0
 11
82.8421
 21
105.142
 31
0.0
  0
LINE
  8
0
 62
     0
 10
82.8421
 20
105.142
 30
0.0
 11
83.21
 21
105.005
 31
0.0
  0
LINE
  8
0
 62
     0
 10
83.21
 20
105.005
 30
0.0
 11
83.5656
 21
104.841
 31
0.0
  0
LINE
  8
0
 62
     0
 10
83.5656
 20
104.841
 30
0.0
 11
83.7198
 21
104.756
 31
0.0
  0
LINE
  8
0
 62
     0
 10
83.7198
 20
104.756
 30
0.0
 11
83.414
 21
104.599
 31
0.0
  0
LINE
  8
0
 62
     0
 10
83.414
 20
104.599
 30
0.0
 11
83.082
 21
104.267
 31
0.0
  0
LINE
  8
0
 62
     0
 10
83.082
 20
104.267
 30
0.0
 11
82.8696
 21
103.849
 31
0.0
  0
LINE
  8
0
 62
     0
 10
82.8696
 20
103.849
 30
0.0
 11
82.7966
 21
103.385
 31
0.0
  0
LINE
  8
0
 62
     0
 10
82.7966
 20
103.385
 30
0.0
 11
82.8696
 21
102.922
 31
0.0
  0
LINE
  8
0
 62
     0
 10
82.8696
 20
102.922
 30
0.0
 11
83.082
 21
102.504
 31
0.0
  0
LINE
  8
0
 62
     0
 10
83.082
 20
102.504
 30
0.0
 11
83.414
 21
102.172
 31
0.0
  0
LINE
  8
0
 62
     0
 10
83.414
 20
102.172
 30
0.0
 11
83.8331
 21
101.96
 31
0.0
  0
LINE
  8
0
 62
     0
 10
83.8331
 20
101.96
 30
0.0
 11
84.2959
 21
101.885
 31
0.0
  0
LINE
  8
0
 62
     0
 10
84.2959
 20
101.885
 30
0.0
 11
84.7591
 21
101.96
 31
0.0
  0
LINE
  8
0
 62
     0
 10
84.7591
 20
101.96
 30
0.0
 11
85.1778
 21
102.172
 31
0.0
  0
LINE
  8
0
 62
     0
 10
85.1778
 20
102.172
 30
0.0
 11
85.5102
 21
102.504
 31
0.0
  0
LINE
  8
0
 62
     0
 10
85.5102
 20
102.504
 30
0.0
 11
85.6657
 21
102.809
 31
0.0
  0
LINE
  8
0
 62
     0
 10
85.6657
 20
102.809
 30
0.0
 11
85.7511
 21
102.656
 31
0.0
  0
LINE
  8
0
 62
     0
 10
85.7511
 20
102.656
 30
0.0
 11
85.9151
 21
102.299
 31
0.0
  0
LINE
  8
0
 62
     0
 10
85.9151
 20
102.299
 30
0.0
 11
86.0517
 21
101.931
 31
0.0
  0
LINE
  8
0
 62
     0
 10
86.0517
 20
101.931
 30
0.0
 11
86.1579
 21
101.553
 31
0.0
  0
LINE
  8
0
 62
     0
 10
86.1579
 20
101.553
 30
0.0
 11
86.2348
 21
101.169
 31
0.0
  0
LINE
  8
0
 62
     0
 10
86.2348
 20
101.169
 30
0.0
 11
86.2803
 21
100.779
 31
0.0
  0
LINE
  8
0
 62
     0
 10
86.2803
 20
100.779
 30
0.0
 11
86.2969
 21
100.385
 31
0.0
  0
LINE
  8
0
 62
     0
 10
86.2969
 20
100.385
 30
0.0
 11
86.2969
 21
5.13457
 31
0.0
  0
LINE
  8
0
 62
     0
 10
86.2969
 20
5.13457
 30
0.0
 11
86.2803
 21
4.74183
 31
0.0
  0
LINE
  8
0
 62
     0
 10
86.2803
 20
4.74183
 30
0.0
 11
86.2348
 21
4.35183
 31
0.0
  0
LINE
  8
0
 62
     0
 10
86.2348
 20
4.35183
 30
0.0
 11
86.1579
 21
3.96737
 31
0.0
  0
LINE
  8
0
 62
     0
 10
86.1579
 20
3.96737
 30
0.0
 11
86.0517
 21
3.58842
 31
0.0
  0
LINE
  8
0
 62
     0
 10
86.0517
 20
3.58842
 30
0.0
 11
85.9151
 21
3.22048
 31
0.0
  0
LINE
  8
0
 62
     0
 10
85.9151
 20
3.22048
 30
0.0
 11
85.7511
 21
2.86494
 31
0.0
  0
LINE
  8
0
 62
     0
 10
85.7511
 20
2.86494
 30
0.0
 11
85.6657
 21
2.7106
 31
0.0
  0
LINE
  8
0
 62
     0
 10
85.6657
 20
2.7106
 30
0.0
 11
85.5102
 21
3.01653
 31
0.0
  0
LINE
  8
0
 62
     0
 10
85.5102
 20
3.01653
 30
0.0
 11
85.1778
 21
3.34863
 31
0.0
  0
LINE
  8
0
 62
     0
 10
85.1778
 20
3.34863
 30
0.0
 11
84.7591
 21
3.56087
 31
0.0
  0
LINE
  8
0
 62
     0
 10
84.7591
 20
3.56087
 30
0.0
 11
84.2959
 21
3.63389
 31
0.0
  0
LINE
  8
0
 62
     0
 10
84.2959
 20
3.63389
 30
0.0
 11
83.8331
 21
3.56087
 31
0.0
  0
LINE
  8
0
 62
     0
 10
83.8331
 20
3.56087
 30
0.0
 11
83.414
 21
3.34863
 31
0.0
  0
LINE
  8
0
 62
     0
 10
83.414
 20
3.34863
 30
0.0
 11
83.082
 21
3.01653
 31
0.0
  0
LINE
  8
0
 62
     0
 10
83.082
 20
3.01653
 30
0.0
 11
82.8696
 21
2.5976
 31
0.0
  0
LINE
  8
0
 62
     0
 10
82.8696
 20
2.5976
 30
0.0
 11
82.7966
 21
2.13458
 31
0.0
  0
LINE
  8
0
 62
     0
 10
82.7966
 20
2.13458
 30
0.0
 11
82.8696
 21
1.67156
 31
0.0
  0
LINE
  8
0
 62
     0
 10
82.8696
 20
1.67156
 30
0.0
 11
83.082
 21
1.25264
 31
0.0
  0
LINE
  8
0
 62
     0
 10
83.082
 20
1.25264
 30
0.0
 11
83.414
 21
0.920531
 31
0.0
  0
LINE
  8
0
 62
     0
 10
83.414
 20
0.920531
 30
0.0
 11
83.7198
 21
0.764812
 31
0.0
  0
LINE
  8
0
 62
     0
 10
83.7198
 20
0.764812
 30
0.0
 11
83.5656
 21
0.679372
 31
0.0
  0
LINE
  8
0
 62
     0
 10
83.5656
 20
0.679372
 30
0.0
 11
83.21
 21
0.515387
 31
0.0
  0
LINE
  8
0
 62
     0
 10
83.21
 20
0.515387
 30
0.0
 11
82.8421
 21
0.378961
 31
0.0
  0
LINE
  8
0
 62
     0
 10
82.8421
 20
0.378961
 30
0.0
 11
82.4632
 21
0.272852
 31
0.0
  0
LINE
  8
0
 62
     0
 10
82.4632
 20
0.272852
 30
0.0
 11
82.0787
 21
0.195682
 31
0.0
  0
LINE
  8
0
 62
     0
 10
82.0787
 20
0.195682
 30
0.0
 11
81.6889
 21
0.150206
 31
0.0
  0
LINE
  8
0
 62
     0
 10
81.6889
 20
0.150206
 30
0.0
 11
81.2959
 21
0.13367
 31
0.0
  0
LINE
  8
0
 62
     0
 10
81.2959
 20
0.13367
 30
0.0
 11
5.09598
 21
0.13367
 31
0.0
  0
LINE
  8
0
 62
     0
 10
5.09598
 20
0.13367
 30
0.0
 11
4.70186
 21
0.150206
 31
0.0
  0
LINE
  8
0
 62
     0
 10
4.70186
 20
0.150206
 30
0.0
 11
4.3119
 21
0.195682
 31
0.0
  0
LINE
  8
0
 62
     0
 10
4.3119
 20
0.195682
 30
0.0
 11
3.9274
 21
0.272852
 31
0.0
  0
LINE
  8
0
 62
     0
 10
3.9274
 20
0.272852
 30
0.0
 11
3.54983
 21
0.378961
 31
0.0
  0
LINE
  8
0
 62
     0
 10
3.54983
 20
0.378961
 30
0.0
 11
3.18189
 21
0.515387
 31
0.0
  0
LINE
  8
0
 62
     0
 10
3.18189
 20
0.515387
 30
0.0
 11
2.82498
 21
0.679372
 31
0.0
  0
LINE
  8
0
 62
     0
 10
2.82498
 20
0.679372
 30
0.0
 11
2.67202
 21
0.764812
 31
0.0
  0
LINE
  8
0
 62
     0
 10
2.67202
 20
0.764812
 30
0.0
 11
2.97656
 21
0.920531
 31
0.0
  0
LINE
  8
0
 62
     0
 10
2.97656
 20
0.920531
 30
0.0
 11
3.30867
 21
1.25264
 31
0.0
  0
LINE
  8
0
 62
     0
 10
3.30867
 20
1.25264
 30
0.0
 11
3.52089
 21
1.67156
 31
0.0
  0
LINE
  8
0
 62
     0
 10
3.52089
 20
1.67156
 30
0.0
 11
3.5953
 21
2.13458
 31
0.0
  0
LINE
  8
0
 62
     0
 10
3.5953
 20
2.13458
 30
0.0
 11
3.52089
 21
2.5976
 31
0.0
  0
LINE
  8
0
 62
     0
 10
3.52089
 20
2.5976
 30
0.0
 11
3.30867
 21
3.01653
 31
0.0
  0
LINE
  8
0
 62
     0
 10
3.30867
 20
3.01653
 30
0.0
 11
2.97656
 21
3.34863
 31
0.0
  0
LINE
  8
0
 62
     0
 10
2.97656
 20
3.34863
 30
0.0
 11
2.55902
 21
3.56087
 31
0.0
  0
LINE
  8
0
 62
     0
 10
2.55902
 20
3.56087
 30
0.0
 11
2.096
 21
3.63389
 31
0.0
  0
LINE
  8
0
 62
     0
 10
2.096
 20
3.63389
 30
0.0
 11
1.6316
 21
3.56087
 31
0.0
  0
LINE
  8
0
 62
     0
 10
1.6316
 20
3.56087
 30
0.0
 11
1.21405
 21
3.34863
 31
0.0
  0
LINE
  8
0
 62
     0
 10
1.21405
 20
3.34863
 30
0.0
 11
0.881944
 21
3.01653
 31
0.0
  0
LINE
  8
0
 62
     0
 10
0.881944
 20
3.01653
 30
0.0
 11
0.724849
 21
2.7106
 31
0.0
  0
LINE
  8
0
 62
     0
 10
0.724849
 20
2.7106
 30
0.0
 11
0.63941
 21
2.86494
 31
0.0
  0
LINE
  8
0
 62
     0
 10
0.63941
 20
2.86494
 30
0.0
 11
0.475424
 21
3.22048
 31
0.0
  0
LINE
  8
0
 62
     0
 10
0.475424
 20
3.22048
 30
0.0
 11
0.338998
 21
3.58842
 31
0.0
  0
LINE
  8
0
 62
     0
 10
0.338998
 20
3.58842
 30
0.0
 11
0.232888
 21
3.96737
 31
0.0
  0
LINE
  8
0
 62
     0
 10
0.232888
 20
3.96737
 30
0.0
 11
0.157097
 21
4.35183
 31
0.0
  0
LINE
  8
0
 62
     0
 10
0.157097
 20
4.35183
 30
0.0
 11
0.110243
 21
4.74183
 31
0.0
  0
LINE
  8
0
 62
     0
 10
0.110243
 20
4.74183
 30
0.0
 11
0.0950846
 21
5.13457
 31
0.0
  0
LINE
  8
0
 62
     0
 10
0.0950846
 20
5.13457
 30
0.0
 11
0.0950846
 21
100.385
 31
0.0
  0
LINE
  8
0
 62
     0
 10
0.0950846
 20
100.385
 30
0.0
 11
0.110243
 21
100.779
 31
0.0
  0
LINE
  8
0
 62
     0
 10
0.110243
 20
100.779
 30
0.0
 11
0.157097
 21
101.169
 31
0.0
  0
LINE
  8
0
 62
     0
 10
0.157097
 20
101.169
 30
0.0
 11
0.232888
 21
101.553
 31
0.0
  0
LINE
  8
0
 62
     0
 10
0.232888
 20
101.553
 30
0.0
 11
0.338998
 21
101.931
 31
0.0
  0
LINE
  8
0
 62
     0
 10
0.338998
 20
101.931
 30
0.0
 11
0.475424
 21
102.299
 31
0.0
  0
LINE
  8
0
 62
     0
 10
0.475424
 20
102.299
 30
0.0
 11
0.63941
 21
102.656
 31
0.0
  0
LINE
  8
0
 62
     0
 10
0.63941
 20
102.656
 30
0.0
 11
0.724849
 21
102.809
 31
0.0
  0
LINE
  8
0
 62
     0
 10
0.724849
 20
102.809
 30
0.0
 11
0.881944
 21
102.504
 31
0.0
  0
LINE
  8
0
 62
     0
 10
0.881944
 20
102.504
 30
0.0
 11
1.21405
 21
102.172
 31
0.0
  0
LINE
  8
0
 62
     0
 10
1.21405
 20
102.172
 30
0.0
 11
1.6316
 21
101.96
 31
0.0
  0
LINE
  8
0
 62
     0
 10
1.6316
 20
101.96
 30
0.0
 11
2.096
 21
101.885
 31
0.0
  0
LINE
  8
0
 62
     0
 10
2.096
 20
101.885
 30
0.0
 11
2.55902
 21
101.96
 31
0.0
  0
LINE
  8
0
 62
     0
 10
2.55902
 20
101.96
 30
0.0
 11
2.97656
 21
102.172
 31
0.0
  0
LINE
  8
0
 62
     0
 10
2.97656
 20
102.172
 30
0.0
 11
3.30867
 21
102.504
 31
0.0
  0
LINE
  8
0
 62
     0
 10
3.30867
 20
102.504
 30
0.0
 11
3.52089
 21
102.922
 31
0.0
  0
LINE
  8
0
 62
     0
 10
3.52089
 20
102.922
 30
0.0
 11
3.5953
 21
103.385
 31
0.0
  0
LINE
  8
0
 62
     0
 10
3.5953
 20
103.385
 30
0.0
 11
3.52089
 21
103.849
 31
0.0
  0
LINE
  8
0
 62
     0
 10
3.52089
 20
103.849
 30
0.0
 11
3.30867
 21
104.267
 31
0.0
  0
LINE
  8
0
 62
     0
 10
3.30867
 20
104.267
 30
0.0
 11
2.97656
 21
104.599
 31
0.0
  0
LINE
  8
0
 62
     0
 10
2.97656
 20
104.599
 30
0.0
 11
2.67202
 21
104.756
 31
0.0
  0
LINE
  8
0
 62
     0
 10
2.67202
 20
104.756
 30
0.0
 11
2.82498
 21
104.841
 31
0.0
  0
LINE
  8
0
 62
     0
 10
2.82498
 20
104.841
 30
0.0
 11
3.18189
 21
105.005
 31
0.0
  0
LINE
  8
0
 62
     0
 10
3.18189
 20
105.005
 30
0.0
 11
3.54983
 21
105.142
 31
0.0
  0
LINE
  8
0
 62
     0
 10
3.54983
 20
105.142
 30
0.0
 11
3.9274
 21
105.248
 31
0.0
  0
LINE
  8
0
 62
     0
 10
3.9274
 20
105.248
 30
0.0
 11
4.3119
 21
105.324
 31
0.0
  0
LINE
  8
0
 62
     0
 10
4.3119
 20
105.324
 30
0.0
 11
4.70186
 21
105.37
 31
0.0
  0
LINE
  8
0
 62
     0
 10
4.70186
 20
105.37
 30
0.0
 11
5.09598
 21
105.385
 31
0.0
  0
LINE
  8
0
 62
     0
 10
5.09598
 20
105.385
 30
0.0
 11
81.2959
 21
105.385
 31
0.0
  0
LINE
  8
0
 62
     0
 10
17.1456
 20
21.66
 30
0.0
 11
17.1456
 21
20.6595
 31
0.0
  0
LINE
  8
0
 62
     0
 10
17.1456
 20
20.6595
 30
0.0
 11
16.3449
 21
20.6595
 31
0.0
  0
LINE
  8
0
 62
     0
 10
16.3449
 20
20.6595
 30
0.0
 11
16.3449
 21
17.5617
 31
0.0
  0
LINE
  8
0
 62
     0
 10
16.3449
 20
17.5617
 30
0.0
 11
17.1456
 21
17.5617
 31
0.0
  0
LINE
  8
0
 62
     0
 10
17.1456
 20
17.5617
 30
0.0
 11
17.1456
 21
16.9595
 31
0.0
  0
LINE
  8
0
 62
     0
 10
17.1456
 20
16.9595
 30
0.0
 11
15.62
 21
16.9595
 31
0.0
  0
LINE
  8
0
 62
     0
 10
15.62
 20
16.9595
 30
0.0
 11
15.62
 21
20.1896
 31
0.0
  0
LINE
  8
0
 62
     0
 10
15.62
 20
20.1896
 30
0.0
 11
13.8961
 21
20.1896
 31
0.0
  0
LINE
  8
0
 62
     0
 10
13.8961
 20
20.1896
 30
0.0
 11
13.8961
 21
21.1116
 31
0.0
  0
LINE
  8
0
 62
     0
 10
13.8961
 20
21.1116
 30
0.0
 11
10.5958
 21
21.1116
 31
0.0
  0
LINE
  8
0
 62
     0
 10
10.5958
 20
21.1116
 30
0.0
 11
10.5958
 21
20.1896
 31
0.0
  0
LINE
  8
0
 62
     0
 10
10.5958
 20
20.1896
 30
0.0
 11
8.87042
 21
20.1896
 31
0.0
  0
LINE
  8
0
 62
     0
 10
8.87042
 20
20.1896
 30
0.0
 11
8.87042
 21
16.9595
 31
0.0
  0
LINE
  8
0
 62
     0
 10
8.87042
 20
16.9595
 30
0.0
 11
8.04499
 21
16.9595
 31
0.0
  0
LINE
  8
0
 62
     0
 10
8.04499
 20
16.9595
 30
0.0
 11
8.04499
 21
14.1607
 31
0.0
  0
LINE
  8
0
 62
     0
 10
8.04499
 20
14.1607
 30
0.0
 11
8.87042
 21
14.1607
 31
0.0
  0
LINE
  8
0
 62
     0
 10
8.87042
 20
14.1607
 30
0.0
 11
8.87042
 21
7.89065
 31
0.0
  0
LINE
  8
0
 62
     0
 10
8.87042
 20
7.89065
 30
0.0
 11
10.5958
 21
7.89065
 31
0.0
  0
LINE
  8
0
 62
     0
 10
10.5958
 20
7.89065
 30
0.0
 11
10.5958
 21
6.90947
 31
0.0
  0
LINE
  8
0
 62
     0
 10
10.5958
 20
6.90947
 30
0.0
 11
13.8961
 21
6.90947
 31
0.0
  0
LINE
  8
0
 62
     0
 10
13.8961
 20
6.90947
 30
0.0
 11
13.8961
 21
7.89065
 31
0.0
  0
LINE
  8
0
 62
     0
 10
13.8961
 20
7.89065
 30
0.0
 11
15.62
 21
7.89065
 31
0.0
  0
LINE
  8
0
 62
     0
 10
15.62
 20
7.89065
 30
0.0
 11
15.62
 21
12.361
 31
0.0
  0
LINE
  8
0
 62
     0
 10
15.62
 20
12.361
 30
0.0
 11
17.1456
 21
12.361
 31
0.0
  0
LINE
  8
0
 62
     0
 10
17.1456
 20
12.361
 30
0.0
 11
17.1456
 21
11.7602
 31
0.0
  0
LINE
  8
0
 62
     0
 10
17.1456
 20
11.7602
 30
0.0
 11
16.3449
 21
11.7602
 31
0.0
  0
LINE
  8
0
 62
     0
 10
16.3449
 20
11.7602
 30
0.0
 11
16.3449
 21
8.6596
 31
0.0
  0
LINE
  8
0
 62
     0
 10
16.3449
 20
8.6596
 30
0.0
 11
17.1456
 21
8.6596
 31
0.0
  0
LINE
  8
0
 62
     0
 10
17.1456
 20
8.6596
 30
0.0
 11
17.1456
 21
7.6605
 31
0.0
  0
LINE
  8
0
 62
     0
 10
17.1456
 20
7.6605
 30
0.0
 11
31.1451
 21
7.6605
 31
0.0
  0
LINE
  8
0
 62
     0
 10
31.1451
 20
7.6605
 30
0.0
 11
31.1451
 21
8.6596
 31
0.0
  0
LINE
  8
0
 62
     0
 10
31.1451
 20
8.6596
 30
0.0
 11
31.9457
 21
8.6596
 31
0.0
  0
LINE
  8
0
 62
     0
 10
31.9457
 20
8.6596
 30
0.0
 11
31.9457
 21
11.7602
 31
0.0
  0
LINE
  8
0
 62
     0
 10
31.9457
 20
11.7602
 30
0.0
 11
31.1451
 21
11.7602
 31
0.0
  0
LINE
  8
0
 62
     0
 10
31.1451
 20
11.7602
 30
0.0
 11
31.1451
 21
12.361
 31
0.0
  0
LINE
  8
0
 62
     0
 10
31.1451
 20
12.361
 30
0.0
 11
32.6705
 21
12.361
 31
0.0
  0
LINE
  8
0
 62
     0
 10
32.6705
 20
12.361
 30
0.0
 11
32.6705
 21
7.89065
 31
0.0
  0
LINE
  8
0
 62
     0
 10
32.6705
 20
7.89065
 30
0.0
 11
34.3958
 21
7.89065
 31
0.0
  0
LINE
  8
0
 62
     0
 10
34.3958
 20
7.89065
 30
0.0
 11
34.3958
 21
6.90947
 31
0.0
  0
LINE
  8
0
 62
     0
 10
34.3958
 20
6.90947
 30
0.0
 11
37.695
 21
6.90947
 31
0.0
  0
LINE
  8
0
 62
     0
 10
37.695
 20
6.90947
 30
0.0
 11
37.695
 21
7.89065
 31
0.0
  0
LINE
  8
0
 62
     0
 10
37.695
 20
7.89065
 30
0.0
 11
39.4201
 21
7.89065
 31
0.0
  0
LINE
  8
0
 62
     0
 10
39.4201
 20
7.89065
 30
0.0
 11
39.4201
 21
14.1607
 31
0.0
  0
LINE
  8
0
 62
     0
 10
39.4201
 20
14.1607
 30
0.0
 11
40.2456
 21
14.1607
 31
0.0
  0
LINE
  8
0
 62
     0
 10
40.2456
 20
14.1607
 30
0.0
 11
40.2456
 21
16.9595
 31
0.0
  0
LINE
  8
0
 62
     0
 10
40.2456
 20
16.9595
 30
0.0
 11
39.4201
 21
16.9595
 31
0.0
  0
LINE
  8
0
 62
     0
 10
39.4201
 20
16.9595
 30
0.0
 11
39.4201
 21
20.1896
 31
0.0
  0
LINE
  8
0
 62
     0
 10
39.4201
 20
20.1896
 30
0.0
 11
37.695
 21
20.1896
 31
0.0
  0
LINE
  8
0
 62
     0
 10
37.695
 20
20.1896
 30
0.0
 11
37.695
 21
21.1116
 31
0.0
  0
LINE
  8
0
 62
     0
 10
37.695
 20
21.1116
 30
0.0
 11
34.3958
 21
21.1116
 31
0.0
  0
LINE
  8
0
 62
     0
 10
34.3958
 20
21.1116
 30
0.0
 11
34.3958
 21
20.1896
 31
0.0
  0
LINE
  8
0
 62
     0
 10
34.3958
 20
20.1896
 30
0.0
 11
32.6705
 21
20.1896
 31
0.0
  0
LINE
  8
0
 62
     0
 10
32.6705
 20
20.1896
 30
0.0
 11
32.6705
 21
16.9595
 31
0.0
  0
LINE
  8
0
 62
     0
 10
32.6705
 20
16.9595
 30
0.0
 11
31.1451
 21
16.9595
 31
0.0
  0
LINE
  8
0
 62
     0
 10
31.1451
 20
16.9595
 30
0.0
 11
31.1451
 21
17.5617
 31
0.0
  0
LINE
  8
0
 62
     0
 10
31.1451
 20
17.5617
 30
0.0
 11
31.9457
 21
17.5617
 31
0.0
  0
LINE
  8
0
 62
     0
 10
31.9457
 20
17.5617
 30
0.0
 11
31.9457
 21
20.6595
 31
0.0
  0
LINE
  8
0
 62
     0
 10
31.9457
 20
20.6595
 30
0.0
 11
31.1451
 21
20.6595
 31
0.0
  0
LINE
  8
0
 62
     0
 10
31.1451
 20
20.6595
 30
0.0
 11
31.1451
 21
21.66
 31
0.0
  0
LINE
  8
0
 62
     0
 10
31.1451
 20
21.66
 30
0.0
 11
17.1456
 21
21.66
 31
0.0
  0
LINE
  8
0
 62
     0
 10
45.7207
 20
21.66
 30
0.0
 11
45.7207
 21
20.6595
 31
0.0
  0
LINE
  8
0
 62
     0
 10
45.7207
 20
20.6595
 30
0.0
 11
44.9199
 21
20.6595
 31
0.0
  0
LINE
  8
0
 62
     0
 10
44.9199
 20
20.6595
 30
0.0
 11
44.9199
 21
17.5617
 31
0.0
  0
LINE
  8
0
 62
     0
 10
44.9199
 20
17.5617
 30
0.0
 11
45.7207
 21
17.5617
 31
0.0
  0
LINE
  8
0
 62
     0
 10
45.7207
 20
17.5617
 30
0.0
 11
45.7207
 21
11.7602
 31
0.0
  0
LINE
  8
0
 62
     0
 10
45.7207
 20
11.7602
 30
0.0
 11
44.9199
 21
11.7602
 31
0.0
  0
LINE
  8
0
 62
     0
 10
44.9199
 20
11.7602
 30
0.0
 11
44.9199
 21
8.6596
 31
0.0
  0
LINE
  8
0
 62
     0
 10
44.9199
 20
8.6596
 30
0.0
 11
45.7207
 21
8.6596
 31
0.0
  0
LINE
  8
0
 62
     0
 10
45.7207
 20
8.6596
 30
0.0
 11
45.7207
 21
7.6605
 31
0.0
  0
LINE
  8
0
 62
     0
 10
45.7207
 20
7.6605
 30
0.0
 11
59.72
 21
7.6605
 31
0.0
  0
LINE
  8
0
 62
     0
 10
59.72
 20
7.6605
 30
0.0
 11
59.72
 21
8.6596
 31
0.0
  0
LINE
  8
0
 62
     0
 10
59.72
 20
8.6596
 30
0.0
 11
60.5208
 21
8.6596
 31
0.0
  0
LINE
  8
0
 62
     0
 10
60.5208
 20
8.6596
 30
0.0
 11
60.5208
 21
11.7602
 31
0.0
  0
LINE
  8
0
 62
     0
 10
60.5208
 20
11.7602
 30
0.0
 11
59.72
 21
11.7602
 31
0.0
  0
LINE
  8
0
 62
     0
 10
59.72
 20
11.7602
 30
0.0
 11
59.72
 21
17.5617
 31
0.0
  0
LINE
  8
0
 62
     0
 10
59.72
 20
17.5617
 30
0.0
 11
60.5208
 21
17.5617
 31
0.0
  0
LINE
  8
0
 62
     0
 10
60.5208
 20
17.5617
 30
0.0
 11
60.5208
 21
20.6595
 31
0.0
  0
LINE
  8
0
 62
     0
 10
60.5208
 20
20.6595
 30
0.0
 11
59.72
 21
20.6595
 31
0.0
  0
LINE
  8
0
 62
     0
 10
59.72
 20
20.6595
 30
0.0
 11
59.72
 21
21.66
 31
0.0
  0
LINE
  8
0
 62
     0
 10
59.72
 20
21.66
 30
0.0
 11
45.7207
 21
21.66
 31
0.0
  0
LINE
  8
0
 62
     0
 10
71.2706
 20
40.2855
 30
0.0
 11
71.2706
 21
39.46
 31
0.0
  0
LINE
  8
0
 62
     0
 10
71.2706
 20
39.46
 30
0.0
 11
65.0007
 21
39.46
 31
0.0
  0
LINE
  8
0
 62
     0
 10
65.0007
 20
39.46
 30
0.0
 11
65.0007
 21
37.7349
 31
0.0
  0
LINE
  8
0
 62
     0
 10
65.0007
 20
37.7349
 30
0.0
 11
64.0211
 21
37.7349
 31
0.0
  0
LINE
  8
0
 62
     0
 10
64.0211
 20
37.7349
 30
0.0
 11
64.0211
 21
34.4344
 31
0.0
  0
LINE
  8
0
 62
     0
 10
64.0211
 20
34.4344
 30
0.0
 11
65.0007
 21
34.4344
 31
0.0
  0
LINE
  8
0
 62
     0
 10
65.0007
 20
34.4344
 30
0.0
 11
65.0007
 21
32.7105
 31
0.0
  0
LINE
  8
0
 62
     0
 10
65.0007
 20
32.7105
 30
0.0
 11
69.4711
 21
32.7105
 31
0.0
  0
LINE
  8
0
 62
     0
 10
69.4711
 20
32.7105
 30
0.0
 11
69.4711
 21
31.185
 31
0.0
  0
LINE
  8
0
 62
     0
 10
69.4711
 20
31.185
 30
0.0
 11
68.8689
 21
31.185
 31
0.0
  0
LINE
  8
0
 62
     0
 10
68.8689
 20
31.185
 30
0.0
 11
68.8689
 21
31.9857
 31
0.0
  0
LINE
  8
0
 62
     0
 10
68.8689
 20
31.9857
 30
0.0
 11
65.7712
 21
31.9857
 31
0.0
  0
LINE
  8
0
 62
     0
 10
65.7712
 20
31.9857
 30
0.0
 11
65.7712
 21
31.185
 31
0.0
  0
LINE
  8
0
 62
     0
 10
65.7712
 20
31.185
 30
0.0
 11
64.7707
 21
31.185
 31
0.0
  0
LINE
  8
0
 62
     0
 10
64.7707
 20
31.185
 30
0.0
 11
64.7707
 21
17.1855
 31
0.0
  0
LINE
  8
0
 62
     0
 10
64.7707
 20
17.1855
 30
0.0
 11
65.7712
 21
17.1855
 31
0.0
  0
LINE
  8
0
 62
     0
 10
65.7712
 20
17.1855
 30
0.0
 11
65.7712
 21
16.3849
 31
0.0
  0
LINE
  8
0
 62
     0
 10
65.7712
 20
16.3849
 30
0.0
 11
68.8689
 21
16.3849
 31
0.0
  0
LINE
  8
0
 62
     0
 10
68.8689
 20
16.3849
 30
0.0
 11
68.8689
 21
17.1855
 31
0.0
  0
LINE
  8
0
 62
     0
 10
68.8689
 20
17.1855
 30
0.0
 11
69.4711
 21
17.1855
 31
0.0
  0
LINE
  8
0
 62
     0
 10
69.4711
 20
17.1855
 30
0.0
 11
69.4711
 21
15.66
 31
0.0
  0
LINE
  8
0
 62
     0
 10
69.4711
 20
15.66
 30
0.0
 11
65.0007
 21
15.66
 31
0.0
  0
LINE
  8
0
 62
     0
 10
65.0007
 20
15.66
 30
0.0
 11
65.0007
 21
13.9347
 31
0.0
  0
LINE
  8
0
 62
     0
 10
65.0007
 20
13.9347
 30
0.0
 11
64.0211
 21
13.9347
 31
0.0
  0
LINE
  8
0
 62
     0
 10
64.0211
 20
13.9347
 30
0.0
 11
64.0211
 21
10.6357
 31
0.0
  0
LINE
  8
0
 62
     0
 10
64.0211
 20
10.6357
 30
0.0
 11
65.0007
 21
10.6357
 31
0.0
  0
LINE
  8
0
 62
     0
 10
65.0007
 20
10.6357
 30
0.0
 11
65.0007
 21
8.91039
 31
0.0
  0
LINE
  8
0
 62
     0
 10
65.0007
 20
8.91039
 30
0.0
 11
71.2706
 21
8.91039
 31
0.0
  0
LINE
  8
0
 62
     0
 10
71.2706
 20
8.91039
 30
0.0
 11
71.2706
 21
8.08496
 31
0.0
  0
LINE
  8
0
 62
     0
 10
71.2706
 20
8.08496
 30
0.0
 11
74.071
 21
8.08496
 31
0.0
  0
LINE
  8
0
 62
     0
 10
74.071
 20
8.08496
 30
0.0
 11
74.071
 21
8.91039
 31
0.0
  0
LINE
  8
0
 62
     0
 10
74.071
 20
8.91039
 30
0.0
 11
77.301
 21
8.91039
 31
0.0
  0
LINE
  8
0
 62
     0
 10
77.301
 20
8.91039
 30
0.0
 11
77.301
 21
10.6357
 31
0.0
  0
LINE
  8
0
 62
     0
 10
77.301
 20
10.6357
 30
0.0
 11
78.2204
 21
10.6357
 31
0.0
  0
LINE
  8
0
 62
     0
 10
78.2204
 20
10.6357
 30
0.0
 11
78.2204
 21
13.9347
 31
0.0
  0
LINE
  8
0
 62
     0
 10
78.2204
 20
13.9347
 30
0.0
 11
77.301
 21
13.9347
 31
0.0
  0
LINE
  8
0
 62
     0
 10
77.301
 20
13.9347
 30
0.0
 11
77.301
 21
15.66
 31
0.0
  0
LINE
  8
0
 62
     0
 10
77.301
 20
15.66
 30
0.0
 11
74.071
 21
15.66
 31
0.0
  0
LINE
  8
0
 62
     0
 10
74.071
 20
15.66
 30
0.0
 11
74.071
 21
17.1855
 31
0.0
  0
LINE
  8
0
 62
     0
 10
74.071
 20
17.1855
 30
0.0
 11
74.6704
 21
17.1855
 31
0.0
  0
LINE
  8
0
 62
     0
 10
74.6704
 20
17.1855
 30
0.0
 11
74.6704
 21
16.3849
 31
0.0
  0
LINE
  8
0
 62
     0
 10
74.6704
 20
16.3849
 30
0.0
 11
77.7709
 21
16.3849
 31
0.0
  0
LINE
  8
0
 62
     0
 10
77.7709
 20
16.3849
 30
0.0
 11
77.7709
 21
17.1855
 31
0.0
  0
LINE
  8
0
 62
     0
 10
77.7709
 20
17.1855
 30
0.0
 11
78.77
 21
17.1855
 31
0.0
  0
LINE
  8
0
 62
     0
 10
78.77
 20
17.1855
 30
0.0
 11
78.77
 21
31.185
 31
0.0
  0
LINE
  8
0
 62
     0
 10
78.77
 20
31.185
 30
0.0
 11
77.7709
 21
31.185
 31
0.0
  0
LINE
  8
0
 62
     0
 10
77.7709
 20
31.185
 30
0.0
 11
77.7709
 21
31.9857
 31
0.0
  0
LINE
  8
0
 62
     0
 10
77.7709
 20
31.9857
 30
0.0
 11
74.6704
 21
31.9857
 31
0.0
  0
LINE
  8
0
 62
     0
 10
74.6704
 20
31.9857
 30
0.0
 11
74.6704
 21
31.185
 31
0.0
  0
LINE
  8
0
 62
     0
 10
74.6704
 20
31.185
 30
0.0
 11
74.071
 21
31.185
 31
0.0
  0
LINE
  8
0
 62
     0
 10
74.071
 20
31.185
 30
0.0
 11
74.071
 21
32.7105
 31
0.0
  0
LINE
  8
0
 62
     0
 10
74.071
 20
32.7105
 30
0.0
 11
77.301
 21
32.7105
 31
0.0
  0
LINE
  8
0
 62
     0
 10
77.301
 20
32.7105
 30
0.0
 11
77.301
 21
34.4344
 31
0.0
  0
LINE
  8
0
 62
     0
 10
77.301
 20
34.4344
 30
0.0
 11
78.2204
 21
34.4344
 31
0.0
  0
LINE
  8
0
 62
     0
 10
78.2204
 20
34.4344
 30
0.0
 11
78.2204
 21
37.7349
 31
0.0
  0
LINE
  8
0
 62
     0
 10
78.2204
 20
37.7349
 30
0.0
 11
77.301
 21
37.7349
 31
0.0
  0
LINE
  8
0
 62
     0
 10
77.301
 20
37.7349
 30
0.0
 11
77.301
 21
39.46
 31
0.0
  0
LINE
  8
0
 62
     0
 10
77.301
 20
39.46
 30
0.0
 11
74.071
 21
39.46
 31
0.0
  0
LINE
  8
0
 62
     0
 10
74.071
 20
39.46
 30
0.0
 11
74.071
 21
40.2855
 31
0.0
  0
LINE
  8
0
 62
     0
 10
74.071
 20
40.2855
 30
0.0
 11
71.2706
 21
40.2855
 31
0.0
  0
LINE
  8
0
 62
     0
 10
45.7207
 20
40.7099
 30
0.0
 11
45.7207
 21
39.7097
 31
0.0
  0
LINE
  8
0
 62
     0
 10
45.7207
 20
39.7097
 30
0.0
 11
44.9199
 21
39.7097
 31
0.0
  0
LINE
  8
0
 62
     0
 10
44.9199
 20
39.7097
 30
0.0
 11
44.9199
 21
36.6116
 31
0.0
  0
LINE
  8
0
 62
     0
 10
44.9199
 20
36.6116
 30
0.0
 11
45.7207
 21
36.6116
 31
0.0
  0
LINE
  8
0
 62
     0
 10
45.7207
 20
36.6116
 30
0.0
 11
45.7207
 21
30.8102
 31
0.0
  0
LINE
  8
0
 62
     0
 10
45.7207
 20
30.8102
 30
0.0
 11
44.9199
 21
30.8102
 31
0.0
  0
LINE
  8
0
 62
     0
 10
44.9199
 20
30.8102
 30
0.0
 11
44.9199
 21
27.7096
 31
0.0
  0
LINE
  8
0
 62
     0
 10
44.9199
 20
27.7096
 30
0.0
 11
45.7207
 21
27.7096
 31
0.0
  0
LINE
  8
0
 62
     0
 10
45.7207
 20
27.7096
 30
0.0
 11
45.7207
 21
26.7105
 31
0.0
  0
LINE
  8
0
 62
     0
 10
45.7207
 20
26.7105
 30
0.0
 11
59.72
 21
26.7105
 31
0.0
  0
LINE
  8
0
 62
     0
 10
59.72
 20
26.7105
 30
0.0
 11
59.72
 21
27.7096
 31
0.0
  0
LINE
  8
0
 62
     0
 10
59.72
 20
27.7096
 30
0.0
 11
60.5208
 21
27.7096
 31
0.0
  0
LINE
  8
0
 62
     0
 10
60.5208
 20
27.7096
 30
0.0
 11
60.5208
 21
30.8102
 31
0.0
  0
LINE
  8
0
 62
     0
 10
60.5208
 20
30.8102
 30
0.0
 11
59.72
 21
30.8102
 31
0.0
  0
LINE
  8
0
 62
     0
 10
59.72
 20
30.8102
 30
0.0
 11
59.72
 21
36.6116
 31
0.0
  0
LINE
  8
0
 62
     0
 10
59.72
 20
36.6116
 30
0.0
 11
60.5208
 21
36.6116
 31
0.0
  0
LINE
  8
0
 62
     0
 10
60.5208
 20
36.6116
 30
0.0
 11
60.5208
 21
39.7097
 31
0.0
  0
LINE
  8
0
 62
     0
 10
60.5208
 20
39.7097
 30
0.0
 11
59.72
 21
39.7097
 31
0.0
  0
LINE
  8
0
 62
     0
 10
59.72
 20
39.7097
 30
0.0
 11
59.72
 21
40.7099
 31
0.0
  0
LINE
  8
0
 62
     0
 10
59.72
 20
40.7099
 30
0.0
 11
45.7207
 21
40.7099
 31
0.0
  0
LINE
  8
0
 62
     0
 10
26.6706
 20
40.7099
 30
0.0
 11
26.6706
 21
39.7097
 31
0.0
  0
LINE
  8
0
 62
     0
 10
26.6706
 20
39.7097
 30
0.0
 11
25.8699
 21
39.7097
 31
0.0
  0
LINE
  8
0
 62
     0
 10
25.8699
 20
39.7097
 30
0.0
 11
25.8699
 21
36.6116
 31
0.0
  0
LINE
  8
0
 62
     0
 10
25.8699
 20
36.6116
 30
0.0
 11
26.6706
 21
36.6116
 31
0.0
  0
LINE
  8
0
 62
     0
 10
26.6706
 20
36.6116
 30
0.0
 11
26.6706
 21
30.8102
 31
0.0
  0
LINE
  8
0
 62
     0
 10
26.6706
 20
30.8102
 30
0.0
 11
25.8699
 21
30.8102
 31
0.0
  0
LINE
  8
0
 62
     0
 10
25.8699
 20
30.8102
 30
0.0
 11
25.8699
 21
27.7096
 31
0.0
  0
LINE
  8
0
 62
     0
 10
25.8699
 20
27.7096
 30
0.0
 11
26.6706
 21
27.7096
 31
0.0
  0
LINE
  8
0
 62
     0
 10
26.6706
 20
27.7096
 30
0.0
 11
26.6706
 21
26.7105
 31
0.0
  0
LINE
  8
0
 62
     0
 10
26.6706
 20
26.7105
 30
0.0
 11
40.67
 21
26.7105
 31
0.0
  0
LINE
  8
0
 62
     0
 10
40.67
 20
26.7105
 30
0.0
 11
40.67
 21
27.7096
 31
0.0
  0
LINE
  8
0
 62
     0
 10
40.67
 20
27.7096
 30
0.0
 11
41.4708
 21
27.7096
 31
0.0
  0
LINE
  8
0
 62
     0
 10
41.4708
 20
27.7096
 30
0.0
 11
41.4708
 21
30.8102
 31
0.0
  0
LINE
  8
0
 62
     0
 10
41.4708
 20
30.8102
 30
0.0
 11
40.67
 21
30.8102
 31
0.0
  0
LINE
  8
0
 62
     0
 10
40.67
 20
30.8102
 30
0.0
 11
40.67
 21
36.6116
 31
0.0
  0
LINE
  8
0
 62
     0
 10
40.67
 20
36.6116
 30
0.0
 11
41.4708
 21
36.6116
 31
0.0
  0
LINE
  8
0
 62
     0
 10
41.4708
 20
36.6116
 30
0.0
 11
41.4708
 21
39.7097
 31
0.0
  0
LINE
  8
0
 62
     0
 10
41.4708
 20
39.7097
 30
0.0
 11
40.67
 21
39.7097
 31
0.0
  0
LINE
  8
0
 62
     0
 10
40.67
 20
39.7097
 30
0.0
 11
40.67
 21
40.7099
 31
0.0
  0
LINE
  8
0
 62
     0
 10
40.67
 20
40.7099
 30
0.0
 11
26.6706
 21
40.7099
 31
0.0
  0
LINE
  8
0
 62
     0
 10
7.61919
 20
40.7099
 30
0.0
 11
7.61919
 21
39.7097
 31
0.0
  0
LINE
  8
0
 62
     0
 10
7.61919
 20
39.7097
 30
0.0
 11
6.8199
 21
39.7097
 31
0.0
  0
LINE
  8
0
 62
     0
 10
6.8199
 20
39.7097
 30
0.0
 11
6.8199
 21
36.6116
 31
0.0
  0
LINE
  8
0
 62
     0
 10
6.8199
 20
36.6116
 30
0.0
 11
7.61919
 21
36.6116
 31
0.0
  0
LINE
  8
0
 62
     0
 10
7.61919
 20
36.6116
 30
0.0
 11
7.61919
 21
30.8102
 31
0.0
  0
LINE
  8
0
 62
     0
 10
7.61919
 20
30.8102
 30
0.0
 11
6.8199
 21
30.8102
 31
0.0
  0
LINE
  8
0
 62
     0
 10
6.8199
 20
30.8102
 30
0.0
 11
6.8199
 21
27.7096
 31
0.0
  0
LINE
  8
0
 62
     0
 10
6.8199
 20
27.7096
 30
0.0
 11
7.61919
 21
27.7096
 31
0.0
  0
LINE
  8
0
 62
     0
 10
7.61919
 20
27.7096
 30
0.0
 11
7.61919
 21
26.7105
 31
0.0
  0
LINE
  8
0
 62
     0
 10
7.61919
 20
26.7105
 30
0.0
 11
21.6201
 21
26.7105
 31
0.0
  0
LINE
  8
0
 62
     0
 10
21.6201
 20
26.7105
 30
0.0
 11
21.6201
 21
27.7096
 31
0.0
  0
LINE
  8
0
 62
     0
 10
21.6201
 20
27.7096
 30
0.0
 11
22.4207
 21
27.7096
 31
0.0
  0
LINE
  8
0
 62
     0
 10
22.4207
 20
27.7096
 30
0.0
 11
22.4207
 21
30.8102
 31
0.0
  0
LINE
  8
0
 62
     0
 10
22.4207
 20
30.8102
 30
0.0
 11
21.6201
 21
30.8102
 31
0.0
  0
LINE
  8
0
 62
     0
 10
21.6201
 20
30.8102
 30
0.0
 11
21.6201
 21
36.6116
 31
0.0
  0
LINE
  8
0
 62
     0
 10
21.6201
 20
36.6116
 30
0.0
 11
22.4207
 21
36.6116
 31
0.0
  0
LINE
  8
0
 62
     0
 10
22.4207
 20
36.6116
 30
0.0
 11
22.4207
 21
39.7097
 31
0.0
  0
LINE
  8
0
 62
     0
 10
22.4207
 20
39.7097
 30
0.0
 11
21.6201
 21
39.7097
 31
0.0
  0
LINE
  8
0
 62
     0
 10
21.6201
 20
39.7097
 30
0.0
 11
21.6201
 21
40.7099
 31
0.0
  0
LINE
  8
0
 62
     0
 10
21.6201
 20
40.7099
 30
0.0
 11
7.61919
 21
40.7099
 31
0.0
  0
LINE
  8
0
 62
     0
 10
64.7707
 20
59.7598
 30
0.0
 11
64.7707
 21
58.7597
 31
0.0
  0
LINE
  8
0
 62
     0
 10
64.7707
 20
58.7597
 30
0.0
 11
63.9699
 21
58.7597
 31
0.0
  0
LINE
  8
0
 62
     0
 10
63.9699
 20
58.7597
 30
0.0
 11
63.9699
 21
55.6602
 31
0.0
  0
LINE
  8
0
 62
     0
 10
63.9699
 20
55.6602
 30
0.0
 11
64.7707
 21
55.6602
 31
0.0
  0
LINE
  8
0
 62
     0
 10
64.7707
 20
55.6602
 30
0.0
 11
64.7707
 21
49.8602
 31
0.0
  0
LINE
  8
0
 62
     0
 10
64.7707
 20
49.8602
 30
0.0
 11
63.9699
 21
49.8602
 31
0.0
  0
LINE
  8
0
 62
     0
 10
63.9699
 20
49.8602
 30
0.0
 11
63.9699
 21
46.7596
 31
0.0
  0
LINE
  8
0
 62
     0
 10
63.9699
 20
46.7596
 30
0.0
 11
64.7707
 21
46.7596
 31
0.0
  0
LINE
  8
0
 62
     0
 10
64.7707
 20
46.7596
 30
0.0
 11
64.7707
 21
45.7606
 31
0.0
  0
LINE
  8
0
 62
     0
 10
64.7707
 20
45.7606
 30
0.0
 11
78.77
 21
45.7606
 31
0.0
  0
LINE
  8
0
 62
     0
 10
78.77
 20
45.7606
 30
0.0
 11
78.77
 21
46.7596
 31
0.0
  0
LINE
  8
0
 62
     0
 10
78.77
 20
46.7596
 30
0.0
 11
79.5708
 21
46.7596
 31
0.0
  0
LINE
  8
0
 62
     0
 10
79.5708
 20
46.7596
 30
0.0
 11
79.5708
 21
49.8602
 31
0.0
  0
LINE
  8
0
 62
     0
 10
79.5708
 20
49.8602
 30
0.0
 11
78.77
 21
49.8602
 31
0.0
  0
LINE
  8
0
 62
     0
 10
78.77
 20
49.8602
 30
0.0
 11
78.77
 21
55.6602
 31
0.0
  0
LINE
  8
0
 62
     0
 10
78.77
 20
55.6602
 30
0.0
 11
79.5708
 21
55.6602
 31
0.0
  0
LINE
  8
0
 62
     0
 10
79.5708
 20
55.6602
 30
0.0
 11
79.5708
 21
58.7597
 31
0.0
  0
LINE
  8
0
 62
     0
 10
79.5708
 20
58.7597
 30
0.0
 11
78.77
 21
58.7597
 31
0.0
  0
LINE
  8
0
 62
     0
 10
78.77
 20
58.7597
 30
0.0
 11
78.77
 21
59.7598
 31
0.0
  0
LINE
  8
0
 62
     0
 10
78.77
 20
59.7598
 30
0.0
 11
64.7707
 21
59.7598
 31
0.0
  0
LINE
  8
0
 62
     0
 10
45.7207
 20
59.7598
 30
0.0
 11
45.7207
 21
58.7597
 31
0.0
  0
LINE
  8
0
 62
     0
 10
45.7207
 20
58.7597
 30
0.0
 11
44.9199
 21
58.7597
 31
0.0
  0
LINE
  8
0
 62
     0
 10
44.9199
 20
58.7597
 30
0.0
 11
44.9199
 21
55.6602
 31
0.0
  0
LINE
  8
0
 62
     0
 10
44.9199
 20
55.6602
 30
0.0
 11
45.7207
 21
55.6602
 31
0.0
  0
LINE
  8
0
 62
     0
 10
45.7207
 20
55.6602
 30
0.0
 11
45.7207
 21
49.8602
 31
0.0
  0
LINE
  8
0
 62
     0
 10
45.7207
 20
49.8602
 30
0.0
 11
44.9199
 21
49.8602
 31
0.0
  0
LINE
  8
0
 62
     0
 10
44.9199
 20
49.8602
 30
0.0
 11
44.9199
 21
46.7596
 31
0.0
  0
LINE
  8
0
 62
     0
 10
44.9199
 20
46.7596
 30
0.0
 11
45.7207
 21
46.7596
 31
0.0
  0
LINE
  8
0
 62
     0
 10
45.7207
 20
46.7596
 30
0.0
 11
45.7207
 21
45.7606
 31
0.0
  0
LINE
  8
0
 62
     0
 10
45.7207
 20
45.7606
 30
0.0
 11
59.72
 21
45.7606
 31
0.0
  0
LINE
  8
0
 62
     0
 10
59.72
 20
45.7606
 30
0.0
 11
59.72
 21
46.7596
 31
0.0
  0
LINE
  8
0
 62
     0
 10
59.72
 20
46.7596
 30
0.0
 11
60.5208
 21
46.7596
 31
0.0
  0
LINE
  8
0
 62
     0
 10
60.5208
 20
46.7596
 30
0.0
 11
60.5208
 21
49.8602
 31
0.0
  0
LINE
  8
0
 62
     0
 10
60.5208
 20
49.8602
 30
0.0
 11
59.72
 21
49.8602
 31
0.0
  0
LINE
  8
0
 62
     0
 10
59.72
 20
49.8602
 30
0.0
 11
59.72
 21
55.6602
 31
0.0
  0
LINE
  8
0
 62
     0
 10
59.72
 20
55.6602
 30
0.0
 11
60.5208
 21
55.6602
 31
0.0
  0
LINE
  8
0
 62
     0
 10
60.5208
 20
55.6602
 30
0.0
 11
60.5208
 21
58.7597
 31
0.0
  0
LINE
  8
0
 62
     0
 10
60.5208
 20
58.7597
 30
0.0
 11
59.72
 21
58.7597
 31
0.0
  0
LINE
  8
0
 62
     0
 10
59.72
 20
58.7597
 30
0.0
 11
59.72
 21
59.7598
 31
0.0
  0
LINE
  8
0
 62
     0
 10
59.72
 20
59.7598
 30
0.0
 11
45.7207
 21
59.7598
 31
0.0
  0
LINE
  8
0
 62
     0
 10
26.6706
 20
59.7598
 30
0.0
 11
26.6706
 21
58.7597
 31
0.0
  0
LINE
  8
0
 62
     0
 10
26.6706
 20
58.7597
 30
0.0
 11
25.8699
 21
58.7597
 31
0.0
  0
LINE
  8
0
 62
     0
 10
25.8699
 20
58.7597
 30
0.0
 11
25.8699
 21
55.6602
 31
0.0
  0
LINE
  8
0
 62
     0
 10
25.8699
 20
55.6602
 30
0.0
 11
26.6706
 21
55.6602
 31
0.0
  0
LINE
  8
0
 62
     0
 10
26.6706
 20
55.6602
 30
0.0
 11
26.6706
 21
49.8602
 31
0.0
  0
LINE
  8
0
 62
     0
 10
26.6706
 20
49.8602
 30
0.0
 11
25.8699
 21
49.8602
 31
0.0
  0
LINE
  8
0
 62
     0
 10
25.8699
 20
49.8602
 30
0.0
 11
25.8699
 21
46.7596
 31
0.0
  0
LINE
  8
0
 62
     0
 10
25.8699
 20
46.7596
 30
0.0
 11
26.6706
 21
46.7596
 31
0.0
  0
LINE
  8
0
 62
     0
 10
26.6706
 20
46.7596
 30
0.0
 11
26.6706
 21
45.7606
 31
0.0
  0
LINE
  8
0
 62
     0
 10
26.6706
 20
45.7606
 30
0.0
 11
40.67
 21
45.7606
 31
0.0
  0
LINE
  8
0
 62
     0
 10
40.67
 20
45.7606
 30
0.0
 11
40.67
 21
46.7596
 31
0.0
  0
LINE
  8
0
 62
     0
 10
40.67
 20
46.7596
 30
0.0
 11
41.4708
 21
46.7596
 31
0.0
  0
LINE
  8
0
 62
     0
 10
41.4708
 20
46.7596
 30
0.0
 11
41.4708
 21
49.8602
 31
0.0
  0
LINE
  8
0
 62
     0
 10
41.4708
 20
49.8602
 30
0.0
 11
40.67
 21
49.8602
 31
0.0
  0
LINE
  8
0
 62
     0
 10
40.67
 20
49.8602
 30
0.0
 11
40.67
 21
55.6602
 31
0.0
  0
LINE
  8
0
 62
     0
 10
40.67
 20
55.6602
 30
0.0
 11
41.4708
 21
55.6602
 31
0.0
  0
LINE
  8
0
 62
     0
 10
41.4708
 20
55.6602
 30
0.0
 11
41.4708
 21
58.7597
 31
0.0
  0
LINE
  8
0
 62
     0
 10
41.4708
 20
58.7597
 30
0.0
 11
40.67
 21
58.7597
 31
0.0
  0
LINE
  8
0
 62
     0
 10
40.67
 20
58.7597
 30
0.0
 11
40.67
 21
59.7598
 31
0.0
  0
LINE
  8
0
 62
     0
 10
40.67
 20
59.7598
 30
0.0
 11
26.6706
 21
59.7598
 31
0.0
  0
LINE
  8
0
 62
     0
 10
7.61919
 20
59.7598
 30
0.0
 11
7.61919
 21
58.7597
 31
0.0
  0
LINE
  8
0
 62
     0
 10
7.61919
 20
58.7597
 30
0.0
 11
6.8199
 21
58.7597
 31
0.0
  0
LINE
  8
0
 62
     0
 10
6.8199
 20
58.7597
 30
0.0
 11
6.8199
 21
55.6602
 31
0.0
  0
LINE
  8
0
 62
     0
 10
6.8199
 20
55.6602
 30
0.0
 11
7.61919
 21
55.6602
 31
0.0
  0
LINE
  8
0
 62
     0
 10
7.61919
 20
55.6602
 30
0.0
 11
7.61919
 21
49.8602
 31
0.0
  0
LINE
  8
0
 62
     0
 10
7.61919
 20
49.8602
 30
0.0
 11
6.8199
 21
49.8602
 31
0.0
  0
LINE
  8
0
 62
     0
 10
6.8199
 20
49.8602
 30
0.0
 11
6.8199
 21
46.7596
 31
0.0
  0
LINE
  8
0
 62
     0
 10
6.8199
 20
46.7596
 30
0.0
 11
7.61919
 21
46.7596
 31
0.0
  0
LINE
  8
0
 62
     0
 10
7.61919
 20
46.7596
 30
0.0
 11
7.61919
 21
45.7606
 31
0.0
  0
LINE
  8
0
 62
     0
 10
7.61919
 20
45.7606
 30
0.0
 11
21.6201
 21
45.7606
 31
0.0
  0
LINE
  8
0
 62
     0
 10
21.6201
 20
45.7606
 30
0.0
 11
21.6201
 21
46.7596
 31
0.0
  0
LINE
  8
0
 62
     0
 10
21.6201
 20
46.7596
 30
0.0
 11
22.4207
 21
46.7596
 31
0.0
  0
LINE
  8
0
 62
     0
 10
22.4207
 20
46.7596
 30
0.0
 11
22.4207
 21
49.8602
 31
0.0
  0
LINE
  8
0
 62
     0
 10
22.4207
 20
49.8602
 30
0.0
 11
21.6201
 21
49.8602
 31
0.0
  0
LINE
  8
0
 62
     0
 10
21.6201
 20
49.8602
 30
0.0
 11
21.6201
 21
55.6602
 31
0.0
  0
LINE
  8
0
 62
     0
 10
21.6201
 20
55.6602
 30
0.0
 11
22.4207
 21
55.6602
 31
0.0
  0
LINE
  8
0
 62
     0
 10
22.4207
 20
55.6602
 30
0.0
 11
22.4207
 21
58.7597
 31
0.0
  0
LINE
  8
0
 62
     0
 10
22.4207
 20
58.7597
 30
0.0
 11
21.6201
 21
58.7597
 31
0.0
  0
LINE
  8
0
 62
     0
 10
21.6201
 20
58.7597
 30
0.0
 11
21.6201
 21
59.7598
 31
0.0
  0
LINE
  8
0
 62
     0
 10
21.6201
 20
59.7598
 30
0.0
 11
7.61919
 21
59.7598
 31
0.0
  0
LINE
  8
0
 62
     0
 10
64.7707
 20
78.8098
 30
0.0
 11
64.7707
 21
77.8097
 31
0.0
  0
LINE
  8
0
 62
     0
 10
64.7707
 20
77.8097
 30
0.0
 11
63.9699
 21
77.8097
 31
0.0
  0
LINE
  8
0
 62
     0
 10
63.9699
 20
77.8097
 30
0.0
 11
63.9699
 21
74.7102
 31
0.0
  0
LINE
  8
0
 62
     0
 10
63.9699
 20
74.7102
 30
0.0
 11
64.7707
 21
74.7102
 31
0.0
  0
LINE
  8
0
 62
     0
 10
64.7707
 20
74.7102
 30
0.0
 11
64.7707
 21
68.9102
 31
0.0
  0
LINE
  8
0
 62
     0
 10
64.7707
 20
68.9102
 30
0.0
 11
63.9699
 21
68.9102
 31
0.0
  0
LINE
  8
0
 62
     0
 10
63.9699
 20
68.9102
 30
0.0
 11
63.9699
 21
65.8096
 31
0.0
  0
LINE
  8
0
 62
     0
 10
63.9699
 20
65.8096
 30
0.0
 11
64.7707
 21
65.8096
 31
0.0
  0
LINE
  8
0
 62
     0
 10
64.7707
 20
65.8096
 30
0.0
 11
64.7707
 21
64.8106
 31
0.0
  0
LINE
  8
0
 62
     0
 10
64.7707
 20
64.8106
 30
0.0
 11
78.77
 21
64.8106
 31
0.0
  0
LINE
  8
0
 62
     0
 10
78.77
 20
64.8106
 30
0.0
 11
78.77
 21
65.8096
 31
0.0
  0
LINE
  8
0
 62
     0
 10
78.77
 20
65.8096
 30
0.0
 11
79.5708
 21
65.8096
 31
0.0
  0
LINE
  8
0
 62
     0
 10
79.5708
 20
65.8096
 30
0.0
 11
79.5708
 21
68.9102
 31
0.0
  0
LINE
  8
0
 62
     0
 10
79.5708
 20
68.9102
 30
0.0
 11
78.77
 21
68.9102
 31
0.0
  0
LINE
  8
0
 62
     0
 10
78.77
 20
68.9102
 30
0.0
 11
78.77
 21
74.7102
 31
0.0
  0
LINE
  8
0
 62
     0
 10
78.77
 20
74.7102
 30
0.0
 11
79.5708
 21
74.7102
 31
0.0
  0
LINE
  8
0
 62
     0
 10
79.5708
 20
74.7102
 30
0.0
 11
79.5708
 21
77.8097
 31
0.0
  0
LINE
  8
0
 62
     0
 10
79.5708
 20
77.8097
 30
0.0
 11
78.77
 21
77.8097
 31
0.0
  0
LINE
  8
0
 62
     0
 10
78.77
 20
77.8097
 30
0.0
 11
78.77
 21
78.8098
 31
0.0
  0
LINE
  8
0
 62
     0
 10
78.77
 20
78.8098
 30
0.0
 11
64.7707
 21
78.8098
 31
0.0
  0
LINE
  8
0
 62
     0
 10
45.7207
 20
78.8098
 30
0.0
 11
45.7207
 21
77.8097
 31
0.0
  0
LINE
  8
0
 62
     0
 10
45.7207
 20
77.8097
 30
0.0
 11
44.9199
 21
77.8097
 31
0.0
  0
LINE
  8
0
 62
     0
 10
44.9199
 20
77.8097
 30
0.0
 11
44.9199
 21
74.7102
 31
0.0
  0
LINE
  8
0
 62
     0
 10
44.9199
 20
74.7102
 30
0.0
 11
45.7207
 21
74.7102
 31
0.0
  0
LINE
  8
0
 62
     0
 10
45.7207
 20
74.7102
 30
0.0
 11
45.7207
 21
68.9102
 31
0.0
  0
LINE
  8
0
 62
     0
 10
45.7207
 20
68.9102
 30
0.0
 11
44.9199
 21
68.9102
 31
0.0
  0
LINE
  8
0
 62
     0
 10
44.9199
 20
68.9102
 30
0.0
 11
44.9199
 21
65.8096
 31
0.0
  0
LINE
  8
0
 62
     0
 10
44.9199
 20
65.8096
 30
0.0
 11
45.7207
 21
65.8096
 31
0.0
  0
LINE
  8
0
 62
     0
 10
45.7207
 20
65.8096
 30
0.0
 11
45.7207
 21
64.8106
 31
0.0
  0
LINE
  8
0
 62
     0
 10
45.7207
 20
64.8106
 30
0.0
 11
59.72
 21
64.8106
 31
0.0
  0
LINE
  8
0
 62
     0
 10
59.72
 20
64.8106
 30
0.0
 11
59.72
 21
65.8096
 31
0.0
  0
LINE
  8
0
 62
     0
 10
59.72
 20
65.8096
 30
0.0
 11
60.5208
 21
65.8096
 31
0.0
  0
LINE
  8
0
 62
     0
 10
60.5208
 20
65.8096
 30
0.0
 11
60.5208
 21
68.9102
 31
0.0
  0
LINE
  8
0
 62
     0
 10
60.5208
 20
68.9102
 30
0.0
 11
59.72
 21
68.9102
 31
0.0
  0
LINE
  8
0
 62
     0
 10
59.72
 20
68.9102
 30
0.0
 11
59.72
 21
74.7102
 31
0.0
  0
LINE
  8
0
 62
     0
 10
59.72
 20
74.7102
 30
0.0
 11
60.5208
 21
74.7102
 31
0.0
  0
LINE
  8
0
 62
     0
 10
60.5208
 20
74.7102
 30
0.0
 11
60.5208
 21
77.8097
 31
0.0
  0
LINE
  8
0
 62
     0
 10
60.5208
 20
77.8097
 30
0.0
 11
59.72
 21
77.8097
 31
0.0
  0
LINE
  8
0
 62
     0
 10
59.72
 20
77.8097
 30
0.0
 11
59.72
 21
78.8098
 31
0.0
  0
LINE
  8
0
 62
     0
 10
59.72
 20
78.8098
 30
0.0
 11
45.7207
 21
78.8098
 31
0.0
  0
LINE
  8
0
 62
     0
 10
26.6706
 20
78.8098
 30
0.0
 11
26.6706
 21
77.8097
 31
0.0
  0
LINE
  8
0
 62
     0
 10
26.6706
 20
77.8097
 30
0.0
 11
25.8699
 21
77.8097
 31
0.0
  0
LINE
  8
0
 62
     0
 10
25.8699
 20
77.8097
 30
0.0
 11
25.8699
 21
74.7102
 31
0.0
  0
LINE
  8
0
 62
     0
 10
25.8699
 20
74.7102
 30
0.0
 11
26.6706
 21
74.7102
 31
0.0
  0
LINE
  8
0
 62
     0
 10
26.6706
 20
74.7102
 30
0.0
 11
26.6706
 21
68.9102
 31
0.0
  0
LINE
  8
0
 62
     0
 10
26.6706
 20
68.9102
 30
0.0
 11
25.8699
 21
68.9102
 31
0.0
  0
LINE
  8
0
 62
     0
 10
25.8699
 20
68.9102
 30
0.0
 11
25.8699
 21
65.8096
 31
0.0
  0
LINE
  8
0
 62
     0
 10
25.8699
 20
65.8096
 30
0.0
 11
26.6706
 21
65.8096
 31
0.0
  0
LINE
  8
0
 62
     0
 10
26.6706
 20
65.8096
 30
0.0
 11
26.6706
 21
64.8106
 31
0.0
  0
LINE
  8
0
 62
     0
 10
26.6706
 20
64.8106
 30
0.0
 11
40.67
 21
64.8106
 31
0.0
  0
LINE
  8
0
 62
     0
 10
40.67
 20
64.8106
 30
0.0
 11
40.67
 21
65.8096
 31
0.0
  0
LINE
  8
0
 62
     0
 10
40.67
 20
65.8096
 30
0.0
 11
41.4708
 21
65.8096
 31
0.0
  0
LINE
  8
0
 62
     0
 10
41.4708
 20
65.8096
 30
0.0
 11
41.4708
 21
68.9102
 31
0.0
  0
LINE
  8
0
 62
     0
 10
41.4708
 20
68.9102
 30
0.0
 11
40.67
 21
68.9102
 31
0.0
  0
LINE
  8
0
 62
     0
 10
40.67
 20
68.9102
 30
0.0
 11
40.67
 21
74.7102
 31
0.0
  0
LINE
  8
0
 62
     0
 10
40.67
 20
74.7102
 30
0.0
 11
41.4708
 21
74.7102
 31
0.0
  0
LINE
  8
0
 62
     0
 10
41.4708
 20
74.7102
 30
0.0
 11
41.4708
 21
77.8097
 31
0.0
  0
LINE
  8
0
 62
     0
 10
41.4708
 20
77.8097
 30
0.0
 11
40.67
 21
77.8097
 31
0.0
  0
LINE
  8
0
 62
     0
 10
40.67
 20
77.8097
 30
0.0
 11
40.67
 21
78.8098
 31
0.0
  0
LINE
  8
0
 62
     0
 10
40.67
 20
78.8098
 30
0.0
 11
26.6706
 21
78.8098
 31
0.0
  0
LINE
  8
0
 62
     0
 10
7.61919
 20
78.8098
 30
0.0
 11
7.61919
 21
77.8097
 31
0.0
  0
LINE
  8
0
 62
     0
 10
7.61919
 20
77.8097
 30
0.0
 11
6.8199
 21
77.8097
 31
0.0
  0
LINE
  8
0
 62
     0
 10
6.8199
 20
77.8097
 30
0.0
 11
6.8199
 21
74.7102
 31
0.0
  0
LINE
  8
0
 62
     0
 10
6.8199
 20
74.7102
 30
0.0
 11
7.61919
 21
74.7102
 31
0.0
  0
LINE
  8
0
 62
     0
 10
7.61919
 20
74.7102
 30
0.0
 11
7.61919
 21
68.9102
 31
0.0
  0
LINE
  8
0
 62
     0
 10
7.61919
 20
68.9102
 30
0.0
 11
6.8199
 21
68.9102
 31
0.0
  0
LINE
  8
0
 62
     0
 10
6.8199
 20
68.9102
 30
0.0
 11
6.8199
 21
65.8096
 31
0.0
  0
LINE
  8
0
 62
     0
 10
6.8199
 20
65.8096
 30
0.0
 11
7.61919
 21
65.8096
 31
0.0
  0
LINE
  8
0
 62
     0
 10
7.61919
 20
65.8096
 30
0.0
 11
7.61919
 21
64.8106
 31
0.0
  0
LINE
  8
0
 62
     0
 10
7.61919
 20
64.8106
 30
0.0
 11
21.6201
 21
64.8106
 31
0.0
  0
LINE
  8
0
 62
     0
 10
21.6201
 20
64.8106
 30
0.0
 11
21.6201
 21
65.8096
 31
0.0
  0
LINE
  8
0
 62
     0
 10
21.6201
 20
65.8096
 30
0.0
 11
22.4207
 21
65.8096
 31
0.0
  0
LINE
  8
0
 62
     0
 10
22.4207
 20
65.8096
 30
0.0
 11
22.4207
 21
68.9102
 31
0.0
  0
LINE
  8
0
 62
     0
 10
22.4207
 20
68.9102
 30
0.0
 11
21.6201
 21
68.9102
 31
0.0
  0
LINE
  8
0
 62
     0
 10
21.6201
 20
68.9102
 30
0.0
 11
21.6201
 21
74.7102
 31
0.0
  0
LINE
  8
0
 62
     0
 10
21.6201
 20
74.7102
 30
0.0
 11
22.4207
 21
74.7102
 31
0.0
  0
LINE
  8
0
 62
     0
 10
22.4207
 20
74.7102
 30
0.0
 11
22.4207
 21
77.8097
 31
0.0
  0
LINE
  8
0
 62
     0
 10
22.4207
 20
77.8097
 30
0.0
 11
21.6201
 21
77.8097
 31
0.0
  0
LINE
  8
0
 62
     0
 10
21.6201
 20
77.8097
 30
0.0
 11
21.6201
 21
78.8098
 31
0.0
  0
LINE
  8
0
 62
     0
 10
21.6201
 20
78.8098
 30
0.0
 11
7.61919
 21
78.8098
 31
0.0
  0
LINE
  8
0
 62
     0
 10
64.7707
 20
97.8613
 30
0.0
 11
64.7707
 21
96.8608
 31
0.0
  0
LINE
  8
0
 62
     0
 10
64.7707
 20
96.8608
 30
0.0
 11
63.9699
 21
96.8608
 31
0.0
  0
LINE
  8
0
 62
     0
 10
63.9699
 20
96.8608
 30
0.0
 11
63.9699
 21
93.7602
 31
0.0
  0
LINE
  8
0
 62
     0
 10
63.9699
 20
93.7602
 30
0.0
 11
64.7707
 21
93.7602
 31
0.0
  0
LINE
  8
0
 62
     0
 10
64.7707
 20
93.7602
 30
0.0
 11
64.7707
 21
87.9616
 31
0.0
  0
LINE
  8
0
 62
     0
 10
64.7707
 20
87.9616
 30
0.0
 11
63.9699
 21
87.9616
 31
0.0
  0
LINE
  8
0
 62
     0
 10
63.9699
 20
87.9616
 30
0.0
 11
63.9699
 21
84.8596
 31
0.0
  0
LINE
  8
0
 62
     0
 10
63.9699
 20
84.8596
 30
0.0
 11
64.7707
 21
84.8596
 31
0.0
  0
LINE
  8
0
 62
     0
 10
64.7707
 20
84.8596
 30
0.0
 11
64.7707
 21
83.8606
 31
0.0
  0
LINE
  8
0
 62
     0
 10
64.7707
 20
83.8606
 30
0.0
 11
78.77
 21
83.8606
 31
0.0
  0
LINE
  8
0
 62
     0
 10
78.77
 20
83.8606
 30
0.0
 11
78.77
 21
84.8596
 31
0.0
  0
LINE
  8
0
 62
     0
 10
78.77
 20
84.8596
 30
0.0
 11
79.5708
 21
84.8596
 31
0.0
  0
LINE
  8
0
 62
     0
 10
79.5708
 20
84.8596
 30
0.0
 11
79.5708
 21
87.9616
 31
0.0
  0
LINE
  8
0
 62
     0
 10
79.5708
 20
87.9616
 30
0.0
 11
78.77
 21
87.9616
 31
0.0
  0
LINE
  8
0
 62
     0
 10
78.77
 20
87.9616
 30
0.0
 11
78.77
 21
93.7602
 31
0.0
  0
LINE
  8
0
 62
     0
 10
78.77
 20
93.7602
 30
0.0
 11
79.5708
 21
93.7602
 31
0.0
  0
LINE
  8
0
 62
     0
 10
79.5708
 20
93.7602
 30
0.0
 11
79.5708
 21
96.8608
 31
0.0
  0
LINE
  8
0
 62
     0
 10
79.5708
 20
96.8608
 30
0.0
 11
78.77
 21
96.8608
 31
0.0
  0
LINE
  8
0
 62
     0
 10
78.77
 20
96.8608
 30
0.0
 11
78.77
 21
97.8613
 31
0.0
  0
LINE
  8
0
 62
     0
 10
78.77
 20
97.8613
 30
0.0
 11
64.7707
 21
97.8613
 31
0.0
  0
LINE
  8
0
 62
     0
 10
45.7207
 20
97.8613
 30
0.0
 11
45.7207
 21
96.8608
 31
0.0
  0
LINE
  8
0
 62
     0
 10
45.7207
 20
96.8608
 30
0.0
 11
44.9199
 21
96.8608
 31
0.0
  0
LINE
  8
0
 62
     0
 10
44.9199
 20
96.8608
 30
0.0
 11
44.9199
 21
93.7602
 31
0.0
  0
LINE
  8
0
 62
     0
 10
44.9199
 20
93.7602
 30
0.0
 11
45.7207
 21
93.7602
 31
0.0
  0
LINE
  8
0
 62
     0
 10
45.7207
 20
93.7602
 30
0.0
 11
45.7207
 21
87.9616
 31
0.0
  0
LINE
  8
0
 62
     0
 10
45.7207
 20
87.9616
 30
0.0
 11
44.9199
 21
87.9616
 31
0.0
  0
LINE
  8
0
 62
     0
 10
44.9199
 20
87.9616
 30
0.0
 11
44.9199
 21
84.8596
 31
0.0
  0
LINE
  8
0
 62
     0
 10
44.9199
 20
84.8596
 30
0.0
 11
45.7207
 21
84.8596
 31
0.0
  0
LINE
  8
0
 62
     0
 10
45.7207
 20
84.8596
 30
0.0
 11
45.7207
 21
83.8606
 31
0.0
  0
LINE
  8
0
 62
     0
 10
45.7207
 20
83.8606
 30
0.0
 11
59.72
 21
83.8606
 31
0.0
  0
LINE
  8
0
 62
     0
 10
59.72
 20
83.8606
 30
0.0
 11
59.72
 21
84.8596
 31
0.0
  0
LINE
  8
0
 62
     0
 10
59.72
 20
84.8596
 30
0.0
 11
60.5208
 21
84.8596
 31
0.0
  0
LINE
  8
0
 62
     0
 10
60.5208
 20
84.8596
 30
0.0
 11
60.5208
 21
87.9616
 31
0.0
  0
LINE
  8
0
 62
     0
 10
60.5208
 20
87.9616
 30
0.0
 11
59.72
 21
87.9616
 31
0.0
  0
LINE
  8
0
 62
     0
 10
59.72
 20
87.9616
 30
0.0
 11
59.72
 21
93.7602
 31
0.0
  0
LINE
  8
0
 62
     0
 10
59.72
 20
93.7602
 30
0.0
 11
60.5208
 21
93.7602
 31
0.0
  0
LINE
  8
0
 62
     0
 10
60.5208
 20
93.7602
 30
0.0
 11
60.5208
 21
96.8608
 31
0.0
  0
LINE
  8
0
 62
     0
 10
60.5208
 20
96.8608
 30
0.0
 11
59.72
 21
96.8608
 31
0.0
  0
LINE
  8
0
 62
     0
 10
59.72
 20
96.8608
 30
0.0
 11
59.72
 21
97.8613
 31
0.0
  0
LINE
  8
0
 62
     0
 10
59.72
 20
97.8613
 30
0.0
 11
45.7207
 21
97.8613
 31
0.0
  0
LINE
  8
0
 62
     0
 10
26.6706
 20
97.8613
 30
0.0
 11
26.6706
 21
96.8608
 31
0.0
  0
LINE
  8
0
 62
     0
 10
26.6706
 20
96.8608
 30
0.0
 11
25.8699
 21
96.8608
 31
0.0
  0
LINE
  8
0
 62
     0
 10
25.8699
 20
96.8608
 30
0.0
 11
25.8699
 21
93.7602
 31
0.0
  0
LINE
  8
0
 62
     0
 10
25.8699
 20
93.7602
 30
0.0
 11
26.6706
 21
93.7602
 31
0.0
  0
LINE
  8
0
 62
     0
 10
26.6706
 20
93.7602
 30
0.0
 11
26.6706
 21
87.9616
 31
0.0
  0
LINE
  8
0
 62
     0
 10
26.6706
 20
87.9616
 30
0.0
 11
25.8699
 21
87.9616
 31
0.0
  0
LINE
  8
0
 62
     0
 10
25.8699
 20
87.9616
 30
0.0
 11
25.8699
 21
84.8596
 31
0.0
  0
LINE
  8
0
 62
     0
 10
25.8699
 20
84.8596
 30
0.0
 11
26.6706
 21
84.8596
 31
0.0
  0
LINE
  8
0
 62
     0
 10
26.6706
 20
84.8596
 30
0.0
 11
26.6706
 21
83.8606
 31
0.0
  0
LINE
  8
0
 62
     0
 10
26.6706
 20
83.8606
 30
0.0
 11
40.67
 21
83.8606
 31
0.0
  0
LINE
  8
0
 62
     0
 10
40.67
 20
83.8606
 30
0.0
 11
40.67
 21
84.8596
 31
0.0
  0
LINE
  8
0
 62
     0
 10
40.67
 20
84.8596
 30
0.0
 11
41.4708
 21
84.8596
 31
0.0
  0
LINE
  8
0
 62
     0
 10
41.4708
 20
84.8596
 30
0.0
 11
41.4708
 21
87.9616
 31
0.0
  0
LINE
  8
0
 62
     0
 10
41.4708
 20
87.9616
 30
0.0
 11
40.67
 21
87.9616
 31
0.0
  0
LINE
  8
0
 62
     0
 10
40.67
 20
87.9616
 30
0.0
 11
40.67
 21
93.7602
 31
0.0
  0
LINE
  8
0
 62
     0
 10
40.67
 20
93.7602
 30
0.0
 11
41.4708
 21
93.7602
 31
0.0
  0
LINE
  8
0
 62
     0
 10
41.4708
 20
93.7602
 30
0.0
 11
41.4708
 21
96.8608
 31
0.0
  0
LINE
  8
0
 62
     0
 10
41.4708
 20
96.8608
 30
0.0
 11
40.67
 21
96.8608
 31
0.0
  0
LINE
  8
0
 62
     0
 10
40.67
 20
96.8608
 30
0.0
 11
40.67
 21
97.8613
 31
0.0
  0
LINE
  8
0
 62
     0
 10
40.67
 20
97.8613
 30
0.0
 11
26.6706
 21
97.8613
 31
0.0
  0
LINE
  8
0
 62
     0
 10
7.61919
 20
97.8613
 30
0.0
 11
7.61919
 21
96.8608
 31
0.0
  0
LINE
  8
0
 62
     0
 10
7.61919
 20
96.8608
 30
0.0
 11
6.8199
 21
96.8608
 31
0.0
  0
LINE
  8
0
 62
     0
 10
6.8199
 20
96.8608
 30
0.0
 11
6.8199
 21
93.7602
 31
0.0
  0
LINE
  8
0
 62
     0
 10
6.8199
 20
93.7602
 30
0.0
 11
7.61919
 21
93.7602
 31
0.0
  0
LINE
  8
0
 62
     0
 10
7.61919
 20
93.7602
 30
0.0
 11
7.61919
 21
87.9616
 31
0.0
  0
LINE
  8
0
 62
     0
 10
7.61919
 20
87.9616
 30
0.0
 11
6.8199
 21
87.9616
 31
0.0
  0
LINE
  8
0
 62
     0
 10
6.8199
 20
87.9616
 30
0.0
 11
6.8199
 21
84.8596
 31
0.0
  0
LINE
  8
0
 62
     0
 10
6.8199
 20
84.8596
 30
0.0
 11
7.61919
 21
84.8596
 31
0.0
  0
LINE
  8
0
 62
     0
 10
7.61919
 20
84.8596
 30
0.0
 11
7.61919
 21
83.8606
 31
0.0
  0
LINE
  8
0
 62
     0
 10
7.61919
 20
83.8606
 30
0.0
 11
21.6201
 21
83.8606
 31
0.0
  0
LINE
  8
0
 62
     0
 10
21.6201
 20
83.8606
 30
0.0
 11
21.6201
 21
84.8596
 31
0.0
  0
LINE
  8
0
 62
     0
 10
21.6201
 20
84.8596
 30
0.0
 11
22.4207
 21
84.8596
 31
0.0
  0
LINE
  8
0
 62
     0
 10
22.4207
 20
84.8596
 30
0.0
 11
22.4207
 21
87.9616
 31
0.0
  0
LINE
  8
0
 62
     0
 10
22.4207
 20
87.9616
 30
0.0
 11
21.6201
 21
87.9616
 31
0.0
  0
LINE
  8
0
 62
     0
 10
21.6201
 20
87.9616
 30
0.0
 11
21.6201
 21
93.7602
 31
0.0
  0
LINE
  8
0
 62
     0
 10
21.6201
 20
93.7602
 30
0.0
 11
22.4207
 21
93.7602
 31
0.0
  0
LINE
  8
0
 62
     0
 10
22.4207
 20
93.7602
 30
0.0
 11
22.4207
 21
96.8608
 31
0.0
  0
LINE
  8
0
 62
     0
 10
22.4207
 20
96.8608
 30
0.0
 11
21.6201
 21
96.8608
 31
0.0
  0
LINE
  8
0
 62
     0
 10
21.6201
 20
96.8608
 30
0.0
 11
21.6201
 21
97.8613
 31
0.0
  0
LINE
  8
0
 62
     0
 10
21.6201
 20
97.8613
 30
0.0
 11
7.61919
 21
97.8613
 31
0.0
  0
ENDSEC
  0
EOF
