  0
SECTION
  2
HEADER
  9
$ACADVER
  1
AC1009
  9
$EXTMIN
 10
0.0
 20
0.0
 30
0.0
  9
$EXTMAX
 10
1000.0
 20
1000.0
 30
0.0
  9
$FILLMODE
 70
 0
  9
$SPLFRAME
 70
 1
  0
ENDSEC
  0
SECTION
  2
TABLES
  0
TABLE
  2
LAYER
 70
1
  0
LAYER
  2
0
 70
     0
 62
     7
  6
CONTINUOUS
  0
ENDTAB
  0
ENDSEC
  0
SECTION
  2
ENTITIES
  0
LINE
  8
0
 62
     0
 10
0.0950846
 20
95.5075
 30
0.0
 11
76.2953
 21
95.5075
 31
0.0
  0
LINE
  8
0
 62
     0
 10
76.2953
 20
95.5075
 30
0.0
 11
76.2953
 21
0.257693
 31
0.0
  0
LINE
  8
0
 62
     0
 10
76.2953
 20
0.257693
 30
0.0
 11
0.0950846
 21
0.257693
 31
0.0
  0
LINE
  8
0
 62
     0
 10
0.0950846
 20
0.257693
 30
0.0
 11
0.0950846
 21
95.5075
 31
0.0
  0
LINE
  8
0
 62
     0
 10
12.1447
 20
16.7831
 30
0.0
 11
12.1447
 21
15.7827
 31
0.0
  0
LINE
  8
0
 62
     0
 10
12.1447
 20
15.7827
 30
0.0
 11
11.344
 21
15.7827
 31
0.0
  0
LINE
  8
0
 62
     0
 10
11.344
 20
15.7827
 30
0.0
 11
11.344
 21
12.6848
 31
0.0
  0
LINE
  8
0
 62
     0
 10
11.344
 20
12.6848
 30
0.0
 11
12.1447
 21
12.6848
 31
0.0
  0
LINE
  8
0
 62
     0
 10
12.1447
 20
12.6848
 30
0.0
 11
12.1447
 21
12.0826
 31
0.0
  0
LINE
  8
0
 62
     0
 10
12.1447
 20
12.0826
 30
0.0
 11
10.6192
 21
12.0826
 31
0.0
  0
LINE
  8
0
 62
     0
 10
10.6192
 20
12.0826
 30
0.0
 11
10.6192
 21
15.3128
 31
0.0
  0
LINE
  8
0
 62
     0
 10
10.6192
 20
15.3128
 30
0.0
 11
8.89385
 21
15.3128
 31
0.0
  0
LINE
  8
0
 62
     0
 10
8.89385
 20
15.3128
 30
0.0
 11
8.89385
 21
16.2347
 31
0.0
  0
LINE
  8
0
 62
     0
 10
8.89385
 20
16.2347
 30
0.0
 11
5.59484
 21
16.2347
 31
0.0
  0
LINE
  8
0
 62
     0
 10
5.59484
 20
16.2347
 30
0.0
 11
5.59484
 21
15.3128
 31
0.0
  0
LINE
  8
0
 62
     0
 10
5.59484
 20
15.3128
 30
0.0
 11
3.86955
 21
15.3128
 31
0.0
  0
LINE
  8
0
 62
     0
 10
3.86955
 20
15.3128
 30
0.0
 11
3.86955
 21
12.0826
 31
0.0
  0
LINE
  8
0
 62
     0
 10
3.86955
 20
12.0826
 30
0.0
 11
3.04409
 21
12.0826
 31
0.0
  0
LINE
  8
0
 62
     0
 10
3.04409
 20
12.0826
 30
0.0
 11
3.04409
 21
9.28384
 31
0.0
  0
LINE
  8
0
 62
     0
 10
3.04409
 20
9.28384
 30
0.0
 11
3.86955
 21
9.28384
 31
0.0
  0
LINE
  8
0
 62
     0
 10
3.86955
 20
9.28384
 30
0.0
 11
3.86955
 21
3.01377
 31
0.0
  0
LINE
  8
0
 62
     0
 10
3.86955
 20
3.01377
 30
0.0
 11
5.59484
 21
3.01377
 31
0.0
  0
LINE
  8
0
 62
     0
 10
5.59484
 20
3.01377
 30
0.0
 11
5.59484
 21
2.03261
 31
0.0
  0
LINE
  8
0
 62
     0
 10
5.59484
 20
2.03261
 30
0.0
 11
8.89385
 21
2.03261
 31
0.0
  0
LINE
  8
0
 62
     0
 10
8.89385
 20
2.03261
 30
0.0
 11
8.89385
 21
3.01377
 31
0.0
  0
LINE
  8
0
 62
     0
 10
8.89385
 20
3.01377
 30
0.0
 11
10.6192
 21
3.01377
 31
0.0
  0
LINE
  8
0
 62
     0
 10
10.6192
 20
3.01377
 30
0.0
 11
10.6192
 21
7.48411
 31
0.0
  0
LINE
  8
0
 62
     0
 10
10.6192
 20
7.48411
 30
0.0
 11
12.1447
 21
7.48411
 31
0.0
  0
LINE
  8
0
 62
     0
 10
12.1447
 20
7.48411
 30
0.0
 11
12.1447
 21
6.88329
 31
0.0
  0
LINE
  8
0
 62
     0
 10
12.1447
 20
6.88329
 30
0.0
 11
11.344
 21
6.88329
 31
0.0
  0
LINE
  8
0
 62
     0
 10
11.344
 20
6.88329
 30
0.0
 11
11.344
 21
3.78273
 31
0.0
  0
LINE
  8
0
 62
     0
 10
11.344
 20
3.78273
 30
0.0
 11
12.1447
 21
3.78273
 31
0.0
  0
LINE
  8
0
 62
     0
 10
12.1447
 20
3.78273
 30
0.0
 11
12.1447
 21
2.78364
 31
0.0
  0
LINE
  8
0
 62
     0
 10
12.1447
 20
2.78364
 30
0.0
 11
26.1441
 21
2.78364
 31
0.0
  0
LINE
  8
0
 62
     0
 10
26.1441
 20
2.78364
 30
0.0
 11
26.1441
 21
3.78273
 31
0.0
  0
LINE
  8
0
 62
     0
 10
26.1441
 20
3.78273
 30
0.0
 11
26.9448
 21
3.78273
 31
0.0
  0
LINE
  8
0
 62
     0
 10
26.9448
 20
3.78273
 30
0.0
 11
26.9448
 21
6.88329
 31
0.0
  0
LINE
  8
0
 62
     0
 10
26.9448
 20
6.88329
 30
0.0
 11
26.1441
 21
6.88329
 31
0.0
  0
LINE
  8
0
 62
     0
 10
26.1441
 20
6.88329
 30
0.0
 11
26.1441
 21
7.48411
 31
0.0
  0
LINE
  8
0
 62
     0
 10
26.1441
 20
7.48411
 30
0.0
 11
27.6696
 21
7.48411
 31
0.0
  0
LINE
  8
0
 62
     0
 10
27.6696
 20
7.48411
 30
0.0
 11
27.6696
 21
3.01377
 31
0.0
  0
LINE
  8
0
 62
     0
 10
27.6696
 20
3.01377
 30
0.0
 11
29.3949
 21
3.01377
 31
0.0
  0
LINE
  8
0
 62
     0
 10
29.3949
 20
3.01377
 30
0.0
 11
29.3949
 21
2.03261
 31
0.0
  0
LINE
  8
0
 62
     0
 10
29.3949
 20
2.03261
 30
0.0
 11
32.694
 21
2.03261
 31
0.0
  0
LINE
  8
0
 62
     0
 10
32.694
 20
2.03261
 30
0.0
 11
32.694
 21
3.01377
 31
0.0
  0
LINE
  8
0
 62
     0
 10
32.694
 20
3.01377
 30
0.0
 11
34.4193
 21
3.01377
 31
0.0
  0
LINE
  8
0
 62
     0
 10
34.4193
 20
3.01377
 30
0.0
 11
34.4193
 21
9.28384
 31
0.0
  0
LINE
  8
0
 62
     0
 10
34.4193
 20
9.28384
 30
0.0
 11
35.2447
 21
9.28384
 31
0.0
  0
LINE
  8
0
 62
     0
 10
35.2447
 20
9.28384
 30
0.0
 11
35.2447
 21
12.0826
 31
0.0
  0
LINE
  8
0
 62
     0
 10
35.2447
 20
12.0826
 30
0.0
 11
34.4193
 21
12.0826
 31
0.0
  0
LINE
  8
0
 62
     0
 10
34.4193
 20
12.0826
 30
0.0
 11
34.4193
 21
15.3128
 31
0.0
  0
LINE
  8
0
 62
     0
 10
34.4193
 20
15.3128
 30
0.0
 11
32.694
 21
15.3128
 31
0.0
  0
LINE
  8
0
 62
     0
 10
32.694
 20
15.3128
 30
0.0
 11
32.694
 21
16.2347
 31
0.0
  0
LINE
  8
0
 62
     0
 10
32.694
 20
16.2347
 30
0.0
 11
29.3949
 21
16.2347
 31
0.0
  0
LINE
  8
0
 62
     0
 10
29.3949
 20
16.2347
 30
0.0
 11
29.3949
 21
15.3128
 31
0.0
  0
LINE
  8
0
 62
     0
 10
29.3949
 20
15.3128
 30
0.0
 11
27.6696
 21
15.3128
 31
0.0
  0
LINE
  8
0
 62
     0
 10
27.6696
 20
15.3128
 30
0.0
 11
27.6696
 21
12.0826
 31
0.0
  0
LINE
  8
0
 62
     0
 10
27.6696
 20
12.0826
 30
0.0
 11
26.1441
 21
12.0826
 31
0.0
  0
LINE
  8
0
 62
     0
 10
26.1441
 20
12.0826
 30
0.0
 11
26.1441
 21
12.6848
 31
0.0
  0
LINE
  8
0
 62
     0
 10
26.1441
 20
12.6848
 30
0.0
 11
26.9448
 21
12.6848
 31
0.0
  0
LINE
  8
0
 62
     0
 10
26.9448
 20
12.6848
 30
0.0
 11
26.9448
 21
15.7827
 31
0.0
  0
LINE
  8
0
 62
     0
 10
26.9448
 20
15.7827
 30
0.0
 11
26.1441
 21
15.7827
 31
0.0
  0
LINE
  8
0
 62
     0
 10
26.1441
 20
15.7827
 30
0.0
 11
26.1441
 21
16.7831
 31
0.0
  0
LINE
  8
0
 62
     0
 10
26.1441
 20
16.7831
 30
0.0
 11
12.1447
 21
16.7831
 31
0.0
  0
LINE
  8
0
 62
     0
 10
40.7197
 20
16.7831
 30
0.0
 11
40.7197
 21
15.7827
 31
0.0
  0
LINE
  8
0
 62
     0
 10
40.7197
 20
15.7827
 30
0.0
 11
39.9189
 21
15.7827
 31
0.0
  0
LINE
  8
0
 62
     0
 10
39.9189
 20
15.7827
 30
0.0
 11
39.9189
 21
12.6848
 31
0.0
  0
LINE
  8
0
 62
     0
 10
39.9189
 20
12.6848
 30
0.0
 11
40.7197
 21
12.6848
 31
0.0
  0
LINE
  8
0
 62
     0
 10
40.7197
 20
12.6848
 30
0.0
 11
40.7197
 21
6.88329
 31
0.0
  0
LINE
  8
0
 62
     0
 10
40.7197
 20
6.88329
 30
0.0
 11
39.9189
 21
6.88329
 31
0.0
  0
LINE
  8
0
 62
     0
 10
39.9189
 20
6.88329
 30
0.0
 11
39.9189
 21
3.78273
 31
0.0
  0
LINE
  8
0
 62
     0
 10
39.9189
 20
3.78273
 30
0.0
 11
40.7197
 21
3.78273
 31
0.0
  0
LINE
  8
0
 62
     0
 10
40.7197
 20
3.78273
 30
0.0
 11
40.7197
 21
2.78364
 31
0.0
  0
LINE
  8
0
 62
     0
 10
40.7197
 20
2.78364
 30
0.0
 11
54.719
 21
2.78364
 31
0.0
  0
LINE
  8
0
 62
     0
 10
54.719
 20
2.78364
 30
0.0
 11
54.719
 21
3.78273
 31
0.0
  0
LINE
  8
0
 62
     0
 10
54.719
 20
3.78273
 30
0.0
 11
55.5198
 21
3.78273
 31
0.0
  0
LINE
  8
0
 62
     0
 10
55.5198
 20
3.78273
 30
0.0
 11
55.5198
 21
6.88329
 31
0.0
  0
LINE
  8
0
 62
     0
 10
55.5198
 20
6.88329
 30
0.0
 11
54.719
 21
6.88329
 31
0.0
  0
LINE
  8
0
 62
     0
 10
54.719
 20
6.88329
 30
0.0
 11
54.719
 21
12.6848
 31
0.0
  0
LINE
  8
0
 62
     0
 10
54.719
 20
12.6848
 30
0.0
 11
55.5198
 21
12.6848
 31
0.0
  0
LINE
  8
0
 62
     0
 10
55.5198
 20
12.6848
 30
0.0
 11
55.5198
 21
15.7827
 31
0.0
  0
LINE
  8
0
 62
     0
 10
55.5198
 20
15.7827
 30
0.0
 11
54.719
 21
15.7827
 31
0.0
  0
LINE
  8
0
 62
     0
 10
54.719
 20
15.7827
 30
0.0
 11
54.719
 21
16.7831
 31
0.0
  0
LINE
  8
0
 62
     0
 10
54.719
 20
16.7831
 30
0.0
 11
40.7197
 21
16.7831
 31
0.0
  0
LINE
  8
0
 62
     0
 10
66.27
 20
35.4087
 30
0.0
 11
66.27
 21
34.5833
 31
0.0
  0
LINE
  8
0
 62
     0
 10
66.27
 20
34.5833
 30
0.0
 11
59.9997
 21
34.5833
 31
0.0
  0
LINE
  8
0
 62
     0
 10
59.9997
 20
34.5833
 30
0.0
 11
59.9997
 21
32.8579
 31
0.0
  0
LINE
  8
0
 62
     0
 10
59.9997
 20
32.8579
 30
0.0
 11
59.0201
 21
32.8579
 31
0.0
  0
LINE
  8
0
 62
     0
 10
59.0201
 20
32.8579
 30
0.0
 11
59.0201
 21
29.5589
 31
0.0
  0
LINE
  8
0
 62
     0
 10
59.0201
 20
29.5589
 30
0.0
 11
59.9997
 21
29.5589
 31
0.0
  0
LINE
  8
0
 62
     0
 10
59.9997
 20
29.5589
 30
0.0
 11
59.9997
 21
27.8336
 31
0.0
  0
LINE
  8
0
 62
     0
 10
59.9997
 20
27.8336
 30
0.0
 11
64.4701
 21
27.8336
 31
0.0
  0
LINE
  8
0
 62
     0
 10
64.4701
 20
27.8336
 30
0.0
 11
64.4701
 21
26.3081
 31
0.0
  0
LINE
  8
0
 62
     0
 10
64.4701
 20
26.3081
 30
0.0
 11
63.8679
 21
26.3081
 31
0.0
  0
LINE
  8
0
 62
     0
 10
63.8679
 20
26.3081
 30
0.0
 11
63.8679
 21
27.1088
 31
0.0
  0
LINE
  8
0
 62
     0
 10
63.8679
 20
27.1088
 30
0.0
 11
60.7702
 21
27.1088
 31
0.0
  0
LINE
  8
0
 62
     0
 10
60.7702
 20
27.1088
 30
0.0
 11
60.7702
 21
26.3081
 31
0.0
  0
LINE
  8
0
 62
     0
 10
60.7702
 20
26.3081
 30
0.0
 11
59.7697
 21
26.3081
 31
0.0
  0
LINE
  8
0
 62
     0
 10
59.7697
 20
26.3081
 30
0.0
 11
59.7697
 21
12.3086
 31
0.0
  0
LINE
  8
0
 62
     0
 10
59.7697
 20
12.3086
 30
0.0
 11
60.7702
 21
12.3086
 31
0.0
  0
LINE
  8
0
 62
     0
 10
60.7702
 20
12.3086
 30
0.0
 11
60.7702
 21
11.508
 31
0.0
  0
LINE
  8
0
 62
     0
 10
60.7702
 20
11.508
 30
0.0
 11
63.8679
 21
11.508
 31
0.0
  0
LINE
  8
0
 62
     0
 10
63.8679
 20
11.508
 30
0.0
 11
63.8679
 21
12.3086
 31
0.0
  0
LINE
  8
0
 62
     0
 10
63.8679
 20
12.3086
 30
0.0
 11
64.4701
 21
12.3086
 31
0.0
  0
LINE
  8
0
 62
     0
 10
64.4701
 20
12.3086
 30
0.0
 11
64.4701
 21
10.7831
 31
0.0
  0
LINE
  8
0
 62
     0
 10
64.4701
 20
10.7831
 30
0.0
 11
59.9997
 21
10.7831
 31
0.0
  0
LINE
  8
0
 62
     0
 10
59.9997
 20
10.7831
 30
0.0
 11
59.9997
 21
9.05785
 31
0.0
  0
LINE
  8
0
 62
     0
 10
59.9997
 20
9.05785
 30
0.0
 11
59.0201
 21
9.05785
 31
0.0
  0
LINE
  8
0
 62
     0
 10
59.0201
 20
9.05785
 30
0.0
 11
59.0201
 21
5.75881
 31
0.0
  0
LINE
  8
0
 62
     0
 10
59.0201
 20
5.75881
 30
0.0
 11
59.9997
 21
5.75881
 31
0.0
  0
LINE
  8
0
 62
     0
 10
59.9997
 20
5.75881
 30
0.0
 11
59.9997
 21
4.03352
 31
0.0
  0
LINE
  8
0
 62
     0
 10
59.9997
 20
4.03352
 30
0.0
 11
66.27
 21
4.03352
 31
0.0
  0
LINE
  8
0
 62
     0
 10
66.27
 20
4.03352
 30
0.0
 11
66.27
 21
3.20807
 31
0.0
  0
LINE
  8
0
 62
     0
 10
66.27
 20
3.20807
 30
0.0
 11
69.07
 21
3.20807
 31
0.0
  0
LINE
  8
0
 62
     0
 10
69.07
 20
3.20807
 30
0.0
 11
69.07
 21
4.03352
 31
0.0
  0
LINE
  8
0
 62
     0
 10
69.07
 20
4.03352
 30
0.0
 11
72.3
 21
4.03352
 31
0.0
  0
LINE
  8
0
 62
     0
 10
72.3
 20
4.03352
 30
0.0
 11
72.3
 21
5.75881
 31
0.0
  0
LINE
  8
0
 62
     0
 10
72.3
 20
5.75881
 30
0.0
 11
73.2194
 21
5.75881
 31
0.0
  0
LINE
  8
0
 62
     0
 10
73.2194
 20
5.75881
 30
0.0
 11
73.2194
 21
9.05785
 31
0.0
  0
LINE
  8
0
 62
     0
 10
73.2194
 20
9.05785
 30
0.0
 11
72.3
 21
9.05785
 31
0.0
  0
LINE
  8
0
 62
     0
 10
72.3
 20
9.05785
 30
0.0
 11
72.3
 21
10.7831
 31
0.0
  0
LINE
  8
0
 62
     0
 10
72.3
 20
10.7831
 30
0.0
 11
69.07
 21
10.7831
 31
0.0
  0
LINE
  8
0
 62
     0
 10
69.07
 20
10.7831
 30
0.0
 11
69.07
 21
12.3086
 31
0.0
  0
LINE
  8
0
 62
     0
 10
69.07
 20
12.3086
 30
0.0
 11
69.6694
 21
12.3086
 31
0.0
  0
LINE
  8
0
 62
     0
 10
69.6694
 20
12.3086
 30
0.0
 11
69.6694
 21
11.508
 31
0.0
  0
LINE
  8
0
 62
     0
 10
69.6694
 20
11.508
 30
0.0
 11
72.7699
 21
11.508
 31
0.0
  0
LINE
  8
0
 62
     0
 10
72.7699
 20
11.508
 30
0.0
 11
72.7699
 21
12.3086
 31
0.0
  0
LINE
  8
0
 62
     0
 10
72.7699
 20
12.3086
 30
0.0
 11
73.769
 21
12.3086
 31
0.0
  0
LINE
  8
0
 62
     0
 10
73.769
 20
12.3086
 30
0.0
 11
73.769
 21
26.3081
 31
0.0
  0
LINE
  8
0
 62
     0
 10
73.769
 20
26.3081
 30
0.0
 11
72.7699
 21
26.3081
 31
0.0
  0
LINE
  8
0
 62
     0
 10
72.7699
 20
26.3081
 30
0.0
 11
72.7699
 21
27.1088
 31
0.0
  0
LINE
  8
0
 62
     0
 10
72.7699
 20
27.1088
 30
0.0
 11
69.6694
 21
27.1088
 31
0.0
  0
LINE
  8
0
 62
     0
 10
69.6694
 20
27.1088
 30
0.0
 11
69.6694
 21
26.3081
 31
0.0
  0
LINE
  8
0
 62
     0
 10
69.6694
 20
26.3081
 30
0.0
 11
69.07
 21
26.3081
 31
0.0
  0
LINE
  8
0
 62
     0
 10
69.07
 20
26.3081
 30
0.0
 11
69.07
 21
27.8336
 31
0.0
  0
LINE
  8
0
 62
     0
 10
69.07
 20
27.8336
 30
0.0
 11
72.3
 21
27.8336
 31
0.0
  0
LINE
  8
0
 62
     0
 10
72.3
 20
27.8336
 30
0.0
 11
72.3
 21
29.5589
 31
0.0
  0
LINE
  8
0
 62
     0
 10
72.3
 20
29.5589
 30
0.0
 11
73.2194
 21
29.5589
 31
0.0
  0
LINE
  8
0
 62
     0
 10
73.2194
 20
29.5589
 30
0.0
 11
73.2194
 21
32.8579
 31
0.0
  0
LINE
  8
0
 62
     0
 10
73.2194
 20
32.8579
 30
0.0
 11
72.3
 21
32.8579
 31
0.0
  0
LINE
  8
0
 62
     0
 10
72.3
 20
32.8579
 30
0.0
 11
72.3
 21
34.5833
 31
0.0
  0
LINE
  8
0
 62
     0
 10
72.3
 20
34.5833
 30
0.0
 11
69.07
 21
34.5833
 31
0.0
  0
LINE
  8
0
 62
     0
 10
69.07
 20
34.5833
 30
0.0
 11
69.07
 21
35.4087
 31
0.0
  0
LINE
  8
0
 62
     0
 10
69.07
 20
35.4087
 30
0.0
 11
66.27
 21
35.4087
 31
0.0
  0
LINE
  8
0
 62
     0
 10
40.7197
 20
35.833
 30
0.0
 11
40.7197
 21
34.8327
 31
0.0
  0
LINE
  8
0
 62
     0
 10
40.7197
 20
34.8327
 30
0.0
 11
39.9189
 21
34.8327
 31
0.0
  0
LINE
  8
0
 62
     0
 10
39.9189
 20
34.8327
 30
0.0
 11
39.9189
 21
31.7348
 31
0.0
  0
LINE
  8
0
 62
     0
 10
39.9189
 20
31.7348
 30
0.0
 11
40.7197
 21
31.7348
 31
0.0
  0
LINE
  8
0
 62
     0
 10
40.7197
 20
31.7348
 30
0.0
 11
40.7197
 21
25.9333
 31
0.0
  0
LINE
  8
0
 62
     0
 10
40.7197
 20
25.9333
 30
0.0
 11
39.9189
 21
25.9333
 31
0.0
  0
LINE
  8
0
 62
     0
 10
39.9189
 20
25.9333
 30
0.0
 11
39.9189
 21
22.8327
 31
0.0
  0
LINE
  8
0
 62
     0
 10
39.9189
 20
22.8327
 30
0.0
 11
40.7197
 21
22.8327
 31
0.0
  0
LINE
  8
0
 62
     0
 10
40.7197
 20
22.8327
 30
0.0
 11
40.7197
 21
21.8336
 31
0.0
  0
LINE
  8
0
 62
     0
 10
40.7197
 20
21.8336
 30
0.0
 11
54.719
 21
21.8336
 31
0.0
  0
LINE
  8
0
 62
     0
 10
54.719
 20
21.8336
 30
0.0
 11
54.719
 21
22.8327
 31
0.0
  0
LINE
  8
0
 62
     0
 10
54.719
 20
22.8327
 30
0.0
 11
55.5198
 21
22.8327
 31
0.0
  0
LINE
  8
0
 62
     0
 10
55.5198
 20
22.8327
 30
0.0
 11
55.5198
 21
25.9333
 31
0.0
  0
LINE
  8
0
 62
     0
 10
55.5198
 20
25.9333
 30
0.0
 11
54.719
 21
25.9333
 31
0.0
  0
LINE
  8
0
 62
     0
 10
54.719
 20
25.9333
 30
0.0
 11
54.719
 21
31.7348
 31
0.0
  0
LINE
  8
0
 62
     0
 10
54.719
 20
31.7348
 30
0.0
 11
55.5198
 21
31.7348
 31
0.0
  0
LINE
  8
0
 62
     0
 10
55.5198
 20
31.7348
 30
0.0
 11
55.5198
 21
34.8327
 31
0.0
  0
LINE
  8
0
 62
     0
 10
55.5198
 20
34.8327
 30
0.0
 11
54.719
 21
34.8327
 31
0.0
  0
LINE
  8
0
 62
     0
 10
54.719
 20
34.8327
 30
0.0
 11
54.719
 21
35.833
 31
0.0
  0
LINE
  8
0
 62
     0
 10
54.719
 20
35.833
 30
0.0
 11
40.7197
 21
35.833
 31
0.0
  0
LINE
  8
0
 62
     0
 10
21.6697
 20
35.833
 30
0.0
 11
21.6697
 21
34.8327
 31
0.0
  0
LINE
  8
0
 62
     0
 10
21.6697
 20
34.8327
 30
0.0
 11
20.869
 21
34.8327
 31
0.0
  0
LINE
  8
0
 62
     0
 10
20.869
 20
34.8327
 30
0.0
 11
20.869
 21
31.7348
 31
0.0
  0
LINE
  8
0
 62
     0
 10
20.869
 20
31.7348
 30
0.0
 11
21.6697
 21
31.7348
 31
0.0
  0
LINE
  8
0
 62
     0
 10
21.6697
 20
31.7348
 30
0.0
 11
21.6697
 21
25.9333
 31
0.0
  0
LINE
  8
0
 62
     0
 10
21.6697
 20
25.9333
 30
0.0
 11
20.869
 21
25.9333
 31
0.0
  0
LINE
  8
0
 62
     0
 10
20.869
 20
25.9333
 30
0.0
 11
20.869
 21
22.8327
 31
0.0
  0
LINE
  8
0
 62
     0
 10
20.869
 20
22.8327
 30
0.0
 11
21.6697
 21
22.8327
 31
0.0
  0
LINE
  8
0
 62
     0
 10
21.6697
 20
22.8327
 30
0.0
 11
21.6697
 21
21.8336
 31
0.0
  0
LINE
  8
0
 62
     0
 10
21.6697
 20
21.8336
 30
0.0
 11
35.669
 21
21.8336
 31
0.0
  0
LINE
  8
0
 62
     0
 10
35.669
 20
21.8336
 30
0.0
 11
35.669
 21
22.8327
 31
0.0
  0
LINE
  8
0
 62
     0
 10
35.669
 20
22.8327
 30
0.0
 11
36.4698
 21
22.8327
 31
0.0
  0
LINE
  8
0
 62
     0
 10
36.4698
 20
22.8327
 30
0.0
 11
36.4698
 21
25.9333
 31
0.0
  0
LINE
  8
0
 62
     0
 10
36.4698
 20
25.9333
 30
0.0
 11
35.669
 21
25.9333
 31
0.0
  0
LINE
  8
0
 62
     0
 10
35.669
 20
25.9333
 30
0.0
 11
35.669
 21
31.7348
 31
0.0
  0
LINE
  8
0
 62
     0
 10
35.669
 20
31.7348
 30
0.0
 11
36.4698
 21
31.7348
 31
0.0
  0
LINE
  8
0
 62
     0
 10
36.4698
 20
31.7348
 30
0.0
 11
36.4698
 21
34.8327
 31
0.0
  0
LINE
  8
0
 62
     0
 10
36.4698
 20
34.8327
 30
0.0
 11
35.669
 21
34.8327
 31
0.0
  0
LINE
  8
0
 62
     0
 10
35.669
 20
34.8327
 30
0.0
 11
35.669
 21
35.833
 31
0.0
  0
LINE
  8
0
 62
     0
 10
35.669
 20
35.833
 30
0.0
 11
21.6697
 21
35.833
 31
0.0
  0
LINE
  8
0
 62
     0
 10
2.61965
 20
35.833
 30
0.0
 11
2.61965
 21
34.8327
 31
0.0
  0
LINE
  8
0
 62
     0
 10
2.61965
 20
34.8327
 30
0.0
 11
1.81901
 21
34.8327
 31
0.0
  0
LINE
  8
0
 62
     0
 10
1.81901
 20
34.8327
 30
0.0
 11
1.81901
 21
31.7348
 31
0.0
  0
LINE
  8
0
 62
     0
 10
1.81901
 20
31.7348
 30
0.0
 11
2.61965
 21
31.7348
 31
0.0
  0
LINE
  8
0
 62
     0
 10
2.61965
 20
31.7348
 30
0.0
 11
2.61965
 21
25.9333
 31
0.0
  0
LINE
  8
0
 62
     0
 10
2.61965
 20
25.9333
 30
0.0
 11
1.81901
 21
25.9333
 31
0.0
  0
LINE
  8
0
 62
     0
 10
1.81901
 20
25.9333
 30
0.0
 11
1.81901
 21
22.8327
 31
0.0
  0
LINE
  8
0
 62
     0
 10
1.81901
 20
22.8327
 30
0.0
 11
2.61965
 21
22.8327
 31
0.0
  0
LINE
  8
0
 62
     0
 10
2.61965
 20
22.8327
 30
0.0
 11
2.61965
 21
21.8336
 31
0.0
  0
LINE
  8
0
 62
     0
 10
2.61965
 20
21.8336
 30
0.0
 11
16.6192
 21
21.8336
 31
0.0
  0
LINE
  8
0
 62
     0
 10
16.6192
 20
21.8336
 30
0.0
 11
16.6192
 21
22.8327
 31
0.0
  0
LINE
  8
0
 62
     0
 10
16.6192
 20
22.8327
 30
0.0
 11
17.4198
 21
22.8327
 31
0.0
  0
LINE
  8
0
 62
     0
 10
17.4198
 20
22.8327
 30
0.0
 11
17.4198
 21
25.9333
 31
0.0
  0
LINE
  8
0
 62
     0
 10
17.4198
 20
25.9333
 30
0.0
 11
16.6192
 21
25.9333
 31
0.0
  0
LINE
  8
0
 62
     0
 10
16.6192
 20
25.9333
 30
0.0
 11
16.6192
 21
31.7348
 31
0.0
  0
LINE
  8
0
 62
     0
 10
16.6192
 20
31.7348
 30
0.0
 11
17.4198
 21
31.7348
 31
0.0
  0
LINE
  8
0
 62
     0
 10
17.4198
 20
31.7348
 30
0.0
 11
17.4198
 21
34.8327
 31
0.0
  0
LINE
  8
0
 62
     0
 10
17.4198
 20
34.8327
 30
0.0
 11
16.6192
 21
34.8327
 31
0.0
  0
LINE
  8
0
 62
     0
 10
16.6192
 20
34.8327
 30
0.0
 11
16.6192
 21
35.833
 31
0.0
  0
LINE
  8
0
 62
     0
 10
16.6192
 20
35.833
 30
0.0
 11
2.61965
 21
35.833
 31
0.0
  0
LINE
  8
0
 62
     0
 10
59.7697
 20
54.8831
 30
0.0
 11
59.7697
 21
53.8826
 31
0.0
  0
LINE
  8
0
 62
     0
 10
59.7697
 20
53.8826
 30
0.0
 11
58.9689
 21
53.8826
 31
0.0
  0
LINE
  8
0
 62
     0
 10
58.9689
 20
53.8826
 30
0.0
 11
58.9689
 21
50.7834
 31
0.0
  0
LINE
  8
0
 62
     0
 10
58.9689
 20
50.7834
 30
0.0
 11
59.7697
 21
50.7834
 31
0.0
  0
LINE
  8
0
 62
     0
 10
59.7697
 20
50.7834
 30
0.0
 11
59.7697
 21
44.9834
 31
0.0
  0
LINE
  8
0
 62
     0
 10
59.7697
 20
44.9834
 30
0.0
 11
58.9689
 21
44.9834
 31
0.0
  0
LINE
  8
0
 62
     0
 10
58.9689
 20
44.9834
 30
0.0
 11
58.9689
 21
41.8828
 31
0.0
  0
LINE
  8
0
 62
     0
 10
58.9689
 20
41.8828
 30
0.0
 11
59.7697
 21
41.8828
 31
0.0
  0
LINE
  8
0
 62
     0
 10
59.7697
 20
41.8828
 30
0.0
 11
59.7697
 21
40.8838
 31
0.0
  0
LINE
  8
0
 62
     0
 10
59.7697
 20
40.8838
 30
0.0
 11
73.769
 21
40.8838
 31
0.0
  0
LINE
  8
0
 62
     0
 10
73.769
 20
40.8838
 30
0.0
 11
73.769
 21
41.8828
 31
0.0
  0
LINE
  8
0
 62
     0
 10
73.769
 20
41.8828
 30
0.0
 11
74.5698
 21
41.8828
 31
0.0
  0
LINE
  8
0
 62
     0
 10
74.5698
 20
41.8828
 30
0.0
 11
74.5698
 21
44.9834
 31
0.0
  0
LINE
  8
0
 62
     0
 10
74.5698
 20
44.9834
 30
0.0
 11
73.769
 21
44.9834
 31
0.0
  0
LINE
  8
0
 62
     0
 10
73.769
 20
44.9834
 30
0.0
 11
73.769
 21
50.7834
 31
0.0
  0
LINE
  8
0
 62
     0
 10
73.769
 20
50.7834
 30
0.0
 11
74.5698
 21
50.7834
 31
0.0
  0
LINE
  8
0
 62
     0
 10
74.5698
 20
50.7834
 30
0.0
 11
74.5698
 21
53.8826
 31
0.0
  0
LINE
  8
0
 62
     0
 10
74.5698
 20
53.8826
 30
0.0
 11
73.769
 21
53.8826
 31
0.0
  0
LINE
  8
0
 62
     0
 10
73.769
 20
53.8826
 30
0.0
 11
73.769
 21
54.8831
 31
0.0
  0
LINE
  8
0
 62
     0
 10
73.769
 20
54.8831
 30
0.0
 11
59.7697
 21
54.8831
 31
0.0
  0
LINE
  8
0
 62
     0
 10
40.7197
 20
54.8831
 30
0.0
 11
40.7197
 21
53.8826
 31
0.0
  0
LINE
  8
0
 62
     0
 10
40.7197
 20
53.8826
 30
0.0
 11
39.9189
 21
53.8826
 31
0.0
  0
LINE
  8
0
 62
     0
 10
39.9189
 20
53.8826
 30
0.0
 11
39.9189
 21
50.7834
 31
0.0
  0
LINE
  8
0
 62
     0
 10
39.9189
 20
50.7834
 30
0.0
 11
40.7197
 21
50.7834
 31
0.0
  0
LINE
  8
0
 62
     0
 10
40.7197
 20
50.7834
 30
0.0
 11
40.7197
 21
44.9834
 31
0.0
  0
LINE
  8
0
 62
     0
 10
40.7197
 20
44.9834
 30
0.0
 11
39.9189
 21
44.9834
 31
0.0
  0
LINE
  8
0
 62
     0
 10
39.9189
 20
44.9834
 30
0.0
 11
39.9189
 21
41.8828
 31
0.0
  0
LINE
  8
0
 62
     0
 10
39.9189
 20
41.8828
 30
0.0
 11
40.7197
 21
41.8828
 31
0.0
  0
LINE
  8
0
 62
     0
 10
40.7197
 20
41.8828
 30
0.0
 11
40.7197
 21
40.8838
 31
0.0
  0
LINE
  8
0
 62
     0
 10
40.7197
 20
40.8838
 30
0.0
 11
54.719
 21
40.8838
 31
0.0
  0
LINE
  8
0
 62
     0
 10
54.719
 20
40.8838
 30
0.0
 11
54.719
 21
41.8828
 31
0.0
  0
LINE
  8
0
 62
     0
 10
54.719
 20
41.8828
 30
0.0
 11
55.5198
 21
41.8828
 31
0.0
  0
LINE
  8
0
 62
     0
 10
55.5198
 20
41.8828
 30
0.0
 11
55.5198
 21
44.9834
 31
0.0
  0
LINE
  8
0
 62
     0
 10
55.5198
 20
44.9834
 30
0.0
 11
54.719
 21
44.9834
 31
0.0
  0
LINE
  8
0
 62
     0
 10
54.719
 20
44.9834
 30
0.0
 11
54.719
 21
50.7834
 31
0.0
  0
LINE
  8
0
 62
     0
 10
54.719
 20
50.7834
 30
0.0
 11
55.5198
 21
50.7834
 31
0.0
  0
LINE
  8
0
 62
     0
 10
55.5198
 20
50.7834
 30
0.0
 11
55.5198
 21
53.8826
 31
0.0
  0
LINE
  8
0
 62
     0
 10
55.5198
 20
53.8826
 30
0.0
 11
54.719
 21
53.8826
 31
0.0
  0
LINE
  8
0
 62
     0
 10
54.719
 20
53.8826
 30
0.0
 11
54.719
 21
54.8831
 31
0.0
  0
LINE
  8
0
 62
     0
 10
54.719
 20
54.8831
 30
0.0
 11
40.7197
 21
54.8831
 31
0.0
  0
LINE
  8
0
 62
     0
 10
21.6697
 20
54.8831
 30
0.0
 11
21.6697
 21
53.8826
 31
0.0
  0
LINE
  8
0
 62
     0
 10
21.6697
 20
53.8826
 30
0.0
 11
20.869
 21
53.8826
 31
0.0
  0
LINE
  8
0
 62
     0
 10
20.869
 20
53.8826
 30
0.0
 11
20.869
 21
50.7834
 31
0.0
  0
LINE
  8
0
 62
     0
 10
20.869
 20
50.7834
 30
0.0
 11
21.6697
 21
50.7834
 31
0.0
  0
LINE
  8
0
 62
     0
 10
21.6697
 20
50.7834
 30
0.0
 11
21.6697
 21
44.9834
 31
0.0
  0
LINE
  8
0
 62
     0
 10
21.6697
 20
44.9834
 30
0.0
 11
20.869
 21
44.9834
 31
0.0
  0
LINE
  8
0
 62
     0
 10
20.869
 20
44.9834
 30
0.0
 11
20.869
 21
41.8828
 31
0.0
  0
LINE
  8
0
 62
     0
 10
20.869
 20
41.8828
 30
0.0
 11
21.6697
 21
41.8828
 31
0.0
  0
LINE
  8
0
 62
     0
 10
21.6697
 20
41.8828
 30
0.0
 11
21.6697
 21
40.8838
 31
0.0
  0
LINE
  8
0
 62
     0
 10
21.6697
 20
40.8838
 30
0.0
 11
35.669
 21
40.8838
 31
0.0
  0
LINE
  8
0
 62
     0
 10
35.669
 20
40.8838
 30
0.0
 11
35.669
 21
41.8828
 31
0.0
  0
LINE
  8
0
 62
     0
 10
35.669
 20
41.8828
 30
0.0
 11
36.4698
 21
41.8828
 31
0.0
  0
LINE
  8
0
 62
     0
 10
36.4698
 20
41.8828
 30
0.0
 11
36.4698
 21
44.9834
 31
0.0
  0
LINE
  8
0
 62
     0
 10
36.4698
 20
44.9834
 30
0.0
 11
35.669
 21
44.9834
 31
0.0
  0
LINE
  8
0
 62
     0
 10
35.669
 20
44.9834
 30
0.0
 11
35.669
 21
50.7834
 31
0.0
  0
LINE
  8
0
 62
     0
 10
35.669
 20
50.7834
 30
0.0
 11
36.4698
 21
50.7834
 31
0.0
  0
LINE
  8
0
 62
     0
 10
36.4698
 20
50.7834
 30
0.0
 11
36.4698
 21
53.8826
 31
0.0
  0
LINE
  8
0
 62
     0
 10
36.4698
 20
53.8826
 30
0.0
 11
35.669
 21
53.8826
 31
0.0
  0
LINE
  8
0
 62
     0
 10
35.669
 20
53.8826
 30
0.0
 11
35.669
 21
54.8831
 31
0.0
  0
LINE
  8
0
 62
     0
 10
35.669
 20
54.8831
 30
0.0
 11
21.6697
 21
54.8831
 31
0.0
  0
LINE
  8
0
 62
     0
 10
2.61965
 20
54.8831
 30
0.0
 11
2.61965
 21
53.8826
 31
0.0
  0
LINE
  8
0
 62
     0
 10
2.61965
 20
53.8826
 30
0.0
 11
1.81901
 21
53.8826
 31
0.0
  0
LINE
  8
0
 62
     0
 10
1.81901
 20
53.8826
 30
0.0
 11
1.81901
 21
50.7834
 31
0.0
  0
LINE
  8
0
 62
     0
 10
1.81901
 20
50.7834
 30
0.0
 11
2.61965
 21
50.7834
 31
0.0
  0
LINE
  8
0
 62
     0
 10
2.61965
 20
50.7834
 30
0.0
 11
2.61965
 21
44.9834
 31
0.0
  0
LINE
  8
0
 62
     0
 10
2.61965
 20
44.9834
 30
0.0
 11
1.81901
 21
44.9834
 31
0.0
  0
LINE
  8
0
 62
     0
 10
1.81901
 20
44.9834
 30
0.0
 11
1.81901
 21
41.8828
 31
0.0
  0
LINE
  8
0
 62
     0
 10
1.81901
 20
41.8828
 30
0.0
 11
2.61965
 21
41.8828
 31
0.0
  0
LINE
  8
0
 62
     0
 10
2.61965
 20
41.8828
 30
0.0
 11
2.61965
 21
40.8838
 31
0.0
  0
LINE
  8
0
 62
     0
 10
2.61965
 20
40.8838
 30
0.0
 11
16.6192
 21
40.8838
 31
0.0
  0
LINE
  8
0
 62
     0
 10
16.6192
 20
40.8838
 30
0.0
 11
16.6192
 21
41.8828
 31
0.0
  0
LINE
  8
0
 62
     0
 10
16.6192
 20
41.8828
 30
0.0
 11
17.4198
 21
41.8828
 31
0.0
  0
LINE
  8
0
 62
     0
 10
17.4198
 20
41.8828
 30
0.0
 11
17.4198
 21
44.9834
 31
0.0
  0
LINE
  8
0
 62
     0
 10
17.4198
 20
44.9834
 30
0.0
 11
16.6192
 21
44.9834
 31
0.0
  0
LINE
  8
0
 62
     0
 10
16.6192
 20
44.9834
 30
0.0
 11
16.6192
 21
50.7834
 31
0.0
  0
LINE
  8
0
 62
     0
 10
16.6192
 20
50.7834
 30
0.0
 11
17.4198
 21
50.7834
 31
0.0
  0
LINE
  8
0
 62
     0
 10
17.4198
 20
50.7834
 30
0.0
 11
17.4198
 21
53.8826
 31
0.0
  0
LINE
  8
0
 62
     0
 10
17.4198
 20
53.8826
 30
0.0
 11
16.6192
 21
53.8826
 31
0.0
  0
LINE
  8
0
 62
     0
 10
16.6192
 20
53.8826
 30
0.0
 11
16.6192
 21
54.8831
 31
0.0
  0
LINE
  8
0
 62
     0
 10
16.6192
 20
54.8831
 30
0.0
 11
2.61965
 21
54.8831
 31
0.0
  0
LINE
  8
0
 62
     0
 10
59.7697
 20
73.9331
 30
0.0
 11
59.7697
 21
72.9326
 31
0.0
  0
LINE
  8
0
 62
     0
 10
59.7697
 20
72.9326
 30
0.0
 11
58.9689
 21
72.9326
 31
0.0
  0
LINE
  8
0
 62
     0
 10
58.9689
 20
72.9326
 30
0.0
 11
58.9689
 21
69.8334
 31
0.0
  0
LINE
  8
0
 62
     0
 10
58.9689
 20
69.8334
 30
0.0
 11
59.7697
 21
69.8334
 31
0.0
  0
LINE
  8
0
 62
     0
 10
59.7697
 20
69.8334
 30
0.0
 11
59.7697
 21
64.0334
 31
0.0
  0
LINE
  8
0
 62
     0
 10
59.7697
 20
64.0334
 30
0.0
 11
58.9689
 21
64.0334
 31
0.0
  0
LINE
  8
0
 62
     0
 10
58.9689
 20
64.0334
 30
0.0
 11
58.9689
 21
60.9328
 31
0.0
  0
LINE
  8
0
 62
     0
 10
58.9689
 20
60.9328
 30
0.0
 11
59.7697
 21
60.9328
 31
0.0
  0
LINE
  8
0
 62
     0
 10
59.7697
 20
60.9328
 30
0.0
 11
59.7697
 21
59.9338
 31
0.0
  0
LINE
  8
0
 62
     0
 10
59.7697
 20
59.9338
 30
0.0
 11
73.769
 21
59.9338
 31
0.0
  0
LINE
  8
0
 62
     0
 10
73.769
 20
59.9338
 30
0.0
 11
73.769
 21
60.9328
 31
0.0
  0
LINE
  8
0
 62
     0
 10
73.769
 20
60.9328
 30
0.0
 11
74.5698
 21
60.9328
 31
0.0
  0
LINE
  8
0
 62
     0
 10
74.5698
 20
60.9328
 30
0.0
 11
74.5698
 21
64.0334
 31
0.0
  0
LINE
  8
0
 62
     0
 10
74.5698
 20
64.0334
 30
0.0
 11
73.769
 21
64.0334
 31
0.0
  0
LINE
  8
0
 62
     0
 10
73.769
 20
64.0334
 30
0.0
 11
73.769
 21
69.8334
 31
0.0
  0
LINE
  8
0
 62
     0
 10
73.769
 20
69.8334
 30
0.0
 11
74.5698
 21
69.8334
 31
0.0
  0
LINE
  8
0
 62
     0
 10
74.5698
 20
69.8334
 30
0.0
 11
74.5698
 21
72.9326
 31
0.0
  0
LINE
  8
0
 62
     0
 10
74.5698
 20
72.9326
 30
0.0
 11
73.769
 21
72.9326
 31
0.0
  0
LINE
  8
0
 62
     0
 10
73.769
 20
72.9326
 30
0.0
 11
73.769
 21
73.9331
 31
0.0
  0
LINE
  8
0
 62
     0
 10
73.769
 20
73.9331
 30
0.0
 11
59.7697
 21
73.9331
 31
0.0
  0
LINE
  8
0
 62
     0
 10
40.7197
 20
73.9331
 30
0.0
 11
40.7197
 21
72.9326
 31
0.0
  0
LINE
  8
0
 62
     0
 10
40.7197
 20
72.9326
 30
0.0
 11
39.9189
 21
72.9326
 31
0.0
  0
LINE
  8
0
 62
     0
 10
39.9189
 20
72.9326
 30
0.0
 11
39.9189
 21
69.8334
 31
0.0
  0
LINE
  8
0
 62
     0
 10
39.9189
 20
69.8334
 30
0.0
 11
40.7197
 21
69.8334
 31
0.0
  0
LINE
  8
0
 62
     0
 10
40.7197
 20
69.8334
 30
0.0
 11
40.7197
 21
64.0334
 31
0.0
  0
LINE
  8
0
 62
     0
 10
40.7197
 20
64.0334
 30
0.0
 11
39.9189
 21
64.0334
 31
0.0
  0
LINE
  8
0
 62
     0
 10
39.9189
 20
64.0334
 30
0.0
 11
39.9189
 21
60.9328
 31
0.0
  0
LINE
  8
0
 62
     0
 10
39.9189
 20
60.9328
 30
0.0
 11
40.7197
 21
60.9328
 31
0.0
  0
LINE
  8
0
 62
     0
 10
40.7197
 20
60.9328
 30
0.0
 11
40.7197
 21
59.9338
 31
0.0
  0
LINE
  8
0
 62
     0
 10
40.7197
 20
59.9338
 30
0.0
 11
54.719
 21
59.9338
 31
0.0
  0
LINE
  8
0
 62
     0
 10
54.719
 20
59.9338
 30
0.0
 11
54.719
 21
60.9328
 31
0.0
  0
LINE
  8
0
 62
     0
 10
54.719
 20
60.9328
 30
0.0
 11
55.5198
 21
60.9328
 31
0.0
  0
LINE
  8
0
 62
     0
 10
55.5198
 20
60.9328
 30
0.0
 11
55.5198
 21
64.0334
 31
0.0
  0
LINE
  8
0
 62
     0
 10
55.5198
 20
64.0334
 30
0.0
 11
54.719
 21
64.0334
 31
0.0
  0
LINE
  8
0
 62
     0
 10
54.719
 20
64.0334
 30
0.0
 11
54.719
 21
69.8334
 31
0.0
  0
LINE
  8
0
 62
     0
 10
54.719
 20
69.8334
 30
0.0
 11
55.5198
 21
69.8334
 31
0.0
  0
LINE
  8
0
 62
     0
 10
55.5198
 20
69.8334
 30
0.0
 11
55.5198
 21
72.9326
 31
0.0
  0
LINE
  8
0
 62
     0
 10
55.5198
 20
72.9326
 30
0.0
 11
54.719
 21
72.9326
 31
0.0
  0
LINE
  8
0
 62
     0
 10
54.719
 20
72.9326
 30
0.0
 11
54.719
 21
73.9331
 31
0.0
  0
LINE
  8
0
 62
     0
 10
54.719
 20
73.9331
 30
0.0
 11
40.7197
 21
73.9331
 31
0.0
  0
LINE
  8
0
 62
     0
 10
21.6697
 20
73.9331
 30
0.0
 11
21.6697
 21
72.9326
 31
0.0
  0
LINE
  8
0
 62
     0
 10
21.6697
 20
72.9326
 30
0.0
 11
20.869
 21
72.9326
 31
0.0
  0
LINE
  8
0
 62
     0
 10
20.869
 20
72.9326
 30
0.0
 11
20.869
 21
69.8334
 31
0.0
  0
LINE
  8
0
 62
     0
 10
20.869
 20
69.8334
 30
0.0
 11
21.6697
 21
69.8334
 31
0.0
  0
LINE
  8
0
 62
     0
 10
21.6697
 20
69.8334
 30
0.0
 11
21.6697
 21
64.0334
 31
0.0
  0
LINE
  8
0
 62
     0
 10
21.6697
 20
64.0334
 30
0.0
 11
20.869
 21
64.0334
 31
0.0
  0
LINE
  8
0
 62
     0
 10
20.869
 20
64.0334
 30
0.0
 11
20.869
 21
60.9328
 31
0.0
  0
LINE
  8
0
 62
     0
 10
20.869
 20
60.9328
 30
0.0
 11
21.6697
 21
60.9328
 31
0.0
  0
LINE
  8
0
 62
     0
 10
21.6697
 20
60.9328
 30
0.0
 11
21.6697
 21
59.9338
 31
0.0
  0
LINE
  8
0
 62
     0
 10
21.6697
 20
59.9338
 30
0.0
 11
35.669
 21
59.9338
 31
0.0
  0
LINE
  8
0
 62
     0
 10
35.669
 20
59.9338
 30
0.0
 11
35.669
 21
60.9328
 31
0.0
  0
LINE
  8
0
 62
     0
 10
35.669
 20
60.9328
 30
0.0
 11
36.4698
 21
60.9328
 31
0.0
  0
LINE
  8
0
 62
     0
 10
36.4698
 20
60.9328
 30
0.0
 11
36.4698
 21
64.0334
 31
0.0
  0
LINE
  8
0
 62
     0
 10
36.4698
 20
64.0334
 30
0.0
 11
35.669
 21
64.0334
 31
0.0
  0
LINE
  8
0
 62
     0
 10
35.669
 20
64.0334
 30
0.0
 11
35.669
 21
69.8334
 31
0.0
  0
LINE
  8
0
 62
     0
 10
35.669
 20
69.8334
 30
0.0
 11
36.4698
 21
69.8334
 31
0.0
  0
LINE
  8
0
 62
     0
 10
36.4698
 20
69.8334
 30
0.0
 11
36.4698
 21
72.9326
 31
0.0
  0
LINE
  8
0
 62
     0
 10
36.4698
 20
72.9326
 30
0.0
 11
35.669
 21
72.9326
 31
0.0
  0
LINE
  8
0
 62
     0
 10
35.669
 20
72.9326
 30
0.0
 11
35.669
 21
73.9331
 31
0.0
  0
LINE
  8
0
 62
     0
 10
35.669
 20
73.9331
 30
0.0
 11
21.6697
 21
73.9331
 31
0.0
  0
LINE
  8
0
 62
     0
 10
2.61965
 20
73.9331
 30
0.0
 11
2.61965
 21
72.9326
 31
0.0
  0
LINE
  8
0
 62
     0
 10
2.61965
 20
72.9326
 30
0.0
 11
1.81901
 21
72.9326
 31
0.0
  0
LINE
  8
0
 62
     0
 10
1.81901
 20
72.9326
 30
0.0
 11
1.81901
 21
69.8334
 31
0.0
  0
LINE
  8
0
 62
     0
 10
1.81901
 20
69.8334
 30
0.0
 11
2.61965
 21
69.8334
 31
0.0
  0
LINE
  8
0
 62
     0
 10
2.61965
 20
69.8334
 30
0.0
 11
2.61965
 21
64.0334
 31
0.0
  0
LINE
  8
0
 62
     0
 10
2.61965
 20
64.0334
 30
0.0
 11
1.81901
 21
64.0334
 31
0.0
  0
LINE
  8
0
 62
     0
 10
1.81901
 20
64.0334
 30
0.0
 11
1.81901
 21
60.9328
 31
0.0
  0
LINE
  8
0
 62
     0
 10
1.81901
 20
60.9328
 30
0.0
 11
2.61965
 21
60.9328
 31
0.0
  0
LINE
  8
0
 62
     0
 10
2.61965
 20
60.9328
 30
0.0
 11
2.61965
 21
59.9338
 31
0.0
  0
LINE
  8
0
 62
     0
 10
2.61965
 20
59.9338
 30
0.0
 11
16.6192
 21
59.9338
 31
0.0
  0
LINE
  8
0
 62
     0
 10
16.6192
 20
59.9338
 30
0.0
 11
16.6192
 21
60.9328
 31
0.0
  0
LINE
  8
0
 62
     0
 10
16.6192
 20
60.9328
 30
0.0
 11
17.4198
 21
60.9328
 31
0.0
  0
LINE
  8
0
 62
     0
 10
17.4198
 20
60.9328
 30
0.0
 11
17.4198
 21
64.0334
 31
0.0
  0
LINE
  8
0
 62
     0
 10
17.4198
 20
64.0334
 30
0.0
 11
16.6192
 21
64.0334
 31
0.0
  0
LINE
  8
0
 62
     0
 10
16.6192
 20
64.0334
 30
0.0
 11
16.6192
 21
69.8334
 31
0.0
  0
LINE
  8
0
 62
     0
 10
16.6192
 20
69.8334
 30
0.0
 11
17.4198
 21
69.8334
 31
0.0
  0
LINE
  8
0
 62
     0
 10
17.4198
 20
69.8334
 30
0.0
 11
17.4198
 21
72.9326
 31
0.0
  0
LINE
  8
0
 62
     0
 10
17.4198
 20
72.9326
 30
0.0
 11
16.6192
 21
72.9326
 31
0.0
  0
LINE
  8
0
 62
     0
 10
16.6192
 20
72.9326
 30
0.0
 11
16.6192
 21
73.9331
 31
0.0
  0
LINE
  8
0
 62
     0
 10
16.6192
 20
73.9331
 30
0.0
 11
2.61965
 21
73.9331
 31
0.0
  0
LINE
  8
0
 62
     0
 10
59.7697
 20
92.9831
 30
0.0
 11
59.7697
 21
91.9826
 31
0.0
  0
LINE
  8
0
 62
     0
 10
59.7697
 20
91.9826
 30
0.0
 11
58.9689
 21
91.9826
 31
0.0
  0
LINE
  8
0
 62
     0
 10
58.9689
 20
91.9826
 30
0.0
 11
58.9689
 21
88.8834
 31
0.0
  0
LINE
  8
0
 62
     0
 10
58.9689
 20
88.8834
 30
0.0
 11
59.7697
 21
88.8834
 31
0.0
  0
LINE
  8
0
 62
     0
 10
59.7697
 20
88.8834
 30
0.0
 11
59.7697
 21
83.0834
 31
0.0
  0
LINE
  8
0
 62
     0
 10
59.7697
 20
83.0834
 30
0.0
 11
58.9689
 21
83.0834
 31
0.0
  0
LINE
  8
0
 62
     0
 10
58.9689
 20
83.0834
 30
0.0
 11
58.9689
 21
79.9828
 31
0.0
  0
LINE
  8
0
 62
     0
 10
58.9689
 20
79.9828
 30
0.0
 11
59.7697
 21
79.9828
 31
0.0
  0
LINE
  8
0
 62
     0
 10
59.7697
 20
79.9828
 30
0.0
 11
59.7697
 21
78.9838
 31
0.0
  0
LINE
  8
0
 62
     0
 10
59.7697
 20
78.9838
 30
0.0
 11
73.769
 21
78.9838
 31
0.0
  0
LINE
  8
0
 62
     0
 10
73.769
 20
78.9838
 30
0.0
 11
73.769
 21
79.9828
 31
0.0
  0
LINE
  8
0
 62
     0
 10
73.769
 20
79.9828
 30
0.0
 11
74.5698
 21
79.9828
 31
0.0
  0
LINE
  8
0
 62
     0
 10
74.5698
 20
79.9828
 30
0.0
 11
74.5698
 21
83.0834
 31
0.0
  0
LINE
  8
0
 62
     0
 10
74.5698
 20
83.0834
 30
0.0
 11
73.769
 21
83.0834
 31
0.0
  0
LINE
  8
0
 62
     0
 10
73.769
 20
83.0834
 30
0.0
 11
73.769
 21
88.8834
 31
0.0
  0
LINE
  8
0
 62
     0
 10
73.769
 20
88.8834
 30
0.0
 11
74.5698
 21
88.8834
 31
0.0
  0
LINE
  8
0
 62
     0
 10
74.5698
 20
88.8834
 30
0.0
 11
74.5698
 21
91.9826
 31
0.0
  0
LINE
  8
0
 62
     0
 10
74.5698
 20
91.9826
 30
0.0
 11
73.769
 21
91.9826
 31
0.0
  0
LINE
  8
0
 62
     0
 10
73.769
 20
91.9826
 30
0.0
 11
73.769
 21
92.9831
 31
0.0
  0
LINE
  8
0
 62
     0
 10
73.769
 20
92.9831
 30
0.0
 11
59.7697
 21
92.9831
 31
0.0
  0
LINE
  8
0
 62
     0
 10
40.7197
 20
92.9831
 30
0.0
 11
40.7197
 21
91.9826
 31
0.0
  0
LINE
  8
0
 62
     0
 10
40.7197
 20
91.9826
 30
0.0
 11
39.9189
 21
91.9826
 31
0.0
  0
LINE
  8
0
 62
     0
 10
39.9189
 20
91.9826
 30
0.0
 11
39.9189
 21
88.8834
 31
0.0
  0
LINE
  8
0
 62
     0
 10
39.9189
 20
88.8834
 30
0.0
 11
40.7197
 21
88.8834
 31
0.0
  0
LINE
  8
0
 62
     0
 10
40.7197
 20
88.8834
 30
0.0
 11
40.7197
 21
83.0834
 31
0.0
  0
LINE
  8
0
 62
     0
 10
40.7197
 20
83.0834
 30
0.0
 11
39.9189
 21
83.0834
 31
0.0
  0
LINE
  8
0
 62
     0
 10
39.9189
 20
83.0834
 30
0.0
 11
39.9189
 21
79.9828
 31
0.0
  0
LINE
  8
0
 62
     0
 10
39.9189
 20
79.9828
 30
0.0
 11
40.7197
 21
79.9828
 31
0.0
  0
LINE
  8
0
 62
     0
 10
40.7197
 20
79.9828
 30
0.0
 11
40.7197
 21
78.9838
 31
0.0
  0
LINE
  8
0
 62
     0
 10
40.7197
 20
78.9838
 30
0.0
 11
54.719
 21
78.9838
 31
0.0
  0
LINE
  8
0
 62
     0
 10
54.719
 20
78.9838
 30
0.0
 11
54.719
 21
79.9828
 31
0.0
  0
LINE
  8
0
 62
     0
 10
54.719
 20
79.9828
 30
0.0
 11
55.5198
 21
79.9828
 31
0.0
  0
LINE
  8
0
 62
     0
 10
55.5198
 20
79.9828
 30
0.0
 11
55.5198
 21
83.0834
 31
0.0
  0
LINE
  8
0
 62
     0
 10
55.5198
 20
83.0834
 30
0.0
 11
54.719
 21
83.0834
 31
0.0
  0
LINE
  8
0
 62
     0
 10
54.719
 20
83.0834
 30
0.0
 11
54.719
 21
88.8834
 31
0.0
  0
LINE
  8
0
 62
     0
 10
54.719
 20
88.8834
 30
0.0
 11
55.5198
 21
88.8834
 31
0.0
  0
LINE
  8
0
 62
     0
 10
55.5198
 20
88.8834
 30
0.0
 11
55.5198
 21
91.9826
 31
0.0
  0
LINE
  8
0
 62
     0
 10
55.5198
 20
91.9826
 30
0.0
 11
54.719
 21
91.9826
 31
0.0
  0
LINE
  8
0
 62
     0
 10
54.719
 20
91.9826
 30
0.0
 11
54.719
 21
92.9831
 31
0.0
  0
LINE
  8
0
 62
     0
 10
54.719
 20
92.9831
 30
0.0
 11
40.7197
 21
92.9831
 31
0.0
  0
LINE
  8
0
 62
     0
 10
21.6697
 20
92.9831
 30
0.0
 11
21.6697
 21
91.9826
 31
0.0
  0
LINE
  8
0
 62
     0
 10
21.6697
 20
91.9826
 30
0.0
 11
20.869
 21
91.9826
 31
0.0
  0
LINE
  8
0
 62
     0
 10
20.869
 20
91.9826
 30
0.0
 11
20.869
 21
88.8834
 31
0.0
  0
LINE
  8
0
 62
     0
 10
20.869
 20
88.8834
 30
0.0
 11
21.6697
 21
88.8834
 31
0.0
  0
LINE
  8
0
 62
     0
 10
21.6697
 20
88.8834
 30
0.0
 11
21.6697
 21
83.0834
 31
0.0
  0
LINE
  8
0
 62
     0
 10
21.6697
 20
83.0834
 30
0.0
 11
20.869
 21
83.0834
 31
0.0
  0
LINE
  8
0
 62
     0
 10
20.869
 20
83.0834
 30
0.0
 11
20.869
 21
79.9828
 31
0.0
  0
LINE
  8
0
 62
     0
 10
20.869
 20
79.9828
 30
0.0
 11
21.6697
 21
79.9828
 31
0.0
  0
LINE
  8
0
 62
     0
 10
21.6697
 20
79.9828
 30
0.0
 11
21.6697
 21
78.9838
 31
0.0
  0
LINE
  8
0
 62
     0
 10
21.6697
 20
78.9838
 30
0.0
 11
35.669
 21
78.9838
 31
0.0
  0
LINE
  8
0
 62
     0
 10
35.669
 20
78.9838
 30
0.0
 11
35.669
 21
79.9828
 31
0.0
  0
LINE
  8
0
 62
     0
 10
35.669
 20
79.9828
 30
0.0
 11
36.4698
 21
79.9828
 31
0.0
  0
LINE
  8
0
 62
     0
 10
36.4698
 20
79.9828
 30
0.0
 11
36.4698
 21
83.0834
 31
0.0
  0
LINE
  8
0
 62
     0
 10
36.4698
 20
83.0834
 30
0.0
 11
35.669
 21
83.0834
 31
0.0
  0
LINE
  8
0
 62
     0
 10
35.669
 20
83.0834
 30
0.0
 11
35.669
 21
88.8834
 31
0.0
  0
LINE
  8
0
 62
     0
 10
35.669
 20
88.8834
 30
0.0
 11
36.4698
 21
88.8834
 31
0.0
  0
LINE
  8
0
 62
     0
 10
36.4698
 20
88.8834
 30
0.0
 11
36.4698
 21
91.9826
 31
0.0
  0
LINE
  8
0
 62
     0
 10
36.4698
 20
91.9826
 30
0.0
 11
35.669
 21
91.9826
 31
0.0
  0
LINE
  8
0
 62
     0
 10
35.669
 20
91.9826
 30
0.0
 11
35.669
 21
92.9831
 31
0.0
  0
LINE
  8
0
 62
     0
 10
35.669
 20
92.9831
 30
0.0
 11
21.6697
 21
92.9831
 31
0.0
  0
LINE
  8
0
 62
     0
 10
2.61965
 20
92.9831
 30
0.0
 11
2.61965
 21
91.9826
 31
0.0
  0
LINE
  8
0
 62
     0
 10
2.61965
 20
91.9826
 30
0.0
 11
1.81901
 21
91.9826
 31
0.0
  0
LINE
  8
0
 62
     0
 10
1.81901
 20
91.9826
 30
0.0
 11
1.81901
 21
88.8834
 31
0.0
  0
LINE
  8
0
 62
     0
 10
1.81901
 20
88.8834
 30
0.0
 11
2.61965
 21
88.8834
 31
0.0
  0
LINE
  8
0
 62
     0
 10
2.61965
 20
88.8834
 30
0.0
 11
2.61965
 21
83.0834
 31
0.0
  0
LINE
  8
0
 62
     0
 10
2.61965
 20
83.0834
 30
0.0
 11
1.81901
 21
83.0834
 31
0.0
  0
LINE
  8
0
 62
     0
 10
1.81901
 20
83.0834
 30
0.0
 11
1.81901
 21
79.9828
 31
0.0
  0
LINE
  8
0
 62
     0
 10
1.81901
 20
79.9828
 30
0.0
 11
2.61965
 21
79.9828
 31
0.0
  0
LINE
  8
0
 62
     0
 10
2.61965
 20
79.9828
 30
0.0
 11
2.61965
 21
78.9838
 31
0.0
  0
LINE
  8
0
 62
     0
 10
2.61965
 20
78.9838
 30
0.0
 11
16.6192
 21
78.9838
 31
0.0
  0
LINE
  8
0
 62
     0
 10
16.6192
 20
78.9838
 30
0.0
 11
16.6192
 21
79.9828
 31
0.0
  0
LINE
  8
0
 62
     0
 10
16.6192
 20
79.9828
 30
0.0
 11
17.4198
 21
79.9828
 31
0.0
  0
LINE
  8
0
 62
     0
 10
17.4198
 20
79.9828
 30
0.0
 11
17.4198
 21
83.0834
 31
0.0
  0
LINE
  8
0
 62
     0
 10
17.4198
 20
83.0834
 30
0.0
 11
16.6192
 21
83.0834
 31
0.0
  0
LINE
  8
0
 62
     0
 10
16.6192
 20
83.0834
 30
0.0
 11
16.6192
 21
88.8834
 31
0.0
  0
LINE
  8
0
 62
     0
 10
16.6192
 20
88.8834
 30
0.0
 11
17.4198
 21
88.8834
 31
0.0
  0
LINE
  8
0
 62
     0
 10
17.4198
 20
88.8834
 30
0.0
 11
17.4198
 21
91.9826
 31
0.0
  0
LINE
  8
0
 62
     0
 10
17.4198
 20
91.9826
 30
0.0
 11
16.6192
 21
91.9826
 31
0.0
  0
LINE
  8
0
 62
     0
 10
16.6192
 20
91.9826
 30
0.0
 11
16.6192
 21
92.9831
 31
0.0
  0
LINE
  8
0
 62
     0
 10
16.6192
 20
92.9831
 30
0.0
 11
2.61965
 21
92.9831
 31
0.0
  0
ENDSEC
  0
EOF
