0
SECTION
2
HEADER
9
$INSUNITS
70
4
9
$INSBASE
10
0.0
20
0.0
30
0.0
9
$EXTMIN
10
0
20
0
9
$EXTMAX
10
176.4125
20
24.025
0
ENDSEC
0
SECTION
2
TABLES
0
TABLE
2
LTYPE
70
1
0
LTYPE
2
CONTINUOUS
70
64
3
Solid line
72
65
73
0
40
0.0
0
ENDTAB
0
TABLE
2
LAYER
70
1
0
LAYER
2
Layer1
70
64
62
7
6
CONTINUOUS
0
ENDTAB
0
TABLE
2
STYLE
70
0
0
ENDTAB
0
TABLE
2
VIEW
70
0
0
ENDTAB
0
ENDSEC
0
SECTION
2
BLOCKS
0
ENDSEC
0
SECTION
2
ENTITIES
0
POLYLINE
5
4e
8
Layer1
66
1
10
0.0
20
0.0
30
0.0
70
1
0
VERTEX
5
4f
8
Layer1
10
0.0000
20
0.0000
30
0.0
0
VERTEX
5
50
8
Layer1
10
176.4125
20
0.0000
30
0.0
0
VERTEX
5
51
8
Layer1
10
176.4125
20
24.0250
30
0.0
0
VERTEX
5
52
8
Layer1
10
0.0000
20
24.0250
30
0.0
0
VERTEX
5
53
8
Layer1
10
0.0000
20
0.0000
30
0.0
0
SEQEND
5
54
8
Layer1
0
POLYLINE
5
55
8
Layer1
66
1
10
0.0
20
0.0
30
0.0
70
1
0
VERTEX
5
56
8
Layer1
10
21.4060
20
6.0000
30
0.0
0
VERTEX
5
57
8
Layer1
10
22.2060
20
6.0000
30
0.0
0
VERTEX
5
58
8
Layer1
10
22.2060
20
18.0000
30
0.0
0
VERTEX
5
59
8
Layer1
10
21.4060
20
18.0000
30
0.0
0
VERTEX
5
5a
8
Layer1
10
21.4060
20
19.0000
30
0.0
0
VERTEX
5
5b
8
Layer1
10
7.4060
20
19.0000
30
0.0
0
VERTEX
5
5c
8
Layer1
10
7.4060
20
18.0000
30
0.0
0
VERTEX
5
5d
8
Layer1
10
6.6060
20
18.0000
30
0.0
0
VERTEX
5
5e
8
Layer1
10
6.6060
20
6.0000
30
0.0
0
VERTEX
5
5f
8
Layer1
10
7.4060
20
6.0000
30
0.0
0
VERTEX
5
60
8
Layer1
10
7.4060
20
5.0000
30
0.0
0
VERTEX
5
61
8
Layer1
10
21.4060
20
5.0000
30
0.0
0
VERTEX
5
62
8
Layer1
10
21.4060
20
6.0000
30
0.0
0
SEQEND
5
63
8
Layer1
0
POLYLINE
5
64
8
Layer1
66
1
10
0.0
20
0.0
30
0.0
70
1
0
VERTEX
5
65
8
Layer1
10
37.4940
20
5.2300
30
0.0
0
VERTEX
5
66
8
Layer1
10
39.1690
20
5.2300
30
0.0
0
VERTEX
5
67
8
Layer1
10
39.1690
20
9.7000
30
0.0
0
VERTEX
5
68
8
Layer1
10
78.0440
20
9.7000
30
0.0
0
VERTEX
5
69
8
Layer1
10
78.0440
20
6.0000
30
0.0
0
VERTEX
5
6a
8
Layer1
10
78.8440
20
6.0000
30
0.0
0
VERTEX
5
6b
8
Layer1
10
78.8440
20
5.0000
30
0.0
0
VERTEX
5
6c
8
Layer1
10
92.8440
20
5.0000
30
0.0
0
VERTEX
5
6d
8
Layer1
10
92.8440
20
6.0000
30
0.0
0
VERTEX
5
6e
8
Layer1
10
93.6440
20
6.0000
30
0.0
0
VERTEX
5
6f
8
Layer1
10
93.6440
20
9.7000
30
0.0
0
VERTEX
5
70
8
Layer1
10
132.5190
20
9.7000
30
0.0
0
VERTEX
5
71
8
Layer1
10
132.5190
20
5.2300
30
0.0
0
VERTEX
5
72
8
Layer1
10
134.1940
20
5.2300
30
0.0
0
VERTEX
5
73
8
Layer1
10
134.1940
20
4.2380
30
0.0
0
VERTEX
5
74
8
Layer1
10
137.4940
20
4.2380
30
0.0
0
VERTEX
5
75
8
Layer1
10
137.4940
20
5.2300
30
0.0
0
VERTEX
5
76
8
Layer1
10
139.1690
20
5.2300
30
0.0
0
VERTEX
5
77
8
Layer1
10
139.1690
20
11.5000
30
0.0
0
VERTEX
5
78
8
Layer1
10
140.0690
20
11.5000
30
0.0
0
VERTEX
5
79
8
Layer1
10
140.0690
20
14.3000
30
0.0
0
VERTEX
5
7a
8
Layer1
10
139.1690
20
14.3000
30
0.0
0
VERTEX
5
7b
8
Layer1
10
139.1690
20
17.5300
30
0.0
0
VERTEX
5
7c
8
Layer1
10
137.4940
20
17.5300
30
0.0
0
VERTEX
5
7d
8
Layer1
10
137.4940
20
18.2380
30
0.0
0
VERTEX
5
7e
8
Layer1
10
134.1940
20
18.2380
30
0.0
0
VERTEX
5
7f
8
Layer1
10
134.1940
20
17.5300
30
0.0
0
VERTEX
5
80
8
Layer1
10
132.5190
20
17.5300
30
0.0
0
VERTEX
5
81
8
Layer1
10
132.5190
20
14.3000
30
0.0
0
VERTEX
5
82
8
Layer1
10
93.6440
20
14.3000
30
0.0
0
VERTEX
5
83
8
Layer1
10
93.6440
20
18.0000
30
0.0
0
VERTEX
5
84
8
Layer1
10
92.8440
20
18.0000
30
0.0
0
VERTEX
5
85
8
Layer1
10
92.8440
20
19.0000
30
0.0
0
VERTEX
5
86
8
Layer1
10
78.8440
20
19.0000
30
0.0
0
VERTEX
5
87
8
Layer1
10
78.8440
20
18.0000
30
0.0
0
VERTEX
5
88
8
Layer1
10
78.0440
20
18.0000
30
0.0
0
VERTEX
5
89
8
Layer1
10
78.0440
20
14.3000
30
0.0
0
VERTEX
5
8a
8
Layer1
10
39.1690
20
14.3000
30
0.0
0
VERTEX
5
8b
8
Layer1
10
39.1690
20
17.5300
30
0.0
0
VERTEX
5
8c
8
Layer1
10
37.4940
20
17.5300
30
0.0
0
VERTEX
5
8d
8
Layer1
10
37.4940
20
18.2380
30
0.0
0
VERTEX
5
8e
8
Layer1
10
34.1940
20
18.2380
30
0.0
0
VERTEX
5
8f
8
Layer1
10
34.1940
20
17.5300
30
0.0
0
VERTEX
5
90
8
Layer1
10
32.5190
20
17.5300
30
0.0
0
VERTEX
5
91
8
Layer1
10
32.5190
20
14.3000
30
0.0
0
VERTEX
5
92
8
Layer1
10
31.6190
20
14.3000
30
0.0
0
VERTEX
5
93
8
Layer1
10
31.6190
20
11.5000
30
0.0
0
VERTEX
5
94
8
Layer1
10
32.5190
20
11.5000
30
0.0
0
VERTEX
5
95
8
Layer1
10
32.5190
20
5.2300
30
0.0
0
VERTEX
5
96
8
Layer1
10
34.1940
20
5.2300
30
0.0
0
VERTEX
5
97
8
Layer1
10
34.1940
20
4.2380
30
0.0
0
VERTEX
5
98
8
Layer1
10
37.4940
20
4.2380
30
0.0
0
VERTEX
5
99
8
Layer1
10
37.4940
20
5.2300
30
0.0
0
SEQEND
5
9a
8
Layer1
0
POLYLINE
5
9b
8
Layer1
66
1
10
0.0
20
0.0
30
0.0
70
1
0
VERTEX
5
9c
8
Layer1
10
166.6630
20
6.0000
30
0.0
0
VERTEX
5
9d
8
Layer1
10
167.4630
20
6.0000
30
0.0
0
VERTEX
5
9e
8
Layer1
10
167.4630
20
18.0000
30
0.0
0
VERTEX
5
9f
8
Layer1
10
166.6630
20
18.0000
30
0.0
0
VERTEX
5
a0
8
Layer1
10
166.6630
20
19.0000
30
0.0
0
VERTEX
5
a1
8
Layer1
10
152.6630
20
19.0000
30
0.0
0
VERTEX
5
a2
8
Layer1
10
152.6630
20
18.0000
30
0.0
0
VERTEX
5
a3
8
Layer1
10
151.8620
20
18.0000
30
0.0
0
VERTEX
5
a4
8
Layer1
10
151.8620
20
6.0000
30
0.0
0
VERTEX
5
a5
8
Layer1
10
152.6630
20
6.0000
30
0.0
0
VERTEX
5
a6
8
Layer1
10
152.6630
20
5.0000
30
0.0
0
VERTEX
5
a7
8
Layer1
10
166.6630
20
5.0000
30
0.0
0
VERTEX
5
a8
8
Layer1
10
166.6630
20
6.0000
30
0.0
0
SEQEND
5
a9
8
Layer1
0
ENDSEC
0
EOF
