  0
SECTION
  2
HEADER
  9
$ACADVER
  1
AC1009
  9
$EXTMIN
 10
0.0
 20
0.0
 30
0.0
  9
$EXTMAX
 10
1000.0
 20
1000.0
 30
0.0
  9
$FILLMODE
 70
 0
  9
$SPLFRAME
 70
 1
  0
ENDSEC
  0
SECTION
  2
TABLES
  0
TABLE
  2
LAYER
 70
1
  0
LAYER
  2
0
 70
     0
 62
     7
  6
CONTINUOUS
  0
ENDTAB
  0
ENDSEC
  0
SECTION
  2
ENTITIES
  0
LINE
  8
0
 62
     0
 10
0.0950846
 20
38.3575
 30
0.0
 11
171.545
 21
38.3575
 31
0.0
  0
LINE
  8
0
 62
     0
 10
171.545
 20
38.3575
 30
0.0
 11
171.545
 21
0.257693
 31
0.0
  0
LINE
  8
0
 62
     0
 10
171.545
 20
0.257693
 30
0.0
 11
0.0950846
 21
0.257693
 31
0.0
  0
LINE
  8
0
 62
     0
 10
0.0950846
 20
0.257693
 30
0.0
 11
0.0950846
 21
38.3575
 31
0.0
  0
LINE
  8
0
 62
     0
 10
5.00091
 20
16.7831
 30
0.0
 11
5.00091
 21
16.1837
 31
0.0
  0
LINE
  8
0
 62
     0
 10
5.00091
 20
16.1837
 30
0.0
 11
4.20028
 21
16.1837
 31
0.0
  0
LINE
  8
0
 62
     0
 10
4.20028
 20
16.1837
 30
0.0
 11
4.20028
 21
3.38308
 31
0.0
  0
LINE
  8
0
 62
     0
 10
4.20028
 20
3.38308
 30
0.0
 11
5.00091
 21
3.38308
 31
0.0
  0
LINE
  8
0
 62
     0
 10
5.00091
 20
3.38308
 30
0.0
 11
5.00091
 21
2.78364
 31
0.0
  0
LINE
  8
0
 62
     0
 10
5.00091
 20
2.78364
 30
0.0
 11
17.4942
 21
2.78364
 31
0.0
  0
LINE
  8
0
 62
     0
 10
17.4942
 20
2.78364
 30
0.0
 11
17.4942
 21
2.03261
 31
0.0
  0
LINE
  8
0
 62
     0
 10
17.4942
 20
2.03261
 30
0.0
 11
20.7946
 21
2.03261
 31
0.0
  0
LINE
  8
0
 62
     0
 10
20.7946
 20
2.03261
 30
0.0
 11
20.7946
 21
3.01377
 31
0.0
  0
LINE
  8
0
 62
     0
 10
20.7946
 20
3.01377
 30
0.0
 11
22.5199
 21
3.01377
 31
0.0
  0
LINE
  8
0
 62
     0
 10
22.5199
 20
3.01377
 30
0.0
 11
22.5199
 21
7.48273
 31
0.0
  0
LINE
  8
0
 62
     0
 10
22.5199
 20
7.48273
 30
0.0
 11
30.0619
 21
7.48273
 31
0.0
  0
LINE
  8
0
 62
     0
 10
30.0619
 20
7.48273
 30
0.0
 11
30.0619
 21
3.01377
 31
0.0
  0
LINE
  8
0
 62
     0
 10
30.0619
 20
3.01377
 30
0.0
 11
31.7872
 21
3.01377
 31
0.0
  0
LINE
  8
0
 62
     0
 10
31.7872
 20
3.01377
 30
0.0
 11
31.7872
 21
2.03261
 31
0.0
  0
LINE
  8
0
 62
     0
 10
31.7872
 20
2.03261
 30
0.0
 11
35.0876
 21
2.03261
 31
0.0
  0
LINE
  8
0
 62
     0
 10
35.0876
 20
2.03261
 30
0.0
 11
35.0876
 21
3.01377
 31
0.0
  0
LINE
  8
0
 62
     0
 10
35.0876
 20
3.01377
 30
0.0
 11
36.8131
 21
3.01377
 31
0.0
  0
LINE
  8
0
 62
     0
 10
36.8131
 20
3.01377
 30
0.0
 11
36.8131
 21
7.48273
 31
0.0
  0
LINE
  8
0
 62
     0
 10
36.8131
 20
7.48273
 30
0.0
 11
75.6377
 21
7.48273
 31
0.0
  0
LINE
  8
0
 62
     0
 10
75.6377
 20
7.48273
 30
0.0
 11
75.6377
 21
3.38308
 31
0.0
  0
LINE
  8
0
 62
     0
 10
75.6377
 20
3.38308
 30
0.0
 11
76.4371
 21
3.38308
 31
0.0
  0
LINE
  8
0
 62
     0
 10
76.4371
 20
3.38308
 30
0.0
 11
76.4371
 21
2.78364
 31
0.0
  0
LINE
  8
0
 62
     0
 10
76.4371
 20
2.78364
 30
0.0
 11
92.819
 21
2.78364
 31
0.0
  0
LINE
  8
0
 62
     0
 10
92.819
 20
2.78364
 30
0.0
 11
92.819
 21
3.38308
 31
0.0
  0
LINE
  8
0
 62
     0
 10
92.819
 20
3.38308
 30
0.0
 11
93.6198
 21
3.38308
 31
0.0
  0
LINE
  8
0
 62
     0
 10
93.6198
 20
3.38308
 30
0.0
 11
93.6198
 21
7.48273
 31
0.0
  0
LINE
  8
0
 62
     0
 10
93.6198
 20
7.48273
 30
0.0
 11
130.062
 21
7.48273
 31
0.0
  0
LINE
  8
0
 62
     0
 10
130.062
 20
7.48273
 30
0.0
 11
130.062
 21
3.01377
 31
0.0
  0
LINE
  8
0
 62
     0
 10
130.062
 20
3.01377
 30
0.0
 11
131.787
 21
3.01377
 31
0.0
  0
LINE
  8
0
 62
     0
 10
131.787
 20
3.01377
 30
0.0
 11
131.787
 21
2.03261
 31
0.0
  0
LINE
  8
0
 62
     0
 10
131.787
 20
2.03261
 30
0.0
 11
135.088
 21
2.03261
 31
0.0
  0
LINE
  8
0
 62
     0
 10
135.088
 20
2.03261
 30
0.0
 11
135.088
 21
3.01377
 31
0.0
  0
LINE
  8
0
 62
     0
 10
135.088
 20
3.01377
 30
0.0
 11
136.813
 21
3.01377
 31
0.0
  0
LINE
  8
0
 62
     0
 10
136.813
 20
3.01377
 30
0.0
 11
136.813
 21
7.48273
 31
0.0
  0
LINE
  8
0
 62
     0
 10
136.813
 20
7.48273
 30
0.0
 11
149.119
 21
7.48273
 31
0.0
  0
LINE
  8
0
 62
     0
 10
149.119
 20
7.48273
 30
0.0
 11
149.119
 21
3.01377
 31
0.0
  0
LINE
  8
0
 62
     0
 10
149.119
 20
3.01377
 30
0.0
 11
150.257
 21
3.01377
 31
0.0
  0
LINE
  8
0
 62
     0
 10
150.257
 20
3.01377
 30
0.0
 11
150.257
 21
2.78364
 31
0.0
  0
LINE
  8
0
 62
     0
 10
150.257
 20
2.78364
 30
0.0
 11
150.844
 21
2.78364
 31
0.0
  0
LINE
  8
0
 62
     0
 10
150.844
 20
2.78364
 30
0.0
 11
150.844
 21
2.03261
 31
0.0
  0
LINE
  8
0
 62
     0
 10
150.844
 20
2.03261
 30
0.0
 11
154.144
 21
2.03261
 31
0.0
  0
LINE
  8
0
 62
     0
 10
154.144
 20
2.03261
 30
0.0
 11
154.144
 21
2.78364
 31
0.0
  0
LINE
  8
0
 62
     0
 10
154.144
 20
2.78364
 30
0.0
 11
164.257
 21
2.78364
 31
0.0
  0
LINE
  8
0
 62
     0
 10
164.257
 20
2.78364
 30
0.0
 11
164.257
 21
3.38308
 31
0.0
  0
LINE
  8
0
 62
     0
 10
164.257
 20
3.38308
 30
0.0
 11
165.056
 21
3.38308
 31
0.0
  0
LINE
  8
0
 62
     0
 10
165.056
 20
3.38308
 30
0.0
 11
165.056
 21
16.1837
 31
0.0
  0
LINE
  8
0
 62
     0
 10
165.056
 20
16.1837
 30
0.0
 11
164.257
 21
16.1837
 31
0.0
  0
LINE
  8
0
 62
     0
 10
164.257
 20
16.1837
 30
0.0
 11
164.257
 21
16.7831
 31
0.0
  0
LINE
  8
0
 62
     0
 10
164.257
 20
16.7831
 30
0.0
 11
150.257
 21
16.7831
 31
0.0
  0
LINE
  8
0
 62
     0
 10
150.257
 20
16.7831
 30
0.0
 11
150.257
 21
16.1837
 31
0.0
  0
LINE
  8
0
 62
     0
 10
150.257
 20
16.1837
 30
0.0
 11
149.456
 21
16.1837
 31
0.0
  0
LINE
  8
0
 62
     0
 10
149.456
 20
16.1837
 30
0.0
 11
149.456
 21
15.3128
 31
0.0
  0
LINE
  8
0
 62
     0
 10
149.456
 20
15.3128
 30
0.0
 11
149.119
 21
15.3128
 31
0.0
  0
LINE
  8
0
 62
     0
 10
149.119
 20
15.3128
 30
0.0
 11
149.119
 21
12.0826
 31
0.0
  0
LINE
  8
0
 62
     0
 10
149.119
 20
12.0826
 30
0.0
 11
136.813
 21
12.0826
 31
0.0
  0
LINE
  8
0
 62
     0
 10
136.813
 20
12.0826
 30
0.0
 11
136.813
 21
15.3128
 31
0.0
  0
LINE
  8
0
 62
     0
 10
136.813
 20
15.3128
 30
0.0
 11
135.088
 21
15.3128
 31
0.0
  0
LINE
  8
0
 62
     0
 10
135.088
 20
15.3128
 30
0.0
 11
135.088
 21
16.2333
 31
0.0
  0
LINE
  8
0
 62
     0
 10
135.088
 20
16.2333
 30
0.0
 11
131.787
 21
16.2333
 31
0.0
  0
LINE
  8
0
 62
     0
 10
131.787
 20
16.2333
 30
0.0
 11
131.787
 21
15.3128
 31
0.0
  0
LINE
  8
0
 62
     0
 10
131.787
 20
15.3128
 30
0.0
 11
130.062
 21
15.3128
 31
0.0
  0
LINE
  8
0
 62
     0
 10
130.062
 20
15.3128
 30
0.0
 11
130.062
 21
12.0826
 31
0.0
  0
LINE
  8
0
 62
     0
 10
130.062
 20
12.0826
 30
0.0
 11
93.6198
 21
12.0826
 31
0.0
  0
LINE
  8
0
 62
     0
 10
93.6198
 20
12.0826
 30
0.0
 11
93.6198
 21
16.1837
 31
0.0
  0
LINE
  8
0
 62
     0
 10
93.6198
 20
16.1837
 30
0.0
 11
92.819
 21
16.1837
 31
0.0
  0
LINE
  8
0
 62
     0
 10
92.819
 20
16.1837
 30
0.0
 11
92.819
 21
16.7831
 31
0.0
  0
LINE
  8
0
 62
     0
 10
92.819
 20
16.7831
 30
0.0
 11
76.4371
 21
16.7831
 31
0.0
  0
LINE
  8
0
 62
     0
 10
76.4371
 20
16.7831
 30
0.0
 11
76.4371
 21
16.1837
 31
0.0
  0
LINE
  8
0
 62
     0
 10
76.4371
 20
16.1837
 30
0.0
 11
75.6377
 21
16.1837
 31
0.0
  0
LINE
  8
0
 62
     0
 10
75.6377
 20
16.1837
 30
0.0
 11
75.6377
 21
12.0826
 31
0.0
  0
LINE
  8
0
 62
     0
 10
75.6377
 20
12.0826
 30
0.0
 11
36.8131
 21
12.0826
 31
0.0
  0
LINE
  8
0
 62
     0
 10
36.8131
 20
12.0826
 30
0.0
 11
36.8131
 21
15.3128
 31
0.0
  0
LINE
  8
0
 62
     0
 10
36.8131
 20
15.3128
 30
0.0
 11
35.0876
 21
15.3128
 31
0.0
  0
LINE
  8
0
 62
     0
 10
35.0876
 20
15.3128
 30
0.0
 11
35.0876
 21
16.2333
 31
0.0
  0
LINE
  8
0
 62
     0
 10
35.0876
 20
16.2333
 30
0.0
 11
31.7872
 21
16.2333
 31
0.0
  0
LINE
  8
0
 62
     0
 10
31.7872
 20
16.2333
 30
0.0
 11
31.7872
 21
15.3128
 31
0.0
  0
LINE
  8
0
 62
     0
 10
31.7872
 20
15.3128
 30
0.0
 11
30.0619
 21
15.3128
 31
0.0
  0
LINE
  8
0
 62
     0
 10
30.0619
 20
15.3128
 30
0.0
 11
30.0619
 21
12.0826
 31
0.0
  0
LINE
  8
0
 62
     0
 10
30.0619
 20
12.0826
 30
0.0
 11
22.5199
 21
12.0826
 31
0.0
  0
LINE
  8
0
 62
     0
 10
22.5199
 20
12.0826
 30
0.0
 11
22.5199
 21
15.3128
 31
0.0
  0
LINE
  8
0
 62
     0
 10
22.5199
 20
15.3128
 30
0.0
 11
20.7946
 21
15.3128
 31
0.0
  0
LINE
  8
0
 62
     0
 10
20.7946
 20
15.3128
 30
0.0
 11
20.7946
 21
16.2333
 31
0.0
  0
LINE
  8
0
 62
     0
 10
20.7946
 20
16.2333
 30
0.0
 11
19.0004
 21
16.2333
 31
0.0
  0
LINE
  8
0
 62
     0
 10
19.0004
 20
16.2333
 30
0.0
 11
19.0004
 21
16.7831
 31
0.0
  0
LINE
  8
0
 62
     0
 10
19.0004
 20
16.7831
 30
0.0
 11
5.00091
 21
16.7831
 31
0.0
  0
ENDSEC
  0
EOF
